<svg width="18" height="31" viewBox="0 0 18 31" fill="none" xmlns="http://www.w3.org/2000/svg">
<path d="M9.00022 0.518066C4.03754 0.518066 0 4.5556 0 9.51829C0 14.6336 7.85238 29.324 8.18665 29.947C8.30179 30.1616 8.52493 30.2969 8.76905 30.3C8.77172 30.3 8.77396 30.3 8.77664 30.3C9.01763 30.3 9.24032 30.1701 9.35904 29.9604C9.71205 29.3373 18 14.6416 18 9.51829C18.0004 4.5556 13.9629 0.518066 9.00022 0.518066ZM8.7927 28.2207C6.95445 24.6813 1.33885 13.538 1.33885 9.51784C1.33885 5.29331 4.77569 1.85647 9.00022 1.85647C13.2248 1.85647 16.6616 5.29331 16.6616 9.51784C16.6616 13.5353 10.7238 24.6964 8.7927 28.2207Z" fill="#002068"/>
<path d="M9.0001 6.04541C7.21809 6.04541 5.76855 7.49494 5.76855 9.27696C5.76855 11.059 7.21809 12.5085 9.0001 12.5085C10.7821 12.5085 12.2317 11.0585 12.2317 9.27696C12.2317 7.49539 10.7821 6.04541 9.0001 6.04541ZM9.0001 11.1697C7.95669 11.1697 7.10741 10.3204 7.10741 9.27696C7.10741 8.23354 7.95624 7.38426 9.0001 7.38426C10.044 7.38426 10.8928 8.2331 10.8928 9.27696C10.8928 10.3208 10.0435 11.1697 9.0001 11.1697Z" fill="#002068"/>
</svg>
