<svg width="361" height="357" viewBox="0 0 361 357" fill="none" xmlns="http://www.w3.org/2000/svg">
<g filter="url(#filter0_d_661_1013)">
<rect x="2" y="2" width="353" height="349" rx="19.0804" fill="white"/>
<path d="M110.199 264.313H115.899L114.067 258.443C113.66 257.187 113.117 255.015 113.117 255.015H113.049C113.049 255.015 112.472 257.187 112.065 258.443L110.199 264.313ZM101.376 273L110.097 248.738H116.273L125.028 273H118.716L117.291 268.623H108.807L107.416 273H101.376ZM126.767 273V248.738H132.773V273H126.767ZM136.111 273V248.738H154.164V253.794H142.118V258.714H152.196V263.566H142.118V273H136.111ZM161.43 264.313H167.131L165.299 258.443C164.891 257.187 164.349 255.015 164.349 255.015H164.281C164.281 255.015 163.704 257.187 163.297 258.443L161.43 264.313ZM152.608 273L161.328 248.738H167.504L176.259 273H169.948L168.522 268.623H160.039L158.648 273H152.608ZM177.372 273L186.432 248.738H191.183L182.123 273H177.372ZM193.44 273V248.738H199.447V257.934H207.964V248.738H213.97V273H207.964V262.888H199.447V273H193.44ZM223.272 273V253.828H216.214V248.738H236.405V253.828H229.279V273H223.272ZM242.718 264.313H248.419L246.587 258.443C246.18 257.187 245.637 255.015 245.637 255.015H245.569C245.569 255.015 244.992 257.187 244.585 258.443L242.718 264.313ZM233.896 273L242.617 248.738H248.792L257.547 273H251.236L249.81 268.623H241.327L239.936 273H233.896Z" fill="#002068"/>
<path d="M179 212C217.108 212 248 181.108 248 143C248 104.892 217.108 74 179 74C140.892 74 110 104.892 110 143C110 181.108 140.892 212 179 212Z" fill="url(#paint0_linear_661_1013)"/>
<path d="M145 142.5C145 123.991 159.991 109 178.5 109C197.009 109 212 123.991 212 142.5C212 161.009 197.009 176 178.5 176C159.991 176 145 161.009 145 142.5ZM160.812 147.708C160.812 148.834 161.727 149.749 162.853 149.749H171.228V158.147C171.228 159.273 172.143 160.165 173.269 160.188H183.731C184.857 160.188 185.749 159.273 185.772 158.147V149.749H194.147C195.273 149.749 196.188 148.834 196.188 147.708V137.269C196.188 136.143 195.273 135.228 194.147 135.228H185.772V126.853C185.772 125.727 184.857 124.835 183.731 124.812H173.269C172.143 124.812 171.251 125.727 171.228 126.853V135.228H162.853C161.727 135.228 160.812 136.143 160.812 137.269V147.708Z" fill="white"/>
</g>
<defs>
<filter id="filter0_d_661_1013" x="0" y="0" width="361" height="357" filterUnits="userSpaceOnUse" color-interpolation-filters="sRGB">
<feFlood flood-opacity="0" result="BackgroundImageFix"/>
<feColorMatrix in="SourceAlpha" type="matrix" values="0 0 0 0 0 0 0 0 0 0 0 0 0 0 0 0 0 0 127 0" result="hardAlpha"/>
<feOffset dx="2" dy="2"/>
<feGaussianBlur stdDeviation="2"/>
<feComposite in2="hardAlpha" operator="out"/>
<feColorMatrix type="matrix" values="0 0 0 0 0 0 0 0 0 0 0 0 0 0 0 0 0 0 0.25 0"/>
<feBlend mode="normal" in2="BackgroundImageFix" result="effect1_dropShadow_661_1013"/>
<feBlend mode="normal" in="SourceGraphic" in2="effect1_dropShadow_661_1013" result="shape"/>
</filter>
<linearGradient id="paint0_linear_661_1013" x1="144.488" y1="202.766" x2="213.512" y2="83.2345" gradientUnits="userSpaceOnUse">
<stop stop-color="#0460A9"/>
<stop offset="1" stop-color="#50E2D0"/>
</linearGradient>
</defs>
</svg>
