<svg width="361" height="357" viewBox="0 0 361 357" fill="none" xmlns="http://www.w3.org/2000/svg">
<g filter="url(#filter0_d_661_1003)">
<rect x="2" y="2" width="353" height="349" rx="19.0804" fill="white"/>
<path d="M106.154 273V248.738H117.861C120.373 248.738 122.239 249.348 123.528 250.4C124.92 251.554 125.632 253.115 125.632 255.049C125.632 257.458 124.377 258.985 122.239 259.8V259.902C124.886 260.716 126.582 262.956 126.582 265.84C126.582 268.283 125.7 270.048 124.105 271.269C122.68 272.389 120.678 273 118.133 273H106.154ZM112.093 258.341H116.979C118.71 258.341 119.897 257.492 119.897 255.897C119.897 254.37 118.778 253.488 117.013 253.488H112.093V258.341ZM112.093 268.181H117.454C119.422 268.181 120.644 267.062 120.644 265.331C120.644 263.397 119.219 262.413 117.386 262.413H112.093V268.181ZM128.581 273V255.626H133.875V258.341H133.976C135.198 256.271 136.623 255.355 138.727 255.355C139.236 255.355 139.575 255.388 139.813 255.49V260.241H139.677C136.284 259.766 134.112 261.429 134.112 265.195V273H128.581ZM147.963 269.912C150.033 269.912 151.458 268.657 151.458 266.79V264.72C150.745 265.093 149.727 265.365 148.607 265.636C146.47 266.111 145.587 266.654 145.587 267.978C145.587 269.369 146.605 269.912 147.963 269.912ZM146.198 273.441C142.737 273.441 140.26 271.575 140.26 268.148C140.26 264.313 143.314 263.159 146.911 262.684C150.168 262.277 151.322 261.938 151.322 260.75C151.322 259.63 150.609 258.884 148.947 258.884C147.182 258.884 146.3 259.664 146.13 261.123H141.04C141.176 257.9 143.653 255.151 148.913 255.151C151.526 255.151 153.29 255.626 154.546 256.576C156.039 257.662 156.751 259.359 156.751 261.53V270.285C156.751 271.677 156.887 272.457 157.362 272.762V273H152.001C151.729 272.627 151.56 271.948 151.424 271.066H151.356C150.338 272.525 148.811 273.441 146.198 273.441ZM159.433 273V255.626H164.76V258.001H164.862C166.152 256.135 167.814 255.117 170.224 255.117C174.024 255.117 176.264 257.832 176.264 261.7V273H170.733V262.82C170.733 260.988 169.816 259.732 168.018 259.732C166.185 259.732 164.964 261.259 164.964 263.397V273H159.433ZM187.031 269.166C189.339 269.166 190.696 267.163 190.696 264.313C190.696 261.395 189.508 259.291 187.099 259.291C184.893 259.291 183.604 261.327 183.604 264.245C183.604 267.265 184.893 269.166 187.031 269.166ZM185.606 273.543C181.161 273.543 178.005 270.116 178.005 264.313C178.005 258.884 181.127 255.117 185.606 255.117C188.049 255.117 189.441 256.135 190.459 257.594H190.56V248.738H196.092V273H190.798V270.659H190.73C189.678 272.457 187.88 273.543 185.606 273.543ZM197.818 273L206.879 248.738H211.629L202.569 273H197.818ZM220.19 273V253.828H213.132V248.738H233.323V253.828H226.197V273H220.19ZM239.636 264.313H245.337L243.505 258.443C243.098 257.187 242.555 255.015 242.555 255.015H242.487C242.487 255.015 241.91 257.187 241.503 258.443L239.636 264.313ZM230.814 273L239.535 248.738H245.711L254.465 273H248.154L246.729 268.623H238.245L236.854 273H230.814Z" fill="#002068"/>
<path d="M179 212C217.108 212 248 181.108 248 143C248 104.892 217.108 74 179 74C140.892 74 110 104.892 110 143C110 181.108 140.892 212 179 212Z" fill="url(#paint0_linear_661_1003)"/>
<g clip-path="url(#clip0_661_1003)">
<path fill-rule="evenodd" clip-rule="evenodd" d="M160.349 133.028C159.829 133.028 159.408 132.607 159.408 132.087C159.408 131.567 159.829 131.146 160.349 131.146H170.382C170.902 131.146 171.323 131.567 171.323 132.087C171.323 132.607 170.902 133.028 170.382 133.028H160.349ZM160.349 139.728C159.829 139.728 159.408 139.307 159.408 138.787C159.408 138.267 159.829 137.846 160.349 137.846H189.442C189.962 137.846 190.383 138.267 190.383 138.787C190.383 139.307 189.962 139.728 189.442 139.728H160.349ZM160.349 145.792C159.829 145.792 159.408 145.371 159.408 144.852C159.408 144.332 159.829 143.911 160.349 143.911H189.442C189.962 143.911 190.383 144.332 190.383 144.852C190.383 145.371 189.962 145.792 189.442 145.792H160.349ZM160.349 151.857C159.829 151.857 159.408 151.436 159.408 150.916C159.408 150.396 159.829 149.976 160.349 149.976H189.442C189.962 149.976 190.383 150.396 190.383 150.916C190.383 151.436 189.962 151.857 189.442 151.857H160.349ZM160.349 157.922C159.829 157.938 159.392 157.525 159.383 157.006C159.375 156.486 159.779 156.049 160.299 156.04C160.316 156.04 160.34 156.04 160.357 156.04H189.451C189.971 156.024 190.408 156.436 190.416 156.956C190.424 157.476 190.02 157.913 189.5 157.922C189.484 157.922 189.459 157.922 189.442 157.922H160.349ZM200.681 176H207.323V109H159.524V115.518H199.732C200.252 115.518 200.672 115.939 200.672 116.459V176H200.681ZM198.799 176H151V117.4H198.799V176Z" fill="white"/>
</g>
</g>
<defs>
<filter id="filter0_d_661_1003" x="0" y="0" width="361" height="357" filterUnits="userSpaceOnUse" color-interpolation-filters="sRGB">
<feFlood flood-opacity="0" result="BackgroundImageFix"/>
<feColorMatrix in="SourceAlpha" type="matrix" values="0 0 0 0 0 0 0 0 0 0 0 0 0 0 0 0 0 0 127 0" result="hardAlpha"/>
<feOffset dx="2" dy="2"/>
<feGaussianBlur stdDeviation="2"/>
<feComposite in2="hardAlpha" operator="out"/>
<feColorMatrix type="matrix" values="0 0 0 0 0 0 0 0 0 0 0 0 0 0 0 0 0 0 0.25 0"/>
<feBlend mode="normal" in2="BackgroundImageFix" result="effect1_dropShadow_661_1003"/>
<feBlend mode="normal" in="SourceGraphic" in2="effect1_dropShadow_661_1003" result="shape"/>
</filter>
<linearGradient id="paint0_linear_661_1003" x1="144.488" y1="202.766" x2="213.512" y2="83.2345" gradientUnits="userSpaceOnUse">
<stop stop-color="#0460A9"/>
<stop offset="1" stop-color="#50E2D0"/>
</linearGradient>
<clipPath id="clip0_661_1003">
<rect width="56.3229" height="67" fill="white" transform="translate(151 109)"/>
</clipPath>
</defs>
</svg>
