<svg width="652" height="117" viewBox="0 0 652 117" fill="none" xmlns="http://www.w3.org/2000/svg">
<rect width="652" height="116.034" rx="17.5713" fill="white"/>
<path d="M73.2119 93.4716C92.793 93.4716 108.667 77.598 108.667 58.0168C108.667 38.4357 92.793 22.562 73.2119 22.562C53.6307 22.562 37.7571 38.4357 37.7571 58.0168C37.7571 77.598 53.6307 93.4716 73.2119 93.4716Z" fill="url(#paint0_linear_660_544)"/>
<path fill-rule="evenodd" clip-rule="evenodd" d="M81.5376 47.2119V70.5471C81.5376 72.2971 80.1173 73.7174 78.3672 73.7174H67.7625L81.2902 77.3411C82.3047 77.6137 83.3478 77.0114 83.6188 75.9969L90.1831 51.4983C90.4557 50.4838 89.8534 49.4407 88.8389 49.1681L81.5376 47.2119Z" fill="white"/>
<path fill-rule="evenodd" clip-rule="evenodd" d="M59.98 44.1797L57.0728 47.0869H59.3459C59.6962 47.0869 59.98 46.8031 59.98 46.4528V44.1797Z" fill="white"/>
<path fill-rule="evenodd" clip-rule="evenodd" d="M61.8819 43.2827H78.3675C79.4185 43.2827 80.2697 44.134 80.2697 45.1849V70.5475C80.2697 71.5984 79.4185 72.4497 78.3675 72.4497H58.0775C57.0265 72.4497 56.1753 71.5984 56.1753 70.5475V48.9893C56.1753 48.639 56.459 48.3552 56.8094 48.3552H59.3456C60.3966 48.3552 61.2478 47.504 61.2478 46.453V43.9168C61.2478 43.5665 61.5315 43.2827 61.8819 43.2827ZM60.6137 68.6453H75.8313C76.1816 68.6453 76.4653 68.3615 76.4653 68.0112C76.4653 67.6609 76.1816 67.3771 75.8313 67.3771H60.6137C60.2634 67.3771 59.9797 67.6609 59.9797 68.0112C59.9797 68.3615 60.2634 68.6453 60.6137 68.6453ZM60.6137 64.8409H75.8313C76.1816 64.8409 76.4653 64.5571 76.4653 64.2068C76.4653 63.8565 76.1816 63.5728 75.8313 63.5728H60.6137C60.2634 63.5728 59.9797 63.8565 59.9797 64.2068C59.9797 64.5571 60.2634 64.8409 60.6137 64.8409ZM60.6137 61.0365H75.8313C76.1816 61.0365 76.4653 60.7528 76.4653 60.4024C76.4653 60.0521 76.1816 59.7684 75.8313 59.7684H60.6137C60.2634 59.7684 59.9797 60.0521 59.9797 60.4024C59.9797 60.7528 60.2634 61.0365 60.6137 61.0365ZM60.6137 57.2321H75.8313C76.1816 57.2321 76.4653 56.9484 76.4653 56.5981C76.4653 56.2477 76.1816 55.964 75.8313 55.964H60.6137C60.2634 55.964 59.9797 56.2477 59.9797 56.5981C59.9797 56.9484 60.2634 57.2321 60.6137 57.2321ZM60.6137 53.4277H75.8313C76.1816 53.4277 76.4653 53.144 76.4653 52.7937C76.4653 52.4434 76.1816 52.1596 75.8313 52.1596H60.6137C60.2634 52.1596 59.9797 52.4434 59.9797 52.7937C59.9797 53.144 60.2634 53.4277 60.6137 53.4277Z" fill="white"/>
<path d="M128.803 70.4409V48.0998H144.801V51.9431H133.334V57.3175H143.052V61.192H133.334V70.4409H128.803ZM147.387 70.4409V48.0998H151.918V70.4409H147.387ZM155.381 70.4409V48.0998H159.912V66.6601H170.41V70.4409H155.381ZM172.835 70.4409V48.0998H189.27V51.9119H177.366V56.9113H187.802V60.6296H177.366V66.6601H189.364V70.4409H172.835ZM213.802 70.4409L213.646 67.4413H213.583C212.052 70.0035 209.959 70.9096 207.303 70.9096C203.928 70.9096 201.304 69.691 199.46 67.66C197.617 65.5977 196.554 62.7231 196.554 59.3485C196.554 55.6302 197.867 52.3806 200.21 50.2246C202.022 48.5685 204.397 47.6624 207.397 47.6624C213.021 47.6624 216.239 50.7558 216.958 55.1302H212.521C212.021 52.9743 210.365 51.4119 207.49 51.4119C203.272 51.4119 201.179 54.9115 201.179 59.3485C201.179 63.9104 203.585 67.2538 207.428 67.2538C210.896 67.2538 213.177 64.6604 213.177 62.1919V62.0669H207.803V58.5673H217.208V70.4409H213.802ZM229 70.8159C223.219 70.8159 220.188 68.0974 220.188 63.2543V48.0998H224.719V63.2543C224.719 65.5665 225.875 67.1913 228.906 67.1913C231.78 67.1913 233.124 65.504 233.124 63.1918V48.0998H237.655V63.2543C237.655 68.035 234.718 70.8159 229 70.8159ZM240.943 70.4409V48.0998H245.473V70.4409H240.943ZM248.937 70.4409V48.0998H257.654C263.622 48.0998 267.466 52.9118 267.466 59.5047C267.466 63.1293 266.247 66.3164 263.904 68.2849C262.248 69.6598 260.092 70.4409 257.279 70.4409H248.937ZM253.467 66.5351H256.967C261.216 66.5351 262.872 63.9417 262.872 59.5047C262.872 55.0678 260.935 51.9744 257.092 51.9744H253.467V66.5351ZM276.178 55.7864L274.178 62.2231H280.084L278.084 55.7864C277.709 54.5991 277.178 52.3493 277.178 52.3493H277.116C277.116 52.3493 276.553 54.5991 276.178 55.7864ZM267.054 70.4409L274.835 48.0998H279.522L287.396 70.4409H282.677L281.178 65.6915H273.116L271.648 70.4409H267.054ZM293.368 51.9119V48.0998H311.335V51.9119H304.617V70.4409H300.086V51.9119H293.368ZM313.626 70.4409V48.0998H330.062V51.9119H318.157V56.9113H328.593V60.6296H318.157V66.6601H330.155V70.4409H313.626ZM332.972 70.4409V48.0998H339.346L342.502 59.3172C343.283 62.1294 343.908 65.3478 343.908 65.3478H343.971C343.971 65.3478 344.564 62.1294 345.346 59.3172L348.501 48.0998H354.969V70.4409H350.751V57.6299C350.751 55.8177 350.939 53.0055 350.939 53.0055H350.876C350.876 53.0055 350.376 55.6302 349.907 57.255L346.064 70.4409H341.721L337.971 57.255C337.503 55.6302 337.003 53.0055 337.003 53.0055H336.94C336.94 53.0055 337.128 55.8177 337.128 57.6299V70.4409H332.972ZM358.421 70.4409V48.0998H368.232C370.825 48.0998 372.763 48.8497 374.075 50.1933C375.325 51.4744 376.075 53.2242 376.075 55.2865C376.075 59.5047 373.294 62.3481 368.607 62.3481H363.108V70.4409H358.421ZM363.108 52.0369V58.6611H367.795C370.169 58.6611 371.419 57.3487 371.419 55.3177C371.419 53.2242 370.107 52.0369 367.857 52.0369H363.108ZM378.347 70.4409V48.0998H382.878V70.4409H378.347ZM394.996 70.9409C388.934 70.9409 385.497 68.2537 385.341 63.5355H389.778C390.09 66.2227 391.622 67.285 394.809 67.285C397.121 67.285 399.152 66.4726 399.152 64.4104C399.152 62.2231 397.027 61.7857 393.621 61.0045C389.622 60.0984 385.966 59.036 385.966 54.3803C385.966 49.9746 389.559 47.6936 394.527 47.6936C399.558 47.6936 402.808 50.1621 403.151 54.6616H398.808C398.558 52.4118 396.808 51.287 394.496 51.287C392.059 51.287 390.465 52.3181 390.465 53.9116C390.465 55.7239 392.028 56.2551 395.34 56.9738C399.933 57.9737 403.683 59.0673 403.683 63.8792C403.683 68.4099 400.027 70.9409 394.996 70.9409ZM404.286 51.9119V48.0998H422.253V51.9119H415.535V70.4409H411.004V51.9119H404.286ZM424.576 70.4409V48.0998H429.106V70.4409H424.576ZM442.35 70.9096C436.069 70.9096 431.601 66.0664 431.601 59.3485C431.601 52.7243 435.725 47.6624 442.318 47.6624C447.818 47.6624 451.067 50.9432 451.536 55.1927H447.037C446.63 52.943 444.943 51.4744 442.318 51.4744C438.194 51.4744 436.225 54.9115 436.225 59.3485C436.225 63.9104 438.6 67.1913 442.35 67.1913C445.006 67.1913 446.88 65.5977 447.162 63.2543H451.598C451.473 65.2228 450.63 67.1288 449.13 68.5349C447.599 69.9722 445.443 70.9096 442.35 70.9096ZM453.929 70.4409V48.0998H458.46V56.8488H467.24V48.0998H471.771V70.4409H467.24V60.5983H458.46V70.4409H453.929ZM475.197 70.4409V48.0998H491.633V51.9119H479.728V56.9113H490.164V60.6296H479.728V66.6601H491.727V70.4409H475.197ZM499.792 70.4409V48.0998H504.322V66.6601H514.821V70.4409H499.792ZM517.277 70.4409V48.0998H521.808V70.4409H517.277ZM533.926 70.9409C527.864 70.9409 524.427 68.2537 524.271 63.5355H528.708C529.02 66.2227 530.551 67.285 533.739 67.285C536.051 67.285 538.082 66.4726 538.082 64.4104C538.082 62.2231 535.957 61.7857 532.551 61.0045C528.552 60.0984 524.896 59.036 524.896 54.3803C524.896 49.9746 528.489 47.6936 533.457 47.6936C538.488 47.6936 541.738 50.1621 542.081 54.6616H537.738C537.488 52.4118 535.738 51.287 533.426 51.287C530.989 51.287 529.395 52.3181 529.395 53.9116C529.395 55.7239 530.958 56.2551 534.27 56.9738C538.863 57.9737 542.613 59.0673 542.613 63.8792C542.613 68.4099 538.957 70.9409 533.926 70.9409ZM543.216 51.9119V48.0998H561.183V51.9119H554.465V70.4409H549.934V51.9119H543.216ZM563.506 70.4409V48.0998H568.036V70.4409H563.506ZM571.499 70.4409V48.0998H576.093L583.529 60.5671C584.248 61.7857 585.092 63.6917 585.092 63.6917H585.154C585.154 63.6917 585.029 61.3795 585.029 59.8172V48.0998H589.497V70.4409H585.123L577.499 58.0986C576.78 56.9113 575.905 55.0053 575.905 55.0053H575.843C575.843 55.0053 575.968 57.3487 575.968 58.911V70.4409H571.499ZM609.293 70.4409L609.137 67.4413H609.075C607.543 70.0035 605.45 70.9096 602.794 70.9096C599.419 70.9096 596.795 69.691 594.951 67.66C593.108 65.5977 592.045 62.7231 592.045 59.3485C592.045 55.6302 593.358 52.3806 595.701 50.2246C597.513 48.5685 599.888 47.6624 602.888 47.6624C608.512 47.6624 611.73 50.7558 612.449 55.1302H608.012C607.512 52.9743 605.856 51.4119 602.982 51.4119C598.763 51.4119 596.67 54.9115 596.67 59.3485C596.67 63.9104 599.076 67.2538 602.919 67.2538C606.387 67.2538 608.668 64.6604 608.668 62.1919V62.0669H603.294V58.5673H612.699V70.4409H609.293Z" fill="#002068"/>
<defs>
<linearGradient id="paint0_linear_660_544" x1="55.4786" y1="88.7266" x2="90.9452" y2="27.307" gradientUnits="userSpaceOnUse">
<stop stop-color="#0460A9"/>
<stop offset="1" stop-color="#50E2D0"/>
</linearGradient>
</defs>
</svg>
