<svg width="361" height="357" viewBox="0 0 361 357" fill="none" xmlns="http://www.w3.org/2000/svg">
<g filter="url(#filter0_d_661_1021)">
<rect x="2" y="2" width="353" height="349" rx="19.0804" fill="white"/>
<path d="M162.725 273.543C155.599 273.543 150.746 268.215 150.746 260.954C150.746 253.726 155.463 248.262 162.691 248.262C165.507 248.262 167.883 249.077 169.613 250.4C171.717 251.995 172.939 254.37 173.244 257.085H167.238C166.932 254.913 165.236 253.251 162.657 253.251C158.72 253.251 156.854 256.542 156.854 260.954C156.854 265.399 159.094 268.623 162.691 268.623C165.371 268.623 167.136 266.926 167.407 264.584H173.414C173.244 266.994 172.158 269.199 170.495 270.794C168.629 272.593 166.152 273.543 162.725 273.543ZM175.59 273V248.738H181.597V273H175.59ZM192.061 264.313H197.762L195.929 258.443C195.522 257.187 194.979 255.015 194.979 255.015H194.911C194.911 255.015 194.334 257.187 193.927 258.443L192.061 264.313ZM183.238 273L191.959 248.738H198.135L206.89 273H200.578L199.153 268.623H190.669L189.278 273H183.238Z" fill="#002068"/>
<path d="M179 212C217.108 212 248 181.108 248 143C248 104.892 217.108 74 179 74C140.892 74 110 104.892 110 143C110 181.108 140.892 212 179 212Z" fill="url(#paint0_linear_661_1021)"/>
<path fill-rule="evenodd" clip-rule="evenodd" d="M169.748 146.854C169.762 146.431 169.811 145.986 169.895 145.513C170.007 144.894 170.599 144.489 171.218 144.6C171.837 144.716 172.243 145.304 172.131 145.923C172.096 146.11 172.069 146.288 172.051 146.462C171.971 147.215 172.033 147.839 172.221 148.324C172.363 148.698 172.581 148.992 172.862 149.215C173.156 149.446 173.526 149.602 173.944 149.683C174.608 149.807 175.396 149.749 176.256 149.509V113.083C175.891 112.918 175.512 112.811 175.129 112.767C174.456 112.687 173.788 112.785 173.205 113.038C172.63 113.288 172.136 113.693 171.788 114.223C171.677 114.393 171.584 114.58 171.503 114.776C172.171 115.123 172.817 115.653 173.419 116.392C173.815 116.878 173.739 117.595 173.254 117.991C172.768 118.388 172.051 118.312 171.655 117.827C171.129 117.181 170.564 116.798 170.002 116.633C169.918 116.624 169.838 116.602 169.762 116.575C169.361 116.499 168.969 116.526 168.595 116.642C167.998 116.824 167.423 117.221 166.934 117.76C166.421 118.326 166.012 119.038 165.762 119.831C165.165 121.751 165.544 124.138 167.766 126.04C168.243 126.45 168.301 127.167 167.891 127.644C167.481 128.12 166.764 128.174 166.288 127.768C165.646 127.22 165.121 126.641 164.693 126.04C163.914 126.739 163.397 127.63 163.112 128.592C162.831 129.541 162.769 130.561 162.894 131.545C163.018 132.525 163.33 133.474 163.802 134.28C164.168 134.908 164.626 135.443 165.165 135.826C165.205 134.877 165.397 133.928 165.713 133.06C165.923 132.49 166.185 131.946 166.502 131.456C166.84 130.926 167.539 130.77 168.069 131.109C168.6 131.447 168.755 132.147 168.417 132.677C168.208 133.002 168.029 133.367 167.882 133.755C167.873 133.781 167.86 133.808 167.851 133.835C167.45 134.94 167.317 136.204 167.539 137.354C167.744 138.414 168.261 139.358 169.156 139.933L169.188 139.95C169.392 140.08 169.62 140.186 169.869 140.28C170.461 140.494 170.764 141.144 170.551 141.736C170.337 142.329 169.686 142.632 169.094 142.418C168.675 142.267 168.288 142.075 167.936 141.848C167.789 141.754 167.651 141.656 167.517 141.554C167.272 141.99 167.125 142.525 167.094 143.086V143.1C167.063 143.687 167.161 144.293 167.393 144.85C167.62 145.389 167.985 145.879 168.493 146.258C168.849 146.52 169.263 146.725 169.748 146.854ZM192.754 139.786C192.808 139.835 192.857 139.888 192.901 139.946C193.52 140.779 193.877 141.852 193.939 142.97V142.997C193.984 143.91 193.832 144.863 193.462 145.745C193.084 146.645 192.474 147.465 191.623 148.097C190.834 148.681 189.841 149.095 188.639 149.251C188.34 149.977 187.895 150.56 187.325 151.01C186.741 151.469 186.037 151.772 185.245 151.923C184.011 152.15 182.568 151.99 181.062 151.429C180.59 151.291 180.242 150.854 180.242 150.333V112.419C180.242 111.983 180.487 111.604 180.848 111.412C181.65 110.909 182.514 110.611 183.374 110.508C184.447 110.375 185.525 110.539 186.483 110.958C187.454 111.381 188.3 112.072 188.897 112.989C189.146 113.372 189.351 113.795 189.507 114.254C189.962 114.263 190.411 114.339 190.852 114.477C191.85 114.789 192.772 115.408 193.529 116.236C194.26 117.043 194.843 118.054 195.191 119.172C195.65 120.655 195.703 122.334 195.151 123.973C196.518 125.015 197.391 126.423 197.845 127.96C198.215 129.211 198.3 130.547 198.135 131.839C197.97 133.131 197.56 134.378 196.941 135.438C196.09 136.89 194.848 138.026 193.293 138.516C193.151 138.957 192.977 139.385 192.754 139.786ZM189.031 146.854C189.516 146.721 189.93 146.52 190.269 146.266C190.777 145.888 191.142 145.398 191.369 144.859C191.605 144.302 191.699 143.696 191.672 143.108V143.095C191.641 142.534 191.498 141.999 191.249 141.563C190.794 141.914 190.269 142.208 189.672 142.427C189.08 142.641 188.429 142.338 188.215 141.745C188.002 141.153 188.309 140.503 188.897 140.289C189.102 140.213 189.293 140.124 189.472 140.021C189.717 139.883 189.935 139.714 190.126 139.532C190.794 138.886 191.169 137.977 191.293 136.993C191.427 135.946 191.28 134.832 190.919 133.839C190.794 133.496 190.643 133.171 190.469 132.873C190.278 132.543 190.059 132.249 189.819 131.995C189.382 131.541 189.396 130.824 189.85 130.387C190.304 129.951 191.022 129.964 191.458 130.418C192.144 131.131 192.692 132.048 193.062 133.064C193.378 133.933 193.569 134.881 193.609 135.83C194.148 135.443 194.607 134.908 194.972 134.284C195.445 133.474 195.756 132.529 195.881 131.55C196.006 130.565 195.943 129.545 195.663 128.597C195.378 127.63 194.861 126.739 194.082 126.044C193.658 126.646 193.128 127.225 192.487 127.772C192.01 128.178 191.293 128.124 190.884 127.648C190.474 127.171 190.532 126.454 191.008 126.044C193.231 124.142 193.61 121.759 193.013 119.835C192.768 119.042 192.358 118.33 191.841 117.764C191.351 117.225 190.781 116.829 190.18 116.646C189.806 116.53 189.409 116.499 189.013 116.579C188.937 116.606 188.857 116.628 188.772 116.637C188.211 116.806 187.646 117.185 187.12 117.831C186.724 118.316 186.006 118.392 185.521 117.996C185.035 117.599 184.96 116.882 185.356 116.397C185.957 115.657 186.603 115.127 187.271 114.78C187.191 114.579 187.098 114.397 186.986 114.227C186.639 113.697 186.145 113.292 185.57 113.043C184.986 112.784 184.318 112.686 183.646 112.771C183.263 112.815 182.884 112.922 182.519 113.087V149.513L182.554 149.522C183.401 149.749 184.176 149.803 184.831 149.687C185.254 149.607 185.619 149.451 185.913 149.219C186.194 148.996 186.412 148.702 186.554 148.328C186.741 147.843 186.804 147.224 186.724 146.48C186.706 146.306 186.679 146.119 186.643 145.927C186.532 145.308 186.937 144.72 187.557 144.604C188.176 144.493 188.764 144.898 188.879 145.518C188.969 145.99 189.017 146.436 189.031 146.854ZM171.022 172.252V174.229C171.022 174.897 171.294 175.503 171.735 175.944C172.176 176.385 172.782 176.657 173.45 176.657H185.334C186.002 176.657 186.608 176.385 187.049 175.944C187.49 175.503 187.761 174.897 187.761 174.229V172.252H171.022ZM187.761 165.561H171.022V169.967H187.761V165.561ZM175.949 178.933C176.172 179.356 176.475 179.735 176.831 180.047C177.513 180.639 178.404 181 179.388 181C180.368 181 181.263 180.639 181.945 180.047C182.306 179.735 182.604 179.356 182.831 178.933H175.949ZM187.98 163.281H170.801C170.592 161.726 170.209 160.515 169.532 159.388C168.333 157.388 166.347 155.869 162.868 153.237C159.505 150.689 156.748 147.384 154.851 143.571C153.024 139.905 152 135.767 152 131.388C152 123.825 155.064 116.979 160.022 112.022C164.98 107.064 171.826 104 179.388 104C186.952 104 193.798 107.064 198.755 112.022C203.712 116.98 206.777 123.826 206.777 131.388C206.777 135.767 205.752 139.9 203.926 143.571C202.029 147.384 199.271 150.689 195.909 153.237C192.43 155.869 190.443 157.392 189.245 159.388C188.572 160.519 188.19 161.726 187.98 163.281ZM177.932 111.412C178.293 111.604 178.538 111.982 178.538 112.419V150.333C178.538 150.854 178.19 151.286 177.718 151.429C176.212 151.99 174.765 152.15 173.535 151.923C172.743 151.776 172.039 151.473 171.455 151.01C170.89 150.56 170.44 149.976 170.141 149.25C168.934 149.095 167.946 148.68 167.157 148.097C166.306 147.469 165.701 146.645 165.318 145.745C164.943 144.863 164.792 143.91 164.841 142.997V142.97C164.903 141.856 165.26 140.783 165.879 139.946C165.923 139.888 165.972 139.834 166.021 139.785C165.799 139.384 165.625 138.957 165.491 138.516C163.937 138.021 162.694 136.89 161.843 135.438C161.224 134.378 160.814 133.135 160.65 131.839C160.485 130.552 160.569 129.211 160.939 127.96C161.393 126.423 162.271 125.011 163.634 123.973C163.077 122.329 163.131 120.655 163.594 119.172C163.941 118.054 164.525 117.038 165.255 116.236C166.008 115.408 166.93 114.784 167.932 114.477C168.373 114.343 168.823 114.263 169.277 114.254C169.429 113.795 169.634 113.377 169.888 112.989C170.484 112.072 171.331 111.381 172.302 110.958C173.259 110.539 174.337 110.375 175.411 110.508C176.266 110.611 177.13 110.904 177.932 111.412Z" fill="white"/>
</g>
<defs>
<filter id="filter0_d_661_1021" x="0" y="0" width="361" height="357" filterUnits="userSpaceOnUse" color-interpolation-filters="sRGB">
<feFlood flood-opacity="0" result="BackgroundImageFix"/>
<feColorMatrix in="SourceAlpha" type="matrix" values="0 0 0 0 0 0 0 0 0 0 0 0 0 0 0 0 0 0 127 0" result="hardAlpha"/>
<feOffset dx="2" dy="2"/>
<feGaussianBlur stdDeviation="2"/>
<feComposite in2="hardAlpha" operator="out"/>
<feColorMatrix type="matrix" values="0 0 0 0 0 0 0 0 0 0 0 0 0 0 0 0 0 0 0.25 0"/>
<feBlend mode="normal" in2="BackgroundImageFix" result="effect1_dropShadow_661_1021"/>
<feBlend mode="normal" in="SourceGraphic" in2="effect1_dropShadow_661_1021" result="shape"/>
</filter>
<linearGradient id="paint0_linear_661_1021" x1="144.488" y1="202.766" x2="213.512" y2="83.2345" gradientUnits="userSpaceOnUse">
<stop stop-color="#0460A9"/>
<stop offset="1" stop-color="#50E2D0"/>
</linearGradient>
</defs>
</svg>
