<svg width="122" height="65" viewBox="0 0 122 65" fill="none" xmlns="http://www.w3.org/2000/svg">
<path d="M6.78822 60.288C3.00822 60.288 0.434219 57.462 0.434219 53.61C0.434219 49.776 2.93622 46.878 6.77022 46.878C8.26422 46.878 9.52422 47.31 10.4422 48.012C11.5582 48.858 12.2062 50.118 12.3682 51.558H9.18222C9.02022 50.406 8.12022 49.524 6.75222 49.524C4.66422 49.524 3.67422 51.27 3.67422 53.61C3.67422 55.968 4.86222 57.678 6.77022 57.678C8.19222 57.678 9.12822 56.778 9.27222 55.536H12.4582C12.3682 56.814 11.7922 57.984 10.9102 58.83C9.92022 59.784 8.60622 60.288 6.78822 60.288ZM18.1087 60.288C15.1567 60.288 13.1767 58.182 13.1767 55.41C13.1767 52.638 15.1567 50.532 18.1087 50.532C21.0787 50.532 23.0227 52.638 23.0227 55.41C23.0227 58.182 21.0787 60.288 18.1087 60.288ZM18.0907 58.2C19.3687 58.2 20.0527 57.084 20.0527 55.41C20.0527 53.736 19.3687 52.602 18.0907 52.602C16.8127 52.602 16.1467 53.736 16.1467 55.41C16.1467 57.084 16.8127 58.2 18.0907 58.2ZM24.0145 60V50.784H26.8225V52.098H26.8765C27.4525 51.144 28.3345 50.514 29.6665 50.514C30.8725 50.514 31.7905 51.144 32.2585 52.134H32.2945C33.0145 51.018 34.0045 50.514 35.1925 50.514C37.2805 50.514 38.3245 51.936 38.3245 54.006V60H35.3905V54.528C35.3905 53.538 34.9765 52.962 34.0945 52.962C33.1585 52.962 32.6365 53.736 32.6365 54.834V60H29.7025V54.528C29.7025 53.538 29.2885 52.962 28.4065 52.962C27.4885 52.962 26.9485 53.736 26.9485 54.834V60H24.0145ZM42.827 60.27C40.703 60.27 39.587 58.884 39.587 56.832V50.784H42.503V56.22C42.503 57.228 42.953 57.786 43.889 57.786C44.897 57.786 45.509 57.03 45.509 55.932V50.784H48.443V60H45.635V58.866H45.581C44.915 59.766 44.105 60.27 42.827 60.27ZM49.8543 60V50.784H52.6803V52.044H52.7343C53.4183 51.054 54.3003 50.514 55.5783 50.514C57.5943 50.514 58.7823 51.954 58.7823 54.006V60H55.8483V54.6C55.8483 53.628 55.3623 52.962 54.4083 52.962C53.4363 52.962 52.7883 53.772 52.7883 54.906V60H49.8543ZM61.596 46.86C62.514 46.86 63.216 47.508 63.216 48.426C63.216 49.344 62.514 49.992 61.596 49.992C60.678 49.992 59.976 49.344 59.976 48.426C59.976 47.508 60.678 46.86 61.596 46.86ZM60.12 60V50.784H63.054V60H60.12ZM68.9438 60.288C65.9738 60.288 64.0478 58.182 64.0478 55.41C64.0478 52.638 65.9558 50.532 68.8718 50.532C71.3738 50.532 72.9758 51.99 73.2458 54.06H70.4198C70.2398 53.232 69.7358 52.692 68.9078 52.692C67.6478 52.692 67.0178 53.736 67.0178 55.41C67.0178 57.048 67.6478 58.092 68.9078 58.092C69.8258 58.092 70.3838 57.552 70.5098 56.508H73.3178C73.2458 58.632 71.5538 60.288 68.9438 60.288ZM78.0826 58.362C79.1806 58.362 79.9366 57.696 79.9366 56.706V55.608C79.5586 55.806 79.0186 55.95 78.4246 56.094C77.2906 56.346 76.8226 56.634 76.8226 57.336C76.8226 58.074 77.3626 58.362 78.0826 58.362ZM77.1466 60.234C75.3106 60.234 73.9966 59.244 73.9966 57.426C73.9966 55.392 75.6166 54.78 77.5246 54.528C79.2526 54.312 79.8646 54.132 79.8646 53.502C79.8646 52.908 79.4866 52.512 78.6046 52.512C77.6686 52.512 77.2006 52.926 77.1106 53.7H74.4106C74.4826 51.99 75.7966 50.532 78.5866 50.532C79.9726 50.532 80.9086 50.784 81.5746 51.288C82.3666 51.864 82.7446 52.764 82.7446 53.916V58.56C82.7446 59.298 82.8166 59.712 83.0686 59.874V60H80.2246C80.0806 59.802 79.9906 59.442 79.9186 58.974H79.8826C79.3426 59.748 78.5326 60.234 77.1466 60.234ZM83.8968 60V57.822L87.5508 53.88C87.7848 53.646 88.3428 53.07 88.3428 53.07V53.016C88.3428 53.016 87.4968 53.034 87.2088 53.034H84.3288V50.802H91.8888V52.944L88.3968 56.742C88.1268 57.012 87.4608 57.696 87.4608 57.696V57.75C87.4608 57.75 88.4148 57.732 88.8288 57.732H92.1588V60H83.8968ZM94.7307 46.86C95.6487 46.86 96.3507 47.508 96.3507 48.426C96.3507 49.344 95.6487 49.992 94.7307 49.992C93.8127 49.992 93.1107 49.344 93.1107 48.426C93.1107 47.508 93.8127 46.86 94.7307 46.86ZM93.2547 60V50.784H96.1887V60H93.2547ZM102.115 60.288C99.1625 60.288 97.1825 58.182 97.1825 55.41C97.1825 52.638 99.1625 50.532 102.115 50.532C105.085 50.532 107.029 52.638 107.029 55.41C107.029 58.182 105.085 60.288 102.115 60.288ZM102.097 58.2C103.375 58.2 104.059 57.084 104.059 55.41C104.059 53.736 103.375 52.602 102.097 52.602C100.819 52.602 100.153 53.736 100.153 55.41C100.153 57.084 100.819 58.2 102.097 58.2ZM108.02 60V50.784H110.846V52.044H110.9C111.584 51.054 112.466 50.514 113.744 50.514C115.76 50.514 116.948 51.954 116.948 54.006V60H114.014V54.6C114.014 53.628 113.528 52.962 112.574 52.962C111.602 52.962 110.954 53.772 110.954 54.906V60H108.02ZM119.762 46.86C120.68 46.86 121.382 47.508 121.382 48.426C121.382 49.344 120.68 49.992 119.762 49.992C118.844 49.992 118.142 49.344 118.142 48.426C118.142 47.508 118.844 46.86 119.762 46.86ZM118.286 60V50.784H121.22V60H118.286Z" fill="white"/>
<path d="M51.7786 20.3989H42.9762C40.7791 20.3989 39 18.6199 39 16.4227V12.86C39 10.6629 40.7791 8.88379 42.9762 8.88379H51.7786V20.3989Z" stroke="white" stroke-width="1.40998" stroke-linecap="round" stroke-linejoin="round"/>
<path d="M43.4729 29.6566V20.4501" stroke="white" stroke-width="1.40998" stroke-linecap="round" stroke-linejoin="round"/>
<path d="M48.9678 20.45V29.6565" stroke="white" stroke-width="1.40998" stroke-linecap="round" stroke-linejoin="round"/>
<path d="M51.8489 8.88385C53.5861 8.88385 55.2909 8.43328 56.7959 7.57394L68.0137 1.19626C69.3143 0.569176 70.824 1.52142 70.824 2.96603V26.3122C70.824 27.7568 69.3143 28.7044 68.0137 28.0819L56.7959 21.7043C55.2862 20.8449 53.5815 20.3943 51.8489 20.3943" stroke="white" stroke-width="1.40998" stroke-linecap="round" stroke-linejoin="round"/>
<path d="M81.2288 6.4873C81.2845 6.56163 86.6635 13.9891 81.2056 22.8054" stroke="white" stroke-width="1.40998" stroke-linecap="round" stroke-linejoin="round"/>
<path d="M77.9395 9.5437C78.0788 9.73415 81.3211 14.2492 77.9163 19.7443" stroke="white" stroke-width="1.40998" stroke-linecap="round" stroke-linejoin="round"/>
<path d="M71.2037 9.56226C73.6192 9.99425 75.454 12.1031 75.454 14.644C75.454 17.1848 73.5774 19.3448 71.1155 19.7396" stroke="white" stroke-width="1.40998" stroke-linecap="round" stroke-linejoin="round"/>
</svg>
