<svg width="38" height="64" viewBox="0 0 38 64" fill="none" xmlns="http://www.w3.org/2000/svg">
<path d="M1.25798 59V46.13H6.74798C10.312 46.13 12.706 48.704 12.706 52.646C12.706 54.914 11.914 56.732 10.474 57.83C9.46598 58.586 8.16998 59 6.54998 59H1.25798ZM4.44398 56.318H6.31598C8.40398 56.318 9.48398 55.004 9.48398 52.646C9.48398 50.306 8.34998 48.794 6.35198 48.794H4.44398V56.318ZM13.9494 59V46.13H19.7454C21.3114 46.13 22.4634 46.562 23.2554 47.318C24.0834 48.092 24.5514 49.19 24.5514 50.486C24.5514 52.952 22.8414 54.698 20.1954 54.698H17.1894V59H13.9494ZM17.1894 52.178H19.5474C20.6994 52.178 21.3474 51.494 21.3474 50.468C21.3474 49.442 20.6814 48.812 19.5474 48.812H17.1894V52.178ZM31.6994 59.288C27.9194 59.288 25.3454 56.462 25.3454 52.61C25.3454 48.776 27.8474 45.878 31.6814 45.878C33.1754 45.878 34.4354 46.31 35.3534 47.012C36.4694 47.858 37.1174 49.118 37.2794 50.558H34.0934C33.9314 49.406 33.0314 48.524 31.6634 48.524C29.5754 48.524 28.5854 50.27 28.5854 52.61C28.5854 54.968 29.7734 56.678 31.6814 56.678C33.1034 56.678 34.0394 55.778 34.1834 54.536H37.3694C37.2794 55.814 36.7034 56.984 35.8214 57.83C34.8314 58.784 33.5174 59.288 31.6994 59.288Z" fill="#F8AF3C"/>
<path d="M24.6 1H13.0571C10.2641 1 8 3.26413 8 6.05708V25.0625C8 27.8554 10.2641 30.1196 13.0571 30.1196H24.6C27.3929 30.1196 29.657 27.8554 29.657 25.0625V6.05708C29.657 3.26413 27.3929 1 24.6 1Z" stroke="#F8AF3C" stroke-width="0.919565" stroke-linecap="round" stroke-linejoin="round"/>
<path d="M12.8394 5.87549H24.8181" stroke="#F8AF3C" stroke-width="0.919565" stroke-linecap="round" stroke-linejoin="round"/>
<path d="M12.8394 10.7188H24.8181" stroke="#F8AF3C" stroke-width="0.919565" stroke-linecap="round" stroke-linejoin="round"/>
<path d="M12.8394 15.562H24.8181" stroke="#F8AF3C" stroke-width="0.919565" stroke-linecap="round" stroke-linejoin="round"/>
<path d="M12.8394 20.4048H24.8181" stroke="#F8AF3C" stroke-width="0.919565" stroke-linecap="round" stroke-linejoin="round"/>
<path d="M12.8394 25.248H24.8181" stroke="#F8AF3C" stroke-width="0.919565" stroke-linecap="round" stroke-linejoin="round"/>
</svg>
