<svg width="361" height="357" viewBox="0 0 361 357" fill="none" xmlns="http://www.w3.org/2000/svg">
<g filter="url(#filter0_d_49_1837)">
<rect x="2" y="2" width="353" height="349" rx="19.0804" fill="white"/>
<path d="M102.993 273.543C95.8669 273.543 91.0144 268.215 91.0144 260.954C91.0144 253.726 95.7312 248.262 102.959 248.262C105.775 248.262 108.151 249.077 109.881 250.4C111.985 251.995 113.207 254.37 113.512 257.085H107.506C107.201 254.913 105.504 253.251 102.925 253.251C98.9888 253.251 97.1224 256.542 97.1224 260.954C97.1224 265.399 99.362 268.623 102.959 268.623C105.64 268.623 107.404 266.926 107.676 264.584H113.682C113.512 266.994 112.426 269.199 110.764 270.794C108.897 272.593 106.42 273.543 102.993 273.543ZM124.3 273.509C118.566 273.509 115.036 269.539 115.036 264.279C115.036 259.087 118.667 255.117 123.961 255.117C126.438 255.117 128.406 255.931 129.899 257.289C131.969 259.189 132.987 262.209 132.953 265.738H120.466C120.805 268.08 122.095 269.539 124.368 269.539C125.827 269.539 126.777 268.894 127.253 267.808H132.648C132.275 269.369 131.257 270.862 129.73 271.914C128.271 272.932 126.506 273.509 124.3 273.509ZM120.5 262.447H127.354C127.151 260.377 125.861 259.053 124.063 259.053C121.959 259.053 120.873 260.377 120.5 262.447ZM134.805 273V255.626H140.133V258.001H140.234C141.524 256.135 143.187 255.117 145.596 255.117C149.397 255.117 151.636 257.832 151.636 261.7V273H146.105V262.82C146.105 260.988 145.189 259.732 143.39 259.732C141.558 259.732 140.336 261.259 140.336 263.397V273H134.805ZM160.715 273.204C157.491 273.204 155.184 272.152 155.184 268.419V259.087H152.876V255.626H155.184V250.129H160.579V255.626H163.735V259.087H160.579V267.231C160.579 268.589 161.326 268.928 162.513 268.928C162.989 268.928 163.531 268.894 163.735 268.894V272.932C163.26 273.068 162.208 273.204 160.715 273.204ZM165.723 273V255.626H171.017V258.341H171.119C172.34 256.271 173.765 255.355 175.869 255.355C176.378 255.355 176.718 255.388 176.955 255.49V260.241H176.819C173.426 259.766 171.254 261.429 171.254 265.195V273H165.723ZM181.496 248.229C183.226 248.229 184.55 249.45 184.55 251.181C184.55 252.911 183.226 254.133 181.496 254.133C179.765 254.133 178.442 252.911 178.442 251.181C178.442 249.45 179.765 248.229 181.496 248.229ZM178.713 273V255.626H184.244V273H178.713ZM199.056 269.912C201.126 269.912 202.551 268.657 202.551 266.79V264.72C201.838 265.093 200.82 265.365 199.701 265.636C197.563 266.111 196.681 266.654 196.681 267.978C196.681 269.369 197.699 269.912 199.056 269.912ZM197.291 273.441C193.83 273.441 191.353 271.575 191.353 268.148C191.353 264.313 194.407 263.159 198.004 262.684C201.262 262.277 202.415 261.938 202.415 260.75C202.415 259.63 201.703 258.884 200.04 258.884C198.275 258.884 197.393 259.664 197.224 261.123H192.133C192.269 257.9 194.746 255.151 200.006 255.151C202.619 255.151 204.383 255.626 205.639 256.576C207.132 257.662 207.845 259.359 207.845 261.53V270.285C207.845 271.677 207.98 272.457 208.456 272.762V273H203.094C202.823 272.627 202.653 271.948 202.517 271.066H202.449C201.431 272.525 199.904 273.441 197.291 273.441ZM217.083 273.204C213.859 273.204 211.552 272.152 211.552 268.419V259.087H209.244V255.626H211.552V250.129H216.947V255.626H220.103V259.087H216.947V267.231C216.947 268.589 217.694 268.928 218.882 268.928C219.357 268.928 219.9 268.894 220.103 268.894V272.932C219.628 273.068 218.576 273.204 217.083 273.204ZM228.814 273.204C225.59 273.204 223.283 272.152 223.283 268.419V259.087H220.975V255.626H223.283V250.129H228.678V255.626H231.834V259.087H228.678V267.231C228.678 268.589 229.425 268.928 230.613 268.928C231.088 268.928 231.631 268.894 231.834 268.894V272.932C231.359 273.068 230.307 273.204 228.814 273.204ZM236.605 248.229C238.335 248.229 239.659 249.45 239.659 251.181C239.659 252.911 238.335 254.133 236.605 254.133C234.874 254.133 233.551 252.911 233.551 251.181C233.551 249.45 234.874 248.229 236.605 248.229ZM233.822 273V255.626H239.353V273H233.822ZM246.588 273L240.582 255.626H246.283L248.658 263.465C249.167 265.195 249.608 266.96 249.608 266.96H249.676C249.676 266.96 250.117 265.195 250.626 263.465L253.036 255.626H258.567L252.561 273H246.588ZM262.585 248.229C264.316 248.229 265.639 249.45 265.639 251.181C265.639 252.911 264.316 254.133 262.585 254.133C260.854 254.133 259.531 252.911 259.531 251.181C259.531 249.45 260.854 248.229 262.585 248.229ZM259.803 273V255.626H265.334V273H259.803Z" fill="#002068"/>
<path d="M179 212C217.108 212 248 181.108 248 143C248 104.892 217.108 74 179 74C140.892 74 110 104.892 110 143C110 181.108 140.892 212 179 212Z" fill="url(#paint0_linear_49_1837)"/>
<path d="M195.537 186.827C190.396 188.77 184.819 189.828 179 189.828C153.136 189.828 132.172 168.864 132.172 143C132.172 130.327 137.209 118.816 145.397 110.386C146.616 109.133 147.904 107.937 149.261 106.833C149.399 106.718 149.548 106.603 149.686 106.488" stroke="white" stroke-width="2.5" stroke-linecap="round" stroke-linejoin="round"/>
<path d="M157.265 101.508C163.762 98.1041 171.157 96.1721 179 96.1721C204.863 96.1721 225.828 117.137 225.828 143C225.828 159.192 217.605 173.464 205.116 181.87" stroke="white" stroke-width="2.5" stroke-linecap="round" stroke-linejoin="round"/>
<path d="M219.652 181.502L204.254 182.778L207.635 167.702" stroke="white" stroke-width="2.5" stroke-linecap="round" stroke-linejoin="round"/>
<path d="M134.897 107.96L150.169 105.625L147.835 120.897" stroke="white" stroke-width="2.5" stroke-linecap="round" stroke-linejoin="round"/>
<path d="M179.137 174.843C196.724 174.843 210.981 160.587 210.981 143C210.981 125.413 196.724 111.156 179.137 111.156C161.551 111.156 147.294 125.413 147.294 143C147.294 160.587 161.551 174.843 179.137 174.843Z" stroke="white" stroke-width="2.5" stroke-linecap="round" stroke-linejoin="round"/>
<path d="M179.138 174.843C188.55 174.843 196.181 160.587 196.181 143C196.181 125.413 188.55 111.156 179.138 111.156C169.725 111.156 162.095 125.413 162.095 143C162.095 160.587 169.725 174.843 179.138 174.843Z" stroke="white" stroke-width="2.5" stroke-linecap="round" stroke-linejoin="round"/>
<path d="M179.138 111.156V174.843" stroke="white" stroke-width="2.5" stroke-linecap="round" stroke-linejoin="round"/>
<path d="M210.613 143H147.662" stroke="white" stroke-width="2.5" stroke-linecap="round" stroke-linejoin="round"/>
<path d="M203.909 123.002C198.067 126.866 189.143 129.338 179.126 129.338C169.11 129.338 160.186 126.866 154.344 123.002" stroke="white" stroke-width="2.5" stroke-linecap="round" stroke-linejoin="round"/>
<path d="M154.39 162.999C160.232 159.135 169.156 156.662 179.172 156.662C189.189 156.662 198.055 159.112 203.886 162.964" stroke="white" stroke-width="2.5" stroke-linecap="round" stroke-linejoin="round"/>
</g>
<defs>
<filter id="filter0_d_49_1837" x="0" y="0" width="361" height="357" filterUnits="userSpaceOnUse" color-interpolation-filters="sRGB">
<feFlood flood-opacity="0" result="BackgroundImageFix"/>
<feColorMatrix in="SourceAlpha" type="matrix" values="0 0 0 0 0 0 0 0 0 0 0 0 0 0 0 0 0 0 127 0" result="hardAlpha"/>
<feOffset dx="2" dy="2"/>
<feGaussianBlur stdDeviation="2"/>
<feComposite in2="hardAlpha" operator="out"/>
<feColorMatrix type="matrix" values="0 0 0 0 0 0 0 0 0 0 0 0 0 0 0 0 0 0 0.25 0"/>
<feBlend mode="normal" in2="BackgroundImageFix" result="effect1_dropShadow_49_1837"/>
<feBlend mode="normal" in="SourceGraphic" in2="effect1_dropShadow_49_1837" result="shape"/>
</filter>
<linearGradient id="paint0_linear_49_1837" x1="144.488" y1="202.766" x2="213.512" y2="83.2345" gradientUnits="userSpaceOnUse">
<stop stop-color="#0460A9"/>
<stop offset="1" stop-color="#50E2D0"/>
</linearGradient>
</defs>
</svg>
