<svg width="258" height="258" viewBox="0 0 258 258" fill="none" xmlns="http://www.w3.org/2000/svg">
<g filter="url(#filter0_d_477_458)">
<rect x="2" y="2" width="250" height="250" rx="19.0804" fill="white"/>
<path d="M54.3429 193.204V177.474H59.5789L61.4929 184.36C61.7789 185.35 62.3949 187.946 62.3949 187.946H62.4389C62.4389 187.946 63.0549 185.35 63.3189 184.36L65.2549 177.474H70.5349V193.204H66.9709V185.284C66.9709 184.646 67.0369 182.138 67.0369 182.138H66.9929C66.9929 182.138 66.4429 184.492 66.2669 185.064L64.0009 193.204H60.7889L58.5449 185.086C58.3689 184.514 57.8189 182.138 57.8189 182.138H57.7749C57.7749 182.138 57.8409 184.668 57.8409 185.306V193.204H54.3429ZM76.9365 191.202C78.2785 191.202 79.2025 190.388 79.2025 189.178V187.836C78.7405 188.078 78.0805 188.254 77.3545 188.43C75.9685 188.738 75.3965 189.09 75.3965 189.948C75.3965 190.85 76.0565 191.202 76.9365 191.202ZM75.7925 193.49C73.5485 193.49 71.9425 192.28 71.9425 190.058C71.9425 187.572 73.9225 186.824 76.2545 186.516C78.3665 186.252 79.1145 186.032 79.1145 185.262C79.1145 184.536 78.6525 184.052 77.5745 184.052C76.4305 184.052 75.8585 184.558 75.7485 185.504H72.4485C72.5365 183.414 74.1425 181.632 77.5525 181.632C79.2465 181.632 80.3905 181.94 81.2045 182.556C82.1725 183.26 82.6345 184.36 82.6345 185.768V191.444C82.6345 192.346 82.7225 192.852 83.0305 193.05V193.204H79.5545C79.3785 192.962 79.2685 192.522 79.1805 191.95H79.1365C78.4765 192.896 77.4865 193.49 75.7925 193.49ZM88.624 193.336C86.534 193.336 85.038 192.654 85.038 190.234V184.184H83.542V181.94H85.038V178.376H88.536V181.94H90.582V184.184H88.536V189.464C88.536 190.344 89.02 190.564 89.79 190.564C90.098 190.564 90.45 190.542 90.582 190.542V193.16C90.274 193.248 89.592 193.336 88.624 193.336ZM95.7429 193.534C93.1469 193.534 91.7829 191.84 91.7829 189.332V181.94H95.3469V188.584C95.3469 189.816 95.8969 190.498 97.0409 190.498C98.2729 190.498 99.0209 189.574 99.0209 188.232V181.94H102.607V193.204H99.1749V191.818H99.1089C98.2949 192.918 97.3049 193.534 95.7429 193.534ZM104.332 193.204V181.94H107.764V183.7H107.83C108.622 182.358 109.546 181.764 110.91 181.764C111.24 181.764 111.46 181.786 111.614 181.852V184.932H111.526C109.326 184.624 107.918 185.702 107.918 188.144V193.204H104.332ZM118.039 193.534C114.321 193.534 112.033 190.96 112.033 187.55C112.033 184.184 114.387 181.61 117.819 181.61C119.425 181.61 120.701 182.138 121.669 183.018C123.011 184.25 123.671 186.208 123.649 188.496H115.553C115.773 190.014 116.609 190.96 118.083 190.96C119.029 190.96 119.645 190.542 119.953 189.838H123.451C123.209 190.85 122.549 191.818 121.559 192.5C120.613 193.16 119.469 193.534 118.039 193.534ZM115.575 186.362H120.019C119.887 185.02 119.051 184.162 117.885 184.162C116.521 184.162 115.817 185.02 115.575 186.362ZM128.485 193.204V177.474H136.075C137.703 177.474 138.913 177.87 139.749 178.552C140.651 179.3 141.113 180.312 141.113 181.566C141.113 183.128 140.299 184.118 138.913 184.646V184.712C140.629 185.24 141.729 186.692 141.729 188.562C141.729 190.146 141.157 191.29 140.123 192.082C139.199 192.808 137.901 193.204 136.251 193.204H128.485ZM132.335 183.7H135.503C136.625 183.7 137.395 183.15 137.395 182.116C137.395 181.126 136.669 180.554 135.525 180.554H132.335V183.7ZM132.335 190.08H135.811C137.087 190.08 137.879 189.354 137.879 188.232C137.879 186.978 136.955 186.34 135.767 186.34H132.335V190.08ZM143.025 193.204V181.94H146.457V183.7H146.523C147.315 182.358 148.239 181.764 149.603 181.764C149.933 181.764 150.153 181.786 150.307 181.852V184.932H150.219C148.019 184.624 146.611 185.702 146.611 188.144V193.204H143.025ZM155.591 191.202C156.933 191.202 157.857 190.388 157.857 189.178V187.836C157.395 188.078 156.735 188.254 156.009 188.43C154.623 188.738 154.051 189.09 154.051 189.948C154.051 190.85 154.711 191.202 155.591 191.202ZM154.447 193.49C152.203 193.49 150.597 192.28 150.597 190.058C150.597 187.572 152.577 186.824 154.909 186.516C157.021 186.252 157.769 186.032 157.769 185.262C157.769 184.536 157.307 184.052 156.229 184.052C155.085 184.052 154.513 184.558 154.403 185.504H151.103C151.191 183.414 152.797 181.632 156.207 181.632C157.901 181.632 159.045 181.94 159.859 182.556C160.827 183.26 161.289 184.36 161.289 185.768V191.444C161.289 192.346 161.377 192.852 161.685 193.05V193.204H158.209C158.033 192.962 157.923 192.522 157.835 191.95H157.791C157.131 192.896 156.141 193.49 154.447 193.49ZM163.027 193.204V181.94H166.481V183.48H166.547C167.383 182.27 168.461 181.61 170.023 181.61C172.487 181.61 173.939 183.37 173.939 185.878V193.204H170.353V186.604C170.353 185.416 169.759 184.602 168.593 184.602C167.405 184.602 166.613 185.592 166.613 186.978V193.204H163.027ZM180.92 190.718C182.416 190.718 183.296 189.42 183.296 187.572C183.296 185.68 182.526 184.316 180.964 184.316C179.534 184.316 178.698 185.636 178.698 187.528C178.698 189.486 179.534 190.718 180.92 190.718ZM179.996 193.556C177.114 193.556 175.068 191.334 175.068 187.572C175.068 184.052 177.092 181.61 179.996 181.61C181.58 181.61 182.482 182.27 183.142 183.216H183.208V177.474H186.794V193.204H183.362V191.686H183.318C182.636 192.852 181.47 193.556 179.996 193.556ZM193.304 193.556C190.004 193.556 187.936 192.038 187.826 189.552H191.214C191.346 190.674 192.094 191.224 193.282 191.224C194.36 191.224 195.042 190.828 195.042 190.102C195.042 189.09 193.678 188.98 192.182 188.716C190.224 188.386 188.134 187.858 188.134 185.218C188.134 182.842 190.334 181.61 192.996 181.61C196.186 181.61 197.902 182.996 198.078 185.218H194.778C194.646 184.206 193.964 183.898 192.974 183.898C192.094 183.898 191.412 184.228 191.412 184.932C191.412 185.724 192.688 185.834 194.118 186.098C196.098 186.428 198.43 186.934 198.43 189.816C198.43 192.28 196.252 193.556 193.304 193.556ZM46.0531 209.084C46.9551 208.556 47.3071 207.918 47.3071 207.192C47.3071 206.51 46.8231 205.982 46.1411 205.982C45.4151 205.982 44.9531 206.488 44.9531 207.192C44.9531 207.896 45.4371 208.534 46.0531 209.084ZM45.1071 216.586C45.8771 216.586 46.6031 216.344 47.2411 215.904L44.5791 212.45C43.4791 213.11 43.0831 213.858 43.0831 214.76C43.0831 215.86 43.9411 216.586 45.1071 216.586ZM44.9531 219.468C41.3011 219.468 39.3651 217.466 39.3651 214.848C39.3651 212.45 40.9051 211.152 42.8411 210.25C42.0931 209.348 41.6311 208.424 41.6311 207.214C41.6311 205.036 43.3251 203.386 46.0531 203.386C48.6271 203.386 50.4971 204.838 50.4971 207.17C50.4971 209.128 49.1991 210.162 47.5931 210.932L49.4851 213.308C49.7491 212.692 49.9691 211.988 50.0791 211.328H53.1811C53.0271 212.846 52.4331 214.43 51.4651 215.816L54.1711 219.204H49.7931L49.0231 218.214C47.8351 218.984 46.4491 219.468 44.9531 219.468ZM62.6089 210.426H65.5349C67.0749 210.426 67.8669 209.7 67.8669 208.512C67.8669 207.368 67.1189 206.554 65.6229 206.554H62.6089V210.426ZM58.7149 219.204V203.474H66.2389C69.3629 203.474 71.7389 205.08 71.7389 208.006C71.7389 209.832 70.8369 211.174 69.0109 211.812V211.878C70.3749 212.34 71.0789 213.198 71.2989 214.76C71.6289 216.828 71.4089 218.808 71.9589 219.006V219.204H68.1749C67.7569 218.962 67.8229 217.114 67.5809 215.552C67.3829 214.1 66.6349 213.308 64.9629 213.308H62.6089V219.204H58.7149ZM78.6473 219.534C74.9293 219.534 72.6413 216.96 72.6413 213.55C72.6413 210.184 74.9953 207.61 78.4273 207.61C80.0333 207.61 81.3093 208.138 82.2773 209.018C83.6193 210.25 84.2793 212.208 84.2573 214.496H76.1613C76.3813 216.014 77.2173 216.96 78.6913 216.96C79.6373 216.96 80.2533 216.542 80.5613 215.838H84.0593C83.8173 216.85 83.1573 217.818 82.1673 218.5C81.2213 219.16 80.0773 219.534 78.6473 219.534ZM76.1833 212.362H80.6273C80.4953 211.02 79.6593 210.162 78.4933 210.162C77.1293 210.162 76.4253 211.02 76.1833 212.362ZM90.2538 219.556C86.9538 219.556 84.8858 218.038 84.7758 215.552H88.1638C88.2958 216.674 89.0438 217.224 90.2318 217.224C91.3098 217.224 91.9918 216.828 91.9918 216.102C91.9918 215.09 90.6278 214.98 89.1318 214.716C87.1738 214.386 85.0838 213.858 85.0838 211.218C85.0838 208.842 87.2838 207.61 89.9458 207.61C93.1358 207.61 94.8518 208.996 95.0278 211.218H91.7278C91.5958 210.206 90.9138 209.898 89.9238 209.898C89.0438 209.898 88.3618 210.228 88.3618 210.932C88.3618 211.724 89.6378 211.834 91.0678 212.098C93.0478 212.428 95.3798 212.934 95.3798 215.816C95.3798 218.28 93.2018 219.556 90.2538 219.556ZM100.687 219.336C98.5975 219.336 97.1015 218.654 97.1015 216.234V210.184H95.6055V207.94H97.1015V204.376H100.599V207.94H102.645V210.184H100.599V215.464C100.599 216.344 101.083 216.564 101.853 216.564C102.161 216.564 102.513 216.542 102.645 216.542V219.16C102.337 219.248 101.655 219.336 100.687 219.336ZM112.872 219.556C109.264 219.556 106.844 216.982 106.844 213.594C106.844 210.206 109.264 207.632 112.872 207.632C116.502 207.632 118.878 210.206 118.878 213.594C118.878 216.982 116.502 219.556 112.872 219.556ZM112.85 217.004C114.412 217.004 115.248 215.64 115.248 213.594C115.248 211.548 114.412 210.162 112.85 210.162C111.288 210.162 110.474 211.548 110.474 213.594C110.474 215.64 111.288 217.004 112.85 217.004ZM120.712 219.204V210.228H119.26V207.94H120.712V207.126C120.712 205.96 121.042 205.102 121.636 204.508C122.604 203.562 124.474 203.342 126.41 203.54V206.07C125.046 206.026 124.298 206.136 124.298 207.39V207.94H126.41V210.228H124.298V219.204H120.712ZM131.182 219.204V203.474H138.266C140.18 203.474 141.588 204.002 142.556 204.926C143.568 205.872 144.14 207.214 144.14 208.798C144.14 211.812 142.05 213.946 138.816 213.946H135.142V219.204H131.182ZM135.142 210.866H138.024C139.432 210.866 140.224 210.03 140.224 208.776C140.224 207.522 139.41 206.752 138.024 206.752H135.142V210.866ZM150.406 219.556C146.798 219.556 144.378 216.982 144.378 213.594C144.378 210.206 146.798 207.632 150.406 207.632C154.036 207.632 156.412 210.206 156.412 213.594C156.412 216.982 154.036 219.556 150.406 219.556ZM150.384 217.004C151.946 217.004 152.782 215.64 152.782 213.594C152.782 211.548 151.946 210.162 150.384 210.162C148.822 210.162 148.008 211.548 148.008 213.594C148.008 215.64 148.822 217.004 150.384 217.004ZM157.624 219.204V207.94H161.056V209.7H161.122C161.914 208.358 162.838 207.764 164.202 207.764C164.532 207.764 164.752 207.786 164.906 207.852V210.932H164.818C162.618 210.624 161.21 211.702 161.21 214.144V219.204H157.624ZM170.727 219.336C168.637 219.336 167.141 218.654 167.141 216.234V210.184H165.645V207.94H167.141V204.376H170.639V207.94H172.685V210.184H170.639V215.464C170.639 216.344 171.123 216.564 171.893 216.564C172.201 216.564 172.553 216.542 172.685 216.542V219.16C172.377 219.248 171.695 219.336 170.727 219.336ZM174.702 219.204V210.228H173.25V207.94H174.702V207.126C174.702 205.96 175.032 205.102 175.626 204.508C176.594 203.562 178.464 203.342 180.4 203.54V206.07C179.036 206.026 178.288 206.136 178.288 207.39V207.94H180.4V210.228H178.288V219.204H174.702ZM186.736 219.556C183.128 219.556 180.708 216.982 180.708 213.594C180.708 210.206 183.128 207.632 186.736 207.632C190.366 207.632 192.742 210.206 192.742 213.594C192.742 216.982 190.366 219.556 186.736 219.556ZM186.714 217.004C188.276 217.004 189.112 215.64 189.112 213.594C189.112 211.548 188.276 210.162 186.714 210.162C185.152 210.162 184.338 211.548 184.338 213.594C184.338 215.64 185.152 217.004 186.714 217.004ZM193.976 219.204V203.474H197.606V219.204H193.976ZM201.15 203.144C202.272 203.144 203.13 203.936 203.13 205.058C203.13 206.18 202.272 206.972 201.15 206.972C200.028 206.972 199.17 206.18 199.17 205.058C199.17 203.936 200.028 203.144 201.15 203.144ZM199.346 219.204V207.94H202.932V219.204H199.346ZM210.175 219.556C206.567 219.556 204.147 216.982 204.147 213.594C204.147 210.206 206.567 207.632 210.175 207.632C213.805 207.632 216.181 210.206 216.181 213.594C216.181 216.982 213.805 219.556 210.175 219.556ZM210.153 217.004C211.715 217.004 212.551 215.64 212.551 213.594C212.551 211.548 211.715 210.162 210.153 210.162C208.591 210.162 207.777 211.548 207.777 213.594C207.777 215.64 208.591 217.004 210.153 217.004Z" fill="#002068"/>
</g>
<path d="M127.354 139.854C154.343 139.854 176.221 117.725 176.221 90.4269C176.221 63.1292 154.343 41 127.354 41C100.366 41 78.4873 63.1292 78.4873 90.4269C78.4873 117.725 100.366 139.854 127.354 139.854Z" fill="url(#paint0_linear_477_458)"/>
<path d="M156.813 117.175H97.8956C95.6477 117.175 93.8234 115.33 93.8234 113.056V72.8801C93.8234 70.6065 95.6477 68.7612 97.8956 68.7612H98.7019C99.7851 68.7612 100.828 69.1978 101.593 69.9804L104.973 73.4238C105.739 74.2064 106.781 74.643 107.864 74.643H147.048C148.163 74.643 149.23 74.1817 150.004 73.3579L153.107 70.0463C153.873 69.2225 154.948 68.7612 156.063 68.7612H156.813C159.061 68.7612 160.885 70.6065 160.885 72.8801V113.056C160.885 115.33 159.061 117.175 156.813 117.175Z" stroke="white" stroke-width="2.88" stroke-linecap="round" stroke-linejoin="round"/>
<path d="M96.3563 67.7971C96.3563 65.5235 98.1807 63.6782 100.429 63.6782H154.426C156.674 63.6782 158.499 65.5235 158.499 67.7971" stroke="white" stroke-width="2.88" stroke-linecap="round" stroke-linejoin="round"/>
<defs>
<filter id="filter0_d_477_458" x="0" y="0" width="258" height="258" filterUnits="userSpaceOnUse" color-interpolation-filters="sRGB">
<feFlood flood-opacity="0" result="BackgroundImageFix"/>
<feColorMatrix in="SourceAlpha" type="matrix" values="0 0 0 0 0 0 0 0 0 0 0 0 0 0 0 0 0 0 127 0" result="hardAlpha"/>
<feOffset dx="2" dy="2"/>
<feGaussianBlur stdDeviation="2"/>
<feComposite in2="hardAlpha" operator="out"/>
<feColorMatrix type="matrix" values="0 0 0 0 0 0 0 0 0 0 0 0 0 0 0 0 0 0 0.25 0"/>
<feBlend mode="normal" in2="BackgroundImageFix" result="effect1_dropShadow_477_458"/>
<feBlend mode="normal" in="SourceGraphic" in2="effect1_dropShadow_477_458" result="shape"/>
</filter>
<linearGradient id="paint0_linear_477_458" x1="102.913" y1="133.239" x2="152.636" y2="48.1058" gradientUnits="userSpaceOnUse">
<stop stop-color="#7F2082"/>
<stop offset="0.27" stop-color="#982F7A"/>
<stop offset="0.84" stop-color="#D95566"/>
<stop offset="1" stop-color="#EC6161"/>
</linearGradient>
</defs>
</svg>
