<svg width="361" height="357" viewBox="0 0 361 357" fill="none" xmlns="http://www.w3.org/2000/svg">
<g filter="url(#filter0_d_477_372)">
<rect x="2" y="2" width="353" height="349" rx="19.0804" fill="white"/>
<path d="M59.1403 273.543C52.0143 273.543 47.1618 268.215 47.1618 260.954C47.1618 253.726 51.8785 248.262 59.1064 248.262C61.9229 248.262 64.2982 249.077 66.0288 250.4C68.1327 251.995 69.3543 254.37 69.6597 257.085H63.6535C63.3481 254.913 61.6514 253.251 59.0725 253.251C55.1362 253.251 53.2698 256.542 53.2698 260.954C53.2698 265.399 55.5094 268.623 59.1064 268.623C61.7871 268.623 63.5517 266.926 63.8232 264.584H69.8294C69.6597 266.994 68.5739 269.199 66.9111 270.794C65.0448 272.593 62.5676 273.543 59.1403 273.543ZM78.5214 269.912C80.5914 269.912 82.0166 268.657 82.0166 266.79V264.72C81.304 265.093 80.286 265.365 79.1662 265.636C77.0283 266.111 76.1461 266.654 76.1461 267.978C76.1461 269.369 77.1641 269.912 78.5214 269.912ZM76.7569 273.441C73.2957 273.441 70.8185 271.575 70.8185 268.148C70.8185 264.313 73.8725 263.159 77.4695 262.684C80.7271 262.277 81.8808 261.938 81.8808 260.75C81.8808 259.63 81.1682 258.884 79.5055 258.884C77.741 258.884 76.8587 259.664 76.689 261.123H71.599C71.7347 257.9 74.2119 255.151 79.4716 255.151C82.0844 255.151 83.849 255.626 85.1045 256.576C86.5976 257.662 87.3102 259.359 87.3102 261.53V270.285C87.3102 271.677 87.4459 272.457 87.921 272.762V273H82.5595C82.288 272.627 82.1184 271.948 81.9826 271.066H81.9148C80.8968 272.525 79.3698 273.441 76.7569 273.441ZM89.9915 273V255.626H95.2851V258.341H95.3869C96.6085 256.271 98.0337 255.355 100.138 255.355C100.647 255.355 100.986 255.388 101.223 255.49V260.241H101.088C97.6944 259.766 95.5227 261.429 95.5227 265.195V273H89.9915ZM110.896 269.166C113.204 269.166 114.561 267.163 114.561 264.313C114.561 261.395 113.373 259.291 110.964 259.291C108.758 259.291 107.469 261.327 107.469 264.245C107.469 267.265 108.758 269.166 110.896 269.166ZM109.471 273.543C105.026 273.543 101.87 270.116 101.87 264.313C101.87 258.884 104.992 255.117 109.471 255.117C111.914 255.117 113.305 256.135 114.323 257.594H114.425V248.738H119.956V273H114.663V270.659H114.595C113.543 272.457 111.744 273.543 109.471 273.543ZM125.382 248.229C127.113 248.229 128.436 249.45 128.436 251.181C128.436 252.911 127.113 254.133 125.382 254.133C123.651 254.133 122.328 252.911 122.328 251.181C122.328 249.45 123.651 248.229 125.382 248.229ZM122.6 273V255.626H128.131V273H122.6ZM139.302 273.543C133.737 273.543 130.004 269.573 130.004 264.347C130.004 259.121 133.737 255.151 139.302 255.151C144.901 255.151 148.566 259.121 148.566 264.347C148.566 269.573 144.901 273.543 139.302 273.543ZM139.268 269.607C141.677 269.607 142.967 267.503 142.967 264.347C142.967 261.191 141.677 259.053 139.268 259.053C136.859 259.053 135.603 261.191 135.603 264.347C135.603 267.503 136.859 269.607 139.268 269.607ZM150.198 266.858V262.107H159.428V266.858H150.198ZM162.141 273V248.738H170.218L173.17 259.359C173.611 260.886 174.561 264.89 174.561 264.89H174.629C174.629 264.89 175.579 260.886 175.986 259.359L178.972 248.738H187.116V273H181.619V260.784C181.619 259.8 181.721 255.931 181.721 255.931H181.653C181.653 255.931 180.805 259.562 180.533 260.445L177.038 273H172.084L168.623 260.479C168.351 259.596 167.503 255.931 167.503 255.931H167.435C167.435 255.931 167.537 259.834 167.537 260.818V273H162.141ZM198.585 273.509C192.851 273.509 189.322 269.539 189.322 264.279C189.322 259.087 192.953 255.117 198.246 255.117C200.723 255.117 202.691 255.931 204.185 257.289C206.254 259.189 207.272 262.209 207.239 265.738H194.751C195.09 268.08 196.38 269.539 198.653 269.539C200.113 269.539 201.063 268.894 201.538 267.808H206.933C206.56 269.369 205.542 270.862 204.015 271.914C202.556 272.932 200.791 273.509 198.585 273.509ZM194.785 262.447H201.64C201.436 260.377 200.146 259.053 198.348 259.053C196.244 259.053 195.158 260.377 194.785 262.447ZM215.647 273.204C212.424 273.204 210.116 272.152 210.116 268.419V259.087H207.809V255.626H210.116V250.129H215.512V255.626H218.668V259.087H215.512V267.231C215.512 268.589 216.258 268.928 217.446 268.928C217.921 268.928 218.464 268.894 218.668 268.894V272.932C218.192 273.068 217.141 273.204 215.647 273.204ZM227.875 269.912C229.945 269.912 231.371 268.657 231.371 266.79V264.72C230.658 265.093 229.64 265.365 228.52 265.636C226.382 266.111 225.5 266.654 225.5 267.978C225.5 269.369 226.518 269.912 227.875 269.912ZM226.111 273.441C222.65 273.441 220.173 271.575 220.173 268.148C220.173 264.313 223.227 263.159 226.824 262.684C230.081 262.277 231.235 261.938 231.235 260.75C231.235 259.63 230.522 258.884 228.86 258.884C227.095 258.884 226.213 259.664 226.043 261.123H220.953C221.089 257.9 223.566 255.151 228.826 255.151C231.438 255.151 233.203 255.626 234.459 256.576C235.952 257.662 236.664 259.359 236.664 261.53V270.285C236.664 271.677 236.8 272.457 237.275 272.762V273H231.914C231.642 272.627 231.472 271.948 231.337 271.066H231.269C230.251 272.525 228.724 273.441 226.111 273.441ZM249.967 273.543C247.659 273.543 245.793 272.593 244.707 270.794H244.639V273H239.346V248.738H244.877V257.594H244.979C246.064 256.101 247.557 255.117 249.933 255.117C254.446 255.117 257.364 259.087 257.364 264.313C257.364 270.082 254.446 273.543 249.967 273.543ZM248.406 269.166C250.578 269.166 251.765 267.299 251.765 264.279C251.765 261.293 250.578 259.325 248.338 259.325C245.895 259.325 244.707 261.463 244.707 264.313C244.707 267.197 246.132 269.166 248.406 269.166ZM267.746 273.543C262.181 273.543 258.448 269.573 258.448 264.347C258.448 259.121 262.181 255.151 267.746 255.151C273.345 255.151 277.01 259.121 277.01 264.347C277.01 269.573 273.345 273.543 267.746 273.543ZM267.712 269.607C270.121 269.607 271.411 267.503 271.411 264.347C271.411 261.191 270.121 259.053 267.712 259.053C265.303 259.053 264.047 261.191 264.047 264.347C264.047 267.503 265.303 269.607 267.712 269.607ZM278.913 273V248.738H284.512V273H278.913ZM289.98 248.229C291.71 248.229 293.034 249.45 293.034 251.181C293.034 252.911 291.71 254.133 289.98 254.133C288.249 254.133 286.926 252.911 286.926 251.181C286.926 249.45 288.249 248.229 289.98 248.229ZM287.197 273V255.626H292.728V273H287.197ZM303.832 273.543C298.233 273.543 294.602 269.573 294.602 264.347C294.602 259.121 298.199 255.151 303.696 255.151C308.413 255.151 311.433 257.9 311.942 261.802H306.614C306.275 260.241 305.325 259.223 303.764 259.223C301.389 259.223 300.201 261.191 300.201 264.347C300.201 267.435 301.389 269.403 303.764 269.403C305.494 269.403 306.546 268.385 306.784 266.417H312.078C311.942 270.421 308.752 273.543 303.832 273.543Z" fill="#002068"/>
</g>
<path d="M156.097 129.073C160.295 129.073 163.698 125.67 163.698 121.472C163.698 117.273 160.295 113.87 156.097 113.87C151.899 113.87 148.495 117.273 148.495 121.472C148.495 125.67 151.899 129.073 156.097 129.073Z" stroke="white" stroke-width="2.875" stroke-linecap="round" stroke-linejoin="round"/>
<path d="M156.12 129.107C149.91 132.937 145.943 140.055 146.644 148.036C147.484 157.593 155.223 165.355 164.78 166.218C172.324 166.896 179.109 163.412 183.076 157.788" stroke="white" stroke-width="2.875" stroke-linecap="round" stroke-linejoin="round"/>
<path d="M148.507 119.632C139.79 125.796 134.362 136.272 135.305 147.956C136.558 163.401 149.254 175.786 164.71 176.706C178.924 177.557 191.241 168.967 196.002 156.616" stroke="white" stroke-width="2.875" stroke-linecap="round" stroke-linejoin="round"/>
<path d="M151.233 173.464C144.551 174.625 139.468 180.444 139.468 187.459V190.484H195.416V187.459C195.416 180.249 190.034 174.28 183.065 173.372" stroke="white" stroke-width="2.875" stroke-linecap="round" stroke-linejoin="round"/>
<path d="M175.049 156.616H202.799" stroke="white" stroke-width="2.875" stroke-linecap="round" stroke-linejoin="round"/>
<path d="M150.45 116.4L145.689 111.72C144.838 110.88 144.827 109.5 145.666 108.649L154.751 99.4263C155.591 98.5753 156.971 98.5638 157.822 99.4033L184.329 125.485C185.18 126.325 185.192 127.705 184.352 128.556L175.267 137.779C174.428 138.63 173.048 138.641 172.197 137.802L161.49 127.268" stroke="white" stroke-width="2.875" stroke-linecap="round" stroke-linejoin="round"/>
<path d="M153.44 100.036L149.473 96.1376C148.622 95.2981 147.242 95.3096 146.402 96.1606L142.274 100.358C141.434 101.209 141.446 102.589 142.297 103.429L146.264 107.327" stroke="white" stroke-width="2.875" stroke-linecap="round" stroke-linejoin="round"/>
<path d="M176.578 137.169L179.637 140.182C181.65 142.172 184.893 142.137 186.882 140.125C188.872 138.112 188.837 134.869 186.825 132.88L183.766 129.867" stroke="white" stroke-width="2.875" stroke-linecap="round" stroke-linejoin="round"/>
<g clip-path="url(#clip0_477_372)">
<path d="M179 212C217.108 212 248 181.108 248 143C248 104.892 217.108 74 179 74C140.892 74 110 104.892 110 143C110 181.108 140.892 212 179 212Z" fill="url(#paint0_linear_477_372)"/>
<path d="M203.255 145.383H197.899C198.555 143.991 199.085 142.515 199.431 140.949C201.25 132.707 196.795 126.871 191.887 124.937C187.112 123.058 182.148 124.668 178.842 129.05C175.537 124.668 170.575 123.056 165.797 124.937C160.889 126.871 156.435 132.707 158.254 140.949C158.6 142.515 159.129 143.991 159.786 145.383H154.937C154.297 145.383 153.778 145.901 153.778 146.541C153.778 147.182 154.297 147.7 154.937 147.7H161.04C166.701 156.903 177.82 161.691 178.392 161.933C178.536 161.993 178.689 162.023 178.842 162.023C178.996 162.023 179.148 161.993 179.293 161.933C179.864 161.691 190.982 156.903 196.644 147.7H203.255C203.894 147.7 204.413 147.182 204.413 146.541C204.413 145.901 203.894 145.383 203.255 145.383ZM160.517 140.449C158.991 133.535 162.624 128.679 166.647 127.092C167.601 126.717 168.668 126.493 169.78 126.493C172.535 126.493 175.568 127.869 177.845 131.722C178.262 132.428 179.423 132.428 179.84 131.722C183.035 126.314 187.718 125.784 191.037 127.092C195.06 128.678 198.693 133.535 197.167 140.449C196.778 142.212 196.104 143.848 195.269 145.383H184.655L179.903 137.742C179.692 137.403 179.32 137.196 178.919 137.196C178.519 137.196 178.148 137.403 177.935 137.742L173.183 145.383H162.413C161.58 143.848 160.906 142.212 160.517 140.449ZM178.842 159.594C176.845 158.665 168.713 154.574 163.845 147.7H173.827C174.228 147.7 174.6 147.493 174.811 147.154L178.919 140.549L183.028 147.154C183.239 147.493 183.61 147.7 184.011 147.7H193.834C188.967 154.566 180.837 158.664 178.842 159.594Z" fill="white"/>
<path d="M208.598 107.373H215.356C215.995 107.373 216.514 106.855 216.514 106.214C216.514 105.574 215.995 105.055 215.356 105.055H205.533C198.028 99.8243 188.917 96.7451 179.096 96.7451C153.538 96.7451 132.745 117.538 132.745 143.096C132.745 157.171 139.059 169.792 148.995 178.299H142.104C141.464 178.299 140.946 178.818 140.946 179.458C140.946 180.099 141.464 180.617 142.104 180.617H151.93C159.57 186.164 168.954 189.447 179.096 189.447C204.654 189.447 225.447 168.654 225.447 143.096C225.447 128.736 218.882 115.882 208.598 107.373ZM179.096 187.129C169.494 187.129 160.605 184.03 153.36 178.792V169.361C153.36 168.72 152.842 168.202 152.202 168.202C151.562 168.202 151.043 168.72 151.043 169.361V177.009C141.288 168.926 135.063 156.725 135.063 143.096C135.063 118.816 154.816 99.0623 179.096 99.0623C188.377 99.0623 196.992 101.956 204.099 106.878V116.311C204.099 116.952 204.618 117.47 205.258 117.47C205.898 117.47 206.417 116.952 206.417 116.311V108.601C216.588 116.675 223.129 129.132 223.129 143.096C223.129 167.375 203.376 187.129 179.096 187.129Z" fill="white"/>
</g>
<defs>
<filter id="filter0_d_477_372" x="0" y="0" width="361" height="357" filterUnits="userSpaceOnUse" color-interpolation-filters="sRGB">
<feFlood flood-opacity="0" result="BackgroundImageFix"/>
<feColorMatrix in="SourceAlpha" type="matrix" values="0 0 0 0 0 0 0 0 0 0 0 0 0 0 0 0 0 0 127 0" result="hardAlpha"/>
<feOffset dx="2" dy="2"/>
<feGaussianBlur stdDeviation="2"/>
<feComposite in2="hardAlpha" operator="out"/>
<feColorMatrix type="matrix" values="0 0 0 0 0 0 0 0 0 0 0 0 0 0 0 0 0 0 0.25 0"/>
<feBlend mode="normal" in2="BackgroundImageFix" result="effect1_dropShadow_477_372"/>
<feBlend mode="normal" in="SourceGraphic" in2="effect1_dropShadow_477_372" result="shape"/>
</filter>
<linearGradient id="paint0_linear_477_372" x1="144.488" y1="202.766" x2="213.512" y2="83.2345" gradientUnits="userSpaceOnUse">
<stop stop-color="#7F2082"/>
<stop offset="0.27" stop-color="#982F7A"/>
<stop offset="0.84" stop-color="#D95566"/>
<stop offset="1" stop-color="#EC6161"/>
</linearGradient>
<clipPath id="clip0_477_372">
<rect width="138" height="138" fill="white" transform="translate(110 74)"/>
</clipPath>
</defs>
</svg>
