<svg width="361" height="357" viewBox="0 0 361 357" fill="none" xmlns="http://www.w3.org/2000/svg">
<g filter="url(#filter0_d_503_278)">
<rect x="2" y="2" width="353" height="349" rx="19.0804" fill="white"/>
<path d="M70.5635 273.543C67.1023 273.543 64.2858 272.321 62.2837 270.15C60.1798 267.842 59.0261 264.652 59.0261 260.954C59.0261 257.153 60.3155 253.794 62.623 251.486C64.6251 249.45 67.4416 248.262 70.9367 248.262C77.1805 248.262 80.9132 251.588 81.6937 256.678H75.8571C75.416 254.71 73.7872 253.217 71.1403 253.217C67.1362 253.217 65.1341 256.542 65.1341 260.954C65.1341 265.399 67.4416 268.69 71.2421 268.69C74.398 268.69 76.2643 266.587 76.5018 264.449V264.381H71.9548V259.97H82.067V273H77.8592L77.5199 270.082H77.452C75.8571 272.559 73.4818 273.543 70.5635 273.543ZM93.1396 273.509C87.4049 273.509 83.8758 269.539 83.8758 264.279C83.8758 259.087 87.5067 255.117 92.8003 255.117C95.2774 255.117 97.2456 255.931 98.7387 257.289C100.809 259.189 101.827 262.209 101.793 265.738H89.3051C89.6445 268.08 90.9339 269.539 93.2075 269.539C94.6666 269.539 95.6168 268.894 96.0918 267.808H101.487C101.114 269.369 100.096 270.862 98.569 271.914C97.1099 272.932 95.3453 273.509 93.1396 273.509ZM89.3391 262.447H96.1936C95.99 260.377 94.7006 259.053 92.9021 259.053C90.7982 259.053 89.7123 260.377 89.3391 262.447ZM103.644 273V255.626H108.972V258.001H109.074C110.363 256.135 112.026 255.117 114.435 255.117C118.236 255.117 120.475 257.832 120.475 261.7V273H114.944V262.82C114.944 260.988 114.028 259.732 112.23 259.732C110.397 259.732 109.176 261.259 109.176 263.397V273H103.644ZM131.481 273.509C125.746 273.509 122.217 269.539 122.217 264.279C122.217 259.087 125.848 255.117 131.141 255.117C133.618 255.117 135.587 255.931 137.08 257.289C139.15 259.189 140.168 262.209 140.134 265.738H127.646C127.985 268.08 129.275 269.539 131.548 269.539C133.008 269.539 133.958 268.894 134.433 267.808H139.828C139.455 269.369 138.437 270.862 136.91 271.914C135.451 272.932 133.686 273.509 131.481 273.509ZM127.68 262.447H134.535C134.331 260.377 133.042 259.053 131.243 259.053C129.139 259.053 128.053 260.377 127.68 262.447ZM153.566 273V253.828H146.508V248.738H166.698V253.828H159.572V273H153.566ZM168.595 273V248.738H174.127V257.764H174.228C175.484 256.101 176.977 255.117 179.386 255.117C183.187 255.117 185.426 257.832 185.426 261.7V273H179.895V262.82C179.895 260.988 178.979 259.732 177.181 259.732C175.348 259.732 174.127 261.259 174.127 263.397V273H168.595ZM196.432 273.509C190.697 273.509 187.168 269.539 187.168 264.279C187.168 259.087 190.799 255.117 196.092 255.117C198.569 255.117 200.537 255.931 202.031 257.289C204.101 259.189 205.119 262.209 205.085 265.738H192.597C192.936 268.08 194.226 269.539 196.499 269.539C197.959 269.539 198.909 268.894 199.384 267.808H204.779C204.406 269.369 203.388 270.862 201.861 271.914C200.402 272.932 198.637 273.509 196.432 273.509ZM192.631 262.447H199.486C199.282 260.377 197.992 259.053 196.194 259.053C194.09 259.053 193.004 260.377 192.631 262.447ZM206.936 273V255.626H212.23V258.341H212.332C213.553 256.271 214.979 255.355 217.082 255.355C217.591 255.355 217.931 255.388 218.168 255.49V260.241H218.033C214.639 259.766 212.468 261.429 212.468 265.195V273H206.936ZM226.318 269.912C228.388 269.912 229.813 268.657 229.813 266.79V264.72C229.101 265.093 228.083 265.365 226.963 265.636C224.825 266.111 223.943 266.654 223.943 267.978C223.943 269.369 224.961 269.912 226.318 269.912ZM224.553 273.441C221.092 273.441 218.615 271.575 218.615 268.148C218.615 264.313 221.669 263.159 225.266 262.684C228.524 262.277 229.677 261.938 229.677 260.75C229.677 259.63 228.965 258.884 227.302 258.884C225.537 258.884 224.655 259.664 224.486 261.123H219.396C219.531 257.9 222.008 255.151 227.268 255.151C229.881 255.151 231.646 255.626 232.901 256.576C234.394 257.662 235.107 259.359 235.107 261.53V270.285C235.107 271.677 235.242 272.457 235.718 272.762V273H230.356C230.085 272.627 229.915 271.948 229.779 271.066H229.711C228.693 272.525 227.166 273.441 224.553 273.441ZM246.882 269.267C248.986 269.267 250.276 267.469 250.276 264.517C250.276 261.53 249.156 259.562 246.78 259.562C244.371 259.562 243.15 261.7 243.15 264.517C243.15 267.333 244.507 269.267 246.882 269.267ZM237.788 278.735V255.626H243.082V257.73H243.183C244.371 256.169 246.068 255.117 248.443 255.117C253.058 255.117 255.875 259.087 255.875 264.313C255.875 269.946 252.855 273.543 248.307 273.543C246.068 273.543 244.473 272.661 243.387 271.202H243.319V278.735H237.788ZM260.52 248.229C262.25 248.229 263.574 249.45 263.574 251.181C263.574 252.911 262.25 254.133 260.52 254.133C258.789 254.133 257.466 252.911 257.466 251.181C257.466 249.45 258.789 248.229 260.52 248.229ZM257.737 273V255.626H263.268V273H257.737ZM274.406 273.509C268.671 273.509 265.142 269.539 265.142 264.279C265.142 259.087 268.773 255.117 274.066 255.117C276.544 255.117 278.512 255.931 280.005 257.289C282.075 259.189 283.093 262.209 283.059 265.738H270.571C270.911 268.08 272.2 269.539 274.474 269.539C275.933 269.539 276.883 268.894 277.358 267.808H282.753C282.38 269.369 281.362 270.862 279.835 271.914C278.376 272.932 276.611 273.509 274.406 273.509ZM270.605 262.447H277.46C277.256 260.377 275.967 259.053 274.168 259.053C272.064 259.053 270.979 260.377 270.605 262.447ZM292.308 273.543C287.218 273.543 284.028 271.202 283.859 267.367H289.084C289.288 269.098 290.442 269.946 292.274 269.946C293.937 269.946 294.989 269.335 294.989 268.215C294.989 266.654 292.885 266.485 290.578 266.078C287.557 265.569 284.334 264.754 284.334 260.682C284.334 257.017 287.727 255.117 291.833 255.117C296.753 255.117 299.4 257.255 299.672 260.682H294.582C294.378 259.121 293.326 258.646 291.799 258.646C290.442 258.646 289.39 259.155 289.39 260.241C289.39 261.463 291.358 261.632 293.564 262.039C296.618 262.548 300.215 263.329 300.215 267.774C300.215 271.575 296.855 273.543 292.308 273.543Z" fill="#002068"/>
</g>
<path d="M136.097 129.073C140.295 129.073 143.699 125.67 143.699 121.472C143.699 117.273 140.295 113.87 136.097 113.87C131.899 113.87 128.496 117.273 128.496 121.472C128.496 125.67 131.899 129.073 136.097 129.073Z" stroke="white" stroke-width="2.875" stroke-linecap="round" stroke-linejoin="round"/>
<path d="M136.12 129.107C129.91 132.937 125.943 140.055 126.644 148.036C127.484 157.593 135.223 165.355 144.78 166.218C152.324 166.896 159.109 163.412 163.076 157.788" stroke="white" stroke-width="2.875" stroke-linecap="round" stroke-linejoin="round"/>
<path d="M128.507 119.632C119.79 125.796 114.362 136.272 115.305 147.956C116.559 163.401 129.255 175.786 144.711 176.706C158.925 177.557 171.241 168.967 176.002 156.616" stroke="white" stroke-width="2.875" stroke-linecap="round" stroke-linejoin="round"/>
<path d="M131.233 173.464C124.551 174.625 119.468 180.444 119.468 187.459V190.484H175.416V187.459C175.416 180.249 170.034 174.28 163.065 173.372" stroke="white" stroke-width="2.875" stroke-linecap="round" stroke-linejoin="round"/>
<path d="M155.049 156.616H182.799" stroke="white" stroke-width="2.875" stroke-linecap="round" stroke-linejoin="round"/>
<path d="M130.451 116.4L125.69 111.72C124.839 110.88 124.827 109.5 125.667 108.649L134.752 99.4263C135.591 98.5753 136.971 98.5638 137.822 99.4033L164.33 125.485C165.181 126.325 165.192 127.705 164.353 128.556L155.268 137.779C154.428 138.63 153.048 138.641 152.197 137.802L141.491 127.268" stroke="white" stroke-width="2.875" stroke-linecap="round" stroke-linejoin="round"/>
<path d="M133.441 100.036L129.473 96.1376C128.622 95.2981 127.242 95.3096 126.403 96.1606L122.274 100.358C121.435 101.209 121.446 102.589 122.297 103.429L126.265 107.327" stroke="white" stroke-width="2.875" stroke-linecap="round" stroke-linejoin="round"/>
<path d="M156.579 137.169L159.638 140.182C161.65 142.172 164.893 142.137 166.883 140.125C168.872 138.112 168.838 134.869 166.825 132.88L163.766 129.867" stroke="white" stroke-width="2.875" stroke-linecap="round" stroke-linejoin="round"/>
<g clip-path="url(#clip0_503_278)">
<path d="M179 212C217.108 212 248 181.108 248 143C248 104.892 217.108 74 179 74C140.892 74 110 104.892 110 143C110 181.108 140.892 212 179 212Z" fill="url(#paint0_linear_503_278)"/>
<path d="M165.492 123.836C159.432 128.125 155.464 135.198 155.464 143.19C155.464 154 162.87 163.787 173.6 165.753C176.808 166.34 180.764 166.742 183.973 167.352C190.746 168.628 196.726 172.837 200.165 178.817C202.223 182.394 203.304 186.488 203.304 190.616" stroke="white" stroke-width="2.88" stroke-linecap="round" stroke-linejoin="round"/>
<path d="M192.793 162.338C198.854 158.048 202.821 150.976 202.821 142.983C202.821 132.173 195.415 122.387 184.686 120.42C181.477 119.834 177.521 119.431 174.313 118.822C167.539 117.545 161.559 113.336 158.121 107.356C156.062 103.78 154.981 99.6856 154.981 95.5571" stroke="white" stroke-width="2.88" stroke-linecap="round" stroke-linejoin="round"/>
<path d="M202.844 95.7412C202.844 104.251 198.359 111.703 191.632 115.878" stroke="white" stroke-width="2.88" stroke-linecap="round" stroke-linejoin="round"/>
<path d="M155.464 190.605C155.464 181.842 160.225 174.194 167.286 170.1" stroke="white" stroke-width="2.88" stroke-linecap="round" stroke-linejoin="round"/>
<path d="M164.4 143.65H193.955" stroke="white" stroke-width="2.88" stroke-linecap="round" stroke-linejoin="round"/>
<path d="M164.4 99.2944H193.955" stroke="white" stroke-width="2.88" stroke-linecap="round" stroke-linejoin="round"/>
<path d="M168.563 155.139H189.792" stroke="white" stroke-width="2.88" stroke-linecap="round" stroke-linejoin="round"/>
<path d="M168.563 132.162H189.792" stroke="white" stroke-width="2.88" stroke-linecap="round" stroke-linejoin="round"/>
<path d="M168.563 107.31H189.792" stroke="white" stroke-width="2.88" stroke-linecap="round" stroke-linejoin="round"/>
<path d="M193.955 186.718H164.4" stroke="white" stroke-width="2.88" stroke-linecap="round" stroke-linejoin="round"/>
<path d="M189.792 178.863H168.563" stroke="white" stroke-width="2.88" stroke-linecap="round" stroke-linejoin="round"/>
</g>
<defs>
<filter id="filter0_d_503_278" x="0" y="0" width="361" height="357" filterUnits="userSpaceOnUse" color-interpolation-filters="sRGB">
<feFlood flood-opacity="0" result="BackgroundImageFix"/>
<feColorMatrix in="SourceAlpha" type="matrix" values="0 0 0 0 0 0 0 0 0 0 0 0 0 0 0 0 0 0 127 0" result="hardAlpha"/>
<feOffset dx="2" dy="2"/>
<feGaussianBlur stdDeviation="2"/>
<feComposite in2="hardAlpha" operator="out"/>
<feColorMatrix type="matrix" values="0 0 0 0 0 0 0 0 0 0 0 0 0 0 0 0 0 0 0.25 0"/>
<feBlend mode="normal" in2="BackgroundImageFix" result="effect1_dropShadow_503_278"/>
<feBlend mode="normal" in="SourceGraphic" in2="effect1_dropShadow_503_278" result="shape"/>
</filter>
<linearGradient id="paint0_linear_503_278" x1="144.488" y1="202.766" x2="213.512" y2="83.2345" gradientUnits="userSpaceOnUse">
<stop stop-color="#7F2082"/>
<stop offset="0.27" stop-color="#982F7A"/>
<stop offset="0.84" stop-color="#D95566"/>
<stop offset="1" stop-color="#EC6161"/>
</linearGradient>
<clipPath id="clip0_503_278">
<rect width="138" height="138" fill="white" transform="translate(110 74)"/>
</clipPath>
</defs>
</svg>
