<svg width="361" height="357" viewBox="0 0 361 357" fill="none" xmlns="http://www.w3.org/2000/svg">
<g filter="url(#filter0_d_477_353)">
<rect x="2" y="2" width="353" height="349" rx="19.0804" fill="white"/>
<path d="M87.1135 273V248.738H93.1197V257.934H101.637V248.738H107.643V273H101.637V262.888H93.1197V273H87.1135ZM119.117 273.509C113.382 273.509 109.853 269.539 109.853 264.279C109.853 259.087 113.484 255.117 118.778 255.117C121.255 255.117 123.223 255.931 124.716 257.289C126.786 259.189 127.804 262.209 127.77 265.738H115.283C115.622 268.08 116.911 269.539 119.185 269.539C120.644 269.539 121.594 268.894 122.069 267.808H127.465C127.091 269.369 126.073 270.862 124.546 271.914C123.087 272.932 121.323 273.509 119.117 273.509ZM115.317 262.447H122.171C121.968 260.377 120.678 259.053 118.88 259.053C116.776 259.053 115.69 260.377 115.317 262.447ZM129.622 273V255.626H134.916V258.103H135.017C136.103 256.305 137.766 255.117 140.277 255.117C142.551 255.117 144.281 256.305 145.163 258.171H145.231C146.589 256.067 148.455 255.117 150.695 255.117C154.631 255.117 156.599 257.798 156.599 261.7V273H151.068V262.684C151.068 260.818 150.287 259.732 148.625 259.732C146.86 259.732 145.876 261.191 145.876 263.261V273H140.345V262.684C140.345 260.818 139.564 259.732 137.902 259.732C136.171 259.732 135.153 261.191 135.153 263.261V273H129.622ZM166.003 269.912C168.073 269.912 169.499 268.657 169.499 266.79V264.72C168.786 265.093 167.768 265.365 166.648 265.636C164.51 266.111 163.628 266.654 163.628 267.978C163.628 269.369 164.646 269.912 166.003 269.912ZM164.239 273.441C160.778 273.441 158.301 271.575 158.301 268.148C158.301 264.313 161.355 263.159 164.952 262.684C168.209 262.277 169.363 261.938 169.363 260.75C169.363 259.63 168.65 258.884 166.988 258.884C165.223 258.884 164.341 259.664 164.171 261.123H159.081C159.217 257.9 161.694 255.151 166.954 255.151C169.566 255.151 171.331 255.626 172.587 256.576C174.08 257.662 174.792 259.359 174.792 261.53V270.285C174.792 271.677 174.928 272.457 175.403 272.762V273H170.042C169.77 272.627 169.6 271.948 169.465 271.066H169.397C168.379 272.525 166.852 273.441 164.239 273.441ZM184.031 273.204C180.807 273.204 178.499 272.152 178.499 268.419V259.087H176.192V255.626H178.499V250.129H183.895V255.626H187.051V259.087H183.895V267.231C183.895 268.589 184.641 268.928 185.829 268.928C186.304 268.928 186.847 268.894 187.051 268.894V272.932C186.576 273.068 185.524 273.204 184.031 273.204ZM197.39 273.543C191.825 273.543 188.093 269.573 188.093 264.347C188.093 259.121 191.825 255.151 197.39 255.151C202.989 255.151 206.654 259.121 206.654 264.347C206.654 269.573 202.989 273.543 197.39 273.543ZM197.356 269.607C199.766 269.607 201.055 267.503 201.055 264.347C201.055 261.191 199.766 259.053 197.356 259.053C194.947 259.053 193.692 261.191 193.692 264.347C193.692 267.503 194.947 269.607 197.356 269.607ZM208.558 273V248.738H214.157V273H208.558ZM225.359 273.543C219.794 273.543 216.061 269.573 216.061 264.347C216.061 259.121 219.794 255.151 225.359 255.151C230.958 255.151 234.623 259.121 234.623 264.347C234.623 269.573 230.958 273.543 225.359 273.543ZM225.325 269.607C227.734 269.607 229.024 267.503 229.024 264.347C229.024 261.191 227.734 259.053 225.325 259.053C222.916 259.053 221.66 261.191 221.66 264.347C221.66 267.503 222.916 269.607 225.325 269.607ZM244.535 267.944C246.944 267.944 248.064 266.044 248.064 263.6C248.064 261.259 246.842 259.291 244.535 259.291C242.465 259.291 241.108 260.988 241.108 263.634C241.108 266.247 242.465 267.944 244.535 267.944ZM244.569 279.006C239.784 279.006 236.628 277.038 236.086 273.407H241.447C241.752 274.323 242.669 275.104 244.501 275.104C246.842 275.104 247.827 273.882 247.827 271.778V270.048H247.691C246.673 271.202 245.349 272.05 243.245 272.05C239.343 272.05 235.712 269.132 235.712 263.804C235.712 258.714 238.698 255.117 243.008 255.117C245.315 255.117 246.876 256.033 247.894 257.492H247.962V255.626H253.256V271.303C253.256 273.916 252.34 275.816 250.948 277.072C249.421 278.429 247.148 279.006 244.569 279.006ZM256.489 278.735V274.425H258.389C260.018 274.425 260.662 273.78 260.662 272.593C260.662 271.846 260.323 270.828 259.61 268.996L254.487 255.626H260.323L262.665 263.024C263.207 264.72 263.75 267.028 263.75 267.028H263.818C263.818 267.028 264.293 264.72 264.836 263.024L267.11 255.626H272.641L266.635 273.238C265.243 277.31 263.581 278.735 260.086 278.735H256.489Z" fill="#002068"/>
</g>
<path d="M156.097 129.073C160.295 129.073 163.698 125.67 163.698 121.472C163.698 117.273 160.295 113.87 156.097 113.87C151.899 113.87 148.495 117.273 148.495 121.472C148.495 125.67 151.899 129.073 156.097 129.073Z" stroke="white" stroke-width="2.875" stroke-linecap="round" stroke-linejoin="round"/>
<path d="M156.12 129.107C149.91 132.937 145.942 140.055 146.644 148.036C147.483 157.593 155.223 165.355 164.779 166.218C172.323 166.896 179.108 163.412 183.076 157.788" stroke="white" stroke-width="2.875" stroke-linecap="round" stroke-linejoin="round"/>
<path d="M148.507 119.632C139.79 125.796 134.362 136.272 135.305 147.956C136.558 163.401 149.254 175.786 164.71 176.706C178.924 177.557 191.241 168.967 196.002 156.616" stroke="white" stroke-width="2.875" stroke-linecap="round" stroke-linejoin="round"/>
<path d="M151.232 173.464C144.551 174.625 139.468 180.444 139.468 187.459V190.484H195.415V187.459C195.415 180.249 190.033 174.28 183.064 173.372" stroke="white" stroke-width="2.875" stroke-linecap="round" stroke-linejoin="round"/>
<path d="M175.049 156.616H202.798" stroke="white" stroke-width="2.875" stroke-linecap="round" stroke-linejoin="round"/>
<path d="M150.45 116.4L145.689 111.72C144.838 110.88 144.827 109.5 145.666 108.649L154.751 99.4263C155.591 98.5753 156.971 98.5638 157.822 99.4033L184.329 125.485C185.18 126.325 185.192 127.705 184.352 128.556L175.267 137.779C174.428 138.63 173.048 138.641 172.197 137.802L161.49 127.268" stroke="white" stroke-width="2.875" stroke-linecap="round" stroke-linejoin="round"/>
<path d="M153.44 100.036L149.473 96.1376C148.622 95.2981 147.242 95.3096 146.402 96.1606L142.274 100.358C141.434 101.209 141.446 102.589 142.297 103.429L146.264 107.327" stroke="white" stroke-width="2.875" stroke-linecap="round" stroke-linejoin="round"/>
<path d="M176.578 137.169L179.637 140.182C181.65 142.172 184.893 142.137 186.882 140.125C188.872 138.112 188.837 134.869 186.825 132.88L183.766 129.867" stroke="white" stroke-width="2.875" stroke-linecap="round" stroke-linejoin="round"/>
<g clip-path="url(#clip0_477_353)">
<path d="M179 212C217.108 212 248 181.108 248 143C248 104.892 217.108 74 179 74C140.892 74 110 104.892 110 143C110 181.108 140.892 212 179 212Z" fill="url(#paint0_linear_477_353)"/>
<path d="M175.332 103.497C176.804 100.404 181.208 100.392 182.692 103.486C182.945 104.015 183.198 104.544 183.451 105.061C189.937 118.608 196.388 132.167 202.92 145.691C210.671 161.745 202.023 180.076 184.693 184.158C171.744 187.217 157.852 179.294 153.677 166.575C151.343 159.468 151.837 152.614 155.057 145.886C161.773 131.856 168.478 117.826 175.332 103.497Z" stroke="white" stroke-width="2.88" stroke-linecap="round" stroke-linejoin="round"/>
</g>
<defs>
<filter id="filter0_d_477_353" x="0" y="0" width="361" height="357" filterUnits="userSpaceOnUse" color-interpolation-filters="sRGB">
<feFlood flood-opacity="0" result="BackgroundImageFix"/>
<feColorMatrix in="SourceAlpha" type="matrix" values="0 0 0 0 0 0 0 0 0 0 0 0 0 0 0 0 0 0 127 0" result="hardAlpha"/>
<feOffset dx="2" dy="2"/>
<feGaussianBlur stdDeviation="2"/>
<feComposite in2="hardAlpha" operator="out"/>
<feColorMatrix type="matrix" values="0 0 0 0 0 0 0 0 0 0 0 0 0 0 0 0 0 0 0.25 0"/>
<feBlend mode="normal" in2="BackgroundImageFix" result="effect1_dropShadow_477_353"/>
<feBlend mode="normal" in="SourceGraphic" in2="effect1_dropShadow_477_353" result="shape"/>
</filter>
<linearGradient id="paint0_linear_477_353" x1="144.488" y1="202.766" x2="213.512" y2="83.2345" gradientUnits="userSpaceOnUse">
<stop stop-color="#7F2082"/>
<stop offset="0.27" stop-color="#982F7A"/>
<stop offset="0.84" stop-color="#D95566"/>
<stop offset="1" stop-color="#EC6161"/>
</linearGradient>
<clipPath id="clip0_477_353">
<rect width="138" height="138" fill="white" transform="translate(110 74)"/>
</clipPath>
</defs>
</svg>
