<svg width="361" height="357" viewBox="0 0 361 357" fill="none" xmlns="http://www.w3.org/2000/svg">
<g filter="url(#filter0_d_477_429)">
<rect x="2" y="2" width="353" height="349" rx="19.0804" fill="white"/>
<path d="M74.0102 273V248.738H80.0504L87.2443 260.92C87.6176 261.598 88.9071 264.008 88.9071 264.008H88.9749C88.9749 264.008 88.9071 261.089 88.9071 260.241V248.738H94.7776V273H88.7374L81.6114 260.988C81.2042 260.343 79.8808 257.73 79.8808 257.73H79.8129C79.8129 257.73 79.8808 260.852 79.8808 261.7V273H74.0102ZM106.246 273.509C100.511 273.509 96.9819 269.539 96.9819 264.279C96.9819 259.087 100.613 255.117 105.906 255.117C108.384 255.117 110.352 255.931 111.845 257.289C113.915 259.189 114.933 262.209 114.899 265.738H102.411C102.751 268.08 104.04 269.539 106.314 269.539C107.773 269.539 108.723 268.894 109.198 267.808H114.593C114.22 269.369 113.202 270.862 111.675 271.914C110.216 272.932 108.451 273.509 106.246 273.509ZM102.445 262.447H109.3C109.096 260.377 107.807 259.053 106.008 259.053C103.904 259.053 102.819 260.377 102.445 262.447ZM122.723 273.509C118.719 273.509 116.615 270.896 116.615 267.028V255.626H122.112V265.874C122.112 267.774 122.96 268.826 124.725 268.826C126.625 268.826 127.779 267.401 127.779 265.331V255.626H133.31V273H128.017V270.862H127.915C126.659 272.559 125.132 273.509 122.723 273.509ZM135.971 273V255.626H141.264V258.341H141.366C142.588 256.271 144.013 255.355 146.117 255.355C146.626 255.355 146.965 255.388 147.203 255.49V260.241H147.067C143.674 259.766 141.502 261.429 141.502 265.195V273H135.971ZM157.147 273.543C151.582 273.543 147.849 269.573 147.849 264.347C147.849 259.121 151.582 255.151 157.147 255.151C162.746 255.151 166.411 259.121 166.411 264.347C166.411 269.573 162.746 273.543 157.147 273.543ZM157.113 269.607C159.522 269.607 160.812 267.503 160.812 264.347C160.812 261.191 159.522 259.053 157.113 259.053C154.704 259.053 153.448 261.191 153.448 264.347C153.448 267.503 154.704 269.607 157.113 269.607ZM175.678 273.543C170.588 273.543 167.398 271.202 167.229 267.367H172.454C172.658 269.098 173.812 269.946 175.644 269.946C177.307 269.946 178.359 269.335 178.359 268.215C178.359 266.654 176.255 266.485 173.947 266.078C170.927 265.569 167.704 264.754 167.704 260.682C167.704 257.017 171.097 255.117 175.203 255.117C180.123 255.117 182.77 257.255 183.042 260.682H177.952C177.748 259.121 176.696 258.646 175.169 258.646C173.812 258.646 172.76 259.155 172.76 260.241C172.76 261.463 174.728 261.632 176.934 262.039C179.988 262.548 183.585 263.329 183.585 267.774C183.585 271.575 180.225 273.543 175.678 273.543ZM193.995 273.543C188.396 273.543 184.765 269.573 184.765 264.347C184.765 259.121 188.362 255.151 193.859 255.151C198.576 255.151 201.596 257.9 202.105 261.802H196.778C196.438 260.241 195.488 259.223 193.927 259.223C191.552 259.223 190.364 261.191 190.364 264.347C190.364 267.435 191.552 269.403 193.927 269.403C195.658 269.403 196.71 268.385 196.947 266.417H202.241C202.105 270.421 198.915 273.543 193.995 273.543ZM206.786 248.229C208.517 248.229 209.84 249.45 209.84 251.181C209.84 252.911 208.517 254.133 206.786 254.133C205.056 254.133 203.732 252.911 203.732 251.181C203.732 249.45 205.056 248.229 206.786 248.229ZM204.004 273V255.626H209.535V273H204.004ZM220.672 273.509C214.937 273.509 211.408 269.539 211.408 264.279C211.408 259.087 215.039 255.117 220.333 255.117C222.81 255.117 224.778 255.931 226.271 257.289C228.341 259.189 229.359 262.209 229.325 265.738H216.838C217.177 268.08 218.466 269.539 220.74 269.539C222.199 269.539 223.149 268.894 223.624 267.808H229.02C228.647 269.369 227.629 270.862 226.102 271.914C224.642 272.932 222.878 273.509 220.672 273.509ZM216.872 262.447H223.726C223.523 260.377 222.233 259.053 220.435 259.053C218.331 259.053 217.245 260.377 216.872 262.447ZM231.177 273V255.626H236.505V258.001H236.606C237.896 256.135 239.559 255.117 241.968 255.117C245.768 255.117 248.008 257.832 248.008 261.7V273H242.477V262.82C242.477 260.988 241.561 259.732 239.762 259.732C237.93 259.732 236.708 261.259 236.708 263.397V273H231.177ZM258.979 273.543C253.38 273.543 249.749 269.573 249.749 264.347C249.749 259.121 253.346 255.151 258.843 255.151C263.56 255.151 266.58 257.9 267.089 261.802H261.762C261.422 260.241 260.472 259.223 258.911 259.223C256.536 259.223 255.348 261.191 255.348 264.347C255.348 267.435 256.536 269.403 258.911 269.403C260.642 269.403 261.694 268.385 261.931 266.417H267.225C267.089 270.421 263.9 273.543 258.979 273.543ZM277.471 273.509C271.736 273.509 268.207 269.539 268.207 264.279C268.207 259.087 271.838 255.117 277.132 255.117C279.609 255.117 281.577 255.931 283.07 257.289C285.14 259.189 286.158 262.209 286.124 265.738H273.637C273.976 268.08 275.265 269.539 277.539 269.539C278.998 269.539 279.948 268.894 280.423 267.808H285.819C285.445 269.369 284.427 270.862 282.9 271.914C281.441 272.932 279.677 273.509 277.471 273.509ZM273.671 262.447H280.525C280.321 260.377 279.032 259.053 277.234 259.053C275.13 259.053 274.044 260.377 273.671 262.447Z" fill="#002068"/>
</g>
<path d="M156.097 129.073C160.295 129.073 163.698 125.67 163.698 121.472C163.698 117.273 160.295 113.87 156.097 113.87C151.899 113.87 148.495 117.273 148.495 121.472C148.495 125.67 151.899 129.073 156.097 129.073Z" stroke="white" stroke-width="2.875" stroke-linecap="round" stroke-linejoin="round"/>
<path d="M156.12 129.107C149.91 132.937 145.943 140.055 146.644 148.036C147.484 157.593 155.223 165.355 164.78 166.218C172.324 166.896 179.109 163.412 183.076 157.788" stroke="white" stroke-width="2.875" stroke-linecap="round" stroke-linejoin="round"/>
<path d="M148.507 119.632C139.79 125.796 134.362 136.272 135.305 147.956C136.558 163.401 149.254 175.786 164.71 176.706C178.924 177.557 191.241 168.967 196.002 156.616" stroke="white" stroke-width="2.875" stroke-linecap="round" stroke-linejoin="round"/>
<path d="M151.233 173.464C144.551 174.625 139.468 180.444 139.468 187.459V190.484H195.416V187.459C195.416 180.249 190.034 174.28 183.065 173.372" stroke="white" stroke-width="2.875" stroke-linecap="round" stroke-linejoin="round"/>
<path d="M175.049 156.616H202.799" stroke="white" stroke-width="2.875" stroke-linecap="round" stroke-linejoin="round"/>
<path d="M150.45 116.4L145.689 111.72C144.838 110.88 144.827 109.5 145.666 108.649L154.751 99.4263C155.591 98.5753 156.971 98.5638 157.822 99.4033L184.329 125.485C185.18 126.325 185.192 127.705 184.352 128.556L175.267 137.779C174.428 138.63 173.048 138.641 172.197 137.802L161.49 127.268" stroke="white" stroke-width="2.875" stroke-linecap="round" stroke-linejoin="round"/>
<path d="M153.44 100.036L149.473 96.1376C148.622 95.2981 147.242 95.3096 146.402 96.1606L142.274 100.358C141.434 101.209 141.446 102.589 142.297 103.429L146.264 107.327" stroke="white" stroke-width="2.875" stroke-linecap="round" stroke-linejoin="round"/>
<path d="M176.578 137.169L179.637 140.182C181.65 142.172 184.893 142.137 186.882 140.125C188.872 138.112 188.837 134.869 186.825 132.88L183.766 129.867" stroke="white" stroke-width="2.875" stroke-linecap="round" stroke-linejoin="round"/>
<g clip-path="url(#clip0_477_429)">
<path d="M179 212C217.107 212 248 181.108 248 143C248 104.892 217.107 74 179 74C140.892 74 110 104.892 110 143C110 181.108 140.892 212 179 212Z" fill="url(#paint0_linear_477_429)"/>
<path d="M151.638 124.348C151.756 124.351 151.872 124.363 151.988 124.382M151.638 124.348C150.289 124.344 148.968 124.739 147.841 125.482C146.714 126.225 145.831 127.284 145.302 128.526C144.774 129.768 144.623 131.139 144.869 132.466C145.114 133.793 145.746 135.019 146.684 135.989C146.788 136.098 146.867 136.229 146.912 136.373C146.958 136.517 146.97 136.669 146.947 136.818C146.924 136.967 146.868 137.109 146.782 137.233C146.695 137.356 146.582 137.459 146.45 137.531C144.889 138.372 143.561 139.586 142.585 141.067C141.61 142.547 141.018 144.247 140.862 146.013C140.707 147.779 140.992 149.556 141.694 151.185C142.395 152.813 143.49 154.241 144.881 155.341L151.988 124.382M151.638 124.348L151.627 124.692C151.629 124.692 151.631 124.692 151.632 124.692M151.638 124.348L151.638 124.692C151.636 124.692 151.634 124.692 151.632 124.692M151.988 124.382L152.293 124.419L151.988 124.382ZM151.632 124.692C151.733 124.696 151.832 124.706 151.931 124.722L151.939 124.723L151.947 124.724L152.252 124.761L152.252 124.761L152.266 124.762C152.487 124.78 152.709 124.743 152.912 124.654C153.116 124.566 153.294 124.428 153.432 124.254L153.432 124.254L153.434 124.251C153.571 124.074 153.66 123.865 153.695 123.645C153.729 123.424 153.707 123.198 153.631 122.988L153.631 122.988L153.63 122.984C153.202 121.847 152.977 120.644 152.966 119.43M151.632 124.692C150.352 124.69 149.099 125.065 148.031 125.77C146.96 126.476 146.122 127.481 145.62 128.661C145.118 129.841 144.974 131.142 145.208 132.403C145.441 133.664 146.041 134.828 146.932 135.75L146.933 135.751C147.074 135.897 147.179 136.075 147.241 136.269C147.302 136.463 147.318 136.668 147.288 136.87C147.257 137.071 147.181 137.263 147.064 137.43C146.948 137.597 146.795 137.735 146.616 137.833L146.613 137.835C145.102 138.648 143.817 139.824 142.873 141.257C141.929 142.689 141.356 144.334 141.206 146.043C141.055 147.753 141.332 149.472 142.01 151.048C142.689 152.624 143.749 154.007 145.095 155.071L145.097 155.073C145.312 155.247 145.467 155.482 145.541 155.748C145.616 156.013 145.606 156.295 145.513 156.554L145.511 156.559L145.511 156.559C145.246 157.264 145.107 158.01 145.1 158.763M152.966 119.43L145.1 158.761C145.1 158.761 145.1 158.762 145.1 158.763M152.966 119.43C152.97 116.654 154.074 113.993 156.037 112.03C158 110.067 160.661 108.963 163.438 108.96M152.966 119.43L164.765 107.633C164.765 107.985 164.625 108.322 164.377 108.571C164.128 108.82 163.79 108.96 163.438 108.96M152.966 119.43C152.966 119.43 152.966 119.431 152.966 119.432L152.622 119.431L152.966 119.428C152.966 119.429 152.966 119.429 152.966 119.43ZM145.1 158.763C145.103 159.91 145.406 161.036 145.98 162.03C146.554 163.024 147.378 163.85 148.37 164.426M145.1 158.763L148.37 164.426M148.37 164.426C148.521 164.514 148.653 164.63 148.759 164.769C148.865 164.908 148.942 165.066 148.987 165.234C149.032 165.403 149.043 165.579 149.02 165.751C148.997 165.924 148.94 166.091 148.852 166.242C148.765 166.393 148.648 166.525 148.51 166.631C148.371 166.737 148.213 166.814 148.044 166.859L147.956 166.526L148.044 166.859C147.876 166.904 147.7 166.915 147.527 166.892C147.354 166.869 147.188 166.812 147.037 166.724L147.037 166.724C145.643 165.913 144.485 164.752 143.68 163.355C142.874 161.958 142.448 160.375 142.444 158.762L142.444 158.76C142.447 158.011 142.546 157.265 142.738 156.542C141.324 155.249 140.212 153.659 139.484 151.885C138.729 150.044 138.406 148.055 138.541 146.069C138.677 144.084 139.266 142.157 140.265 140.435C141.204 138.816 142.481 137.42 144.008 136.342C142.989 134.835 142.443 133.055 142.444 131.23V131.23C142.447 128.901 143.333 126.66 144.923 124.958C146.42 123.355 148.437 122.343 150.607 122.096C150.412 121.221 150.312 120.328 150.311 119.432L150.311 119.431C150.315 116.116 151.571 112.925 153.828 110.497C156.02 108.139 159 106.669 162.199 106.362C162.388 105.027 162.866 103.748 163.603 102.617C164.391 101.405 165.452 100.396 166.702 99.6698L166.702 99.6697C167.007 99.4929 167.369 99.4444 167.71 99.5349C168.05 99.6253 168.341 99.8473 168.517 100.152L168.221 100.324L168.517 100.152C168.694 100.457 168.743 100.819 168.652 101.16C168.562 101.5 168.34 101.79 168.035 101.967C167.043 102.544 166.219 103.37 165.645 104.364C165.071 105.358 164.768 106.485 164.765 107.632L148.37 164.426ZM163.438 108.96C163.438 108.96 163.438 108.96 163.438 108.96L163.438 108.615V108.96Z" fill="white" stroke="white" stroke-width="0.689266"/>
<mask id="path-13-outside-1_477_429" maskUnits="userSpaceOnUse" x="149.655" y="97.7822" width="71" height="91" fill="black">
<rect fill="white" x="149.655" y="97.7822" width="71" height="91"/>
<path d="M219.483 146.962C219.476 144.88 218.959 142.831 217.976 140.995C216.994 139.158 215.577 137.591 213.849 136.429C214.956 134.922 215.552 133.1 215.55 131.23C215.55 130.969 215.447 130.719 215.262 130.535C215.078 130.351 214.828 130.247 214.567 130.247C214.306 130.247 214.056 130.351 213.872 130.535C213.687 130.719 213.584 130.969 213.584 131.23C213.583 133.007 212.89 134.714 211.654 135.989C211.549 136.098 211.471 136.229 211.426 136.373C211.38 136.517 211.368 136.669 211.391 136.818C211.413 136.967 211.47 137.109 211.556 137.233C211.642 137.356 211.756 137.459 211.888 137.531C213.449 138.371 214.777 139.586 215.752 141.067C216.728 142.547 217.32 144.247 217.475 146.013C217.631 147.779 217.345 149.556 216.644 151.185C215.942 152.813 214.847 154.241 213.457 155.341C213.298 155.47 213.183 155.644 213.128 155.841C213.073 156.037 213.081 156.246 213.149 156.438C213.429 157.181 213.576 157.968 213.584 158.761C213.581 160.586 212.855 162.336 211.565 163.626C210.275 164.916 208.526 165.642 206.701 165.644C206.44 165.644 206.19 165.748 206.006 165.932C205.821 166.117 205.718 166.367 205.718 166.628C205.715 169.495 204.574 172.245 202.546 174.272C200.519 176.3 197.769 177.441 194.902 177.443C194.641 177.443 194.391 177.547 194.206 177.731C194.022 177.916 193.918 178.166 193.918 178.427C193.918 180.252 193.193 182.003 191.903 183.294C190.612 184.584 188.861 185.31 187.036 185.31C185.21 185.31 183.46 184.584 182.169 183.294C180.878 182.003 180.153 180.252 180.153 178.427V107.632C180.153 105.807 180.878 104.056 182.169 102.765C183.46 101.474 185.21 100.749 187.036 100.749C188.861 100.749 190.612 101.474 191.903 102.765C193.193 104.056 193.918 105.807 193.918 107.632C193.918 107.893 194.022 108.143 194.206 108.327C194.391 108.512 194.641 108.615 194.902 108.615C197.769 108.618 200.519 109.759 202.546 111.786C204.574 113.814 205.715 116.563 205.718 119.431C205.707 120.686 205.475 121.93 205.032 123.105C204.976 123.261 204.96 123.428 204.985 123.591C205.011 123.755 205.077 123.909 205.178 124.04C205.283 124.167 205.416 124.268 205.567 124.334C205.717 124.399 205.882 124.428 206.046 124.419L206.351 124.382C206.467 124.363 206.584 124.351 206.701 124.347C207.909 124.35 209.095 124.669 210.141 125.273C211.187 125.877 212.057 126.744 212.664 127.789C212.729 127.901 212.815 127.998 212.917 128.077C213.02 128.155 213.137 128.213 213.262 128.246C213.387 128.279 213.517 128.287 213.645 128.27C213.773 128.253 213.896 128.211 214.008 128.146C214.12 128.081 214.218 127.995 214.296 127.892C214.374 127.79 214.432 127.673 214.465 127.548C214.498 127.423 214.506 127.293 214.489 127.165C214.472 127.037 214.43 126.913 214.365 126.802C213.636 125.548 212.612 124.492 211.381 123.725C210.15 122.958 208.75 122.504 207.304 122.402C207.555 121.432 207.682 120.433 207.684 119.431C207.68 116.204 206.457 113.097 204.26 110.733C202.063 108.369 199.054 106.923 195.835 106.683C195.636 104.785 194.826 103.003 193.528 101.604C192.23 100.204 190.513 99.264 188.635 98.9237C186.757 98.5833 184.819 98.8612 183.112 99.7157C181.406 100.57 180.022 101.955 179.17 103.663C178.439 102.201 177.316 100.971 175.928 100.109C174.539 99.2473 172.938 98.7881 171.303 98.7826C171.043 98.7826 170.793 98.8862 170.608 99.0706C170.424 99.255 170.32 99.5051 170.32 99.7659C170.32 100.027 170.424 100.277 170.608 100.461C170.793 100.646 171.043 100.749 171.303 100.749C173.128 100.751 174.878 101.477 176.168 102.768C177.458 104.058 178.184 105.807 178.186 107.632V178.427C178.186 180.252 177.461 182.003 176.17 183.294C174.88 184.584 173.129 185.31 171.303 185.31C169.478 185.31 167.727 184.584 166.437 183.294C165.146 182.003 164.421 180.252 164.421 178.427C164.421 178.166 164.317 177.916 164.133 177.731C163.948 177.547 163.698 177.443 163.437 177.443C160.57 177.441 157.82 176.3 155.793 174.272C153.765 172.245 152.624 169.495 152.622 166.628C152.622 166.367 152.518 166.117 152.334 165.932C152.149 165.748 151.899 165.644 151.638 165.644C151.378 165.644 151.127 165.748 150.943 165.932C150.759 166.117 150.655 166.367 150.655 166.628C150.659 169.855 151.882 172.962 154.079 175.326C156.276 177.69 159.286 179.136 162.504 179.375C162.703 181.274 163.513 183.056 164.811 184.455C166.109 185.854 167.826 186.795 169.704 187.135C171.582 187.475 173.52 187.197 175.227 186.343C176.933 185.488 178.317 184.104 179.17 182.396C180.022 184.104 181.406 185.488 183.112 186.343C184.819 187.197 186.757 187.475 188.635 187.135C190.513 186.795 192.23 185.854 193.528 184.455C194.826 183.056 195.636 181.274 195.835 179.375C198.893 179.148 201.768 177.831 203.937 175.662C206.105 173.494 207.423 170.619 207.649 167.561C209.819 167.324 211.824 166.295 213.282 164.672C214.74 163.048 215.547 160.944 215.55 158.761C215.548 157.972 215.434 157.186 215.212 156.428C216.552 155.241 217.625 153.784 218.361 152.153C219.097 150.521 219.48 148.752 219.483 146.962Z"/>
</mask>
<path d="M219.483 146.962C219.476 144.88 218.959 142.831 217.976 140.995C216.994 139.158 215.577 137.591 213.849 136.429C214.956 134.922 215.552 133.1 215.55 131.23C215.55 130.969 215.447 130.719 215.262 130.535C215.078 130.351 214.828 130.247 214.567 130.247C214.306 130.247 214.056 130.351 213.872 130.535C213.687 130.719 213.584 130.969 213.584 131.23C213.583 133.007 212.89 134.714 211.654 135.989C211.549 136.098 211.471 136.229 211.426 136.373C211.38 136.517 211.368 136.669 211.391 136.818C211.413 136.967 211.47 137.109 211.556 137.233C211.642 137.356 211.756 137.459 211.888 137.531C213.449 138.371 214.777 139.586 215.752 141.067C216.728 142.547 217.32 144.247 217.475 146.013C217.631 147.779 217.345 149.556 216.644 151.185C215.942 152.813 214.847 154.241 213.457 155.341C213.298 155.47 213.183 155.644 213.128 155.841C213.073 156.037 213.081 156.246 213.149 156.438C213.429 157.181 213.576 157.968 213.584 158.761C213.581 160.586 212.855 162.336 211.565 163.626C210.275 164.916 208.526 165.642 206.701 165.644C206.44 165.644 206.19 165.748 206.006 165.932C205.821 166.117 205.718 166.367 205.718 166.628C205.715 169.495 204.574 172.245 202.546 174.272C200.519 176.3 197.769 177.441 194.902 177.443C194.641 177.443 194.391 177.547 194.206 177.731C194.022 177.916 193.918 178.166 193.918 178.427C193.918 180.252 193.193 182.003 191.903 183.294C190.612 184.584 188.861 185.31 187.036 185.31C185.21 185.31 183.46 184.584 182.169 183.294C180.878 182.003 180.153 180.252 180.153 178.427V107.632C180.153 105.807 180.878 104.056 182.169 102.765C183.46 101.474 185.21 100.749 187.036 100.749C188.861 100.749 190.612 101.474 191.903 102.765C193.193 104.056 193.918 105.807 193.918 107.632C193.918 107.893 194.022 108.143 194.206 108.327C194.391 108.512 194.641 108.615 194.902 108.615C197.769 108.618 200.519 109.759 202.546 111.786C204.574 113.814 205.715 116.563 205.718 119.431C205.707 120.686 205.475 121.93 205.032 123.105C204.976 123.261 204.96 123.428 204.985 123.591C205.011 123.755 205.077 123.909 205.178 124.04C205.283 124.167 205.416 124.268 205.567 124.334C205.717 124.399 205.882 124.428 206.046 124.419L206.351 124.382C206.467 124.363 206.584 124.351 206.701 124.347C207.909 124.35 209.095 124.669 210.141 125.273C211.187 125.877 212.057 126.744 212.664 127.789C212.729 127.901 212.815 127.998 212.917 128.077C213.02 128.155 213.137 128.213 213.262 128.246C213.387 128.279 213.517 128.287 213.645 128.27C213.773 128.253 213.896 128.211 214.008 128.146C214.12 128.081 214.218 127.995 214.296 127.892C214.374 127.79 214.432 127.673 214.465 127.548C214.498 127.423 214.506 127.293 214.489 127.165C214.472 127.037 214.43 126.913 214.365 126.802C213.636 125.548 212.612 124.492 211.381 123.725C210.15 122.958 208.75 122.504 207.304 122.402C207.555 121.432 207.682 120.433 207.684 119.431C207.68 116.204 206.457 113.097 204.26 110.733C202.063 108.369 199.054 106.923 195.835 106.683C195.636 104.785 194.826 103.003 193.528 101.604C192.23 100.204 190.513 99.264 188.635 98.9237C186.757 98.5833 184.819 98.8612 183.112 99.7157C181.406 100.57 180.022 101.955 179.17 103.663C178.439 102.201 177.316 100.971 175.928 100.109C174.539 99.2473 172.938 98.7881 171.303 98.7826C171.043 98.7826 170.793 98.8862 170.608 99.0706C170.424 99.255 170.32 99.5051 170.32 99.7659C170.32 100.027 170.424 100.277 170.608 100.461C170.793 100.646 171.043 100.749 171.303 100.749C173.128 100.751 174.878 101.477 176.168 102.768C177.458 104.058 178.184 105.807 178.186 107.632V178.427C178.186 180.252 177.461 182.003 176.17 183.294C174.88 184.584 173.129 185.31 171.303 185.31C169.478 185.31 167.727 184.584 166.437 183.294C165.146 182.003 164.421 180.252 164.421 178.427C164.421 178.166 164.317 177.916 164.133 177.731C163.948 177.547 163.698 177.443 163.437 177.443C160.57 177.441 157.82 176.3 155.793 174.272C153.765 172.245 152.624 169.495 152.622 166.628C152.622 166.367 152.518 166.117 152.334 165.932C152.149 165.748 151.899 165.644 151.638 165.644C151.378 165.644 151.127 165.748 150.943 165.932C150.759 166.117 150.655 166.367 150.655 166.628C150.659 169.855 151.882 172.962 154.079 175.326C156.276 177.69 159.286 179.136 162.504 179.375C162.703 181.274 163.513 183.056 164.811 184.455C166.109 185.854 167.826 186.795 169.704 187.135C171.582 187.475 173.52 187.197 175.227 186.343C176.933 185.488 178.317 184.104 179.17 182.396C180.022 184.104 181.406 185.488 183.112 186.343C184.819 187.197 186.757 187.475 188.635 187.135C190.513 186.795 192.23 185.854 193.528 184.455C194.826 183.056 195.636 181.274 195.835 179.375C198.893 179.148 201.768 177.831 203.937 175.662C206.105 173.494 207.423 170.619 207.649 167.561C209.819 167.324 211.824 166.295 213.282 164.672C214.74 163.048 215.547 160.944 215.55 158.761C215.548 157.972 215.434 157.186 215.212 156.428C216.552 155.241 217.625 153.784 218.361 152.153C219.097 150.521 219.48 148.752 219.483 146.962Z" fill="white"/>
<path d="M219.483 146.962C219.476 144.88 218.959 142.831 217.976 140.995C216.994 139.158 215.577 137.591 213.849 136.429C214.956 134.922 215.552 133.1 215.55 131.23C215.55 130.969 215.447 130.719 215.262 130.535C215.078 130.351 214.828 130.247 214.567 130.247C214.306 130.247 214.056 130.351 213.872 130.535C213.687 130.719 213.584 130.969 213.584 131.23C213.583 133.007 212.89 134.714 211.654 135.989C211.549 136.098 211.471 136.229 211.426 136.373C211.38 136.517 211.368 136.669 211.391 136.818C211.413 136.967 211.47 137.109 211.556 137.233C211.642 137.356 211.756 137.459 211.888 137.531C213.449 138.371 214.777 139.586 215.752 141.067C216.728 142.547 217.32 144.247 217.475 146.013C217.631 147.779 217.345 149.556 216.644 151.185C215.942 152.813 214.847 154.241 213.457 155.341C213.298 155.47 213.183 155.644 213.128 155.841C213.073 156.037 213.081 156.246 213.149 156.438C213.429 157.181 213.576 157.968 213.584 158.761C213.581 160.586 212.855 162.336 211.565 163.626C210.275 164.916 208.526 165.642 206.701 165.644C206.44 165.644 206.19 165.748 206.006 165.932C205.821 166.117 205.718 166.367 205.718 166.628C205.715 169.495 204.574 172.245 202.546 174.272C200.519 176.3 197.769 177.441 194.902 177.443C194.641 177.443 194.391 177.547 194.206 177.731C194.022 177.916 193.918 178.166 193.918 178.427C193.918 180.252 193.193 182.003 191.903 183.294C190.612 184.584 188.861 185.31 187.036 185.31C185.21 185.31 183.46 184.584 182.169 183.294C180.878 182.003 180.153 180.252 180.153 178.427V107.632C180.153 105.807 180.878 104.056 182.169 102.765C183.46 101.474 185.21 100.749 187.036 100.749C188.861 100.749 190.612 101.474 191.903 102.765C193.193 104.056 193.918 105.807 193.918 107.632C193.918 107.893 194.022 108.143 194.206 108.327C194.391 108.512 194.641 108.615 194.902 108.615C197.769 108.618 200.519 109.759 202.546 111.786C204.574 113.814 205.715 116.563 205.718 119.431C205.707 120.686 205.475 121.93 205.032 123.105C204.976 123.261 204.96 123.428 204.985 123.591C205.011 123.755 205.077 123.909 205.178 124.04C205.283 124.167 205.416 124.268 205.567 124.334C205.717 124.399 205.882 124.428 206.046 124.419L206.351 124.382C206.467 124.363 206.584 124.351 206.701 124.347C207.909 124.35 209.095 124.669 210.141 125.273C211.187 125.877 212.057 126.744 212.664 127.789C212.729 127.901 212.815 127.998 212.917 128.077C213.02 128.155 213.137 128.213 213.262 128.246C213.387 128.279 213.517 128.287 213.645 128.27C213.773 128.253 213.896 128.211 214.008 128.146C214.12 128.081 214.218 127.995 214.296 127.892C214.374 127.79 214.432 127.673 214.465 127.548C214.498 127.423 214.506 127.293 214.489 127.165C214.472 127.037 214.43 126.913 214.365 126.802C213.636 125.548 212.612 124.492 211.381 123.725C210.15 122.958 208.75 122.504 207.304 122.402C207.555 121.432 207.682 120.433 207.684 119.431C207.68 116.204 206.457 113.097 204.26 110.733C202.063 108.369 199.054 106.923 195.835 106.683C195.636 104.785 194.826 103.003 193.528 101.604C192.23 100.204 190.513 99.264 188.635 98.9237C186.757 98.5833 184.819 98.8612 183.112 99.7157C181.406 100.57 180.022 101.955 179.17 103.663C178.439 102.201 177.316 100.971 175.928 100.109C174.539 99.2473 172.938 98.7881 171.303 98.7826C171.043 98.7826 170.793 98.8862 170.608 99.0706C170.424 99.255 170.32 99.5051 170.32 99.7659C170.32 100.027 170.424 100.277 170.608 100.461C170.793 100.646 171.043 100.749 171.303 100.749C173.128 100.751 174.878 101.477 176.168 102.768C177.458 104.058 178.184 105.807 178.186 107.632V178.427C178.186 180.252 177.461 182.003 176.17 183.294C174.88 184.584 173.129 185.31 171.303 185.31C169.478 185.31 167.727 184.584 166.437 183.294C165.146 182.003 164.421 180.252 164.421 178.427C164.421 178.166 164.317 177.916 164.133 177.731C163.948 177.547 163.698 177.443 163.437 177.443C160.57 177.441 157.82 176.3 155.793 174.272C153.765 172.245 152.624 169.495 152.622 166.628C152.622 166.367 152.518 166.117 152.334 165.932C152.149 165.748 151.899 165.644 151.638 165.644C151.378 165.644 151.127 165.748 150.943 165.932C150.759 166.117 150.655 166.367 150.655 166.628C150.659 169.855 151.882 172.962 154.079 175.326C156.276 177.69 159.286 179.136 162.504 179.375C162.703 181.274 163.513 183.056 164.811 184.455C166.109 185.854 167.826 186.795 169.704 187.135C171.582 187.475 173.52 187.197 175.227 186.343C176.933 185.488 178.317 184.104 179.17 182.396C180.022 184.104 181.406 185.488 183.112 186.343C184.819 187.197 186.757 187.475 188.635 187.135C190.513 186.795 192.23 185.854 193.528 184.455C194.826 183.056 195.636 181.274 195.835 179.375C198.893 179.148 201.768 177.831 203.937 175.662C206.105 173.494 207.423 170.619 207.649 167.561C209.819 167.324 211.824 166.295 213.282 164.672C214.74 163.048 215.547 160.944 215.55 158.761C215.548 157.972 215.434 157.186 215.212 156.428C216.552 155.241 217.625 153.784 218.361 152.153C219.097 150.521 219.48 148.752 219.483 146.962Z" stroke="white" stroke-width="1.37853" mask="url(#path-13-outside-1_477_429)"/>
<path d="M191.474 144.035C191.143 144.208 190.845 144.436 190.593 144.708L186.346 140.461L186.346 140.461C185.737 139.855 185.254 139.135 184.925 138.341C184.596 137.548 184.428 136.697 184.431 135.838V135.837L184.431 134.489L184.431 134.488C184.428 133.629 184.596 132.779 184.925 131.985C185.254 131.191 185.737 130.471 186.346 129.865L186.346 129.865L190.593 125.618C190.845 125.891 191.143 126.119 191.474 126.291C191.924 126.526 192.423 126.652 192.931 126.659V126.659H192.936C193.809 126.659 194.647 126.312 195.265 125.694C195.883 125.076 196.23 124.238 196.23 123.364C196.23 122.491 195.883 121.653 195.265 121.035C194.647 120.417 193.809 120.07 192.936 120.07L192.932 120.07C192.166 120.077 191.426 120.355 190.844 120.854C190.29 121.328 189.913 121.973 189.769 122.685L184.469 127.985C184.469 127.986 184.469 127.986 184.469 127.986C183.612 128.838 182.933 129.851 182.47 130.968C182.008 132.084 181.771 133.281 181.775 134.49V135.837C181.772 137.045 182.008 138.242 182.47 139.359C182.933 140.475 183.612 141.489 184.469 142.34C184.469 142.341 184.469 142.341 184.469 142.341L189.769 147.641C189.913 148.353 190.29 148.998 190.844 149.473C191.426 149.971 192.166 150.249 192.932 150.256L192.932 150.256H192.936C193.809 150.256 194.647 149.909 195.265 149.291C195.883 148.673 196.23 147.836 196.23 146.962C196.23 146.088 195.883 145.25 195.265 144.632C194.647 144.014 193.809 143.667 192.936 143.667L192.931 143.667C192.423 143.674 191.924 143.8 191.474 144.035ZM192.936 146.324C193.062 146.324 193.185 146.361 193.29 146.432C193.395 146.502 193.477 146.601 193.526 146.718C193.574 146.835 193.587 146.963 193.562 147.087C193.537 147.211 193.476 147.325 193.387 147.414C193.298 147.503 193.184 147.564 193.06 147.589C192.936 147.614 192.808 147.601 192.691 147.553C192.574 147.504 192.475 147.422 192.405 147.317C192.334 147.212 192.297 147.089 192.297 146.963C192.297 146.793 192.364 146.631 192.484 146.511C192.604 146.391 192.766 146.324 192.936 146.324ZM192.936 122.726C193.062 122.726 193.185 122.763 193.29 122.833C193.395 122.904 193.477 123.003 193.526 123.12C193.574 123.237 193.587 123.365 193.562 123.489C193.537 123.613 193.476 123.727 193.387 123.816C193.298 123.905 193.184 123.966 193.06 123.991C192.936 124.015 192.808 124.003 192.691 123.954C192.574 123.906 192.475 123.824 192.405 123.719C192.334 123.614 192.297 123.491 192.297 123.364C192.297 123.195 192.364 123.033 192.484 122.913C192.604 122.793 192.766 122.726 192.936 122.726Z" fill="white" stroke="white" stroke-width="0.689266"/>
<path d="M204.735 125.97L204.735 125.97C205.609 125.97 206.447 126.317 207.064 126.935C207.682 127.553 208.029 128.391 208.029 129.264C208.029 130.138 207.682 130.976 207.064 131.594C206.447 132.212 205.609 132.559 204.735 132.559H204.73L204.73 132.559C204.327 132.553 203.929 132.472 203.557 132.321L196.994 138.883C196.994 138.883 196.994 138.883 196.994 138.883C196.506 139.373 195.927 139.762 195.288 140.027C194.649 140.291 193.965 140.427 193.273 140.425M204.735 125.97L193.274 140.08M204.735 125.97C203.861 125.971 203.024 126.318 202.406 126.936C201.789 127.553 201.442 128.391 201.441 129.264H201.441L201.441 129.269C201.446 129.672 201.527 130.07 201.679 130.442L204.735 125.97ZM193.273 140.425C193.273 140.425 193.273 140.425 193.273 140.425L193.274 140.08M193.273 140.425H193.274V140.08M193.273 140.425H190.969C190.617 140.425 190.279 140.285 190.03 140.036L190.274 139.792L190.03 140.036C189.781 139.787 189.641 139.449 189.641 139.097C189.641 138.745 189.781 138.407 190.03 138.158C190.279 137.909 190.617 137.769 190.969 137.769H193.274M193.274 140.08H190.969C190.709 140.08 190.458 139.976 190.274 139.792C190.09 139.608 189.986 139.358 189.986 139.097C189.986 138.836 190.09 138.586 190.274 138.402C190.458 138.217 190.709 138.114 190.969 138.114H193.275M193.274 137.769C193.274 137.769 193.274 137.769 193.274 137.769L193.275 138.114M193.274 137.769C193.965 137.766 194.627 137.491 195.116 137.004M193.274 137.769H193.275V138.114M193.275 138.114L195.116 137.004M195.116 137.004L195.116 137.005L195.359 137.248L195.116 137.004C195.116 137.004 195.116 137.004 195.116 137.004ZM204.735 129.903C204.609 129.903 204.485 129.865 204.38 129.795C204.275 129.725 204.193 129.625 204.145 129.509C204.097 129.392 204.084 129.264 204.109 129.14C204.133 129.016 204.194 128.902 204.283 128.813C204.373 128.723 204.487 128.663 204.61 128.638C204.734 128.613 204.863 128.626 204.979 128.674C205.096 128.723 205.196 128.804 205.266 128.909C205.336 129.014 205.374 129.138 205.374 129.264C205.374 129.434 205.306 129.596 205.187 129.716C205.067 129.836 204.904 129.903 204.735 129.903Z" fill="white" stroke="white" stroke-width="0.689266"/>
<path d="M171.304 114.17C170.157 114.168 169.03 113.864 168.035 113.291C167.041 112.717 166.215 111.893 165.639 110.9L171.304 114.17ZM171.304 114.17C171.656 114.17 171.994 114.31 172.242 114.559C172.491 114.808 172.631 115.146 172.631 115.498C172.631 115.85 172.491 116.188 172.242 116.437C171.993 116.686 171.656 116.826 171.303 116.826H171.303C169.69 116.822 168.107 116.397 166.71 115.591C165.313 114.785 164.152 113.628 163.341 112.234L163.341 112.234C163.164 111.929 163.116 111.566 163.206 111.226C163.297 110.886 163.519 110.595 163.823 110.418C164.128 110.241 164.49 110.193 164.831 110.283C164.999 110.328 165.158 110.406 165.296 110.512C165.435 110.617 165.551 110.75 165.639 110.9L171.304 114.17ZM166.882 115.292C168.227 116.068 169.751 116.478 171.303 116.481V114.515C170.096 114.512 168.909 114.193 167.863 113.589C166.817 112.985 165.947 112.118 165.341 111.073C165.276 110.962 165.19 110.864 165.087 110.785C164.984 110.707 164.867 110.65 164.742 110.616C164.49 110.549 164.222 110.585 163.996 110.716C163.771 110.847 163.606 111.062 163.539 111.315C163.472 111.567 163.508 111.835 163.639 112.061C164.419 113.403 165.538 114.517 166.882 115.292Z" fill="white" stroke="white" stroke-width="0.689266"/>
<path d="M204.732 158.123C205.337 158.129 205.932 157.968 206.452 157.658C206.972 157.348 207.397 156.901 207.679 156.366C207.962 155.83 208.091 155.227 208.053 154.623C208.015 154.019 207.812 153.437 207.465 152.941C207.118 152.444 206.641 152.054 206.086 151.811C205.532 151.568 204.921 151.483 204.321 151.564C203.721 151.646 203.155 151.891 202.686 152.273C202.28 152.603 201.96 153.024 201.75 153.501H190.969C190.617 153.501 190.279 153.641 190.03 153.89C189.781 154.139 189.641 154.476 189.641 154.829C189.641 155.181 189.781 155.518 190.03 155.767C190.279 156.017 190.617 156.156 190.969 156.156H201.749C201.985 156.698 202.364 157.167 202.847 157.512C203.397 157.906 204.056 158.119 204.732 158.123ZM204.735 154.19C204.861 154.19 204.985 154.227 205.09 154.298C205.195 154.368 205.277 154.467 205.325 154.584C205.373 154.701 205.386 154.829 205.361 154.953C205.337 155.077 205.276 155.191 205.187 155.28C205.097 155.369 204.983 155.43 204.86 155.455C204.736 155.48 204.607 155.467 204.491 155.419C204.374 155.37 204.274 155.288 204.204 155.183C204.134 155.078 204.096 154.955 204.096 154.829C204.096 154.659 204.164 154.497 204.283 154.377C204.403 154.257 204.566 154.19 204.735 154.19Z" fill="white" stroke="white" stroke-width="0.689266"/>
<path d="M191.474 167.633C191.143 167.806 190.845 168.034 190.593 168.306L186.346 164.059L186.346 164.059C185.737 163.453 185.254 162.733 184.925 161.939C184.596 161.146 184.428 160.295 184.431 159.436V159.435V154.828C184.431 154.476 184.291 154.139 184.042 153.89C183.793 153.64 183.455 153.501 183.103 153.501C182.751 153.501 182.413 153.64 182.164 153.89C181.915 154.139 181.775 154.476 181.775 154.828V159.435C181.772 160.643 182.008 161.84 182.47 162.957C182.933 164.073 183.612 165.086 184.469 165.938C184.469 165.938 184.469 165.939 184.469 165.939L189.769 171.239C189.913 171.951 190.29 172.597 190.844 173.071C191.426 173.569 192.166 173.847 192.932 173.854L192.932 173.854H192.936C193.809 173.854 194.647 173.507 195.265 172.889C195.883 172.272 196.23 171.434 196.23 170.56C196.23 169.686 195.883 168.848 195.265 168.23C194.647 167.613 193.809 167.265 192.936 167.265V167.265L192.931 167.265C192.423 167.272 191.924 167.398 191.474 167.633ZM192.936 169.922C193.062 169.922 193.185 169.959 193.29 170.03L193.482 169.743L193.29 170.03C193.395 170.1 193.477 170.2 193.526 170.316C193.574 170.433 193.587 170.561 193.562 170.685C193.537 170.809 193.476 170.923 193.387 171.012C193.298 171.102 193.184 171.162 193.06 171.187C192.936 171.212 192.808 171.199 192.691 171.151C192.574 171.102 192.475 171.02 192.405 170.915C192.334 170.81 192.297 170.687 192.297 170.561C192.297 170.391 192.364 170.229 192.484 170.109C192.604 169.989 192.766 169.922 192.936 169.922Z" fill="white" stroke="white" stroke-width="0.689266"/>
<path d="M186.018 116.826C186.296 117.458 186.767 117.988 187.366 118.34C188.036 118.733 188.824 118.877 189.59 118.745C190.356 118.614 191.051 118.216 191.552 117.622C192.052 117.027 192.327 116.275 192.327 115.498C192.327 114.721 192.052 113.969 191.552 113.375C191.051 112.781 190.356 112.383 189.59 112.251C188.824 112.12 188.036 112.263 187.366 112.657L187.539 112.951L187.366 112.657C186.767 113.008 186.296 113.538 186.018 114.17H183.103C182.751 114.17 182.413 114.31 182.164 114.559C181.915 114.808 181.775 115.146 181.775 115.498C181.775 115.85 181.915 116.188 182.164 116.437C182.413 116.686 182.751 116.826 183.103 116.826H186.018ZM189.002 114.859C189.129 114.859 189.252 114.897 189.357 114.967C189.462 115.037 189.544 115.137 189.592 115.254L189.911 115.122L189.592 115.254C189.641 115.37 189.653 115.499 189.629 115.623C189.604 115.747 189.543 115.86 189.454 115.95C189.365 116.039 189.251 116.1 189.127 116.124C189.003 116.149 188.875 116.136 188.758 116.088C188.641 116.04 188.542 115.958 188.471 115.853C188.401 115.748 188.364 115.624 188.364 115.498C188.364 115.329 188.431 115.166 188.551 115.047C188.671 114.927 188.833 114.859 189.002 114.859Z" fill="white" stroke="white" stroke-width="0.689266"/>
<path d="M151.639 156.159L151.638 156.159C151.286 156.159 150.948 156.019 150.699 155.77L150.699 155.77C150.45 155.521 150.31 155.183 150.31 154.831C150.31 154.478 150.45 154.141 150.699 153.892M151.639 156.159L150.699 153.892M151.639 156.159C153.911 156.151 156.098 155.302 157.78 153.775C159.392 152.31 160.428 150.322 160.709 148.169C162.863 147.888 164.851 146.852 166.315 145.24C167.842 143.558 168.691 141.371 168.698 139.1V139.098M151.639 156.159L168.698 139.098M150.699 153.892C150.948 153.643 151.286 153.503 151.638 153.503M150.699 153.892L151.542 134.499M168.698 139.098C168.698 138.746 168.558 138.409 168.309 138.16C168.06 137.91 167.723 137.771 167.37 137.771C167.018 137.771 166.681 137.91 166.431 138.16C166.183 138.408 166.043 138.746 166.043 139.098C166.042 140.101 165.81 141.09 165.366 141.988C164.922 142.887 164.278 143.672 163.482 144.282C162.687 144.892 161.761 145.31 160.778 145.506C159.795 145.701 158.78 145.668 157.812 145.408C156.843 145.148 155.948 144.67 155.194 144.009C154.44 143.348 153.848 142.522 153.465 141.596C153.081 140.67 152.915 139.668 152.98 138.668C153.045 137.668 153.339 136.696 153.84 135.827L153.84 135.827M168.698 139.098L153.84 135.827M153.84 135.827L153.846 135.816M153.84 135.827L153.846 135.816M153.846 135.816C154.007 135.512 154.043 135.158 153.948 134.828C153.853 134.498 153.634 134.218 153.337 134.046L153.164 134.344M153.846 135.816L153.164 134.344M153.164 134.344L153.337 134.046C153.039 133.874 152.687 133.824 152.353 133.907C152.02 133.989 151.731 134.198 151.548 134.488L151.548 134.488M153.164 134.344L151.548 134.488M151.548 134.488L151.542 134.499M151.548 134.488L151.542 134.499M151.542 134.499C150.782 135.812 150.36 137.294 150.315 138.81C150.269 140.326 150.6 141.83 151.28 143.187C151.959 144.543 152.964 145.71 154.206 146.582C155.35 147.385 156.661 147.915 158.039 148.133C157.78 149.575 157.042 150.891 155.939 151.866C154.752 152.916 153.223 153.498 151.638 153.503M151.638 153.503C151.638 153.503 151.638 153.503 151.638 153.503V153.847M151.638 153.503C151.638 153.503 151.637 153.503 151.637 153.503L151.638 153.847M151.638 153.847C151.378 153.847 151.127 153.951 150.943 154.135M151.638 153.847L150.943 154.135M150.943 154.135C150.759 154.32 150.655 154.57 150.655 154.831C150.655 155.091 150.759 155.342 150.943 155.526V154.135Z" fill="white" stroke="white" stroke-width="0.689266"/>
<path d="M171.304 128.625C171.656 128.625 171.994 128.485 172.243 128.236C172.492 127.987 172.632 127.649 172.632 127.297C172.632 126.945 172.492 126.607 172.243 126.358C171.994 126.109 171.656 125.969 171.304 125.969L171.301 125.969L171.304 128.28M171.304 128.625V128.28M171.304 128.625C171.304 128.625 171.304 128.625 171.304 128.625L171.304 128.28M171.304 128.625C169.571 128.627 167.909 129.317 166.683 130.543C165.457 131.768 164.768 133.43 164.766 135.164M171.304 128.28C169.479 128.283 167.73 129.009 166.44 130.299C165.149 131.589 164.423 133.338 164.421 135.163M164.766 135.164C164.766 135.163 164.766 135.163 164.766 135.163H164.421M164.766 135.164C164.766 135.516 164.626 135.853 164.377 136.102C164.128 136.351 163.79 136.491 163.438 136.491C163.086 136.491 162.748 136.351 162.499 136.102C162.25 135.853 162.11 135.515 162.11 135.163V135.163C162.113 133.618 162.505 132.099 163.251 130.747C163.946 129.488 164.926 128.411 166.111 127.602M164.766 135.164L164.421 135.163M164.421 135.163L166.111 127.602M166.111 127.602C166.151 127.71 166.205 127.813 166.274 127.908C165.147 128.684 164.215 129.713 163.553 130.913C162.835 132.215 162.457 133.677 162.455 135.163L166.111 127.602ZM166.111 127.602C166.081 127.519 166.059 127.434 166.046 127.346L166.043 127.322L166.043 127.298C166.041 125.564 165.351 123.902 164.125 122.676C162.9 121.451 161.238 120.761 159.504 120.759L159.505 118.448C159.244 118.448 158.994 118.551 158.809 118.736C158.625 118.92 158.521 119.17 158.521 119.431C158.521 119.692 158.625 119.942 158.809 120.126C158.994 120.311 159.244 120.414 159.505 120.414C161.329 120.417 163.079 121.142 164.369 122.433C165.659 123.723 166.385 125.472 166.388 127.297C166.403 127.402 166.435 127.502 166.484 127.595L166.377 127.426C166.287 127.483 166.199 127.542 166.111 127.602ZM168.65 126.752C168.536 126.789 168.423 126.829 168.311 126.871C168.305 126.751 168.297 126.631 168.287 126.512C168.398 126.472 168.51 126.434 168.622 126.398C168.634 126.516 168.643 126.633 168.65 126.752Z" fill="white" stroke="white" stroke-width="0.689266"/>
<path d="M168.037 149.747L168.037 149.746L168.025 149.74C167.721 149.579 167.367 149.543 167.037 149.638C166.707 149.733 166.426 149.952 166.255 150.25C166.083 150.547 166.033 150.899 166.115 151.233C166.198 151.566 166.406 151.855 166.697 152.038L166.697 152.038L166.708 152.044C167.702 152.619 168.526 153.445 169.1 154.439C169.673 155.433 169.975 156.56 169.975 157.708C169.975 158.856 169.673 159.983 169.1 160.977C168.527 161.97 167.704 162.795 166.712 163.369C166.558 163.453 166.421 163.566 166.311 163.703C166.199 163.842 166.116 164.001 166.067 164.173L166.398 164.267L166.067 164.173C166.018 164.344 166.004 164.523 166.026 164.7C166.048 164.877 166.105 165.047 166.194 165.201C166.283 165.355 166.403 165.49 166.545 165.597C166.687 165.704 166.849 165.782 167.022 165.825C167.195 165.868 167.374 165.876 167.55 165.849C167.724 165.821 167.891 165.76 168.041 165.667C169.434 164.858 170.591 163.698 171.397 162.303C172.203 160.906 172.628 159.322 172.631 157.709L172.631 157.708C172.628 156.095 172.203 154.511 171.397 153.114C170.59 151.717 169.432 150.556 168.037 149.747Z" fill="white" stroke="white" stroke-width="0.689266"/>
<path d="M168.699 174.493L168.699 174.493C168.696 172.056 167.727 169.719 166.003 167.995C164.279 166.272 161.943 165.302 159.505 165.299H159.505C159.153 165.299 158.815 165.439 158.566 165.688C158.317 165.937 158.177 166.275 158.177 166.627C158.177 166.979 158.317 167.317 158.566 167.566C158.815 167.815 159.152 167.955 159.504 167.955C161.238 167.957 162.9 168.647 164.125 169.873C165.351 171.098 166.041 172.76 166.043 174.494C166.043 174.846 166.183 175.183 166.432 175.432C166.681 175.681 167.019 175.821 167.371 175.821C167.723 175.821 168.061 175.681 168.31 175.432C168.559 175.183 168.699 174.846 168.699 174.493Z" fill="white" stroke="white" stroke-width="0.689266"/>
</g>
<defs>
<filter id="filter0_d_477_429" x="0" y="0" width="361" height="357" filterUnits="userSpaceOnUse" color-interpolation-filters="sRGB">
<feFlood flood-opacity="0" result="BackgroundImageFix"/>
<feColorMatrix in="SourceAlpha" type="matrix" values="0 0 0 0 0 0 0 0 0 0 0 0 0 0 0 0 0 0 127 0" result="hardAlpha"/>
<feOffset dx="2" dy="2"/>
<feGaussianBlur stdDeviation="2"/>
<feComposite in2="hardAlpha" operator="out"/>
<feColorMatrix type="matrix" values="0 0 0 0 0 0 0 0 0 0 0 0 0 0 0 0 0 0 0.25 0"/>
<feBlend mode="normal" in2="BackgroundImageFix" result="effect1_dropShadow_477_429"/>
<feBlend mode="normal" in="SourceGraphic" in2="effect1_dropShadow_477_429" result="shape"/>
</filter>
<linearGradient id="paint0_linear_477_429" x1="144.488" y1="202.766" x2="213.511" y2="83.2345" gradientUnits="userSpaceOnUse">
<stop stop-color="#7F2082"/>
<stop offset="0.27" stop-color="#982F7A"/>
<stop offset="0.84" stop-color="#D95566"/>
<stop offset="1" stop-color="#EC6161"/>
</linearGradient>
<clipPath id="clip0_477_429">
<rect width="138" height="138" fill="white" transform="translate(110 74)"/>
</clipPath>
</defs>
</svg>
