<svg width="361" height="357" viewBox="0 0 361 357" fill="none" xmlns="http://www.w3.org/2000/svg">
<g filter="url(#filter0_d_49_1835)">
<rect x="2" y="2" width="353" height="349" rx="19.0804" fill="white"/>
<path d="M76.8001 273.543C69.674 273.543 64.8215 268.215 64.8215 260.954C64.8215 253.726 69.5383 248.262 76.7662 248.262C79.5826 248.262 81.958 249.077 83.6886 250.4C85.7925 251.995 87.0141 254.37 87.3195 257.085H81.3132C81.0078 254.913 79.3112 253.251 76.7322 253.251C72.7959 253.251 70.9296 256.542 70.9296 260.954C70.9296 265.399 73.1692 268.623 76.7662 268.623C79.4469 268.623 81.2114 266.926 81.4829 264.584H87.4892C87.3195 266.994 86.2336 269.199 84.5709 270.794C82.7045 272.593 80.2274 273.543 76.8001 273.543ZM98.1414 273.543C92.5763 273.543 88.8436 269.573 88.8436 264.347C88.8436 259.121 92.5763 255.151 98.1414 255.151C103.74 255.151 107.405 259.121 107.405 264.347C107.405 269.573 103.74 273.543 98.1414 273.543ZM98.1074 269.607C100.517 269.607 101.806 267.503 101.806 264.347C101.806 261.191 100.517 259.053 98.1074 259.053C95.6982 259.053 94.4426 261.191 94.4426 264.347C94.4426 267.503 95.6982 269.607 98.1074 269.607ZM109.275 273V255.626H114.569V258.103H114.67C115.756 256.305 117.419 255.117 119.93 255.117C122.204 255.117 123.934 256.305 124.817 258.171H124.884C126.242 256.067 128.108 255.117 130.348 255.117C134.284 255.117 136.252 257.798 136.252 261.7V273H130.721V262.684C130.721 260.818 129.941 259.732 128.278 259.732C126.513 259.732 125.529 261.191 125.529 263.261V273H119.998V262.684C119.998 260.818 119.218 259.732 117.555 259.732C115.824 259.732 114.806 261.191 114.806 263.261V273H109.275ZM144.74 273.509C140.736 273.509 138.632 270.896 138.632 267.028V255.626H144.13V265.874C144.13 267.774 144.978 268.826 146.742 268.826C148.643 268.826 149.796 267.401 149.796 265.331V255.626H155.328V273H150.034V270.862H149.932C148.677 272.559 147.15 273.509 144.74 273.509ZM157.988 273V255.626H163.316V258.001H163.418C164.707 256.135 166.37 255.117 168.779 255.117C172.58 255.117 174.819 257.832 174.819 261.7V273H169.288V262.82C169.288 260.988 168.372 259.732 166.573 259.732C164.741 259.732 163.519 261.259 163.519 263.397V273H157.988ZM180.124 248.229C181.854 248.229 183.178 249.45 183.178 251.181C183.178 252.911 181.854 254.133 180.124 254.133C178.393 254.133 177.07 252.911 177.07 251.181C177.07 249.45 178.393 248.229 180.124 248.229ZM177.341 273V255.626H182.872V273H177.341ZM193.976 273.543C188.377 273.543 184.746 269.573 184.746 264.347C184.746 259.121 188.343 255.151 193.84 255.151C198.557 255.151 201.577 257.9 202.086 261.802H196.758C196.419 260.241 195.469 259.223 193.908 259.223C191.532 259.223 190.345 261.191 190.345 264.347C190.345 267.435 191.532 269.403 193.908 269.403C195.638 269.403 196.69 268.385 196.928 266.417H202.221C202.086 270.421 198.896 273.543 193.976 273.543ZM211.204 269.912C213.274 269.912 214.699 268.657 214.699 266.79V264.72C213.987 265.093 212.969 265.365 211.849 265.636C209.711 266.111 208.829 266.654 208.829 267.978C208.829 269.369 209.847 269.912 211.204 269.912ZM209.439 273.441C205.978 273.441 203.501 271.575 203.501 268.148C203.501 264.313 206.555 263.159 210.152 262.684C213.41 262.277 214.563 261.938 214.563 260.75C214.563 259.63 213.851 258.884 212.188 258.884C210.424 258.884 209.541 259.664 209.372 261.123H204.282C204.417 257.9 206.894 255.151 212.154 255.151C214.767 255.151 216.532 255.626 217.787 256.576C219.28 257.662 219.993 259.359 219.993 261.53V270.285C219.993 271.677 220.129 272.457 220.604 272.762V273H215.242C214.971 272.627 214.801 271.948 214.665 271.066H214.597C213.579 272.525 212.052 273.441 209.439 273.441ZM222.165 273V268.894L229.054 261.463C229.495 261.021 230.547 259.936 230.547 259.936V259.834C230.547 259.834 228.952 259.868 228.409 259.868H222.979V255.66H237.232V259.698L230.648 266.858C230.139 267.367 228.884 268.657 228.884 268.657V268.758C228.884 268.758 230.682 268.724 231.463 268.724H237.741V273H222.165ZM242.589 248.229C244.32 248.229 245.643 249.45 245.643 251.181C245.643 252.911 244.32 254.133 242.589 254.133C240.858 254.133 239.535 252.911 239.535 251.181C239.535 249.45 240.858 248.229 242.589 248.229ZM239.807 273V255.626H245.338V273H239.807ZM256.509 273.543C250.944 273.543 247.211 269.573 247.211 264.347C247.211 259.121 250.944 255.151 256.509 255.151C262.108 255.151 265.773 259.121 265.773 264.347C265.773 269.573 262.108 273.543 256.509 273.543ZM256.475 269.607C258.884 269.607 260.174 267.503 260.174 264.347C260.174 261.191 258.884 259.053 256.475 259.053C254.066 259.053 252.81 261.191 252.81 264.347C252.81 267.503 254.066 269.607 256.475 269.607ZM267.643 273V255.626H272.97V258.001H273.072C274.362 256.135 276.024 255.117 278.434 255.117C282.234 255.117 284.474 257.832 284.474 261.7V273H278.943V262.82C278.943 260.988 278.026 259.732 276.228 259.732C274.395 259.732 273.174 261.259 273.174 263.397V273H267.643ZM289.778 248.229C291.509 248.229 292.832 249.45 292.832 251.181C292.832 252.911 291.509 254.133 289.778 254.133C288.047 254.133 286.724 252.911 286.724 251.181C286.724 249.45 288.047 248.229 289.778 248.229ZM286.995 273V255.626H292.527V273H286.995Z" fill="#002068"/>
<path d="M179 212C217.108 212 248 181.108 248 143C248 104.892 217.108 74 179 74C140.892 74 110 104.892 110 143C110 181.108 140.892 212 179 212Z" fill="url(#paint0_linear_49_1835)"/>
<path d="M155.367 155.547H133.575C128.135 155.547 123.731 151.142 123.731 145.703V136.882C123.731 131.443 128.135 127.038 133.575 127.038H155.367V155.547Z" stroke="white" stroke-width="2.875" stroke-linecap="round" stroke-linejoin="round"/>
<path d="M134.805 178.466V155.673" stroke="white" stroke-width="2.875" stroke-linecap="round" stroke-linejoin="round"/>
<path d="M148.41 155.673V178.466" stroke="white" stroke-width="2.875" stroke-linecap="round" stroke-linejoin="round"/>
<path d="M155.54 127.038C159.841 127.038 164.062 125.922 167.788 123.795L195.56 108.005C198.78 106.453 202.518 108.81 202.518 112.387V170.186C202.518 173.762 198.78 176.108 195.56 174.567L167.788 158.778C164.05 156.65 159.83 155.535 155.54 155.535" stroke="white" stroke-width="2.875" stroke-linecap="round" stroke-linejoin="round"/>
<path d="M228.278 121.104C228.416 121.288 241.733 139.677 228.221 161.503" stroke="white" stroke-width="2.875" stroke-linecap="round" stroke-linejoin="round"/>
<path d="M220.136 128.671C220.481 129.142 228.508 140.32 220.078 153.925" stroke="white" stroke-width="2.875" stroke-linecap="round" stroke-linejoin="round"/>
<path d="M203.461 128.717C209.441 129.786 213.983 135.007 213.983 141.298C213.983 147.588 209.337 152.936 203.242 153.913" stroke="white" stroke-width="2.875" stroke-linecap="round" stroke-linejoin="round"/>
</g>
<defs>
<filter id="filter0_d_49_1835" x="0" y="0" width="361" height="357" filterUnits="userSpaceOnUse" color-interpolation-filters="sRGB">
<feFlood flood-opacity="0" result="BackgroundImageFix"/>
<feColorMatrix in="SourceAlpha" type="matrix" values="0 0 0 0 0 0 0 0 0 0 0 0 0 0 0 0 0 0 127 0" result="hardAlpha"/>
<feOffset dx="2" dy="2"/>
<feGaussianBlur stdDeviation="2"/>
<feComposite in2="hardAlpha" operator="out"/>
<feColorMatrix type="matrix" values="0 0 0 0 0 0 0 0 0 0 0 0 0 0 0 0 0 0 0.25 0"/>
<feBlend mode="normal" in2="BackgroundImageFix" result="effect1_dropShadow_49_1835"/>
<feBlend mode="normal" in="SourceGraphic" in2="effect1_dropShadow_49_1835" result="shape"/>
</filter>
<linearGradient id="paint0_linear_49_1835" x1="144.488" y1="202.766" x2="213.512" y2="83.2345" gradientUnits="userSpaceOnUse">
<stop stop-color="#0460A9"/>
<stop offset="1" stop-color="#50E2D0"/>
</linearGradient>
</defs>
</svg>
