<svg width="58" height="66" viewBox="0 0 58 66" fill="none" xmlns="http://www.w3.org/2000/svg">
<path d="M4.52949 61V50.83H0.785492V48.13H11.4955V50.83H7.71549V61H4.52949ZM14.8397 61.27C11.7977 61.27 9.9257 59.164 9.9257 56.374C9.9257 53.62 11.8517 51.514 14.6597 51.514C15.9737 51.514 17.0177 51.946 17.8097 52.666C18.9077 53.674 19.4477 55.276 19.4297 57.148H12.8057C12.9857 58.39 13.6697 59.164 14.8757 59.164C15.6497 59.164 16.1537 58.822 16.4057 58.246H19.2677C19.0697 59.074 18.5297 59.866 17.7197 60.424C16.9457 60.964 16.0097 61.27 14.8397 61.27ZM12.8237 55.402H16.4597C16.3517 54.304 15.6677 53.602 14.7137 53.602C13.5977 53.602 13.0217 54.304 12.8237 55.402ZM20.412 61V51.784H23.238V53.044H23.292C23.976 52.054 24.858 51.514 26.136 51.514C28.152 51.514 29.34 52.954 29.34 55.006V61H26.406V55.6C26.406 54.628 25.92 53.962 24.966 53.962C23.994 53.962 23.346 54.772 23.346 55.906V61H20.412ZM35.0516 58.966C36.2756 58.966 36.9956 57.904 36.9956 56.392C36.9956 54.844 36.3656 53.728 35.0876 53.728C33.9176 53.728 33.2336 54.808 33.2336 56.356C33.2336 57.958 33.9176 58.966 35.0516 58.966ZM34.2956 61.288C31.9376 61.288 30.2636 59.47 30.2636 56.392C30.2636 53.512 31.9196 51.514 34.2956 51.514C35.5916 51.514 36.3296 52.054 36.8696 52.828H36.9236V48.13H39.8576V61H37.0496V59.758H37.0136C36.4556 60.712 35.5016 61.288 34.2956 61.288ZM45.7596 61.27C42.7176 61.27 40.8456 59.164 40.8456 56.374C40.8456 53.62 42.7716 51.514 45.5796 51.514C46.8936 51.514 47.9376 51.946 48.7296 52.666C49.8276 53.674 50.3676 55.276 50.3496 57.148H43.7256C43.9056 58.39 44.5896 59.164 45.7956 59.164C46.5696 59.164 47.0736 58.822 47.3256 58.246H50.1876C49.9896 59.074 49.4496 59.866 48.6396 60.424C47.8656 60.964 46.9296 61.27 45.7596 61.27ZM43.7436 55.402H47.3796C47.2716 54.304 46.5876 53.602 45.6336 53.602C44.5176 53.602 43.9416 54.304 43.7436 55.402ZM51.3319 61V51.784H54.1399V53.224H54.1939C54.8419 52.126 55.5979 51.64 56.7139 51.64C56.9839 51.64 57.1639 51.658 57.2899 51.712V54.232H57.2179C55.4179 53.98 54.2659 54.862 54.2659 56.86V61H51.3319Z" fill="white"/>
<path d="M23.9992 1H34.1376C35.0411 1 35.778 1.73316 35.778 2.64036V5.38417C35.778 5.63596 35.5743 5.84332 35.3188 5.84332H22.818C22.5662 5.84332 22.3589 5.63967 22.3589 5.38417V2.64036C22.3589 1.73687 23.0921 1 23.9992 1Z" stroke="white" stroke-width="0.925712" stroke-linecap="round" stroke-linejoin="round"/>
<path d="M23.9475 6.18384V7.55019C23.9475 7.85382 23.7401 8.11672 23.4439 8.19078C21.4666 8.69066 20.0002 10.4791 20.0002 12.6157V30.8744C20.0002 32.0482 20.9519 32.9999 22.1257 32.9999H36.0151C37.1889 32.9999 38.1405 32.0482 38.1405 30.8744V12.6157C38.1405 10.4828 36.6742 8.69437 34.6968 8.19078C34.4006 8.11672 34.1933 7.85382 34.1933 7.55019V6.18384" stroke="white" stroke-width="0.925712" stroke-linecap="round" stroke-linejoin="round"/>
<path d="M20.0002 13.8525H37.7702" stroke="white" stroke-width="0.925712" stroke-linecap="round" stroke-linejoin="round"/>
<path d="M20.0002 26.4534H37.7702" stroke="white" stroke-width="0.925712" stroke-linecap="round" stroke-linejoin="round"/>
</svg>
