<svg width="24" height="30" viewBox="0 0 24 30" fill="none" xmlns="http://www.w3.org/2000/svg">
<path fill-rule="evenodd" clip-rule="evenodd" d="M19.4225 8.64089V18.6656C20.0084 19.0215 20.6407 19.2943 21.3015 19.4765C22.064 19.6834 22.8514 19.7843 23.6414 19.7761C23.6873 19.776 23.7328 19.7848 23.7753 19.8022C23.8178 19.8197 23.8564 19.8453 23.889 19.8776C23.9216 19.9099 23.9475 19.9484 23.9652 19.9907C23.983 20.0331 23.9922 20.0785 23.9924 20.1244V22.9758C24.059 24.014 23.6902 25.1164 22.8862 26.2829C21.8706 27.6572 20.6577 28.8739 19.2867 29.8938C19.224 29.9431 19.1464 29.9695 19.0667 29.9688C18.987 29.9681 18.9099 29.9402 18.8481 29.8898C17.6129 28.958 16.4989 27.8754 15.5323 26.6672H1.05622C0.915018 26.6665 0.775468 26.6368 0.6462 26.58C0.516932 26.5232 0.400695 26.4404 0.304679 26.3369C0.109069 26.1299 6.0529e-05 25.8558 0 25.571V2.74211C0.000128085 2.4573 0.109127 2.18331 0.304679 1.97625C0.400724 1.87278 0.516974 1.7901 0.64624 1.73335C0.775507 1.67659 0.915042 1.64695 1.05622 1.64626H1.95727V1.09684C1.95691 0.812257 2.06531 0.538289 2.26028 0.330985C2.26786 0.322901 2.27586 0.315231 2.28426 0.308009C2.37956 0.211211 2.49304 0.134177 2.61817 0.0813227C2.74331 0.028468 2.87765 0.000832475 3.01349 4.25145e-07H13.3196C13.3683 -7.53606e-05 13.4164 0.00998175 13.4609 0.0295311C13.5055 0.0490805 13.5455 0.0776935 13.5783 0.113547L18.1022 4.19924L18.5058 3.49997C18.7293 3.11416 19.0967 2.83274 19.5274 2.71744C19.9582 2.60215 20.417 2.66239 20.8034 2.88496C21.189 3.10865 21.4702 3.47606 21.5855 3.9067C21.7008 4.33734 21.6407 4.79611 21.4184 5.18253L19.4205 8.64022L19.4225 8.64089ZM19.5707 5.7193L15.161 13.3572L15.7081 13.6732L20.1178 6.03497L19.5707 5.7193ZM14.5553 13.0076L18.9653 5.36967L18.4182 5.05367L14.0082 12.6916L14.5553 13.0076ZM18.7679 4.44797L20.4677 5.42961L20.8124 4.83224C20.9412 4.60646 20.9757 4.33893 20.9083 4.08787C20.8409 3.83681 20.677 3.62252 20.4524 3.49165C20.2265 3.36311 19.9589 3.32888 19.7079 3.3964C19.4568 3.46391 19.2425 3.62772 19.1115 3.85227L18.7672 4.44864L18.7679 4.44797ZM15.3282 14.2613L13.6889 13.315L13.4342 15.6502L15.3282 14.263V14.2613ZM17.7446 4.81892L13.6709 1.1398V5.19452H17.5282L17.7453 4.81858L17.7446 4.81892ZM17.1219 5.89711H13.3196C13.2264 5.89711 13.1371 5.8601 13.0712 5.79422C13.0053 5.72834 12.9683 5.63899 12.9683 5.54582V0.702593H3.01349C2.92722 0.703034 2.8445 0.736936 2.78273 0.797159L2.77074 0.810479C2.69863 0.888312 2.65897 0.990745 2.65986 1.09684V23.9244C2.65851 24.0304 2.6977 24.1328 2.76941 24.2108C2.80059 24.2445 2.83833 24.2714 2.8803 24.29C2.92228 24.3085 2.9676 24.3183 3.01349 24.3187H14.2983C14.1748 23.8821 14.1249 23.4281 14.1504 22.9751V21.3511H5.80521C5.71204 21.3511 5.62269 21.3141 5.55681 21.2483C5.49093 21.1824 5.45391 21.093 5.45391 20.9998C5.45391 20.9067 5.49093 20.8173 5.55681 20.7514C5.62269 20.6856 5.71204 20.6486 5.80521 20.6486H14.1487V20.1251C14.1488 20.032 14.1859 19.9427 14.2518 19.8769C14.3176 19.8111 14.4069 19.7741 14.5 19.7741C14.5107 19.7741 14.5213 19.7741 14.5317 19.7741C15.3116 19.7795 16.0886 19.6787 16.8412 19.4745C17.502 19.2923 18.1344 19.0194 18.7203 18.6636V9.85627L15.9678 14.6249C15.9427 14.6683 15.9087 14.7059 15.8679 14.7351L13.2067 16.6824C13.152 16.7225 13.0868 16.7459 13.019 16.7496C12.9513 16.7534 12.8839 16.7374 12.8251 16.7035C12.7663 16.6697 12.7185 16.6195 12.6877 16.5591C12.6568 16.4986 12.6442 16.4306 12.6513 16.3631L12.9257 13.8464H5.80521C5.75819 13.8478 5.71136 13.8398 5.66749 13.8228C5.62362 13.8058 5.58362 13.7802 5.54985 13.7475C5.51607 13.7147 5.48922 13.6755 5.47088 13.6322C5.45255 13.5889 5.4431 13.5423 5.4431 13.4953C5.4431 13.4482 5.45255 13.4017 5.47088 13.3583C5.48922 13.315 5.51607 13.2758 5.54985 13.2431C5.58362 13.2103 5.62362 13.1847 5.66749 13.1677C5.71136 13.1507 5.75819 13.1427 5.80521 13.1441H13.0023L13.0093 13.0795C13.0148 13.0278 13.0317 12.978 13.0589 12.9337L14.6978 10.0957H13.1918C13.1447 10.0971 13.0979 10.0891 13.054 10.0721C13.0102 10.0551 12.9702 10.0295 12.9364 9.99675C12.9026 9.964 12.8758 9.92481 12.8574 9.88148C12.8391 9.83816 12.8296 9.7916 12.8296 9.74455C12.8296 9.69751 12.8391 9.65095 12.8574 9.60763C12.8758 9.5643 12.9026 9.5251 12.9364 9.49236C12.9702 9.45961 13.0102 9.43398 13.054 9.41698C13.0979 9.39999 13.1447 9.39198 13.1918 9.39342H15.1034L17.1219 5.89711ZM18.1022 24.1612L18.8681 24.6037C18.908 24.6266 18.952 24.6415 18.9976 24.6474C19.0432 24.6533 19.0895 24.6501 19.1339 24.6381C19.1783 24.6261 19.2199 24.6054 19.2562 24.5773C19.2926 24.5491 19.3231 24.5141 19.3459 24.4742L20.1694 23.0477C20.2156 22.9673 20.2279 22.8718 20.2037 22.7823C20.1795 22.6928 20.1208 22.6165 20.0404 22.5704C19.96 22.5242 19.8645 22.5118 19.775 22.536C19.6855 22.5602 19.6092 22.619 19.563 22.6994L18.9147 23.8225L18.4509 23.5561C18.4111 23.5333 18.3671 23.5184 18.3216 23.5125C18.276 23.5066 18.2298 23.5097 18.1854 23.5217C18.0959 23.5459 18.0196 23.6046 17.9734 23.685C17.9271 23.7654 17.9147 23.8609 17.9389 23.9504C17.9631 24.04 18.0218 24.1163 18.1022 24.1625V24.1612ZM19.0716 21.0445C18.483 21.0444 17.9127 21.2484 17.4577 21.6216C17.0028 21.9949 16.6913 22.5144 16.5764 23.0916C16.4616 23.6688 16.5504 24.268 16.8278 24.787C17.1052 25.3061 17.5539 25.7129 18.0977 25.9381C18.6414 26.1633 19.2463 26.1931 19.8095 26.0222C20.3727 25.8514 20.8592 25.4906 21.1862 25.0013C21.5131 24.5119 21.6603 23.9244 21.6025 23.3387C21.5448 22.753 21.2858 22.2055 20.8697 21.7893C20.6338 21.5529 20.3535 21.3654 20.0449 21.2375C19.7363 21.1097 19.4056 21.0441 19.0716 21.0445ZM20.3735 22.2862C20.0722 21.9849 19.6759 21.7975 19.2519 21.7558C18.8279 21.7141 18.4026 21.8206 18.0484 22.0573C17.6942 22.2941 17.433 22.6463 17.3094 23.0539C17.1858 23.4616 17.2073 23.8996 17.3704 24.2931C17.5335 24.6867 17.8279 25.0116 18.2037 25.2124C18.5794 25.4132 19.0131 25.4774 19.431 25.3943C19.8488 25.3111 20.2249 25.0857 20.4951 24.7563C20.7653 24.427 20.913 24.0141 20.9129 23.5881C20.9132 23.3463 20.8657 23.1067 20.7732 22.8833C20.6806 22.6599 20.5448 22.4569 20.3735 22.2862ZM15.0458 25.9649C14.8559 25.6636 14.6889 25.3484 14.5463 25.0219H3.01349C2.87231 25.0212 2.73278 24.9916 2.60351 24.9349C2.47424 24.8781 2.35799 24.7954 2.26195 24.692C2.06628 24.485 1.95726 24.2109 1.95727 23.9261V2.34819H1.05622C1.01036 2.34856 0.965056 2.3583 0.923087 2.37679C0.881118 2.39528 0.843367 2.42215 0.812143 2.45574C0.740431 2.53373 0.70124 2.63617 0.702592 2.74211V25.5697C0.701172 25.6756 0.740373 25.7781 0.812143 25.8561C0.843301 25.8898 0.881032 25.9167 0.923011 25.9353C0.964989 25.9538 1.01032 25.9636 1.05622 25.9639L15.0458 25.9649ZM15.83 25.8844C16.7484 27.1283 17.8399 28.2344 19.0716 29.1692C20.3026 28.234 21.3936 27.1277 22.3115 25.8837C23.0218 24.8521 23.3494 23.8969 23.2941 23.0181C23.2924 23.0039 23.2915 22.9897 23.2914 22.9754V20.4707C22.5557 20.4523 21.8248 20.3452 21.1147 20.1517C20.3965 19.9537 19.709 19.6578 19.0716 19.2723C18.4341 19.6577 17.7467 19.9536 17.0287 20.1517C16.3187 20.3452 15.588 20.4523 14.8523 20.4707V22.9758C14.8523 22.9834 14.8523 22.9914 14.8523 22.9991C14.79 23.8837 15.1158 24.8455 15.83 25.8844ZM15.5736 16.8968H9.45902C9.36585 16.8968 9.2765 16.9339 9.21062 16.9997C9.14474 17.0656 9.10773 17.155 9.10773 17.2481C9.10773 17.3413 9.14474 17.4307 9.21062 17.4965C9.2765 17.5624 9.36585 17.5994 9.45902 17.5994H15.5749C15.6681 17.5994 15.7574 17.5624 15.8233 17.4965C15.8892 17.4307 15.9262 17.3413 15.9262 17.2481C15.9262 17.155 15.8892 17.0656 15.8233 16.9997C15.7574 16.9339 15.6681 16.8968 15.5749 16.8968H15.5736ZM7.98758 16.8968H5.80521C5.71204 16.8968 5.62269 16.9339 5.55681 16.9997C5.49093 17.0656 5.45391 17.155 5.45391 17.2481C5.45391 17.3413 5.49093 17.4307 5.55681 17.4965C5.62269 17.5624 5.71204 17.5994 5.80521 17.5994H7.98891C8.08208 17.5994 8.17143 17.5624 8.23731 17.4965C8.30319 17.4307 8.3402 17.3413 8.3402 17.2481C8.3402 17.155 8.30319 17.0656 8.23731 16.9997C8.17143 16.9339 8.08208 16.8968 7.98891 16.8968H7.98758ZM11.4679 9.39342H5.80521C5.75819 9.39198 5.71136 9.39999 5.66749 9.41698C5.62362 9.43398 5.58362 9.45961 5.54985 9.49236C5.51607 9.5251 5.48922 9.5643 5.47088 9.60763C5.45255 9.65095 5.4431 9.69751 5.4431 9.74455C5.4431 9.7916 5.45255 9.83816 5.47088 9.88148C5.48922 9.92481 5.51607 9.964 5.54985 9.99675C5.58362 10.0295 5.62362 10.0551 5.66749 10.0721C5.71136 10.0891 5.75819 10.0971 5.80521 10.0957H11.4679C11.5149 10.0971 11.5618 10.0891 11.6056 10.0721C11.6495 10.0551 11.6895 10.0295 11.7233 9.99675C11.757 9.964 11.7839 9.92481 11.8022 9.88148C11.8206 9.83816 11.83 9.7916 11.83 9.74455C11.83 9.69751 11.8206 9.65095 11.8022 9.60763C11.7839 9.5643 11.757 9.5251 11.7233 9.49236C11.6895 9.45961 11.6495 9.43398 11.6056 9.41698C11.5618 9.39999 11.5149 9.39198 11.4679 9.39342ZM11.4679 5.19485H5.80721C5.76019 5.19341 5.71335 5.20142 5.66949 5.21841C5.62562 5.2354 5.58562 5.26104 5.55184 5.29379C5.51807 5.32653 5.49122 5.36573 5.47288 5.40905C5.45455 5.45238 5.4451 5.49894 5.4451 5.54598C5.4451 5.59303 5.45455 5.63959 5.47288 5.68291C5.49122 5.72623 5.51807 5.76543 5.55184 5.79818C5.58562 5.83093 5.62562 5.85656 5.66949 5.87356C5.71335 5.89055 5.76019 5.89856 5.80721 5.89711H11.4679C11.5149 5.89856 11.5618 5.89055 11.6056 5.87356C11.6495 5.85656 11.6895 5.83093 11.7233 5.79818C11.757 5.76543 11.7839 5.72623 11.8022 5.68291C11.8206 5.63959 11.83 5.59303 11.83 5.54598C11.83 5.49894 11.8206 5.45238 11.8022 5.40905C11.7839 5.36573 11.757 5.32653 11.7233 5.29379C11.6895 5.26104 11.6495 5.2354 11.6056 5.21841C11.5618 5.20142 11.5149 5.19341 11.4679 5.19485Z" fill="#002068"/>
</svg>
