<svg width="361" height="357" viewBox="0 0 361 357" fill="none" xmlns="http://www.w3.org/2000/svg">
<g filter="url(#filter0_d_503_381)">
<rect x="2" y="2" width="353" height="349" rx="19.0804" fill="white"/>
<path d="M119.809 264.313H125.509L123.677 258.443C123.27 257.187 122.727 255.015 122.727 255.015H122.659C122.659 255.015 122.082 257.187 121.675 258.443L119.809 264.313ZM110.986 273L119.707 248.738H125.883L134.638 273H128.326L126.901 268.623H118.417L117.026 273H110.986ZM136.343 273V248.738H146.693C153.412 248.738 157.925 253.59 157.925 261.021C157.925 265.297 156.432 268.724 153.717 270.794C151.817 272.22 149.374 273 146.32 273H136.343ZM142.35 267.944H145.879C149.815 267.944 151.851 265.467 151.851 261.021C151.851 256.61 149.713 253.76 145.946 253.76H142.35V267.944ZM165.871 264.313H171.572L169.739 258.443C169.332 257.187 168.789 255.015 168.789 255.015H168.721C168.721 255.015 168.144 257.187 167.737 258.443L165.871 264.313ZM157.048 273L165.769 248.738H171.945L180.7 273H174.388L172.963 268.623H164.479L163.088 273H157.048ZM191.876 273.543C184.749 273.543 179.897 268.215 179.897 260.954C179.897 253.726 184.614 248.262 191.842 248.262C194.658 248.262 197.033 249.077 198.764 250.4C200.868 251.995 202.09 254.37 202.395 257.085H196.389C196.083 254.913 194.387 253.251 191.808 253.251C187.871 253.251 186.005 256.542 186.005 260.954C186.005 265.399 188.245 268.623 191.842 268.623C194.522 268.623 196.287 266.926 196.558 264.584H202.565C202.395 266.994 201.309 269.199 199.646 270.794C197.78 272.593 195.303 273.543 191.876 273.543ZM210.972 264.313H216.673L214.84 258.443C214.433 257.187 213.89 255.015 213.89 255.015H213.822C213.822 255.015 213.245 257.187 212.838 258.443L210.972 264.313ZM202.149 273L210.87 248.738H217.046L225.801 273H219.489L218.064 268.623H209.581L208.189 273H202.149ZM227.507 273V248.738H238.433C241.385 248.738 243.557 249.552 245.05 250.977C246.611 252.436 247.493 254.506 247.493 256.949C247.493 261.598 244.27 264.89 239.282 264.89H233.615V273H227.507ZM233.615 260.139H238.06C240.232 260.139 241.453 258.85 241.453 256.915C241.453 254.981 240.198 253.794 238.06 253.794H233.615V260.139Z" fill="#002068"/>
</g>
<path d="M126.097 129.073C130.295 129.073 133.699 125.67 133.699 121.472C133.699 117.273 130.295 113.87 126.097 113.87C121.899 113.87 118.496 117.273 118.496 121.472C118.496 125.67 121.899 129.073 126.097 129.073Z" stroke="white" stroke-width="2.875" stroke-linecap="round" stroke-linejoin="round"/>
<path d="M126.12 129.107C119.91 132.937 115.943 140.055 116.644 148.036C117.484 157.593 125.223 165.355 134.78 166.218C142.324 166.896 149.109 163.412 153.076 157.788" stroke="white" stroke-width="2.875" stroke-linecap="round" stroke-linejoin="round"/>
<path d="M118.507 119.632C109.79 125.796 104.362 136.272 105.305 147.956C106.559 163.401 119.255 175.786 134.711 176.706C148.925 177.557 161.241 168.967 166.002 156.616" stroke="white" stroke-width="2.875" stroke-linecap="round" stroke-linejoin="round"/>
<path d="M121.233 173.464C114.551 174.625 109.468 180.444 109.468 187.459V190.484H165.416V187.459C165.416 180.249 160.034 174.28 153.065 173.372" stroke="white" stroke-width="2.875" stroke-linecap="round" stroke-linejoin="round"/>
<path d="M145.049 156.616H172.799" stroke="white" stroke-width="2.875" stroke-linecap="round" stroke-linejoin="round"/>
<path d="M120.451 116.4L115.69 111.72C114.839 110.88 114.827 109.5 115.667 108.649L124.752 99.4263C125.591 98.5753 126.971 98.5638 127.822 99.4033L154.33 125.485C155.181 126.325 155.192 127.705 154.353 128.556L145.268 137.779C144.428 138.63 143.048 138.641 142.197 137.802L131.491 127.268" stroke="white" stroke-width="2.875" stroke-linecap="round" stroke-linejoin="round"/>
<path d="M123.441 100.036L119.473 96.1376C118.622 95.2981 117.242 95.3096 116.403 96.1606L112.274 100.358C111.435 101.209 111.446 102.589 112.297 103.429L116.265 107.327" stroke="white" stroke-width="2.875" stroke-linecap="round" stroke-linejoin="round"/>
<path d="M146.579 137.169L149.638 140.182C151.65 142.172 154.893 142.137 156.883 140.125C158.872 138.112 158.838 134.869 156.825 132.88L153.766 129.867" stroke="white" stroke-width="2.875" stroke-linecap="round" stroke-linejoin="round"/>
<g clip-path="url(#clip0_503_381)">
<path d="M179 212C217.108 212 248 181.108 248 143C248 104.892 217.108 74 179 74C140.892 74 110 104.892 110 143C110 181.108 140.892 212 179 212Z" fill="url(#paint0_linear_503_381)"/>
<path d="M166.097 129.073C170.295 129.073 173.698 125.67 173.698 121.472C173.698 117.273 170.295 113.87 166.097 113.87C161.898 113.87 158.495 117.273 158.495 121.472C158.495 125.67 161.898 129.073 166.097 129.073Z" stroke="white" stroke-width="2.875" stroke-linecap="round" stroke-linejoin="round"/>
<path d="M166.12 129.107C159.91 132.937 155.942 140.055 156.644 148.036C157.483 157.593 165.223 165.355 174.779 166.218C182.323 166.896 189.108 163.412 193.076 157.788" stroke="white" stroke-width="2.875" stroke-linecap="round" stroke-linejoin="round"/>
<path d="M158.507 119.632C149.79 125.796 144.362 136.272 145.305 147.956C146.558 163.401 159.254 175.786 174.71 176.706C188.924 177.557 201.241 168.967 206.002 156.616" stroke="white" stroke-width="2.875" stroke-linecap="round" stroke-linejoin="round"/>
<path d="M161.233 173.464C154.551 174.625 149.468 180.444 149.468 187.459V190.484H205.416V187.459C205.416 180.249 200.034 174.28 193.065 173.372" stroke="white" stroke-width="2.875" stroke-linecap="round" stroke-linejoin="round"/>
<path d="M185.049 156.616H212.799" stroke="white" stroke-width="2.875" stroke-linecap="round" stroke-linejoin="round"/>
<path d="M160.45 116.4L155.689 111.72C154.838 110.88 154.827 109.5 155.666 108.649L164.751 99.4263C165.591 98.5753 166.971 98.5638 167.822 99.4033L194.329 125.485C195.18 126.325 195.192 127.705 194.352 128.556L185.267 137.779C184.428 138.63 183.048 138.641 182.197 137.802L171.49 127.268" stroke="white" stroke-width="2.875" stroke-linecap="round" stroke-linejoin="round"/>
<path d="M163.44 100.036L159.473 96.1376C158.622 95.2981 157.242 95.3096 156.402 96.1606L152.274 100.358C151.434 101.209 151.446 102.589 152.297 103.429L156.264 107.327" stroke="white" stroke-width="2.875" stroke-linecap="round" stroke-linejoin="round"/>
<path d="M186.578 137.169L189.637 140.182C191.65 142.172 194.893 142.137 196.882 140.125C198.872 138.112 198.837 134.869 196.825 132.88L193.766 129.867" stroke="white" stroke-width="2.875" stroke-linecap="round" stroke-linejoin="round"/>
</g>
<defs>
<filter id="filter0_d_503_381" x="0" y="0" width="361" height="357" filterUnits="userSpaceOnUse" color-interpolation-filters="sRGB">
<feFlood flood-opacity="0" result="BackgroundImageFix"/>
<feColorMatrix in="SourceAlpha" type="matrix" values="0 0 0 0 0 0 0 0 0 0 0 0 0 0 0 0 0 0 127 0" result="hardAlpha"/>
<feOffset dx="2" dy="2"/>
<feGaussianBlur stdDeviation="2"/>
<feComposite in2="hardAlpha" operator="out"/>
<feColorMatrix type="matrix" values="0 0 0 0 0 0 0 0 0 0 0 0 0 0 0 0 0 0 0.25 0"/>
<feBlend mode="normal" in2="BackgroundImageFix" result="effect1_dropShadow_503_381"/>
<feBlend mode="normal" in="SourceGraphic" in2="effect1_dropShadow_503_381" result="shape"/>
</filter>
<linearGradient id="paint0_linear_503_381" x1="144.488" y1="202.766" x2="213.512" y2="83.2345" gradientUnits="userSpaceOnUse">
<stop stop-color="#7F2082"/>
<stop offset="0.27" stop-color="#982F7A"/>
<stop offset="0.84" stop-color="#D95566"/>
<stop offset="1" stop-color="#EC6161"/>
</linearGradient>
<clipPath id="clip0_503_381">
<rect width="138" height="138" fill="white" transform="translate(110 74)"/>
</clipPath>
</defs>
</svg>
