<svg width="361" height="357" viewBox="0 0 361 357" fill="none" xmlns="http://www.w3.org/2000/svg">
<g filter="url(#filter0_d_49_1834)">
<rect x="2" y="2" width="353" height="349" rx="19.0804" fill="white"/>
<path d="M88.8367 273V248.738H94.8429V257.526L103.191 248.738H110.317L101.019 258.476L110.86 273H103.869L96.8789 262.515L94.8429 264.652V273H88.8367ZM114.941 248.229C116.671 248.229 117.995 249.45 117.995 251.181C117.995 252.911 116.671 254.133 114.941 254.133C113.21 254.133 111.887 252.911 111.887 251.181C111.887 249.45 113.21 248.229 114.941 248.229ZM112.158 273V255.626H117.689V273H112.158ZM127.232 273.204C124.008 273.204 121.701 272.152 121.701 268.419V259.087H119.393V255.626H121.701V250.129H127.096V255.626H130.252V259.087H127.096V267.231C127.096 268.589 127.843 268.928 129.03 268.928C129.505 268.928 130.048 268.894 130.252 268.894V272.932C129.777 273.068 128.725 273.204 127.232 273.204ZM146.603 269.267C148.707 269.267 149.996 267.469 149.996 264.517C149.996 261.53 148.877 259.562 146.501 259.562C144.092 259.562 142.87 261.7 142.87 264.517C142.87 267.333 144.228 269.267 146.603 269.267ZM137.509 278.735V255.626H142.802V257.73H142.904C144.092 256.169 145.789 255.117 148.164 255.117C152.779 255.117 155.595 259.087 155.595 264.313C155.595 269.946 152.575 273.543 148.028 273.543C145.789 273.543 144.194 272.661 143.108 271.202H143.04V278.735H137.509ZM157.458 273V255.626H162.752V258.341H162.853C164.075 256.271 165.5 255.355 167.604 255.355C168.113 255.355 168.452 255.388 168.69 255.49V260.241H168.554C165.161 259.766 162.989 261.429 162.989 265.195V273H157.458ZM178.634 273.543C173.069 273.543 169.336 269.573 169.336 264.347C169.336 259.121 173.069 255.151 178.634 255.151C184.233 255.151 187.898 259.121 187.898 264.347C187.898 269.573 184.233 273.543 178.634 273.543ZM178.6 269.607C181.009 269.607 182.299 267.503 182.299 264.347C182.299 261.191 181.009 259.053 178.6 259.053C176.191 259.053 174.935 261.191 174.935 264.347C174.935 267.503 176.191 269.607 178.6 269.607ZM198.014 269.166C200.321 269.166 201.678 267.163 201.678 264.313C201.678 261.395 200.491 259.291 198.082 259.291C195.876 259.291 194.586 261.327 194.586 264.245C194.586 267.265 195.876 269.166 198.014 269.166ZM196.588 273.543C192.143 273.543 188.987 270.116 188.987 264.313C188.987 258.884 192.109 255.117 196.588 255.117C199.032 255.117 200.423 256.135 201.441 257.594H201.543V248.738H207.074V273H201.78V270.659H201.712C200.66 272.457 198.862 273.543 196.588 273.543ZM218.234 273.543C212.669 273.543 208.937 269.573 208.937 264.347C208.937 259.121 212.669 255.151 218.234 255.151C223.833 255.151 227.498 259.121 227.498 264.347C227.498 269.573 223.833 273.543 218.234 273.543ZM218.2 269.607C220.61 269.607 221.899 267.503 221.899 264.347C221.899 261.191 220.61 259.053 218.2 259.053C215.791 259.053 214.536 261.191 214.536 264.347C214.536 267.503 215.791 269.607 218.2 269.607ZM235.925 273.204C232.701 273.204 230.394 272.152 230.394 268.419V259.087H228.086V255.626H230.394V250.129H235.789V255.626H238.945V259.087H235.789V267.231C235.789 268.589 236.536 268.928 237.724 268.928C238.199 268.928 238.742 268.894 238.945 268.894V272.932C238.47 273.068 237.418 273.204 235.925 273.204ZM247.656 273.204C244.432 273.204 242.125 272.152 242.125 268.419V259.087H239.817V255.626H242.125V250.129H247.52V255.626H250.676V259.087H247.52V267.231C247.52 268.589 248.267 268.928 249.455 268.928C249.93 268.928 250.473 268.894 250.676 268.894V272.932C250.201 273.068 249.149 273.204 247.656 273.204ZM261.016 273.543C255.451 273.543 251.718 269.573 251.718 264.347C251.718 259.121 255.451 255.151 261.016 255.151C266.615 255.151 270.28 259.121 270.28 264.347C270.28 269.573 266.615 273.543 261.016 273.543ZM260.982 269.607C263.391 269.607 264.681 267.503 264.681 264.347C264.681 261.191 263.391 259.053 260.982 259.053C258.573 259.053 257.317 261.191 257.317 264.347C257.317 267.503 258.573 269.607 260.982 269.607Z" fill="#002068"/>
<path d="M180 212C218.108 212 249 181.108 249 143C249 104.892 218.108 74 180 74C141.892 74 111 104.892 111 143C111 181.108 141.892 212 180 212Z" fill="url(#paint0_linear_49_1834)"/>
<path d="M212.492 119.075H196.421V113.113C196.421 110.574 194.364 108.517 191.825 108.517H167.719C165.179 108.517 163.122 110.574 163.122 113.113V119.075H147.052C142.937 119.075 139.595 122.418 139.595 126.532V169.585C139.595 173.7 142.937 177.042 147.052 177.042H212.508C216.622 177.042 219.964 173.7 219.964 169.585V126.532C219.948 122.418 216.606 119.075 212.492 119.075ZM166.353 113.113C166.353 112.358 166.963 111.731 167.735 111.731H191.825C192.58 111.731 193.207 112.341 193.207 113.113V119.075H166.353V113.113ZM216.734 169.585C216.734 171.916 214.838 173.828 212.492 173.828H147.052C144.705 173.812 142.809 171.916 142.809 169.585V126.532C142.809 124.202 144.705 122.289 147.052 122.289H164.745H194.814H212.508C214.838 122.289 216.75 124.186 216.75 126.532V169.585H216.734Z" fill="white"/>
<path d="M188.19 146.442H181.376V139.628C181.376 138.744 180.653 138.021 179.769 138.021C178.885 138.021 178.162 138.744 178.162 139.628V146.442H171.348C170.464 146.442 169.741 147.165 169.741 148.049C169.741 148.933 170.464 149.656 171.348 149.656H178.162V156.47C178.162 157.354 178.885 158.078 179.769 158.078C180.653 158.078 181.376 157.354 181.376 156.47V149.656H188.19C189.074 149.656 189.797 148.933 189.797 148.049C189.797 147.165 189.074 146.442 188.19 146.442Z" fill="white"/>
<path d="M179.766 130.341C169.995 130.341 162.056 138.296 162.056 148.051C162.056 157.805 169.995 165.777 179.766 165.777C189.537 165.777 197.476 157.822 197.476 148.067C197.476 138.312 189.537 130.341 179.766 130.341ZM179.766 162.562C171.763 162.562 165.27 156.054 165.27 148.067C165.27 140.079 171.779 133.571 179.766 133.571C187.769 133.571 194.262 140.079 194.262 148.067C194.262 156.054 187.769 162.562 179.766 162.562Z" fill="white"/>
</g>
<defs>
<filter id="filter0_d_49_1834" x="0" y="0" width="361" height="357" filterUnits="userSpaceOnUse" color-interpolation-filters="sRGB">
<feFlood flood-opacity="0" result="BackgroundImageFix"/>
<feColorMatrix in="SourceAlpha" type="matrix" values="0 0 0 0 0 0 0 0 0 0 0 0 0 0 0 0 0 0 127 0" result="hardAlpha"/>
<feOffset dx="2" dy="2"/>
<feGaussianBlur stdDeviation="2"/>
<feComposite in2="hardAlpha" operator="out"/>
<feColorMatrix type="matrix" values="0 0 0 0 0 0 0 0 0 0 0 0 0 0 0 0 0 0 0.25 0"/>
<feBlend mode="normal" in2="BackgroundImageFix" result="effect1_dropShadow_49_1834"/>
<feBlend mode="normal" in="SourceGraphic" in2="effect1_dropShadow_49_1834" result="shape"/>
</filter>
<linearGradient id="paint0_linear_49_1834" x1="145.488" y1="202.766" x2="214.512" y2="83.2345" gradientUnits="userSpaceOnUse">
<stop stop-color="#0460A9"/>
<stop offset="1" stop-color="#50E2D0"/>
</linearGradient>
</defs>
</svg>
