<svg width="361" height="357" viewBox="0 0 361 357" fill="none" xmlns="http://www.w3.org/2000/svg">
<g filter="url(#filter0_d_477_410)">
<rect x="2" y="2" width="353" height="349" rx="19.0804" fill="white"/>
<path d="M101.893 273V248.738H120.285V253.692H107.899V258.035H118.521V262.718H107.899V267.91H120.489V273H101.893ZM130.094 273.543C125.003 273.543 121.814 271.202 121.644 267.367H126.87C127.073 269.098 128.227 269.946 130.06 269.946C131.722 269.946 132.774 269.335 132.774 268.215C132.774 266.654 130.67 266.485 128.363 266.078C125.343 265.569 122.119 264.754 122.119 260.682C122.119 257.017 125.512 255.117 129.618 255.117C134.539 255.117 137.186 257.255 137.457 260.682H132.367C132.163 259.121 131.112 258.646 129.585 258.646C128.227 258.646 127.175 259.155 127.175 260.241C127.175 261.463 129.143 261.632 131.349 262.039C134.403 262.548 138 263.329 138 267.774C138 271.575 134.641 273.543 130.094 273.543ZM147.359 273.543C142.269 273.543 139.079 271.202 138.909 267.367H144.135C144.338 269.098 145.492 269.946 147.325 269.946C148.987 269.946 150.039 269.335 150.039 268.215C150.039 266.654 147.935 266.485 145.628 266.078C142.608 265.569 139.384 264.754 139.384 260.682C139.384 257.017 142.778 255.117 146.883 255.117C151.804 255.117 154.451 257.255 154.722 260.682H149.632C149.428 259.121 148.377 258.646 146.85 258.646C145.492 258.646 144.44 259.155 144.44 260.241C144.44 261.463 146.408 261.632 148.614 262.039C151.668 262.548 155.265 263.329 155.265 267.774C155.265 271.575 151.906 273.543 147.359 273.543ZM165.709 273.509C159.975 273.509 156.446 269.539 156.446 264.279C156.446 259.087 160.076 255.117 165.37 255.117C167.847 255.117 169.815 255.931 171.308 257.289C173.378 259.189 174.396 262.209 174.363 265.738H161.875C162.214 268.08 163.504 269.539 165.777 269.539C167.236 269.539 168.187 268.894 168.662 267.808H174.057C173.684 269.369 172.666 270.862 171.139 271.914C169.68 272.932 167.915 273.509 165.709 273.509ZM161.909 262.447H168.763C168.56 260.377 167.27 259.053 165.472 259.053C163.368 259.053 162.282 260.377 161.909 262.447ZM176.214 273V255.626H181.542V258.001H181.644C182.933 256.135 184.596 255.117 187.005 255.117C190.806 255.117 193.045 257.832 193.045 261.7V273H187.514V262.82C187.514 260.988 186.598 259.732 184.799 259.732C182.967 259.732 181.745 261.259 181.745 263.397V273H176.214ZM202.124 273.204C198.9 273.204 196.593 272.152 196.593 268.419V259.087H194.285V255.626H196.593V250.129H201.988V255.626H205.144V259.087H201.988V267.231C201.988 268.589 202.735 268.928 203.923 268.928C204.398 268.928 204.941 268.894 205.144 268.894V272.932C204.669 273.068 203.617 273.204 202.124 273.204ZM209.915 248.229C211.645 248.229 212.969 249.45 212.969 251.181C212.969 252.911 211.645 254.133 209.915 254.133C208.184 254.133 206.861 252.911 206.861 251.181C206.861 249.45 208.184 248.229 209.915 248.229ZM207.132 273V255.626H212.663V273H207.132ZM222.206 269.912C224.276 269.912 225.701 268.657 225.701 266.79V264.72C224.988 265.093 223.97 265.365 222.851 265.636C220.713 266.111 219.831 266.654 219.831 267.978C219.831 269.369 220.849 269.912 222.206 269.912ZM220.441 273.441C216.98 273.441 214.503 271.575 214.503 268.148C214.503 264.313 217.557 263.159 221.154 262.684C224.412 262.277 225.565 261.938 225.565 260.75C225.565 259.63 224.853 258.884 223.19 258.884C221.425 258.884 220.543 259.664 220.373 261.123H215.283C215.419 257.9 217.896 255.151 223.156 255.151C225.769 255.151 227.533 255.626 228.789 256.576C230.282 257.662 230.995 259.359 230.995 261.53V270.285C230.995 271.677 231.13 272.457 231.605 272.762V273H226.244C225.973 272.627 225.803 271.948 225.667 271.066H225.599C224.581 272.525 223.054 273.441 220.441 273.441ZM233.71 273V248.738H239.309V273H233.71ZM249.391 273.543C244.301 273.543 241.111 271.202 240.942 267.367H246.167C246.371 269.098 247.525 269.946 249.357 269.946C251.02 269.946 252.072 269.335 252.072 268.215C252.072 266.654 249.968 266.485 247.661 266.078C244.64 265.569 241.417 264.754 241.417 260.682C241.417 257.017 244.81 255.117 248.916 255.117C253.836 255.117 256.483 257.255 256.755 260.682H251.665C251.461 259.121 250.409 258.646 248.882 258.646C247.525 258.646 246.473 259.155 246.473 260.241C246.473 261.463 248.441 261.632 250.647 262.039C253.701 262.548 257.298 263.329 257.298 267.774C257.298 271.575 253.938 273.543 249.391 273.543Z" fill="#002068"/>
</g>
<path d="M156.097 129.073C160.295 129.073 163.698 125.67 163.698 121.472C163.698 117.273 160.295 113.87 156.097 113.87C151.899 113.87 148.495 117.273 148.495 121.472C148.495 125.67 151.899 129.073 156.097 129.073Z" stroke="white" stroke-width="2.875" stroke-linecap="round" stroke-linejoin="round"/>
<path d="M156.12 129.107C149.91 132.937 145.943 140.055 146.644 148.036C147.484 157.593 155.223 165.355 164.78 166.218C172.324 166.896 179.109 163.412 183.076 157.788" stroke="white" stroke-width="2.875" stroke-linecap="round" stroke-linejoin="round"/>
<path d="M148.507 119.632C139.79 125.796 134.362 136.272 135.305 147.956C136.558 163.401 149.254 175.786 164.71 176.706C178.924 177.557 191.241 168.967 196.002 156.616" stroke="white" stroke-width="2.875" stroke-linecap="round" stroke-linejoin="round"/>
<path d="M151.233 173.464C144.551 174.625 139.468 180.444 139.468 187.459V190.484H195.416V187.459C195.416 180.249 190.034 174.28 183.065 173.372" stroke="white" stroke-width="2.875" stroke-linecap="round" stroke-linejoin="round"/>
<path d="M175.049 156.616H202.799" stroke="white" stroke-width="2.875" stroke-linecap="round" stroke-linejoin="round"/>
<path d="M150.45 116.4L145.689 111.72C144.838 110.88 144.827 109.5 145.666 108.649L154.751 99.4263C155.591 98.5753 156.971 98.5638 157.822 99.4033L184.329 125.485C185.18 126.325 185.192 127.705 184.352 128.556L175.267 137.779C174.428 138.63 173.048 138.641 172.197 137.802L161.49 127.268" stroke="white" stroke-width="2.875" stroke-linecap="round" stroke-linejoin="round"/>
<path d="M153.44 100.036L149.473 96.1376C148.622 95.2981 147.242 95.3096 146.402 96.1606L142.274 100.358C141.434 101.209 141.446 102.589 142.297 103.429L146.264 107.327" stroke="white" stroke-width="2.875" stroke-linecap="round" stroke-linejoin="round"/>
<path d="M176.578 137.169L179.637 140.182C181.65 142.172 184.893 142.137 186.882 140.125C188.872 138.112 188.837 134.869 186.825 132.88L183.766 129.867" stroke="white" stroke-width="2.875" stroke-linecap="round" stroke-linejoin="round"/>
<g clip-path="url(#clip0_477_410)">
<path d="M179 212C217.108 212 248 181.108 248 143C248 104.892 217.108 74 179 74C140.892 74 110 104.892 110 143C110 181.108 140.892 212 179 212Z" fill="url(#paint0_linear_477_410)"/>
<path d="M203.826 105.572H154.182C152.324 105.574 150.543 106.312 149.229 107.626C147.915 108.939 147.176 110.72 147.174 112.578V174.173C147.174 175.242 147.448 176.292 147.97 177.225C148.491 178.157 149.243 178.941 150.153 179.5C151.063 180.06 152.101 180.377 153.168 180.422C154.235 180.467 155.297 180.238 156.25 179.757L177.447 169.061C177.93 168.819 178.463 168.692 179.004 168.692C179.544 168.692 180.077 168.819 180.56 169.061L201.757 179.757C202.711 180.238 203.773 180.467 204.84 180.422C205.908 180.377 206.946 180.06 207.856 179.5C208.766 178.94 209.518 178.156 210.039 177.223C210.56 176.29 210.834 175.24 210.834 174.171V112.578C210.832 110.72 210.092 108.939 208.778 107.626C207.465 106.312 205.683 105.574 203.826 105.572ZM208.031 174.174C208.031 174.764 207.88 175.344 207.592 175.86C207.304 176.375 206.889 176.807 206.386 177.116C205.884 177.426 205.31 177.601 204.721 177.626C204.131 177.65 203.545 177.524 203.019 177.258L181.823 166.559C180.948 166.12 179.983 165.891 179.004 165.891C178.025 165.891 177.06 166.12 176.185 166.559L154.988 177.258C154.462 177.524 153.876 177.65 153.286 177.626C152.697 177.601 152.123 177.426 151.621 177.116C151.118 176.807 150.703 176.375 150.415 175.86C150.127 175.344 149.976 174.764 149.976 174.174V112.578C149.978 111.463 150.421 110.395 151.21 109.606C151.998 108.818 153.067 108.375 154.182 108.374H203.826C204.94 108.375 206.009 108.818 206.798 109.606C207.586 110.395 208.03 111.463 208.032 112.578L208.031 174.174Z" fill="white"/>
<path d="M193.408 130.834L185.037 129.618L181.293 122.033C181.082 121.605 180.756 121.246 180.352 120.994C179.947 120.743 179.48 120.609 179.004 120.609C178.527 120.609 178.061 120.743 177.656 120.994C177.251 121.246 176.925 121.605 176.715 122.033L172.971 129.618L164.6 130.834C164.129 130.903 163.686 131.102 163.322 131.409C162.957 131.716 162.686 132.119 162.539 132.572C162.392 133.025 162.375 133.51 162.489 133.973C162.603 134.435 162.844 134.856 163.185 135.189L169.242 141.093L167.812 149.429C167.73 149.899 167.782 150.382 167.961 150.824C168.14 151.266 168.439 151.649 168.825 151.93C169.211 152.21 169.668 152.377 170.143 152.41C170.619 152.444 171.095 152.344 171.516 152.121L179.004 148.184L186.491 152.121C186.913 152.342 187.388 152.442 187.863 152.407C188.338 152.373 188.794 152.207 189.18 151.926C189.565 151.646 189.865 151.264 190.044 150.823C190.223 150.382 190.276 149.899 190.195 149.429L188.765 141.093L194.822 135.188C195.163 134.856 195.404 134.434 195.518 133.972C195.632 133.51 195.615 133.024 195.468 132.572C195.32 132.119 195.05 131.716 194.685 131.409C194.321 131.102 193.879 130.903 193.408 130.834ZM186.715 139.177C186.419 139.466 186.197 139.823 186.069 140.216C185.941 140.61 185.911 141.029 185.981 141.437L187.348 149.405L180.19 145.642C179.824 145.45 179.417 145.349 179.003 145.349C178.589 145.349 178.182 145.45 177.816 145.642L170.66 149.405L172.026 141.437C172.097 141.029 172.066 140.61 171.938 140.216C171.81 139.823 171.589 139.466 171.292 139.177L165.503 133.534L173.505 132.371C173.914 132.312 174.303 132.154 174.638 131.911C174.973 131.667 175.243 131.346 175.426 130.975L179.004 123.725L182.581 130.973C182.764 131.345 183.035 131.666 183.369 131.91C183.704 132.154 184.093 132.312 184.503 132.372L192.504 133.534L186.715 139.177Z" fill="white"/>
</g>
<defs>
<filter id="filter0_d_477_410" x="0" y="0" width="361" height="357" filterUnits="userSpaceOnUse" color-interpolation-filters="sRGB">
<feFlood flood-opacity="0" result="BackgroundImageFix"/>
<feColorMatrix in="SourceAlpha" type="matrix" values="0 0 0 0 0 0 0 0 0 0 0 0 0 0 0 0 0 0 127 0" result="hardAlpha"/>
<feOffset dx="2" dy="2"/>
<feGaussianBlur stdDeviation="2"/>
<feComposite in2="hardAlpha" operator="out"/>
<feColorMatrix type="matrix" values="0 0 0 0 0 0 0 0 0 0 0 0 0 0 0 0 0 0 0.25 0"/>
<feBlend mode="normal" in2="BackgroundImageFix" result="effect1_dropShadow_477_410"/>
<feBlend mode="normal" in="SourceGraphic" in2="effect1_dropShadow_477_410" result="shape"/>
</filter>
<linearGradient id="paint0_linear_477_410" x1="144.488" y1="202.766" x2="213.512" y2="83.2345" gradientUnits="userSpaceOnUse">
<stop stop-color="#7F2082"/>
<stop offset="0.27" stop-color="#982F7A"/>
<stop offset="0.84" stop-color="#D95566"/>
<stop offset="1" stop-color="#EC6161"/>
</linearGradient>
<clipPath id="clip0_477_410">
<rect width="138" height="138" fill="white" transform="translate(110 74)"/>
</clipPath>
</defs>
</svg>
