<svg width="361" height="357" viewBox="0 0 361 357" fill="none" xmlns="http://www.w3.org/2000/svg">
<g filter="url(#filter0_d_477_391)">
<rect x="2" y="2" width="353" height="349" rx="19.0804" fill="white"/>
<path d="M89.7427 273.577C83.2953 273.577 79.0536 270.726 78.9179 265.365H84.9581C85.2295 267.808 86.8244 268.826 89.7088 268.826C91.6769 268.826 93.6111 268.114 93.6111 266.281C93.6111 264.347 91.643 263.94 88.3175 263.125C84.1097 262.141 79.6644 260.852 79.6644 255.762C79.6644 250.57 83.8722 248.296 89.3016 248.296C94.5613 248.296 98.6333 250.672 98.8708 255.762H93.0003C92.7628 253.895 91.3376 252.843 89.098 252.843C86.9941 252.843 85.6028 253.76 85.6028 255.117C85.6028 256.814 87.4691 257.221 91.1 258.035C95.6132 259.087 99.6852 260.479 99.6852 265.67C99.6852 270.76 95.3417 273.577 89.7427 273.577ZM110.485 273.543C104.92 273.543 101.188 269.573 101.188 264.347C101.188 259.121 104.92 255.151 110.485 255.151C116.084 255.151 119.749 259.121 119.749 264.347C119.749 269.573 116.084 273.543 110.485 273.543ZM110.451 269.607C112.861 269.607 114.15 267.503 114.15 264.347C114.15 261.191 112.861 259.053 110.451 259.053C108.042 259.053 106.787 261.191 106.787 264.347C106.787 267.503 108.042 269.607 110.451 269.607ZM121.653 273V248.738H127.252V273H121.653ZM132.719 248.229C134.45 248.229 135.773 249.45 135.773 251.181C135.773 252.911 134.45 254.133 132.719 254.133C130.989 254.133 129.665 252.911 129.665 251.181C129.665 249.45 130.989 248.229 132.719 248.229ZM129.937 273V255.626H135.468V273H129.937ZM146.368 269.166C148.675 269.166 150.033 267.163 150.033 264.313C150.033 261.395 148.845 259.291 146.436 259.291C144.23 259.291 142.94 261.327 142.94 264.245C142.94 267.265 144.23 269.166 146.368 269.166ZM144.943 273.543C140.497 273.543 137.341 270.116 137.341 264.313C137.341 258.884 140.463 255.117 144.943 255.117C147.386 255.117 148.777 256.135 149.795 257.594H149.897V248.738H155.428V273H150.134V270.659H150.066C149.015 272.457 147.216 273.543 144.943 273.543ZM169.652 273V253.828H162.594V248.738H182.784V253.828H175.658V273H169.652ZM188.433 273.509C184.429 273.509 182.325 270.896 182.325 267.028V255.626H187.822V265.874C187.822 267.774 188.671 268.826 190.435 268.826C192.335 268.826 193.489 267.401 193.489 265.331V255.626H199.02V273H193.727V270.862H193.625C192.369 272.559 190.842 273.509 188.433 273.509ZM201.681 273V255.626H206.975V258.103H207.076C208.162 256.305 209.825 255.117 212.336 255.117C214.61 255.117 216.34 256.305 217.223 258.171H217.29C218.648 256.067 220.514 255.117 222.754 255.117C226.69 255.117 228.658 257.798 228.658 261.7V273H223.127V262.684C223.127 260.818 222.347 259.732 220.684 259.732C218.919 259.732 217.935 261.191 217.935 263.261V273H212.404V262.684C212.404 260.818 211.624 259.732 209.961 259.732C208.23 259.732 207.212 261.191 207.212 263.261V273H201.681ZM239.691 273.543C234.126 273.543 230.394 269.573 230.394 264.347C230.394 259.121 234.126 255.151 239.691 255.151C245.29 255.151 248.955 259.121 248.955 264.347C248.955 269.573 245.29 273.543 239.691 273.543ZM239.657 269.607C242.067 269.607 243.356 267.503 243.356 264.347C243.356 261.191 242.067 259.053 239.657 259.053C237.248 259.053 235.993 261.191 235.993 264.347C235.993 267.503 237.248 269.607 239.657 269.607ZM250.825 273V255.626H256.119V258.341H256.22C257.442 256.271 258.867 255.355 260.971 255.355C261.48 255.355 261.819 255.388 262.057 255.49V260.241H261.921C258.528 259.766 256.356 261.429 256.356 265.195V273H250.825ZM271.213 273.543C266.123 273.543 262.933 271.202 262.763 267.367H267.989C268.193 269.098 269.346 269.946 271.179 269.946C272.842 269.946 273.893 269.335 273.893 268.215C273.893 266.654 271.79 266.485 269.482 266.078C266.462 265.569 263.238 264.754 263.238 260.682C263.238 257.017 266.632 255.117 270.738 255.117C275.658 255.117 278.305 257.255 278.576 260.682H273.486C273.283 259.121 272.231 258.646 270.704 258.646C269.346 258.646 268.294 259.155 268.294 260.241C268.294 261.463 270.263 261.632 272.468 262.039C275.522 262.548 279.119 263.329 279.119 267.774C279.119 271.575 275.76 273.543 271.213 273.543Z" fill="#002068"/>
</g>
<path d="M156.097 129.073C160.295 129.073 163.698 125.67 163.698 121.472C163.698 117.273 160.295 113.87 156.097 113.87C151.899 113.87 148.495 117.273 148.495 121.472C148.495 125.67 151.899 129.073 156.097 129.073Z" stroke="white" stroke-width="2.875" stroke-linecap="round" stroke-linejoin="round"/>
<path d="M156.12 129.107C149.91 132.937 145.942 140.055 146.644 148.036C147.483 157.593 155.223 165.355 164.779 166.218C172.323 166.896 179.108 163.412 183.076 157.788" stroke="white" stroke-width="2.875" stroke-linecap="round" stroke-linejoin="round"/>
<path d="M148.507 119.632C139.79 125.796 134.362 136.272 135.305 147.956C136.558 163.401 149.254 175.786 164.71 176.706C178.924 177.557 191.241 168.967 196.002 156.616" stroke="white" stroke-width="2.875" stroke-linecap="round" stroke-linejoin="round"/>
<path d="M151.232 173.464C144.551 174.625 139.468 180.444 139.468 187.459V190.484H195.415V187.459C195.415 180.249 190.033 174.28 183.064 173.372" stroke="white" stroke-width="2.875" stroke-linecap="round" stroke-linejoin="round"/>
<path d="M175.049 156.616H202.798" stroke="white" stroke-width="2.875" stroke-linecap="round" stroke-linejoin="round"/>
<path d="M150.45 116.4L145.689 111.72C144.838 110.88 144.827 109.5 145.666 108.649L154.751 99.4263C155.591 98.5753 156.971 98.5638 157.822 99.4033L184.329 125.485C185.18 126.325 185.192 127.705 184.352 128.556L175.267 137.779C174.428 138.63 173.048 138.641 172.197 137.802L161.49 127.268" stroke="white" stroke-width="2.875" stroke-linecap="round" stroke-linejoin="round"/>
<path d="M153.44 100.036L149.473 96.1376C148.622 95.2981 147.242 95.3096 146.402 96.1606L142.274 100.358C141.434 101.209 141.446 102.589 142.297 103.429L146.264 107.327" stroke="white" stroke-width="2.875" stroke-linecap="round" stroke-linejoin="round"/>
<path d="M176.578 137.169L179.637 140.182C181.65 142.172 184.893 142.137 186.882 140.125C188.872 138.112 188.837 134.869 186.825 132.88L183.766 129.867" stroke="white" stroke-width="2.875" stroke-linecap="round" stroke-linejoin="round"/>
<g clip-path="url(#clip0_477_391)">
<path d="M179 212C217.108 212 248 181.108 248 143C248 104.892 217.108 74 179 74C140.892 74 110 104.892 110 143C110 181.108 140.892 212 179 212Z" fill="url(#paint0_linear_477_391)"/>
<path d="M170.283 139.768C173.96 139.768 176.941 136.787 176.941 133.11C176.941 129.432 173.96 126.451 170.283 126.451C166.605 126.451 163.624 129.432 163.624 133.11C163.624 136.787 166.605 139.768 170.283 139.768Z" stroke="white" stroke-width="5.85876" stroke-linecap="round" stroke-linejoin="round"/>
<path d="M192.731 148.198C195.583 148.198 197.894 145.886 197.894 143.034C197.894 140.182 195.583 137.871 192.731 137.871C189.879 137.871 187.567 140.182 187.567 143.034C187.567 145.886 189.879 148.198 192.731 148.198Z" stroke="white" stroke-width="5.85876" stroke-linecap="round" stroke-linejoin="round"/>
<path d="M172.583 160.422C174.99 160.422 176.941 158.471 176.941 156.064C176.941 153.656 174.99 151.705 172.583 151.705C170.176 151.705 168.224 153.656 168.224 156.064C168.224 158.471 170.176 160.422 172.583 160.422Z" stroke="white" stroke-width="5.85876" stroke-linecap="round" stroke-linejoin="round"/>
<path d="M179 94.6883C179.333 94.6883 179.69 94.7228 180.035 94.8148C181.541 95.1713 182.76 96.3788 183.128 97.8738C183.427 99.0813 183.209 100.231 182.657 101.151C181.495 103.06 180.989 105.303 181.576 107.465L181.748 108.109C182.45 110.685 184.416 112.766 186.992 113.456C189.499 114.135 191.868 115.112 194.076 116.366C195.272 117.044 196.595 117.389 197.929 117.389C199.263 117.389 200.505 117.067 201.678 116.4L202.31 116.044C204.185 114.974 205.565 113.169 205.956 111.041C206.105 110.236 206.496 109.454 207.117 108.833C207.945 108.005 209.038 107.58 210.13 107.58C211.533 107.58 212.925 108.27 213.787 109.638C214.65 111.018 214.615 112.835 213.707 114.192C213.04 115.193 212.062 115.802 211.027 116.021C209.003 116.446 207.175 117.527 206.151 119.321L205.588 120.31C204.242 122.668 204.277 125.543 205.622 127.9C206.876 130.108 207.865 132.489 208.532 134.984C209.222 137.56 211.315 139.527 213.879 140.228L214.523 140.401C215.133 140.573 215.765 140.642 216.375 140.642C217.927 140.642 219.468 140.148 220.837 139.32C221.469 138.929 222.228 138.71 223.022 138.71C223.378 138.71 223.735 138.756 224.103 138.848C225.598 139.216 226.817 140.447 227.162 141.942C227.829 144.748 225.713 147.255 223.01 147.255C222.125 147.255 221.308 146.979 220.63 146.519C219.422 145.691 218.008 145.288 216.57 145.288C215.88 145.288 215.19 145.38 214.523 145.564L213.868 145.737C211.292 146.438 209.21 148.405 208.52 150.981C207.842 153.488 206.864 155.857 205.611 158.065C204.265 160.422 204.231 163.309 205.576 165.655L205.933 166.287C207.002 168.162 208.808 169.542 210.935 169.933C211.74 170.082 212.522 170.473 213.143 171.094C215.041 172.992 214.776 176.246 212.338 177.764C211.671 178.178 210.901 178.385 210.13 178.385C209.302 178.385 208.486 178.155 207.784 177.684C206.784 177.017 206.174 176.039 205.956 175.004C205.53 172.98 204.449 171.152 202.655 170.128L201.666 169.553C200.505 168.886 199.217 168.564 197.917 168.564C196.618 168.564 195.261 168.909 194.065 169.588C191.857 170.841 189.476 171.83 186.981 172.497C184.405 173.187 182.438 175.28 181.737 177.845L181.564 178.5C181.001 180.582 181.3 182.836 182.519 184.618C182.979 185.297 183.255 186.113 183.255 186.999C183.255 189.356 181.346 191.265 178.988 191.265C178.655 191.265 178.298 191.231 177.953 191.139C176.447 190.782 175.228 189.575 174.86 188.08C174.561 186.872 174.779 185.722 175.343 184.802C176.504 182.893 177.01 180.651 176.424 178.489L176.251 177.845C175.55 175.269 173.583 173.187 171.007 172.497C168.5 171.819 166.131 170.841 163.923 169.588C162.727 168.909 161.405 168.564 160.071 168.564C158.737 168.564 157.495 168.886 156.322 169.553L155.689 169.91C153.815 170.979 152.435 172.785 152.044 174.912C151.894 175.717 151.503 176.499 150.882 177.12C150.054 177.948 148.962 178.374 147.869 178.374C146.466 178.374 145.075 177.684 144.212 176.315C143.35 174.935 143.384 173.118 144.293 171.761C144.96 170.761 145.937 170.151 146.972 169.933C148.996 169.507 150.825 168.426 151.848 166.632L152.423 165.643C153.769 163.286 153.734 160.411 152.389 158.053C151.135 155.845 150.146 153.465 149.479 150.969C148.789 148.393 146.696 146.427 144.132 145.725L143.476 145.553C142.809 145.369 142.119 145.277 141.429 145.277C139.992 145.277 138.566 145.679 137.37 146.507C136.691 146.967 135.875 147.243 134.989 147.243C132.298 147.243 130.182 144.748 130.838 141.93C131.194 140.424 132.402 139.205 133.897 138.837C134.265 138.745 134.633 138.699 134.978 138.699C135.783 138.699 136.53 138.917 137.163 139.308C138.531 140.136 140.072 140.631 141.625 140.631C142.246 140.631 142.867 140.55 143.476 140.389L144.12 140.217C146.696 139.515 148.778 137.549 149.468 134.973C150.146 132.466 151.124 130.097 152.377 127.889C153.723 125.531 153.757 122.645 152.412 120.299L152.055 119.666C150.986 117.792 149.18 116.412 147.053 116.021C146.248 115.871 145.466 115.48 144.845 114.859C142.947 112.962 143.212 109.707 145.65 108.189C146.317 107.775 147.087 107.568 147.858 107.568C148.686 107.568 149.502 107.798 150.204 108.27C151.204 108.937 151.814 109.914 152.032 110.949C152.458 112.973 153.539 114.802 155.333 115.825L156.322 116.4C157.483 117.067 158.771 117.389 160.071 117.389C161.37 117.389 162.727 117.044 163.923 116.366C166.131 115.112 168.512 114.123 171.007 113.456C173.583 112.766 175.55 110.673 176.251 108.109L176.424 107.453C176.987 105.372 176.688 103.118 175.469 101.335C175.009 100.657 174.733 99.8403 174.733 98.9548C174.733 96.5973 176.642 94.6883 179 94.6883ZM179 91.8133C177.091 91.8133 175.297 92.5608 173.951 93.9063C172.606 95.2518 171.858 97.0458 171.858 98.9548C171.858 100.392 172.284 101.784 173.1 102.968C173.813 104.003 174.009 105.372 173.652 106.706L173.48 107.361C173.031 108.994 171.801 110.271 170.26 110.696C167.557 111.432 164.947 112.502 162.497 113.882C161.75 114.307 160.91 114.526 160.071 114.526C159.231 114.526 158.461 114.319 157.759 113.916L156.77 113.341C155.494 112.605 155.022 111.168 154.85 110.363C154.47 108.534 153.389 106.936 151.802 105.878C150.641 105.107 149.284 104.693 147.858 104.693C146.524 104.693 145.236 105.061 144.132 105.751C142.246 106.924 141.027 108.856 140.774 111.03C140.521 113.203 141.268 115.342 142.821 116.895C143.844 117.918 145.121 118.585 146.535 118.85C147.777 119.08 148.881 119.896 149.56 121.104L149.916 121.736C150.756 123.197 150.744 124.968 149.882 126.486C148.502 128.924 147.421 131.534 146.696 134.248C146.282 135.789 145.006 137.02 143.361 137.468L142.717 137.641C142.361 137.733 141.993 137.79 141.613 137.79C140.647 137.79 139.624 137.48 138.646 136.882C137.542 136.203 136.266 135.858 134.966 135.858C134.38 135.858 133.782 135.927 133.195 136.077C130.654 136.698 128.618 138.756 128.02 141.309C127.503 143.483 127.997 145.714 129.366 147.439C130.734 149.164 132.77 150.153 134.966 150.153C136.404 150.153 137.795 149.727 138.98 148.911C139.67 148.439 140.521 148.186 141.418 148.186C141.855 148.186 142.292 148.244 142.717 148.359L143.373 148.531C145.006 148.98 146.282 150.21 146.708 151.751C147.444 154.454 148.513 157.064 149.893 159.514C150.756 161.032 150.767 162.803 149.928 164.263L149.364 165.252C148.628 166.529 147.191 167 146.386 167.173C144.557 167.552 142.959 168.633 141.901 170.22C140.36 172.532 140.302 175.545 141.774 177.891C143.108 180.018 145.385 181.295 147.869 181.295C149.778 181.295 151.572 180.547 152.918 179.202C153.941 178.178 154.608 176.902 154.873 175.487C155.103 174.245 155.919 173.141 157.127 172.463L157.759 172.106C158.461 171.704 159.254 171.497 160.071 171.497C160.887 171.497 161.75 171.727 162.497 172.141C164.935 173.521 167.546 174.602 170.26 175.326C171.801 175.74 173.031 177.017 173.48 178.661L173.652 179.305C174.112 180.996 173.365 182.583 172.893 183.376C171.904 185.009 171.617 186.941 172.077 188.827C172.698 191.369 174.756 193.404 177.309 194.002C177.873 194.129 178.436 194.198 179.011 194.198C182.956 194.198 186.153 190.989 186.153 187.056C186.153 185.619 185.727 184.227 184.911 183.043C184.198 182.008 184.002 180.639 184.359 179.305L184.531 178.65C184.98 177.017 186.21 175.74 187.751 175.315C190.454 174.579 193.064 173.509 195.514 172.129C196.261 171.704 197.101 171.485 197.94 171.485C198.78 171.485 199.55 171.692 200.252 172.095L201.241 172.67C202.517 173.406 202.989 174.843 203.161 175.648C203.541 177.477 204.622 179.075 206.209 180.122C207.37 180.892 208.739 181.306 210.153 181.306C211.487 181.306 212.775 180.938 213.879 180.248C215.765 179.075 216.996 177.143 217.237 174.97C217.49 172.796 216.743 170.657 215.19 169.105C214.167 168.081 212.89 167.414 211.476 167.15C210.234 166.92 209.13 166.103 208.451 164.896L208.095 164.263C207.255 162.803 207.267 161.032 208.129 159.514C209.509 157.076 210.59 154.465 211.315 151.751C211.729 150.21 213.005 148.98 214.65 148.531L215.305 148.359C215.731 148.244 216.168 148.186 216.605 148.186C217.502 148.186 218.353 148.439 219.043 148.911C220.227 149.727 221.619 150.153 223.056 150.153C225.253 150.153 227.3 149.164 228.657 147.439C230.025 145.714 230.508 143.483 230.002 141.309C229.404 138.756 227.369 136.709 224.827 136.077C224.241 135.927 223.643 135.858 223.056 135.858C221.757 135.858 220.48 136.215 219.376 136.882C218.399 137.48 217.375 137.79 216.409 137.79C216.03 137.79 215.662 137.744 215.305 137.641L214.661 137.468C213.028 137.02 211.752 135.789 211.326 134.248C210.59 131.546 209.521 128.935 208.141 126.486C207.278 124.968 207.267 123.197 208.106 121.736L208.681 120.747C209.417 119.471 210.855 118.999 211.66 118.827C213.488 118.447 215.087 117.366 216.145 115.779C217.686 113.468 217.732 110.455 216.271 108.109C214.937 105.981 212.66 104.705 210.176 104.705C208.267 104.705 206.473 105.452 205.128 106.798C204.104 107.821 203.437 109.098 203.173 110.512C202.943 111.754 202.126 112.858 200.919 113.537L200.286 113.893C199.585 114.296 198.791 114.503 197.975 114.503C197.158 114.503 196.296 114.273 195.548 113.859C193.11 112.479 190.5 111.398 187.786 110.673C186.245 110.259 185.014 108.983 184.566 107.338L184.393 106.694C183.933 105.004 184.681 103.417 185.152 102.623C186.141 100.99 186.429 99.0583 185.969 97.1723C185.348 94.6308 183.289 92.5953 180.736 91.9973C180.173 91.8708 179.609 91.8018 179.034 91.8018L179 91.8133Z" fill="white"/>
</g>
<defs>
<filter id="filter0_d_477_391" x="0" y="0" width="361" height="357" filterUnits="userSpaceOnUse" color-interpolation-filters="sRGB">
<feFlood flood-opacity="0" result="BackgroundImageFix"/>
<feColorMatrix in="SourceAlpha" type="matrix" values="0 0 0 0 0 0 0 0 0 0 0 0 0 0 0 0 0 0 127 0" result="hardAlpha"/>
<feOffset dx="2" dy="2"/>
<feGaussianBlur stdDeviation="2"/>
<feComposite in2="hardAlpha" operator="out"/>
<feColorMatrix type="matrix" values="0 0 0 0 0 0 0 0 0 0 0 0 0 0 0 0 0 0 0.25 0"/>
<feBlend mode="normal" in2="BackgroundImageFix" result="effect1_dropShadow_477_391"/>
<feBlend mode="normal" in="SourceGraphic" in2="effect1_dropShadow_477_391" result="shape"/>
</filter>
<linearGradient id="paint0_linear_477_391" x1="144.488" y1="202.766" x2="213.512" y2="83.2345" gradientUnits="userSpaceOnUse">
<stop stop-color="#7F2082"/>
<stop offset="0.27" stop-color="#982F7A"/>
<stop offset="0.84" stop-color="#D95566"/>
<stop offset="1" stop-color="#EC6161"/>
</linearGradient>
<clipPath id="clip0_477_391">
<rect width="138" height="138" fill="white" transform="translate(110 74)"/>
</clipPath>
</defs>
</svg>
