<svg width="361" height="357" viewBox="0 0 361 357" fill="none" xmlns="http://www.w3.org/2000/svg">
<g filter="url(#filter0_d_503_206)">
<rect x="2" y="2" width="353" height="349" rx="19.0804" fill="white"/>
<path d="M117.903 273V248.738H123.909V273H117.903ZM126.907 273V255.626H132.201V258.103H132.303C133.389 256.305 135.052 255.117 137.563 255.117C139.836 255.117 141.567 256.305 142.449 258.171H142.517C143.874 256.067 145.741 255.117 147.98 255.117C151.917 255.117 153.885 257.798 153.885 261.7V273H148.354V262.684C148.354 260.818 147.573 259.732 145.91 259.732C144.146 259.732 143.162 261.191 143.162 263.261V273H137.63V262.684C137.63 260.818 136.85 259.732 135.187 259.732C133.457 259.732 132.439 261.191 132.439 263.261V273H126.907ZM156.401 273V255.626H161.694V258.103H161.796C162.882 256.305 164.545 255.117 167.056 255.117C169.329 255.117 171.06 256.305 171.942 258.171H172.01C173.367 256.067 175.234 255.117 177.473 255.117C181.41 255.117 183.378 257.798 183.378 261.7V273H177.847V262.684C177.847 260.818 177.066 259.732 175.403 259.732C173.639 259.732 172.655 261.191 172.655 263.261V273H167.124V262.684C167.124 260.818 166.343 259.732 164.68 259.732C162.95 259.732 161.932 261.191 161.932 263.261V273H156.401ZM191.866 273.509C187.862 273.509 185.758 270.896 185.758 267.028V255.626H191.255V265.874C191.255 267.774 192.103 268.826 193.868 268.826C195.768 268.826 196.922 267.401 196.922 265.331V255.626H202.453V273H197.16V270.862H197.058C195.802 272.559 194.275 273.509 191.866 273.509ZM205.114 273V255.626H210.441V258.001H210.543C211.833 256.135 213.495 255.117 215.905 255.117C219.705 255.117 221.945 257.832 221.945 261.7V273H216.414V262.82C216.414 260.988 215.497 259.732 213.699 259.732C211.867 259.732 210.645 261.259 210.645 263.397V273H205.114ZM232.984 273.543C227.419 273.543 223.686 269.573 223.686 264.347C223.686 259.121 227.419 255.151 232.984 255.151C238.583 255.151 242.248 259.121 242.248 264.347C242.248 269.573 238.583 273.543 232.984 273.543ZM232.95 269.607C235.359 269.607 236.649 267.503 236.649 264.347C236.649 261.191 235.359 259.053 232.95 259.053C230.541 259.053 229.285 261.191 229.285 264.347C229.285 267.503 230.541 269.607 232.95 269.607Z" fill="#002068"/>
</g>
<path d="M146.097 129.073C150.295 129.073 153.698 125.67 153.698 121.472C153.698 117.273 150.295 113.87 146.097 113.87C141.899 113.87 138.495 117.273 138.495 121.472C138.495 125.67 141.899 129.073 146.097 129.073Z" stroke="white" stroke-width="2.875" stroke-linecap="round" stroke-linejoin="round"/>
<path d="M146.12 129.107C139.91 132.937 135.943 140.055 136.644 148.036C137.484 157.593 145.223 165.355 154.78 166.218C162.324 166.896 169.109 163.412 173.076 157.788" stroke="white" stroke-width="2.875" stroke-linecap="round" stroke-linejoin="round"/>
<path d="M138.507 119.632C129.79 125.796 124.362 136.272 125.305 147.956C126.558 163.401 139.254 175.786 154.71 176.706C168.924 177.557 181.241 168.967 186.002 156.616" stroke="white" stroke-width="2.875" stroke-linecap="round" stroke-linejoin="round"/>
<path d="M141.233 173.464C134.551 174.625 129.468 180.444 129.468 187.459V190.484H185.416V187.459C185.416 180.249 180.034 174.28 173.065 173.372" stroke="white" stroke-width="2.875" stroke-linecap="round" stroke-linejoin="round"/>
<path d="M165.049 156.616H192.799" stroke="white" stroke-width="2.875" stroke-linecap="round" stroke-linejoin="round"/>
<path d="M140.45 116.4L135.689 111.72C134.838 110.88 134.827 109.5 135.666 108.649L144.751 99.4263C145.591 98.5753 146.971 98.5638 147.822 99.4033L174.329 125.485C175.18 126.325 175.192 127.705 174.352 128.556L165.267 137.779C164.428 138.63 163.048 138.641 162.197 137.802L151.49 127.268" stroke="white" stroke-width="2.875" stroke-linecap="round" stroke-linejoin="round"/>
<path d="M143.44 100.036L139.473 96.1376C138.622 95.2981 137.242 95.3096 136.402 96.1606L132.274 100.358C131.434 101.209 131.446 102.589 132.297 103.429L136.264 107.327" stroke="white" stroke-width="2.875" stroke-linecap="round" stroke-linejoin="round"/>
<path d="M166.578 137.169L169.637 140.182C171.65 142.172 174.893 142.137 176.882 140.125C178.872 138.112 178.837 134.869 176.825 132.88L173.766 129.867" stroke="white" stroke-width="2.875" stroke-linecap="round" stroke-linejoin="round"/>
<g clip-path="url(#clip0_503_206)">
<path d="M179 212C217.108 212 248 181.108 248 143C248 104.892 217.108 74 179 74C140.892 74 110 104.892 110 143C110 181.108 140.892 212 179 212Z" fill="url(#paint0_linear_503_206)"/>
<mask id="path-12-outside-1_503_206" maskUnits="userSpaceOnUse" x="181.946" y="144.692" width="43" height="44" fill="black">
<rect fill="white" x="181.946" y="144.692" width="43" height="44"/>
<path d="M222.032 165.201C222.196 165.201 222.36 165.178 222.524 165.131C223.227 164.897 223.696 164.217 223.837 163.185C223.954 162.364 223.837 161.356 223.509 160.371C222.852 158.354 221.609 157.018 220.39 157.018C220.226 157.018 220.062 157.041 219.898 157.088C219.1 157.346 218.608 158.214 218.561 159.457L215.114 160.582C214.575 159.55 213.918 158.612 213.121 157.768L215.278 154.79C215.654 154.884 216.005 154.954 216.334 154.954C217.225 154.954 217.694 154.579 217.928 154.251C218.374 153.641 218.327 152.821 217.834 151.906C217.436 151.179 216.756 150.429 215.912 149.819C214.833 149.045 213.614 148.577 212.676 148.577C211.785 148.577 211.316 148.952 211.081 149.28C210.589 149.96 210.683 150.945 211.386 151.977L209.252 154.908C208.22 154.392 207.118 154.017 205.969 153.805V150.124C207.118 149.702 207.798 148.975 207.798 148.108C207.798 147.357 207.306 146.701 206.368 146.255C205.618 145.903 204.633 145.692 203.578 145.692C202.546 145.692 201.561 145.88 200.787 146.255C199.849 146.701 199.357 147.357 199.357 148.108C199.357 148.952 200.037 149.679 201.186 150.124V153.759C200.037 153.946 198.935 154.298 197.88 154.79L195.699 151.812C196.379 150.781 196.496 149.796 196.004 149.116C195.769 148.788 195.3 148.412 194.409 148.412C193.448 148.412 192.252 148.881 191.174 149.655C190.329 150.265 189.649 151.015 189.251 151.742C188.758 152.657 188.735 153.477 189.157 154.087C189.392 154.415 189.86 154.79 190.752 154.79C191.08 154.79 191.432 154.743 191.807 154.626L193.94 157.557C193.143 158.378 192.44 159.316 191.877 160.324L188.383 159.175C188.336 157.932 187.844 157.088 187.047 156.807C186.883 156.76 186.718 156.737 186.554 156.737C185.358 156.737 184.092 158.097 183.436 160.09C183.107 161.074 182.99 162.083 183.107 162.903C183.248 163.935 183.717 164.615 184.42 164.85C184.585 164.897 184.749 164.92 184.913 164.92C185.593 164.92 186.296 164.498 186.906 163.724L190.353 164.85C190.259 165.483 190.212 166.116 190.212 166.749C190.212 167.265 190.236 167.781 190.306 168.297L186.789 169.445C186.179 168.672 185.476 168.25 184.796 168.25C184.632 168.25 184.467 168.273 184.303 168.32C183.6 168.554 183.131 169.234 182.99 170.266C182.873 171.087 182.99 172.095 183.318 173.08C183.975 175.097 185.218 176.433 186.437 176.433C186.601 176.433 186.765 176.41 186.929 176.363C187.75 176.105 188.219 175.237 188.266 173.994L191.713 172.869C192.252 173.901 192.909 174.839 193.706 175.683L191.549 178.661C191.174 178.567 190.822 178.497 190.494 178.497C189.603 178.497 189.134 178.872 188.899 179.2C188.454 179.81 188.5 180.63 188.993 181.545C189.392 182.272 190.072 183.022 190.916 183.632C191.994 184.405 193.214 184.874 194.152 184.874C195.043 184.874 195.512 184.499 195.746 184.171C196.238 183.491 196.145 182.506 195.441 181.474L197.575 178.543C198.607 179.059 199.709 179.434 200.858 179.645V183.327C199.709 183.749 199.029 184.476 199.029 185.343C199.029 186.094 199.521 186.75 200.459 187.196C201.209 187.548 202.194 187.759 203.249 187.759C204.281 187.759 205.266 187.571 206.04 187.196C206.978 186.75 207.47 186.094 207.47 185.343C207.47 184.499 206.79 183.772 205.641 183.327V179.692C206.79 179.505 207.892 179.153 208.947 178.661L211.128 181.639C210.448 182.67 210.331 183.655 210.823 184.335C211.058 184.663 211.527 185.039 212.418 185.039C213.379 185.039 214.575 184.57 215.654 183.796C216.498 183.186 217.178 182.436 217.576 181.709C218.069 180.794 218.092 179.974 217.67 179.364C217.436 179.036 216.967 178.661 216.076 178.661C215.747 178.661 215.396 178.708 215.02 178.825L212.887 175.894C213.684 175.073 214.387 174.135 214.95 173.127L218.444 174.252C218.491 175.495 218.983 176.339 219.78 176.597C219.921 176.644 220.085 176.668 220.273 176.668C221.492 176.668 222.735 175.331 223.392 173.314C223.72 172.33 223.837 171.321 223.72 170.501C223.579 169.469 223.11 168.789 222.407 168.554C222.243 168.508 222.078 168.484 221.914 168.484C221.234 168.484 220.531 168.906 219.921 169.68L216.474 168.554C216.568 167.921 216.615 167.288 216.615 166.655C216.615 166.139 216.592 165.623 216.521 165.108L220.038 163.959C220.648 164.779 221.352 165.201 222.032 165.201ZM220.836 170.993C221.305 170.266 221.727 170.008 221.914 170.008H221.938C222.032 170.032 222.196 170.29 222.243 170.829C222.289 171.439 222.196 172.165 221.961 172.916C221.469 174.463 220.601 175.237 220.273 175.237C220.249 175.237 220.249 175.237 220.249 175.237C220.132 175.19 219.874 174.745 219.945 173.807C219.968 173.479 219.757 173.15 219.429 173.057L214.809 171.556C214.739 171.532 214.669 171.509 214.575 171.509C214.294 171.509 214.036 171.673 213.918 171.931C213.285 173.197 212.441 174.323 211.409 175.308C211.128 175.565 211.105 175.988 211.316 176.292L214.153 180.185C214.294 180.372 214.528 180.49 214.763 180.49C214.856 180.49 214.95 180.466 215.044 180.443C215.443 180.279 215.818 180.208 216.123 180.208C216.357 180.208 216.498 180.255 216.521 180.302C216.685 180.537 216.216 181.662 214.833 182.647C214.036 183.233 213.098 183.608 212.465 183.608C212.254 183.608 212.113 183.561 212.066 183.514C211.996 183.421 212.066 182.881 212.652 182.178C212.863 181.92 212.887 181.545 212.676 181.263L209.815 177.324C209.674 177.137 209.44 177.019 209.205 177.019C209.088 177.019 208.971 177.043 208.854 177.113C207.587 177.77 206.251 178.192 204.844 178.356C204.469 178.403 204.187 178.708 204.187 179.106V183.913C204.187 184.241 204.422 184.546 204.75 184.64C205.665 184.874 206.016 185.25 206.016 185.39C206.016 185.672 204.985 186.305 203.273 186.305C202.452 186.305 201.678 186.164 201.139 185.883C200.694 185.672 200.553 185.461 200.553 185.39C200.553 185.273 200.928 184.874 201.819 184.64C202.147 184.546 202.382 184.265 202.382 183.913V179.059C202.382 178.684 202.1 178.379 201.749 178.332C200.342 178.121 199.005 177.676 197.763 176.972C197.645 176.902 197.528 176.879 197.411 176.879C197.176 176.879 196.942 176.996 196.801 177.183L193.94 181.029C193.753 181.31 193.753 181.685 193.964 181.943C194.55 182.67 194.62 183.186 194.55 183.28C194.527 183.327 194.386 183.374 194.152 183.374C193.518 183.374 192.604 182.999 191.783 182.412C190.4 181.404 189.931 180.279 190.095 180.068C190.118 180.021 190.259 179.974 190.494 179.974C190.798 179.974 191.15 180.068 191.572 180.208C191.666 180.232 191.76 180.255 191.854 180.255C192.088 180.255 192.323 180.138 192.463 179.95L195.324 176.011C195.535 175.706 195.512 175.308 195.254 175.05C194.245 174.065 193.425 172.892 192.838 171.626C192.721 171.368 192.463 171.204 192.158 171.204C192.088 171.204 191.994 171.228 191.924 171.251L187.352 172.728C187.023 172.822 186.812 173.15 186.836 173.479C186.883 174.417 186.648 174.885 186.531 174.909H186.507C186.179 174.909 185.312 174.135 184.819 172.588C184.585 171.861 184.491 171.11 184.538 170.501C184.585 169.961 184.749 169.727 184.843 169.68H184.866C185.03 169.68 185.476 169.938 185.945 170.665C186.085 170.876 186.32 171.017 186.578 171.017C186.648 171.017 186.742 170.993 186.812 170.97L191.432 169.469C191.783 169.352 191.994 169 191.924 168.648C191.807 168.015 191.76 167.359 191.76 166.702C191.76 165.952 191.83 165.178 191.971 164.451C192.041 164.076 191.83 163.724 191.478 163.607L186.906 162.13C186.836 162.106 186.765 162.083 186.672 162.083C186.414 162.083 186.179 162.2 186.038 162.434C185.593 163.138 185.147 163.419 184.96 163.419H184.936C184.866 163.396 184.702 163.185 184.655 162.692C184.585 162.083 184.678 161.309 184.913 160.535C185.405 158.988 186.273 158.214 186.601 158.214H186.625C186.742 158.261 187 158.706 186.929 159.644C186.906 159.972 187.117 160.301 187.445 160.394L192.065 161.895C192.135 161.919 192.205 161.942 192.299 161.942C192.58 161.942 192.838 161.778 192.956 161.52C193.589 160.254 194.433 159.128 195.465 158.143C195.746 157.885 195.769 157.463 195.558 157.159L192.721 153.266C192.58 153.079 192.346 152.961 192.112 152.961C192.018 152.961 191.924 152.985 191.83 153.008C191.432 153.172 191.056 153.243 190.752 153.243C190.517 153.243 190.376 153.196 190.353 153.149C190.306 153.102 190.306 152.821 190.54 152.399C190.845 151.859 191.361 151.297 192.041 150.804C192.838 150.218 193.776 149.843 194.409 149.843C194.62 149.843 194.761 149.89 194.808 149.937C194.878 150.03 194.808 150.57 194.222 151.273C194.011 151.531 193.987 151.906 194.198 152.188L197.059 156.127C197.2 156.314 197.434 156.432 197.669 156.432C197.786 156.432 197.903 156.408 198.02 156.338C199.287 155.681 200.623 155.259 202.03 155.095C202.405 155.048 202.687 154.743 202.687 154.345V149.538C202.687 149.21 202.452 148.905 202.124 148.811C201.209 148.577 200.858 148.201 200.858 148.061C200.858 147.779 201.889 147.146 203.601 147.146C205.313 147.146 206.345 147.779 206.345 148.061C206.345 148.178 205.969 148.577 205.078 148.811C204.75 148.905 204.516 149.186 204.516 149.538V154.392C204.516 154.767 204.797 155.072 205.149 155.119C206.556 155.33 207.892 155.775 209.135 156.479C209.252 156.549 209.369 156.572 209.487 156.572C209.721 156.572 209.956 156.455 210.096 156.268L212.934 152.375C213.121 152.094 213.121 151.719 212.91 151.461C212.324 150.734 212.254 150.218 212.324 150.124C212.347 150.077 212.488 150.03 212.723 150.03C213.356 150.03 214.27 150.405 215.091 150.992C215.747 151.484 216.287 152.047 216.592 152.586C216.826 153.032 216.826 153.29 216.779 153.337C216.756 153.383 216.615 153.43 216.38 153.43C216.076 153.43 215.7 153.337 215.302 153.196C215.208 153.172 215.114 153.149 215.02 153.149C214.786 153.149 214.552 153.266 214.411 153.454L211.527 157.37C211.316 157.674 211.339 158.073 211.597 158.331C212.605 159.316 213.426 160.488 214.012 161.754C214.129 162.012 214.387 162.177 214.692 162.177C214.763 162.177 214.856 162.153 214.927 162.13L219.499 160.652C219.827 160.559 220.038 160.23 220.015 159.902C219.968 158.964 220.203 158.495 220.32 158.472H220.343C220.672 158.472 221.539 159.245 222.032 160.793C222.289 161.567 222.383 162.341 222.289 162.95C222.219 163.443 222.055 163.654 221.985 163.677C221.985 163.677 221.985 163.677 221.961 163.677C221.797 163.677 221.352 163.419 220.883 162.692C220.742 162.481 220.507 162.341 220.249 162.341C220.179 162.341 220.085 162.364 220.015 162.388L215.396 163.888C215.044 164.005 214.833 164.357 214.88 164.709C214.997 165.342 215.044 165.999 215.044 166.655C215.044 167.405 214.974 168.179 214.833 168.906C214.763 169.281 214.974 169.633 215.325 169.75L219.898 171.228C219.968 171.251 220.038 171.274 220.132 171.274C220.484 171.321 220.718 171.204 220.836 170.993Z"/>
</mask>
<path d="M222.032 165.201C222.196 165.201 222.36 165.178 222.524 165.131C223.227 164.897 223.696 164.217 223.837 163.185C223.954 162.364 223.837 161.356 223.509 160.371C222.852 158.354 221.609 157.018 220.39 157.018C220.226 157.018 220.062 157.041 219.898 157.088C219.1 157.346 218.608 158.214 218.561 159.457L215.114 160.582C214.575 159.55 213.918 158.612 213.121 157.768L215.278 154.79C215.654 154.884 216.005 154.954 216.334 154.954C217.225 154.954 217.694 154.579 217.928 154.251C218.374 153.641 218.327 152.821 217.834 151.906C217.436 151.179 216.756 150.429 215.912 149.819C214.833 149.045 213.614 148.577 212.676 148.577C211.785 148.577 211.316 148.952 211.081 149.28C210.589 149.96 210.683 150.945 211.386 151.977L209.252 154.908C208.22 154.392 207.118 154.017 205.969 153.805V150.124C207.118 149.702 207.798 148.975 207.798 148.108C207.798 147.357 207.306 146.701 206.368 146.255C205.618 145.903 204.633 145.692 203.578 145.692C202.546 145.692 201.561 145.88 200.787 146.255C199.849 146.701 199.357 147.357 199.357 148.108C199.357 148.952 200.037 149.679 201.186 150.124V153.759C200.037 153.946 198.935 154.298 197.88 154.79L195.699 151.812C196.379 150.781 196.496 149.796 196.004 149.116C195.769 148.788 195.3 148.412 194.409 148.412C193.448 148.412 192.252 148.881 191.174 149.655C190.329 150.265 189.649 151.015 189.251 151.742C188.758 152.657 188.735 153.477 189.157 154.087C189.392 154.415 189.86 154.79 190.752 154.79C191.08 154.79 191.432 154.743 191.807 154.626L193.94 157.557C193.143 158.378 192.44 159.316 191.877 160.324L188.383 159.175C188.336 157.932 187.844 157.088 187.047 156.807C186.883 156.76 186.718 156.737 186.554 156.737C185.358 156.737 184.092 158.097 183.436 160.09C183.107 161.074 182.99 162.083 183.107 162.903C183.248 163.935 183.717 164.615 184.42 164.85C184.585 164.897 184.749 164.92 184.913 164.92C185.593 164.92 186.296 164.498 186.906 163.724L190.353 164.85C190.259 165.483 190.212 166.116 190.212 166.749C190.212 167.265 190.236 167.781 190.306 168.297L186.789 169.445C186.179 168.672 185.476 168.25 184.796 168.25C184.632 168.25 184.467 168.273 184.303 168.32C183.6 168.554 183.131 169.234 182.99 170.266C182.873 171.087 182.99 172.095 183.318 173.08C183.975 175.097 185.218 176.433 186.437 176.433C186.601 176.433 186.765 176.41 186.929 176.363C187.75 176.105 188.219 175.237 188.266 173.994L191.713 172.869C192.252 173.901 192.909 174.839 193.706 175.683L191.549 178.661C191.174 178.567 190.822 178.497 190.494 178.497C189.603 178.497 189.134 178.872 188.899 179.2C188.454 179.81 188.5 180.63 188.993 181.545C189.392 182.272 190.072 183.022 190.916 183.632C191.994 184.405 193.214 184.874 194.152 184.874C195.043 184.874 195.512 184.499 195.746 184.171C196.238 183.491 196.145 182.506 195.441 181.474L197.575 178.543C198.607 179.059 199.709 179.434 200.858 179.645V183.327C199.709 183.749 199.029 184.476 199.029 185.343C199.029 186.094 199.521 186.75 200.459 187.196C201.209 187.548 202.194 187.759 203.249 187.759C204.281 187.759 205.266 187.571 206.04 187.196C206.978 186.75 207.47 186.094 207.47 185.343C207.47 184.499 206.79 183.772 205.641 183.327V179.692C206.79 179.505 207.892 179.153 208.947 178.661L211.128 181.639C210.448 182.67 210.331 183.655 210.823 184.335C211.058 184.663 211.527 185.039 212.418 185.039C213.379 185.039 214.575 184.57 215.654 183.796C216.498 183.186 217.178 182.436 217.576 181.709C218.069 180.794 218.092 179.974 217.67 179.364C217.436 179.036 216.967 178.661 216.076 178.661C215.747 178.661 215.396 178.708 215.02 178.825L212.887 175.894C213.684 175.073 214.387 174.135 214.95 173.127L218.444 174.252C218.491 175.495 218.983 176.339 219.78 176.597C219.921 176.644 220.085 176.668 220.273 176.668C221.492 176.668 222.735 175.331 223.392 173.314C223.72 172.33 223.837 171.321 223.72 170.501C223.579 169.469 223.11 168.789 222.407 168.554C222.243 168.508 222.078 168.484 221.914 168.484C221.234 168.484 220.531 168.906 219.921 169.68L216.474 168.554C216.568 167.921 216.615 167.288 216.615 166.655C216.615 166.139 216.592 165.623 216.521 165.108L220.038 163.959C220.648 164.779 221.352 165.201 222.032 165.201ZM220.836 170.993C221.305 170.266 221.727 170.008 221.914 170.008H221.938C222.032 170.032 222.196 170.29 222.243 170.829C222.289 171.439 222.196 172.165 221.961 172.916C221.469 174.463 220.601 175.237 220.273 175.237C220.249 175.237 220.249 175.237 220.249 175.237C220.132 175.19 219.874 174.745 219.945 173.807C219.968 173.479 219.757 173.15 219.429 173.057L214.809 171.556C214.739 171.532 214.669 171.509 214.575 171.509C214.294 171.509 214.036 171.673 213.918 171.931C213.285 173.197 212.441 174.323 211.409 175.308C211.128 175.565 211.105 175.988 211.316 176.292L214.153 180.185C214.294 180.372 214.528 180.49 214.763 180.49C214.856 180.49 214.95 180.466 215.044 180.443C215.443 180.279 215.818 180.208 216.123 180.208C216.357 180.208 216.498 180.255 216.521 180.302C216.685 180.537 216.216 181.662 214.833 182.647C214.036 183.233 213.098 183.608 212.465 183.608C212.254 183.608 212.113 183.561 212.066 183.514C211.996 183.421 212.066 182.881 212.652 182.178C212.863 181.92 212.887 181.545 212.676 181.263L209.815 177.324C209.674 177.137 209.44 177.019 209.205 177.019C209.088 177.019 208.971 177.043 208.854 177.113C207.587 177.77 206.251 178.192 204.844 178.356C204.469 178.403 204.187 178.708 204.187 179.106V183.913C204.187 184.241 204.422 184.546 204.75 184.64C205.665 184.874 206.016 185.25 206.016 185.39C206.016 185.672 204.985 186.305 203.273 186.305C202.452 186.305 201.678 186.164 201.139 185.883C200.694 185.672 200.553 185.461 200.553 185.39C200.553 185.273 200.928 184.874 201.819 184.64C202.147 184.546 202.382 184.265 202.382 183.913V179.059C202.382 178.684 202.1 178.379 201.749 178.332C200.342 178.121 199.005 177.676 197.763 176.972C197.645 176.902 197.528 176.879 197.411 176.879C197.176 176.879 196.942 176.996 196.801 177.183L193.94 181.029C193.753 181.31 193.753 181.685 193.964 181.943C194.55 182.67 194.62 183.186 194.55 183.28C194.527 183.327 194.386 183.374 194.152 183.374C193.518 183.374 192.604 182.999 191.783 182.412C190.4 181.404 189.931 180.279 190.095 180.068C190.118 180.021 190.259 179.974 190.494 179.974C190.798 179.974 191.15 180.068 191.572 180.208C191.666 180.232 191.76 180.255 191.854 180.255C192.088 180.255 192.323 180.138 192.463 179.95L195.324 176.011C195.535 175.706 195.512 175.308 195.254 175.05C194.245 174.065 193.425 172.892 192.838 171.626C192.721 171.368 192.463 171.204 192.158 171.204C192.088 171.204 191.994 171.228 191.924 171.251L187.352 172.728C187.023 172.822 186.812 173.15 186.836 173.479C186.883 174.417 186.648 174.885 186.531 174.909H186.507C186.179 174.909 185.312 174.135 184.819 172.588C184.585 171.861 184.491 171.11 184.538 170.501C184.585 169.961 184.749 169.727 184.843 169.68H184.866C185.03 169.68 185.476 169.938 185.945 170.665C186.085 170.876 186.32 171.017 186.578 171.017C186.648 171.017 186.742 170.993 186.812 170.97L191.432 169.469C191.783 169.352 191.994 169 191.924 168.648C191.807 168.015 191.76 167.359 191.76 166.702C191.76 165.952 191.83 165.178 191.971 164.451C192.041 164.076 191.83 163.724 191.478 163.607L186.906 162.13C186.836 162.106 186.765 162.083 186.672 162.083C186.414 162.083 186.179 162.2 186.038 162.434C185.593 163.138 185.147 163.419 184.96 163.419H184.936C184.866 163.396 184.702 163.185 184.655 162.692C184.585 162.083 184.678 161.309 184.913 160.535C185.405 158.988 186.273 158.214 186.601 158.214H186.625C186.742 158.261 187 158.706 186.929 159.644C186.906 159.972 187.117 160.301 187.445 160.394L192.065 161.895C192.135 161.919 192.205 161.942 192.299 161.942C192.58 161.942 192.838 161.778 192.956 161.52C193.589 160.254 194.433 159.128 195.465 158.143C195.746 157.885 195.769 157.463 195.558 157.159L192.721 153.266C192.58 153.079 192.346 152.961 192.112 152.961C192.018 152.961 191.924 152.985 191.83 153.008C191.432 153.172 191.056 153.243 190.752 153.243C190.517 153.243 190.376 153.196 190.353 153.149C190.306 153.102 190.306 152.821 190.54 152.399C190.845 151.859 191.361 151.297 192.041 150.804C192.838 150.218 193.776 149.843 194.409 149.843C194.62 149.843 194.761 149.89 194.808 149.937C194.878 150.03 194.808 150.57 194.222 151.273C194.011 151.531 193.987 151.906 194.198 152.188L197.059 156.127C197.2 156.314 197.434 156.432 197.669 156.432C197.786 156.432 197.903 156.408 198.02 156.338C199.287 155.681 200.623 155.259 202.03 155.095C202.405 155.048 202.687 154.743 202.687 154.345V149.538C202.687 149.21 202.452 148.905 202.124 148.811C201.209 148.577 200.858 148.201 200.858 148.061C200.858 147.779 201.889 147.146 203.601 147.146C205.313 147.146 206.345 147.779 206.345 148.061C206.345 148.178 205.969 148.577 205.078 148.811C204.75 148.905 204.516 149.186 204.516 149.538V154.392C204.516 154.767 204.797 155.072 205.149 155.119C206.556 155.33 207.892 155.775 209.135 156.479C209.252 156.549 209.369 156.572 209.487 156.572C209.721 156.572 209.956 156.455 210.096 156.268L212.934 152.375C213.121 152.094 213.121 151.719 212.91 151.461C212.324 150.734 212.254 150.218 212.324 150.124C212.347 150.077 212.488 150.03 212.723 150.03C213.356 150.03 214.27 150.405 215.091 150.992C215.747 151.484 216.287 152.047 216.592 152.586C216.826 153.032 216.826 153.29 216.779 153.337C216.756 153.383 216.615 153.43 216.38 153.43C216.076 153.43 215.7 153.337 215.302 153.196C215.208 153.172 215.114 153.149 215.02 153.149C214.786 153.149 214.552 153.266 214.411 153.454L211.527 157.37C211.316 157.674 211.339 158.073 211.597 158.331C212.605 159.316 213.426 160.488 214.012 161.754C214.129 162.012 214.387 162.177 214.692 162.177C214.763 162.177 214.856 162.153 214.927 162.13L219.499 160.652C219.827 160.559 220.038 160.23 220.015 159.902C219.968 158.964 220.203 158.495 220.32 158.472H220.343C220.672 158.472 221.539 159.245 222.032 160.793C222.289 161.567 222.383 162.341 222.289 162.95C222.219 163.443 222.055 163.654 221.985 163.677C221.985 163.677 221.985 163.677 221.961 163.677C221.797 163.677 221.352 163.419 220.883 162.692C220.742 162.481 220.507 162.341 220.249 162.341C220.179 162.341 220.085 162.364 220.015 162.388L215.396 163.888C215.044 164.005 214.833 164.357 214.88 164.709C214.997 165.342 215.044 165.999 215.044 166.655C215.044 167.405 214.974 168.179 214.833 168.906C214.763 169.281 214.974 169.633 215.325 169.75L219.898 171.228C219.968 171.251 220.038 171.274 220.132 171.274C220.484 171.321 220.718 171.204 220.836 170.993Z" fill="white"/>
<path d="M222.032 165.201C222.196 165.201 222.36 165.178 222.524 165.131C223.227 164.897 223.696 164.217 223.837 163.185C223.954 162.364 223.837 161.356 223.509 160.371C222.852 158.354 221.609 157.018 220.39 157.018C220.226 157.018 220.062 157.041 219.898 157.088C219.1 157.346 218.608 158.214 218.561 159.457L215.114 160.582C214.575 159.55 213.918 158.612 213.121 157.768L215.278 154.79C215.654 154.884 216.005 154.954 216.334 154.954C217.225 154.954 217.694 154.579 217.928 154.251C218.374 153.641 218.327 152.821 217.834 151.906C217.436 151.179 216.756 150.429 215.912 149.819C214.833 149.045 213.614 148.577 212.676 148.577C211.785 148.577 211.316 148.952 211.081 149.28C210.589 149.96 210.683 150.945 211.386 151.977L209.252 154.908C208.22 154.392 207.118 154.017 205.969 153.805V150.124C207.118 149.702 207.798 148.975 207.798 148.108C207.798 147.357 207.306 146.701 206.368 146.255C205.618 145.903 204.633 145.692 203.578 145.692C202.546 145.692 201.561 145.88 200.787 146.255C199.849 146.701 199.357 147.357 199.357 148.108C199.357 148.952 200.037 149.679 201.186 150.124V153.759C200.037 153.946 198.935 154.298 197.88 154.79L195.699 151.812C196.379 150.781 196.496 149.796 196.004 149.116C195.769 148.788 195.3 148.412 194.409 148.412C193.448 148.412 192.252 148.881 191.174 149.655C190.329 150.265 189.649 151.015 189.251 151.742C188.758 152.657 188.735 153.477 189.157 154.087C189.392 154.415 189.86 154.79 190.752 154.79C191.08 154.79 191.432 154.743 191.807 154.626L193.94 157.557C193.143 158.378 192.44 159.316 191.877 160.324L188.383 159.175C188.336 157.932 187.844 157.088 187.047 156.807C186.883 156.76 186.718 156.737 186.554 156.737C185.358 156.737 184.092 158.097 183.436 160.09C183.107 161.074 182.99 162.083 183.107 162.903C183.248 163.935 183.717 164.615 184.42 164.85C184.585 164.897 184.749 164.92 184.913 164.92C185.593 164.92 186.296 164.498 186.906 163.724L190.353 164.85C190.259 165.483 190.212 166.116 190.212 166.749C190.212 167.265 190.236 167.781 190.306 168.297L186.789 169.445C186.179 168.672 185.476 168.25 184.796 168.25C184.632 168.25 184.467 168.273 184.303 168.32C183.6 168.554 183.131 169.234 182.99 170.266C182.873 171.087 182.99 172.095 183.318 173.08C183.975 175.097 185.218 176.433 186.437 176.433C186.601 176.433 186.765 176.41 186.929 176.363C187.75 176.105 188.219 175.237 188.266 173.994L191.713 172.869C192.252 173.901 192.909 174.839 193.706 175.683L191.549 178.661C191.174 178.567 190.822 178.497 190.494 178.497C189.603 178.497 189.134 178.872 188.899 179.2C188.454 179.81 188.5 180.63 188.993 181.545C189.392 182.272 190.072 183.022 190.916 183.632C191.994 184.405 193.214 184.874 194.152 184.874C195.043 184.874 195.512 184.499 195.746 184.171C196.238 183.491 196.145 182.506 195.441 181.474L197.575 178.543C198.607 179.059 199.709 179.434 200.858 179.645V183.327C199.709 183.749 199.029 184.476 199.029 185.343C199.029 186.094 199.521 186.75 200.459 187.196C201.209 187.548 202.194 187.759 203.249 187.759C204.281 187.759 205.266 187.571 206.04 187.196C206.978 186.75 207.47 186.094 207.47 185.343C207.47 184.499 206.79 183.772 205.641 183.327V179.692C206.79 179.505 207.892 179.153 208.947 178.661L211.128 181.639C210.448 182.67 210.331 183.655 210.823 184.335C211.058 184.663 211.527 185.039 212.418 185.039C213.379 185.039 214.575 184.57 215.654 183.796C216.498 183.186 217.178 182.436 217.576 181.709C218.069 180.794 218.092 179.974 217.67 179.364C217.436 179.036 216.967 178.661 216.076 178.661C215.747 178.661 215.396 178.708 215.02 178.825L212.887 175.894C213.684 175.073 214.387 174.135 214.95 173.127L218.444 174.252C218.491 175.495 218.983 176.339 219.78 176.597C219.921 176.644 220.085 176.668 220.273 176.668C221.492 176.668 222.735 175.331 223.392 173.314C223.72 172.33 223.837 171.321 223.72 170.501C223.579 169.469 223.11 168.789 222.407 168.554C222.243 168.508 222.078 168.484 221.914 168.484C221.234 168.484 220.531 168.906 219.921 169.68L216.474 168.554C216.568 167.921 216.615 167.288 216.615 166.655C216.615 166.139 216.592 165.623 216.521 165.108L220.038 163.959C220.648 164.779 221.352 165.201 222.032 165.201ZM220.836 170.993C221.305 170.266 221.727 170.008 221.914 170.008H221.938C222.032 170.032 222.196 170.29 222.243 170.829C222.289 171.439 222.196 172.165 221.961 172.916C221.469 174.463 220.601 175.237 220.273 175.237C220.249 175.237 220.249 175.237 220.249 175.237C220.132 175.19 219.874 174.745 219.945 173.807C219.968 173.479 219.757 173.15 219.429 173.057L214.809 171.556C214.739 171.532 214.669 171.509 214.575 171.509C214.294 171.509 214.036 171.673 213.918 171.931C213.285 173.197 212.441 174.323 211.409 175.308C211.128 175.565 211.105 175.988 211.316 176.292L214.153 180.185C214.294 180.372 214.528 180.49 214.763 180.49C214.856 180.49 214.95 180.466 215.044 180.443C215.443 180.279 215.818 180.208 216.123 180.208C216.357 180.208 216.498 180.255 216.521 180.302C216.685 180.537 216.216 181.662 214.833 182.647C214.036 183.233 213.098 183.608 212.465 183.608C212.254 183.608 212.113 183.561 212.066 183.514C211.996 183.421 212.066 182.881 212.652 182.178C212.863 181.92 212.887 181.545 212.676 181.263L209.815 177.324C209.674 177.137 209.44 177.019 209.205 177.019C209.088 177.019 208.971 177.043 208.854 177.113C207.587 177.77 206.251 178.192 204.844 178.356C204.469 178.403 204.187 178.708 204.187 179.106V183.913C204.187 184.241 204.422 184.546 204.75 184.64C205.665 184.874 206.016 185.25 206.016 185.39C206.016 185.672 204.985 186.305 203.273 186.305C202.452 186.305 201.678 186.164 201.139 185.883C200.694 185.672 200.553 185.461 200.553 185.39C200.553 185.273 200.928 184.874 201.819 184.64C202.147 184.546 202.382 184.265 202.382 183.913V179.059C202.382 178.684 202.1 178.379 201.749 178.332C200.342 178.121 199.005 177.676 197.763 176.972C197.645 176.902 197.528 176.879 197.411 176.879C197.176 176.879 196.942 176.996 196.801 177.183L193.94 181.029C193.753 181.31 193.753 181.685 193.964 181.943C194.55 182.67 194.62 183.186 194.55 183.28C194.527 183.327 194.386 183.374 194.152 183.374C193.518 183.374 192.604 182.999 191.783 182.412C190.4 181.404 189.931 180.279 190.095 180.068C190.118 180.021 190.259 179.974 190.494 179.974C190.798 179.974 191.15 180.068 191.572 180.208C191.666 180.232 191.76 180.255 191.854 180.255C192.088 180.255 192.323 180.138 192.463 179.95L195.324 176.011C195.535 175.706 195.512 175.308 195.254 175.05C194.245 174.065 193.425 172.892 192.838 171.626C192.721 171.368 192.463 171.204 192.158 171.204C192.088 171.204 191.994 171.228 191.924 171.251L187.352 172.728C187.023 172.822 186.812 173.15 186.836 173.479C186.883 174.417 186.648 174.885 186.531 174.909H186.507C186.179 174.909 185.312 174.135 184.819 172.588C184.585 171.861 184.491 171.11 184.538 170.501C184.585 169.961 184.749 169.727 184.843 169.68H184.866C185.03 169.68 185.476 169.938 185.945 170.665C186.085 170.876 186.32 171.017 186.578 171.017C186.648 171.017 186.742 170.993 186.812 170.97L191.432 169.469C191.783 169.352 191.994 169 191.924 168.648C191.807 168.015 191.76 167.359 191.76 166.702C191.76 165.952 191.83 165.178 191.971 164.451C192.041 164.076 191.83 163.724 191.478 163.607L186.906 162.13C186.836 162.106 186.765 162.083 186.672 162.083C186.414 162.083 186.179 162.2 186.038 162.434C185.593 163.138 185.147 163.419 184.96 163.419H184.936C184.866 163.396 184.702 163.185 184.655 162.692C184.585 162.083 184.678 161.309 184.913 160.535C185.405 158.988 186.273 158.214 186.601 158.214H186.625C186.742 158.261 187 158.706 186.929 159.644C186.906 159.972 187.117 160.301 187.445 160.394L192.065 161.895C192.135 161.919 192.205 161.942 192.299 161.942C192.58 161.942 192.838 161.778 192.956 161.52C193.589 160.254 194.433 159.128 195.465 158.143C195.746 157.885 195.769 157.463 195.558 157.159L192.721 153.266C192.58 153.079 192.346 152.961 192.112 152.961C192.018 152.961 191.924 152.985 191.83 153.008C191.432 153.172 191.056 153.243 190.752 153.243C190.517 153.243 190.376 153.196 190.353 153.149C190.306 153.102 190.306 152.821 190.54 152.399C190.845 151.859 191.361 151.297 192.041 150.804C192.838 150.218 193.776 149.843 194.409 149.843C194.62 149.843 194.761 149.89 194.808 149.937C194.878 150.03 194.808 150.57 194.222 151.273C194.011 151.531 193.987 151.906 194.198 152.188L197.059 156.127C197.2 156.314 197.434 156.432 197.669 156.432C197.786 156.432 197.903 156.408 198.02 156.338C199.287 155.681 200.623 155.259 202.03 155.095C202.405 155.048 202.687 154.743 202.687 154.345V149.538C202.687 149.21 202.452 148.905 202.124 148.811C201.209 148.577 200.858 148.201 200.858 148.061C200.858 147.779 201.889 147.146 203.601 147.146C205.313 147.146 206.345 147.779 206.345 148.061C206.345 148.178 205.969 148.577 205.078 148.811C204.75 148.905 204.516 149.186 204.516 149.538V154.392C204.516 154.767 204.797 155.072 205.149 155.119C206.556 155.33 207.892 155.775 209.135 156.479C209.252 156.549 209.369 156.572 209.487 156.572C209.721 156.572 209.956 156.455 210.096 156.268L212.934 152.375C213.121 152.094 213.121 151.719 212.91 151.461C212.324 150.734 212.254 150.218 212.324 150.124C212.347 150.077 212.488 150.03 212.723 150.03C213.356 150.03 214.27 150.405 215.091 150.992C215.747 151.484 216.287 152.047 216.592 152.586C216.826 153.032 216.826 153.29 216.779 153.337C216.756 153.383 216.615 153.43 216.38 153.43C216.076 153.43 215.7 153.337 215.302 153.196C215.208 153.172 215.114 153.149 215.02 153.149C214.786 153.149 214.552 153.266 214.411 153.454L211.527 157.37C211.316 157.674 211.339 158.073 211.597 158.331C212.605 159.316 213.426 160.488 214.012 161.754C214.129 162.012 214.387 162.177 214.692 162.177C214.763 162.177 214.856 162.153 214.927 162.13L219.499 160.652C219.827 160.559 220.038 160.23 220.015 159.902C219.968 158.964 220.203 158.495 220.32 158.472H220.343C220.672 158.472 221.539 159.245 222.032 160.793C222.289 161.567 222.383 162.341 222.289 162.95C222.219 163.443 222.055 163.654 221.985 163.677C221.985 163.677 221.985 163.677 221.961 163.677C221.797 163.677 221.352 163.419 220.883 162.692C220.742 162.481 220.507 162.341 220.249 162.341C220.179 162.341 220.085 162.364 220.015 162.388L215.396 163.888C215.044 164.005 214.833 164.357 214.88 164.709C214.997 165.342 215.044 165.999 215.044 166.655C215.044 167.405 214.974 168.179 214.833 168.906C214.763 169.281 214.974 169.633 215.325 169.75L219.898 171.228C219.968 171.251 220.038 171.274 220.132 171.274C220.484 171.321 220.718 171.204 220.836 170.993Z" stroke="white" stroke-width="0.689266" mask="url(#path-12-outside-1_503_206)"/>
<path d="M203.719 156.283C201.982 156.283 200.569 157.697 200.569 159.433C200.569 161.17 201.982 162.584 203.719 162.584C205.455 162.584 206.869 161.17 206.869 159.433C206.869 157.697 205.455 156.283 203.719 156.283ZM203.719 160.762C202.993 160.762 202.391 160.159 202.391 159.433C202.391 158.708 202.993 158.105 203.719 158.105C204.444 158.105 205.047 158.708 205.047 159.433C205.047 160.159 204.444 160.762 203.719 160.762Z" fill="white" stroke="white" stroke-width="0.344633"/>
<path d="M199.419 162.735L199.419 162.735L199.418 162.733C199.045 161.988 198.375 161.417 197.58 161.169L197.58 161.169L197.579 161.168C197.259 161.07 196.937 161.02 196.614 161.02C195.251 161.02 194.036 161.887 193.613 163.202C193.341 163.997 193.415 164.866 193.811 165.609C194.184 166.354 194.854 166.924 195.648 167.172L195.649 167.172C195.97 167.271 196.291 167.321 196.614 167.321C197.978 167.321 199.194 166.453 199.616 165.137L199.616 165.136C199.864 164.342 199.789 163.499 199.419 162.735ZM196.614 165.475C196.47 165.475 196.346 165.455 196.195 165.412C195.87 165.31 195.599 165.064 195.43 164.746L195.43 164.746L195.427 164.741C195.268 164.463 195.242 164.116 195.348 163.754C195.537 163.213 196.036 162.842 196.614 162.842C196.758 162.842 196.882 162.862 197.032 162.905C197.717 163.135 198.107 163.882 197.881 164.56C197.693 165.103 197.194 165.475 196.614 165.475Z" fill="white" stroke="white" stroke-width="0.344633"/>
<path d="M196.359 170.538L196.359 170.538L196.356 170.542C195.862 171.234 195.663 172.053 195.787 172.894C195.911 173.739 196.359 174.46 197.052 174.955C197.599 175.353 198.244 175.551 198.912 175.551C199.93 175.551 200.871 175.054 201.465 174.262L201.465 174.262L201.467 174.259C201.962 173.566 202.161 172.748 202.037 171.906C201.913 171.062 201.465 170.341 200.771 169.845C200.225 169.448 199.579 169.25 198.912 169.25C197.894 169.25 196.953 169.746 196.359 170.538ZM200.243 172.196C200.305 172.547 200.223 172.898 200.016 173.19C199.766 173.522 199.371 173.729 198.935 173.729C198.644 173.729 198.398 173.647 198.169 173.48L198.168 173.479C197.879 173.273 197.691 172.962 197.628 172.605L197.628 172.605L197.626 172.595C197.546 172.257 197.643 171.909 197.855 171.611C198.105 171.279 198.499 171.072 198.935 171.072C199.227 171.072 199.473 171.154 199.701 171.32L199.701 171.32L199.703 171.321C199.992 171.528 200.18 171.839 200.243 172.196Z" fill="white" stroke="white" stroke-width="0.344633"/>
<path d="M204.892 174.612L204.893 174.612C205.489 175.432 206.432 175.903 207.447 175.903C208.115 175.903 208.76 175.705 209.307 175.307L209.308 175.306C210.719 174.267 211.044 172.307 210.001 170.892C209.406 170.073 208.462 169.602 207.447 169.602C206.78 169.602 206.134 169.8 205.588 170.198C204.172 171.216 203.877 173.2 204.892 174.612ZM208.238 173.808L208.238 173.808L208.237 173.809C208.009 173.974 207.74 174.057 207.471 174.057C207.057 174.057 206.639 173.849 206.39 173.518C206.183 173.227 206.101 172.876 206.163 172.524C206.226 172.167 206.414 171.856 206.703 171.65L206.703 171.65L206.704 171.649C206.932 171.483 207.201 171.401 207.471 171.401C207.885 171.401 208.302 171.609 208.551 171.94C208.758 172.231 208.84 172.582 208.778 172.933C208.715 173.291 208.527 173.601 208.238 173.808Z" fill="white" stroke="white" stroke-width="0.344633"/>
<path d="M213.427 163.744L213.427 163.744L213.426 163.742C213.005 162.427 211.788 161.559 210.425 161.559C210.104 161.559 209.757 161.608 209.456 161.708L209.456 161.708L209.455 161.709C208.666 161.98 207.995 162.524 207.621 163.272C207.25 164.015 207.175 164.881 207.423 165.675L207.423 165.675L207.424 165.676C207.846 166.991 209.062 167.859 210.425 167.859C210.746 167.859 211.093 167.81 211.394 167.71L211.394 167.71L211.396 167.709C212.183 167.438 212.854 166.895 213.228 166.148C213.626 165.4 213.673 164.556 213.427 163.744ZM210.425 166.061C209.846 166.061 209.347 165.689 209.158 165.147C209.054 164.812 209.077 164.44 209.241 164.133C209.407 163.822 209.677 163.592 210.014 163.464C210.133 163.425 210.277 163.404 210.425 163.404C211.004 163.404 211.503 163.775 211.692 164.317C211.795 164.65 211.774 165 211.608 165.333C211.443 165.643 211.174 165.872 210.84 165.999C210.692 166.041 210.546 166.061 210.425 166.061Z" fill="white" stroke="white" stroke-width="0.344633"/>
<path d="M200.536 165.463L200.536 165.463L200.536 165.463C200.215 166.229 200.188 167.098 200.512 167.87C200.834 168.663 201.43 169.258 202.195 169.603L202.195 169.603L202.197 169.604C202.596 169.779 203.019 169.853 203.438 169.853C204.702 169.853 205.844 169.109 206.34 167.942L206.34 167.942C207.01 166.354 206.266 164.495 204.679 163.801C204.279 163.626 203.857 163.552 203.438 163.552C202.174 163.552 201.032 164.296 200.536 165.463ZM202.212 166.162L202.213 166.162C202.421 165.683 202.9 165.351 203.438 165.351C203.62 165.351 203.786 165.391 203.959 165.455C204.293 165.603 204.538 165.85 204.66 166.177C204.786 166.513 204.785 166.865 204.64 167.196L204.64 167.197C204.432 167.676 203.953 168.007 203.415 168.007C203.232 168.007 203.067 167.968 202.893 167.903C202.559 167.755 202.315 167.508 202.192 167.181C202.066 166.845 202.067 166.493 202.212 166.162Z" fill="white" stroke="white" stroke-width="0.344633"/>
<path d="M185.639 138.907H178.261V131.529C178.261 130.982 177.779 130.536 177.245 130.536H171.289C170.755 130.536 170.272 130.982 170.272 131.529V138.907H162.824C162.287 138.907 161.808 139.356 161.808 139.924V145.95C161.808 146.481 162.251 146.99 162.824 146.99H170.272V154.368C170.272 154.908 170.748 155.384 171.289 155.384H177.245C177.785 155.384 178.261 154.908 178.261 154.368V146.99H185.639C186.183 146.99 186.656 146.511 186.656 145.95V139.924C186.656 139.356 186.177 138.907 185.639 138.907ZM184.646 145.004H177.221C176.684 145.004 176.252 145.406 176.252 145.973V153.398H172.235V145.973C172.235 145.436 171.833 145.004 171.265 145.004H163.747V140.917H171.265C171.806 140.917 172.235 140.488 172.235 139.947V132.546H176.252V139.947C176.252 140.488 176.681 140.917 177.221 140.917H184.646V145.004Z" fill="white" stroke="white" stroke-width="0.344633"/>
<path d="M206.346 112.679L206.347 112.682C206.348 112.686 206.35 112.691 206.352 112.7C206.415 112.944 207.042 115.366 207.36 119.37C207.666 123.18 207.76 129.222 206.396 136.392C206.09 138.015 205.714 139.636 205.292 141.257L205.291 141.258C205.18 141.677 204.81 142 204.342 141.972C203.673 141.943 203.217 141.325 203.388 140.7C203.808 139.109 204.159 137.566 204.44 136.117L206.346 112.679ZM206.346 112.679C206.262 112.368 206.035 112.113 205.723 111.999L205.721 111.999M206.346 112.679L205.721 111.999M205.721 111.999L174.538 101.05C174.538 101.049 174.537 101.049 174.537 101.049C174.316 100.966 174.084 100.963 173.876 101.05L142.719 112.022L142.719 112.022M205.721 111.999L142.719 112.022M142.719 112.022L142.717 112.023M142.719 112.022L142.717 112.023M142.717 112.023C142.405 112.136 142.178 112.392 142.094 112.702L142.094 112.702M142.717 112.023L142.094 112.702M142.094 112.702L142.093 112.706M142.094 112.702L142.093 112.706M142.093 112.706C142.092 112.709 142.09 112.716 142.088 112.725C142.022 112.977 141.398 115.376 141.08 119.393C140.774 123.203 140.68 129.245 142.044 136.416C143.572 144.455 146.557 152.259 150.929 159.592L150.929 159.592M142.093 112.706L150.929 159.592M150.929 159.592C156.381 168.733 164.016 177.189 173.62 184.68C173.801 184.83 174.031 184.883 174.243 184.883C174.465 184.883 174.664 184.826 174.859 184.686L174.86 184.686M150.929 159.592L174.86 184.686M174.86 184.686L174.865 184.682M174.86 184.686L174.865 184.682M174.865 184.682C177.12 182.921 179.257 181.112 181.277 179.257C181.584 178.977 181.67 178.516 181.497 178.13M174.865 184.682L181.497 178.13M181.497 178.13V178.1L181.476 178.062C181.166 177.499 180.405 177.354 179.921 177.781L179.919 177.783C178.147 179.394 176.263 181.027 174.244 182.615C153.446 166.159 146.311 148.253 144 136.117L144 136.116C142.667 129.171 142.761 123.302 143.042 119.607C143.267 116.677 143.688 114.595 143.885 113.699L174.22 103.035L204.555 113.699C204.752 114.594 205.173 116.654 205.399 119.608L205.399 119.609C205.702 123.301 205.773 129.147 204.44 136.116L181.497 178.13Z" fill="white" stroke="white" stroke-width="0.344633"/>
<path d="M201.708 116.825L201.708 116.826C202.203 120.24 202.767 127.271 201.05 135.9C200.674 137.827 200.205 139.73 199.641 141.633C199.553 142.005 199.239 142.288 198.868 142.345L198.854 142.347H198.841H198.831C198.128 142.45 197.54 141.8 197.737 141.097L197.738 141.094C198.276 139.27 198.744 137.399 199.118 135.529C200.692 127.636 200.295 121.142 199.834 117.682L174.244 108.686L148.631 117.705C148.193 121.071 147.796 127.356 149.253 135.038L149.253 135.038C150.609 142.239 153.298 149.231 157.228 155.827C161.462 162.9 167.18 169.583 174.245 175.69C175.492 174.621 176.694 173.529 177.853 172.416L177.854 172.415C178.391 171.906 179.276 172.131 179.475 172.871L179.481 172.893V172.913C179.583 173.257 179.463 173.615 179.22 173.858L179.217 173.861C177.831 175.176 176.375 176.492 174.871 177.76L174.86 177.769L174.86 177.769C174.673 177.903 174.451 177.989 174.221 177.989C174.003 177.989 173.772 177.933 173.57 177.76C173.569 177.76 173.569 177.76 173.569 177.76L173.681 177.629C166.178 171.274 160.105 164.24 155.65 156.76L201.708 116.825ZM201.708 116.825C201.652 116.46 201.4 116.147 201.054 116.031C201.054 116.031 201.054 116.031 201.053 116.031L174.539 106.7C174.539 106.7 174.538 106.7 174.537 106.7C174.316 106.617 174.085 106.614 173.877 106.701L147.388 116.031C147.388 116.031 147.387 116.031 147.387 116.031C147.041 116.147 146.789 116.46 146.733 116.825L146.733 116.825L146.733 116.827C146.262 120.145 145.674 126.965 147.273 135.407L147.273 135.407C148.684 142.837 151.435 150.055 155.502 156.848L201.708 116.825Z" fill="white" stroke="white" stroke-width="0.344633"/>
</g>
<defs>
<filter id="filter0_d_503_206" x="0" y="0" width="361" height="357" filterUnits="userSpaceOnUse" color-interpolation-filters="sRGB">
<feFlood flood-opacity="0" result="BackgroundImageFix"/>
<feColorMatrix in="SourceAlpha" type="matrix" values="0 0 0 0 0 0 0 0 0 0 0 0 0 0 0 0 0 0 127 0" result="hardAlpha"/>
<feOffset dx="2" dy="2"/>
<feGaussianBlur stdDeviation="2"/>
<feComposite in2="hardAlpha" operator="out"/>
<feColorMatrix type="matrix" values="0 0 0 0 0 0 0 0 0 0 0 0 0 0 0 0 0 0 0.25 0"/>
<feBlend mode="normal" in2="BackgroundImageFix" result="effect1_dropShadow_503_206"/>
<feBlend mode="normal" in="SourceGraphic" in2="effect1_dropShadow_503_206" result="shape"/>
</filter>
<linearGradient id="paint0_linear_503_206" x1="144.488" y1="202.766" x2="213.512" y2="83.2345" gradientUnits="userSpaceOnUse">
<stop stop-color="#7F2082"/>
<stop offset="0.27" stop-color="#982F7A"/>
<stop offset="0.84" stop-color="#D95566"/>
<stop offset="1" stop-color="#EC6161"/>
</linearGradient>
<clipPath id="clip0_503_206">
<rect width="138" height="138" fill="white" transform="translate(110 74)"/>
</clipPath>
</defs>
</svg>
