<svg width="36" height="36" viewBox="0 0 36 36" fill="none" xmlns="http://www.w3.org/2000/svg">
<path d="M18 36C27.9411 36 36 27.9411 36 18C36 8.05888 27.9411 0 18 0C8.05888 0 0 8.05888 0 18C0 27.9411 8.05888 36 18 36Z" fill="url(#paint0_linear_58_118)"/>
<path d="M21.1249 19.1658C20.6232 18.568 19.732 18.49 19.1342 18.9916C18.5364 19.4933 18.4584 20.3845 18.96 20.9823L24.4269 27.4975C24.9285 28.0953 25.8198 28.1733 26.4176 27.6717C27.0154 27.1701 27.0934 26.2788 26.5918 25.681L21.1249 19.1658Z" stroke="white" stroke-width="0.92" stroke-linecap="round" stroke-linejoin="round"/>
<path d="M14.2772 18.4047C17.1502 18.4047 19.4792 16.0757 19.4792 13.2027C19.4792 10.3297 17.1502 8.00073 14.2772 8.00073C11.4042 8.00073 9.0752 10.3297 9.0752 13.2027C9.0752 16.0757 11.4042 18.4047 14.2772 18.4047Z" stroke="white" stroke-width="0.92" stroke-linecap="round" stroke-linejoin="round"/>
<path d="M17.8115 17.4146L19.1345 18.9926" stroke="white" stroke-width="0.92" stroke-linecap="round" stroke-linejoin="round"/>
<defs>
<linearGradient id="paint0_linear_58_118" x1="8.997" y1="33.591" x2="27.003" y2="2.409" gradientUnits="userSpaceOnUse">
<stop stop-color="#FF585D"/>
<stop offset="1" stop-color="#FFC100"/>
</linearGradient>
</defs>
</svg>
