<svg width="361" height="357" viewBox="0 0 361 357" fill="none" xmlns="http://www.w3.org/2000/svg">
<g filter="url(#filter0_d_49_1836)">
<rect x="2" y="2" width="353" height="349" rx="19.0804" fill="white"/>
<path d="M179 212C217.108 212 248 181.108 248 143C248 104.892 217.108 74 179 74C140.892 74 110 104.892 110 143C110 181.108 140.892 212 179 212Z" fill="url(#paint0_linear_49_1836)"/>
<path d="M182.312 126.371C179.265 124.83 175.826 123.968 172.181 123.968C159.772 123.968 149.71 134.03 149.71 146.439C149.71 158.847 159.772 168.91 172.181 168.91C184.589 168.91 194.652 158.847 194.652 146.439C194.652 144.116 194.295 141.873 193.64 139.757" stroke="white" stroke-width="2.5" stroke-linecap="round" stroke-linejoin="round"/>
<path d="M193.812 116.757C187.752 112.329 180.277 109.719 172.192 109.719C151.918 109.719 135.484 126.152 135.484 146.427C135.484 166.701 151.918 183.135 172.192 183.135C192.467 183.135 208.9 166.701 208.9 146.427C208.9 140.573 207.532 135.053 205.094 130.143" stroke="white" stroke-width="2.5" stroke-linecap="round" stroke-linejoin="round"/>
<path d="M178.839 140.849L205.209 118.723" stroke="white" stroke-width="2.5" stroke-linecap="round" stroke-linejoin="round"/>
<path d="M215.581 102.853L215.121 110.294L222.527 111.133L212.614 119.448L205.208 118.608L205.668 111.168L215.581 102.853Z" stroke="white" stroke-width="2.5" stroke-linecap="round" stroke-linejoin="round"/>
<path d="M172.192 154.672C176.74 154.672 180.426 150.986 180.426 146.438C180.426 141.891 176.74 138.204 172.192 138.204C167.644 138.204 163.958 141.891 163.958 146.438C163.958 150.986 167.644 154.672 172.192 154.672Z" stroke="white" stroke-width="2.5" stroke-linecap="round" stroke-linejoin="round"/>
<path d="M137.925 273V253.828H130.867V248.738H151.057V253.828H143.931V273H137.925ZM155.932 269.912C158.002 269.912 159.428 268.657 159.428 266.79V264.72C158.715 265.093 157.697 265.365 156.577 265.636C154.439 266.111 153.557 266.654 153.557 267.978C153.557 269.369 154.575 269.912 155.932 269.912ZM154.168 273.441C150.707 273.441 148.229 271.575 148.229 268.148C148.229 264.313 151.283 263.159 154.88 262.684C158.138 262.277 159.292 261.938 159.292 260.75C159.292 259.63 158.579 258.884 156.916 258.884C155.152 258.884 154.27 259.664 154.1 261.123H149.01C149.146 257.9 151.623 255.151 156.882 255.151C159.495 255.151 161.26 255.626 162.515 256.576C164.009 257.662 164.721 259.359 164.721 261.53V270.285C164.721 271.677 164.857 272.457 165.332 272.762V273H159.97C159.699 272.627 159.529 271.948 159.394 271.066H159.326C158.308 272.525 156.781 273.441 154.168 273.441ZM167.402 273V255.626H172.696V258.341H172.798C174.019 256.271 175.445 255.355 177.549 255.355C178.058 255.355 178.397 255.388 178.634 255.49V260.241H178.499C175.105 259.766 172.934 261.429 172.934 265.195V273H167.402ZM188.103 267.944C190.513 267.944 191.633 266.044 191.633 263.6C191.633 261.259 190.411 259.291 188.103 259.291C186.034 259.291 184.676 260.988 184.676 263.634C184.676 266.247 186.034 267.944 188.103 267.944ZM188.137 279.006C183.353 279.006 180.197 277.038 179.654 273.407H185.016C185.321 274.323 186.237 275.104 188.07 275.104C190.411 275.104 191.395 273.882 191.395 271.778V270.048H191.259C190.241 271.202 188.918 272.05 186.814 272.05C182.912 272.05 179.281 269.132 179.281 263.804C179.281 258.714 182.267 255.117 186.576 255.117C188.884 255.117 190.445 256.033 191.463 257.492H191.531V255.626H196.824V271.303C196.824 273.916 195.908 275.816 194.517 277.072C192.99 278.429 190.716 279.006 188.137 279.006ZM207.964 273.509C202.229 273.509 198.7 269.539 198.7 264.279C198.7 259.087 202.331 255.117 207.624 255.117C210.101 255.117 212.07 255.931 213.563 257.289C215.633 259.189 216.651 262.209 216.617 265.738H204.129C204.468 268.08 205.758 269.539 208.031 269.539C209.491 269.539 210.441 268.894 210.916 267.808H216.311C215.938 269.369 214.92 270.862 213.393 271.914C211.934 272.932 210.169 273.509 207.964 273.509ZM204.163 262.447H211.018C210.814 260.377 209.525 259.053 207.726 259.053C205.622 259.053 204.536 260.377 204.163 262.447ZM225.026 273.204C221.802 273.204 219.494 272.152 219.494 268.419V259.087H217.187V255.626H219.494V250.129H224.89V255.626H228.046V259.087H224.89V267.231C224.89 268.589 225.636 268.928 226.824 268.928C227.299 268.928 227.842 268.894 228.046 268.894V272.932C227.571 273.068 226.519 273.204 225.026 273.204Z" fill="#002068"/>
</g>
<defs>
<filter id="filter0_d_49_1836" x="0" y="0" width="361" height="357" filterUnits="userSpaceOnUse" color-interpolation-filters="sRGB">
<feFlood flood-opacity="0" result="BackgroundImageFix"/>
<feColorMatrix in="SourceAlpha" type="matrix" values="0 0 0 0 0 0 0 0 0 0 0 0 0 0 0 0 0 0 127 0" result="hardAlpha"/>
<feOffset dx="2" dy="2"/>
<feGaussianBlur stdDeviation="2"/>
<feComposite in2="hardAlpha" operator="out"/>
<feColorMatrix type="matrix" values="0 0 0 0 0 0 0 0 0 0 0 0 0 0 0 0 0 0 0.25 0"/>
<feBlend mode="normal" in2="BackgroundImageFix" result="effect1_dropShadow_49_1836"/>
<feBlend mode="normal" in="SourceGraphic" in2="effect1_dropShadow_49_1836" result="shape"/>
</filter>
<linearGradient id="paint0_linear_49_1836" x1="144.488" y1="202.766" x2="213.512" y2="83.2345" gradientUnits="userSpaceOnUse">
<stop stop-color="#0460A9"/>
<stop offset="1" stop-color="#50E2D0"/>
</linearGradient>
</defs>
</svg>
