<svg width="24" height="24" viewBox="0 0 24 24" fill="none" xmlns="http://www.w3.org/2000/svg">
<path fill-rule="evenodd" clip-rule="evenodd" d="M2.58579 3.58579C2 4.17157 2 5.11438 2 7V9.1724H12.0859C12.3235 9.1724 12.4563 9.17186 12.5559 9.16429C12.6003 9.16091 12.6245 9.15694 12.6369 9.15436C12.6428 9.15313 12.6459 9.15223 12.6471 9.15188L12.6485 9.15141L12.6498 9.15074C12.6509 9.15018 12.6538 9.1486 12.6588 9.14531C12.6694 9.13836 12.6893 9.12402 12.7231 9.09503C12.7989 9.02996 12.8932 8.93645 13.0612 8.76841L14.8296 7H14.2361C13.6347 7 13.334 7 13.0923 6.85065C12.8507 6.7013 12.7162 6.43234 12.4472 5.89443L12.1056 5.21115C11.5677 4.13531 11.2987 3.5974 10.8154 3.2987C10.3321 3 9.73068 3 8.52786 3H6C4.11438 3 3.17157 3 2.58579 3.58579ZM17.1675 7.00286L14.2316 9.9388L14.1692 10.0014L14.1692 10.0014C13.9159 10.2562 13.6424 10.5313 13.2819 10.6806C12.9214 10.8299 12.5336 10.8288 12.1742 10.8277L12.0859 10.8276H2V15C2 17.8284 2 19.2426 2.87868 20.1213C3.75736 21 5.17157 21 8 21H16C18.8284 21 20.2426 21 21.1213 20.1213C22 19.2426 22 17.8284 22 15V13C22 10.1716 22 8.75736 21.1213 7.87868C20.3729 7.13026 19.236 7.01931 17.1675 7.00286Z" fill="#0460A9"/>
</svg>
