<svg width="52" height="52" viewBox="0 0 52 52" fill="none" xmlns="http://www.w3.org/2000/svg">
<path d="M26 52C40.3594 52 52 40.3594 52 26C52 11.6406 40.3594 0 26 0C11.6406 0 0 11.6406 0 26C0 40.3594 11.6406 52 26 52Z" fill="url(#paint0_linear_49_947)"/>
<path d="M25.4408 34.6015L23.7291 36.3132C21.3891 38.6532 17.5974 38.6532 15.2574 36.3132C12.9174 33.9732 12.9174 30.1815 15.2574 27.8415L27.8371 15.2618C30.1771 12.9218 33.9688 12.9218 36.3088 15.2618C38.6488 17.6018 38.6488 21.3935 36.3088 23.7335L34.7228 25.3195" stroke="white" stroke-width="1.2085" stroke-linecap="round" stroke-linejoin="round"/>
<path d="M26.6715 26.65L21.5625 21.541" stroke="white" stroke-width="1.2085" stroke-linecap="round" stroke-linejoin="round"/>
<path d="M31.7024 38.493C35.4526 38.493 38.4928 35.4529 38.4928 31.7027C38.4928 27.9525 35.4526 24.9124 31.7024 24.9124C27.9522 24.9124 24.9121 27.9525 24.9121 31.7027C24.9121 35.4529 27.9522 38.493 31.7024 38.493Z" stroke="white" stroke-width="1.2085" stroke-linecap="round" stroke-linejoin="round"/>
<path d="M28.6348 34.7705L34.7708 28.6345" stroke="white" stroke-width="1.2085" stroke-linecap="round" stroke-linejoin="round"/>
<defs>
<linearGradient id="paint0_linear_49_947" x1="12.9957" y1="48.5203" x2="39.0043" y2="3.47967" gradientUnits="userSpaceOnUse">
<stop stop-color="#0460A9"/>
<stop offset="1" stop-color="#50E2D0"/>
</linearGradient>
</defs>
</svg>
