<svg width="36" height="36" viewBox="0 0 36 36" fill="none" xmlns="http://www.w3.org/2000/svg">
<path d="M18 36C27.9411 36 36 27.9411 36 18C36 8.05888 27.9411 0 18 0C8.05888 0 0 8.05888 0 18C0 27.9411 8.05888 36 18 36Z" fill="url(#paint0_linear_58_410)"/>
<path d="M27.567 8.67903L27.5671 8.67909L27.7478 8.86013C28.0048 9.11712 28.2087 9.42223 28.3478 9.75803C28.487 10.0938 28.5586 10.4537 28.5586 10.8172C28.5586 11.1807 28.487 11.5406 28.3478 11.8764C28.2087 12.2122 28.0048 12.5173 27.7478 12.7743L14.2512 26.2709C14.2512 26.2709 14.2512 26.2709 14.2512 26.2709C14.2153 26.3069 14.1726 26.3354 14.1256 26.3548C14.0787 26.3742 14.0284 26.3842 13.9776 26.3842L27.567 8.67903ZM27.567 8.67903C27.31 8.42199 27.0049 8.21809 26.669 8.07898C26.3332 7.93986 25.9733 7.86826 25.6098 7.86826C25.2463 7.86826 24.8863 7.93986 24.5505 8.07898C24.2147 8.21809 23.9096 8.42199 23.6525 8.67903L10.1559 22.1756C10.1559 22.1756 10.1559 22.1756 10.1559 22.1757C10.12 22.2116 10.0915 22.2542 10.072 22.3011C10.0526 22.348 10.0426 22.3983 10.0426 22.4491C10.0426 22.4999 10.0526 22.5502 10.072 22.5971C10.0915 22.644 10.12 22.6867 10.1559 22.7226H10.1559L10.1559 22.7226L13.7043 26.2709C13.7043 26.2709 13.7043 26.2709 13.7043 26.2709M27.567 8.67903L13.7043 26.2709M13.7043 26.2709C13.7768 26.3434 13.875 26.3841 13.9775 26.3842L13.7043 26.2709ZM24.1989 9.22621L24.1281 9.1555L24.1989 9.22621C24.3841 9.04099 24.6039 8.89406 24.8459 8.79382C25.0879 8.69358 25.3473 8.64199 25.6092 8.64199C25.8711 8.64199 26.1305 8.69358 26.3725 8.79382C26.6145 8.89406 26.8343 9.04099 27.0195 9.22621L27.0902 9.1555L27.0195 9.22621L27.2006 9.40731L27.2713 9.3366L27.2006 9.40731C27.3859 9.59251 27.5328 9.81239 27.633 10.0544C27.7333 10.2964 27.7849 10.5557 27.7849 10.8176C27.7849 11.0796 27.7333 11.3389 27.633 11.5809C27.5328 11.8229 27.3859 12.0428 27.2006 12.228L13.9776 25.4505L10.9764 22.4492L24.1989 9.22621Z" fill="white" stroke="white" stroke-width="0.2"/>
<path d="M7.75316 28.1723L7.75315 28.1724L8.21783 28.5807L8.25456 28.6737L8.25458 28.6737L14.1191 26.3575C14.1192 26.3574 14.1194 26.3574 14.1195 26.3573C14.1669 26.3389 14.2102 26.3113 14.2469 26.2761C14.2837 26.2409 14.3132 26.1987 14.3336 26.152C14.354 26.1053 14.365 26.055 14.3659 26.004C14.3668 25.953 14.3577 25.9024 14.3389 25.855C14.3202 25.8076 14.2923 25.7643 14.2568 25.7277C14.2213 25.6912 14.1789 25.662 14.132 25.6419L14.0925 25.7337L14.132 25.6419C14.0852 25.6217 14.0348 25.6111 13.9839 25.6105C13.933 25.6099 13.8825 25.6194 13.8354 25.6383C13.8352 25.6384 13.8351 25.6384 13.835 25.6385L8.79957 27.6273L10.7884 22.5919C10.7884 22.5918 10.7885 22.5916 10.7885 22.5915C10.8075 22.5443 10.817 22.4939 10.8164 22.443C10.8158 22.3921 10.8051 22.3417 10.785 22.2949L10.6931 22.3343L10.785 22.2949C10.7649 22.248 10.7357 22.2056 10.6991 22.1701C10.6626 22.1346 10.6193 22.1067 10.5719 22.0879C10.5245 22.0692 10.4738 22.06 10.4229 22.061C10.3719 22.0619 10.3216 22.0729 10.2749 22.0933C10.2282 22.1137 10.186 22.1432 10.1507 22.18C10.1156 22.2167 10.088 22.26 10.0695 22.3074C10.0695 22.3075 10.0695 22.3077 10.0694 22.3078L7.75316 28.1723Z" fill="white" stroke="white" stroke-width="0.2"/>
<path d="M27.0467 13.3149H27.047L27.1132 12.6496L27.1363 12.5523L27.1363 12.5523L24.5126 11.9288L23.9941 9.19249C23.9851 9.1424 23.9662 9.09458 23.9386 9.05179C23.911 9.00885 23.8751 8.97182 23.833 8.94284C23.7909 8.91385 23.7435 8.8935 23.6936 8.88295C23.6436 8.87239 23.592 8.87185 23.5418 8.88136C23.4916 8.89086 23.4438 8.91021 23.4011 8.93831C23.3585 8.9664 23.3218 9.00267 23.2932 9.04502C23.2647 9.08738 23.2448 9.13497 23.2347 9.18505C23.2247 9.23497 23.2246 9.28637 23.2345 9.33631L23.7998 12.3186L23.7998 12.3187C23.8138 12.3919 23.8486 12.4596 23.9001 12.5135C23.9516 12.5674 24.0176 12.6052 24.0901 12.6225L26.9574 13.3045L26.9578 13.3046C26.987 13.3114 27.0168 13.3149 27.0467 13.3149Z" fill="white" stroke="white" stroke-width="0.2"/>
<defs>
<linearGradient id="paint0_linear_58_410" x1="8.997" y1="33.591" x2="27.003" y2="2.409" gradientUnits="userSpaceOnUse">
<stop stop-color="#0460A9"/>
<stop offset="1" stop-color="#50E2D0"/>
</linearGradient>
</defs>
</svg>
