<svg width="37" height="36" viewBox="0 0 37 36" fill="none" xmlns="http://www.w3.org/2000/svg">
<g clip-path="url(#clip0_695_227)">
<path d="M18.875 36C28.8161 36 36.875 27.9411 36.875 18C36.875 8.05888 28.8161 0 18.875 0C8.93388 0 0.875 8.05888 0.875 18C0.875 27.9411 8.93388 36 18.875 36Z" fill="url(#paint0_linear_695_227)"/>
<path d="M10.2832 23.2438V25.5658C10.2832 27.7708 12.0712 29.5558 14.2732 29.5558H23.4772C25.6822 29.5558 27.4672 27.7678 27.4672 25.5658V12.1018L21.7822 6.44678H14.2732C12.0682 6.44678 10.2832 8.23478 10.2832 10.4368V23.3548" stroke="white" stroke-width="0.75" stroke-linecap="round" stroke-linejoin="round"/>
<path d="M21.6855 6.94189V8.34289C21.6855 10.5479 23.4735 12.3329 25.6755 12.3329H27.1575" stroke="white" stroke-width="0.75" stroke-linecap="round" stroke-linejoin="round"/>
<path d="M13.9639 22.0797V24.5517H23.7859V22.0137" stroke="white" stroke-width="0.75" stroke-linecap="round" stroke-linejoin="round"/>
<path d="M18.8721 14.5767V21.8577L21.5061 18.6417" stroke="white" stroke-width="0.75" stroke-linecap="round" stroke-linejoin="round"/>
<path d="M18.8752 21.8576L16.2412 18.6416" stroke="white" stroke-width="0.75" stroke-linecap="round" stroke-linejoin="round"/>
</g>
<defs>
<linearGradient id="paint0_linear_695_227" x1="9.872" y1="33.591" x2="27.878" y2="2.409" gradientUnits="userSpaceOnUse">
<stop stop-color="#8F2DDE"/>
<stop offset="0.23" stop-color="#A535C4"/>
<stop offset="0.72" stop-color="#DD4B83"/>
<stop offset="1" stop-color="#FF585D"/>
</linearGradient>
<clipPath id="clip0_695_227">
<rect width="36" height="36" fill="white" transform="translate(0.875)"/>
</clipPath>
</defs>
</svg>
