<svg width="25" height="26" viewBox="0 0 25 26" fill="none" xmlns="http://www.w3.org/2000/svg">
<path fill-rule="evenodd" clip-rule="evenodd" d="M9.1196 19.6582H15.8807C16.0907 19.6589 16.292 19.7425 16.4405 19.891C16.589 20.0395 16.6728 20.2406 16.6735 20.4506V24.2469C16.6728 24.4569 16.589 24.658 16.4405 24.8065C16.292 24.955 16.0907 25.0386 15.8807 25.0393H9.1196C8.9096 25.0386 8.70839 24.955 8.55987 24.8065C8.41135 24.658 8.32758 24.4569 8.32685 24.2469V20.4506C8.32758 20.2406 8.41135 20.0395 8.55987 19.891C8.70839 19.7425 8.9096 19.6589 9.1196 19.6582ZM12.5002 0C13.8745 9.21309e-05 15.1926 0.546049 16.1645 1.5178C17.1364 2.48956 17.6825 3.80754 17.6828 5.1819C17.6828 5.1965 17.6828 5.21075 17.6828 5.225H19.9477C20.4636 5.22601 20.958 5.43139 21.3228 5.79616C21.6876 6.16094 21.893 6.65539 21.894 7.17126V12.8223C21.891 12.9193 21.8504 13.0113 21.7808 13.0789C21.7111 13.1464 21.6179 13.1842 21.5209 13.1842C21.4239 13.1842 21.3307 13.1464 21.261 13.0789C21.1914 13.0113 21.1508 12.9193 21.1478 12.8223V7.17021C21.1466 6.85254 21.0199 6.54822 20.7953 6.32356C20.5707 6.0989 20.2664 5.97212 19.9488 5.97083H17.6226C17.4434 7.13047 16.8761 8.195 16.0134 8.99042C15.1507 9.78585 14.0438 10.2651 12.8734 10.3499V11.0648C12.8705 11.1618 12.8299 11.2538 12.7602 11.3214C12.6906 11.3889 12.5974 11.4267 12.5003 11.4267C12.4033 11.4267 12.3101 11.3889 12.2405 11.3214C12.1708 11.2538 12.1302 11.1618 12.1273 11.0648V10.3509C10.9569 10.2662 9.84981 9.787 8.98708 8.99157C8.12435 8.19613 7.55697 7.13156 7.3777 5.97188H5.05262C4.73503 5.97343 4.4309 6.1003 4.20637 6.3249C3.98183 6.5495 3.85505 6.85367 3.85359 7.17126V12.8223C3.85511 12.8723 3.8466 12.922 3.82855 12.9685C3.8105 13.0151 3.78329 13.0575 3.74853 13.0934C3.71377 13.1292 3.67216 13.1577 3.62618 13.1772C3.58019 13.1966 3.53077 13.2066 3.48084 13.2066C3.43091 13.2066 3.38149 13.1966 3.33551 13.1772C3.28953 13.1577 3.24792 13.1292 3.21316 13.0934C3.17839 13.0575 3.15118 13.0151 3.13314 12.9685C3.11509 12.922 3.10658 12.8723 3.1081 12.8223V7.17021C3.10911 6.65434 3.31449 6.15989 3.67926 5.79512C4.04404 5.43034 4.53849 5.22497 5.05436 5.22396H7.31827C7.31827 5.20971 7.31827 5.19546 7.31827 5.18086C7.31882 3.8068 7.86498 2.48919 8.83669 1.51768C9.80839 0.546171 11.1261 0.000276304 12.5002 0ZM12.5002 2.28337C12.1794 2.28337 11.8659 2.37849 11.5992 2.5567C11.3325 2.7349 11.1247 2.98819 11.0019 3.28452C10.8792 3.58086 10.8471 3.90694 10.9097 4.22152C10.9723 4.5361 11.1268 4.82505 11.3536 5.05182C11.5804 5.2786 11.8694 5.43302 12.184 5.49555C12.4986 5.55809 12.8247 5.52592 13.121 5.40313C13.4173 5.28034 13.6705 5.07243 13.8487 4.80571C14.0268 4.53898 14.1219 4.22542 14.1218 3.90467C14.1219 3.69172 14.0799 3.48084 13.9985 3.2841C13.917 3.08735 13.7975 2.90858 13.6469 2.75802C13.4963 2.60745 13.3175 2.48804 13.1208 2.4066C12.924 2.32515 12.7131 2.28328 12.5002 2.28337ZM9.26278 8.21528C10.1483 7.40914 11.3027 6.96237 12.5002 6.96237C13.6977 6.96237 14.8521 7.40914 15.7376 8.21528C16.329 7.58398 16.7229 6.79353 16.8709 5.94122C17.0188 5.08892 16.9144 4.21194 16.5703 3.41824C16.2263 2.62454 15.6577 1.94874 14.9346 1.47402C14.2114 0.999304 13.3652 0.746381 12.5002 0.746381C11.6351 0.746381 10.7889 0.999304 10.0658 1.47402C9.34262 1.94874 8.77403 2.62454 8.43 3.41824C8.08597 4.21194 7.98151 5.08892 8.12947 5.94122C8.27744 6.79353 8.67137 7.58398 9.26278 8.21528ZM21.5193 15.1989C21.9383 15.1989 22.348 15.3231 22.6963 15.556C23.0447 15.7888 23.3162 16.1197 23.4765 16.5068C23.6368 16.894 23.6787 17.32 23.5968 17.7309C23.515 18.1419 23.3131 18.5193 23.0167 18.8155C22.7203 19.1117 22.3427 19.3133 21.9317 19.3949C21.5207 19.4765 21.0948 19.4343 20.7077 19.2738C20.3207 19.1133 19.99 18.8415 19.7574 18.493C19.5248 18.1445 19.4008 17.7348 19.401 17.3158C19.4015 16.7541 19.6248 16.2156 20.022 15.8184C20.4191 15.4213 20.9577 15.1979 21.5193 15.1975V15.1989ZM18.6986 20.5511H24.3397C24.5146 20.5518 24.6821 20.6216 24.8058 20.7453C24.9295 20.869 24.9993 21.0365 25 21.2114V24.3786C24.9993 24.5535 24.9295 24.721 24.8058 24.8447C24.6821 24.9684 24.5146 25.0382 24.3397 25.0389H18.6986C18.5237 25.0382 18.3562 24.9684 18.2325 24.8447C18.1088 24.721 18.039 24.5535 18.0383 24.3786V21.2111C18.039 21.0361 18.1088 20.8686 18.2325 20.7449C18.3562 20.6213 18.5237 20.5518 18.6986 20.5511ZM3.48136 15.1989C3.90074 15.1989 4.31069 15.3232 4.65937 15.5563C5.00804 15.7893 5.27977 16.1205 5.44018 16.508C5.60059 16.8955 5.64247 17.3218 5.56053 17.7331C5.47859 18.1444 5.2765 18.5222 4.97984 18.8186C4.68317 19.115 4.30525 19.3168 3.89389 19.3984C3.48254 19.48 3.05621 19.4378 2.66886 19.277C2.28151 19.1163 1.95052 18.8443 1.71778 18.4955C1.48504 18.1466 1.36099 17.7365 1.36134 17.3172C1.3618 16.7552 1.58536 16.2164 1.98289 15.8192C2.38042 15.422 2.9194 15.1989 3.48136 15.1989ZM0.660336 20.5511H6.3017C6.47663 20.5517 6.64422 20.6215 6.76792 20.7452C6.89162 20.8689 6.96139 21.0365 6.96203 21.2114V24.3786C6.96139 24.5535 6.89162 24.7211 6.76792 24.8448C6.64422 24.9685 6.47663 25.0383 6.3017 25.0389H0.660336C0.48543 25.0382 0.317896 24.9684 0.194217 24.8447C0.0705378 24.721 0.000731837 24.5535 0 24.3786V21.2111C0.000731837 21.0361 0.0705378 20.8686 0.194217 20.7449C0.317896 20.6213 0.48543 20.5518 0.660336 20.5511ZM12.5002 13.2443C13.0024 13.2443 13.4933 13.3932 13.9109 13.6722C14.3285 13.9512 14.6539 14.3478 14.8461 14.8118C15.0383 15.2758 15.0885 15.7864 14.9905 16.2789C14.8925 16.7715 14.6507 17.2239 14.2955 17.579C13.9404 17.9341 13.4879 18.1759 12.9953 18.2739C12.5028 18.3718 11.9922 18.3215 11.5282 18.1292C11.0643 17.937 10.6677 17.6115 10.3888 17.1939C10.1098 16.7763 9.96094 16.2853 9.961 15.7831C9.9611 15.1097 10.2287 14.464 10.7048 13.9879C11.181 13.5117 11.8268 13.2443 12.5002 13.2443Z" fill="#002068"/>
</svg>
