<svg width="361" height="357" viewBox="0 0 361 357" fill="none" xmlns="http://www.w3.org/2000/svg">
<g filter="url(#filter0_d_639_324)">
<rect x="2" y="2" width="353" height="349" rx="19.0804" fill="white"/>
<path d="M49.14 273V248.738H57.2162L60.1684 259.359C60.6096 260.886 61.5597 264.89 61.5597 264.89H61.6276C61.6276 264.89 62.5777 260.886 62.9849 259.359L65.9711 248.738H74.1151V273H68.6179V260.784C68.6179 259.8 68.7197 255.931 68.7197 255.931H68.6518C68.6518 255.931 67.8035 259.562 67.532 260.445L64.0368 273H59.0825L55.6213 260.479C55.3498 259.596 54.5015 255.931 54.5015 255.931H54.4336C54.4336 255.931 54.5354 259.834 54.5354 260.818V273H49.14ZM83.9892 269.912C86.0592 269.912 87.4844 268.657 87.4844 266.79V264.72C86.7718 265.093 85.7538 265.365 84.634 265.636C82.4962 266.111 81.6139 266.654 81.6139 267.978C81.6139 269.369 82.6319 269.912 83.9892 269.912ZM82.2247 273.441C78.7635 273.441 76.2863 271.575 76.2863 268.148C76.2863 264.313 79.3403 263.159 82.9373 262.684C86.1949 262.277 87.3487 261.938 87.3487 260.75C87.3487 259.63 86.6361 258.884 84.9733 258.884C83.2088 258.884 82.3265 259.664 82.1568 261.123H77.0668C77.2025 257.9 79.6797 255.151 84.9394 255.151C87.5523 255.151 89.3168 255.626 90.5723 256.576C92.0654 257.662 92.778 259.359 92.778 261.53V270.285C92.778 271.677 92.9138 272.457 93.3888 272.762V273H88.0273C87.7559 272.627 87.5862 271.948 87.4505 271.066H87.3826C86.3646 272.525 84.8376 273.441 82.2247 273.441ZM104.554 269.267C106.657 269.267 107.947 267.469 107.947 264.517C107.947 261.53 106.827 259.562 104.452 259.562C102.042 259.562 100.821 261.7 100.821 264.517C100.821 267.333 102.178 269.267 104.554 269.267ZM95.4593 278.735V255.626H100.753V257.73H100.855C102.042 256.169 103.739 255.117 106.114 255.117C110.729 255.117 113.546 259.087 113.546 264.313C113.546 269.946 110.526 273.543 105.979 273.543C103.739 273.543 102.144 272.661 101.058 271.202H100.99V278.735H95.4593ZM124.503 269.267C126.607 269.267 127.896 267.469 127.896 264.517C127.896 261.53 126.776 259.562 124.401 259.562C121.992 259.562 120.77 261.7 120.77 264.517C120.77 267.333 122.127 269.267 124.503 269.267ZM115.409 278.735V255.626H120.702V257.73H120.804C121.992 256.169 123.688 255.117 126.064 255.117C130.679 255.117 133.495 259.087 133.495 264.313C133.495 269.946 130.475 273.543 125.928 273.543C123.688 273.543 122.093 272.661 121.008 271.202H120.94V278.735H115.409ZM142.246 269.912C144.316 269.912 145.741 268.657 145.741 266.79V264.72C145.029 265.093 144.011 265.365 142.891 265.636C140.753 266.111 139.871 266.654 139.871 267.978C139.871 269.369 140.889 269.912 142.246 269.912ZM140.482 273.441C137.02 273.441 134.543 271.575 134.543 268.148C134.543 264.313 137.597 263.159 141.194 262.684C144.452 262.277 145.606 261.938 145.606 260.75C145.606 259.63 144.893 258.884 143.23 258.884C141.466 258.884 140.584 259.664 140.414 261.123H135.324C135.46 257.9 137.937 255.151 143.196 255.151C145.809 255.151 147.574 255.626 148.829 256.576C150.322 257.662 151.035 259.359 151.035 261.53V270.285C151.035 271.677 151.171 272.457 151.646 272.762V273H146.284C146.013 272.627 145.843 271.948 145.707 271.066H145.64C144.622 272.525 143.095 273.441 140.482 273.441ZM165.331 259.461H169.844C172.219 259.461 173.441 258.341 173.441 256.508C173.441 254.744 172.287 253.488 169.98 253.488H165.331V259.461ZM159.325 273V248.738H170.93C175.748 248.738 179.413 251.215 179.413 255.728C179.413 258.544 178.022 260.614 175.206 261.598V261.7C177.309 262.413 178.395 263.736 178.735 266.145C179.244 269.335 178.904 272.389 179.753 272.695V273H173.916C173.271 272.627 173.373 269.776 173 267.367C172.694 265.127 171.541 263.906 168.962 263.906H165.331V273H159.325ZM190.069 273.509C184.334 273.509 180.805 269.539 180.805 264.279C180.805 259.087 184.436 255.117 189.73 255.117C192.207 255.117 194.175 255.931 195.668 257.289C197.738 259.189 198.756 262.209 198.722 265.738H186.234C186.574 268.08 187.863 269.539 190.137 269.539C191.596 269.539 192.546 268.894 193.021 267.808H198.417C198.043 269.369 197.025 270.862 195.498 271.914C194.039 272.932 192.275 273.509 190.069 273.509ZM186.268 262.447H193.123C192.919 260.377 191.63 259.053 189.831 259.053C187.728 259.053 186.642 260.377 186.268 262.447ZM208.616 267.944C211.025 267.944 212.145 266.044 212.145 263.6C212.145 261.259 210.924 259.291 208.616 259.291C206.546 259.291 205.189 260.988 205.189 263.634C205.189 266.247 206.546 267.944 208.616 267.944ZM208.65 279.006C203.865 279.006 200.71 277.038 200.167 273.407H205.528C205.834 274.323 206.75 275.104 208.582 275.104C210.924 275.104 211.908 273.882 211.908 271.778V270.048H211.772C210.754 271.202 209.43 272.05 207.327 272.05C203.424 272.05 199.793 269.132 199.793 263.804C199.793 258.714 202.779 255.117 207.089 255.117C209.397 255.117 210.957 256.033 211.975 257.492H212.043V255.626H217.337V271.303C217.337 273.916 216.421 275.816 215.03 277.072C213.502 278.429 211.229 279.006 208.65 279.006ZM222.775 248.229C224.506 248.229 225.829 249.45 225.829 251.181C225.829 252.911 224.506 254.133 222.775 254.133C221.045 254.133 219.721 252.911 219.721 251.181C219.721 249.45 221.045 248.229 222.775 248.229ZM219.993 273V255.626H225.524V273H219.993ZM236.695 273.543C231.13 273.543 227.397 269.573 227.397 264.347C227.397 259.121 231.13 255.151 236.695 255.151C242.294 255.151 245.959 259.121 245.959 264.347C245.959 269.573 242.294 273.543 236.695 273.543ZM236.661 269.607C239.071 269.607 240.36 267.503 240.36 264.347C240.36 261.191 239.071 259.053 236.661 259.053C234.252 259.053 232.997 261.191 232.997 264.347C232.997 267.503 234.252 269.607 236.661 269.607ZM247.829 273V255.626H253.157V258.001H253.258C254.548 256.135 256.211 255.117 258.62 255.117C262.42 255.117 264.66 257.832 264.66 261.7V273H259.129V262.82C259.129 260.988 258.213 259.732 256.414 259.732C254.582 259.732 253.36 261.259 253.36 263.397V273H247.829ZM274.07 269.912C276.14 269.912 277.565 268.657 277.565 266.79V264.72C276.853 265.093 275.835 265.365 274.715 265.636C272.577 266.111 271.695 266.654 271.695 267.978C271.695 269.369 272.713 269.912 274.07 269.912ZM272.306 273.441C268.844 273.441 266.367 271.575 266.367 268.148C266.367 264.313 269.421 263.159 273.018 262.684C276.276 262.277 277.43 261.938 277.43 260.75C277.43 259.63 276.717 258.884 275.054 258.884C273.29 258.884 272.407 259.664 272.238 261.123H267.148C267.283 257.9 269.761 255.151 275.02 255.151C277.633 255.151 279.398 255.626 280.653 256.576C282.146 257.662 282.859 259.359 282.859 261.53V270.285C282.859 271.677 282.995 272.457 283.47 272.762V273H278.108C277.837 272.627 277.667 271.948 277.531 271.066H277.464C276.446 272.525 274.919 273.441 272.306 273.441ZM285.574 273V248.738H291.173V273H285.574ZM302.341 273.509C296.607 273.509 293.077 269.539 293.077 264.279C293.077 259.087 296.708 255.117 302.002 255.117C304.479 255.117 306.447 255.931 307.94 257.289C310.01 259.189 311.028 262.209 310.994 265.738H298.507C298.846 268.08 300.136 269.539 302.409 269.539C303.868 269.539 304.818 268.894 305.294 267.808H310.689C310.316 269.369 309.298 270.862 307.771 271.914C306.312 272.932 304.547 273.509 302.341 273.509ZM298.541 262.447H305.395C305.192 260.377 303.902 259.053 302.104 259.053C300 259.053 298.914 260.377 298.541 262.447ZM157.215 314.577C150.768 314.577 146.526 311.726 146.39 306.365H152.43C152.702 308.808 154.297 309.826 157.181 309.826C159.149 309.826 161.083 309.114 161.083 307.281C161.083 305.347 159.115 304.94 155.79 304.125C151.582 303.141 147.137 301.852 147.137 296.762C147.137 291.57 151.345 289.296 156.774 289.296C162.034 289.296 166.106 291.672 166.343 296.762H160.473C160.235 294.895 158.81 293.843 156.57 293.843C154.466 293.843 153.075 294.76 153.075 296.117C153.075 297.814 154.942 298.221 158.572 299.035C163.086 300.087 167.158 301.479 167.158 306.67C167.158 311.76 162.814 314.577 157.215 314.577ZM179.617 314.577C173.169 314.577 168.927 311.726 168.792 306.365H174.832C175.103 308.808 176.698 309.826 179.583 309.826C181.551 309.826 183.485 309.114 183.485 307.281C183.485 305.347 181.517 304.94 178.191 304.125C173.984 303.141 169.538 301.852 169.538 296.762C169.538 291.57 173.746 289.296 179.175 289.296C184.435 289.296 188.507 291.672 188.745 296.762H182.874C182.637 294.895 181.211 293.843 178.972 293.843C176.868 293.843 175.477 294.76 175.477 296.117C175.477 297.814 177.343 298.221 180.974 299.035C185.487 300.087 189.559 301.479 189.559 306.67C189.559 311.76 185.216 314.577 179.617 314.577ZM198.022 300.461H202.535C204.91 300.461 206.132 299.341 206.132 297.508C206.132 295.744 204.978 294.488 202.671 294.488H198.022V300.461ZM192.016 314V289.738H203.621C208.439 289.738 212.104 292.215 212.104 296.728C212.104 299.544 210.713 301.614 207.896 302.598V302.7C210 303.413 211.086 304.736 211.426 307.145C211.935 310.335 211.595 313.389 212.444 313.695V314H206.607C205.962 313.627 206.064 310.776 205.691 308.367C205.385 306.127 204.232 304.906 201.653 304.906H198.022V314H192.016Z" fill="#002068"/>
<path d="M179 212C217.108 212 248 181.108 248 143C248 104.892 217.108 74 179 74C140.892 74 110 104.892 110 143C110 181.108 140.892 212 179 212Z" fill="url(#paint0_linear_639_324)"/>
<path d="M193.151 111.631C192.863 111.596 192.562 111.508 192.268 111.336C191.909 111.128 191.629 110.755 191.571 110.292C191.534 109.997 191.559 109.556 191.889 109.162C191.991 109.036 192.09 108.907 192.184 108.774C192.141 108.774 192.098 108.772 192.055 108.769C191.366 108.716 190.852 108.192 190.747 107.573C190.601 106.738 189.839 106.017 188.995 105.913H188.842H188.771L188.7 105.903C188.678 105.9 188.648 105.897 188.611 105.893C188.34 105.863 187.713 105.794 187.195 105.427C186.723 105.096 186.456 104.663 186.291 104.323C186.247 104.417 186.198 104.533 186.132 104.689C186.12 104.719 186.106 104.752 186.092 104.785L186.09 104.79C185.951 105.129 185.754 105.612 185.441 106.051C184.569 107.285 183.218 107.747 182.218 108.089C182.18 108.102 182.143 108.114 182.107 108.127L182.104 108.128C181.216 108.429 180.657 108.642 180.268 109.007C180.009 109.257 179.813 109.611 179.503 110.17C179.481 110.21 179.459 110.251 179.435 110.292C179.419 110.324 179.402 110.357 179.384 110.39C178.957 111.203 178.333 112.394 177.032 112.965C176.53 113.195 176.022 113.272 175.677 113.324C175.633 113.331 175.592 113.337 175.555 113.343C175.45 113.36 175.362 113.374 175.286 113.386C175.102 113.414 174.986 113.432 174.87 113.467C174.502 113.593 174.149 113.897 173.598 114.431L173.59 114.439L173.582 114.446C173.549 114.477 173.515 114.509 173.48 114.542C173.077 114.918 172.569 115.391 171.953 115.736C170.663 116.459 169.215 116.502 168.178 116.533L168.162 116.534C168.161 116.534 168.16 116.534 168.159 116.534C168.126 116.535 168.093 116.536 168.059 116.537C166.753 116.584 164.876 116.651 163.223 115.862L163.219 115.86C162.322 115.426 161.514 114.67 161.011 113.76C160.648 113.105 160.425 112.331 160.48 111.523C160.473 111.546 160.467 111.569 160.461 111.592C160.453 111.623 160.445 111.654 160.437 111.685C160.437 111.685 160.437 111.685 160.437 111.685L158.266 119.92C158.051 120.781 157.919 121.322 158.05 121.771L158.053 121.781L158.056 121.791C158.131 122.069 158.311 122.337 158.657 122.641C159.011 122.953 159.459 123.236 160.012 123.586L160.036 123.601L160.036 123.601L160.043 123.605C160.342 123.794 160.658 123.994 160.977 124.212L160.983 124.216L160.983 124.216C164.96 126.979 166.333 132.054 167.144 136.267C167.586 138.54 167.916 141.338 166.203 143.444L166.196 143.454L166.196 143.454C165.848 143.871 165.44 144.221 165.123 144.494C165.09 144.522 165.058 144.55 165.027 144.577L165.02 144.582L165.013 144.588C164.633 144.905 164.344 145.162 164.13 145.433C164.049 145.544 164.006 145.697 163.994 145.818C164.09 145.816 164.207 145.807 164.369 145.794C164.394 145.792 164.42 145.789 164.447 145.787C164.945 145.74 165.93 145.648 166.766 146.281L166.768 146.283C167.301 146.689 167.58 147.246 167.721 147.529L167.727 147.541L167.73 147.547L168.704 149.527L193.151 111.631ZM193.151 111.631C192.752 112.029 192.377 112.576 192.289 113.307L192.289 113.307L192.287 113.319C192.207 114.072 192.46 114.766 192.957 115.313L192.961 115.317C193.796 116.223 195.111 116.473 195.971 116.454L195.998 116.454L196.026 116.451L196.337 116.427L196.649 116.403L196.66 116.403L196.671 116.401C196.798 116.389 196.912 116.379 197.017 116.371C196.741 117.925 197.069 119.669 197.872 121.588L197.808 121.652L198.113 122.29L198.448 122.992C199.295 124.769 199.979 126.268 199.811 127.717L199.811 127.719C199.656 129.076 198.797 130.281 197.63 131.809L197.63 131.809L197.625 131.816C197.593 131.859 197.56 131.902 197.528 131.945C196.388 133.464 195.001 135.311 194.855 137.624L194.855 137.629C194.763 139.203 195.267 140.659 195.683 141.86L195.706 141.924C195.706 141.925 195.706 141.925 195.706 141.925C195.722 141.972 195.738 142.018 195.754 142.064C195.933 142.587 196.105 143.086 196.226 143.556C196.952 146.436 196.266 149.382 195.44 152.8L195.44 152.801C195.105 154.191 194.76 155.663 194.53 157.128L194.53 157.128L194.529 157.137C194.237 159.099 194.153 161.115 194.075 163.009L194.071 163.104L194.071 163.106C193.926 166.834 193.777 170.115 192.351 173.057C192.178 173.408 192.03 173.611 191.923 173.717C191.912 173.728 191.903 173.737 191.894 173.744C191.889 173.74 191.884 173.734 191.879 173.729C191.73 173.564 191.553 173.27 191.271 172.749C191.271 172.749 191.271 172.749 191.271 172.749L190.391 173.223L193.151 111.631ZM192.719 107.24L192.718 107.234C192.718 107.236 192.719 107.238 192.719 107.24ZM161.475 109.161C161.302 109.402 161.086 109.705 160.899 110.065C160.959 109.886 161.022 109.71 161.09 109.539C161.368 108.84 161.661 108.401 161.94 108.199L161.95 108.192L161.96 108.185C161.992 108.16 162.027 108.145 162.059 108.137C162.057 108.158 162.054 108.182 162.049 108.211L162.048 108.213C162.018 108.378 161.891 108.589 161.553 109.051L161.549 109.057L161.545 109.063C161.522 109.094 161.499 109.127 161.475 109.161ZM191.838 173.786C191.838 173.786 191.839 173.785 191.841 173.784C191.839 173.785 191.838 173.786 191.838 173.786Z" stroke="white" stroke-width="2"/>
</g>
<defs>
<filter id="filter0_d_639_324" x="0" y="0" width="361" height="357" filterUnits="userSpaceOnUse" color-interpolation-filters="sRGB">
<feFlood flood-opacity="0" result="BackgroundImageFix"/>
<feColorMatrix in="SourceAlpha" type="matrix" values="0 0 0 0 0 0 0 0 0 0 0 0 0 0 0 0 0 0 127 0" result="hardAlpha"/>
<feOffset dx="2" dy="2"/>
<feGaussianBlur stdDeviation="2"/>
<feComposite in2="hardAlpha" operator="out"/>
<feColorMatrix type="matrix" values="0 0 0 0 0 0 0 0 0 0 0 0 0 0 0 0 0 0 0.25 0"/>
<feBlend mode="normal" in2="BackgroundImageFix" result="effect1_dropShadow_639_324"/>
<feBlend mode="normal" in="SourceGraphic" in2="effect1_dropShadow_639_324" result="shape"/>
</filter>
<linearGradient id="paint0_linear_639_324" x1="144.488" y1="202.766" x2="213.512" y2="83.2345" gradientUnits="userSpaceOnUse">
<stop stop-color="#0460A9"/>
<stop offset="1" stop-color="#50E2D0"/>
</linearGradient>
</defs>
</svg>
