<svg width="361" height="357" viewBox="0 0 361 357" fill="none" xmlns="http://www.w3.org/2000/svg">
<g filter="url(#filter0_d_660_672)">
<rect x="2" y="2" width="353" height="349" rx="19.0804" fill="white"/>
<path d="M129.083 273V248.738H135.089V267.91H145.982V273H129.083ZM151.045 248.229C152.775 248.229 154.099 249.45 154.099 251.181C154.099 252.911 152.775 254.133 151.045 254.133C149.314 254.133 147.991 252.911 147.991 251.181C147.991 249.45 149.314 248.229 151.045 248.229ZM148.262 273V255.626H153.793V273H148.262ZM163.845 273.543C158.755 273.543 155.565 271.202 155.395 267.367H160.621C160.825 269.098 161.978 269.946 163.811 269.946C165.474 269.946 166.526 269.335 166.526 268.215C166.526 266.654 164.422 266.485 162.114 266.078C159.094 265.569 155.87 264.754 155.87 260.682C155.87 257.017 159.264 255.117 163.37 255.117C168.29 255.117 170.937 257.255 171.208 260.682H166.118C165.915 259.121 164.863 258.646 163.336 258.646C161.978 258.646 160.927 259.155 160.927 260.241C160.927 261.463 162.895 261.632 165.1 262.039C168.154 262.548 171.751 263.329 171.751 267.774C171.751 271.575 168.392 273.543 163.845 273.543ZM179.938 273.204C176.714 273.204 174.407 272.152 174.407 268.419V259.087H172.099V255.626H174.407V250.129H179.802V255.626H182.958V259.087H179.802V267.231C179.802 268.589 180.549 268.928 181.737 268.928C182.212 268.928 182.755 268.894 182.958 268.894V272.932C182.483 273.068 181.431 273.204 179.938 273.204ZM187.729 248.229C189.459 248.229 190.783 249.45 190.783 251.181C190.783 252.911 189.459 254.133 187.729 254.133C185.998 254.133 184.675 252.911 184.675 251.181C184.675 249.45 185.998 248.229 187.729 248.229ZM184.946 273V255.626H190.477V273H184.946ZM193.131 273V255.626H198.459V258.001H198.561C199.85 256.135 201.513 255.117 203.922 255.117C207.723 255.117 209.962 257.832 209.962 261.7V273H204.431V262.82C204.431 260.988 203.515 259.732 201.717 259.732C199.884 259.732 198.663 261.259 198.663 263.397V273H193.131ZM220.526 267.944C222.936 267.944 224.055 266.044 224.055 263.6C224.055 261.259 222.834 259.291 220.526 259.291C218.456 259.291 217.099 260.988 217.099 263.634C217.099 266.247 218.456 267.944 220.526 267.944ZM220.56 279.006C215.776 279.006 212.62 277.038 212.077 273.407H217.438C217.744 274.323 218.66 275.104 220.492 275.104C222.834 275.104 223.818 273.882 223.818 271.778V270.048H223.682C222.664 271.202 221.341 272.05 219.237 272.05C215.334 272.05 211.704 269.132 211.704 263.804C211.704 258.714 214.69 255.117 218.999 255.117C221.307 255.117 222.868 256.033 223.886 257.492H223.954V255.626H229.247V271.303C229.247 273.916 228.331 275.816 226.94 277.072C225.413 278.429 223.139 279.006 220.56 279.006Z" fill="#002068"/>
<path d="M179 212C217.108 212 248 181.108 248 143C248 104.892 217.108 74 179 74C140.892 74 110 104.892 110 143C110 181.108 140.892 212 179 212Z" fill="url(#paint0_linear_660_672)"/>
<path d="M217.098 171.245H215.697V134.798C215.697 131.707 213.18 129.191 210.089 129.191H204.482V113.771C204.482 111.451 202.597 109.566 200.277 109.566C197.161 109.566 188.919 109.58 185.933 109.502C184.349 102.154 173.755 102.157 172.213 109.566H158.223C155.903 109.566 154.018 111.451 154.018 113.771V129.191H148.411C145.32 129.191 142.804 131.707 142.804 134.798V171.245H141.402C140.627 171.245 140 171.872 140 172.646C140 178.057 144.402 182.459 149.813 182.459H208.688C214.099 182.459 218.501 178.058 218.501 172.646C218.501 171.872 217.873 171.245 217.098 171.245ZM201.678 113.772V116.579H191.865V112.37H200.276C201.05 112.37 201.678 112.997 201.678 113.772ZM174.957 110.106C175.857 105.705 182.281 105.687 183.192 110.096C183.48 111.434 184.615 112.37 185.95 112.37H189.062V116.579H169.437V112.37H172.213C173.541 112.37 174.669 111.438 174.957 110.106ZM156.821 113.772C156.821 112.997 157.448 112.37 158.223 112.37H166.634V116.579H162.428C161.654 116.579 161.026 117.206 161.026 117.981C161.026 118.755 161.654 119.382 162.428 119.382H201.678V171.245H186.258C185.887 171.245 185.529 171.393 185.266 171.655L184.275 172.647H174.22C173.684 172.188 173.032 171.179 172.237 171.245H156.817L156.821 113.772ZM145.607 134.799C145.607 133.254 146.865 131.996 148.41 131.996H154.017V171.246H145.607V134.799ZM208.687 179.656H149.812C146.426 179.656 143.595 177.245 142.943 174.049H171.659C172.181 174.515 172.85 175.51 173.642 175.451H184.856C185.617 175.535 186.346 174.487 186.84 174.049H207.285C209.121 174.018 209.135 171.277 207.285 171.246H204.481V131.996H210.089C211.634 131.996 212.892 133.254 212.892 134.799V172.648C212.892 173.422 213.519 174.05 214.294 174.05H215.555C214.904 177.246 212.072 179.656 208.687 179.656Z" fill="white"/>
<path d="M179.25 112.355C181.093 112.324 181.093 109.583 179.25 109.552C177.406 109.583 177.406 112.324 179.25 112.355Z" fill="white"/>
<path d="M164.24 139.299C164.787 139.845 165.673 139.845 166.224 139.299L171.831 133.691C172.377 133.145 172.377 132.258 171.831 131.708C171.284 131.161 170.397 131.161 169.847 131.708L165.232 136.323L163.42 134.511C162.12 133.222 160.147 135.191 161.437 136.495L164.24 139.299Z" fill="white"/>
<path d="M177.259 136.905H196.071C197.907 136.877 197.918 134.133 196.071 134.101H177.259C175.422 134.129 175.412 136.873 177.259 136.905Z" fill="white"/>
<path d="M164.24 149.111C164.787 149.657 165.673 149.657 166.224 149.111L171.831 143.503C172.377 142.957 172.377 142.07 171.831 141.52C171.284 140.973 170.397 140.973 169.847 141.52L165.232 146.135L163.42 144.323C162.12 143.034 160.147 145.003 161.437 146.307L164.24 149.111Z" fill="white"/>
<path d="M177.259 146.717H196.071C197.907 146.689 197.918 143.945 196.071 143.913H177.259C175.422 143.941 175.412 146.685 177.259 146.717Z" fill="white"/>
<path d="M164.24 158.924C164.787 159.47 165.673 159.47 166.224 158.924L171.831 153.316C172.377 152.77 172.377 151.883 171.831 151.333C171.284 150.786 170.397 150.786 169.847 151.333L165.232 155.948L163.42 154.136C162.12 152.847 160.147 154.816 161.437 156.12L164.24 158.924Z" fill="white"/>
<path d="M177.259 156.53H196.071C197.907 156.502 197.918 153.758 196.071 153.726H177.259C175.422 153.754 175.412 156.498 177.259 156.53Z" fill="white"/>
</g>
<defs>
<filter id="filter0_d_660_672" x="0" y="0" width="361" height="357" filterUnits="userSpaceOnUse" color-interpolation-filters="sRGB">
<feFlood flood-opacity="0" result="BackgroundImageFix"/>
<feColorMatrix in="SourceAlpha" type="matrix" values="0 0 0 0 0 0 0 0 0 0 0 0 0 0 0 0 0 0 127 0" result="hardAlpha"/>
<feOffset dx="2" dy="2"/>
<feGaussianBlur stdDeviation="2"/>
<feComposite in2="hardAlpha" operator="out"/>
<feColorMatrix type="matrix" values="0 0 0 0 0 0 0 0 0 0 0 0 0 0 0 0 0 0 0.25 0"/>
<feBlend mode="normal" in2="BackgroundImageFix" result="effect1_dropShadow_660_672"/>
<feBlend mode="normal" in="SourceGraphic" in2="effect1_dropShadow_660_672" result="shape"/>
</filter>
<linearGradient id="paint0_linear_660_672" x1="144.488" y1="202.766" x2="213.512" y2="83.2345" gradientUnits="userSpaceOnUse">
<stop stop-color="#0460A9"/>
<stop offset="1" stop-color="#50E2D0"/>
</linearGradient>
</defs>
</svg>
