<svg width="361" height="357" viewBox="0 0 361 357" fill="none" xmlns="http://www.w3.org/2000/svg">
<g filter="url(#filter0_d_639_313)">
<rect x="2" y="2" width="353" height="349" rx="19.0804" fill="white"/>
<path d="M49.14 273V248.738H57.2162L60.1684 259.359C60.6096 260.886 61.5597 264.89 61.5597 264.89H61.6276C61.6276 264.89 62.5777 260.886 62.9849 259.359L65.9711 248.738H74.1151V273H68.6179V260.784C68.6179 259.8 68.7197 255.931 68.7197 255.931H68.6518C68.6518 255.931 67.8035 259.562 67.532 260.445L64.0368 273H59.0825L55.6213 260.479C55.3498 259.596 54.5015 255.931 54.5015 255.931H54.4336C54.4336 255.931 54.5354 259.834 54.5354 260.818V273H49.14ZM83.9892 269.912C86.0592 269.912 87.4844 268.657 87.4844 266.79V264.72C86.7718 265.093 85.7538 265.365 84.634 265.636C82.4962 266.111 81.6139 266.654 81.6139 267.978C81.6139 269.369 82.6319 269.912 83.9892 269.912ZM82.2247 273.441C78.7635 273.441 76.2863 271.575 76.2863 268.148C76.2863 264.313 79.3403 263.159 82.9373 262.684C86.1949 262.277 87.3487 261.938 87.3487 260.75C87.3487 259.63 86.6361 258.884 84.9733 258.884C83.2088 258.884 82.3265 259.664 82.1568 261.123H77.0668C77.2025 257.9 79.6797 255.151 84.9394 255.151C87.5523 255.151 89.3168 255.626 90.5723 256.576C92.0654 257.662 92.778 259.359 92.778 261.53V270.285C92.778 271.677 92.9138 272.457 93.3888 272.762V273H88.0273C87.7559 272.627 87.5862 271.948 87.4505 271.066H87.3826C86.3646 272.525 84.8376 273.441 82.2247 273.441ZM104.554 269.267C106.657 269.267 107.947 267.469 107.947 264.517C107.947 261.53 106.827 259.562 104.452 259.562C102.042 259.562 100.821 261.7 100.821 264.517C100.821 267.333 102.178 269.267 104.554 269.267ZM95.4593 278.735V255.626H100.753V257.73H100.855C102.042 256.169 103.739 255.117 106.114 255.117C110.729 255.117 113.546 259.087 113.546 264.313C113.546 269.946 110.526 273.543 105.979 273.543C103.739 273.543 102.144 272.661 101.058 271.202H100.99V278.735H95.4593ZM124.503 269.267C126.607 269.267 127.896 267.469 127.896 264.517C127.896 261.53 126.776 259.562 124.401 259.562C121.992 259.562 120.77 261.7 120.77 264.517C120.77 267.333 122.127 269.267 124.503 269.267ZM115.409 278.735V255.626H120.702V257.73H120.804C121.992 256.169 123.688 255.117 126.064 255.117C130.679 255.117 133.495 259.087 133.495 264.313C133.495 269.946 130.475 273.543 125.928 273.543C123.688 273.543 122.093 272.661 121.008 271.202H120.94V278.735H115.409ZM142.246 269.912C144.316 269.912 145.741 268.657 145.741 266.79V264.72C145.029 265.093 144.011 265.365 142.891 265.636C140.753 266.111 139.871 266.654 139.871 267.978C139.871 269.369 140.889 269.912 142.246 269.912ZM140.482 273.441C137.02 273.441 134.543 271.575 134.543 268.148C134.543 264.313 137.597 263.159 141.194 262.684C144.452 262.277 145.606 261.938 145.606 260.75C145.606 259.63 144.893 258.884 143.23 258.884C141.466 258.884 140.584 259.664 140.414 261.123H135.324C135.46 257.9 137.937 255.151 143.196 255.151C145.809 255.151 147.574 255.626 148.829 256.576C150.322 257.662 151.035 259.359 151.035 261.53V270.285C151.035 271.677 151.171 272.457 151.646 272.762V273H146.284C146.013 272.627 145.843 271.948 145.707 271.066H145.64C144.622 272.525 143.095 273.441 140.482 273.441ZM165.331 259.461H169.844C172.219 259.461 173.441 258.341 173.441 256.508C173.441 254.744 172.287 253.488 169.98 253.488H165.331V259.461ZM159.325 273V248.738H170.93C175.748 248.738 179.413 251.215 179.413 255.728C179.413 258.544 178.022 260.614 175.206 261.598V261.7C177.309 262.413 178.395 263.736 178.735 266.145C179.244 269.335 178.904 272.389 179.753 272.695V273H173.916C173.271 272.627 173.373 269.776 173 267.367C172.694 265.127 171.541 263.906 168.962 263.906H165.331V273H159.325ZM190.069 273.509C184.334 273.509 180.805 269.539 180.805 264.279C180.805 259.087 184.436 255.117 189.73 255.117C192.207 255.117 194.175 255.931 195.668 257.289C197.738 259.189 198.756 262.209 198.722 265.738H186.234C186.574 268.08 187.863 269.539 190.137 269.539C191.596 269.539 192.546 268.894 193.021 267.808H198.417C198.043 269.369 197.025 270.862 195.498 271.914C194.039 272.932 192.275 273.509 190.069 273.509ZM186.268 262.447H193.123C192.919 260.377 191.63 259.053 189.831 259.053C187.728 259.053 186.642 260.377 186.268 262.447ZM208.616 267.944C211.025 267.944 212.145 266.044 212.145 263.6C212.145 261.259 210.924 259.291 208.616 259.291C206.546 259.291 205.189 260.988 205.189 263.634C205.189 266.247 206.546 267.944 208.616 267.944ZM208.65 279.006C203.865 279.006 200.71 277.038 200.167 273.407H205.528C205.834 274.323 206.75 275.104 208.582 275.104C210.924 275.104 211.908 273.882 211.908 271.778V270.048H211.772C210.754 271.202 209.43 272.05 207.327 272.05C203.424 272.05 199.793 269.132 199.793 263.804C199.793 258.714 202.779 255.117 207.089 255.117C209.397 255.117 210.957 256.033 211.975 257.492H212.043V255.626H217.337V271.303C217.337 273.916 216.421 275.816 215.03 277.072C213.502 278.429 211.229 279.006 208.65 279.006ZM222.775 248.229C224.506 248.229 225.829 249.45 225.829 251.181C225.829 252.911 224.506 254.133 222.775 254.133C221.045 254.133 219.721 252.911 219.721 251.181C219.721 249.45 221.045 248.229 222.775 248.229ZM219.993 273V255.626H225.524V273H219.993ZM236.695 273.543C231.13 273.543 227.397 269.573 227.397 264.347C227.397 259.121 231.13 255.151 236.695 255.151C242.294 255.151 245.959 259.121 245.959 264.347C245.959 269.573 242.294 273.543 236.695 273.543ZM236.661 269.607C239.071 269.607 240.36 267.503 240.36 264.347C240.36 261.191 239.071 259.053 236.661 259.053C234.252 259.053 232.997 261.191 232.997 264.347C232.997 267.503 234.252 269.607 236.661 269.607ZM247.829 273V255.626H253.157V258.001H253.258C254.548 256.135 256.211 255.117 258.62 255.117C262.42 255.117 264.66 257.832 264.66 261.7V273H259.129V262.82C259.129 260.988 258.213 259.732 256.414 259.732C254.582 259.732 253.36 261.259 253.36 263.397V273H247.829ZM274.07 269.912C276.14 269.912 277.565 268.657 277.565 266.79V264.72C276.853 265.093 275.835 265.365 274.715 265.636C272.577 266.111 271.695 266.654 271.695 267.978C271.695 269.369 272.713 269.912 274.07 269.912ZM272.306 273.441C268.844 273.441 266.367 271.575 266.367 268.148C266.367 264.313 269.421 263.159 273.018 262.684C276.276 262.277 277.43 261.938 277.43 260.75C277.43 259.63 276.717 258.884 275.054 258.884C273.29 258.884 272.407 259.664 272.238 261.123H267.148C267.283 257.9 269.761 255.151 275.02 255.151C277.633 255.151 279.398 255.626 280.653 256.576C282.146 257.662 282.859 259.359 282.859 261.53V270.285C282.859 271.677 282.995 272.457 283.47 272.762V273H278.108C277.837 272.627 277.667 271.948 277.531 271.066H277.464C276.446 272.525 274.919 273.441 272.306 273.441ZM285.574 273V248.738H291.173V273H285.574ZM302.341 273.509C296.607 273.509 293.077 269.539 293.077 264.279C293.077 259.087 296.708 255.117 302.002 255.117C304.479 255.117 306.447 255.931 307.94 257.289C310.01 259.189 311.028 262.209 310.994 265.738H298.507C298.846 268.08 300.136 269.539 302.409 269.539C303.868 269.539 304.818 268.894 305.294 267.808H310.689C310.316 269.369 309.298 270.862 307.771 271.914C306.312 272.932 304.547 273.509 302.341 273.509ZM298.541 262.447H305.395C305.192 260.377 303.902 259.053 302.104 259.053C300 259.053 298.914 260.377 298.541 262.447ZM157.215 314.577C150.768 314.577 146.526 311.726 146.39 306.365H152.43C152.702 308.808 154.297 309.826 157.181 309.826C159.149 309.826 161.083 309.114 161.083 307.281C161.083 305.347 159.115 304.94 155.79 304.125C151.582 303.141 147.137 301.852 147.137 296.762C147.137 291.57 151.345 289.296 156.774 289.296C162.034 289.296 166.106 291.672 166.343 296.762H160.473C160.235 294.895 158.81 293.843 156.57 293.843C154.466 293.843 153.075 294.76 153.075 296.117C153.075 297.814 154.942 298.221 158.572 299.035C163.086 300.087 167.158 301.479 167.158 306.67C167.158 311.76 162.814 314.577 157.215 314.577ZM179.617 314.577C173.169 314.577 168.927 311.726 168.792 306.365H174.832C175.103 308.808 176.698 309.826 179.583 309.826C181.551 309.826 183.485 309.114 183.485 307.281C183.485 305.347 181.517 304.94 178.191 304.125C173.984 303.141 169.538 301.852 169.538 296.762C169.538 291.57 173.746 289.296 179.175 289.296C184.435 289.296 188.507 291.672 188.745 296.762H182.874C182.637 294.895 181.211 293.843 178.972 293.843C176.868 293.843 175.477 294.76 175.477 296.117C175.477 297.814 177.343 298.221 180.974 299.035C185.487 300.087 189.559 301.479 189.559 306.67C189.559 311.76 185.216 314.577 179.617 314.577ZM198.022 300.461H202.535C204.91 300.461 206.132 299.341 206.132 297.508C206.132 295.744 204.978 294.488 202.671 294.488H198.022V300.461ZM192.016 314V289.738H203.621C208.439 289.738 212.104 292.215 212.104 296.728C212.104 299.544 210.713 301.614 207.896 302.598V302.7C210 303.413 211.086 304.736 211.426 307.145C211.935 310.335 211.595 313.389 212.444 313.695V314H206.607C205.962 313.627 206.064 310.776 205.691 308.367C205.385 306.127 204.232 304.906 201.653 304.906H198.022V314H192.016Z" fill="#002068"/>
<path d="M179 212C217.108 212 248 181.108 248 143C248 104.892 217.108 74 179 74C140.892 74 110 104.892 110 143C110 181.108 140.892 212 179 212Z" fill="url(#paint0_linear_639_313)"/>
<mask id="path-4-inside-1_639_313" fill="white">
<path d="M210.266 140.851C209.231 140.106 208.113 139.112 208.154 137.953C208.113 138.015 208.051 138.077 207.968 138.077C207.823 138.077 207.658 137.995 207.637 137.829C207.533 137.146 206.623 136.773 205.816 136.877C205.443 136.918 205.091 137.022 204.719 137.125C204.222 137.27 203.684 137.415 203.125 137.415C202.463 137.415 201.8 137.105 201.407 136.629C201.117 136.277 201.014 135.883 201.097 135.469C201.2 134.973 201.531 134.621 201.842 134.331C201.966 134.207 202.069 134.103 202.173 133.979C203.146 132.779 202.649 130.916 201.552 129.902C200.289 128.722 198.406 128.432 197.123 128.308C195.446 128.142 193.749 128.163 192.093 128.391L191.803 128.432C191.017 128.536 190.189 128.66 189.382 128.453C188.512 128.246 187.767 127.708 187.063 127.211C186.815 127.045 186.587 126.859 186.339 126.694C185.925 126.425 184.497 125.597 183.421 126.238C182.8 126.611 182.489 127.356 182.179 128.142C181.786 129.095 181.392 130.067 180.399 130.398C179.24 130.792 178.184 130.047 177.17 129.343C176.218 128.681 175.307 128.039 174.479 128.515C174.169 128.681 173.962 128.991 173.713 129.302C173.548 129.529 173.382 129.757 173.175 129.943C172.43 130.647 171.416 130.812 170.443 130.957C169.677 131.082 168.953 131.185 168.353 131.537C167.835 131.847 167.421 132.323 167.007 132.841C166.78 133.11 166.552 133.4 166.283 133.648C165.497 134.435 164.193 134.993 163.199 134.372C162.868 134.165 162.62 133.855 162.371 133.565C161.937 133.069 161.667 132.758 161.274 132.862C160.819 132.986 160.736 133.669 160.695 134.455V134.517C160.591 136.422 159.349 138.264 157.631 139.092C157.528 139.133 157.424 139.195 157.321 139.236C156.969 139.402 156.638 139.547 156.41 139.795C156.017 140.251 156.017 140.954 156.058 141.699C156.183 143.914 156.1 146.17 154.754 147.785C153.575 149.171 151.857 149.627 150.056 149.627C148.649 149.627 147.2 149.337 145.896 149.026C145.772 150.641 144.468 151.903 143.309 153.021L142.936 153.394C141.239 155.07 139.935 157.119 139.148 159.375C138.983 159.851 138.921 160.369 139.148 160.534C139.293 160.638 139.645 160.596 139.873 160.576C146.517 159.81 153.906 158.568 157.528 153.207C158.107 152.359 158.583 151.386 159.06 150.455C160.074 148.426 161.129 146.336 163.137 145.135C163.551 144.887 164.006 144.68 164.441 144.494C165.269 144.121 166.076 143.769 166.531 143.128C166.78 142.776 166.945 142.341 167.111 141.886C167.194 141.637 167.297 141.389 167.401 141.141C168.725 138.057 171.933 136.898 175.038 135.78C176.383 135.283 177.77 134.786 178.971 134.124C181.475 132.758 183.917 134.29 186.277 135.759C187.415 136.484 188.616 137.229 189.775 137.622C190.644 137.912 191.555 138.077 192.507 138.243C193.169 138.367 193.873 138.471 194.556 138.657C198.427 139.63 201.573 142.155 204.615 144.597C207.14 146.625 209.748 148.695 212.708 149.854C213.619 150.206 214.591 150.496 215.523 150.765C216.703 151.096 217.882 151.448 219 151.945C217.199 147.598 214.115 143.686 210.286 140.934"/>
</mask>
<path d="M208.154 137.953L210.153 138.025L210.405 130.972L206.49 136.844L208.154 137.953ZM207.637 137.829L209.622 137.581L209.618 137.555L209.614 137.529L207.637 137.829ZM205.816 136.877L206.036 138.865L206.053 138.863L206.07 138.861L205.816 136.877ZM204.719 137.125L204.183 135.198L204.171 135.202L204.159 135.205L204.719 137.125ZM201.407 136.629L199.863 137.9L199.865 137.902L201.407 136.629ZM201.097 135.469L199.139 135.062L199.137 135.069L199.135 135.077L201.097 135.469ZM201.842 134.331L203.206 135.793L203.231 135.77L203.256 135.745L201.842 134.331ZM202.173 133.979L203.709 135.26L203.718 135.249L203.727 135.238L202.173 133.979ZM201.552 129.902L200.186 131.363L200.194 131.37L201.552 129.902ZM197.123 128.308L196.926 130.298L196.93 130.299L197.123 128.308ZM192.093 128.391L191.821 126.409L191.81 126.411L192.093 128.391ZM191.803 128.432L192.064 130.415L192.075 130.414L192.086 130.412L191.803 128.432ZM189.382 128.453L189.878 126.516L189.862 126.511L189.845 126.507L189.382 128.453ZM187.063 127.211L188.217 125.577L188.195 125.562L188.173 125.547L187.063 127.211ZM186.339 126.694L187.448 125.03L187.439 125.023L187.429 125.017L186.339 126.694ZM183.421 126.238L182.397 124.52L182.392 124.523L183.421 126.238ZM182.179 128.142L184.027 128.906L184.033 128.891L184.039 128.877L182.179 128.142ZM180.399 130.398L179.766 128.501L179.756 128.505L180.399 130.398ZM177.17 129.343L176.028 130.985L176.03 130.986L177.17 129.343ZM174.479 128.515L175.42 130.28L175.449 130.265L175.476 130.249L174.479 128.515ZM173.713 129.302L172.152 128.052L172.123 128.088L172.096 128.125L173.713 129.302ZM173.175 129.943L171.837 128.457L171.82 128.473L171.802 128.489L173.175 129.943ZM170.443 130.957L170.149 128.979L170.136 128.981L170.123 128.983L170.443 130.957ZM168.353 131.537L167.341 129.811L167.333 129.817L167.324 129.822L168.353 131.537ZM167.007 132.841L168.534 134.133L168.552 134.112L168.569 134.09L167.007 132.841ZM166.283 133.648L164.926 132.178L164.897 132.206L164.869 132.234L166.283 133.648ZM163.199 134.372L164.259 132.676L163.199 134.372ZM162.371 133.565L163.89 132.264L163.883 132.256L163.876 132.248L162.371 133.565ZM161.274 132.862L160.765 130.927L160.757 130.93L160.748 130.932L161.274 132.862ZM160.695 134.455L158.697 134.35L158.695 134.403V134.455H160.695ZM160.695 134.517L162.692 134.626L162.695 134.572V134.517H160.695ZM157.631 139.092L158.374 140.948L158.438 140.923L158.5 140.893L157.631 139.092ZM157.321 139.236L156.578 137.379L156.523 137.401L156.469 137.427L157.321 139.236ZM156.41 139.795L154.936 138.444L154.916 138.466L154.897 138.488L156.41 139.795ZM156.058 141.699L154.061 141.81L154.062 141.811L156.058 141.699ZM154.754 147.785L156.278 149.08L156.284 149.073L156.291 149.065L154.754 147.785ZM145.896 149.026L146.359 147.081L144.081 146.538L143.902 148.873L145.896 149.026ZM143.309 153.021L141.92 151.581L141.907 151.594L141.894 151.607L143.309 153.021ZM142.936 153.394L144.342 154.817L144.35 154.808L142.936 153.394ZM139.148 159.375L137.26 158.717L137.259 158.718L139.148 159.375ZM139.148 160.534L137.972 162.152L137.979 162.157L137.986 162.162L139.148 160.534ZM139.873 160.576L140.054 162.567L140.078 162.565L140.102 162.563L139.873 160.576ZM157.528 153.207L155.876 152.079L155.871 152.088L157.528 153.207ZM159.06 150.455L160.84 151.365L160.844 151.357L160.848 151.349L159.06 150.455ZM163.137 145.135L164.163 146.852L164.166 146.85L163.137 145.135ZM164.441 144.494L165.229 146.332L165.245 146.325L165.262 146.317L164.441 144.494ZM166.531 143.128L168.162 144.285L168.165 144.281L166.531 143.128ZM167.111 141.886L168.991 142.569L169 142.544L169.008 142.518L167.111 141.886ZM167.401 141.141L165.563 140.351L165.559 140.361L165.555 140.371L167.401 141.141ZM175.038 135.78L175.716 137.662L175.723 137.659L175.731 137.656L175.038 135.78ZM178.971 134.124L178.013 132.368L178.005 132.373L178.971 134.124ZM186.277 135.759L187.351 134.072L187.343 134.067L187.334 134.062L186.277 135.759ZM189.775 137.622L189.132 139.516L189.142 139.519L189.775 137.622ZM192.507 138.243L192.876 136.277L192.863 136.275L192.85 136.272L192.507 138.243ZM194.556 138.657L194.03 140.586L194.049 140.592L194.069 140.597L194.556 138.657ZM204.615 144.597L205.868 143.038L205.867 143.037L204.615 144.597ZM212.708 149.854L211.979 151.717L211.987 151.72L212.708 149.854ZM215.523 150.765L214.968 152.686L214.975 152.689L214.982 152.691L215.523 150.765ZM219 151.945L218.188 153.772L222.765 155.807L220.848 151.179L219 151.945ZM211.434 139.228C210.96 138.886 210.586 138.569 210.346 138.28C210.1 137.984 210.157 137.915 210.153 138.025L206.156 137.882C206.11 139.151 206.706 140.158 207.267 140.834C207.834 141.518 208.536 142.07 209.097 142.474L211.434 139.228ZM206.49 136.844C206.545 136.762 206.665 136.597 206.877 136.438C207.104 136.268 207.479 136.077 207.968 136.077V140.077C209.113 140.077 209.697 139.246 209.819 139.063L206.49 136.844ZM207.968 136.077C208.246 136.077 208.563 136.15 208.865 136.351C209.2 136.574 209.548 136.991 209.622 137.581L205.652 138.077C205.853 139.683 207.331 140.077 207.968 140.077V136.077ZM209.614 137.529C209.43 136.314 208.56 135.597 207.863 135.258C207.151 134.913 206.327 134.795 205.561 134.893L206.07 138.861C206.111 138.855 206.146 138.872 206.118 138.858C206.103 138.85 205.74 138.661 205.66 138.129L209.614 137.529ZM205.595 134.889C205.027 134.952 204.501 135.11 204.183 135.198L205.254 139.052C205.682 138.933 205.859 138.884 206.036 138.865L205.595 134.889ZM204.159 135.205C203.659 135.351 203.368 135.415 203.125 135.415V139.415C204 139.415 204.785 139.189 205.279 139.045L204.159 135.205ZM203.125 135.415C203.101 135.415 203.054 135.408 203.002 135.384C202.978 135.373 202.961 135.362 202.95 135.354C202.939 135.345 202.94 135.344 202.949 135.355L199.865 137.902C200.654 138.857 201.891 139.415 203.125 139.415V135.415ZM202.951 135.357C202.966 135.376 203.014 135.443 203.045 135.557C203.076 135.675 203.073 135.784 203.058 135.862L199.135 135.077C198.926 136.122 199.22 137.119 199.863 137.9L202.951 135.357ZM203.054 135.877C203.046 135.917 203.034 135.95 203.023 135.973C203.013 135.995 203.007 136.002 203.013 135.994C203.019 135.985 203.036 135.964 203.069 135.928C203.102 135.893 203.145 135.85 203.206 135.793L200.477 132.869C200.136 133.187 199.379 133.907 199.139 135.062L203.054 135.877ZM203.256 135.745C203.371 135.63 203.539 135.464 203.709 135.26L200.636 132.699C200.6 132.742 200.561 132.784 200.427 132.917L203.256 135.745ZM203.727 135.238C204.665 134.08 204.826 132.678 204.604 131.501C204.385 130.338 203.775 129.233 202.91 128.433L200.194 131.37C200.426 131.585 200.612 131.918 200.673 132.24C200.731 132.548 200.653 132.678 200.619 132.72L203.727 135.238ZM202.917 128.44C201.112 126.754 198.588 126.441 197.315 126.317L196.93 130.299C198.223 130.424 199.466 130.69 200.186 131.363L202.917 128.44ZM197.319 126.318C195.497 126.138 193.642 126.159 191.821 126.409L192.365 130.372C193.856 130.167 195.396 130.147 196.926 130.298L197.319 126.318ZM191.81 126.411L191.52 126.452L192.086 130.412L192.376 130.371L191.81 126.411ZM191.542 126.449C190.651 126.567 190.238 126.608 189.878 126.516L188.885 130.39C190.14 130.712 191.382 130.505 192.064 130.415L191.542 126.449ZM189.845 126.507C189.421 126.406 188.999 126.129 188.217 125.577L185.91 128.845C186.536 129.286 187.603 130.085 188.918 130.399L189.845 126.507ZM188.173 125.547C188.096 125.496 188.015 125.437 187.89 125.344C187.777 125.261 187.62 125.144 187.448 125.03L185.23 128.358C185.307 128.409 185.387 128.468 185.513 128.561C185.625 128.644 185.783 128.761 185.954 128.875L188.173 125.547ZM187.429 125.017C187.15 124.836 186.504 124.445 185.695 124.206C184.915 123.976 183.628 123.786 182.397 124.52L184.445 127.956C184.29 128.049 184.255 127.952 184.562 128.043C184.839 128.124 185.114 128.283 185.249 128.371L187.429 125.017ZM182.392 124.523C181.694 124.942 181.251 125.524 180.958 126.024C180.674 126.508 180.468 127.03 180.319 127.408L184.039 128.877C184.201 128.468 184.304 128.225 184.409 128.046C184.504 127.884 184.527 127.907 184.45 127.953L182.392 124.523ZM180.33 127.379C180.114 127.903 179.992 128.183 179.855 128.387C179.799 128.47 179.765 128.5 179.759 128.505C179.756 128.508 179.757 128.506 179.762 128.504C179.766 128.501 179.769 128.5 179.766 128.501L181.031 132.296C183.047 131.624 183.729 129.629 184.027 128.906L180.33 127.379ZM179.756 128.505C179.747 128.508 179.747 128.508 179.731 128.507C179.705 128.504 179.635 128.493 179.505 128.438C179.201 128.31 178.864 128.084 178.31 127.7L176.03 130.986C176.49 131.306 177.188 131.804 177.955 132.126C178.782 132.473 179.858 132.694 181.041 132.292L179.756 128.505ZM178.312 127.701C177.894 127.41 177.232 126.935 176.534 126.65C175.762 126.335 174.628 126.123 173.482 126.781L175.476 130.249C175.357 130.318 175.21 130.352 175.082 130.35C174.978 130.348 174.948 130.324 175.022 130.354C175.097 130.384 175.217 130.445 175.401 130.561C175.585 130.677 175.78 130.812 176.028 130.985L178.312 127.701ZM173.538 126.75C173.089 126.99 172.777 127.302 172.577 127.527C172.413 127.712 172.201 127.99 172.152 128.052L175.275 130.551C175.314 130.502 175.351 130.455 175.382 130.415C175.416 130.372 175.44 130.34 175.467 130.306C175.519 130.24 175.549 130.204 175.569 130.181C175.613 130.132 175.559 130.206 175.42 130.28L173.538 126.75ZM172.096 128.125C172.008 128.246 171.955 128.318 171.905 128.379C171.883 128.407 171.866 128.426 171.855 128.439C171.843 128.452 171.837 128.457 171.837 128.457L174.513 131.43C174.903 131.079 175.188 130.675 175.331 130.478L172.096 128.125ZM171.802 128.489C171.583 128.696 171.218 128.82 170.149 128.979L170.738 132.936C171.614 132.805 173.278 132.597 174.549 131.397L171.802 128.489ZM170.123 128.983C169.483 129.087 168.333 129.23 167.341 129.811L169.364 133.262C169.573 133.14 169.872 133.076 170.763 132.932L170.123 128.983ZM167.324 129.822C166.467 130.336 165.86 131.074 165.446 131.591L168.569 134.09C168.983 133.573 169.203 133.359 169.382 133.252L167.324 129.822ZM165.481 131.549C165.188 131.895 165.077 132.039 164.926 132.178L167.64 135.118C168.027 134.76 168.372 134.325 168.534 134.133L165.481 131.549ZM164.869 132.234C164.677 132.426 164.438 132.566 164.257 132.618C164.094 132.666 164.145 132.605 164.259 132.676L162.139 136.068C163.247 136.761 164.447 136.731 165.38 136.458C166.297 136.19 167.103 135.657 167.697 135.062L164.869 132.234ZM164.259 132.676C164.281 132.69 164.264 132.684 164.195 132.613C164.161 132.578 164.122 132.534 164.07 132.474C164.009 132.404 163.969 132.357 163.89 132.264L160.853 134.867C161.018 135.06 161.487 135.661 162.139 136.068L164.259 132.676ZM163.876 132.248C163.717 132.066 163.382 131.667 162.999 131.382C162.491 131.005 161.709 130.679 160.765 130.927L161.783 134.796C161.569 134.852 161.314 134.862 161.055 134.796C160.818 134.735 160.668 134.634 160.615 134.594C160.567 134.558 160.563 134.547 160.622 134.609C160.68 134.67 160.749 134.748 160.866 134.882L163.876 132.248ZM160.748 130.932C159.497 131.273 159.056 132.345 158.909 132.851C158.753 133.386 158.717 133.971 158.697 134.35L162.692 134.56C162.701 134.378 162.712 134.238 162.725 134.125C162.739 134.007 162.751 133.964 162.75 133.969C162.748 133.974 162.739 134.006 162.716 134.055C162.693 134.104 162.651 134.183 162.58 134.275C162.423 134.479 162.16 134.693 161.8 134.791L160.748 130.932ZM158.695 134.455V134.517H162.695V134.455H158.695ZM158.698 134.409C158.634 135.576 157.833 136.774 156.763 137.29L158.5 140.893C160.866 139.753 162.548 137.267 162.692 134.626L158.698 134.409ZM156.889 137.235C156.811 137.266 156.745 137.296 156.696 137.319C156.648 137.342 156.604 137.364 156.582 137.375C156.553 137.39 156.545 137.393 156.54 137.396C156.538 137.397 156.552 137.39 156.578 137.379L158.064 141.093C158.141 141.062 158.208 141.032 158.257 141.009C158.304 140.986 158.348 140.964 158.371 140.953C158.4 140.938 158.407 140.935 158.412 140.932C158.415 140.931 158.4 140.938 158.374 140.948L156.889 137.235ZM156.469 137.427C156.262 137.525 155.491 137.838 154.936 138.444L157.885 141.147C157.805 141.234 157.75 141.256 157.805 141.225C157.831 141.21 157.87 141.19 157.934 141.158C158.005 141.124 158.069 141.095 158.173 141.046L156.469 137.427ZM154.897 138.488C154.356 139.115 154.163 139.826 154.089 140.371C154.018 140.902 154.04 141.432 154.061 141.81L158.055 141.588C158.046 141.416 158.04 141.276 158.041 141.155C158.041 141.034 158.047 140.955 158.053 140.906C158.068 140.799 158.072 140.931 157.924 141.102L154.897 138.488ZM154.062 141.811C154.187 144.048 154.012 145.551 153.218 146.504L156.291 149.065C158.187 146.789 158.178 143.78 158.055 141.587L154.062 141.811ZM153.231 146.489C152.584 147.249 151.557 147.627 150.056 147.627V151.627C152.157 151.627 154.565 151.094 156.278 149.08L153.231 146.489ZM150.056 147.627C148.895 147.627 147.635 147.385 146.359 147.081L145.433 150.972C146.764 151.289 148.403 151.627 150.056 151.627V147.627ZM143.902 148.873C143.879 149.172 143.741 149.535 143.383 150.02C143.012 150.521 142.521 151.002 141.92 151.581L144.697 154.461C145.255 153.922 145.995 153.214 146.598 152.4C147.212 151.57 147.789 150.496 147.89 149.18L143.902 148.873ZM141.894 151.607L141.522 151.979L144.35 154.808L144.723 154.435L141.894 151.607ZM141.531 151.971C139.619 153.859 138.148 156.168 137.26 158.717L141.037 160.034C141.721 158.07 142.859 156.281 144.342 154.816L141.531 151.971ZM137.259 158.718C137.138 159.068 137.02 159.522 137.002 159.997C136.991 160.308 136.984 161.433 137.972 162.152L140.325 158.917C140.722 159.206 140.884 159.574 140.946 159.779C141.005 159.977 141.001 160.117 141 160.145C140.997 160.201 140.994 160.158 141.037 160.032L137.259 158.718ZM137.986 162.162C138.361 162.43 138.736 162.519 138.933 162.555C139.152 162.595 139.347 162.602 139.48 162.602C139.729 162.602 139.992 162.573 140.054 162.567L139.692 158.584C139.611 158.591 139.579 158.595 139.531 158.598C139.488 158.602 139.475 158.602 139.48 158.602C139.483 158.602 139.499 158.602 139.524 158.603C139.548 158.605 139.591 158.609 139.648 158.62C139.704 158.63 139.791 158.649 139.897 158.688C140.002 158.726 140.15 158.792 140.311 158.907L137.986 162.162ZM140.102 162.563C143.433 162.179 147.131 161.659 150.484 160.506C153.852 159.348 157.045 157.494 159.185 154.327L155.871 152.088C154.388 154.282 152.076 155.729 149.183 156.723C146.275 157.723 142.956 158.207 139.644 158.589L140.102 162.563ZM159.18 154.335C159.849 153.355 160.393 152.24 160.84 151.365L157.279 149.544C156.774 150.532 156.366 151.362 155.876 152.079L159.18 154.335ZM160.848 151.349C161.911 149.225 162.738 147.704 164.163 146.852L162.111 143.419C159.52 144.967 158.237 147.628 157.271 149.56L160.848 151.349ZM164.166 146.85C164.458 146.675 164.81 146.511 165.229 146.332L163.653 142.655C163.202 142.849 162.644 143.099 162.108 143.42L164.166 146.85ZM165.262 146.317C165.921 146.021 167.326 145.464 168.162 144.285L164.9 141.97C164.895 141.977 164.837 142.054 164.606 142.191C164.361 142.336 164.067 142.469 163.62 142.67L165.262 146.317ZM168.165 144.281C168.591 143.678 168.836 142.993 168.991 142.569L165.231 141.202C165.054 141.689 164.968 141.874 164.897 141.974L168.165 144.281ZM169.008 142.518C169.064 142.351 169.138 142.171 169.247 141.91L165.555 140.371C165.456 140.607 165.323 140.924 165.214 141.253L169.008 142.518ZM169.238 141.93C170.161 139.782 172.407 138.853 175.716 137.662L174.361 133.898C171.46 134.943 167.29 136.331 165.563 140.351L169.238 141.93ZM175.731 137.656C177.026 137.178 178.575 136.626 179.937 135.875L178.005 132.373C176.965 132.946 175.741 133.388 174.345 133.904L175.731 137.656ZM179.928 135.88C180.575 135.527 181.215 135.506 182.06 135.78C183.002 136.086 183.987 136.689 185.22 137.457L187.334 134.062C186.208 133.36 184.792 132.462 183.296 131.976C181.705 131.459 179.871 131.355 178.013 132.368L179.928 135.88ZM185.203 137.447C186.307 138.149 187.707 139.033 189.132 139.516L190.417 135.728C189.524 135.425 188.523 134.818 187.351 134.072L185.203 137.447ZM189.142 139.519C190.173 139.863 191.225 140.05 192.164 140.213L192.85 136.272C191.885 136.105 191.115 135.96 190.407 135.725L189.142 139.519ZM192.138 140.209C192.904 140.352 193.451 140.429 194.03 140.586L195.082 136.727C194.295 136.513 193.434 136.382 192.876 136.277L192.138 140.209ZM194.069 140.597C197.444 141.445 200.256 143.663 203.363 146.157L205.867 143.037C202.889 140.647 199.409 137.814 195.044 136.717L194.069 140.597ZM203.363 146.156C205.848 148.153 208.688 150.428 211.979 151.717L213.437 147.992C210.809 146.963 208.432 145.098 205.868 143.038L203.363 146.156ZM211.987 151.72C212.988 152.107 214.036 152.417 214.968 152.686L216.078 148.844C215.147 148.575 214.249 148.306 213.429 147.989L211.987 151.72ZM214.982 152.691C216.156 153.02 217.214 153.339 218.188 153.772L219.812 150.117C218.551 149.557 217.249 149.172 216.063 148.839L214.982 152.691ZM220.848 151.179C218.906 146.492 215.588 142.282 211.454 139.31L209.119 142.558C212.643 145.091 215.493 148.705 217.152 152.71L220.848 151.179Z" fill="white" mask="url(#path-4-inside-1_639_313)"/>
</g>
<defs>
<filter id="filter0_d_639_313" x="0" y="0" width="361" height="357" filterUnits="userSpaceOnUse" color-interpolation-filters="sRGB">
<feFlood flood-opacity="0" result="BackgroundImageFix"/>
<feColorMatrix in="SourceAlpha" type="matrix" values="0 0 0 0 0 0 0 0 0 0 0 0 0 0 0 0 0 0 127 0" result="hardAlpha"/>
<feOffset dx="2" dy="2"/>
<feGaussianBlur stdDeviation="2"/>
<feComposite in2="hardAlpha" operator="out"/>
<feColorMatrix type="matrix" values="0 0 0 0 0 0 0 0 0 0 0 0 0 0 0 0 0 0 0.25 0"/>
<feBlend mode="normal" in2="BackgroundImageFix" result="effect1_dropShadow_639_313"/>
<feBlend mode="normal" in="SourceGraphic" in2="effect1_dropShadow_639_313" result="shape"/>
</filter>
<linearGradient id="paint0_linear_639_313" x1="144.488" y1="202.766" x2="213.512" y2="83.2345" gradientUnits="userSpaceOnUse">
<stop stop-color="#0460A9"/>
<stop offset="1" stop-color="#50E2D0"/>
</linearGradient>
</defs>
</svg>
