<svg width="361" height="357" viewBox="0 0 361 357" fill="none" xmlns="http://www.w3.org/2000/svg">
<g filter="url(#filter0_d_660_688)">
<rect x="2" y="2" width="353" height="349" rx="19.0804" fill="white"/>
<path d="M96.7425 259.461H101.256C103.631 259.461 104.853 258.341 104.853 256.508C104.853 254.744 103.699 253.488 101.391 253.488H96.7425V259.461ZM90.7363 273V248.738H102.342C107.16 248.738 110.825 251.215 110.825 255.728C110.825 258.544 109.434 260.614 106.617 261.598V261.7C108.721 262.413 109.807 263.736 110.146 266.145C110.655 269.335 110.316 272.389 111.164 272.695V273H105.328C104.683 272.627 104.785 269.776 104.412 267.367C104.106 265.127 102.952 263.906 100.373 263.906H96.7425V273H90.7363ZM121.481 273.509C115.746 273.509 112.217 269.539 112.217 264.279C112.217 259.087 115.848 255.117 121.141 255.117C123.618 255.117 125.587 255.931 127.08 257.289C129.15 259.189 130.168 262.209 130.134 265.738H117.646C117.985 268.08 119.275 269.539 121.548 269.539C123.008 269.539 123.958 268.894 124.433 267.808H129.828C129.455 269.369 128.437 270.862 126.91 271.914C125.451 272.932 123.686 273.509 121.481 273.509ZM117.68 262.447H124.535C124.331 260.377 123.042 259.053 121.243 259.053C119.139 259.053 118.053 260.377 117.68 262.447ZM138.543 273.204C135.319 273.204 133.011 272.152 133.011 268.419V259.087H130.704V255.626H133.011V250.129H138.407V255.626H141.563V259.087H138.407V267.231C138.407 268.589 139.153 268.928 140.341 268.928C140.816 268.928 141.359 268.894 141.563 268.894V272.932C141.088 273.068 140.036 273.204 138.543 273.204ZM146.333 248.229C148.064 248.229 149.387 249.45 149.387 251.181C149.387 252.911 148.064 254.133 146.333 254.133C144.603 254.133 143.279 252.911 143.279 251.181C143.279 249.45 144.603 248.229 146.333 248.229ZM143.551 273V255.626H149.082V273H143.551ZM165.488 273.509C159.753 273.509 156.224 269.539 156.224 264.279C156.224 259.087 159.855 255.117 165.149 255.117C167.626 255.117 169.594 255.931 171.087 257.289C173.157 259.189 174.175 262.209 174.141 265.738H161.654C161.993 268.08 163.283 269.539 165.556 269.539C167.015 269.539 167.965 268.894 168.44 267.808H173.836C173.463 269.369 172.445 270.862 170.918 271.914C169.458 272.932 167.694 273.509 165.488 273.509ZM161.688 262.447H168.542C168.339 260.377 167.049 259.053 165.251 259.053C163.147 259.053 162.061 260.377 161.688 262.447ZM181.601 273V248.738H192.528C195.48 248.738 197.652 249.552 199.145 250.977C200.706 252.436 201.588 254.506 201.588 256.949C201.588 261.598 198.365 264.89 193.376 264.89H187.709V273H181.601ZM187.709 260.139H192.155C194.326 260.139 195.548 258.85 195.548 256.915C195.548 254.981 194.292 253.794 192.155 253.794H187.709V260.139ZM203.738 273V248.738H214.087C220.806 248.738 225.319 253.59 225.319 261.021C225.319 265.297 223.826 268.724 221.112 270.794C219.211 272.22 216.768 273 213.714 273H203.738ZM209.744 267.944H213.273C217.209 267.944 219.245 265.467 219.245 261.021C219.245 256.61 217.107 253.76 213.341 253.76H209.744V267.944ZM232.609 273V253.828H225.55V248.738H245.741V253.828H238.615V273H232.609ZM252.055 264.313H257.755L255.923 258.443C255.516 257.187 254.973 255.015 254.973 255.015H254.905C254.905 255.015 254.328 257.187 253.921 258.443L252.055 264.313ZM243.232 273L251.953 248.738H258.129L266.884 273H260.572L259.147 268.623H250.663L249.272 273H243.232Z" fill="#002068"/>
<path d="M179 212C217.108 212 248 181.108 248 143C248 104.892 217.108 74 179 74C140.892 74 110 104.892 110 143C110 181.108 140.892 212 179 212Z" fill="url(#paint0_linear_660_688)"/>
<path d="M178.862 174.034C175.828 174.034 173.345 176.517 173.345 179.552C173.345 180.931 173.897 182.31 174.724 183.414C175.276 182.31 176.379 181.207 177.759 180.931C176.931 180.379 176.379 179.552 176.379 178.724C176.379 177.345 177.483 176.241 178.862 176.241C180.241 176.241 181.621 177.345 181.621 178.724C181.621 179.552 181.069 180.379 180.241 180.931C181.621 181.207 182.724 182.31 183.276 183.414C184.103 182.31 184.655 180.931 184.655 179.552C184.655 176.517 182.172 174.034 178.862 174.034ZM195.414 142.034H208.379C208.655 138.448 211.966 135.69 215.552 135.69C219.69 135.69 223 139 223 142.862C223 147 219.69 150.31 215.552 150.31C211.966 150.31 208.655 147.552 208.379 143.69L195.414 143.966C194.862 152.241 188.241 158.862 179.69 159.414L179.966 172.379C183.552 172.655 186.31 175.966 186.31 179.552C186.31 183.69 183 187 178.862 187C175 187 171.69 183.69 171.69 179.552C171.69 175.966 174.448 172.655 178.034 172.379V159.414C169.759 158.862 162.862 152.241 162.586 143.69L149.621 143.966C149.345 147.552 146.034 150.31 142.448 150.31C138.31 150.31 135 147 135 142.862C135 139 138.31 135.69 142.448 135.69C146.034 135.69 149.345 138.448 149.621 142.034H162.586C162.862 133.759 169.759 126.862 178.034 126.586V113.621C174.448 113.345 171.69 110.034 171.69 106.448C171.69 102.31 175 99 178.862 99C183 99 186.31 102.31 186.31 106.448C186.31 110.034 183.552 113.345 179.69 113.621L179.966 126.586C188.241 126.862 194.862 133.759 195.414 142.034ZM215.552 139.552C216.931 139.552 218.034 140.655 218.034 142.034C218.034 143.138 217.483 143.966 216.655 144.241C218.31 144.517 219.414 145.621 219.69 146.724C220.793 145.621 221.345 144.517 221.345 142.862C221.345 139.828 218.586 137.345 215.552 137.345C212.517 137.345 210.034 139.828 210.034 142.862C210.034 144.517 210.586 145.621 211.414 146.724C211.69 145.621 213.069 144.517 214.448 144.241C213.621 143.966 213.069 143.138 213.069 142.034C213.069 140.655 214.172 139.552 215.552 139.552ZM142.448 139.552C143.828 139.552 144.931 140.655 144.931 142.034C144.931 143.138 144.379 143.966 143.552 144.241C144.931 144.517 146.034 145.621 146.586 146.724C147.414 145.621 147.966 144.517 147.966 142.862C147.966 139.828 145.483 137.345 142.448 137.345C139.138 137.345 136.655 139.828 136.655 142.862C136.655 144.517 137.207 145.621 138.034 146.724C138.586 145.621 139.69 144.517 141.069 144.241C140.241 143.966 139.69 143.138 139.69 142.034C139.69 140.655 141.069 139.552 142.448 139.552ZM178.862 102.862C180.241 102.862 181.621 103.966 181.621 105.345C181.621 106.448 181.069 107.276 180.241 107.828C181.621 108.103 182.724 108.931 183.276 110.034C184.103 109.207 184.655 107.828 184.655 106.448C184.655 103.138 182.172 100.655 178.862 100.655C175.828 100.655 173.345 103.138 173.345 106.448C173.345 107.828 173.897 109.207 174.724 110.034C175.276 108.931 176.379 108.103 177.759 107.828C176.931 107.276 176.379 106.448 176.379 105.345C176.379 103.966 177.483 102.862 178.862 102.862ZM178.862 134.586C182.448 134.586 185.207 137.345 185.207 140.655C185.207 143.138 183.828 145.069 181.621 146.172C185.759 147 189.069 150.034 189.345 153.345C192.103 150.586 193.759 146.724 193.759 142.862C193.759 134.862 187.138 128.241 178.862 128.241C170.862 128.241 164.241 134.862 164.241 142.862C164.241 146.724 165.897 150.586 168.655 153.345C168.931 150.034 171.966 147 176.103 146.172C174.172 145.069 172.793 143.138 172.793 140.655C172.793 137.345 175.552 134.586 178.862 134.586Z" fill="white"/>
</g>
<defs>
<filter id="filter0_d_660_688" x="0" y="0" width="361" height="357" filterUnits="userSpaceOnUse" color-interpolation-filters="sRGB">
<feFlood flood-opacity="0" result="BackgroundImageFix"/>
<feColorMatrix in="SourceAlpha" type="matrix" values="0 0 0 0 0 0 0 0 0 0 0 0 0 0 0 0 0 0 127 0" result="hardAlpha"/>
<feOffset dx="2" dy="2"/>
<feGaussianBlur stdDeviation="2"/>
<feComposite in2="hardAlpha" operator="out"/>
<feColorMatrix type="matrix" values="0 0 0 0 0 0 0 0 0 0 0 0 0 0 0 0 0 0 0.25 0"/>
<feBlend mode="normal" in2="BackgroundImageFix" result="effect1_dropShadow_660_688"/>
<feBlend mode="normal" in="SourceGraphic" in2="effect1_dropShadow_660_688" result="shape"/>
</filter>
<linearGradient id="paint0_linear_660_688" x1="144.488" y1="202.766" x2="213.512" y2="83.2345" gradientUnits="userSpaceOnUse">
<stop stop-color="#0460A9"/>
<stop offset="1" stop-color="#50E2D0"/>
</linearGradient>
</defs>
</svg>
