<svg width="361" height="357" viewBox="0 0 361 357" fill="none" xmlns="http://www.w3.org/2000/svg">
<g filter="url(#filter0_d_639_322)">
<rect x="2" y="2" width="353" height="349" rx="19.0804" fill="white"/>
<path d="M49.14 273V248.738H57.2162L60.1684 259.359C60.6096 260.886 61.5597 264.89 61.5597 264.89H61.6276C61.6276 264.89 62.5777 260.886 62.9849 259.359L65.9711 248.738H74.1151V273H68.6179V260.784C68.6179 259.8 68.7197 255.931 68.7197 255.931H68.6518C68.6518 255.931 67.8035 259.562 67.532 260.445L64.0368 273H59.0825L55.6213 260.479C55.3498 259.596 54.5015 255.931 54.5015 255.931H54.4336C54.4336 255.931 54.5354 259.834 54.5354 260.818V273H49.14ZM83.9892 269.912C86.0592 269.912 87.4844 268.657 87.4844 266.79V264.72C86.7718 265.093 85.7538 265.365 84.634 265.636C82.4962 266.111 81.6139 266.654 81.6139 267.978C81.6139 269.369 82.6319 269.912 83.9892 269.912ZM82.2247 273.441C78.7635 273.441 76.2863 271.575 76.2863 268.148C76.2863 264.313 79.3403 263.159 82.9373 262.684C86.1949 262.277 87.3487 261.938 87.3487 260.75C87.3487 259.63 86.6361 258.884 84.9733 258.884C83.2088 258.884 82.3265 259.664 82.1568 261.123H77.0668C77.2025 257.9 79.6797 255.151 84.9394 255.151C87.5523 255.151 89.3168 255.626 90.5723 256.576C92.0654 257.662 92.778 259.359 92.778 261.53V270.285C92.778 271.677 92.9138 272.457 93.3888 272.762V273H88.0273C87.7559 272.627 87.5862 271.948 87.4505 271.066H87.3826C86.3646 272.525 84.8376 273.441 82.2247 273.441ZM104.554 269.267C106.657 269.267 107.947 267.469 107.947 264.517C107.947 261.53 106.827 259.562 104.452 259.562C102.042 259.562 100.821 261.7 100.821 264.517C100.821 267.333 102.178 269.267 104.554 269.267ZM95.4593 278.735V255.626H100.753V257.73H100.855C102.042 256.169 103.739 255.117 106.114 255.117C110.729 255.117 113.546 259.087 113.546 264.313C113.546 269.946 110.526 273.543 105.979 273.543C103.739 273.543 102.144 272.661 101.058 271.202H100.99V278.735H95.4593ZM124.503 269.267C126.607 269.267 127.896 267.469 127.896 264.517C127.896 261.53 126.776 259.562 124.401 259.562C121.992 259.562 120.77 261.7 120.77 264.517C120.77 267.333 122.127 269.267 124.503 269.267ZM115.409 278.735V255.626H120.702V257.73H120.804C121.992 256.169 123.688 255.117 126.064 255.117C130.679 255.117 133.495 259.087 133.495 264.313C133.495 269.946 130.475 273.543 125.928 273.543C123.688 273.543 122.093 272.661 121.008 271.202H120.94V278.735H115.409ZM142.246 269.912C144.316 269.912 145.741 268.657 145.741 266.79V264.72C145.029 265.093 144.011 265.365 142.891 265.636C140.753 266.111 139.871 266.654 139.871 267.978C139.871 269.369 140.889 269.912 142.246 269.912ZM140.482 273.441C137.02 273.441 134.543 271.575 134.543 268.148C134.543 264.313 137.597 263.159 141.194 262.684C144.452 262.277 145.606 261.938 145.606 260.75C145.606 259.63 144.893 258.884 143.23 258.884C141.466 258.884 140.584 259.664 140.414 261.123H135.324C135.46 257.9 137.937 255.151 143.196 255.151C145.809 255.151 147.574 255.626 148.829 256.576C150.322 257.662 151.035 259.359 151.035 261.53V270.285C151.035 271.677 151.171 272.457 151.646 272.762V273H146.284C146.013 272.627 145.843 271.948 145.707 271.066H145.64C144.622 272.525 143.095 273.441 140.482 273.441ZM165.331 259.461H169.844C172.219 259.461 173.441 258.341 173.441 256.508C173.441 254.744 172.287 253.488 169.98 253.488H165.331V259.461ZM159.325 273V248.738H170.93C175.748 248.738 179.413 251.215 179.413 255.728C179.413 258.544 178.022 260.614 175.206 261.598V261.7C177.309 262.413 178.395 263.736 178.735 266.145C179.244 269.335 178.904 272.389 179.753 272.695V273H173.916C173.271 272.627 173.373 269.776 173 267.367C172.694 265.127 171.541 263.906 168.962 263.906H165.331V273H159.325ZM190.069 273.509C184.334 273.509 180.805 269.539 180.805 264.279C180.805 259.087 184.436 255.117 189.73 255.117C192.207 255.117 194.175 255.931 195.668 257.289C197.738 259.189 198.756 262.209 198.722 265.738H186.234C186.574 268.08 187.863 269.539 190.137 269.539C191.596 269.539 192.546 268.894 193.021 267.808H198.417C198.043 269.369 197.025 270.862 195.498 271.914C194.039 272.932 192.275 273.509 190.069 273.509ZM186.268 262.447H193.123C192.919 260.377 191.63 259.053 189.831 259.053C187.728 259.053 186.642 260.377 186.268 262.447ZM208.616 267.944C211.025 267.944 212.145 266.044 212.145 263.6C212.145 261.259 210.924 259.291 208.616 259.291C206.546 259.291 205.189 260.988 205.189 263.634C205.189 266.247 206.546 267.944 208.616 267.944ZM208.65 279.006C203.865 279.006 200.71 277.038 200.167 273.407H205.528C205.834 274.323 206.75 275.104 208.582 275.104C210.924 275.104 211.908 273.882 211.908 271.778V270.048H211.772C210.754 271.202 209.43 272.05 207.327 272.05C203.424 272.05 199.793 269.132 199.793 263.804C199.793 258.714 202.779 255.117 207.089 255.117C209.397 255.117 210.957 256.033 211.975 257.492H212.043V255.626H217.337V271.303C217.337 273.916 216.421 275.816 215.03 277.072C213.502 278.429 211.229 279.006 208.65 279.006ZM222.775 248.229C224.506 248.229 225.829 249.45 225.829 251.181C225.829 252.911 224.506 254.133 222.775 254.133C221.045 254.133 219.721 252.911 219.721 251.181C219.721 249.45 221.045 248.229 222.775 248.229ZM219.993 273V255.626H225.524V273H219.993ZM236.695 273.543C231.13 273.543 227.397 269.573 227.397 264.347C227.397 259.121 231.13 255.151 236.695 255.151C242.294 255.151 245.959 259.121 245.959 264.347C245.959 269.573 242.294 273.543 236.695 273.543ZM236.661 269.607C239.071 269.607 240.36 267.503 240.36 264.347C240.36 261.191 239.071 259.053 236.661 259.053C234.252 259.053 232.997 261.191 232.997 264.347C232.997 267.503 234.252 269.607 236.661 269.607ZM247.829 273V255.626H253.157V258.001H253.258C254.548 256.135 256.211 255.117 258.62 255.117C262.42 255.117 264.66 257.832 264.66 261.7V273H259.129V262.82C259.129 260.988 258.213 259.732 256.414 259.732C254.582 259.732 253.36 261.259 253.36 263.397V273H247.829ZM274.07 269.912C276.14 269.912 277.565 268.657 277.565 266.79V264.72C276.853 265.093 275.835 265.365 274.715 265.636C272.577 266.111 271.695 266.654 271.695 267.978C271.695 269.369 272.713 269.912 274.07 269.912ZM272.306 273.441C268.844 273.441 266.367 271.575 266.367 268.148C266.367 264.313 269.421 263.159 273.018 262.684C276.276 262.277 277.43 261.938 277.43 260.75C277.43 259.63 276.717 258.884 275.054 258.884C273.29 258.884 272.407 259.664 272.238 261.123H267.148C267.283 257.9 269.761 255.151 275.02 255.151C277.633 255.151 279.398 255.626 280.653 256.576C282.146 257.662 282.859 259.359 282.859 261.53V270.285C282.859 271.677 282.995 272.457 283.47 272.762V273H278.108C277.837 272.627 277.667 271.948 277.531 271.066H277.464C276.446 272.525 274.919 273.441 272.306 273.441ZM285.574 273V248.738H291.173V273H285.574ZM302.341 273.509C296.607 273.509 293.077 269.539 293.077 264.279C293.077 259.087 296.708 255.117 302.002 255.117C304.479 255.117 306.447 255.931 307.94 257.289C310.01 259.189 311.028 262.209 310.994 265.738H298.507C298.846 268.08 300.136 269.539 302.409 269.539C303.868 269.539 304.818 268.894 305.294 267.808H310.689C310.316 269.369 309.298 270.862 307.771 271.914C306.312 272.932 304.547 273.509 302.341 273.509ZM298.541 262.447H305.395C305.192 260.377 303.902 259.053 302.104 259.053C300 259.053 298.914 260.377 298.541 262.447ZM157.215 314.577C150.768 314.577 146.526 311.726 146.39 306.365H152.43C152.702 308.808 154.297 309.826 157.181 309.826C159.149 309.826 161.083 309.114 161.083 307.281C161.083 305.347 159.115 304.94 155.79 304.125C151.582 303.141 147.137 301.852 147.137 296.762C147.137 291.57 151.345 289.296 156.774 289.296C162.034 289.296 166.106 291.672 166.343 296.762H160.473C160.235 294.895 158.81 293.843 156.57 293.843C154.466 293.843 153.075 294.76 153.075 296.117C153.075 297.814 154.942 298.221 158.572 299.035C163.086 300.087 167.158 301.479 167.158 306.67C167.158 311.76 162.814 314.577 157.215 314.577ZM179.617 314.577C173.169 314.577 168.927 311.726 168.792 306.365H174.832C175.103 308.808 176.698 309.826 179.583 309.826C181.551 309.826 183.485 309.114 183.485 307.281C183.485 305.347 181.517 304.94 178.191 304.125C173.984 303.141 169.538 301.852 169.538 296.762C169.538 291.57 173.746 289.296 179.175 289.296C184.435 289.296 188.507 291.672 188.745 296.762H182.874C182.637 294.895 181.211 293.843 178.972 293.843C176.868 293.843 175.477 294.76 175.477 296.117C175.477 297.814 177.343 298.221 180.974 299.035C185.487 300.087 189.559 301.479 189.559 306.67C189.559 311.76 185.216 314.577 179.617 314.577ZM198.022 300.461H202.535C204.91 300.461 206.132 299.341 206.132 297.508C206.132 295.744 204.978 294.488 202.671 294.488H198.022V300.461ZM192.016 314V289.738H203.621C208.439 289.738 212.104 292.215 212.104 296.728C212.104 299.544 210.713 301.614 207.896 302.598V302.7C210 303.413 211.086 304.736 211.426 307.145C211.935 310.335 211.595 313.389 212.444 313.695V314H206.607C205.962 313.627 206.064 310.776 205.691 308.367C205.385 306.127 204.232 304.906 201.653 304.906H198.022V314H192.016Z" fill="#002068"/>
<path d="M179 212C217.108 212 248 181.108 248 143C248 104.892 217.108 74 179 74C140.892 74 110 104.892 110 143C110 181.108 140.892 212 179 212Z" fill="url(#paint0_linear_639_322)"/>
<mask id="path-4-inside-1_639_322" fill="white">
<path d="M178.805 103.507C177.83 104.264 177.343 105.558 177.04 106.6C176.973 106.819 176.923 107.054 176.855 107.273C176.586 108.264 176.301 109.29 175.729 110.181C175.275 110.887 174.721 111.341 174.115 111.492C173.393 111.677 172.468 111.341 172.233 110.567C172.199 110.466 172.182 110.366 172.165 110.265C172.115 110.029 172.081 109.878 171.981 109.828C171.863 109.744 171.644 109.828 171.342 110.029L168.955 111.727C168.955 111.727 168.82 111.778 168.753 111.761C168.686 111.744 168.619 111.694 168.602 111.626C167.812 109.727 165.912 108.348 163.845 108.214C163.441 108.197 163.138 108.214 162.903 108.315C162.432 108.517 162.13 108.987 161.844 109.475C161.373 110.265 160.936 111.088 160.533 111.929C160.583 112.047 160.583 112.164 160.533 112.282C159.02 115.93 161.071 119.964 162.432 122.049C163.122 123.108 163.912 124.15 164.685 125.158C166.08 127.008 167.543 128.907 168.501 131.092C169.241 132.773 169.661 134.572 170.081 136.32C170.484 138.035 170.905 139.817 171.628 141.43C171.93 142.103 172.3 142.775 172.653 143.431C173.191 144.423 173.746 145.431 174.115 146.524C174.889 148.776 174.62 150.945 173.409 152.323C172.401 153.483 170.938 153.92 169.509 154.341C169.14 154.458 168.753 154.559 168.4 154.694C166.803 155.248 165.273 156.459 165.441 157.921C165.509 158.442 165.778 158.946 166.08 159.468C166.164 159.636 166.265 159.787 166.349 159.955C168.249 163.603 167.072 168.511 163.744 170.915C163.592 171.016 163.441 171.134 163.273 171.235C162.769 171.571 162.281 171.907 161.979 172.361C161.525 173.05 161.558 173.975 161.626 175L162.096 181.539C162.13 182.027 162.197 182.565 162.5 182.817C162.769 183.035 163.223 183.018 163.71 182.968L170.182 182.396C171.661 182.262 173.107 182.01 173.712 180.968C174.082 180.346 174.065 179.572 174.048 178.732C174.048 178.48 174.048 178.228 174.048 177.975C174.132 174.731 176.015 171.588 179.78 168.343L180.352 167.856C182.083 166.393 183.882 164.864 184.437 162.779C184.823 161.317 184.538 159.821 184.252 158.224C184.084 157.299 183.916 156.358 183.865 155.4C183.647 150.39 187.664 145.583 192.623 144.893C193.396 144.792 194.187 144.759 194.943 144.759C196.137 144.725 197.263 144.708 198.322 144.355C199.33 144.036 200.272 143.196 200.658 142.271C200.827 141.851 200.961 141.229 200.658 140.59C200.44 140.153 200.036 139.8 199.633 139.43C199.381 139.195 199.112 138.976 198.893 138.707C198.137 137.867 197.834 136.556 198.524 135.749C198.725 133.782 198.339 131.58 197.935 129.68C197.481 127.562 196.288 125.831 194.741 125.041C194.388 124.873 194.018 124.721 193.632 124.587C192.993 124.352 192.337 124.099 191.766 123.679C191.228 123.276 190.808 122.755 190.421 122.233C189.967 121.645 189.53 121.09 188.942 120.788C188.202 120.384 187.311 120.418 186.353 120.468C185.815 120.485 185.26 120.502 184.723 120.468C183.159 120.3 181.714 119.393 180.739 117.964C179.764 116.535 179.444 114.854 179.864 113.341C180.016 112.769 180.268 112.232 180.503 111.727C180.654 111.391 180.823 111.038 180.94 110.685C181.478 109.239 181.512 107.693 181.562 106.062C181.579 105.205 181.613 104.348 181.714 103.473C180.957 102.767 179.612 102.902 178.789 103.541"/>
</mask>
<path d="M177.04 106.6L178.952 107.188L178.957 107.173L178.961 107.158L177.04 106.6ZM176.855 107.273L174.944 106.684L174.934 106.717L174.925 106.749L176.855 107.273ZM175.729 110.181L177.412 111.262L177.413 111.261L175.729 110.181ZM174.115 111.492L173.63 109.552L173.62 109.554L174.115 111.492ZM172.233 110.567L174.146 109.985L174.138 109.96L174.13 109.935L172.233 110.567ZM172.165 110.265L174.138 109.936L174.131 109.891L174.121 109.846L172.165 110.265ZM171.981 109.828L170.818 111.455L170.946 111.546L171.086 111.617L171.981 109.828ZM171.342 110.029L170.232 108.365L170.207 108.382L170.183 108.4L171.342 110.029ZM168.955 111.727L169.657 113.6L169.901 113.508L170.114 113.357L168.955 111.727ZM168.602 111.626L170.542 111.141L170.506 110.996L170.448 110.858L168.602 111.626ZM163.845 108.214L163.974 106.218L163.951 106.217L163.928 106.216L163.845 108.214ZM162.903 108.315L163.691 110.153L162.903 108.315ZM161.844 109.475L163.562 110.498L163.57 110.486L161.844 109.475ZM160.533 111.929L158.73 111.063L158.337 111.882L158.695 112.717L160.533 111.929ZM160.533 112.282L158.695 111.494L158.69 111.505L158.686 111.516L160.533 112.282ZM162.432 122.049L164.109 120.958L164.107 120.955L162.432 122.049ZM164.685 125.158L166.282 123.954L166.277 123.948L166.272 123.942L164.685 125.158ZM168.501 131.092L166.669 131.895L166.67 131.898L168.501 131.092ZM170.081 136.32L172.028 135.862L172.026 135.853L170.081 136.32ZM171.628 141.43L169.802 142.248L169.804 142.251L171.628 141.43ZM172.653 143.431L170.892 144.379L170.895 144.384L172.653 143.431ZM174.115 146.524L172.221 147.165L172.224 147.173L174.115 146.524ZM173.409 152.323L171.906 151.004L171.9 151.011L173.409 152.323ZM169.509 154.341L168.945 152.422L168.924 152.428L168.903 152.435L169.509 154.341ZM168.4 154.694L169.056 156.583L169.084 156.573L169.112 156.563L168.4 154.694ZM165.441 157.921L163.455 158.149L163.456 158.163L163.458 158.177L165.441 157.921ZM166.08 159.468L167.869 158.573L167.841 158.517L167.81 158.463L166.08 159.468ZM166.349 159.955L164.56 160.85L164.568 160.864L164.575 160.879L166.349 159.955ZM163.744 170.915L164.853 172.579L164.884 172.559L164.915 172.537L163.744 170.915ZM163.273 171.235L162.244 169.52L162.203 169.544L162.164 169.571L163.273 171.235ZM161.979 172.361L160.314 171.251L160.308 171.261L161.979 172.361ZM161.626 175L159.63 175.131L159.631 175.144L161.626 175ZM162.096 181.539L164.092 181.402L164.091 181.396L162.096 181.539ZM162.5 182.817L161.219 184.353L161.229 184.361L161.239 184.369L162.5 182.817ZM163.71 182.968L163.534 180.976L163.519 180.977L163.504 180.979L163.71 182.968ZM170.182 182.396L170.358 184.389L170.363 184.388L170.182 182.396ZM173.712 180.968L171.993 179.945L171.988 179.954L171.982 179.963L173.712 180.968ZM174.048 178.732H172.048V178.752L172.049 178.772L174.048 178.732ZM174.048 177.975L172.049 177.924L172.048 177.95V177.975H174.048ZM179.78 168.343L178.482 166.822L178.475 166.828L179.78 168.343ZM180.352 167.856L179.061 166.328L179.054 166.334L180.352 167.856ZM184.437 162.779L186.369 163.294L186.37 163.29L184.437 162.779ZM184.252 158.224L186.221 157.871L186.22 157.866L184.252 158.224ZM183.865 155.4L181.867 155.487L181.867 155.496L181.868 155.505L183.865 155.4ZM192.623 144.893L192.365 142.91L192.356 142.911L192.348 142.912L192.623 144.893ZM194.943 144.759V146.759H194.971L194.999 146.758L194.943 144.759ZM198.322 144.355L197.718 142.449L197.704 142.453L197.689 142.458L198.322 144.355ZM200.658 142.271L202.504 143.043L202.51 143.028L202.515 143.014L200.658 142.271ZM200.658 140.59L202.466 139.734L202.457 139.715L202.447 139.696L200.658 140.59ZM199.633 139.43L198.268 140.892L198.275 140.898L198.282 140.904L199.633 139.43ZM198.893 138.707L200.446 137.446L200.414 137.407L200.38 137.369L198.893 138.707ZM198.524 135.749L200.044 137.048L200.449 136.573L200.513 135.953L198.524 135.749ZM197.935 129.68L199.892 129.265L199.891 129.261L197.935 129.68ZM194.741 125.041L195.651 123.26L195.626 123.247L195.601 123.235L194.741 125.041ZM193.632 124.587L192.94 126.464L192.958 126.47L192.975 126.476L193.632 124.587ZM191.766 123.679L190.566 125.279L190.574 125.285L190.581 125.29L191.766 123.679ZM190.421 122.233L192.027 121.042L192.016 121.027L192.005 121.012L190.421 122.233ZM188.942 120.788L187.984 122.544L188.005 122.555L188.027 122.566L188.942 120.788ZM186.353 120.468L186.416 122.467L186.437 122.467L186.458 122.466L186.353 120.468ZM184.723 120.468L184.509 122.457L184.553 122.462L184.598 122.465L184.723 120.468ZM179.864 113.341L181.791 113.876L181.795 113.865L181.798 113.853L179.864 113.341ZM180.503 111.727L182.316 112.573L182.321 112.561L182.327 112.548L180.503 111.727ZM180.94 110.685L179.066 109.988L179.054 110.02L179.043 110.053L180.94 110.685ZM181.562 106.062L183.561 106.124L183.562 106.113L183.562 106.101L181.562 106.062ZM181.714 103.473L183.7 103.703L183.816 102.7L183.078 102.011L181.714 103.473ZM177.579 101.927C176.051 103.113 175.427 104.986 175.12 106.043L178.961 107.158C179.259 106.13 179.61 105.414 180.031 105.087L177.579 101.927ZM175.129 106.012C175.08 106.172 175.039 106.329 175.012 106.434C174.98 106.556 174.962 106.625 174.944 106.684L178.767 107.861C178.816 107.701 178.857 107.544 178.884 107.438C178.915 107.317 178.934 107.247 178.952 107.188L175.129 106.012ZM174.925 106.749C174.646 107.779 174.426 108.508 174.046 109.101L177.413 111.261C178.175 110.072 178.527 108.75 178.786 107.796L174.925 106.749ZM174.047 109.099C173.766 109.535 173.585 109.563 173.63 109.552L174.6 113.432C175.856 113.118 176.784 112.238 177.412 111.262L174.047 109.099ZM173.62 109.554C173.676 109.54 173.713 109.541 173.732 109.543C173.751 109.544 173.777 109.549 173.811 109.564C173.875 109.594 174.063 109.712 174.146 109.985L170.319 111.15C170.638 112.196 171.405 112.869 172.172 113.213C172.921 113.55 173.796 113.638 174.611 113.429L173.62 109.554ZM174.13 109.935C174.137 109.957 174.143 109.975 174.146 109.988C174.149 110 174.151 110.008 174.151 110.008C174.151 110.009 174.15 110.004 174.148 109.992C174.147 109.986 174.145 109.978 174.144 109.969C174.142 109.959 174.14 109.949 174.138 109.936L170.193 110.594C170.206 110.673 170.244 110.927 170.335 111.2L174.13 109.935ZM174.121 109.846C174.106 109.776 174.055 109.519 173.967 109.281C173.879 109.045 173.609 108.406 172.875 108.039L171.086 111.617C170.453 111.3 170.25 110.762 170.217 110.673C170.193 110.607 170.184 110.567 170.187 110.582C170.191 110.596 170.196 110.62 170.21 110.684L174.121 109.846ZM173.143 108.2C172.287 107.589 171.396 107.825 171.098 107.924C170.737 108.044 170.431 108.233 170.232 108.365L172.451 111.694C172.555 111.624 172.51 111.67 172.363 111.719C172.28 111.747 171.556 111.982 170.818 111.455L173.143 108.2ZM170.183 108.4L167.796 110.097L170.114 113.357L172.501 111.659L170.183 108.4ZM168.955 111.727C168.252 109.855 168.253 109.855 168.253 109.854C168.253 109.854 168.253 109.854 168.253 109.854C168.254 109.854 168.254 109.854 168.254 109.854C168.255 109.854 168.256 109.853 168.256 109.853C168.258 109.853 168.259 109.852 168.26 109.852C168.263 109.851 168.265 109.85 168.268 109.849C168.273 109.847 168.277 109.845 168.282 109.844C168.292 109.84 168.301 109.837 168.311 109.834C168.329 109.828 168.357 109.819 168.394 109.81C168.425 109.802 168.499 109.785 168.6 109.774C168.67 109.767 168.921 109.741 169.238 109.821L168.268 113.701C168.619 113.789 168.911 113.764 169.026 113.751C169.171 113.736 169.291 113.709 169.364 113.691C169.443 113.671 169.509 113.651 169.554 113.636C169.578 113.628 169.598 113.621 169.615 113.615C169.624 113.612 169.632 113.609 169.639 113.607C169.642 113.605 169.645 113.604 169.648 113.603C169.65 113.602 169.652 113.602 169.653 113.601C169.654 113.601 169.654 113.601 169.655 113.601C169.655 113.6 169.656 113.6 169.656 113.6C169.656 113.6 169.657 113.6 169.657 113.6C169.657 113.6 169.657 113.6 168.955 111.727ZM169.238 109.821C169.492 109.884 169.737 110.005 169.95 110.186C170.163 110.366 170.426 110.677 170.542 111.141L166.661 112.111C166.916 113.129 167.752 113.572 168.268 113.701L169.238 109.821ZM170.448 110.858C169.37 108.265 166.811 106.403 163.974 106.218L163.715 110.21C165.014 110.294 166.254 111.189 166.755 112.394L170.448 110.858ZM163.928 106.216C163.51 106.198 162.802 106.182 162.115 106.476L163.691 110.153C163.625 110.181 163.572 110.196 163.539 110.204C163.506 110.211 163.491 110.212 163.499 110.211C163.508 110.211 163.532 110.209 163.578 110.208C163.624 110.208 163.683 110.209 163.761 110.212L163.928 106.216ZM162.115 106.476C160.951 106.975 160.355 108.06 160.119 108.463L163.57 110.486C163.636 110.373 163.688 110.286 163.737 110.212C163.785 110.139 163.818 110.095 163.839 110.069C163.884 110.016 163.838 110.09 163.691 110.153L162.115 106.476ZM160.126 108.451C159.621 109.298 159.156 110.175 158.73 111.063L162.336 112.794C162.716 112.002 163.126 111.231 163.562 110.498L160.126 108.451ZM158.695 112.717C158.623 112.549 158.571 112.34 158.571 112.105C158.571 111.87 158.623 111.662 158.695 111.494L162.371 113.07C162.637 112.449 162.637 111.762 162.371 111.141L158.695 112.717ZM158.686 111.516C157.698 113.896 157.913 116.313 158.482 118.302C159.051 120.291 160.017 122.008 160.758 123.142L164.107 120.955C163.486 120.005 162.746 118.663 162.328 117.201C161.909 115.74 161.855 114.316 162.38 113.048L158.686 111.516ZM160.756 123.139C161.493 124.271 162.327 125.369 163.098 126.375L166.272 123.942C165.497 122.93 164.751 121.944 164.109 120.958L160.756 123.139ZM163.088 126.363C164.52 128.26 165.823 129.966 166.669 131.895L170.333 130.289C169.262 127.848 167.641 125.755 166.282 123.954L163.088 126.363ZM166.67 131.898C167.324 133.384 167.706 134.997 168.136 136.788L172.026 135.853C171.615 134.147 171.157 132.163 170.331 130.287L166.67 131.898ZM168.134 136.778C168.53 138.459 168.988 140.431 169.802 142.248L173.453 140.613C172.821 139.203 172.439 137.611 172.028 135.862L168.134 136.778ZM169.804 142.251C170.143 143.004 170.554 143.752 170.892 144.379L174.414 142.483C174.045 141.798 173.718 141.201 173.451 140.61L169.804 142.251ZM170.895 144.384C171.452 145.411 171.916 146.265 172.221 147.165L176.01 145.883C175.575 144.598 174.93 143.434 174.411 142.477L170.895 144.384ZM172.224 147.173C172.842 148.974 172.504 150.323 171.906 151.004L174.912 153.643C176.735 151.567 176.935 148.579 176.007 145.875L172.224 147.173ZM171.9 151.011C171.337 151.659 170.474 151.972 168.945 152.422L170.074 156.259C171.403 155.868 173.465 155.308 174.919 153.636L171.9 151.011ZM168.903 152.435C168.681 152.505 168.103 152.667 167.688 152.825L169.112 156.563C169.403 156.452 169.598 156.411 170.116 156.246L168.903 152.435ZM167.744 152.804C166.736 153.154 165.674 153.732 164.853 154.545C164.031 155.357 163.276 156.598 163.455 158.149L167.428 157.693C167.439 157.781 167.365 157.686 167.665 157.389C167.966 157.092 168.467 156.788 169.056 156.583L167.744 152.804ZM163.458 158.177C163.583 159.15 164.064 159.978 164.351 160.472L167.81 158.463C167.492 157.915 167.434 157.735 167.425 157.665L163.458 158.177ZM164.291 160.362C164.365 160.51 164.442 160.642 164.484 160.713C164.535 160.801 164.55 160.829 164.56 160.85L168.138 159.061C168.064 158.913 167.987 158.781 167.946 158.709C167.895 158.621 167.879 158.594 167.869 158.573L164.291 160.362ZM164.575 160.879C166.014 163.642 165.1 167.468 162.573 169.294L164.915 172.537C169.044 169.554 170.483 163.564 168.123 159.031L164.575 160.879ZM162.634 169.251C162.531 169.32 162.414 169.404 162.365 169.438C162.297 169.486 162.265 169.507 162.244 169.52L164.302 172.95C164.449 172.861 164.576 172.773 164.664 172.711C164.771 172.636 164.805 172.612 164.853 172.579L162.634 169.251ZM162.164 169.571C161.716 169.869 160.875 170.411 160.314 171.252L163.643 173.47C163.687 173.403 163.822 173.272 164.382 172.899L162.164 169.571ZM160.308 171.261C159.837 171.977 159.672 172.738 159.615 173.376C159.559 173.996 159.597 174.629 159.63 175.131L163.621 174.869C163.587 174.346 163.574 174.004 163.599 173.733C163.621 173.48 163.666 173.434 163.649 173.461L160.308 171.261ZM159.631 175.144L160.101 181.683L164.091 181.396L163.62 174.856L159.631 175.144ZM160.101 181.677C160.119 181.937 160.153 182.35 160.261 182.768C160.363 183.16 160.598 183.835 161.219 184.353L163.78 181.28C163.947 181.419 164.038 181.562 164.082 181.645C164.125 181.726 164.136 181.774 164.133 181.764C164.131 181.756 164.123 181.723 164.115 181.655C164.106 181.587 164.099 181.506 164.092 181.402L160.101 181.677ZM161.239 184.369C161.82 184.842 162.466 184.955 162.862 184.987C163.267 185.019 163.659 184.984 163.916 184.957L163.504 180.979C163.399 180.989 163.323 180.996 163.262 180.998C163.201 181.001 163.179 180.999 163.184 181C163.188 181 163.25 181.005 163.347 181.036C163.449 181.069 163.601 181.135 163.761 181.265L161.239 184.369ZM163.886 184.96L170.358 184.389L170.006 180.404L163.534 180.976L163.886 184.96ZM170.363 184.388C171.123 184.319 172.055 184.208 172.915 183.917C173.79 183.622 174.805 183.068 175.442 181.972L171.982 179.963C172.014 179.909 172.004 180.003 171.635 180.128C171.251 180.257 170.72 180.339 170.001 180.405L170.363 184.388ZM175.431 181.99C176.149 180.782 176.061 179.372 176.048 178.692L172.049 178.772C172.058 179.222 172.06 179.493 172.036 179.721C172.014 179.925 171.981 179.966 171.993 179.945L175.431 181.99ZM176.048 178.732C176.048 178.731 176.048 178.731 176.048 178.73C176.048 178.73 176.048 178.729 176.048 178.729C176.048 178.728 176.048 178.728 176.048 178.727C176.048 178.727 176.048 178.726 176.048 178.726C176.048 178.725 176.048 178.725 176.048 178.725C176.048 178.724 176.048 178.724 176.048 178.723C176.048 178.723 176.048 178.722 176.048 178.722C176.048 178.721 176.048 178.721 176.048 178.72C176.048 178.72 176.048 178.719 176.048 178.719C176.048 178.718 176.048 178.718 176.048 178.717C176.048 178.717 176.048 178.716 176.048 178.716C176.048 178.715 176.048 178.715 176.048 178.714C176.048 178.714 176.048 178.713 176.048 178.713C176.048 178.712 176.048 178.712 176.048 178.711C176.048 178.711 176.048 178.71 176.048 178.71C176.048 178.709 176.048 178.709 176.048 178.708C176.048 178.708 176.048 178.707 176.048 178.707C176.048 178.706 176.048 178.706 176.048 178.705C176.048 178.705 176.048 178.704 176.048 178.704C176.048 178.703 176.048 178.703 176.048 178.702C176.048 178.702 176.048 178.701 176.048 178.701C176.048 178.7 176.048 178.7 176.048 178.699C176.048 178.699 176.048 178.698 176.048 178.698C176.048 178.697 176.048 178.697 176.048 178.696C176.048 178.696 176.048 178.695 176.048 178.695C176.048 178.694 176.048 178.694 176.048 178.693C176.048 178.693 176.048 178.692 176.048 178.692C176.048 178.692 176.048 178.691 176.048 178.691C176.048 178.69 176.048 178.69 176.048 178.689C176.048 178.689 176.048 178.688 176.048 178.688C176.048 178.687 176.048 178.687 176.048 178.686C176.048 178.686 176.048 178.685 176.048 178.685C176.048 178.684 176.048 178.684 176.048 178.683C176.048 178.683 176.048 178.682 176.048 178.682C176.048 178.681 176.048 178.681 176.048 178.68C176.048 178.68 176.048 178.679 176.048 178.679C176.048 178.678 176.048 178.678 176.048 178.677C176.048 178.677 176.048 178.676 176.048 178.676C176.048 178.675 176.048 178.675 176.048 178.674C176.048 178.674 176.048 178.673 176.048 178.673C176.048 178.672 176.048 178.672 176.048 178.671C176.048 178.671 176.048 178.67 176.048 178.67C176.048 178.669 176.048 178.669 176.048 178.668C176.048 178.668 176.048 178.667 176.048 178.667C176.048 178.666 176.048 178.666 176.048 178.665C176.048 178.665 176.048 178.664 176.048 178.664C176.048 178.663 176.048 178.663 176.048 178.662C176.048 178.662 176.048 178.661 176.048 178.661C176.048 178.66 176.048 178.66 176.048 178.659C176.048 178.659 176.048 178.659 176.048 178.658C176.048 178.658 176.048 178.657 176.048 178.657C176.048 178.656 176.048 178.656 176.048 178.655C176.048 178.655 176.048 178.654 176.048 178.654C176.048 178.653 176.048 178.653 176.048 178.652C176.048 178.652 176.048 178.651 176.048 178.651C176.048 178.65 176.048 178.65 176.048 178.649C176.048 178.649 176.048 178.648 176.048 178.648C176.048 178.647 176.048 178.647 176.048 178.646C176.048 178.646 176.048 178.645 176.048 178.645C176.048 178.644 176.048 178.644 176.048 178.643C176.048 178.643 176.048 178.642 176.048 178.642C176.048 178.641 176.048 178.641 176.048 178.64C176.048 178.64 176.048 178.639 176.048 178.639C176.048 178.638 176.048 178.638 176.048 178.637C176.048 178.637 176.048 178.636 176.048 178.636C176.048 178.635 176.048 178.635 176.048 178.634C176.048 178.634 176.048 178.633 176.048 178.633C176.048 178.632 176.048 178.632 176.048 178.631C176.048 178.631 176.048 178.63 176.048 178.63C176.048 178.629 176.048 178.629 176.048 178.628C176.048 178.628 176.048 178.627 176.048 178.627C176.048 178.626 176.048 178.626 176.048 178.626C176.048 178.625 176.048 178.625 176.048 178.624C176.048 178.624 176.048 178.623 176.048 178.623C176.048 178.622 176.048 178.622 176.048 178.621C176.048 178.621 176.048 178.62 176.048 178.62C176.048 178.619 176.048 178.619 176.048 178.618C176.048 178.618 176.048 178.617 176.048 178.617C176.048 178.616 176.048 178.616 176.048 178.615C176.048 178.615 176.048 178.614 176.048 178.614C176.048 178.613 176.048 178.613 176.048 178.612C176.048 178.612 176.048 178.611 176.048 178.611C176.048 178.61 176.048 178.61 176.048 178.609C176.048 178.609 176.048 178.608 176.048 178.608C176.048 178.607 176.048 178.607 176.048 178.606C176.048 178.606 176.048 178.605 176.048 178.605C176.048 178.604 176.048 178.604 176.048 178.603C176.048 178.603 176.048 178.602 176.048 178.602C176.048 178.601 176.048 178.601 176.048 178.6C176.048 178.6 176.048 178.599 176.048 178.599C176.048 178.598 176.048 178.598 176.048 178.597C176.048 178.597 176.048 178.596 176.048 178.596C176.048 178.595 176.048 178.595 176.048 178.594C176.048 178.594 176.048 178.593 176.048 178.593C176.048 178.593 176.048 178.592 176.048 178.592C176.048 178.591 176.048 178.591 176.048 178.59C176.048 178.59 176.048 178.589 176.048 178.589C176.048 178.588 176.048 178.588 176.048 178.587C176.048 178.587 176.048 178.586 176.048 178.586C176.048 178.585 176.048 178.585 176.048 178.584C176.048 178.584 176.048 178.583 176.048 178.583C176.048 178.582 176.048 178.582 176.048 178.581C176.048 178.581 176.048 178.58 176.048 178.58C176.048 178.579 176.048 178.579 176.048 178.578C176.048 178.578 176.048 178.577 176.048 178.577C176.048 178.576 176.048 178.576 176.048 178.575C176.048 178.575 176.048 178.574 176.048 178.574C176.048 178.573 176.048 178.573 176.048 178.572C176.048 178.572 176.048 178.571 176.048 178.571C176.048 178.57 176.048 178.57 176.048 178.569C176.048 178.569 176.048 178.568 176.048 178.568C176.048 178.567 176.048 178.567 176.048 178.566C176.048 178.566 176.048 178.565 176.048 178.565C176.048 178.564 176.048 178.564 176.048 178.563C176.048 178.563 176.048 178.562 176.048 178.562C176.048 178.561 176.048 178.561 176.048 178.561C176.048 178.56 176.048 178.56 176.048 178.559C176.048 178.559 176.048 178.558 176.048 178.558C176.048 178.557 176.048 178.557 176.048 178.556C176.048 178.556 176.048 178.555 176.048 178.555C176.048 178.554 176.048 178.554 176.048 178.553C176.048 178.553 176.048 178.552 176.048 178.552C176.048 178.551 176.048 178.551 176.048 178.55C176.048 178.55 176.048 178.549 176.048 178.549C176.048 178.548 176.048 178.548 176.048 178.547C176.048 178.547 176.048 178.546 176.048 178.546C176.048 178.545 176.048 178.545 176.048 178.544C176.048 178.544 176.048 178.543 176.048 178.543C176.048 178.542 176.048 178.542 176.048 178.541C176.048 178.541 176.048 178.54 176.048 178.54C176.048 178.539 176.048 178.539 176.048 178.538C176.048 178.538 176.048 178.537 176.048 178.537C176.048 178.536 176.048 178.536 176.048 178.535C176.048 178.535 176.048 178.534 176.048 178.534C176.048 178.533 176.048 178.533 176.048 178.532C176.048 178.532 176.048 178.531 176.048 178.531C176.048 178.53 176.048 178.53 176.048 178.529C176.048 178.529 176.048 178.528 176.048 178.528C176.048 178.528 176.048 178.527 176.048 178.527C176.048 178.526 176.048 178.526 176.048 178.525C176.048 178.525 176.048 178.524 176.048 178.524C176.048 178.523 176.048 178.523 176.048 178.522C176.048 178.522 176.048 178.521 176.048 178.521C176.048 178.52 176.048 178.52 176.048 178.519C176.048 178.519 176.048 178.518 176.048 178.518C176.048 178.517 176.048 178.517 176.048 178.516C176.048 178.516 176.048 178.515 176.048 178.515C176.048 178.514 176.048 178.514 176.048 178.513C176.048 178.513 176.048 178.512 176.048 178.512C176.048 178.511 176.048 178.511 176.048 178.51C176.048 178.51 176.048 178.509 176.048 178.509C176.048 178.508 176.048 178.508 176.048 178.507C176.048 178.507 176.048 178.506 176.048 178.506C176.048 178.505 176.048 178.505 176.048 178.504C176.048 178.504 176.048 178.503 176.048 178.503C176.048 178.502 176.048 178.502 176.048 178.501C176.048 178.501 176.048 178.5 176.048 178.5C176.048 178.499 176.048 178.499 176.048 178.498C176.048 178.498 176.048 178.497 176.048 178.497C176.048 178.496 176.048 178.496 176.048 178.495C176.048 178.495 176.048 178.495 176.048 178.494C176.048 178.494 176.048 178.493 176.048 178.493C176.048 178.492 176.048 178.492 176.048 178.491C176.048 178.491 176.048 178.49 176.048 178.49C176.048 178.489 176.048 178.489 176.048 178.488C176.048 178.488 176.048 178.487 176.048 178.487C176.048 178.486 176.048 178.486 176.048 178.485C176.048 178.485 176.048 178.484 176.048 178.484C176.048 178.483 176.048 178.483 176.048 178.482C176.048 178.482 176.048 178.481 176.048 178.481C176.048 178.48 176.048 178.48 176.048 178.479C176.048 178.479 176.048 178.478 176.048 178.478C176.048 178.477 176.048 178.477 176.048 178.476C176.048 178.476 176.048 178.475 176.048 178.475C176.048 178.474 176.048 178.474 176.048 178.473C176.048 178.473 176.048 178.472 176.048 178.472C176.048 178.471 176.048 178.471 176.048 178.47C176.048 178.47 176.048 178.469 176.048 178.469C176.048 178.468 176.048 178.468 176.048 178.467C176.048 178.467 176.048 178.466 176.048 178.466C176.048 178.465 176.048 178.465 176.048 178.464C176.048 178.464 176.048 178.463 176.048 178.463C176.048 178.463 176.048 178.462 176.048 178.462C176.048 178.461 176.048 178.461 176.048 178.46C176.048 178.46 176.048 178.459 176.048 178.459C176.048 178.458 176.048 178.458 176.048 178.457C176.048 178.457 176.048 178.456 176.048 178.456C176.048 178.455 176.048 178.455 176.048 178.454C176.048 178.454 176.048 178.453 176.048 178.453C176.048 178.452 176.048 178.452 176.048 178.451C176.048 178.451 176.048 178.45 176.048 178.45C176.048 178.449 176.048 178.449 176.048 178.448C176.048 178.448 176.048 178.447 176.048 178.447C176.048 178.446 176.048 178.446 176.048 178.445C176.048 178.445 176.048 178.444 176.048 178.444C176.048 178.443 176.048 178.443 176.048 178.442C176.048 178.442 176.048 178.441 176.048 178.441C176.048 178.44 176.048 178.44 176.048 178.439C176.048 178.439 176.048 178.438 176.048 178.438C176.048 178.437 176.048 178.437 176.048 178.436C176.048 178.436 176.048 178.435 176.048 178.435C176.048 178.434 176.048 178.434 176.048 178.433C176.048 178.433 176.048 178.432 176.048 178.432C176.048 178.431 176.048 178.431 176.048 178.43C176.048 178.43 176.048 178.43 176.048 178.429C176.048 178.429 176.048 178.428 176.048 178.428C176.048 178.427 176.048 178.427 176.048 178.426C176.048 178.426 176.048 178.425 176.048 178.425C176.048 178.424 176.048 178.424 176.048 178.423C176.048 178.423 176.048 178.422 176.048 178.422C176.048 178.421 176.048 178.421 176.048 178.42C176.048 178.42 176.048 178.419 176.048 178.419C176.048 178.418 176.048 178.418 176.048 178.417C176.048 178.417 176.048 178.416 176.048 178.416C176.048 178.415 176.048 178.415 176.048 178.414C176.048 178.414 176.048 178.413 176.048 178.413C176.048 178.412 176.048 178.412 176.048 178.411C176.048 178.411 176.048 178.41 176.048 178.41C176.048 178.409 176.048 178.409 176.048 178.408C176.048 178.408 176.048 178.407 176.048 178.407C176.048 178.406 176.048 178.406 176.048 178.405C176.048 178.405 176.048 178.404 176.048 178.404C176.048 178.403 176.048 178.403 176.048 178.402C176.048 178.402 176.048 178.401 176.048 178.401C176.048 178.4 176.048 178.4 176.048 178.399C176.048 178.399 176.048 178.398 176.048 178.398C176.048 178.397 176.048 178.397 176.048 178.397C176.048 178.396 176.048 178.396 176.048 178.395C176.048 178.395 176.048 178.394 176.048 178.394C176.048 178.393 176.048 178.393 176.048 178.392C176.048 178.392 176.048 178.391 176.048 178.391C176.048 178.39 176.048 178.39 176.048 178.389C176.048 178.389 176.048 178.388 176.048 178.388C176.048 178.387 176.048 178.387 176.048 178.386C176.048 178.386 176.048 178.385 176.048 178.385C176.048 178.384 176.048 178.384 176.048 178.383C176.048 178.383 176.048 178.382 176.048 178.382C176.048 178.381 176.048 178.381 176.048 178.38C176.048 178.38 176.048 178.379 176.048 178.379C176.048 178.378 176.048 178.378 176.048 178.377C176.048 178.377 176.048 178.376 176.048 178.376C176.048 178.375 176.048 178.375 176.048 178.374C176.048 178.374 176.048 178.373 176.048 178.373C176.048 178.372 176.048 178.372 176.048 178.371C176.048 178.371 176.048 178.37 176.048 178.37C176.048 178.369 176.048 178.369 176.048 178.368C176.048 178.368 176.048 178.367 176.048 178.367C176.048 178.366 176.048 178.366 176.048 178.365C176.048 178.365 176.048 178.364 176.048 178.364C176.048 178.364 176.048 178.363 176.048 178.363C176.048 178.362 176.048 178.362 176.048 178.361C176.048 178.361 176.048 178.36 176.048 178.36C176.048 178.359 176.048 178.359 176.048 178.358C176.048 178.358 176.048 178.357 176.048 178.357C176.048 178.356 176.048 178.356 176.048 178.355C176.048 178.355 176.048 178.354 176.048 178.354C176.048 178.353 176.048 178.353 176.048 178.352C176.048 178.352 176.048 178.351 176.048 178.351C176.048 178.35 176.048 178.35 176.048 178.349C176.048 178.349 176.048 178.348 176.048 178.348C176.048 178.347 176.048 178.347 176.048 178.346C176.048 178.346 176.048 178.345 176.048 178.345C176.048 178.344 176.048 178.344 176.048 178.343C176.048 178.343 176.048 178.342 176.048 178.342C176.048 178.341 176.048 178.341 176.048 178.34C176.048 178.34 176.048 178.339 176.048 178.339C176.048 178.338 176.048 178.338 176.048 178.337C176.048 178.337 176.048 178.336 176.048 178.336C176.048 178.335 176.048 178.335 176.048 178.334C176.048 178.334 176.048 178.333 176.048 178.333C176.048 178.332 176.048 178.332 176.048 178.332C176.048 178.331 176.048 178.331 176.048 178.33C176.048 178.33 176.048 178.329 176.048 178.329C176.048 178.328 176.048 178.328 176.048 178.327C176.048 178.327 176.048 178.326 176.048 178.326C176.048 178.325 176.048 178.325 176.048 178.324C176.048 178.324 176.048 178.323 176.048 178.323C176.048 178.322 176.048 178.322 176.048 178.321C176.048 178.321 176.048 178.32 176.048 178.32C176.048 178.319 176.048 178.319 176.048 178.318C176.048 178.318 176.048 178.317 176.048 178.317C176.048 178.316 176.048 178.316 176.048 178.315C176.048 178.315 176.048 178.314 176.048 178.314C176.048 178.313 176.048 178.313 176.048 178.312C176.048 178.312 176.048 178.311 176.048 178.311C176.048 178.31 176.048 178.31 176.048 178.309C176.048 178.309 176.048 178.308 176.048 178.308C176.048 178.307 176.048 178.307 176.048 178.306C176.048 178.306 176.048 178.305 176.048 178.305C176.048 178.304 176.048 178.304 176.048 178.303C176.048 178.303 176.048 178.302 176.048 178.302C176.048 178.301 176.048 178.301 176.048 178.3C176.048 178.3 176.048 178.299 176.048 178.299C176.048 178.299 176.048 178.298 176.048 178.298C176.048 178.297 176.048 178.297 176.048 178.296C176.048 178.296 176.048 178.295 176.048 178.295C176.048 178.294 176.048 178.294 176.048 178.293C176.048 178.293 176.048 178.292 176.048 178.292C176.048 178.291 176.048 178.291 176.048 178.29C176.048 178.29 176.048 178.289 176.048 178.289C176.048 178.288 176.048 178.288 176.048 178.287C176.048 178.287 176.048 178.286 176.048 178.286C176.048 178.285 176.048 178.285 176.048 178.284C176.048 178.284 176.048 178.283 176.048 178.283C176.048 178.282 176.048 178.282 176.048 178.281C176.048 178.281 176.048 178.28 176.048 178.28C176.048 178.279 176.048 178.279 176.048 178.278C176.048 178.278 176.048 178.277 176.048 178.277C176.048 178.276 176.048 178.276 176.048 178.275C176.048 178.275 176.048 178.274 176.048 178.274C176.048 178.273 176.048 178.273 176.048 178.272C176.048 178.272 176.048 178.271 176.048 178.271C176.048 178.27 176.048 178.27 176.048 178.269C176.048 178.269 176.048 178.268 176.048 178.268C176.048 178.267 176.048 178.267 176.048 178.266C176.048 178.266 176.048 178.266 176.048 178.265C176.048 178.265 176.048 178.264 176.048 178.264C176.048 178.263 176.048 178.263 176.048 178.262C176.048 178.262 176.048 178.261 176.048 178.261C176.048 178.26 176.048 178.26 176.048 178.259C176.048 178.259 176.048 178.258 176.048 178.258C176.048 178.257 176.048 178.257 176.048 178.256C176.048 178.256 176.048 178.255 176.048 178.255C176.048 178.254 176.048 178.254 176.048 178.253C176.048 178.253 176.048 178.252 176.048 178.252C176.048 178.251 176.048 178.251 176.048 178.25C176.048 178.25 176.048 178.249 176.048 178.249C176.048 178.248 176.048 178.248 176.048 178.247C176.048 178.247 176.048 178.246 176.048 178.246C176.048 178.245 176.048 178.245 176.048 178.244C176.048 178.244 176.048 178.243 176.048 178.243C176.048 178.242 176.048 178.242 176.048 178.241C176.048 178.241 176.048 178.24 176.048 178.24C176.048 178.239 176.048 178.239 176.048 178.238C176.048 178.238 176.048 178.237 176.048 178.237C176.048 178.236 176.048 178.236 176.048 178.235C176.048 178.235 176.048 178.234 176.048 178.234C176.048 178.233 176.048 178.233 176.048 178.233C176.048 178.232 176.048 178.232 176.048 178.231C176.048 178.231 176.048 178.23 176.048 178.23C176.048 178.229 176.048 178.229 176.048 178.228C176.048 178.228 176.048 178.227 176.048 178.227C176.048 178.226 176.048 178.226 176.048 178.225C176.048 178.225 176.048 178.224 176.048 178.224C176.048 178.223 176.048 178.223 176.048 178.222C176.048 178.222 176.048 178.221 176.048 178.221C176.048 178.22 176.048 178.22 176.048 178.219C176.048 178.219 176.048 178.218 176.048 178.218C176.048 178.217 176.048 178.217 176.048 178.216C176.048 178.216 176.048 178.215 176.048 178.215C176.048 178.214 176.048 178.214 176.048 178.213C176.048 178.213 176.048 178.212 176.048 178.212C176.048 178.211 176.048 178.211 176.048 178.21C176.048 178.21 176.048 178.209 176.048 178.209C176.048 178.208 176.048 178.208 176.048 178.207C176.048 178.207 176.048 178.206 176.048 178.206C176.048 178.205 176.048 178.205 176.048 178.204C176.048 178.204 176.048 178.203 176.048 178.203C176.048 178.202 176.048 178.202 176.048 178.201C176.048 178.201 176.048 178.201 176.048 178.2C176.048 178.2 176.048 178.199 176.048 178.199C176.048 178.198 176.048 178.198 176.048 178.197C176.048 178.197 176.048 178.196 176.048 178.196C176.048 178.195 176.048 178.195 176.048 178.194C176.048 178.194 176.048 178.193 176.048 178.193C176.048 178.192 176.048 178.192 176.048 178.191C176.048 178.191 176.048 178.19 176.048 178.19C176.048 178.189 176.048 178.189 176.048 178.188C176.048 178.188 176.048 178.187 176.048 178.187C176.048 178.186 176.048 178.186 176.048 178.185C176.048 178.185 176.048 178.184 176.048 178.184C176.048 178.183 176.048 178.183 176.048 178.182C176.048 178.182 176.048 178.181 176.048 178.181C176.048 178.18 176.048 178.18 176.048 178.179C176.048 178.179 176.048 178.178 176.048 178.178C176.048 178.177 176.048 178.177 176.048 178.176C176.048 178.176 176.048 178.175 176.048 178.175C176.048 178.174 176.048 178.174 176.048 178.173C176.048 178.173 176.048 178.172 176.048 178.172C176.048 178.171 176.048 178.171 176.048 178.17C176.048 178.17 176.048 178.169 176.048 178.169C176.048 178.168 176.048 178.168 176.048 178.168C176.048 178.167 176.048 178.167 176.048 178.166C176.048 178.166 176.048 178.165 176.048 178.165C176.048 178.164 176.048 178.164 176.048 178.163C176.048 178.163 176.048 178.162 176.048 178.162C176.048 178.161 176.048 178.161 176.048 178.16C176.048 178.16 176.048 178.159 176.048 178.159C176.048 178.158 176.048 178.158 176.048 178.157C176.048 178.157 176.048 178.156 176.048 178.156C176.048 178.155 176.048 178.155 176.048 178.154C176.048 178.154 176.048 178.153 176.048 178.153C176.048 178.152 176.048 178.152 176.048 178.151C176.048 178.151 176.048 178.15 176.048 178.15C176.048 178.149 176.048 178.149 176.048 178.148C176.048 178.148 176.048 178.147 176.048 178.147C176.048 178.146 176.048 178.146 176.048 178.145C176.048 178.145 176.048 178.144 176.048 178.144C176.048 178.143 176.048 178.143 176.048 178.142C176.048 178.142 176.048 178.141 176.048 178.141C176.048 178.14 176.048 178.14 176.048 178.139C176.048 178.139 176.048 178.138 176.048 178.138C176.048 178.137 176.048 178.137 176.048 178.136C176.048 178.136 176.048 178.135 176.048 178.135C176.048 178.135 176.048 178.134 176.048 178.134C176.048 178.133 176.048 178.133 176.048 178.132C176.048 178.132 176.048 178.131 176.048 178.131C176.048 178.13 176.048 178.13 176.048 178.129C176.048 178.129 176.048 178.128 176.048 178.128C176.048 178.127 176.048 178.127 176.048 178.126C176.048 178.126 176.048 178.125 176.048 178.125C176.048 178.124 176.048 178.124 176.048 178.123C176.048 178.123 176.048 178.122 176.048 178.122C176.048 178.121 176.048 178.121 176.048 178.12C176.048 178.12 176.048 178.119 176.048 178.119C176.048 178.118 176.048 178.118 176.048 178.117C176.048 178.117 176.048 178.116 176.048 178.116C176.048 178.115 176.048 178.115 176.048 178.114C176.048 178.114 176.048 178.113 176.048 178.113C176.048 178.112 176.048 178.112 176.048 178.111C176.048 178.111 176.048 178.11 176.048 178.11C176.048 178.109 176.048 178.109 176.048 178.108C176.048 178.108 176.048 178.107 176.048 178.107C176.048 178.106 176.048 178.106 176.048 178.105C176.048 178.105 176.048 178.104 176.048 178.104C176.048 178.103 176.048 178.103 176.048 178.103C176.048 178.102 176.048 178.102 176.048 178.101C176.048 178.101 176.048 178.1 176.048 178.1C176.048 178.099 176.048 178.099 176.048 178.098C176.048 178.098 176.048 178.097 176.048 178.097C176.048 178.096 176.048 178.096 176.048 178.095C176.048 178.095 176.048 178.094 176.048 178.094C176.048 178.093 176.048 178.093 176.048 178.092C176.048 178.092 176.048 178.091 176.048 178.091C176.048 178.09 176.048 178.09 176.048 178.089C176.048 178.089 176.048 178.088 176.048 178.088C176.048 178.087 176.048 178.087 176.048 178.086C176.048 178.086 176.048 178.085 176.048 178.085C176.048 178.084 176.048 178.084 176.048 178.083C176.048 178.083 176.048 178.082 176.048 178.082C176.048 178.081 176.048 178.081 176.048 178.08C176.048 178.08 176.048 178.079 176.048 178.079C176.048 178.078 176.048 178.078 176.048 178.077C176.048 178.077 176.048 178.076 176.048 178.076C176.048 178.075 176.048 178.075 176.048 178.074C176.048 178.074 176.048 178.073 176.048 178.073C176.048 178.072 176.048 178.072 176.048 178.071C176.048 178.071 176.048 178.07 176.048 178.07C176.048 178.07 176.048 178.069 176.048 178.069C176.048 178.068 176.048 178.068 176.048 178.067C176.048 178.067 176.048 178.066 176.048 178.066C176.048 178.065 176.048 178.065 176.048 178.064C176.048 178.064 176.048 178.063 176.048 178.063C176.048 178.062 176.048 178.062 176.048 178.061C176.048 178.061 176.048 178.06 176.048 178.06C176.048 178.059 176.048 178.059 176.048 178.058C176.048 178.058 176.048 178.057 176.048 178.057C176.048 178.056 176.048 178.056 176.048 178.055C176.048 178.055 176.048 178.054 176.048 178.054C176.048 178.053 176.048 178.053 176.048 178.052C176.048 178.052 176.048 178.051 176.048 178.051C176.048 178.05 176.048 178.05 176.048 178.049C176.048 178.049 176.048 178.048 176.048 178.048C176.048 178.047 176.048 178.047 176.048 178.046C176.048 178.046 176.048 178.045 176.048 178.045C176.048 178.044 176.048 178.044 176.048 178.043C176.048 178.043 176.048 178.042 176.048 178.042C176.048 178.041 176.048 178.041 176.048 178.04C176.048 178.04 176.048 178.039 176.048 178.039C176.048 178.038 176.048 178.038 176.048 178.037C176.048 178.037 176.048 178.037 176.048 178.036C176.048 178.036 176.048 178.035 176.048 178.035C176.048 178.034 176.048 178.034 176.048 178.033C176.048 178.033 176.048 178.032 176.048 178.032C176.048 178.031 176.048 178.031 176.048 178.03C176.048 178.03 176.048 178.029 176.048 178.029C176.048 178.028 176.048 178.028 176.048 178.027C176.048 178.027 176.048 178.026 176.048 178.026C176.048 178.025 176.048 178.025 176.048 178.024C176.048 178.024 176.048 178.023 176.048 178.023C176.048 178.022 176.048 178.022 176.048 178.021C176.048 178.021 176.048 178.02 176.048 178.02C176.048 178.019 176.048 178.019 176.048 178.018C176.048 178.018 176.048 178.017 176.048 178.017C176.048 178.016 176.048 178.016 176.048 178.015C176.048 178.015 176.048 178.014 176.048 178.014C176.048 178.013 176.048 178.013 176.048 178.012C176.048 178.012 176.048 178.011 176.048 178.011C176.048 178.01 176.048 178.01 176.048 178.009C176.048 178.009 176.048 178.008 176.048 178.008C176.048 178.007 176.048 178.007 176.048 178.006C176.048 178.006 176.048 178.005 176.048 178.005C176.048 178.004 176.048 178.004 176.048 178.004C176.048 178.003 176.048 178.003 176.048 178.002C176.048 178.002 176.048 178.001 176.048 178.001C176.048 178 176.048 178 176.048 177.999C176.048 177.999 176.048 177.998 176.048 177.998C176.048 177.997 176.048 177.997 176.048 177.996C176.048 177.996 176.048 177.995 176.048 177.995C176.048 177.994 176.048 177.994 176.048 177.993C176.048 177.993 176.048 177.992 176.048 177.992C176.048 177.991 176.048 177.991 176.048 177.99C176.048 177.99 176.048 177.989 176.048 177.989C176.048 177.988 176.048 177.988 176.048 177.987C176.048 177.987 176.048 177.986 176.048 177.986C176.048 177.985 176.048 177.985 176.048 177.984C176.048 177.984 176.048 177.983 176.048 177.983C176.048 177.982 176.048 177.982 176.048 177.981C176.048 177.981 176.048 177.98 176.048 177.98C176.048 177.979 176.048 177.979 176.048 177.978C176.048 177.978 176.048 177.977 176.048 177.977C176.048 177.976 176.048 177.976 176.048 177.975H172.048C172.048 177.976 172.048 177.976 172.048 177.977C172.048 177.977 172.048 177.978 172.048 177.978C172.048 177.979 172.048 177.979 172.048 177.98C172.048 177.98 172.048 177.981 172.048 177.981C172.048 177.982 172.048 177.982 172.048 177.983C172.048 177.983 172.048 177.984 172.048 177.984C172.048 177.985 172.048 177.985 172.048 177.986C172.048 177.986 172.048 177.987 172.048 177.987C172.048 177.988 172.048 177.988 172.048 177.989C172.048 177.989 172.048 177.99 172.048 177.99C172.048 177.991 172.048 177.991 172.048 177.992C172.048 177.992 172.048 177.993 172.048 177.993C172.048 177.994 172.048 177.994 172.048 177.995C172.048 177.995 172.048 177.996 172.048 177.996C172.048 177.997 172.048 177.997 172.048 177.998C172.048 177.998 172.048 177.999 172.048 177.999C172.048 178 172.048 178 172.048 178.001C172.048 178.001 172.048 178.002 172.048 178.002C172.048 178.003 172.048 178.003 172.048 178.004C172.048 178.004 172.048 178.004 172.048 178.005C172.048 178.005 172.048 178.006 172.048 178.006C172.048 178.007 172.048 178.007 172.048 178.008C172.048 178.008 172.048 178.009 172.048 178.009C172.048 178.01 172.048 178.01 172.048 178.011C172.048 178.011 172.048 178.012 172.048 178.012C172.048 178.013 172.048 178.013 172.048 178.014C172.048 178.014 172.048 178.015 172.048 178.015C172.048 178.016 172.048 178.016 172.048 178.017C172.048 178.017 172.048 178.018 172.048 178.018C172.048 178.019 172.048 178.019 172.048 178.02C172.048 178.02 172.048 178.021 172.048 178.021C172.048 178.022 172.048 178.022 172.048 178.023C172.048 178.023 172.048 178.024 172.048 178.024C172.048 178.025 172.048 178.025 172.048 178.026C172.048 178.026 172.048 178.027 172.048 178.027C172.048 178.028 172.048 178.028 172.048 178.029C172.048 178.029 172.048 178.03 172.048 178.03C172.048 178.031 172.048 178.031 172.048 178.032C172.048 178.032 172.048 178.033 172.048 178.033C172.048 178.034 172.048 178.034 172.048 178.035C172.048 178.035 172.048 178.036 172.048 178.036C172.048 178.037 172.048 178.037 172.048 178.037C172.048 178.038 172.048 178.038 172.048 178.039C172.048 178.039 172.048 178.04 172.048 178.04C172.048 178.041 172.048 178.041 172.048 178.042C172.048 178.042 172.048 178.043 172.048 178.043C172.048 178.044 172.048 178.044 172.048 178.045C172.048 178.045 172.048 178.046 172.048 178.046C172.048 178.047 172.048 178.047 172.048 178.048C172.048 178.048 172.048 178.049 172.048 178.049C172.048 178.05 172.048 178.05 172.048 178.051C172.048 178.051 172.048 178.052 172.048 178.052C172.048 178.053 172.048 178.053 172.048 178.054C172.048 178.054 172.048 178.055 172.048 178.055C172.048 178.056 172.048 178.056 172.048 178.057C172.048 178.057 172.048 178.058 172.048 178.058C172.048 178.059 172.048 178.059 172.048 178.06C172.048 178.06 172.048 178.061 172.048 178.061C172.048 178.062 172.048 178.062 172.048 178.063C172.048 178.063 172.048 178.064 172.048 178.064C172.048 178.065 172.048 178.065 172.048 178.066C172.048 178.066 172.048 178.067 172.048 178.067C172.048 178.068 172.048 178.068 172.048 178.069C172.048 178.069 172.048 178.07 172.048 178.07C172.048 178.07 172.048 178.071 172.048 178.071C172.048 178.072 172.048 178.072 172.048 178.073C172.048 178.073 172.048 178.074 172.048 178.074C172.048 178.075 172.048 178.075 172.048 178.076C172.048 178.076 172.048 178.077 172.048 178.077C172.048 178.078 172.048 178.078 172.048 178.079C172.048 178.079 172.048 178.08 172.048 178.08C172.048 178.081 172.048 178.081 172.048 178.082C172.048 178.082 172.048 178.083 172.048 178.083C172.048 178.084 172.048 178.084 172.048 178.085C172.048 178.085 172.048 178.086 172.048 178.086C172.048 178.087 172.048 178.087 172.048 178.088C172.048 178.088 172.048 178.089 172.048 178.089C172.048 178.09 172.048 178.09 172.048 178.091C172.048 178.091 172.048 178.092 172.048 178.092C172.048 178.093 172.048 178.093 172.048 178.094C172.048 178.094 172.048 178.095 172.048 178.095C172.048 178.096 172.048 178.096 172.048 178.097C172.048 178.097 172.048 178.098 172.048 178.098C172.048 178.099 172.048 178.099 172.048 178.1C172.048 178.1 172.048 178.101 172.048 178.101C172.048 178.102 172.048 178.102 172.048 178.103C172.048 178.103 172.048 178.103 172.048 178.104C172.048 178.104 172.048 178.105 172.048 178.105C172.048 178.106 172.048 178.106 172.048 178.107C172.048 178.107 172.048 178.108 172.048 178.108C172.048 178.109 172.048 178.109 172.048 178.11C172.048 178.11 172.048 178.111 172.048 178.111C172.048 178.112 172.048 178.112 172.048 178.113C172.048 178.113 172.048 178.114 172.048 178.114C172.048 178.115 172.048 178.115 172.048 178.116C172.048 178.116 172.048 178.117 172.048 178.117C172.048 178.118 172.048 178.118 172.048 178.119C172.048 178.119 172.048 178.12 172.048 178.12C172.048 178.121 172.048 178.121 172.048 178.122C172.048 178.122 172.048 178.123 172.048 178.123C172.048 178.124 172.048 178.124 172.048 178.125C172.048 178.125 172.048 178.126 172.048 178.126C172.048 178.127 172.048 178.127 172.048 178.128C172.048 178.128 172.048 178.129 172.048 178.129C172.048 178.13 172.048 178.13 172.048 178.131C172.048 178.131 172.048 178.132 172.048 178.132C172.048 178.133 172.048 178.133 172.048 178.134C172.048 178.134 172.048 178.135 172.048 178.135C172.048 178.135 172.048 178.136 172.048 178.136C172.048 178.137 172.048 178.137 172.048 178.138C172.048 178.138 172.048 178.139 172.048 178.139C172.048 178.14 172.048 178.14 172.048 178.141C172.048 178.141 172.048 178.142 172.048 178.142C172.048 178.143 172.048 178.143 172.048 178.144C172.048 178.144 172.048 178.145 172.048 178.145C172.048 178.146 172.048 178.146 172.048 178.147C172.048 178.147 172.048 178.148 172.048 178.148C172.048 178.149 172.048 178.149 172.048 178.15C172.048 178.15 172.048 178.151 172.048 178.151C172.048 178.152 172.048 178.152 172.048 178.153C172.048 178.153 172.048 178.154 172.048 178.154C172.048 178.155 172.048 178.155 172.048 178.156C172.048 178.156 172.048 178.157 172.048 178.157C172.048 178.158 172.048 178.158 172.048 178.159C172.048 178.159 172.048 178.16 172.048 178.16C172.048 178.161 172.048 178.161 172.048 178.162C172.048 178.162 172.048 178.163 172.048 178.163C172.048 178.164 172.048 178.164 172.048 178.165C172.048 178.165 172.048 178.166 172.048 178.166C172.048 178.167 172.048 178.167 172.048 178.168C172.048 178.168 172.048 178.168 172.048 178.169C172.048 178.169 172.048 178.17 172.048 178.17C172.048 178.171 172.048 178.171 172.048 178.172C172.048 178.172 172.048 178.173 172.048 178.173C172.048 178.174 172.048 178.174 172.048 178.175C172.048 178.175 172.048 178.176 172.048 178.176C172.048 178.177 172.048 178.177 172.048 178.178C172.048 178.178 172.048 178.179 172.048 178.179C172.048 178.18 172.048 178.18 172.048 178.181C172.048 178.181 172.048 178.182 172.048 178.182C172.048 178.183 172.048 178.183 172.048 178.184C172.048 178.184 172.048 178.185 172.048 178.185C172.048 178.186 172.048 178.186 172.048 178.187C172.048 178.187 172.048 178.188 172.048 178.188C172.048 178.189 172.048 178.189 172.048 178.19C172.048 178.19 172.048 178.191 172.048 178.191C172.048 178.192 172.048 178.192 172.048 178.193C172.048 178.193 172.048 178.194 172.048 178.194C172.048 178.195 172.048 178.195 172.048 178.196C172.048 178.196 172.048 178.197 172.048 178.197C172.048 178.198 172.048 178.198 172.048 178.199C172.048 178.199 172.048 178.2 172.048 178.2C172.048 178.201 172.048 178.201 172.048 178.201C172.048 178.202 172.048 178.202 172.048 178.203C172.048 178.203 172.048 178.204 172.048 178.204C172.048 178.205 172.048 178.205 172.048 178.206C172.048 178.206 172.048 178.207 172.048 178.207C172.048 178.208 172.048 178.208 172.048 178.209C172.048 178.209 172.048 178.21 172.048 178.21C172.048 178.211 172.048 178.211 172.048 178.212C172.048 178.212 172.048 178.213 172.048 178.213C172.048 178.214 172.048 178.214 172.048 178.215C172.048 178.215 172.048 178.216 172.048 178.216C172.048 178.217 172.048 178.217 172.048 178.218C172.048 178.218 172.048 178.219 172.048 178.219C172.048 178.22 172.048 178.22 172.048 178.221C172.048 178.221 172.048 178.222 172.048 178.222C172.048 178.223 172.048 178.223 172.048 178.224C172.048 178.224 172.048 178.225 172.048 178.225C172.048 178.226 172.048 178.226 172.048 178.227C172.048 178.227 172.048 178.228 172.048 178.228C172.048 178.229 172.048 178.229 172.048 178.23C172.048 178.23 172.048 178.231 172.048 178.231C172.048 178.232 172.048 178.232 172.048 178.233C172.048 178.233 172.048 178.233 172.048 178.234C172.048 178.234 172.048 178.235 172.048 178.235C172.048 178.236 172.048 178.236 172.048 178.237C172.048 178.237 172.048 178.238 172.048 178.238C172.048 178.239 172.048 178.239 172.048 178.24C172.048 178.24 172.048 178.241 172.048 178.241C172.048 178.242 172.048 178.242 172.048 178.243C172.048 178.243 172.048 178.244 172.048 178.244C172.048 178.245 172.048 178.245 172.048 178.246C172.048 178.246 172.048 178.247 172.048 178.247C172.048 178.248 172.048 178.248 172.048 178.249C172.048 178.249 172.048 178.25 172.048 178.25C172.048 178.251 172.048 178.251 172.048 178.252C172.048 178.252 172.048 178.253 172.048 178.253C172.048 178.254 172.048 178.254 172.048 178.255C172.048 178.255 172.048 178.256 172.048 178.256C172.048 178.257 172.048 178.257 172.048 178.258C172.048 178.258 172.048 178.259 172.048 178.259C172.048 178.26 172.048 178.26 172.048 178.261C172.048 178.261 172.048 178.262 172.048 178.262C172.048 178.263 172.048 178.263 172.048 178.264C172.048 178.264 172.048 178.265 172.048 178.265C172.048 178.266 172.048 178.266 172.048 178.266C172.048 178.267 172.048 178.267 172.048 178.268C172.048 178.268 172.048 178.269 172.048 178.269C172.048 178.27 172.048 178.27 172.048 178.271C172.048 178.271 172.048 178.272 172.048 178.272C172.048 178.273 172.048 178.273 172.048 178.274C172.048 178.274 172.048 178.275 172.048 178.275C172.048 178.276 172.048 178.276 172.048 178.277C172.048 178.277 172.048 178.278 172.048 178.278C172.048 178.279 172.048 178.279 172.048 178.28C172.048 178.28 172.048 178.281 172.048 178.281C172.048 178.282 172.048 178.282 172.048 178.283C172.048 178.283 172.048 178.284 172.048 178.284C172.048 178.285 172.048 178.285 172.048 178.286C172.048 178.286 172.048 178.287 172.048 178.287C172.048 178.288 172.048 178.288 172.048 178.289C172.048 178.289 172.048 178.29 172.048 178.29C172.048 178.291 172.048 178.291 172.048 178.292C172.048 178.292 172.048 178.293 172.048 178.293C172.048 178.294 172.048 178.294 172.048 178.295C172.048 178.295 172.048 178.296 172.048 178.296C172.048 178.297 172.048 178.297 172.048 178.298C172.048 178.298 172.048 178.299 172.048 178.299C172.048 178.299 172.048 178.3 172.048 178.3C172.048 178.301 172.048 178.301 172.048 178.302C172.048 178.302 172.048 178.303 172.048 178.303C172.048 178.304 172.048 178.304 172.048 178.305C172.048 178.305 172.048 178.306 172.048 178.306C172.048 178.307 172.048 178.307 172.048 178.308C172.048 178.308 172.048 178.309 172.048 178.309C172.048 178.31 172.048 178.31 172.048 178.311C172.048 178.311 172.048 178.312 172.048 178.312C172.048 178.313 172.048 178.313 172.048 178.314C172.048 178.314 172.048 178.315 172.048 178.315C172.048 178.316 172.048 178.316 172.048 178.317C172.048 178.317 172.048 178.318 172.048 178.318C172.048 178.319 172.048 178.319 172.048 178.32C172.048 178.32 172.048 178.321 172.048 178.321C172.048 178.322 172.048 178.322 172.048 178.323C172.048 178.323 172.048 178.324 172.048 178.324C172.048 178.325 172.048 178.325 172.048 178.326C172.048 178.326 172.048 178.327 172.048 178.327C172.048 178.328 172.048 178.328 172.048 178.329C172.048 178.329 172.048 178.33 172.048 178.33C172.048 178.331 172.048 178.331 172.048 178.332C172.048 178.332 172.048 178.332 172.048 178.333C172.048 178.333 172.048 178.334 172.048 178.334C172.048 178.335 172.048 178.335 172.048 178.336C172.048 178.336 172.048 178.337 172.048 178.337C172.048 178.338 172.048 178.338 172.048 178.339C172.048 178.339 172.048 178.34 172.048 178.34C172.048 178.341 172.048 178.341 172.048 178.342C172.048 178.342 172.048 178.343 172.048 178.343C172.048 178.344 172.048 178.344 172.048 178.345C172.048 178.345 172.048 178.346 172.048 178.346C172.048 178.347 172.048 178.347 172.048 178.348C172.048 178.348 172.048 178.349 172.048 178.349C172.048 178.35 172.048 178.35 172.048 178.351C172.048 178.351 172.048 178.352 172.048 178.352C172.048 178.353 172.048 178.353 172.048 178.354C172.048 178.354 172.048 178.355 172.048 178.355C172.048 178.356 172.048 178.356 172.048 178.357C172.048 178.357 172.048 178.358 172.048 178.358C172.048 178.359 172.048 178.359 172.048 178.36C172.048 178.36 172.048 178.361 172.048 178.361C172.048 178.362 172.048 178.362 172.048 178.363C172.048 178.363 172.048 178.364 172.048 178.364C172.048 178.364 172.048 178.365 172.048 178.365C172.048 178.366 172.048 178.366 172.048 178.367C172.048 178.367 172.048 178.368 172.048 178.368C172.048 178.369 172.048 178.369 172.048 178.37C172.048 178.37 172.048 178.371 172.048 178.371C172.048 178.372 172.048 178.372 172.048 178.373C172.048 178.373 172.048 178.374 172.048 178.374C172.048 178.375 172.048 178.375 172.048 178.376C172.048 178.376 172.048 178.377 172.048 178.377C172.048 178.378 172.048 178.378 172.048 178.379C172.048 178.379 172.048 178.38 172.048 178.38C172.048 178.381 172.048 178.381 172.048 178.382C172.048 178.382 172.048 178.383 172.048 178.383C172.048 178.384 172.048 178.384 172.048 178.385C172.048 178.385 172.048 178.386 172.048 178.386C172.048 178.387 172.048 178.387 172.048 178.388C172.048 178.388 172.048 178.389 172.048 178.389C172.048 178.39 172.048 178.39 172.048 178.391C172.048 178.391 172.048 178.392 172.048 178.392C172.048 178.393 172.048 178.393 172.048 178.394C172.048 178.394 172.048 178.395 172.048 178.395C172.048 178.396 172.048 178.396 172.048 178.397C172.048 178.397 172.048 178.397 172.048 178.398C172.048 178.398 172.048 178.399 172.048 178.399C172.048 178.4 172.048 178.4 172.048 178.401C172.048 178.401 172.048 178.402 172.048 178.402C172.048 178.403 172.048 178.403 172.048 178.404C172.048 178.404 172.048 178.405 172.048 178.405C172.048 178.406 172.048 178.406 172.048 178.407C172.048 178.407 172.048 178.408 172.048 178.408C172.048 178.409 172.048 178.409 172.048 178.41C172.048 178.41 172.048 178.411 172.048 178.411C172.048 178.412 172.048 178.412 172.048 178.413C172.048 178.413 172.048 178.414 172.048 178.414C172.048 178.415 172.048 178.415 172.048 178.416C172.048 178.416 172.048 178.417 172.048 178.417C172.048 178.418 172.048 178.418 172.048 178.419C172.048 178.419 172.048 178.42 172.048 178.42C172.048 178.421 172.048 178.421 172.048 178.422C172.048 178.422 172.048 178.423 172.048 178.423C172.048 178.424 172.048 178.424 172.048 178.425C172.048 178.425 172.048 178.426 172.048 178.426C172.048 178.427 172.048 178.427 172.048 178.428C172.048 178.428 172.048 178.429 172.048 178.429C172.048 178.43 172.048 178.43 172.048 178.43C172.048 178.431 172.048 178.431 172.048 178.432C172.048 178.432 172.048 178.433 172.048 178.433C172.048 178.434 172.048 178.434 172.048 178.435C172.048 178.435 172.048 178.436 172.048 178.436C172.048 178.437 172.048 178.437 172.048 178.438C172.048 178.438 172.048 178.439 172.048 178.439C172.048 178.44 172.048 178.44 172.048 178.441C172.048 178.441 172.048 178.442 172.048 178.442C172.048 178.443 172.048 178.443 172.048 178.444C172.048 178.444 172.048 178.445 172.048 178.445C172.048 178.446 172.048 178.446 172.048 178.447C172.048 178.447 172.048 178.448 172.048 178.448C172.048 178.449 172.048 178.449 172.048 178.45C172.048 178.45 172.048 178.451 172.048 178.451C172.048 178.452 172.048 178.452 172.048 178.453C172.048 178.453 172.048 178.454 172.048 178.454C172.048 178.455 172.048 178.455 172.048 178.456C172.048 178.456 172.048 178.457 172.048 178.457C172.048 178.458 172.048 178.458 172.048 178.459C172.048 178.459 172.048 178.46 172.048 178.46C172.048 178.461 172.048 178.461 172.048 178.462C172.048 178.462 172.048 178.463 172.048 178.463C172.048 178.463 172.048 178.464 172.048 178.464C172.048 178.465 172.048 178.465 172.048 178.466C172.048 178.466 172.048 178.467 172.048 178.467C172.048 178.468 172.048 178.468 172.048 178.469C172.048 178.469 172.048 178.47 172.048 178.47C172.048 178.471 172.048 178.471 172.048 178.472C172.048 178.472 172.048 178.473 172.048 178.473C172.048 178.474 172.048 178.474 172.048 178.475C172.048 178.475 172.048 178.476 172.048 178.476C172.048 178.477 172.048 178.477 172.048 178.478C172.048 178.478 172.048 178.479 172.048 178.479C172.048 178.48 172.048 178.48 172.048 178.481C172.048 178.481 172.048 178.482 172.048 178.482C172.048 178.483 172.048 178.483 172.048 178.484C172.048 178.484 172.048 178.485 172.048 178.485C172.048 178.486 172.048 178.486 172.048 178.487C172.048 178.487 172.048 178.488 172.048 178.488C172.048 178.489 172.048 178.489 172.048 178.49C172.048 178.49 172.048 178.491 172.048 178.491C172.048 178.492 172.048 178.492 172.048 178.493C172.048 178.493 172.048 178.494 172.048 178.494C172.048 178.495 172.048 178.495 172.048 178.495C172.048 178.496 172.048 178.496 172.048 178.497C172.048 178.497 172.048 178.498 172.048 178.498C172.048 178.499 172.048 178.499 172.048 178.5C172.048 178.5 172.048 178.501 172.048 178.501C172.048 178.502 172.048 178.502 172.048 178.503C172.048 178.503 172.048 178.504 172.048 178.504C172.048 178.505 172.048 178.505 172.048 178.506C172.048 178.506 172.048 178.507 172.048 178.507C172.048 178.508 172.048 178.508 172.048 178.509C172.048 178.509 172.048 178.51 172.048 178.51C172.048 178.511 172.048 178.511 172.048 178.512C172.048 178.512 172.048 178.513 172.048 178.513C172.048 178.514 172.048 178.514 172.048 178.515C172.048 178.515 172.048 178.516 172.048 178.516C172.048 178.517 172.048 178.517 172.048 178.518C172.048 178.518 172.048 178.519 172.048 178.519C172.048 178.52 172.048 178.52 172.048 178.521C172.048 178.521 172.048 178.522 172.048 178.522C172.048 178.523 172.048 178.523 172.048 178.524C172.048 178.524 172.048 178.525 172.048 178.525C172.048 178.526 172.048 178.526 172.048 178.527C172.048 178.527 172.048 178.528 172.048 178.528C172.048 178.528 172.048 178.529 172.048 178.529C172.048 178.53 172.048 178.53 172.048 178.531C172.048 178.531 172.048 178.532 172.048 178.532C172.048 178.533 172.048 178.533 172.048 178.534C172.048 178.534 172.048 178.535 172.048 178.535C172.048 178.536 172.048 178.536 172.048 178.537C172.048 178.537 172.048 178.538 172.048 178.538C172.048 178.539 172.048 178.539 172.048 178.54C172.048 178.54 172.048 178.541 172.048 178.541C172.048 178.542 172.048 178.542 172.048 178.543C172.048 178.543 172.048 178.544 172.048 178.544C172.048 178.545 172.048 178.545 172.048 178.546C172.048 178.546 172.048 178.547 172.048 178.547C172.048 178.548 172.048 178.548 172.048 178.549C172.048 178.549 172.048 178.55 172.048 178.55C172.048 178.551 172.048 178.551 172.048 178.552C172.048 178.552 172.048 178.553 172.048 178.553C172.048 178.554 172.048 178.554 172.048 178.555C172.048 178.555 172.048 178.556 172.048 178.556C172.048 178.557 172.048 178.557 172.048 178.558C172.048 178.558 172.048 178.559 172.048 178.559C172.048 178.56 172.048 178.56 172.048 178.561C172.048 178.561 172.048 178.561 172.048 178.562C172.048 178.562 172.048 178.563 172.048 178.563C172.048 178.564 172.048 178.564 172.048 178.565C172.048 178.565 172.048 178.566 172.048 178.566C172.048 178.567 172.048 178.567 172.048 178.568C172.048 178.568 172.048 178.569 172.048 178.569C172.048 178.57 172.048 178.57 172.048 178.571C172.048 178.571 172.048 178.572 172.048 178.572C172.048 178.573 172.048 178.573 172.048 178.574C172.048 178.574 172.048 178.575 172.048 178.575C172.048 178.576 172.048 178.576 172.048 178.577C172.048 178.577 172.048 178.578 172.048 178.578C172.048 178.579 172.048 178.579 172.048 178.58C172.048 178.58 172.048 178.581 172.048 178.581C172.048 178.582 172.048 178.582 172.048 178.583C172.048 178.583 172.048 178.584 172.048 178.584C172.048 178.585 172.048 178.585 172.048 178.586C172.048 178.586 172.048 178.587 172.048 178.587C172.048 178.588 172.048 178.588 172.048 178.589C172.048 178.589 172.048 178.59 172.048 178.59C172.048 178.591 172.048 178.591 172.048 178.592C172.048 178.592 172.048 178.593 172.048 178.593C172.048 178.593 172.048 178.594 172.048 178.594C172.048 178.595 172.048 178.595 172.048 178.596C172.048 178.596 172.048 178.597 172.048 178.597C172.048 178.598 172.048 178.598 172.048 178.599C172.048 178.599 172.048 178.6 172.048 178.6C172.048 178.601 172.048 178.601 172.048 178.602C172.048 178.602 172.048 178.603 172.048 178.603C172.048 178.604 172.048 178.604 172.048 178.605C172.048 178.605 172.048 178.606 172.048 178.606C172.048 178.607 172.048 178.607 172.048 178.608C172.048 178.608 172.048 178.609 172.048 178.609C172.048 178.61 172.048 178.61 172.048 178.611C172.048 178.611 172.048 178.612 172.048 178.612C172.048 178.613 172.048 178.613 172.048 178.614C172.048 178.614 172.048 178.615 172.048 178.615C172.048 178.616 172.048 178.616 172.048 178.617C172.048 178.617 172.048 178.618 172.048 178.618C172.048 178.619 172.048 178.619 172.048 178.62C172.048 178.62 172.048 178.621 172.048 178.621C172.048 178.622 172.048 178.622 172.048 178.623C172.048 178.623 172.048 178.624 172.048 178.624C172.048 178.625 172.048 178.625 172.048 178.626C172.048 178.626 172.048 178.626 172.048 178.627C172.048 178.627 172.048 178.628 172.048 178.628C172.048 178.629 172.048 178.629 172.048 178.63C172.048 178.63 172.048 178.631 172.048 178.631C172.048 178.632 172.048 178.632 172.048 178.633C172.048 178.633 172.048 178.634 172.048 178.634C172.048 178.635 172.048 178.635 172.048 178.636C172.048 178.636 172.048 178.637 172.048 178.637C172.048 178.638 172.048 178.638 172.048 178.639C172.048 178.639 172.048 178.64 172.048 178.64C172.048 178.641 172.048 178.641 172.048 178.642C172.048 178.642 172.048 178.643 172.048 178.643C172.048 178.644 172.048 178.644 172.048 178.645C172.048 178.645 172.048 178.646 172.048 178.646C172.048 178.647 172.048 178.647 172.048 178.648C172.048 178.648 172.048 178.649 172.048 178.649C172.048 178.65 172.048 178.65 172.048 178.651C172.048 178.651 172.048 178.652 172.048 178.652C172.048 178.653 172.048 178.653 172.048 178.654C172.048 178.654 172.048 178.655 172.048 178.655C172.048 178.656 172.048 178.656 172.048 178.657C172.048 178.657 172.048 178.658 172.048 178.658C172.048 178.659 172.048 178.659 172.048 178.659C172.048 178.66 172.048 178.66 172.048 178.661C172.048 178.661 172.048 178.662 172.048 178.662C172.048 178.663 172.048 178.663 172.048 178.664C172.048 178.664 172.048 178.665 172.048 178.665C172.048 178.666 172.048 178.666 172.048 178.667C172.048 178.667 172.048 178.668 172.048 178.668C172.048 178.669 172.048 178.669 172.048 178.67C172.048 178.67 172.048 178.671 172.048 178.671C172.048 178.672 172.048 178.672 172.048 178.673C172.048 178.673 172.048 178.674 172.048 178.674C172.048 178.675 172.048 178.675 172.048 178.676C172.048 178.676 172.048 178.677 172.048 178.677C172.048 178.678 172.048 178.678 172.048 178.679C172.048 178.679 172.048 178.68 172.048 178.68C172.048 178.681 172.048 178.681 172.048 178.682C172.048 178.682 172.048 178.683 172.048 178.683C172.048 178.684 172.048 178.684 172.048 178.685C172.048 178.685 172.048 178.686 172.048 178.686C172.048 178.687 172.048 178.687 172.048 178.688C172.048 178.688 172.048 178.689 172.048 178.689C172.048 178.69 172.048 178.69 172.048 178.691C172.048 178.691 172.048 178.692 172.048 178.692C172.048 178.692 172.048 178.693 172.048 178.693C172.048 178.694 172.048 178.694 172.048 178.695C172.048 178.695 172.048 178.696 172.048 178.696C172.048 178.697 172.048 178.697 172.048 178.698C172.048 178.698 172.048 178.699 172.048 178.699C172.048 178.7 172.048 178.7 172.048 178.701C172.048 178.701 172.048 178.702 172.048 178.702C172.048 178.703 172.048 178.703 172.048 178.704C172.048 178.704 172.048 178.705 172.048 178.705C172.048 178.706 172.048 178.706 172.048 178.707C172.048 178.707 172.048 178.708 172.048 178.708C172.048 178.709 172.048 178.709 172.048 178.71C172.048 178.71 172.048 178.711 172.048 178.711C172.048 178.712 172.048 178.712 172.048 178.713C172.048 178.713 172.048 178.714 172.048 178.714C172.048 178.715 172.048 178.715 172.048 178.716C172.048 178.716 172.048 178.717 172.048 178.717C172.048 178.718 172.048 178.718 172.048 178.719C172.048 178.719 172.048 178.72 172.048 178.72C172.048 178.721 172.048 178.721 172.048 178.722C172.048 178.722 172.048 178.723 172.048 178.723C172.048 178.724 172.048 178.724 172.048 178.725C172.048 178.725 172.048 178.725 172.048 178.726C172.048 178.726 172.048 178.727 172.048 178.727C172.048 178.728 172.048 178.728 172.048 178.729C172.048 178.729 172.048 178.73 172.048 178.73C172.048 178.731 172.048 178.731 172.048 178.732H176.048ZM176.047 178.027C176.111 175.593 177.516 172.934 181.086 169.858L178.475 166.828C174.514 170.241 172.154 173.869 172.049 177.924L176.047 178.027ZM181.078 169.865L181.65 169.377L179.054 166.334L178.482 166.822L181.078 169.865ZM181.642 169.384C183.251 168.025 185.623 166.098 186.369 163.294L182.504 162.265C182.141 163.629 180.916 164.761 179.061 166.328L181.642 169.384ZM186.37 163.29C186.892 161.318 186.486 159.353 186.221 157.871L182.283 158.576C182.59 160.288 182.755 161.316 182.503 162.268L186.37 163.29ZM186.22 157.866C186.049 156.927 185.905 156.107 185.862 155.294L181.868 155.505C181.926 156.609 182.119 157.671 182.284 158.581L186.22 157.866ZM185.863 155.312C185.69 151.336 188.959 147.422 192.899 146.874L192.348 142.912C186.37 143.743 181.604 149.444 181.867 155.487L185.863 155.312ZM192.882 146.877C193.543 146.79 194.242 146.759 194.943 146.759V142.759C194.131 142.759 193.25 142.795 192.365 142.91L192.882 146.877ZM194.999 146.758C196.107 146.727 197.558 146.718 198.954 146.253L197.689 142.458C196.968 142.699 196.166 142.724 194.887 142.76L194.999 146.758ZM198.926 146.262C200.46 145.776 201.877 144.542 202.504 143.043L198.813 141.499C198.667 141.849 198.201 142.296 197.718 142.449L198.926 146.262ZM202.515 143.014C202.784 142.342 203.106 141.086 202.466 139.734L198.851 141.446C198.847 141.438 198.843 141.425 198.84 141.411C198.838 141.397 198.839 141.391 198.838 141.396C198.838 141.401 198.837 141.416 198.83 141.441C198.824 141.465 198.815 141.495 198.801 141.528L202.515 143.014ZM202.447 139.696C202.026 138.853 201.281 138.228 200.984 137.956L198.282 140.904C198.512 141.116 198.645 141.235 198.761 141.358C198.868 141.471 198.881 141.507 198.87 141.484L202.447 139.696ZM200.998 137.968C200.611 137.607 200.548 137.572 200.446 137.446L197.341 139.968C197.675 140.38 198.151 140.782 198.268 140.892L200.998 137.968ZM200.38 137.369C200.317 137.3 200.26 137.216 200.216 137.126C200.172 137.035 200.15 136.958 200.142 136.904C200.133 136.85 200.142 136.844 200.134 136.877C200.125 136.917 200.099 136.983 200.044 137.048L197.003 134.45C196.185 135.407 196.041 136.574 196.191 137.527C196.339 138.47 196.788 139.358 197.407 140.045L200.38 137.369ZM200.513 135.953C200.75 133.643 200.295 131.165 199.892 129.265L195.979 130.096C196.382 131.994 196.7 133.921 196.534 135.545L200.513 135.953ZM199.891 129.261C199.345 126.712 197.862 124.389 195.651 123.26L193.831 126.822C194.714 127.273 195.618 128.412 195.98 130.099L199.891 129.261ZM195.601 123.235C195.179 123.034 194.741 122.855 194.289 122.698L192.975 126.476C193.296 126.587 193.597 126.711 193.881 126.846L195.601 123.235ZM194.323 122.71C193.668 122.469 193.266 122.299 192.951 122.068L190.581 125.29C191.409 125.899 192.318 126.234 192.94 126.464L194.323 122.71ZM192.966 122.079C192.674 121.86 192.396 121.539 192.027 121.042L188.815 123.425C189.219 123.97 189.782 124.691 190.566 125.279L192.966 122.079ZM192.005 121.012C191.606 120.495 190.91 119.551 189.857 119.009L188.027 122.566C188.15 122.63 188.328 122.795 188.838 123.455L192.005 121.012ZM189.9 119.032C188.578 118.311 187.088 118.427 186.248 118.471L186.458 122.466C187.534 122.409 187.827 122.458 187.984 122.544L189.9 119.032ZM186.291 118.469C185.738 118.487 185.276 118.499 184.847 118.472L184.598 122.465C185.245 122.505 185.893 122.484 186.416 122.467L186.291 118.469ZM184.936 118.48C184.017 118.381 183.072 117.835 182.391 116.836L179.086 119.091C180.355 120.95 182.302 122.22 184.509 122.457L184.936 118.48ZM182.391 116.836C181.708 115.837 181.547 114.757 181.791 113.876L177.937 112.806C177.342 114.95 177.819 117.233 179.086 119.091L182.391 116.836ZM181.798 113.853C181.896 113.483 182.067 113.106 182.316 112.573L178.691 110.881C178.469 111.357 178.136 112.056 177.931 112.829L181.798 113.853ZM182.327 112.548C182.451 112.273 182.679 111.794 182.838 111.317L179.043 110.053C178.966 110.282 178.858 110.509 178.679 110.906L182.327 112.548ZM182.815 111.382C183.489 109.571 183.513 107.672 183.561 106.124L179.563 106C179.51 107.714 179.467 108.908 179.066 109.988L182.815 111.382ZM183.562 106.101C183.578 105.266 183.61 104.483 183.7 103.703L179.727 103.244C179.615 104.212 179.58 105.144 179.563 106.023L183.562 106.101ZM183.078 102.011C182.208 101.2 181.105 100.961 180.182 101.005C179.259 101.049 178.317 101.376 177.563 101.96L180.014 105.121C180.042 105.1 180.092 105.069 180.165 105.043C180.237 105.017 180.309 105.003 180.371 105.001C180.515 104.994 180.462 105.041 180.349 104.936L183.078 102.011Z" fill="white" mask="url(#path-4-inside-1_639_322)"/>
</g>
<defs>
<filter id="filter0_d_639_322" x="0" y="0" width="361" height="357" filterUnits="userSpaceOnUse" color-interpolation-filters="sRGB">
<feFlood flood-opacity="0" result="BackgroundImageFix"/>
<feColorMatrix in="SourceAlpha" type="matrix" values="0 0 0 0 0 0 0 0 0 0 0 0 0 0 0 0 0 0 127 0" result="hardAlpha"/>
<feOffset dx="2" dy="2"/>
<feGaussianBlur stdDeviation="2"/>
<feComposite in2="hardAlpha" operator="out"/>
<feColorMatrix type="matrix" values="0 0 0 0 0 0 0 0 0 0 0 0 0 0 0 0 0 0 0.25 0"/>
<feBlend mode="normal" in2="BackgroundImageFix" result="effect1_dropShadow_639_322"/>
<feBlend mode="normal" in="SourceGraphic" in2="effect1_dropShadow_639_322" result="shape"/>
</filter>
<linearGradient id="paint0_linear_639_322" x1="144.488" y1="202.766" x2="213.512" y2="83.2345" gradientUnits="userSpaceOnUse">
<stop stop-color="#0460A9"/>
<stop offset="1" stop-color="#50E2D0"/>
</linearGradient>
</defs>
</svg>
