<svg width="361" height="357" viewBox="0 0 361 357" fill="none" xmlns="http://www.w3.org/2000/svg">
<g filter="url(#filter0_d_639_304)">
<g filter="url(#filter1_d_639_304)">
<g filter="url(#filter2_d_639_304)">
<rect x="2" y="2" width="353" height="349" rx="19.0804" fill="white"/>
<path d="M49.14 273V248.738H57.2162L60.1684 259.359C60.6096 260.886 61.5597 264.89 61.5597 264.89H61.6276C61.6276 264.89 62.5777 260.886 62.9849 259.359L65.9711 248.738H74.1151V273H68.6179V260.784C68.6179 259.8 68.7197 255.931 68.7197 255.931H68.6518C68.6518 255.931 67.8035 259.562 67.532 260.445L64.0368 273H59.0825L55.6213 260.479C55.3498 259.596 54.5015 255.931 54.5015 255.931H54.4336C54.4336 255.931 54.5354 259.834 54.5354 260.818V273H49.14ZM83.9892 269.912C86.0592 269.912 87.4844 268.657 87.4844 266.79V264.72C86.7718 265.093 85.7538 265.365 84.634 265.636C82.4962 266.111 81.6139 266.654 81.6139 267.978C81.6139 269.369 82.6319 269.912 83.9892 269.912ZM82.2247 273.441C78.7635 273.441 76.2863 271.575 76.2863 268.148C76.2863 264.313 79.3403 263.159 82.9373 262.684C86.1949 262.277 87.3487 261.938 87.3487 260.75C87.3487 259.63 86.6361 258.884 84.9733 258.884C83.2088 258.884 82.3265 259.664 82.1568 261.123H77.0668C77.2025 257.9 79.6797 255.151 84.9394 255.151C87.5523 255.151 89.3168 255.626 90.5723 256.576C92.0654 257.662 92.778 259.359 92.778 261.53V270.285C92.778 271.677 92.9138 272.457 93.3888 272.762V273H88.0273C87.7559 272.627 87.5862 271.948 87.4505 271.066H87.3826C86.3646 272.525 84.8376 273.441 82.2247 273.441ZM104.554 269.267C106.657 269.267 107.947 267.469 107.947 264.517C107.947 261.53 106.827 259.562 104.452 259.562C102.042 259.562 100.821 261.7 100.821 264.517C100.821 267.333 102.178 269.267 104.554 269.267ZM95.4593 278.735V255.626H100.753V257.73H100.855C102.042 256.169 103.739 255.117 106.114 255.117C110.729 255.117 113.546 259.087 113.546 264.313C113.546 269.946 110.526 273.543 105.979 273.543C103.739 273.543 102.144 272.661 101.058 271.202H100.99V278.735H95.4593ZM124.503 269.267C126.607 269.267 127.896 267.469 127.896 264.517C127.896 261.53 126.776 259.562 124.401 259.562C121.992 259.562 120.77 261.7 120.77 264.517C120.77 267.333 122.127 269.267 124.503 269.267ZM115.409 278.735V255.626H120.702V257.73H120.804C121.992 256.169 123.688 255.117 126.064 255.117C130.679 255.117 133.495 259.087 133.495 264.313C133.495 269.946 130.475 273.543 125.928 273.543C123.688 273.543 122.093 272.661 121.008 271.202H120.94V278.735H115.409ZM142.246 269.912C144.316 269.912 145.741 268.657 145.741 266.79V264.72C145.029 265.093 144.011 265.365 142.891 265.636C140.753 266.111 139.871 266.654 139.871 267.978C139.871 269.369 140.889 269.912 142.246 269.912ZM140.482 273.441C137.02 273.441 134.543 271.575 134.543 268.148C134.543 264.313 137.597 263.159 141.194 262.684C144.452 262.277 145.606 261.938 145.606 260.75C145.606 259.63 144.893 258.884 143.23 258.884C141.466 258.884 140.584 259.664 140.414 261.123H135.324C135.46 257.9 137.937 255.151 143.196 255.151C145.809 255.151 147.574 255.626 148.829 256.576C150.322 257.662 151.035 259.359 151.035 261.53V270.285C151.035 271.677 151.171 272.457 151.646 272.762V273H146.284C146.013 272.627 145.843 271.948 145.707 271.066H145.64C144.622 272.525 143.095 273.441 140.482 273.441ZM165.331 259.461H169.844C172.219 259.461 173.441 258.341 173.441 256.508C173.441 254.744 172.287 253.488 169.98 253.488H165.331V259.461ZM159.325 273V248.738H170.93C175.748 248.738 179.413 251.215 179.413 255.728C179.413 258.544 178.022 260.614 175.206 261.598V261.7C177.309 262.413 178.395 263.736 178.735 266.145C179.244 269.335 178.904 272.389 179.753 272.695V273H173.916C173.271 272.627 173.373 269.776 173 267.367C172.694 265.127 171.541 263.906 168.962 263.906H165.331V273H159.325ZM190.069 273.509C184.334 273.509 180.805 269.539 180.805 264.279C180.805 259.087 184.436 255.117 189.73 255.117C192.207 255.117 194.175 255.931 195.668 257.289C197.738 259.189 198.756 262.209 198.722 265.738H186.234C186.574 268.08 187.863 269.539 190.137 269.539C191.596 269.539 192.546 268.894 193.021 267.808H198.417C198.043 269.369 197.025 270.862 195.498 271.914C194.039 272.932 192.275 273.509 190.069 273.509ZM186.268 262.447H193.123C192.919 260.377 191.63 259.053 189.831 259.053C187.728 259.053 186.642 260.377 186.268 262.447ZM208.616 267.944C211.025 267.944 212.145 266.044 212.145 263.6C212.145 261.259 210.924 259.291 208.616 259.291C206.546 259.291 205.189 260.988 205.189 263.634C205.189 266.247 206.546 267.944 208.616 267.944ZM208.65 279.006C203.865 279.006 200.71 277.038 200.167 273.407H205.528C205.834 274.323 206.75 275.104 208.582 275.104C210.924 275.104 211.908 273.882 211.908 271.778V270.048H211.772C210.754 271.202 209.43 272.05 207.327 272.05C203.424 272.05 199.793 269.132 199.793 263.804C199.793 258.714 202.779 255.117 207.089 255.117C209.397 255.117 210.957 256.033 211.975 257.492H212.043V255.626H217.337V271.303C217.337 273.916 216.421 275.816 215.03 277.072C213.502 278.429 211.229 279.006 208.65 279.006ZM222.775 248.229C224.506 248.229 225.829 249.45 225.829 251.181C225.829 252.911 224.506 254.133 222.775 254.133C221.045 254.133 219.721 252.911 219.721 251.181C219.721 249.45 221.045 248.229 222.775 248.229ZM219.993 273V255.626H225.524V273H219.993ZM236.695 273.543C231.13 273.543 227.397 269.573 227.397 264.347C227.397 259.121 231.13 255.151 236.695 255.151C242.294 255.151 245.959 259.121 245.959 264.347C245.959 269.573 242.294 273.543 236.695 273.543ZM236.661 269.607C239.071 269.607 240.36 267.503 240.36 264.347C240.36 261.191 239.071 259.053 236.661 259.053C234.252 259.053 232.997 261.191 232.997 264.347C232.997 267.503 234.252 269.607 236.661 269.607ZM247.829 273V255.626H253.157V258.001H253.258C254.548 256.135 256.211 255.117 258.62 255.117C262.42 255.117 264.66 257.832 264.66 261.7V273H259.129V262.82C259.129 260.988 258.213 259.732 256.414 259.732C254.582 259.732 253.36 261.259 253.36 263.397V273H247.829ZM274.07 269.912C276.14 269.912 277.565 268.657 277.565 266.79V264.72C276.853 265.093 275.835 265.365 274.715 265.636C272.577 266.111 271.695 266.654 271.695 267.978C271.695 269.369 272.713 269.912 274.07 269.912ZM272.306 273.441C268.844 273.441 266.367 271.575 266.367 268.148C266.367 264.313 269.421 263.159 273.018 262.684C276.276 262.277 277.43 261.938 277.43 260.75C277.43 259.63 276.717 258.884 275.054 258.884C273.29 258.884 272.407 259.664 272.238 261.123H267.148C267.283 257.9 269.761 255.151 275.02 255.151C277.633 255.151 279.398 255.626 280.653 256.576C282.146 257.662 282.859 259.359 282.859 261.53V270.285C282.859 271.677 282.995 272.457 283.47 272.762V273H278.108C277.837 272.627 277.667 271.948 277.531 271.066H277.464C276.446 272.525 274.919 273.441 272.306 273.441ZM285.574 273V248.738H291.173V273H285.574ZM302.341 273.509C296.607 273.509 293.077 269.539 293.077 264.279C293.077 259.087 296.708 255.117 302.002 255.117C304.479 255.117 306.447 255.931 307.94 257.289C310.01 259.189 311.028 262.209 310.994 265.738H298.507C298.846 268.08 300.136 269.539 302.409 269.539C303.868 269.539 304.818 268.894 305.294 267.808H310.689C310.316 269.369 309.298 270.862 307.771 271.914C306.312 272.932 304.547 273.509 302.341 273.509ZM298.541 262.447H305.395C305.192 260.377 303.902 259.053 302.104 259.053C300 259.053 298.914 260.377 298.541 262.447ZM157.215 314.577C150.768 314.577 146.526 311.726 146.39 306.365H152.43C152.702 308.808 154.297 309.826 157.181 309.826C159.149 309.826 161.083 309.114 161.083 307.281C161.083 305.347 159.115 304.94 155.79 304.125C151.582 303.141 147.137 301.852 147.137 296.762C147.137 291.57 151.345 289.296 156.774 289.296C162.034 289.296 166.106 291.672 166.343 296.762H160.473C160.235 294.895 158.81 293.843 156.57 293.843C154.466 293.843 153.075 294.76 153.075 296.117C153.075 297.814 154.942 298.221 158.572 299.035C163.086 300.087 167.158 301.479 167.158 306.67C167.158 311.76 162.814 314.577 157.215 314.577ZM179.617 314.577C173.169 314.577 168.927 311.726 168.792 306.365H174.832C175.103 308.808 176.698 309.826 179.583 309.826C181.551 309.826 183.485 309.114 183.485 307.281C183.485 305.347 181.517 304.94 178.191 304.125C173.984 303.141 169.538 301.852 169.538 296.762C169.538 291.57 173.746 289.296 179.175 289.296C184.435 289.296 188.507 291.672 188.745 296.762H182.874C182.637 294.895 181.211 293.843 178.972 293.843C176.868 293.843 175.477 294.76 175.477 296.117C175.477 297.814 177.343 298.221 180.974 299.035C185.487 300.087 189.559 301.479 189.559 306.67C189.559 311.76 185.216 314.577 179.617 314.577ZM198.022 300.461H202.535C204.91 300.461 206.132 299.341 206.132 297.508C206.132 295.744 204.978 294.488 202.671 294.488H198.022V300.461ZM192.016 314V289.738H203.621C208.439 289.738 212.104 292.215 212.104 296.728C212.104 299.544 210.713 301.614 207.896 302.598V302.7C210 303.413 211.086 304.736 211.426 307.145C211.935 310.335 211.595 313.389 212.444 313.695V314H206.607C205.962 313.627 206.064 310.776 205.691 308.367C205.385 306.127 204.232 304.906 201.653 304.906H198.022V314H192.016Z" fill="#002068"/>
<path d="M179 212C217.108 212 248 181.108 248 143C248 104.892 217.108 74 179 74C140.892 74 110 104.892 110 143C110 181.108 140.892 212 179 212Z" fill="url(#paint0_linear_639_304)"/>
</g>
</g>
<mask id="path-4-inside-1_639_304" fill="white">
<path d="M175.224 169.058C176.295 168.212 177.367 167.31 178.438 166.408C181.032 164.152 183.682 161.84 187.008 160.656C191.237 159.134 195.748 159.641 200.146 160.149C201.838 160.318 203.529 160.544 205.221 160.6C211.198 160.825 217.851 158.401 218.866 153.157C219.486 149.887 217.851 146.842 216.047 143.628C214.637 141.034 213.171 138.384 212.833 135.452C212.551 133.084 213.058 130.659 213.509 128.291C214.017 125.585 214.524 122.935 213.848 120.736C213.622 120.736 213.397 120.736 213.171 120.679C212.72 120.51 212.325 120.172 212.156 119.664C210.916 116.112 207.815 113.18 203.755 111.77C199.695 110.417 195.41 110.868 192.309 112.954C191.576 113.462 190.843 114.026 190.053 114.646C187.065 116.958 183.682 119.608 179.735 118.086C178.833 117.747 178.1 117.183 177.423 116.732C176.69 116.225 176.07 115.717 175.393 115.605C174.153 115.379 172.969 116.394 171.277 117.916C170.769 118.367 170.262 118.819 169.811 119.213C165.075 122.991 157.632 122.596 153.177 118.537C146.975 121.525 140.547 125.303 139.194 131.562C138.517 134.663 139.645 138.046 142.069 140.752C144.55 143.402 147.877 144.756 150.978 144.305C151.542 144.248 152.05 144.417 152.388 144.868C152.726 145.32 152.839 145.827 152.726 146.334C149.569 156.822 154.756 169.17 164.342 174.471C168.289 173.343 172.01 171.539 175.28 169.058"/>
</mask>
<path d="M178.438 166.408L179.726 167.937L179.738 167.927L179.75 167.917L178.438 166.408ZM187.008 160.656L187.679 162.541L187.686 162.538L187.008 160.656ZM200.146 160.149L199.917 162.136L199.932 162.137L199.947 162.139L200.146 160.149ZM205.221 160.6L205.296 158.601L205.287 158.601L205.221 160.6ZM218.866 153.157L220.83 153.537L220.831 153.53L218.866 153.157ZM216.047 143.628L214.29 144.583L214.296 144.595L214.303 144.607L216.047 143.628ZM212.833 135.452L214.82 135.223L214.819 135.216L212.833 135.452ZM213.509 128.291L215.474 128.665L215.475 128.66L213.509 128.291ZM213.848 120.736L215.759 120.147L215.325 118.736H213.848V120.736ZM213.171 120.679L212.469 122.552L212.576 122.592L212.686 122.62L213.171 120.679ZM212.156 119.664L214.054 119.032L214.049 119.018L214.044 119.005L212.156 119.664ZM203.755 111.77L204.411 109.881L204.399 109.877L204.387 109.873L203.755 111.77ZM192.309 112.954L191.192 111.295L191.181 111.302L191.17 111.31L192.309 112.954ZM190.053 114.646L191.277 116.228L191.283 116.223L191.289 116.219L190.053 114.646ZM179.735 118.086L180.454 116.219L180.446 116.216L180.437 116.213L179.735 118.086ZM177.423 116.732L176.285 118.377L176.299 118.387L176.314 118.396L177.423 116.732ZM175.393 115.605L175.035 117.572L175.05 117.575L175.064 117.577L175.393 115.605ZM171.277 117.916L172.606 119.411L172.615 119.403L171.277 117.916ZM169.811 119.213L171.058 120.777L171.094 120.748L171.128 120.718L169.811 119.213ZM153.177 118.537L154.525 117.058L153.526 116.148L152.309 116.735L153.177 118.537ZM139.194 131.562L141.148 131.988L141.149 131.984L139.194 131.562ZM142.069 140.752L140.58 142.087L140.594 142.103L140.609 142.119L142.069 140.752ZM150.978 144.305L150.779 142.315L150.735 142.319L150.69 142.325L150.978 144.305ZM152.726 146.334L154.641 146.911L154.663 146.84L154.679 146.768L152.726 146.334ZM164.342 174.471L163.374 176.221L164.097 176.621L164.891 176.394L164.342 174.471ZM176.463 170.627C177.564 169.759 178.659 168.836 179.726 167.937L177.15 164.878C176.074 165.784 175.027 166.665 173.985 167.488L176.463 170.627ZM179.75 167.917C182.396 165.616 184.768 163.577 187.679 162.541L186.338 158.772C182.595 160.104 179.667 162.688 177.126 164.898L179.75 167.917ZM187.686 162.538C191.401 161.201 195.435 161.619 199.917 162.136L200.375 158.162C196.061 157.664 191.073 157.067 186.331 158.775L187.686 162.538ZM199.947 162.139C201.551 162.299 203.374 162.539 205.154 162.599L205.287 158.601C203.684 158.548 202.125 158.337 200.345 158.159L199.947 162.139ZM205.145 162.599C208.399 162.721 211.894 162.131 214.779 160.728C217.666 159.325 220.163 156.98 220.83 153.537L216.902 152.777C216.554 154.578 215.217 156.067 213.03 157.131C210.84 158.195 208.02 158.704 205.296 158.601L205.145 162.599ZM220.831 153.53C221.61 149.423 219.518 145.726 217.791 142.649L214.303 144.607C216.184 147.957 217.363 150.35 216.901 152.784L220.831 153.53ZM217.804 142.673C216.35 139.998 215.105 137.699 214.82 135.223L210.846 135.681C211.237 139.07 212.924 142.07 214.29 144.583L217.804 142.673ZM214.819 135.216C214.581 133.219 215.004 131.132 215.474 128.665L211.545 127.917C211.112 130.187 210.521 132.949 210.847 135.689L214.819 135.216ZM215.475 128.66C215.724 127.332 216 125.886 216.116 124.488C216.232 123.084 216.202 121.588 215.759 120.147L211.936 121.324C212.17 122.083 212.225 123.01 212.129 124.158C212.034 125.311 211.802 126.544 211.544 127.923L215.475 128.66ZM213.848 118.736C213.789 118.736 213.748 118.736 213.71 118.735C213.673 118.734 213.65 118.733 213.634 118.732C213.603 118.73 213.617 118.729 213.656 118.739L212.686 122.62C213.189 122.745 213.659 122.736 213.848 122.736V118.736ZM213.873 118.807C213.876 118.807 213.904 118.818 213.943 118.856C213.987 118.898 214.03 118.961 214.054 119.032L210.259 120.297C210.654 121.481 211.565 122.213 212.469 122.552L213.873 118.807ZM214.044 119.005C212.575 114.796 208.963 111.462 204.411 109.881L203.099 113.66C206.666 114.898 209.257 117.428 210.268 120.324L214.044 119.005ZM204.387 109.873C199.831 108.354 194.883 108.812 191.192 111.295L193.425 114.614C195.936 112.925 199.559 112.48 203.122 113.668L204.387 109.873ZM191.17 111.31C190.385 111.854 189.612 112.449 188.818 113.073L191.289 116.219C192.073 115.602 192.767 115.07 193.447 114.599L191.17 111.31ZM188.829 113.064C187.289 114.256 185.892 115.331 184.441 115.976C183.07 116.586 181.802 116.739 180.454 116.219L179.015 119.952C181.614 120.954 184.012 120.544 186.066 119.631C188.041 118.753 189.829 117.348 191.277 116.228L188.829 113.064ZM180.437 116.213C179.815 115.98 179.355 115.617 178.532 115.068L176.314 118.396C176.844 118.75 177.85 119.515 179.032 119.958L180.437 116.213ZM178.561 115.088C178.285 114.896 177.826 114.558 177.437 114.318C177.015 114.058 176.432 113.75 175.722 113.632L175.064 117.577C175.03 117.572 175.096 117.574 175.337 117.722C175.451 117.793 175.579 117.88 175.742 117.994C175.884 118.094 176.099 118.248 176.285 118.377L178.561 115.088ZM175.751 113.637C174.432 113.397 173.306 113.868 172.441 114.411C171.604 114.936 170.754 115.696 169.939 116.43L172.615 119.403C173.492 118.614 174.079 118.106 174.567 117.799C175.028 117.51 175.113 117.586 175.035 117.572L175.751 113.637ZM169.948 116.422C169.439 116.874 168.938 117.32 168.494 117.708L171.128 120.718C171.586 120.318 172.1 119.861 172.606 119.411L169.948 116.422ZM168.564 117.65C164.627 120.79 158.283 120.484 154.525 117.058L151.83 120.015C156.981 124.709 165.522 125.192 171.058 120.777L168.564 117.65ZM152.309 116.735C149.18 118.243 145.842 120.018 143.096 122.279C140.338 124.549 138.043 127.419 137.239 131.139L141.149 131.984C141.698 129.445 143.293 127.297 145.638 125.367C147.996 123.426 150.972 121.819 154.045 120.338L152.309 116.735ZM137.24 131.135C136.396 135.004 137.832 139.02 140.58 142.087L143.559 139.418C141.457 137.072 140.639 134.322 141.148 131.988L137.24 131.135ZM140.609 142.119C143.443 145.146 147.391 146.847 151.266 146.284L150.69 142.325C148.363 142.664 145.658 141.659 143.529 139.386L140.609 142.119ZM151.177 146.295C151.206 146.292 151.153 146.303 151.053 146.264C150.941 146.221 150.845 146.145 150.788 146.068L153.988 143.668C153.144 142.543 151.885 142.204 150.779 142.315L151.177 146.295ZM150.788 146.068C150.803 146.089 150.788 146.075 150.777 146.026C150.771 146.003 150.769 145.979 150.769 145.955C150.769 145.931 150.771 145.912 150.774 145.901L154.679 146.768C154.926 145.656 154.655 144.557 153.988 143.668L150.788 146.068ZM150.811 145.758C147.375 157.17 152.984 170.476 163.374 176.221L165.309 172.72C156.528 167.865 151.762 156.475 154.641 146.911L150.811 145.758ZM164.891 176.394C169.06 175.203 173.008 173.292 176.489 170.651L174.072 167.464C171.012 169.786 167.517 171.483 163.792 172.548L164.891 176.394Z" fill="white" mask="url(#path-4-inside-1_639_304)"/>
</g>
<defs>
<filter id="filter0_d_639_304" x="0" y="0" width="361" height="357" filterUnits="userSpaceOnUse" color-interpolation-filters="sRGB">
<feFlood flood-opacity="0" result="BackgroundImageFix"/>
<feColorMatrix in="SourceAlpha" type="matrix" values="0 0 0 0 0 0 0 0 0 0 0 0 0 0 0 0 0 0 127 0" result="hardAlpha"/>
<feOffset dx="2" dy="2"/>
<feGaussianBlur stdDeviation="2"/>
<feComposite in2="hardAlpha" operator="out"/>
<feColorMatrix type="matrix" values="0 0 0 0 0 0 0 0 0 0 0 0 0 0 0 0 0 0 0.25 0"/>
<feBlend mode="normal" in2="BackgroundImageFix" result="effect1_dropShadow_639_304"/>
<feBlend mode="normal" in="SourceGraphic" in2="effect1_dropShadow_639_304" result="shape"/>
</filter>
<filter id="filter1_d_639_304" x="0" y="0" width="361" height="357" filterUnits="userSpaceOnUse" color-interpolation-filters="sRGB">
<feFlood flood-opacity="0" result="BackgroundImageFix"/>
<feColorMatrix in="SourceAlpha" type="matrix" values="0 0 0 0 0 0 0 0 0 0 0 0 0 0 0 0 0 0 127 0" result="hardAlpha"/>
<feOffset dx="2" dy="2"/>
<feGaussianBlur stdDeviation="2"/>
<feComposite in2="hardAlpha" operator="out"/>
<feColorMatrix type="matrix" values="0 0 0 0 0 0 0 0 0 0 0 0 0 0 0 0 0 0 0.25 0"/>
<feBlend mode="normal" in2="BackgroundImageFix" result="effect1_dropShadow_639_304"/>
<feBlend mode="normal" in="SourceGraphic" in2="effect1_dropShadow_639_304" result="shape"/>
</filter>
<filter id="filter2_d_639_304" x="0" y="0" width="361" height="357" filterUnits="userSpaceOnUse" color-interpolation-filters="sRGB">
<feFlood flood-opacity="0" result="BackgroundImageFix"/>
<feColorMatrix in="SourceAlpha" type="matrix" values="0 0 0 0 0 0 0 0 0 0 0 0 0 0 0 0 0 0 127 0" result="hardAlpha"/>
<feOffset dx="2" dy="2"/>
<feGaussianBlur stdDeviation="2"/>
<feComposite in2="hardAlpha" operator="out"/>
<feColorMatrix type="matrix" values="0 0 0 0 0 0 0 0 0 0 0 0 0 0 0 0 0 0 0.25 0"/>
<feBlend mode="normal" in2="BackgroundImageFix" result="effect1_dropShadow_639_304"/>
<feBlend mode="normal" in="SourceGraphic" in2="effect1_dropShadow_639_304" result="shape"/>
</filter>
<linearGradient id="paint0_linear_639_304" x1="144.488" y1="202.766" x2="213.512" y2="83.2345" gradientUnits="userSpaceOnUse">
<stop stop-color="#0460A9"/>
<stop offset="1" stop-color="#50E2D0"/>
</linearGradient>
</defs>
</svg>
