<svg width="361" height="357" viewBox="0 0 361 357" fill="none" xmlns="http://www.w3.org/2000/svg">
<g filter="url(#filter0_d_660_548)">
<rect x="2" y="2" width="353" height="349" rx="19.0804" fill="white"/>
<path d="M179 212C217.108 212 248 181.108 248 143C248 104.892 217.108 74 179 74C140.892 74 110 104.892 110 143C110 181.108 140.892 212 179 212Z" fill="url(#paint0_linear_660_548)"/>
<path d="M125.141 264.313H130.842L129.009 258.443C128.602 257.187 128.059 255.015 128.059 255.015H127.991C127.991 255.015 127.415 257.187 127.007 258.443L125.141 264.313ZM116.318 273L125.039 248.738H131.215L139.97 273H133.658L132.233 268.623H123.75L122.358 273H116.318ZM148.924 273.543C143.325 273.543 139.694 269.573 139.694 264.347C139.694 259.121 143.291 255.151 148.788 255.151C153.505 255.151 156.525 257.9 157.034 261.802H151.707C151.367 260.241 150.417 259.223 148.856 259.223C146.481 259.223 145.293 261.191 145.293 264.347C145.293 267.435 146.481 269.403 148.856 269.403C150.587 269.403 151.639 268.385 151.876 266.417H157.17C157.034 270.421 153.845 273.543 148.924 273.543ZM170.742 278.735V271.168H170.64C169.656 272.593 168.061 273.543 165.821 273.543C161.444 273.543 158.288 269.946 158.288 264.313C158.288 259.087 161.07 255.117 165.923 255.117C168.163 255.117 169.757 256.067 170.877 257.832H170.979V255.626H176.239V278.735H170.742ZM167.314 269.166C169.52 269.166 170.911 267.299 170.911 264.449C170.911 261.632 169.69 259.461 167.314 259.461C164.939 259.461 163.887 261.497 163.887 264.449C163.887 267.435 165.143 269.166 167.314 269.166ZM184.854 273.509C180.85 273.509 178.746 270.896 178.746 267.028V255.626H184.243V265.874C184.243 267.774 185.092 268.826 186.856 268.826C188.757 268.826 189.91 267.401 189.91 265.331V255.626H195.441V273H190.148V270.862H190.046C188.79 272.559 187.263 273.509 184.854 273.509ZM200.885 248.229C202.615 248.229 203.939 249.45 203.939 251.181C203.939 252.911 202.615 254.133 200.885 254.133C199.154 254.133 197.831 252.911 197.831 251.181C197.831 249.45 199.154 248.229 200.885 248.229ZM198.102 273V255.626H203.633V273H198.102ZM213.685 273.543C208.595 273.543 205.405 271.202 205.235 267.367H210.461C210.665 269.098 211.818 269.946 213.651 269.946C215.314 269.946 216.365 269.335 216.365 268.215C216.365 266.654 214.262 266.485 211.954 266.078C208.934 265.569 205.71 264.754 205.71 260.682C205.71 257.017 209.104 255.117 213.21 255.117C218.13 255.117 220.777 257.255 221.048 260.682H215.958C215.755 259.121 214.703 258.646 213.176 258.646C211.818 258.646 210.766 259.155 210.766 260.241C210.766 261.463 212.735 261.632 214.94 262.039C217.994 262.548 221.591 263.329 221.591 267.774C221.591 271.575 218.232 273.543 213.685 273.543ZM229.778 273.204C226.554 273.204 224.247 272.152 224.247 268.419V259.087H221.939V255.626H224.247V250.129H229.642V255.626H232.798V259.087H229.642V267.231C229.642 268.589 230.389 268.928 231.576 268.928C232.052 268.928 232.594 268.894 232.798 268.894V272.932C232.323 273.068 231.271 273.204 229.778 273.204ZM237.569 248.229C239.299 248.229 240.623 249.45 240.623 251.181C240.623 252.911 239.299 254.133 237.569 254.133C235.838 254.133 234.515 252.911 234.515 251.181C234.515 249.45 235.838 248.229 237.569 248.229ZM234.786 273V255.626H240.317V273H234.786Z" fill="#002068"/>
<path d="M222.56 154.89L209.201 131.749C208.477 130.495 206.867 130.063 205.612 130.788L196.884 135.827C195.807 136.449 195.339 137.724 195.686 138.866C194.912 138.858 194.08 138.721 193.192 138.451C193.166 138.443 193.139 138.435 193.113 138.429C182.348 135.926 179.705 136.273 178.539 136.943C178.484 136.975 178.432 137.01 178.383 137.049C176.89 138.249 175.284 139.569 173.577 141.001C169.494 141.079 165.37 140.244 162.231 138.724C162.368 138.264 162.38 137.773 162.251 137.295C162.069 136.616 161.635 136.05 161.029 135.699L152.301 130.66C151.694 130.31 150.986 130.218 150.308 130.399C149.629 130.581 149.062 131.015 148.712 131.622L135.352 154.762C135.002 155.368 134.909 156.076 135.091 156.755C135.273 157.434 135.707 158 136.313 158.351L145.041 163.39C145.648 163.74 146.355 163.832 147.034 163.651C147.713 163.469 148.28 163.035 148.63 162.428L149.652 160.658C151.481 161.978 153.451 163.95 154.331 165.658C153.225 167.337 153.41 169.622 154.885 171.098C155.66 171.872 156.681 172.315 157.775 172.357C157.767 172.465 157.761 172.573 157.761 172.682C157.761 173.841 158.21 174.927 159.025 175.742C159.868 176.585 160.977 177.008 162.085 177.007C162.109 177.007 162.132 177.004 162.155 177.003C162.155 177.027 162.153 177.05 162.153 177.074C162.153 178.232 162.602 179.318 163.417 180.133C164.232 180.948 165.318 181.397 166.477 181.397C166.98 181.397 167.47 181.312 167.929 181.149C168.106 181.94 168.502 182.665 169.086 183.249C169.929 184.092 171.037 184.514 172.145 184.514C172.969 184.514 173.793 184.28 174.509 183.813L175.691 184.995C176.602 185.905 177.798 186.361 178.994 186.361C180.19 186.361 181.385 185.905 182.296 184.995C182.984 184.308 183.411 183.458 183.579 182.567C184.112 182.773 184.684 182.882 185.272 182.882C186.523 182.882 187.696 182.398 188.575 181.519C189.172 180.921 189.586 180.188 189.791 179.389C190.529 179.832 191.364 180.055 192.198 180.055C193.394 180.055 194.589 179.599 195.5 178.689C196.309 177.881 196.758 176.846 196.848 175.787C197.156 175.849 197.468 175.881 197.781 175.881C198.977 175.881 200.172 175.426 201.083 174.516C201.962 173.637 202.446 172.464 202.446 171.214C202.446 169.963 201.962 168.79 201.083 167.911L200.951 167.78C203.466 166.368 206.345 163.718 208.495 161.194L209.279 162.552C209.766 163.394 210.65 163.865 211.558 163.865C212.004 163.865 212.455 163.752 212.868 163.514L221.596 158.475C222.853 157.754 223.284 156.144 222.56 154.89ZM146.516 161.208C146.485 161.261 146.438 161.283 146.403 161.293C146.368 161.303 146.316 161.307 146.263 161.276L137.535 156.237C137.481 156.206 137.459 156.158 137.449 156.124C137.44 156.089 137.436 156.036 137.466 155.983L150.826 132.844C150.857 132.791 150.904 132.769 150.939 132.759C150.954 132.755 150.971 132.752 150.99 132.752C151.017 132.752 151.048 132.758 151.079 132.776L159.807 137.815C159.861 137.846 159.883 137.894 159.893 137.928C159.902 137.963 159.906 138.015 159.876 138.069L146.516 161.208ZM157.947 169.92C157.441 169.92 156.967 169.725 156.614 169.371C155.879 168.637 155.879 167.44 156.614 166.705L159.06 164.26C159.414 163.906 159.887 163.712 160.392 163.712C160.898 163.712 161.372 163.906 161.725 164.26C162.079 164.614 162.273 165.087 162.273 165.592C162.273 166.098 162.079 166.572 161.725 166.925L159.279 169.37C158.927 169.725 158.453 169.92 157.947 169.92ZM160.754 174.017C160.019 173.282 160.019 172.086 160.754 171.351L166.15 165.955C166.504 165.601 166.977 165.407 167.483 165.407C167.988 165.407 168.462 165.601 168.815 165.955C169.169 166.309 169.363 166.782 169.363 167.288C169.363 167.793 169.169 168.267 168.815 168.62L163.419 174.016C162.684 174.752 161.489 174.752 160.754 174.017ZM169.089 177.133L169.088 177.134L167.812 178.409C167.458 178.763 166.985 178.957 166.48 178.957C165.974 178.957 165.5 178.763 165.147 178.409C164.793 178.055 164.599 177.582 164.599 177.076C164.599 176.571 164.793 176.097 165.147 175.744L170.543 170.348L170.544 170.347C170.897 169.994 171.37 169.8 171.876 169.8C172.381 169.8 172.855 169.994 173.209 170.348C173.563 170.702 173.757 171.175 173.757 171.681C173.757 172.186 173.563 172.66 173.209 173.013L169.089 177.133ZM173.481 181.525C173.127 181.879 172.654 182.073 172.148 182.073C171.643 182.073 171.169 181.879 170.816 181.525C170.462 181.171 170.267 180.698 170.267 180.192C170.267 179.686 170.462 179.213 170.816 178.86L173.261 176.414C173.615 176.06 174.088 175.866 174.594 175.866C175.1 175.866 175.573 176.06 175.926 176.414C176.661 177.149 176.661 178.345 175.926 179.08L173.481 181.525ZM180.572 183.272C179.703 184.14 178.29 184.14 177.421 183.272L176.304 182.155L177.653 180.806C178.327 180.132 178.728 179.289 178.863 178.412L180.573 180.122C181.44 180.99 181.44 182.404 180.572 183.272ZM199.359 172.792C198.489 173.661 197.077 173.66 196.207 172.792L195.503 172.088C195.502 172.087 195.5 172.086 195.499 172.085L185.133 161.719C184.656 161.242 183.883 161.242 183.407 161.719C182.93 162.195 182.93 162.968 183.407 163.445L193.776 173.814C194.645 174.682 194.645 176.096 193.776 176.965C192.908 177.835 191.494 177.834 190.625 176.965L188.577 174.917C188.575 174.915 188.573 174.914 188.571 174.912L181.871 168.212C181.394 167.735 180.62 167.735 180.144 168.212C179.668 168.689 179.668 169.461 180.144 169.938L186.85 176.643C187.267 177.061 187.498 177.621 187.498 178.219C187.498 178.816 187.267 179.376 186.85 179.794C186.432 180.212 185.872 180.443 185.274 180.443C184.677 180.443 184.117 180.212 183.699 179.795L182.298 178.394C182.297 178.393 182.295 178.392 182.294 178.391L179.834 175.931C179.448 175.545 178.869 175.471 178.409 175.71C178.212 175.342 177.961 174.996 177.652 174.686C177.119 174.153 176.469 173.778 175.76 173.582C176.045 172.998 176.197 172.351 176.197 171.68C176.197 170.521 175.748 169.435 174.933 168.62C174.12 167.806 173.033 167.357 171.875 167.357C171.85 167.357 171.827 167.358 171.804 167.359C171.804 167.335 171.806 167.312 171.806 167.289C171.806 166.13 171.357 165.044 170.542 164.229C169.727 163.414 168.641 162.965 167.483 162.965C166.35 162.965 165.287 163.395 164.479 164.176C164.268 163.564 163.921 163.004 163.452 162.535C161.765 160.847 159.02 160.847 157.333 162.535L156.074 163.794C154.838 161.836 152.779 159.869 150.88 158.534L161.074 140.878C163.832 142.228 167.256 143.098 170.785 143.363C169.621 144.356 168.417 145.392 167.174 146.471L166.977 146.641C166.117 147.379 165.899 147.739 165.994 148.86C166.006 148.994 166.019 149.155 166.03 149.357L166.611 160.164C166.64 160.702 167.019 161.159 167.543 161.285C168.307 161.47 169.03 161.561 169.71 161.561C172.884 161.561 175.124 159.577 176.114 155.808C176.334 154.968 176.318 154.069 176.303 153.198C176.282 152.068 176.263 151 176.776 150.542C177.246 150.122 178.333 149.984 179.858 150.142L199.358 169.642C199.776 170.06 200.006 170.62 200.006 171.217C200.007 171.814 199.776 172.373 199.359 172.792ZM199.144 165.972L181.285 148.114C181.086 147.916 180.838 147.802 180.58 147.768C177.983 147.427 176.258 147.73 175.149 148.72C173.801 149.925 173.834 151.764 173.861 153.242C173.874 153.978 173.887 154.673 173.753 155.186C172.971 158.159 171.489 159.386 168.998 159.075L168.469 149.226C168.456 148.993 168.441 148.806 168.427 148.652C168.426 148.641 168.425 148.629 168.424 148.617C168.471 148.577 168.521 148.534 168.568 148.493L168.775 148.314C172.909 144.724 176.623 141.601 179.816 139.033C180.241 138.858 182.419 138.453 192.521 140.799C194.111 141.279 195.603 141.423 196.97 141.231L207.195 158.941C204.743 162.003 201.403 164.912 199.144 165.972ZM220.377 156.363L211.649 161.402C211.564 161.452 211.445 161.42 211.396 161.335L198.037 138.195C197.988 138.109 198.019 137.991 198.105 137.942L206.833 132.903C206.919 132.854 207.037 132.886 207.086 132.971L220.446 156.11C220.494 156.196 220.464 156.314 220.377 156.363ZM180.593 121.586C180.593 120.684 179.859 119.949 178.956 119.949C176.707 119.949 174.877 118.119 174.877 115.87C174.877 114.046 176.081 112.498 177.735 111.978V111.144C177.735 110.47 178.281 109.923 178.956 109.923C179.63 109.923 180.177 110.469 180.177 111.144V111.978C181.832 112.498 183.035 114.046 183.035 115.87C183.035 116.544 182.488 117.091 181.813 117.091C181.139 117.091 180.592 116.545 180.592 115.87C180.592 114.968 179.858 114.233 178.955 114.233C178.053 114.233 177.318 114.967 177.318 115.87C177.318 116.773 178.052 117.507 178.955 117.507C181.204 117.507 183.034 119.337 183.034 121.586C183.034 123.41 181.831 124.958 180.176 125.478V126.312C180.176 126.986 179.63 127.533 178.955 127.533C178.281 127.533 177.734 126.987 177.734 126.312V125.478C176.079 124.958 174.876 123.41 174.876 121.586C174.876 120.912 175.423 120.365 176.098 120.365C176.772 120.365 177.319 120.911 177.319 121.586C177.319 122.488 178.053 123.223 178.956 123.223C179.859 123.223 180.593 122.489 180.593 121.586ZM178.956 133.503C187.103 133.503 193.731 126.876 193.731 118.729C193.731 110.582 187.103 103.954 178.956 103.954C170.809 103.954 164.181 110.582 164.181 118.729C164.181 126.876 170.809 133.503 178.956 133.503ZM178.956 106.396C185.756 106.396 191.289 111.928 191.289 118.729C191.289 125.529 185.757 131.062 178.956 131.062C172.155 131.062 166.623 125.53 166.623 118.729C166.624 111.929 172.156 106.396 178.956 106.396ZM151.161 105.678C150.685 105.201 150.685 104.428 151.161 103.951L154.755 100.358C155.232 99.8808 156.005 99.8808 156.482 100.358L160.075 103.951C160.552 104.428 160.552 105.2 160.075 105.678C159.836 105.917 159.524 106.036 159.212 106.036C158.899 106.036 158.587 105.917 158.348 105.678L156.84 104.169V117.399C156.84 118.073 156.293 118.62 155.618 118.62C154.943 118.62 154.397 118.074 154.397 117.399V104.168L152.888 105.677C152.412 106.155 151.638 106.155 151.161 105.678ZM197.838 105.678C197.361 105.201 197.361 104.429 197.838 103.951L201.431 100.358C201.908 99.8808 202.681 99.8808 203.157 100.358L206.75 103.951C207.227 104.428 207.227 105.2 206.75 105.678C206.513 105.917 206.199 106.036 205.887 106.036C205.575 106.036 205.262 105.917 205.023 105.678L203.514 104.169V117.399C203.514 118.073 202.968 118.62 202.293 118.62C201.618 118.62 201.071 118.074 201.071 117.399V104.168L199.562 105.677C199.088 106.155 198.314 106.155 197.838 105.678ZM145.876 155.681C145.876 157.027 144.78 158.122 143.434 158.122C142.088 158.122 140.992 157.027 140.992 155.681C140.992 154.335 142.087 153.239 143.433 153.239C144.779 153.239 145.876 154.335 145.876 155.681ZM216.805 155.759C216.805 157.105 215.71 158.201 214.364 158.201C213.018 158.201 211.922 157.105 211.922 155.759C211.922 154.413 213.018 153.317 214.364 153.317C215.71 153.317 216.805 154.413 216.805 155.759Z" fill="white"/>
</g>
<defs>
<filter id="filter0_d_660_548" x="0" y="0" width="361" height="357" filterUnits="userSpaceOnUse" color-interpolation-filters="sRGB">
<feFlood flood-opacity="0" result="BackgroundImageFix"/>
<feColorMatrix in="SourceAlpha" type="matrix" values="0 0 0 0 0 0 0 0 0 0 0 0 0 0 0 0 0 0 127 0" result="hardAlpha"/>
<feOffset dx="2" dy="2"/>
<feGaussianBlur stdDeviation="2"/>
<feComposite in2="hardAlpha" operator="out"/>
<feColorMatrix type="matrix" values="0 0 0 0 0 0 0 0 0 0 0 0 0 0 0 0 0 0 0.25 0"/>
<feBlend mode="normal" in2="BackgroundImageFix" result="effect1_dropShadow_660_548"/>
<feBlend mode="normal" in="SourceGraphic" in2="effect1_dropShadow_660_548" result="shape"/>
</filter>
<linearGradient id="paint0_linear_660_548" x1="144.488" y1="202.766" x2="213.512" y2="83.2345" gradientUnits="userSpaceOnUse">
<stop stop-color="#0460A9"/>
<stop offset="1" stop-color="#50E2D0"/>
</linearGradient>
</defs>
</svg>
