<svg width="361" height="357" viewBox="0 0 361 357" fill="none" xmlns="http://www.w3.org/2000/svg">
<g filter="url(#filter0_d_639_319)">
<rect x="2" y="2" width="353" height="349" rx="19.0804" fill="white"/>
<path d="M49.14 273V248.738H57.2162L60.1684 259.359C60.6096 260.886 61.5597 264.89 61.5597 264.89H61.6276C61.6276 264.89 62.5777 260.886 62.9849 259.359L65.9711 248.738H74.1151V273H68.6179V260.784C68.6179 259.8 68.7197 255.931 68.7197 255.931H68.6518C68.6518 255.931 67.8035 259.562 67.532 260.445L64.0368 273H59.0825L55.6213 260.479C55.3498 259.596 54.5015 255.931 54.5015 255.931H54.4336C54.4336 255.931 54.5354 259.834 54.5354 260.818V273H49.14ZM83.9892 269.912C86.0592 269.912 87.4844 268.657 87.4844 266.79V264.72C86.7718 265.093 85.7538 265.365 84.634 265.636C82.4962 266.111 81.6139 266.654 81.6139 267.978C81.6139 269.369 82.6319 269.912 83.9892 269.912ZM82.2247 273.441C78.7635 273.441 76.2863 271.575 76.2863 268.148C76.2863 264.313 79.3403 263.159 82.9373 262.684C86.1949 262.277 87.3487 261.938 87.3487 260.75C87.3487 259.63 86.6361 258.884 84.9733 258.884C83.2088 258.884 82.3265 259.664 82.1568 261.123H77.0668C77.2025 257.9 79.6797 255.151 84.9394 255.151C87.5523 255.151 89.3168 255.626 90.5723 256.576C92.0654 257.662 92.778 259.359 92.778 261.53V270.285C92.778 271.677 92.9138 272.457 93.3888 272.762V273H88.0273C87.7559 272.627 87.5862 271.948 87.4505 271.066H87.3826C86.3646 272.525 84.8376 273.441 82.2247 273.441ZM104.554 269.267C106.657 269.267 107.947 267.469 107.947 264.517C107.947 261.53 106.827 259.562 104.452 259.562C102.042 259.562 100.821 261.7 100.821 264.517C100.821 267.333 102.178 269.267 104.554 269.267ZM95.4593 278.735V255.626H100.753V257.73H100.855C102.042 256.169 103.739 255.117 106.114 255.117C110.729 255.117 113.546 259.087 113.546 264.313C113.546 269.946 110.526 273.543 105.979 273.543C103.739 273.543 102.144 272.661 101.058 271.202H100.99V278.735H95.4593ZM124.503 269.267C126.607 269.267 127.896 267.469 127.896 264.517C127.896 261.53 126.776 259.562 124.401 259.562C121.992 259.562 120.77 261.7 120.77 264.517C120.77 267.333 122.127 269.267 124.503 269.267ZM115.409 278.735V255.626H120.702V257.73H120.804C121.992 256.169 123.688 255.117 126.064 255.117C130.679 255.117 133.495 259.087 133.495 264.313C133.495 269.946 130.475 273.543 125.928 273.543C123.688 273.543 122.093 272.661 121.008 271.202H120.94V278.735H115.409ZM142.246 269.912C144.316 269.912 145.741 268.657 145.741 266.79V264.72C145.029 265.093 144.011 265.365 142.891 265.636C140.753 266.111 139.871 266.654 139.871 267.978C139.871 269.369 140.889 269.912 142.246 269.912ZM140.482 273.441C137.02 273.441 134.543 271.575 134.543 268.148C134.543 264.313 137.597 263.159 141.194 262.684C144.452 262.277 145.606 261.938 145.606 260.75C145.606 259.63 144.893 258.884 143.23 258.884C141.466 258.884 140.584 259.664 140.414 261.123H135.324C135.46 257.9 137.937 255.151 143.196 255.151C145.809 255.151 147.574 255.626 148.829 256.576C150.322 257.662 151.035 259.359 151.035 261.53V270.285C151.035 271.677 151.171 272.457 151.646 272.762V273H146.284C146.013 272.627 145.843 271.948 145.707 271.066H145.64C144.622 272.525 143.095 273.441 140.482 273.441ZM165.331 259.461H169.844C172.219 259.461 173.441 258.341 173.441 256.508C173.441 254.744 172.287 253.488 169.98 253.488H165.331V259.461ZM159.325 273V248.738H170.93C175.748 248.738 179.413 251.215 179.413 255.728C179.413 258.544 178.022 260.614 175.206 261.598V261.7C177.309 262.413 178.395 263.736 178.735 266.145C179.244 269.335 178.904 272.389 179.753 272.695V273H173.916C173.271 272.627 173.373 269.776 173 267.367C172.694 265.127 171.541 263.906 168.962 263.906H165.331V273H159.325ZM190.069 273.509C184.334 273.509 180.805 269.539 180.805 264.279C180.805 259.087 184.436 255.117 189.73 255.117C192.207 255.117 194.175 255.931 195.668 257.289C197.738 259.189 198.756 262.209 198.722 265.738H186.234C186.574 268.08 187.863 269.539 190.137 269.539C191.596 269.539 192.546 268.894 193.021 267.808H198.417C198.043 269.369 197.025 270.862 195.498 271.914C194.039 272.932 192.275 273.509 190.069 273.509ZM186.268 262.447H193.123C192.919 260.377 191.63 259.053 189.831 259.053C187.728 259.053 186.642 260.377 186.268 262.447ZM208.616 267.944C211.025 267.944 212.145 266.044 212.145 263.6C212.145 261.259 210.924 259.291 208.616 259.291C206.546 259.291 205.189 260.988 205.189 263.634C205.189 266.247 206.546 267.944 208.616 267.944ZM208.65 279.006C203.865 279.006 200.71 277.038 200.167 273.407H205.528C205.834 274.323 206.75 275.104 208.582 275.104C210.924 275.104 211.908 273.882 211.908 271.778V270.048H211.772C210.754 271.202 209.43 272.05 207.327 272.05C203.424 272.05 199.793 269.132 199.793 263.804C199.793 258.714 202.779 255.117 207.089 255.117C209.397 255.117 210.957 256.033 211.975 257.492H212.043V255.626H217.337V271.303C217.337 273.916 216.421 275.816 215.03 277.072C213.502 278.429 211.229 279.006 208.65 279.006ZM222.775 248.229C224.506 248.229 225.829 249.45 225.829 251.181C225.829 252.911 224.506 254.133 222.775 254.133C221.045 254.133 219.721 252.911 219.721 251.181C219.721 249.45 221.045 248.229 222.775 248.229ZM219.993 273V255.626H225.524V273H219.993ZM236.695 273.543C231.13 273.543 227.397 269.573 227.397 264.347C227.397 259.121 231.13 255.151 236.695 255.151C242.294 255.151 245.959 259.121 245.959 264.347C245.959 269.573 242.294 273.543 236.695 273.543ZM236.661 269.607C239.071 269.607 240.36 267.503 240.36 264.347C240.36 261.191 239.071 259.053 236.661 259.053C234.252 259.053 232.997 261.191 232.997 264.347C232.997 267.503 234.252 269.607 236.661 269.607ZM247.829 273V255.626H253.157V258.001H253.258C254.548 256.135 256.211 255.117 258.62 255.117C262.42 255.117 264.66 257.832 264.66 261.7V273H259.129V262.82C259.129 260.988 258.213 259.732 256.414 259.732C254.582 259.732 253.36 261.259 253.36 263.397V273H247.829ZM274.07 269.912C276.14 269.912 277.565 268.657 277.565 266.79V264.72C276.853 265.093 275.835 265.365 274.715 265.636C272.577 266.111 271.695 266.654 271.695 267.978C271.695 269.369 272.713 269.912 274.07 269.912ZM272.306 273.441C268.844 273.441 266.367 271.575 266.367 268.148C266.367 264.313 269.421 263.159 273.018 262.684C276.276 262.277 277.43 261.938 277.43 260.75C277.43 259.63 276.717 258.884 275.054 258.884C273.29 258.884 272.407 259.664 272.238 261.123H267.148C267.283 257.9 269.761 255.151 275.02 255.151C277.633 255.151 279.398 255.626 280.653 256.576C282.146 257.662 282.859 259.359 282.859 261.53V270.285C282.859 271.677 282.995 272.457 283.47 272.762V273H278.108C277.837 272.627 277.667 271.948 277.531 271.066H277.464C276.446 272.525 274.919 273.441 272.306 273.441ZM285.574 273V248.738H291.173V273H285.574ZM302.341 273.509C296.607 273.509 293.077 269.539 293.077 264.279C293.077 259.087 296.708 255.117 302.002 255.117C304.479 255.117 306.447 255.931 307.94 257.289C310.01 259.189 311.028 262.209 310.994 265.738H298.507C298.846 268.08 300.136 269.539 302.409 269.539C303.868 269.539 304.818 268.894 305.294 267.808H310.689C310.316 269.369 309.298 270.862 307.771 271.914C306.312 272.932 304.547 273.509 302.341 273.509ZM298.541 262.447H305.395C305.192 260.377 303.902 259.053 302.104 259.053C300 259.053 298.914 260.377 298.541 262.447ZM157.215 314.577C150.768 314.577 146.526 311.726 146.39 306.365H152.43C152.702 308.808 154.297 309.826 157.181 309.826C159.149 309.826 161.083 309.114 161.083 307.281C161.083 305.347 159.115 304.94 155.79 304.125C151.582 303.141 147.137 301.852 147.137 296.762C147.137 291.57 151.345 289.296 156.774 289.296C162.034 289.296 166.106 291.672 166.343 296.762H160.473C160.235 294.895 158.81 293.843 156.57 293.843C154.466 293.843 153.075 294.76 153.075 296.117C153.075 297.814 154.942 298.221 158.572 299.035C163.086 300.087 167.158 301.479 167.158 306.67C167.158 311.76 162.814 314.577 157.215 314.577ZM179.617 314.577C173.169 314.577 168.927 311.726 168.792 306.365H174.832C175.103 308.808 176.698 309.826 179.583 309.826C181.551 309.826 183.485 309.114 183.485 307.281C183.485 305.347 181.517 304.94 178.191 304.125C173.984 303.141 169.538 301.852 169.538 296.762C169.538 291.57 173.746 289.296 179.175 289.296C184.435 289.296 188.507 291.672 188.745 296.762H182.874C182.637 294.895 181.211 293.843 178.972 293.843C176.868 293.843 175.477 294.76 175.477 296.117C175.477 297.814 177.343 298.221 180.974 299.035C185.487 300.087 189.559 301.479 189.559 306.67C189.559 311.76 185.216 314.577 179.617 314.577ZM198.022 300.461H202.535C204.91 300.461 206.132 299.341 206.132 297.508C206.132 295.744 204.978 294.488 202.671 294.488H198.022V300.461ZM192.016 314V289.738H203.621C208.439 289.738 212.104 292.215 212.104 296.728C212.104 299.544 210.713 301.614 207.896 302.598V302.7C210 303.413 211.086 304.736 211.426 307.145C211.935 310.335 211.595 313.389 212.444 313.695V314H206.607C205.962 313.627 206.064 310.776 205.691 308.367C205.385 306.127 204.232 304.906 201.653 304.906H198.022V314H192.016Z" fill="#002068"/>
<path d="M179 212C217.108 212 248 181.108 248 143C248 104.892 217.108 74 179 74C140.892 74 110 104.892 110 143C110 181.108 140.892 212 179 212Z" fill="url(#paint0_linear_639_319)"/>
<mask id="path-4-inside-1_639_319" fill="white">
<path d="M218.466 169.912C218.967 169.285 219.594 168.683 220.221 168.107C221.675 166.753 223.029 165.449 222.803 163.744C222.653 162.716 221.825 161.813 220.797 161.588C219.795 161.362 218.641 161.838 218.09 162.716C218.039 162.791 217.939 162.866 217.839 162.866C217.739 162.866 217.638 162.866 217.563 162.791C216.736 162.064 216.66 160.835 216.61 159.732C216.535 158.428 216.46 157.601 215.683 157.4C215.382 157.325 215.031 157.4 214.655 157.45C214.504 157.476 214.329 157.501 214.178 157.526C212.122 157.801 210.317 156.322 209.439 154.743C208.587 153.188 208.336 151.383 208.161 149.753C207.258 149.903 206.205 149.853 205.528 149.377C205.152 149.126 204.926 148.75 204.876 148.299C204.776 147.572 205.202 146.97 205.603 146.443C205.779 146.193 205.954 145.967 206.054 145.741C207.107 143.61 204.274 141.404 202.995 140.551C200.689 138.997 198.658 136.564 199.886 134.408C200.864 132.703 203.146 132.603 204.976 132.553H205.077C206.456 132.503 208.812 131.976 208.913 130.271C208.938 129.669 208.637 129.068 208.336 128.466C208.11 128.04 207.885 127.613 207.759 127.137C207.559 126.36 207.634 125.507 207.935 124.68C206.957 122.423 203.397 122.724 201.892 122.975C200.137 123.251 196.451 123.852 194.822 121.521C193.944 120.267 194.019 118.662 194.12 117.133C194.195 115.553 194.295 114.049 193.317 113.046C192.59 112.294 191.512 112.068 190.384 111.842C190.058 111.767 189.707 111.717 189.381 111.617C187.676 111.19 186.071 109.887 186.372 108.282C186.422 107.981 186.522 107.73 186.623 107.48C186.673 107.354 186.723 107.254 186.773 107.129C187.199 105.925 186.773 104.496 185.82 103.694C184.843 102.891 183.338 102.766 182.26 103.418C181.834 103.669 181.458 104.02 181.082 104.371C180.38 105.022 179.652 105.674 178.649 105.75C178.098 105.8 177.596 105.649 177.095 105.499C176.644 105.373 176.217 105.248 175.816 105.273C174.487 105.348 173.71 106.878 173.033 108.207L172.908 108.432C172.431 109.36 171.453 110.539 170.25 110.865C169.673 111.015 169.097 110.94 168.62 110.614C168.445 110.488 168.269 110.338 168.119 110.188C167.793 109.887 167.542 109.711 167.316 109.736C167.141 109.736 166.965 109.887 166.79 110.037C166.589 110.188 166.389 110.363 166.113 110.463C165.185 110.789 164.533 110.062 163.982 109.41C163.681 109.059 163.38 108.708 163.054 108.533C162.352 108.132 161.524 108.432 160.597 108.783C159.769 109.084 158.892 109.41 158.014 109.235C156.886 109.009 156.184 108.106 155.507 107.229C155.281 106.953 155.081 106.652 154.83 106.401C154.153 105.649 153.225 105.073 152.222 104.797C151.57 104.621 151.044 104.621 150.643 104.847C149.991 105.223 149.865 106.05 149.715 106.953C149.54 107.956 149.389 108.984 148.512 109.561C147.258 110.388 146.079 109.561 144.901 108.733C144.074 108.157 143.221 107.555 142.369 107.555H142.344C142.068 107.555 141.817 107.63 141.566 107.755C141.566 107.755 141.566 107.755 141.541 107.781H141.491C140.538 108.282 139.911 109.586 139.836 110.839C139.786 111.491 139.836 112.168 139.886 112.845C139.962 113.898 140.037 114.977 139.786 116.03C139.51 117.158 138.633 118.211 137.58 118.637C137.053 118.863 136.501 118.888 136 118.763V119.189C136.752 120.217 136.827 121.671 136.878 122.975C136.928 123.852 136.953 124.755 137.178 125.482C137.755 127.338 139.636 128.315 141.591 129.369C143.321 130.271 145.102 131.224 146.23 132.829C148.135 135.536 147.408 139.197 145.879 141.604C144.349 144.011 141.992 145.716 139.861 147.246C140.012 147.647 140.313 147.923 140.814 148.123C141.942 148.575 143.622 148.274 144.55 147.446C145.377 146.719 146.004 145.766 146.681 144.763C147.408 143.66 148.186 142.532 149.239 141.629C151.596 139.699 155.306 139.348 158.716 140.752C161.725 141.98 164.182 144.262 166.364 146.268C166.539 146.443 166.639 146.694 166.564 146.945C166.514 147.196 166.313 147.396 166.063 147.471C160.572 149.026 155.657 152.511 152.298 157.124C159.443 155.294 166.364 152.636 172.883 149.176C174.512 148.324 176.769 147.12 178.95 147.847C180.881 148.474 182.034 150.43 182.761 151.709L187.375 159.582C187.851 160.409 189.356 162.967 187.977 164.797C187.525 165.399 186.873 165.75 186.297 166.051C185.896 166.251 185.52 166.452 185.244 166.728C184.717 167.204 184.567 167.856 184.717 168.608C185.018 169.987 186.322 171.416 187.751 171.868C188.854 172.244 190.033 172.344 191.261 172.494C192.841 172.67 194.496 172.845 196 173.572C197.755 174.425 199.009 176.556 198.934 178.537C198.883 179.565 198.482 180.392 197.78 180.944C198.833 182.198 200.563 182.975 202.469 183H202.519C204.7 183 206.631 182.022 207.634 180.443C207.935 179.941 208.211 179.389 208.486 178.788C209.239 177.183 210.091 175.378 211.997 174.926C212.273 174.851 212.523 174.826 212.799 174.826C213.652 174.826 214.429 175.152 215.106 175.679C215.783 174.901 216.259 173.924 216.761 172.921C217.237 171.943 217.738 170.94 218.441 170.062"/>
</mask>
<path d="M220.221 168.107L221.575 169.578L221.584 169.57L220.221 168.107ZM222.803 163.744L224.786 163.481L224.784 163.468L224.782 163.454L222.803 163.744ZM220.797 161.588L220.358 163.539L220.369 163.541L220.797 161.588ZM218.09 162.716L219.754 163.825L219.769 163.803L219.783 163.78L218.09 162.716ZM217.563 162.791L218.977 161.377L218.932 161.331L218.883 161.289L217.563 162.791ZM216.61 159.732L218.608 159.641L218.608 159.629L218.607 159.617L216.61 159.732ZM215.683 157.4L216.182 155.464L216.175 155.462L216.168 155.46L215.683 157.4ZM214.655 157.45L214.39 155.468L214.358 155.472L214.326 155.478L214.655 157.45ZM214.178 157.526L214.444 159.508L214.476 159.504L214.507 159.498L214.178 157.526ZM209.439 154.743L207.686 155.704L207.691 155.714L209.439 154.743ZM208.161 149.753L210.149 149.539L209.922 147.432L207.832 147.78L208.161 149.753ZM205.528 149.377L206.679 147.741L206.658 147.727L206.637 147.713L205.528 149.377ZM204.876 148.299L206.864 148.078L206.861 148.052L206.857 148.025L204.876 148.299ZM205.603 146.443L207.194 147.655L207.218 147.623L207.242 147.59L205.603 146.443ZM206.054 145.741L204.261 144.855L204.243 144.892L204.227 144.929L206.054 145.741ZM202.995 140.551L201.878 142.21L201.886 142.215L202.995 140.551ZM199.886 134.408L198.152 133.413L198.149 133.418L199.886 134.408ZM204.976 132.553V130.553H204.949L204.922 130.554L204.976 132.553ZM205.077 132.553V134.553H205.113L205.149 134.551L205.077 132.553ZM208.913 130.271L210.909 130.389L210.91 130.372L210.911 130.354L208.913 130.271ZM208.336 128.466L210.125 127.571L210.115 127.551L210.104 127.53L208.336 128.466ZM207.759 127.137L205.823 127.637L205.825 127.646L207.759 127.137ZM207.935 124.68L209.814 125.363L210.087 124.615L209.77 123.885L207.935 124.68ZM201.892 122.975L202.203 124.951L202.212 124.949L202.221 124.948L201.892 122.975ZM194.822 121.521L196.461 120.375L196.46 120.374L194.822 121.521ZM194.12 117.133L196.115 117.264L196.116 117.246L196.117 117.228L194.12 117.133ZM193.317 113.046L191.879 114.436L191.885 114.442L193.317 113.046ZM190.384 111.842L189.934 113.791L189.963 113.798L189.991 113.804L190.384 111.842ZM189.381 111.617L189.969 109.705L189.918 109.689L189.866 109.676L189.381 111.617ZM186.372 108.282L188.338 108.651L188.341 108.631L188.345 108.611L186.372 108.282ZM186.773 107.129L188.63 107.871L188.645 107.834L188.658 107.796L186.773 107.129ZM185.82 103.694L187.109 102.164L187.099 102.156L187.089 102.147L185.82 103.694ZM182.26 103.418L183.274 105.142L183.284 105.136L183.295 105.129L182.26 103.418ZM181.082 104.371L182.442 105.836L182.446 105.833L181.082 104.371ZM178.649 105.75L178.5 103.755L178.484 103.756L178.468 103.758L178.649 105.75ZM177.095 105.499L177.67 103.583L177.65 103.577L177.63 103.572L177.095 105.499ZM175.816 105.273L175.929 107.27L175.941 107.269L175.816 105.273ZM173.033 108.207L174.781 109.178L174.799 109.147L174.815 109.115L173.033 108.207ZM172.908 108.432L171.159 107.461L171.143 107.49L171.129 107.519L172.908 108.432ZM170.25 110.865L170.755 112.8L170.764 112.797L170.773 112.795L170.25 110.865ZM168.62 110.614L167.458 112.241L167.474 112.253L167.491 112.264L168.62 110.614ZM168.119 110.188L169.533 108.773L169.505 108.745L169.475 108.718L168.119 110.188ZM167.316 109.736V111.736H167.427L167.537 111.724L167.316 109.736ZM166.79 110.037L167.99 111.637L168.042 111.598L168.091 111.556L166.79 110.037ZM166.113 110.463L166.776 112.35L166.786 112.347L166.796 112.343L166.113 110.463ZM163.982 109.41L165.508 108.118L165.5 108.109L163.982 109.41ZM163.054 108.533L162.062 110.269L162.084 110.282L162.106 110.294L163.054 108.533ZM160.597 108.783L161.28 110.663L161.292 110.659L161.305 110.654L160.597 108.783ZM158.014 109.235L157.622 111.196L158.014 109.235ZM155.507 107.229L157.09 106.007L157.073 105.985L157.055 105.962L155.507 107.229ZM154.83 106.401L153.343 107.739L153.379 107.779L153.416 107.816L154.83 106.401ZM152.222 104.797L152.753 102.868L152.742 102.866L152.222 104.797ZM150.643 104.847L149.662 103.104L149.653 103.109L149.643 103.115L150.643 104.847ZM149.715 106.953L151.685 107.298L151.686 107.29L151.688 107.282L149.715 106.953ZM148.512 109.561L147.413 107.889L147.41 107.891L148.512 109.561ZM144.901 108.733L146.05 107.096L146.045 107.093L144.901 108.733ZM141.566 107.755L139.702 108.48L140.498 110.526L142.461 109.544L141.566 107.755ZM141.541 107.781V109.781H142.37L142.955 109.195L141.541 107.781ZM141.491 107.781V105.781H140.997L140.56 106.011L141.491 107.781ZM139.836 110.839L141.83 110.993L141.832 110.976L141.833 110.959L139.836 110.839ZM139.886 112.845L141.881 112.703L141.881 112.698L139.886 112.845ZM139.786 116.03L141.729 116.504L141.732 116.493L139.786 116.03ZM137.58 118.637L136.829 116.783L136.81 116.791L136.792 116.799L137.58 118.637ZM136 118.763L136.485 116.822L134 116.201V118.763H136ZM136 119.189H134V119.842L134.386 120.37L136 119.189ZM136.878 122.975L134.879 123.052L134.88 123.07L134.881 123.089L136.878 122.975ZM137.178 125.482L135.268 126.075L135.269 126.076L137.178 125.482ZM141.591 129.369L140.643 131.129L140.655 131.136L140.666 131.142L141.591 129.369ZM146.23 132.829L144.594 133.979L144.594 133.98L146.23 132.829ZM139.861 147.246L138.695 145.621L137.451 146.514L137.989 147.948L139.861 147.246ZM140.814 148.123L141.557 146.266L140.814 148.123ZM144.55 147.446L143.23 145.944L143.224 145.949L143.219 145.954L144.55 147.446ZM146.681 144.763L148.339 145.882L148.345 145.873L148.351 145.864L146.681 144.763ZM149.239 141.629L147.971 140.082L147.954 140.096L147.937 140.111L149.239 141.629ZM158.716 140.752L157.955 142.601L157.96 142.603L158.716 140.752ZM166.364 146.268L167.778 144.854L167.748 144.824L167.717 144.796L166.364 146.268ZM166.564 146.945L164.649 146.37L164.621 146.46L164.603 146.553L166.564 146.945ZM166.063 147.471L166.608 149.396L166.622 149.391L166.637 149.387L166.063 147.471ZM152.298 157.124L150.681 155.947L147.408 160.442L152.794 159.062L152.298 157.124ZM172.883 149.176L171.956 147.404L171.945 147.41L172.883 149.176ZM178.95 147.847L178.318 149.745L178.325 149.747L178.333 149.75L178.95 147.847ZM182.761 151.709L181.023 152.697L181.029 152.709L181.036 152.72L182.761 151.709ZM187.375 159.582L189.108 158.584L189.104 158.577L189.1 158.57L187.375 159.582ZM187.977 164.797L186.379 163.593L186.377 163.597L187.977 164.797ZM186.297 166.051L187.191 167.839L187.207 167.832L187.222 167.824L186.297 166.051ZM185.244 166.728L186.586 168.211L186.623 168.177L186.658 168.142L185.244 166.728ZM184.717 168.608L182.756 169L182.759 169.017L182.763 169.034L184.717 168.608ZM187.751 171.868L188.396 169.974L188.375 169.967L188.353 169.96L187.751 171.868ZM191.261 172.494L191.018 174.48L191.029 174.481L191.04 174.482L191.261 172.494ZM196 173.572L196.874 171.773L196.87 171.772L196 173.572ZM198.934 178.537L200.931 178.634L200.932 178.624L200.932 178.613L198.934 178.537ZM197.78 180.944L196.545 179.371L194.92 180.648L196.249 182.23L197.78 180.944ZM202.469 183L202.443 185L202.456 185H202.469V183ZM207.634 180.443L209.322 181.515L209.336 181.493L209.349 181.472L207.634 180.443ZM208.486 178.788L206.676 177.939L206.672 177.947L206.668 177.954L208.486 178.788ZM211.997 174.926L212.458 176.873L212.49 176.865L212.523 176.856L211.997 174.926ZM215.106 175.679L213.878 177.257L215.371 178.419L216.614 176.992L215.106 175.679ZM216.761 172.921L218.55 173.815L218.554 173.806L218.559 173.797L216.761 172.921ZM220.027 171.161C220.426 170.663 220.954 170.149 221.575 169.578L218.867 166.635C218.234 167.217 217.508 167.907 216.904 168.662L220.027 171.161ZM221.584 169.57C222.282 168.92 223.149 168.113 223.785 167.198C224.454 166.234 224.985 164.986 224.786 163.481L220.821 164.006C220.847 164.206 220.814 164.463 220.499 164.916C220.151 165.418 219.614 165.939 218.858 166.643L221.584 169.57ZM224.782 163.454C224.513 161.612 223.076 160.04 221.226 159.634L220.369 163.541C220.575 163.586 220.793 163.819 220.824 164.033L224.782 163.454ZM221.236 159.636C219.408 159.225 217.399 160.055 216.396 161.651L219.783 163.78C219.883 163.621 220.181 163.499 220.358 163.539L221.236 159.636ZM216.425 161.606C216.557 161.409 216.72 161.254 216.901 161.137C217.078 161.024 217.399 160.866 217.839 160.866V164.866C218.378 164.866 218.801 164.671 219.065 164.501C219.334 164.328 219.572 164.098 219.754 163.825L216.425 161.606ZM217.839 160.866C217.748 160.866 217.902 160.859 218.084 160.896C218.323 160.944 218.671 161.07 218.977 161.377L216.149 164.205C216.531 164.587 216.966 164.751 217.299 164.818C217.575 164.873 217.829 164.866 217.839 164.866V160.866ZM218.883 161.289C218.88 161.286 218.864 161.273 218.84 161.226C218.812 161.174 218.775 161.084 218.74 160.936C218.662 160.613 218.634 160.214 218.608 159.641L214.612 159.823C214.636 160.353 214.671 161.121 214.85 161.869C215.035 162.641 215.412 163.563 216.243 164.293L218.883 161.289ZM218.607 159.617C218.574 159.04 218.533 158.231 218.316 157.547C218.195 157.166 217.988 156.71 217.608 156.303C217.209 155.874 216.714 155.601 216.182 155.464L215.183 159.337C215.04 159.3 214.845 159.205 214.681 159.029C214.537 158.874 214.499 158.744 214.503 158.758C214.51 158.777 214.532 158.863 214.555 159.07C214.578 159.273 214.595 159.518 214.614 159.847L218.607 159.617ZM216.168 155.46C215.7 155.343 215.28 155.363 215.016 155.387C214.793 155.407 214.468 155.458 214.39 155.468L214.919 159.433C214.977 159.425 215.033 159.417 215.082 159.41C215.135 159.402 215.172 159.397 215.214 159.391C215.296 159.379 215.344 159.373 215.378 159.37C215.411 159.367 215.407 159.369 215.38 159.368C215.352 159.367 215.287 159.363 215.197 159.341L216.168 155.46ZM214.326 155.478C214.265 155.488 214.196 155.498 214.112 155.511C214.034 155.523 213.939 155.538 213.849 155.553L214.507 159.498C214.568 159.488 214.636 159.478 214.72 159.465C214.799 159.453 214.893 159.438 214.983 159.423L214.326 155.478ZM213.912 155.543C213 155.666 211.855 154.973 211.188 153.771L207.691 155.714C208.778 157.671 211.244 159.937 214.444 159.508L213.912 155.543ZM211.193 153.781C210.553 152.614 210.326 151.177 210.149 149.539L206.172 149.967C206.347 151.588 206.62 153.762 207.686 155.704L211.193 153.781ZM207.832 147.78C207.529 147.831 207.231 147.841 206.989 147.813C206.735 147.784 206.657 147.726 206.679 147.741L204.377 151.012C205.706 151.948 207.418 151.904 208.489 151.726L207.832 147.78ZM206.637 147.713C206.684 147.744 206.743 147.799 206.792 147.88C206.84 147.96 206.859 148.033 206.864 148.078L202.888 148.52C203.002 149.547 203.542 150.456 204.418 151.041L206.637 147.713ZM206.857 148.025C206.874 148.146 206.833 148.208 206.862 148.146C206.879 148.109 206.911 148.051 206.969 147.965C207.028 147.877 207.099 147.781 207.194 147.655L204.012 145.231C203.674 145.675 202.666 146.914 202.895 148.572L206.857 148.025ZM207.242 147.59C207.318 147.481 207.679 147.011 207.882 146.554L204.227 144.929C204.247 144.884 204.253 144.884 204.2 144.963C204.175 144.999 204.146 145.041 204.105 145.099C204.068 145.151 204.015 145.225 203.965 145.296L207.242 147.59ZM207.847 146.627C208.904 144.49 207.85 142.533 206.964 141.421C206.034 140.253 204.802 139.351 204.105 138.887L201.886 142.215C202.468 142.603 203.292 143.231 203.835 143.913C204.102 144.249 204.225 144.503 204.267 144.663C204.297 144.778 204.283 144.811 204.261 144.855L207.847 146.627ZM204.113 138.893C203.098 138.209 202.269 137.408 201.831 136.677C201.414 135.983 201.488 135.637 201.624 135.398L198.149 133.418C197.056 135.336 197.531 137.284 198.4 138.734C199.247 140.146 200.586 141.339 201.878 142.21L204.113 138.893ZM201.621 135.403C201.749 135.181 201.998 134.959 202.625 134.793C203.287 134.617 204.088 134.578 205.031 134.552L204.922 130.554C204.034 130.578 202.779 130.614 201.599 130.927C200.382 131.25 199.002 131.931 198.152 133.413L201.621 135.403ZM204.976 134.553H205.077V130.553H204.976V134.553ZM205.149 134.551C205.998 134.521 207.212 134.348 208.3 133.854C209.368 133.37 210.795 132.324 210.909 130.389L206.916 130.154C206.917 130.136 206.923 130.102 206.94 130.064C206.955 130.028 206.97 130.011 206.967 130.014C206.953 130.03 206.869 130.111 206.648 130.211C206.189 130.419 205.534 130.535 205.004 130.554L205.149 134.551ZM210.911 130.354C210.962 129.136 210.361 128.044 210.125 127.571L206.547 129.36C206.708 129.682 206.804 129.879 206.868 130.054C206.927 130.218 206.912 130.244 206.914 130.188L210.911 130.354ZM210.104 127.53C209.861 127.072 209.751 126.845 209.694 126.628L205.825 127.646C206.019 128.381 206.36 129.007 206.568 129.402L210.104 127.53ZM209.696 126.637C209.615 126.322 209.624 125.886 209.814 125.363L206.055 123.996C205.644 125.128 205.503 126.397 205.823 127.637L209.696 126.637ZM209.77 123.885C208.866 121.799 206.847 121.12 205.4 120.908C203.901 120.689 202.399 120.863 201.563 121.002L202.221 124.948C202.89 124.836 203.92 124.734 204.822 124.866C205.776 125.006 206.026 125.304 206.1 125.475L209.77 123.885ZM201.582 120.999C200.674 121.142 199.541 121.317 198.468 121.232C197.386 121.146 196.78 120.831 196.461 120.375L193.182 122.666C194.493 124.542 196.545 125.092 198.152 125.219C199.768 125.347 201.356 125.084 202.203 124.951L201.582 120.999ZM196.46 120.374C196.05 119.788 196.006 118.925 196.115 117.264L192.124 117.002C192.032 118.399 191.838 120.746 193.183 122.668L196.46 120.374ZM196.117 117.228C196.152 116.5 196.212 115.533 196.098 114.624C195.977 113.663 195.644 112.567 194.749 111.65L191.885 114.442C191.968 114.527 192.074 114.685 192.129 115.122C192.19 115.611 192.162 116.186 192.122 117.038L196.117 117.228ZM194.755 111.656C193.518 110.376 191.764 110.079 190.776 109.881L189.991 113.804C191.26 114.057 191.662 114.211 191.879 114.436L194.755 111.656ZM190.833 109.894C190.256 109.76 190.227 109.785 189.969 109.705L188.793 113.528C189.186 113.649 189.86 113.774 189.934 113.791L190.833 109.894ZM189.866 109.676C189.302 109.535 188.818 109.259 188.542 108.981C188.412 108.85 188.362 108.753 188.345 108.709C188.333 108.679 188.334 108.669 188.338 108.651L184.406 107.913C184.101 109.542 184.811 110.901 185.706 111.802C186.583 112.684 187.755 113.272 188.896 113.557L189.866 109.676ZM188.345 108.611C188.355 108.552 188.373 108.489 188.48 108.222L184.766 106.737C184.672 106.972 184.49 107.411 184.399 107.953L188.345 108.611ZM188.48 108.222C188.489 108.2 188.499 108.176 188.526 108.116C188.549 108.063 188.589 107.974 188.63 107.871L184.916 106.386C184.907 106.409 184.897 106.432 184.87 106.492C184.847 106.545 184.807 106.634 184.766 106.737L188.48 108.222ZM188.658 107.796C189.375 105.774 188.671 103.48 187.109 102.164L184.532 105.223C184.875 105.512 185.024 106.076 184.888 106.461L188.658 107.796ZM187.089 102.147C185.475 100.823 183.049 100.603 181.225 101.706L183.295 105.129C183.627 104.928 184.21 104.96 184.552 105.24L187.089 102.147ZM181.246 101.694C180.596 102.076 180.061 102.588 179.717 102.908L182.446 105.833C182.855 105.451 183.071 105.261 183.274 105.142L181.246 101.694ZM179.721 102.905C179.358 103.242 179.122 103.449 178.897 103.594C178.701 103.72 178.585 103.749 178.5 103.755L178.799 107.744C180.6 107.609 181.813 106.421 182.442 105.836L179.721 102.905ZM178.468 103.758C178.431 103.761 178.364 103.761 178.236 103.736C178.093 103.708 177.936 103.663 177.67 103.583L176.52 107.415C176.969 107.549 177.835 107.832 178.831 107.741L178.468 103.758ZM177.63 103.572C177.297 103.479 176.503 103.226 175.691 103.277L175.941 107.269C175.898 107.272 175.913 107.264 176.033 107.289C176.164 107.315 176.305 107.355 176.56 107.426L177.63 103.572ZM175.703 103.276C174.219 103.36 173.221 104.265 172.617 105.023C172.021 105.769 171.567 106.679 171.251 107.299L174.815 109.115C175.176 108.406 175.449 107.886 175.744 107.517C176.029 107.159 176.084 107.261 175.929 107.27L175.703 103.276ZM171.285 107.236L171.159 107.461L174.656 109.404L174.781 109.178L171.285 107.236ZM171.129 107.519C170.978 107.812 170.735 108.164 170.442 108.455C170.142 108.754 169.888 108.891 169.727 108.934L170.773 112.795C171.816 112.512 172.653 111.897 173.261 111.293C173.877 110.681 174.361 109.98 174.687 109.346L171.129 107.519ZM169.745 108.929C169.693 108.943 169.676 108.937 169.69 108.939C169.696 108.94 169.706 108.943 169.719 108.947C169.732 108.952 169.742 108.958 169.75 108.963L167.491 112.264C168.506 112.959 169.693 113.077 170.755 112.8L169.745 108.929ZM169.783 108.986C169.703 108.929 169.611 108.851 169.533 108.773L166.705 111.602C166.928 111.825 167.187 112.048 167.458 112.241L169.783 108.986ZM169.475 108.718C169.289 108.546 169.02 108.31 168.703 108.121C168.387 107.933 167.819 107.668 167.096 107.748L167.537 111.724C167.04 111.779 166.709 111.589 166.657 111.558C166.62 111.536 166.612 111.527 166.637 111.547C166.661 111.567 166.701 111.601 166.762 111.657L169.475 108.718ZM167.316 107.736C166.667 107.736 166.19 108.008 165.972 108.148C165.746 108.293 165.55 108.465 165.488 108.519L168.091 111.556C168.14 111.514 168.159 111.498 168.174 111.486C168.188 111.475 168.172 111.489 168.135 111.513C168.099 111.536 168.014 111.587 167.887 111.635C167.757 111.684 167.561 111.736 167.316 111.736V107.736ZM165.59 108.437C165.555 108.463 165.522 108.488 165.495 108.509C165.466 108.532 165.447 108.547 165.425 108.563C165.383 108.595 165.362 108.61 165.349 108.62C165.325 108.635 165.359 108.609 165.429 108.584L166.796 112.343C167.429 112.113 167.938 111.676 167.99 111.637L165.59 108.437ZM165.45 108.576C165.522 108.551 165.645 108.531 165.787 108.554C165.85 108.564 165.9 108.58 165.934 108.594C165.951 108.601 165.963 108.607 165.972 108.612C165.98 108.616 165.984 108.619 165.984 108.619C165.984 108.619 165.98 108.616 165.973 108.611C165.966 108.606 165.956 108.598 165.943 108.587C165.917 108.565 165.882 108.533 165.838 108.489C165.745 108.395 165.645 108.28 165.508 108.118L162.455 110.702C162.705 110.998 163.188 111.579 163.829 111.988C164.576 112.466 165.61 112.76 166.776 112.35L165.45 108.576ZM165.5 108.109C165.283 107.855 164.727 107.162 164.002 106.772L162.106 110.294C162.058 110.268 162.037 110.25 162.044 110.255C162.051 110.261 162.073 110.28 162.113 110.32C162.202 110.409 162.302 110.524 162.463 110.712L165.5 108.109ZM164.046 106.796C163.164 106.292 162.27 106.288 161.579 106.404C160.94 106.511 160.315 106.752 159.889 106.913L161.305 110.654C161.54 110.565 161.724 110.496 161.893 110.442C162.059 110.387 162.169 110.361 162.241 110.348C162.371 110.327 162.242 110.372 162.062 110.269L164.046 106.796ZM159.913 106.904C158.956 107.252 158.634 107.319 158.406 107.274L157.622 111.196C159.15 111.501 160.583 110.917 161.28 110.663L159.913 106.904ZM158.406 107.274C158.294 107.251 158.152 107.192 157.934 106.994C157.687 106.77 157.448 106.47 157.09 106.007L153.923 108.45C154.507 109.207 155.64 110.8 157.622 111.196L158.406 107.274ZM157.055 105.962C157.007 105.904 156.577 105.321 156.244 104.987L153.416 107.816C153.584 107.984 153.555 108.002 153.959 108.495L157.055 105.962ZM156.317 105.064C155.383 104.026 154.123 103.245 152.753 102.868L151.692 106.725C152.327 106.9 152.923 107.272 153.343 107.739L156.317 105.064ZM152.742 102.866C151.9 102.639 150.741 102.497 149.662 103.104L151.623 106.59C151.558 106.627 151.498 106.648 151.452 106.66C151.407 106.671 151.383 106.671 151.386 106.671C151.39 106.671 151.417 106.671 151.473 106.679C151.528 106.686 151.603 106.701 151.702 106.728L152.742 102.866ZM149.643 103.115C148.763 103.623 148.333 104.402 148.108 105.027C147.903 105.6 147.807 106.235 147.742 106.624L151.688 107.282C151.728 107.042 151.757 106.863 151.791 106.697C151.824 106.535 151.852 106.437 151.873 106.378C151.894 106.321 151.895 106.338 151.858 106.389C151.814 106.449 151.741 106.522 151.642 106.579L149.643 103.115ZM147.745 106.608C147.645 107.178 147.593 107.475 147.502 107.719C147.465 107.818 147.437 107.861 147.427 107.876C147.42 107.885 147.419 107.885 147.413 107.889L149.61 111.232C151.348 110.09 151.555 108.04 151.685 107.298L147.745 106.608ZM147.41 107.891C147.357 107.926 147.367 107.908 147.415 107.904C147.451 107.901 147.434 107.913 147.331 107.877C147.22 107.839 147.06 107.763 146.83 107.622C146.597 107.48 146.355 107.31 146.05 107.096L143.752 110.37C144.279 110.74 145.108 111.341 146.025 111.658C147.092 112.026 148.371 112.05 149.613 111.23L147.41 107.891ZM146.045 107.093C145.658 106.823 145.13 106.45 144.575 106.158C144.017 105.864 143.256 105.555 142.369 105.555V109.555C142.334 109.555 142.425 109.546 142.713 109.698C143.004 109.851 143.316 110.067 143.757 110.374L146.045 107.093ZM142.369 105.555H142.344V109.555H142.369V105.555ZM142.344 105.555C141.68 105.555 141.121 105.742 140.672 105.967L142.461 109.544C142.491 109.529 142.49 109.533 142.464 109.54C142.434 109.548 142.392 109.555 142.344 109.555V105.555ZM141.566 107.755C143.43 107.03 142.395 105.935 140.889 105.874C140.781 105.916 140.575 106.019 140.477 106.078C140.382 106.14 140.312 106.197 140.302 106.206C140.26 106.24 140.228 106.269 140.223 106.274C140.204 106.291 140.189 106.305 140.186 106.308C140.177 106.317 140.17 106.324 140.168 106.325C140.164 106.33 140.16 106.333 140.16 106.334C140.157 106.336 140.155 106.338 140.155 106.338C140.153 106.34 140.152 106.342 140.15 106.343C140.146 106.347 140.14 106.354 140.127 106.366L142.955 109.195C142.968 109.182 142.974 109.176 142.976 109.174C142.978 109.172 142.978 109.173 142.977 109.173C142.977 109.173 142.975 109.175 142.973 109.177C142.972 109.178 142.969 109.181 142.964 109.186C142.963 109.187 142.956 109.194 142.946 109.203C142.944 109.205 142.929 109.22 142.909 109.237C142.904 109.242 142.873 109.271 142.831 109.305C142.82 109.313 142.751 109.371 142.655 109.433C142.558 109.492 142.352 109.595 142.244 109.637C140.738 109.576 139.702 108.48 141.566 107.755ZM141.541 105.781H141.491V109.781H141.541V105.781ZM140.56 106.011C139.623 106.504 138.975 107.312 138.562 108.101C138.143 108.903 137.894 109.818 137.84 110.72L141.833 110.959C141.854 110.607 141.956 110.244 142.107 109.955C142.265 109.653 142.406 109.559 142.423 109.55L140.56 106.011ZM137.842 110.686C137.778 111.515 137.844 112.346 137.892 112.993L141.881 112.698C141.829 111.991 141.794 111.468 141.83 110.993L137.842 110.686ZM137.891 112.988C137.97 114.09 138.008 114.861 137.84 115.566L141.732 116.493C142.065 115.092 141.953 113.707 141.881 112.703L137.891 112.988ZM137.843 115.555C137.711 116.096 137.251 116.613 136.829 116.783L138.33 120.491C140.014 119.809 141.31 118.219 141.729 116.504L137.843 115.555ZM136.792 116.799C136.691 116.842 136.589 116.848 136.485 116.822L135.515 120.703C136.414 120.928 137.415 120.884 138.367 120.475L136.792 116.799ZM134 118.763V119.189H138V118.763H134ZM134.386 120.37C134.713 120.817 134.823 121.606 134.879 123.052L138.876 122.898C138.831 121.736 138.791 119.617 137.614 118.008L134.386 120.37ZM134.881 123.089C134.923 123.828 134.951 125.051 135.268 126.075L139.089 124.889C138.955 124.459 138.932 123.877 138.874 122.861L134.881 123.089ZM135.269 126.076C135.721 127.531 136.667 128.553 137.645 129.309C138.589 130.039 139.713 130.629 140.643 131.129L142.54 127.608C141.514 127.055 140.719 126.63 140.091 126.144C139.496 125.684 139.213 125.289 139.088 124.889L135.269 126.076ZM140.666 131.142C142.466 132.081 143.789 132.835 144.594 133.979L147.866 131.678C146.414 129.613 144.177 128.462 142.516 127.595L140.666 131.142ZM144.594 133.98C145.848 135.761 145.491 138.486 144.191 140.532L147.567 142.677C149.326 139.908 150.423 135.312 147.865 131.678L144.594 133.98ZM144.191 140.532C142.902 142.561 140.875 144.057 138.695 145.621L141.027 148.871C143.11 147.376 145.797 145.462 147.567 142.677L144.191 140.532ZM137.989 147.948C138.387 149.01 139.198 149.631 140.071 149.98L141.557 146.266C141.467 146.23 141.493 146.226 141.56 146.288C141.594 146.319 141.631 146.361 141.665 146.411C141.698 146.461 141.72 146.507 141.734 146.543L137.989 147.948ZM140.071 149.98C141.065 150.378 142.163 150.404 143.113 150.232C144.064 150.061 145.082 149.651 145.881 148.939L143.219 145.954C143.09 146.068 142.804 146.223 142.402 146.296C141.997 146.369 141.691 146.32 141.557 146.266L140.071 149.98ZM145.87 148.949C146.931 148.016 147.707 146.819 148.339 145.882L145.023 143.644C144.302 144.714 143.823 145.422 143.23 145.944L145.87 148.949ZM148.351 145.864C149.08 144.758 149.724 143.848 150.54 143.148L147.937 140.111C146.648 141.216 145.736 142.563 145.011 143.663L148.351 145.864ZM150.506 143.176C152.168 141.815 155.06 141.409 157.955 142.601L159.478 138.902C155.552 137.286 151.023 137.582 147.971 140.082L150.506 143.176ZM157.96 142.603C160.578 143.672 162.774 145.684 165.01 147.74L167.717 144.796C165.59 142.839 162.872 140.288 159.472 138.9L157.96 142.603ZM164.949 147.682C164.759 147.492 164.456 147.011 164.649 146.37L168.48 147.519C168.823 146.377 168.319 145.395 167.778 144.854L164.949 147.682ZM164.603 146.553C164.715 145.991 165.121 145.666 165.488 145.556L166.637 149.387C167.506 149.126 168.313 148.401 168.525 147.337L164.603 146.553ZM165.518 145.547C159.584 147.227 154.297 150.982 150.681 155.947L153.914 158.302C157.018 154.04 161.559 150.825 166.608 149.396L165.518 145.547ZM152.794 159.062C160.09 157.193 167.158 154.479 173.82 150.943L171.945 147.41C165.569 150.794 158.797 153.395 151.801 155.187L152.794 159.062ZM173.81 150.948C174.656 150.506 175.461 150.086 176.292 149.833C177.102 149.586 177.759 149.558 178.318 149.745L179.583 145.95C177.961 145.409 176.398 145.62 175.128 146.006C173.877 146.387 172.739 146.994 171.956 147.404L173.81 150.948ZM178.333 149.75C178.824 149.909 179.304 150.267 179.786 150.832C180.271 151.4 180.66 152.059 181.023 152.697L184.5 150.72C184.136 150.08 183.585 149.122 182.828 148.235C182.069 147.346 181.008 146.413 179.568 145.945L178.333 149.75ZM181.036 152.72L185.649 160.593L189.1 158.57L184.487 150.698L181.036 152.72ZM185.642 160.58C185.889 161.009 186.255 161.647 186.441 162.336C186.63 163.033 186.535 163.387 186.379 163.593L189.574 166C190.798 164.376 190.64 162.537 190.302 161.29C189.962 160.036 189.337 158.982 189.108 158.584L185.642 160.58ZM186.377 163.597C186.317 163.676 186.22 163.772 186.05 163.889C185.87 164.012 185.663 164.125 185.372 164.277L187.222 167.824C187.763 167.541 188.817 167.01 189.577 165.997L186.377 163.597ZM185.402 164.262C185.028 164.449 184.366 164.777 183.829 165.313L186.658 168.142C186.649 168.15 186.673 168.124 186.77 168.065C186.869 168.004 186.997 167.937 187.191 167.839L185.402 164.262ZM183.902 165.244C182.729 166.306 182.504 167.74 182.756 169L186.678 168.216C186.649 168.07 186.67 168.038 186.659 168.081C186.653 168.103 186.641 168.133 186.623 168.162C186.605 168.192 186.589 168.208 186.586 168.211L183.902 165.244ZM182.763 169.034C183.005 170.144 183.614 171.156 184.343 171.944C185.075 172.735 186.043 173.426 187.149 173.775L188.353 169.96C188.03 169.858 187.632 169.609 187.279 169.227C186.923 168.843 186.73 168.451 186.671 168.182L182.763 169.034ZM187.106 173.761C188.458 174.222 189.908 174.344 191.018 174.48L191.504 170.509C190.158 170.344 189.25 170.266 188.396 169.974L187.106 173.761ZM191.04 174.482C192.687 174.665 193.987 174.821 195.13 175.373L196.87 171.772C195.004 170.87 192.995 170.675 191.482 170.507L191.04 174.482ZM195.126 175.371C196.147 175.867 196.981 177.25 196.935 178.461L200.932 178.613C201.037 175.863 199.363 172.983 196.874 171.773L195.126 175.371ZM196.936 178.44C196.91 178.975 196.727 179.228 196.545 179.371L199.016 182.517C200.238 181.556 200.857 180.154 200.931 178.634L196.936 178.44ZM196.249 182.23C197.725 183.988 200.037 184.968 202.443 185L202.495 181C201.09 180.982 199.941 180.407 199.312 179.658L196.249 182.23ZM202.469 185H202.519V181H202.469V185ZM202.519 185C205.267 185 207.894 183.765 209.322 181.515L205.946 179.371C205.369 180.279 204.134 181 202.519 181V185ZM209.349 181.472C209.703 180.882 210.013 180.256 210.305 179.621L206.668 177.954C206.408 178.523 206.167 179.001 205.919 179.414L209.349 181.472ZM210.297 179.637C210.69 178.798 211.005 178.15 211.394 177.645C211.748 177.185 212.076 176.963 212.458 176.873L211.536 172.98C210.012 173.341 208.961 174.248 208.224 175.204C207.523 176.116 207.035 177.173 206.676 177.939L210.297 179.637ZM212.523 176.856C212.591 176.837 212.66 176.826 212.799 176.826V172.826C212.387 172.826 211.954 172.865 211.471 172.997L212.523 176.856ZM212.799 176.826C213.114 176.826 213.471 176.941 213.878 177.257L216.334 174.1C215.386 173.363 214.189 172.826 212.799 172.826V176.826ZM216.614 176.992C217.493 175.983 218.083 174.748 218.55 173.815L214.972 172.026C214.435 173.099 214.073 173.819 213.598 174.365L216.614 176.992ZM218.559 173.797C219.042 172.805 219.457 171.993 220.002 171.312L216.879 168.813C216.02 169.887 215.432 171.081 214.963 172.045L218.559 173.797Z" fill="white" mask="url(#path-4-inside-1_639_319)"/>
</g>
<defs>
<filter id="filter0_d_639_319" x="0" y="0" width="361" height="357" filterUnits="userSpaceOnUse" color-interpolation-filters="sRGB">
<feFlood flood-opacity="0" result="BackgroundImageFix"/>
<feColorMatrix in="SourceAlpha" type="matrix" values="0 0 0 0 0 0 0 0 0 0 0 0 0 0 0 0 0 0 127 0" result="hardAlpha"/>
<feOffset dx="2" dy="2"/>
<feGaussianBlur stdDeviation="2"/>
<feComposite in2="hardAlpha" operator="out"/>
<feColorMatrix type="matrix" values="0 0 0 0 0 0 0 0 0 0 0 0 0 0 0 0 0 0 0.25 0"/>
<feBlend mode="normal" in2="BackgroundImageFix" result="effect1_dropShadow_639_319"/>
<feBlend mode="normal" in="SourceGraphic" in2="effect1_dropShadow_639_319" result="shape"/>
</filter>
<linearGradient id="paint0_linear_639_319" x1="144.488" y1="202.766" x2="213.512" y2="83.2345" gradientUnits="userSpaceOnUse">
<stop stop-color="#0460A9"/>
<stop offset="1" stop-color="#50E2D0"/>
</linearGradient>
</defs>
</svg>
