<svg width="361" height="357" viewBox="0 0 361 357" fill="none" xmlns="http://www.w3.org/2000/svg">
<g filter="url(#filter0_d_639_315)">
<rect x="2" y="2" width="353" height="349" rx="19.0804" fill="white"/>
<path d="M49.14 273V248.738H57.2162L60.1684 259.359C60.6096 260.886 61.5597 264.89 61.5597 264.89H61.6276C61.6276 264.89 62.5777 260.886 62.9849 259.359L65.9711 248.738H74.1151V273H68.6179V260.784C68.6179 259.8 68.7197 255.931 68.7197 255.931H68.6518C68.6518 255.931 67.8035 259.562 67.532 260.445L64.0368 273H59.0825L55.6213 260.479C55.3498 259.596 54.5015 255.931 54.5015 255.931H54.4336C54.4336 255.931 54.5354 259.834 54.5354 260.818V273H49.14ZM83.9892 269.912C86.0592 269.912 87.4844 268.657 87.4844 266.79V264.72C86.7718 265.093 85.7538 265.365 84.634 265.636C82.4962 266.111 81.6139 266.654 81.6139 267.978C81.6139 269.369 82.6319 269.912 83.9892 269.912ZM82.2247 273.441C78.7635 273.441 76.2863 271.575 76.2863 268.148C76.2863 264.313 79.3403 263.159 82.9373 262.684C86.1949 262.277 87.3487 261.938 87.3487 260.75C87.3487 259.63 86.6361 258.884 84.9733 258.884C83.2088 258.884 82.3265 259.664 82.1568 261.123H77.0668C77.2025 257.9 79.6797 255.151 84.9394 255.151C87.5523 255.151 89.3168 255.626 90.5723 256.576C92.0654 257.662 92.778 259.359 92.778 261.53V270.285C92.778 271.677 92.9138 272.457 93.3888 272.762V273H88.0273C87.7559 272.627 87.5862 271.948 87.4505 271.066H87.3826C86.3646 272.525 84.8376 273.441 82.2247 273.441ZM104.554 269.267C106.657 269.267 107.947 267.469 107.947 264.517C107.947 261.53 106.827 259.562 104.452 259.562C102.042 259.562 100.821 261.7 100.821 264.517C100.821 267.333 102.178 269.267 104.554 269.267ZM95.4593 278.735V255.626H100.753V257.73H100.855C102.042 256.169 103.739 255.117 106.114 255.117C110.729 255.117 113.546 259.087 113.546 264.313C113.546 269.946 110.526 273.543 105.979 273.543C103.739 273.543 102.144 272.661 101.058 271.202H100.99V278.735H95.4593ZM124.503 269.267C126.607 269.267 127.896 267.469 127.896 264.517C127.896 261.53 126.776 259.562 124.401 259.562C121.992 259.562 120.77 261.7 120.77 264.517C120.77 267.333 122.127 269.267 124.503 269.267ZM115.409 278.735V255.626H120.702V257.73H120.804C121.992 256.169 123.688 255.117 126.064 255.117C130.679 255.117 133.495 259.087 133.495 264.313C133.495 269.946 130.475 273.543 125.928 273.543C123.688 273.543 122.093 272.661 121.008 271.202H120.94V278.735H115.409ZM142.246 269.912C144.316 269.912 145.741 268.657 145.741 266.79V264.72C145.029 265.093 144.011 265.365 142.891 265.636C140.753 266.111 139.871 266.654 139.871 267.978C139.871 269.369 140.889 269.912 142.246 269.912ZM140.482 273.441C137.02 273.441 134.543 271.575 134.543 268.148C134.543 264.313 137.597 263.159 141.194 262.684C144.452 262.277 145.606 261.938 145.606 260.75C145.606 259.63 144.893 258.884 143.23 258.884C141.466 258.884 140.584 259.664 140.414 261.123H135.324C135.46 257.9 137.937 255.151 143.196 255.151C145.809 255.151 147.574 255.626 148.829 256.576C150.322 257.662 151.035 259.359 151.035 261.53V270.285C151.035 271.677 151.171 272.457 151.646 272.762V273H146.284C146.013 272.627 145.843 271.948 145.707 271.066H145.64C144.622 272.525 143.095 273.441 140.482 273.441ZM165.331 259.461H169.844C172.219 259.461 173.441 258.341 173.441 256.508C173.441 254.744 172.287 253.488 169.98 253.488H165.331V259.461ZM159.325 273V248.738H170.93C175.748 248.738 179.413 251.215 179.413 255.728C179.413 258.544 178.022 260.614 175.206 261.598V261.7C177.309 262.413 178.395 263.736 178.735 266.145C179.244 269.335 178.904 272.389 179.753 272.695V273H173.916C173.271 272.627 173.373 269.776 173 267.367C172.694 265.127 171.541 263.906 168.962 263.906H165.331V273H159.325ZM190.069 273.509C184.334 273.509 180.805 269.539 180.805 264.279C180.805 259.087 184.436 255.117 189.73 255.117C192.207 255.117 194.175 255.931 195.668 257.289C197.738 259.189 198.756 262.209 198.722 265.738H186.234C186.574 268.08 187.863 269.539 190.137 269.539C191.596 269.539 192.546 268.894 193.021 267.808H198.417C198.043 269.369 197.025 270.862 195.498 271.914C194.039 272.932 192.275 273.509 190.069 273.509ZM186.268 262.447H193.123C192.919 260.377 191.63 259.053 189.831 259.053C187.728 259.053 186.642 260.377 186.268 262.447ZM208.616 267.944C211.025 267.944 212.145 266.044 212.145 263.6C212.145 261.259 210.924 259.291 208.616 259.291C206.546 259.291 205.189 260.988 205.189 263.634C205.189 266.247 206.546 267.944 208.616 267.944ZM208.65 279.006C203.865 279.006 200.71 277.038 200.167 273.407H205.528C205.834 274.323 206.75 275.104 208.582 275.104C210.924 275.104 211.908 273.882 211.908 271.778V270.048H211.772C210.754 271.202 209.43 272.05 207.327 272.05C203.424 272.05 199.793 269.132 199.793 263.804C199.793 258.714 202.779 255.117 207.089 255.117C209.397 255.117 210.957 256.033 211.975 257.492H212.043V255.626H217.337V271.303C217.337 273.916 216.421 275.816 215.03 277.072C213.502 278.429 211.229 279.006 208.65 279.006ZM222.775 248.229C224.506 248.229 225.829 249.45 225.829 251.181C225.829 252.911 224.506 254.133 222.775 254.133C221.045 254.133 219.721 252.911 219.721 251.181C219.721 249.45 221.045 248.229 222.775 248.229ZM219.993 273V255.626H225.524V273H219.993ZM236.695 273.543C231.13 273.543 227.397 269.573 227.397 264.347C227.397 259.121 231.13 255.151 236.695 255.151C242.294 255.151 245.959 259.121 245.959 264.347C245.959 269.573 242.294 273.543 236.695 273.543ZM236.661 269.607C239.071 269.607 240.36 267.503 240.36 264.347C240.36 261.191 239.071 259.053 236.661 259.053C234.252 259.053 232.997 261.191 232.997 264.347C232.997 267.503 234.252 269.607 236.661 269.607ZM247.829 273V255.626H253.157V258.001H253.258C254.548 256.135 256.211 255.117 258.62 255.117C262.42 255.117 264.66 257.832 264.66 261.7V273H259.129V262.82C259.129 260.988 258.213 259.732 256.414 259.732C254.582 259.732 253.36 261.259 253.36 263.397V273H247.829ZM274.07 269.912C276.14 269.912 277.565 268.657 277.565 266.79V264.72C276.853 265.093 275.835 265.365 274.715 265.636C272.577 266.111 271.695 266.654 271.695 267.978C271.695 269.369 272.713 269.912 274.07 269.912ZM272.306 273.441C268.844 273.441 266.367 271.575 266.367 268.148C266.367 264.313 269.421 263.159 273.018 262.684C276.276 262.277 277.43 261.938 277.43 260.75C277.43 259.63 276.717 258.884 275.054 258.884C273.29 258.884 272.407 259.664 272.238 261.123H267.148C267.283 257.9 269.761 255.151 275.02 255.151C277.633 255.151 279.398 255.626 280.653 256.576C282.146 257.662 282.859 259.359 282.859 261.53V270.285C282.859 271.677 282.995 272.457 283.47 272.762V273H278.108C277.837 272.627 277.667 271.948 277.531 271.066H277.464C276.446 272.525 274.919 273.441 272.306 273.441ZM285.574 273V248.738H291.173V273H285.574ZM302.341 273.509C296.607 273.509 293.077 269.539 293.077 264.279C293.077 259.087 296.708 255.117 302.002 255.117C304.479 255.117 306.447 255.931 307.94 257.289C310.01 259.189 311.028 262.209 310.994 265.738H298.507C298.846 268.08 300.136 269.539 302.409 269.539C303.868 269.539 304.818 268.894 305.294 267.808H310.689C310.316 269.369 309.298 270.862 307.771 271.914C306.312 272.932 304.547 273.509 302.341 273.509ZM298.541 262.447H305.395C305.192 260.377 303.902 259.053 302.104 259.053C300 259.053 298.914 260.377 298.541 262.447ZM157.215 314.577C150.768 314.577 146.526 311.726 146.39 306.365H152.43C152.702 308.808 154.297 309.826 157.181 309.826C159.149 309.826 161.083 309.114 161.083 307.281C161.083 305.347 159.115 304.94 155.79 304.125C151.582 303.141 147.137 301.852 147.137 296.762C147.137 291.57 151.345 289.296 156.774 289.296C162.034 289.296 166.106 291.672 166.343 296.762H160.473C160.235 294.895 158.81 293.843 156.57 293.843C154.466 293.843 153.075 294.76 153.075 296.117C153.075 297.814 154.942 298.221 158.572 299.035C163.086 300.087 167.158 301.479 167.158 306.67C167.158 311.76 162.814 314.577 157.215 314.577ZM179.617 314.577C173.169 314.577 168.927 311.726 168.792 306.365H174.832C175.103 308.808 176.698 309.826 179.583 309.826C181.551 309.826 183.485 309.114 183.485 307.281C183.485 305.347 181.517 304.94 178.191 304.125C173.984 303.141 169.538 301.852 169.538 296.762C169.538 291.57 173.746 289.296 179.175 289.296C184.435 289.296 188.507 291.672 188.745 296.762H182.874C182.637 294.895 181.211 293.843 178.972 293.843C176.868 293.843 175.477 294.76 175.477 296.117C175.477 297.814 177.343 298.221 180.974 299.035C185.487 300.087 189.559 301.479 189.559 306.67C189.559 311.76 185.216 314.577 179.617 314.577ZM198.022 300.461H202.535C204.91 300.461 206.132 299.341 206.132 297.508C206.132 295.744 204.978 294.488 202.671 294.488H198.022V300.461ZM192.016 314V289.738H203.621C208.439 289.738 212.104 292.215 212.104 296.728C212.104 299.544 210.713 301.614 207.896 302.598V302.7C210 303.413 211.086 304.736 211.426 307.145C211.935 310.335 211.595 313.389 212.444 313.695V314H206.607C205.962 313.627 206.064 310.776 205.691 308.367C205.385 306.127 204.232 304.906 201.653 304.906H198.022V314H192.016Z" fill="#002068"/>
<path d="M179 212C217.108 212 248 181.108 248 143C248 104.892 217.108 74 179 74C140.892 74 110 104.892 110 143C110 181.108 140.892 212 179 212Z" fill="url(#paint0_linear_639_315)"/>
<mask id="path-4-inside-1_639_315" fill="white">
<path d="M209.3 154.826C207.867 152.467 205.657 150.914 203.238 150.555C202.671 150.466 202.103 150.436 201.536 150.406C200.67 150.346 199.804 150.317 198.938 150.078C197.445 149.689 195.863 148.555 195.743 146.883C195.683 145.987 196.042 145.151 196.4 144.374C196.729 143.628 197.057 142.911 196.967 142.194C196.848 141.299 196.131 140.612 195.355 139.925C194.907 139.507 194.459 139.089 194.101 138.611C192.936 137.029 192.906 135.058 192.906 133.147C192.906 131.385 192.906 129.713 192.04 128.369C191.652 127.772 191.145 127.234 190.577 126.697C189.861 126.01 189.114 125.293 188.696 124.308C188.099 122.964 188.308 121.471 188.517 120.038C188.726 118.634 188.905 117.321 188.368 116.216C187.711 116.007 186.904 116.126 186.098 116.216C184.874 116.395 183.62 116.604 182.754 115.589C182.336 115.111 182.216 114.484 182.097 113.946C182.067 113.797 182.037 113.648 182.007 113.498C181.679 112.185 180.634 111.05 179.23 110.423C177.827 109.826 176.274 109.826 175.08 110.453C174.691 110.662 174.273 110.93 173.855 111.199C172.452 112.125 170.869 113.17 169.406 112.155C168.361 111.408 168.271 110.124 168.182 108.9C168.122 107.825 168.032 106.78 167.346 106.272C166.45 105.615 165.226 106.272 164.389 106.929C164.449 107.048 164.479 107.168 164.389 107.287C164.33 107.437 164.151 107.526 164.001 107.526C163.942 107.526 163.882 107.526 163.822 107.496C163.822 107.496 163.762 107.467 163.732 107.437C163.643 107.526 163.553 107.616 163.494 107.676C160.896 110.333 158.358 113.14 155.999 115.977C155.192 116.932 154.924 117.649 155.163 118.157C155.372 118.634 155.969 118.873 156.566 119.112C156.685 119.172 156.835 119.232 156.954 119.261C159.91 120.575 161.493 124.398 160.358 127.413C159.373 130.041 156.954 131.534 154.625 132.997C152.684 134.192 150.683 135.446 149.549 137.327C149.131 138.014 148.951 138.611 149.011 139.149C149.101 139.806 149.549 140.403 150.026 141L150.295 141.328C153.46 145.539 153.341 151.959 150.086 156.11C150.176 156.169 150.295 156.229 150.385 156.289C151.131 156.856 151.37 157.782 151.609 158.618C152.624 162.291 154.088 165.814 155.999 169.129C156.775 170.472 157.581 171.129 158.358 171.01C158.716 170.95 159.074 170.741 159.433 170.502C159.642 170.383 159.851 170.263 160.06 170.144C161.971 169.188 164.24 170.054 165.524 171.279C166.898 172.563 167.674 174.265 168.391 176.056C168.719 176.833 169.078 177.758 169.794 178.177C170.093 178.356 170.421 178.445 170.78 178.565C170.989 178.624 171.168 178.684 171.377 178.744C173.139 179.401 174.243 180.954 175.318 182.447C175.707 182.984 176.095 183.522 176.483 183.999C177.468 185.194 179.051 186 180.305 186C181.022 186 181.589 185.761 182.007 185.253C182.366 184.835 182.545 184.238 182.754 183.641C183.022 182.835 183.291 181.999 184.008 181.431C184.545 181.013 185.232 180.804 185.889 180.595C186.904 180.297 187.561 180.058 187.621 179.431C187.621 179.222 187.621 179.013 187.561 178.774C187.502 178.565 187.472 178.356 187.472 178.147C187.382 176.564 188.935 175.459 190.517 175.071C190.816 175.011 191.145 174.922 191.443 174.862C192.488 174.653 193.474 174.444 194.16 173.817C194.519 173.459 194.788 173.011 195.056 172.503C195.325 171.995 195.624 171.488 196.042 171.07C196.669 170.443 197.535 170.084 198.281 169.816L206.433 166.62C207.21 166.322 208.076 165.964 208.613 165.336C208.912 164.978 209.121 164.56 209.33 164.112C209.509 163.754 209.688 163.366 209.927 163.037C210.076 162.828 210.255 162.679 210.464 162.5C210.345 162.38 210.285 162.231 210.345 162.082C211.151 159.753 210.793 157.065 209.389 154.736"/>
</mask>
<path d="M203.238 150.555L202.926 152.531L202.936 152.532L202.945 152.534L203.238 150.555ZM201.536 150.406L201.398 152.401L201.415 152.403L201.431 152.403L201.536 150.406ZM198.938 150.078L199.47 148.15L199.456 148.146L199.441 148.142L198.938 150.078ZM195.743 146.883L193.748 147.016L193.748 147.025L195.743 146.883ZM196.4 144.374L198.216 145.212L198.223 145.196L198.231 145.18L196.4 144.374ZM196.967 142.194L198.952 141.946L198.951 141.938L198.95 141.93L196.967 142.194ZM195.355 139.925L193.99 141.387L194.01 141.405L194.03 141.423L195.355 139.925ZM194.101 138.611L192.49 139.797L192.495 139.804L192.501 139.811L194.101 138.611ZM192.04 128.369L193.722 127.286L193.717 127.279L192.04 128.369ZM190.577 126.697L189.193 128.141L189.202 128.149L190.577 126.697ZM188.696 124.308L190.537 123.527L190.531 123.511L190.524 123.496L188.696 124.308ZM188.517 120.038L186.539 119.743L186.538 119.749L188.517 120.038ZM188.368 116.216L190.166 115.341L189.791 114.57L188.974 114.31L188.368 116.216ZM186.098 116.216L185.877 114.228L185.843 114.232L185.809 114.237L186.098 116.216ZM182.754 115.589L184.275 114.291L184.267 114.281L184.259 114.272L182.754 115.589ZM182.097 113.946L180.136 114.339L180.14 114.359L180.144 114.38L182.097 113.946ZM182.007 113.498L183.968 113.106L183.959 113.059L183.947 113.013L182.007 113.498ZM179.23 110.423L180.046 108.597L180.03 108.589L180.013 108.582L179.23 110.423ZM175.08 110.453L174.15 108.682L174.141 108.687L174.131 108.692L175.08 110.453ZM173.855 111.199L172.774 109.517L172.764 109.523L172.754 109.53L173.855 111.199ZM169.406 112.155L168.244 113.782L168.255 113.79L168.266 113.798L169.406 112.155ZM168.182 108.9L166.185 109.011L166.186 109.028L166.187 109.046L168.182 108.9ZM167.346 106.272L168.534 104.664L168.528 104.659L167.346 106.272ZM164.389 106.929L163.154 105.356L161.871 106.364L162.601 107.823L164.389 106.929ZM164.389 107.287L162.789 106.087L162.631 106.299L162.532 106.545L164.389 107.287ZM163.822 107.496L164.717 105.708L164.716 105.707L163.822 107.496ZM163.732 107.437L165.147 106.022L163.732 104.608L162.318 106.022L163.732 107.437ZM163.494 107.676L162.079 106.261L162.071 106.269L162.063 106.278L163.494 107.676ZM155.999 115.977L157.527 117.267L157.532 117.261L157.536 117.256L155.999 115.977ZM155.163 118.157L156.995 117.355L156.984 117.33L156.972 117.305L155.163 118.157ZM156.566 119.112L157.46 117.323L157.386 117.286L157.309 117.255L156.566 119.112ZM156.954 119.261L157.766 117.434L157.608 117.363L157.439 117.321L156.954 119.261ZM160.358 127.413L158.486 126.709L158.486 126.711L160.358 127.413ZM154.625 132.997L155.673 134.701L155.681 134.696L155.689 134.691L154.625 132.997ZM149.549 137.327L151.257 138.367L151.261 138.36L149.549 137.327ZM149.011 139.149L147.023 139.37L147.026 139.394L147.03 139.419L149.011 139.149ZM150.026 141L148.465 142.249L148.472 142.258L148.479 142.266L150.026 141ZM150.295 141.328L151.894 140.127L151.869 140.094L151.843 140.062L150.295 141.328ZM150.086 156.11L148.512 154.875L147.179 156.575L148.977 157.774L150.086 156.11ZM150.385 156.289L151.595 154.696L151.546 154.659L151.494 154.625L150.385 156.289ZM151.609 158.618L153.537 158.085L153.534 158.077L153.532 158.068L151.609 158.618ZM155.999 169.129L154.266 170.128L154.267 170.129L155.999 169.129ZM158.358 171.01L158.662 172.987L158.674 172.985L158.686 172.983L158.358 171.01ZM159.433 170.502L158.44 168.766L158.38 168.8L158.323 168.838L159.433 170.502ZM160.06 170.144L159.165 168.355L159.116 168.38L159.067 168.408L160.06 170.144ZM165.524 171.279L164.144 172.726L164.151 172.733L164.158 172.74L165.524 171.279ZM168.391 176.056L166.534 176.799L166.541 176.818L166.549 176.836L168.391 176.056ZM169.794 178.177L170.823 176.462L170.813 176.455L170.802 176.449L169.794 178.177ZM170.78 178.565L170.147 180.462L170.188 180.476L170.23 180.488L170.78 178.565ZM171.377 178.744L172.076 176.87L172.002 176.842L171.926 176.821L171.377 178.744ZM175.318 182.447L173.695 183.615L173.697 183.618L175.318 182.447ZM176.483 183.999L174.931 185.261L174.935 185.266L174.94 185.272L176.483 183.999ZM182.007 185.253L180.489 183.952L180.476 183.967L180.463 183.982L182.007 185.253ZM182.754 183.641L184.641 184.302L184.646 184.288L184.651 184.273L182.754 183.641ZM184.008 181.431L182.78 179.853L182.773 179.858L182.766 179.863L184.008 181.431ZM185.889 180.595L185.325 178.676L185.304 178.683L185.283 178.689L185.889 180.595ZM187.621 179.431L189.612 179.62L189.621 179.526V179.431H187.621ZM187.561 178.774L189.502 178.289L189.493 178.256L189.484 178.224L187.561 178.774ZM187.472 178.147H189.472V178.09L189.469 178.034L187.472 178.147ZM190.517 175.071L190.125 173.11L190.083 173.118L190.041 173.129L190.517 175.071ZM191.443 174.862L191.835 176.823L191.443 174.862ZM194.16 173.817L195.509 175.294L195.543 175.263L195.575 175.231L194.16 173.817ZM196.042 171.07L197.456 172.484L196.042 171.07ZM198.281 169.816L198.959 171.697L198.985 171.688L199.011 171.678L198.281 169.816ZM206.433 166.62L205.715 164.754L205.703 164.758L206.433 166.62ZM208.613 165.336L210.132 166.638L210.141 166.627L210.149 166.617L208.613 165.336ZM209.33 164.112L207.541 163.218L207.529 163.242L207.517 163.266L209.33 164.112ZM209.927 163.037L211.544 164.214L211.549 164.207L211.554 164.2L209.927 163.037ZM210.464 162.5L211.766 164.018L213.406 162.613L211.879 161.085L210.464 162.5ZM210.345 162.082L212.202 162.824L212.219 162.781L212.235 162.736L210.345 162.082ZM211.009 153.787C209.31 150.991 206.616 149.034 203.531 148.577L202.945 152.534C204.698 152.794 206.423 153.942 207.591 155.864L211.009 153.787ZM203.55 148.58C202.863 148.471 202.192 148.438 201.641 148.409L201.431 152.403C202.015 152.434 202.479 152.46 202.926 152.531L203.55 148.58ZM201.674 148.411C200.707 148.344 200.093 148.321 199.47 148.15L198.406 152.006C199.515 152.312 200.633 152.349 201.398 152.401L201.674 148.411ZM199.441 148.142C198.963 148.018 198.495 147.775 198.169 147.48C197.854 147.195 197.753 146.943 197.738 146.74L193.748 147.025C193.958 149.967 196.601 151.536 198.435 152.013L199.441 148.142ZM197.739 146.75C197.717 146.426 197.841 146.025 198.216 145.212L194.584 143.536C194.243 144.276 193.65 145.547 193.748 147.016L197.739 146.75ZM198.231 145.18C198.485 144.603 199.124 143.326 198.952 141.946L194.983 142.443C194.98 142.418 194.994 142.473 194.93 142.682C194.859 142.911 194.75 143.159 194.569 143.569L198.231 145.18ZM198.95 141.93C198.716 140.178 197.35 139.02 196.68 138.427L194.03 141.423C194.42 141.768 194.669 142.006 194.837 142.219C194.991 142.415 194.988 142.482 194.985 142.459L198.95 141.93ZM196.72 138.463C196.247 138.022 195.935 137.723 195.701 137.411L192.501 139.811C192.984 140.455 193.567 140.992 193.99 141.387L196.72 138.463ZM195.712 137.426C194.995 136.452 194.906 135.163 194.906 133.147H190.906C190.906 134.953 190.877 137.605 192.49 139.797L195.712 137.426ZM194.906 133.147C194.906 131.534 194.965 129.215 193.722 127.286L190.359 129.452C190.847 130.21 190.906 131.236 190.906 133.147H194.906ZM193.717 127.279C193.201 126.484 192.559 125.819 191.953 125.245L189.202 128.149C189.73 128.649 190.104 129.059 190.363 129.459L193.717 127.279ZM191.961 125.253C191.201 124.525 190.77 124.075 190.537 123.527L186.855 125.089C187.458 126.511 188.52 127.495 189.193 128.141L191.961 125.253ZM190.524 123.496C190.2 122.768 190.271 121.87 190.496 120.326L186.538 119.749C186.345 121.073 185.997 123.161 186.868 125.12L190.524 123.496ZM190.495 120.332C190.682 119.077 191.023 117.103 190.166 115.341L186.569 117.091C186.787 117.538 186.77 118.192 186.539 119.743L190.495 120.332ZM188.974 114.31C188.329 114.105 187.701 114.086 187.211 114.105C186.733 114.124 186.225 114.189 185.877 114.228L186.319 118.203C186.777 118.153 187.075 118.114 187.366 118.102C187.498 118.097 187.594 118.1 187.664 118.106C187.698 118.109 187.722 118.113 187.738 118.116C187.754 118.119 187.761 118.122 187.761 118.122L188.974 114.31ZM185.809 114.237C185.483 114.284 185.233 114.322 184.991 114.345C184.755 114.368 184.591 114.369 184.473 114.358C184.36 114.348 184.318 114.329 184.314 114.327C184.311 114.326 184.31 114.325 184.308 114.324C184.306 114.322 184.294 114.313 184.275 114.291L181.232 116.887C182.078 117.879 183.141 118.254 184.11 118.342C184.971 118.42 185.851 118.273 186.388 118.195L185.809 114.237ZM184.259 114.272C184.276 114.291 184.25 114.272 184.206 114.142C184.153 113.99 184.12 113.831 184.049 113.512L180.144 114.38C180.231 114.771 180.427 115.967 181.249 116.906L184.259 114.272ZM184.058 113.554C184.043 113.479 184.028 113.405 184.013 113.33C183.998 113.255 183.983 113.181 183.968 113.106L180.046 113.891C180.061 113.965 180.076 114.04 180.091 114.115C180.106 114.189 180.121 114.264 180.136 114.339L184.058 113.554ZM183.947 113.013C183.443 110.995 181.9 109.425 180.046 108.597L178.414 112.249C179.368 112.675 179.915 113.374 180.067 113.983L183.947 113.013ZM180.013 108.582C178.157 107.792 175.965 107.729 174.15 108.682L176.009 112.223C176.583 111.922 177.497 111.859 178.447 112.263L180.013 108.582ZM174.131 108.692C173.662 108.945 173.175 109.259 172.774 109.517L174.937 112.881C175.372 112.602 175.721 112.379 176.028 112.214L174.131 108.692ZM172.754 109.53C171.997 110.029 171.479 110.355 171.023 110.506C170.827 110.572 170.722 110.574 170.682 110.57C170.66 110.569 170.625 110.566 170.546 110.511L168.266 113.798C169.658 114.764 171.12 114.689 172.283 114.303C173.335 113.954 174.31 113.295 174.956 112.869L172.754 109.53ZM170.568 110.527C170.511 110.486 170.434 110.418 170.357 110.15C170.262 109.822 170.225 109.414 170.176 108.754L166.187 109.046C166.259 110.028 166.303 112.396 168.244 113.782L170.568 110.527ZM170.179 108.789C170.15 108.271 170.107 107.556 169.938 106.884C169.765 106.198 169.4 105.303 168.534 104.664L166.157 107.88C165.978 107.748 166.001 107.63 166.059 107.862C166.122 108.108 166.154 108.454 166.185 109.011L170.179 108.789ZM168.528 104.659C167.383 103.819 166.118 103.926 165.245 104.2C164.395 104.467 163.66 104.959 163.154 105.356L165.625 108.502C165.778 108.382 165.935 108.273 166.086 108.184C166.24 108.095 166.361 108.042 166.445 108.016C166.53 107.989 166.529 108.004 166.462 107.999C166.376 107.992 166.26 107.956 166.163 107.885L168.528 104.659ZM162.601 107.823C162.585 107.792 162.47 107.568 162.449 107.233C162.424 106.824 162.546 106.412 162.789 106.087L165.989 108.487C166.323 108.043 166.475 107.512 166.442 106.983C166.413 106.529 166.254 106.185 166.178 106.035L162.601 107.823ZM162.532 106.545C162.708 106.106 163.012 105.856 163.227 105.732C163.441 105.608 163.702 105.526 164.001 105.526V109.526C164.449 109.526 164.875 109.4 165.231 109.194C165.588 108.987 166.011 108.618 166.246 108.03L162.532 106.545ZM164.001 105.526C163.951 105.526 164.046 105.524 164.16 105.538C164.299 105.555 164.498 105.598 164.717 105.708L162.928 109.285C163.468 109.555 163.992 109.526 164.001 109.526V105.526ZM163.822 107.496C164.716 105.707 164.716 105.707 164.716 105.707C164.716 105.707 164.717 105.708 164.717 105.708C164.717 105.708 164.717 105.708 164.717 105.708C164.718 105.708 164.718 105.708 164.719 105.709C164.72 105.709 164.721 105.71 164.722 105.71C164.723 105.711 164.725 105.712 164.727 105.713C164.731 105.715 164.734 105.717 164.738 105.718C164.745 105.722 164.752 105.726 164.76 105.73C164.775 105.738 164.794 105.749 164.817 105.763C164.823 105.766 164.979 105.855 165.147 106.022L162.318 108.851C162.516 109.049 162.716 109.167 162.76 109.193C162.802 109.218 162.838 109.238 162.865 109.252C162.878 109.26 162.891 109.266 162.901 109.272C162.906 109.274 162.911 109.277 162.916 109.279C162.918 109.28 162.92 109.281 162.922 109.283C162.923 109.283 162.924 109.284 162.925 109.284C162.926 109.284 162.926 109.285 162.927 109.285C162.927 109.285 162.927 109.285 162.927 109.285C162.928 109.285 162.928 109.285 162.928 109.285C162.928 109.285 162.928 109.285 163.822 107.496ZM162.318 106.022C162.273 106.067 162.229 106.112 162.188 106.153C162.146 106.194 162.109 106.232 162.079 106.261L164.908 109.09C164.938 109.06 164.975 109.022 165.016 108.981C165.057 108.94 165.102 108.896 165.147 108.851L162.318 106.022ZM162.063 106.278C159.429 108.972 156.855 111.819 154.461 114.698L157.536 117.256C159.86 114.461 162.362 111.694 164.924 109.074L162.063 106.278ZM154.47 114.687C153.998 115.246 153.572 115.862 153.32 116.522C153.06 117.202 152.928 118.105 153.353 119.008L156.972 117.305C157.057 117.485 157.082 117.659 157.078 117.791C157.075 117.911 157.049 117.969 157.057 117.947C157.066 117.926 157.096 117.855 157.176 117.732C157.254 117.61 157.368 117.455 157.527 117.267L154.47 114.687ZM153.33 118.958C153.672 119.74 154.273 120.19 154.693 120.441C155.105 120.687 155.56 120.864 155.823 120.969L157.309 117.255C157.153 117.193 157.038 117.147 156.934 117.101C156.832 117.055 156.774 117.025 156.744 117.007C156.713 116.988 156.739 117 156.79 117.049C156.845 117.103 156.929 117.204 156.995 117.355L153.33 118.958ZM155.672 120.901C155.879 121.005 156.168 121.127 156.469 121.202L157.439 117.321C157.453 117.325 157.463 117.327 157.47 117.329C157.477 117.331 157.481 117.333 157.484 117.334C157.489 117.335 157.489 117.336 157.485 117.334C157.481 117.332 157.476 117.33 157.47 117.328C157.464 117.325 157.461 117.324 157.46 117.323L155.672 120.901ZM156.142 121.089C158.124 121.97 159.25 124.679 158.486 126.709L162.23 128.118C163.736 124.116 161.696 119.181 157.766 117.434L156.142 121.089ZM158.486 126.711C157.78 128.594 156.03 129.753 153.561 131.304L155.689 134.691C157.878 133.315 160.966 131.489 162.231 128.116L158.486 126.711ZM153.577 131.294C151.719 132.437 149.265 133.926 147.836 136.294L151.261 138.36C152.102 136.966 153.649 135.947 155.673 134.701L153.577 131.294ZM147.84 136.287C147.305 137.166 146.895 138.217 147.023 139.37L150.999 138.928C151.008 139.006 150.956 138.862 151.257 138.367L147.84 136.287ZM147.03 139.419C147.206 140.711 148.047 141.727 148.465 142.249L151.588 139.751C151.35 139.453 151.196 139.248 151.09 139.071C150.988 138.9 150.989 138.847 150.993 138.878L147.03 139.419ZM148.479 142.266L148.747 142.595L151.843 140.062L151.574 139.734L148.479 142.266ZM148.697 142.53C151.307 146.003 151.219 151.423 148.512 154.875L151.66 157.344C155.463 152.494 155.614 145.075 151.894 140.127L148.697 142.53ZM148.977 157.774C149.04 157.815 149.097 157.85 149.139 157.875C149.18 157.899 149.22 157.922 149.243 157.936C149.272 157.952 149.284 157.959 149.293 157.965C149.302 157.97 149.293 157.965 149.275 157.953L151.494 154.625C151.431 154.583 151.374 154.548 151.332 154.523C151.291 154.499 151.251 154.476 151.228 154.463C151.199 154.446 151.187 154.439 151.178 154.434C151.169 154.429 151.178 154.433 151.196 154.445L148.977 157.774ZM149.175 157.881C149.199 157.9 149.267 157.959 149.363 158.172C149.473 158.418 149.552 158.698 149.686 159.167L153.532 158.068C153.347 157.42 152.975 155.745 151.595 154.696L149.175 157.881ZM149.681 159.151C150.741 162.983 152.269 166.664 154.266 170.128L157.731 168.13C155.906 164.965 154.508 161.598 153.537 158.085L149.681 159.151ZM154.267 170.129C154.72 170.913 155.263 171.646 155.927 172.178C156.612 172.728 157.557 173.157 158.662 172.987L158.053 169.033C158.382 168.983 158.535 169.143 158.429 169.058C158.302 168.956 158.054 168.688 157.73 168.128L154.267 170.129ZM158.686 172.983C159.51 172.845 160.186 172.404 160.542 172.166L158.323 168.838C158.168 168.942 158.069 169 158.001 169.034C157.932 169.069 157.948 169.051 158.029 169.037L158.686 172.983ZM160.425 172.239C160.529 172.179 160.634 172.119 160.738 172.06C160.843 172 160.947 171.94 161.052 171.88L159.067 168.408C158.963 168.467 158.858 168.527 158.754 168.587C158.649 168.646 158.545 168.706 158.44 168.766L160.425 172.239ZM160.954 171.933C161.83 171.495 163.207 171.833 164.144 172.726L166.904 169.831C165.273 168.276 162.111 166.882 159.165 168.355L160.954 171.933ZM164.158 172.74C165.177 173.692 165.82 175.014 166.534 176.799L170.248 175.314C169.528 173.515 168.618 171.433 166.89 169.818L164.158 172.74ZM166.549 176.836C166.69 177.17 166.918 177.737 167.216 178.252C167.519 178.776 168.003 179.447 168.786 179.904L170.802 176.449C170.869 176.488 170.815 176.487 170.678 176.249C170.536 176.003 170.42 175.719 170.233 175.277L166.549 176.836ZM168.765 179.892C169.307 180.217 169.938 180.392 170.147 180.462L171.412 176.667C171.315 176.635 171.206 176.6 171.136 176.577C171.057 176.551 170.998 176.532 170.948 176.513C170.849 176.477 170.822 176.461 170.823 176.462L168.765 179.892ZM170.23 180.488C170.312 180.511 170.391 180.535 170.49 180.566C170.585 180.595 170.701 180.631 170.827 180.667L171.926 176.821C171.844 176.797 171.766 176.773 171.666 176.743C171.572 176.714 171.456 176.678 171.329 176.642L170.23 180.488ZM170.678 180.618C171.77 181.025 172.539 182.009 173.695 183.615L176.942 181.278C175.948 179.898 174.507 177.777 172.076 176.87L170.678 180.618ZM173.697 183.618C174.078 184.145 174.5 184.731 174.931 185.261L178.035 182.738C177.689 182.313 177.335 181.823 176.94 181.276L173.697 183.618ZM174.94 185.272C176.23 186.836 178.345 188 180.305 188V184C179.757 184 178.706 183.552 178.026 182.727L174.94 185.272ZM180.305 188C181.524 188 182.696 187.563 183.551 186.525L180.463 183.982C180.452 183.996 180.448 183.997 180.454 183.993C180.46 183.988 180.467 183.984 180.472 183.983C180.482 183.978 180.441 184 180.305 184V188ZM183.526 186.555C184.193 185.776 184.501 184.704 184.641 184.302L180.866 182.98C180.74 183.339 180.677 183.539 180.592 183.742C180.514 183.927 180.476 183.967 180.489 183.952L183.526 186.555ZM184.651 184.273C184.797 183.836 184.887 183.57 185.002 183.341C185.102 183.141 185.182 183.052 185.249 182.999L182.766 179.863C181.503 180.863 181.086 182.319 180.856 183.009L184.651 184.273ZM185.236 183.01C185.435 182.855 185.741 182.741 186.496 182.501L185.283 178.689C184.723 178.867 183.655 179.172 182.78 179.853L185.236 183.01ZM186.453 182.514C186.919 182.377 187.58 182.182 188.126 181.861C188.777 181.479 189.502 180.774 189.612 179.62L185.63 179.241C185.639 179.151 185.66 179.046 185.703 178.934C185.746 178.823 185.802 178.724 185.864 178.64C185.985 178.478 186.098 178.413 186.1 178.412C186.104 178.41 186.091 178.417 186.055 178.433C186.02 178.449 185.969 178.469 185.9 178.495C185.755 178.547 185.573 178.604 185.325 178.676L186.453 182.514ZM189.621 179.431C189.621 179.234 189.628 178.796 189.502 178.289L185.621 179.259C185.614 179.23 185.621 179.21 185.621 179.431H189.621ZM189.484 178.224C189.474 178.187 189.472 178.163 189.472 178.147H185.472C185.472 178.549 185.53 178.943 185.638 179.323L189.484 178.224ZM189.469 178.034C189.466 177.997 189.457 177.873 189.713 177.641C189.99 177.389 190.452 177.146 190.994 177.013L190.041 173.129C189.001 173.384 187.895 173.888 187.022 174.681C186.128 175.494 185.387 176.714 185.475 178.26L189.469 178.034ZM190.91 177.032C191.101 176.994 191.294 176.948 191.444 176.912C191.608 176.873 191.728 176.845 191.835 176.823L191.051 172.901C190.86 172.939 190.666 172.985 190.517 173.021C190.353 173.06 190.232 173.088 190.125 173.11L190.91 177.032ZM191.835 176.823C192.755 176.639 194.338 176.363 195.509 175.294L192.812 172.34C192.609 172.525 192.222 172.667 191.051 172.901L191.835 176.823ZM195.575 175.231C196.156 174.65 196.539 173.977 196.824 173.439L193.289 171.567C193.036 172.044 192.882 172.267 192.746 172.403L195.575 175.231ZM196.824 173.439C197.076 172.963 197.26 172.679 197.456 172.484L194.627 169.655C193.987 170.296 193.574 171.028 193.289 171.567L196.824 173.439ZM197.456 172.484C197.74 172.2 198.224 171.962 198.959 171.697L197.604 167.934C196.846 168.207 195.597 168.686 194.627 169.655L197.456 172.484ZM199.011 171.678L207.163 168.483L205.703 164.758L197.551 167.953L199.011 171.678ZM207.151 168.487C207.856 168.216 209.215 167.708 210.132 166.638L207.095 164.035C206.936 164.219 206.563 164.428 205.715 164.754L207.151 168.487ZM210.149 166.617C210.63 166.04 210.932 165.408 211.142 164.958L207.517 163.266C207.31 163.712 207.193 163.917 207.077 164.056L210.149 166.617ZM211.119 165.007C211.343 164.558 211.43 164.371 211.544 164.214L208.309 161.861C207.946 162.36 207.675 162.95 207.541 163.218L211.119 165.007ZM211.554 164.2C211.538 164.223 211.53 164.227 211.557 164.201C211.572 164.187 211.594 164.166 211.63 164.135C211.669 164.101 211.707 164.069 211.766 164.018L209.163 160.981C209.001 161.12 208.617 161.43 208.299 161.875L211.554 164.2ZM211.879 161.085C211.986 161.193 212.148 161.392 212.245 161.7C212.351 162.036 212.356 162.439 212.202 162.824L208.488 161.339C208.018 162.513 208.617 163.48 209.05 163.914L211.879 161.085ZM212.235 162.736C213.259 159.777 212.772 156.474 211.102 153.704L207.676 155.768C208.814 157.656 209.043 159.728 208.455 161.427L212.235 162.736Z" fill="white" mask="url(#path-4-inside-1_639_315)"/>
</g>
<defs>
<filter id="filter0_d_639_315" x="0" y="0" width="361" height="357" filterUnits="userSpaceOnUse" color-interpolation-filters="sRGB">
<feFlood flood-opacity="0" result="BackgroundImageFix"/>
<feColorMatrix in="SourceAlpha" type="matrix" values="0 0 0 0 0 0 0 0 0 0 0 0 0 0 0 0 0 0 127 0" result="hardAlpha"/>
<feOffset dx="2" dy="2"/>
<feGaussianBlur stdDeviation="2"/>
<feComposite in2="hardAlpha" operator="out"/>
<feColorMatrix type="matrix" values="0 0 0 0 0 0 0 0 0 0 0 0 0 0 0 0 0 0 0.25 0"/>
<feBlend mode="normal" in2="BackgroundImageFix" result="effect1_dropShadow_639_315"/>
<feBlend mode="normal" in="SourceGraphic" in2="effect1_dropShadow_639_315" result="shape"/>
</filter>
<linearGradient id="paint0_linear_639_315" x1="144.488" y1="202.766" x2="213.512" y2="83.2345" gradientUnits="userSpaceOnUse">
<stop stop-color="#0460A9"/>
<stop offset="1" stop-color="#50E2D0"/>
</linearGradient>
</defs>
</svg>
