<svg width="361" height="357" viewBox="0 0 361 357" fill="none" xmlns="http://www.w3.org/2000/svg">
<g filter="url(#filter0_d_799_465)">
<rect x="2" y="2" width="353" height="349" rx="19.0804" fill="white"/>
<path d="M108.804 264.313H114.505L112.672 258.443C112.265 257.187 111.722 255.015 111.722 255.015H111.654C111.654 255.015 111.077 257.187 110.67 258.443L108.804 264.313ZM99.9811 273L108.702 248.738H114.878L123.633 273H117.321L115.896 268.623H107.413L106.021 273H99.9811ZM125.033 273V248.738H130.632V273H125.033ZM140.205 273.204C136.982 273.204 134.674 272.152 134.674 268.419V259.087H132.367V255.626H134.674V250.129H140.07V255.626H143.225V259.087H140.07V267.231C140.07 268.589 140.816 268.928 142.004 268.928C142.479 268.928 143.022 268.894 143.225 268.894V272.932C142.75 273.068 141.698 273.204 140.205 273.204ZM153.565 273.543C148 273.543 144.267 269.573 144.267 264.347C144.267 259.121 148 255.151 153.565 255.151C159.164 255.151 162.829 259.121 162.829 264.347C162.829 269.573 159.164 273.543 153.565 273.543ZM153.531 269.607C155.94 269.607 157.23 267.503 157.23 264.347C157.23 261.191 155.94 259.053 153.531 259.053C151.122 259.053 149.866 261.191 149.866 264.347C149.866 267.503 151.122 269.607 153.531 269.607ZM177.433 264.313H183.134L181.302 258.443C180.894 257.187 180.351 255.015 180.351 255.015H180.284C180.284 255.015 179.707 257.187 179.299 258.443L177.433 264.313ZM168.61 273L177.331 248.738H183.507L192.262 273H185.95L184.525 268.623H176.042L174.651 273H168.61ZM201.013 269.166C203.32 269.166 204.677 267.163 204.677 264.313C204.677 261.395 203.49 259.291 201.081 259.291C198.875 259.291 197.585 261.327 197.585 264.245C197.585 267.265 198.875 269.166 201.013 269.166ZM199.587 273.543C195.142 273.543 191.986 270.116 191.986 264.313C191.986 258.884 195.108 255.117 199.587 255.117C202.031 255.117 203.422 256.135 204.44 257.594H204.542V248.738H210.073V273H204.779V270.659H204.711C203.659 272.457 201.861 273.543 199.587 273.543ZM215.499 248.229C217.229 248.229 218.553 249.45 218.553 251.181C218.553 252.911 217.229 254.133 215.499 254.133C213.768 254.133 212.445 252.911 212.445 251.181C212.445 249.45 213.768 248.229 215.499 248.229ZM212.716 273V255.626H218.247V273H212.716ZM228.943 267.944C231.353 267.944 232.473 266.044 232.473 263.6C232.473 261.259 231.251 259.291 228.943 259.291C226.873 259.291 225.516 260.988 225.516 263.634C225.516 266.247 226.873 267.944 228.943 267.944ZM228.977 279.006C224.193 279.006 221.037 277.038 220.494 273.407H225.855C226.161 274.323 227.077 275.104 228.909 275.104C231.251 275.104 232.235 273.882 232.235 271.778V270.048H232.099C231.081 271.202 229.758 272.05 227.654 272.05C223.752 272.05 220.121 269.132 220.121 263.804C220.121 258.714 223.107 255.117 227.416 255.117C229.724 255.117 231.285 256.033 232.303 257.492H232.371V255.626H237.664V271.303C237.664 273.916 236.748 275.816 235.357 277.072C233.83 278.429 231.556 279.006 228.977 279.006ZM248.804 273.509C243.069 273.509 239.54 269.539 239.54 264.279C239.54 259.087 243.171 255.117 248.464 255.117C250.941 255.117 252.91 255.931 254.403 257.289C256.473 259.189 257.491 262.209 257.457 265.738H244.969C245.308 268.08 246.598 269.539 248.871 269.539C250.331 269.539 251.281 268.894 251.756 267.808H257.151C256.778 269.369 255.76 270.862 254.233 271.914C252.774 272.932 251.009 273.509 248.804 273.509ZM245.003 262.447H251.858C251.654 260.377 250.365 259.053 248.566 259.053C246.462 259.053 245.376 260.377 245.003 262.447Z" fill="#002068"/>
<path d="M179 212C217.108 212 248 181.108 248 143C248 104.892 217.108 74 179 74C140.892 74 110 104.892 110 143C110 181.108 140.892 212 179 212Z" fill="url(#paint0_linear_799_465)"/>
<path d="M219.453 138.761L220.346 139.981C219.493 141.467 218.538 142.742 217.287 143.554C216.602 143.994 215.71 144.29 214.843 144.321C213.979 144.351 213.221 144.119 212.678 143.607L212.648 143.579L212.616 143.554C212.598 143.539 212.563 143.506 212.494 143.434C212.48 143.419 212.461 143.4 212.441 143.378C212.392 143.326 212.329 143.259 212.272 143.201L212.258 143.185C211.979 142.878 211.601 142.462 211.093 142.149L211.089 142.146C210.012 141.492 208.785 141.526 207.747 141.901C206.715 142.275 205.778 143.011 205.17 143.932L205.166 143.94C204.419 145.094 204.06 146.362 203.765 147.452L203.757 147.484L203.75 147.517C203.672 147.91 203.567 148.278 203.433 148.651L203.427 148.67L203.421 148.689C203.157 149.533 202.902 149.684 202.809 149.723L202.802 149.725L202.796 149.728C202.749 149.748 202.67 149.769 202.468 149.718C202.239 149.661 201.972 149.542 201.569 149.356C200.957 149.065 200.09 148.669 199.129 148.669H199.07C197.988 148.669 197.034 149.194 196.366 150.018L196.363 150.023C196.284 150.121 196.21 150.224 196.142 150.329H196.047H195.967L195.887 150.342L188.567 151.527L188.465 151.544L188.368 151.581L185.671 152.618L185.337 152.747L185.16 153.058L183.869 155.332L181.929 157.195L174.682 158.707L174.364 158.774L174.145 159.015L172.16 161.208L172.092 161.283L172.041 161.369L170.95 163.205L162.215 168.664L162.43 163.545L162.753 159.924L162.791 159.508L162.521 159.189L161.543 158.033L161.138 157.555L160.531 157.71L158.101 158.332L157.976 158.365L157.863 158.427L153.036 161.116L151.419 161.494L150.358 160.476L150.215 160.339L150.03 160.267L148.667 159.733L148.228 159.562L147.817 159.79L146.329 160.617L145.582 160.809C145.469 158.735 145.11 156.561 143.631 154.878C143.15 154.328 142.613 153.896 142.125 153.529C141.73 153.219 141.382 152.922 141.067 152.607C140.834 152.374 140.655 152.075 140.576 151.801C140.51 151.572 140.533 151.437 140.562 151.368C141.45 150.283 141.555 148.896 141.425 147.671C141.291 146.411 140.885 145.105 140.549 144.053C140.479 143.791 140.386 143.489 140.304 143.218C140.251 143.045 140.202 142.885 140.166 142.757C139.548 140.569 140.768 138.424 142.339 137.097C143.906 135.773 146.213 134.924 148.29 135.874C149.206 136.32 150.071 136.989 151.048 137.788L151.05 137.79C152.455 138.931 154.144 140.281 156.345 140.721L156.348 140.722C159.138 141.273 161.437 140.245 163.335 138.664C165.179 137.128 166.742 134.99 168.121 133.103L168.164 133.043C168.271 132.899 168.377 132.756 168.482 132.615C169.134 131.734 169.731 130.928 170.349 130.186C174.44 125.289 181.825 123.19 187.861 125.214C188.133 125.314 188.399 125.415 188.669 125.517L188.672 125.518C188.942 125.62 189.217 125.724 189.501 125.829C189.585 125.861 189.671 125.894 189.758 125.928C191.193 126.483 192.88 127.135 194.731 127.138C196.895 127.185 198.786 126.434 200.448 125.406C202.004 124.444 203.418 123.199 204.69 122.08C204.766 122.013 204.842 121.946 204.917 121.88L204.917 121.88L205.657 121.229C205.657 121.229 205.658 121.228 205.658 121.228C206.587 120.414 207.885 119.421 209.3 118.751C210.407 118.227 211.504 117.937 212.521 118.012C212.46 118.473 212.425 118.93 212.393 119.347L212.388 119.419C212.388 119.419 212.388 119.42 212.388 119.42C212.353 119.856 212.308 120.28 212.255 120.658C211.285 120.874 210.364 121.371 209.609 122.098L209.606 122.1C208.419 123.252 207.818 124.859 208.005 126.434L208.007 126.445L208.008 126.457C208.128 127.297 208.881 128.143 209.981 128.023C211.371 127.927 212.512 128.54 213.63 129.745C214.781 130.985 215.79 132.726 216.902 134.665C217.673 136.028 218.527 137.495 219.453 138.761Z" stroke="white" stroke-width="2"/>
</g>
<defs>
<filter id="filter0_d_799_465" x="0" y="0" width="361" height="357" filterUnits="userSpaceOnUse" color-interpolation-filters="sRGB">
<feFlood flood-opacity="0" result="BackgroundImageFix"/>
<feColorMatrix in="SourceAlpha" type="matrix" values="0 0 0 0 0 0 0 0 0 0 0 0 0 0 0 0 0 0 127 0" result="hardAlpha"/>
<feOffset dx="2" dy="2"/>
<feGaussianBlur stdDeviation="2"/>
<feComposite in2="hardAlpha" operator="out"/>
<feColorMatrix type="matrix" values="0 0 0 0 0 0 0 0 0 0 0 0 0 0 0 0 0 0 0.25 0"/>
<feBlend mode="normal" in2="BackgroundImageFix" result="effect1_dropShadow_799_465"/>
<feBlend mode="normal" in="SourceGraphic" in2="effect1_dropShadow_799_465" result="shape"/>
</filter>
<linearGradient id="paint0_linear_799_465" x1="144.488" y1="202.766" x2="213.512" y2="83.2345" gradientUnits="userSpaceOnUse">
<stop stop-color="#0460A9"/>
<stop offset="1" stop-color="#50E2D0"/>
</linearGradient>
</defs>
</svg>
