<svg width="361" height="357" viewBox="0 0 361 357" fill="none" xmlns="http://www.w3.org/2000/svg">
<g filter="url(#filter0_d_639_314)">
<rect x="2" y="2" width="353" height="349" rx="19.0804" fill="white"/>
<path d="M49.14 273V248.738H57.2162L60.1684 259.359C60.6096 260.886 61.5597 264.89 61.5597 264.89H61.6276C61.6276 264.89 62.5777 260.886 62.9849 259.359L65.9711 248.738H74.1151V273H68.6179V260.784C68.6179 259.8 68.7197 255.931 68.7197 255.931H68.6518C68.6518 255.931 67.8035 259.562 67.532 260.445L64.0368 273H59.0825L55.6213 260.479C55.3498 259.596 54.5015 255.931 54.5015 255.931H54.4336C54.4336 255.931 54.5354 259.834 54.5354 260.818V273H49.14ZM83.9892 269.912C86.0592 269.912 87.4844 268.657 87.4844 266.79V264.72C86.7718 265.093 85.7538 265.365 84.634 265.636C82.4962 266.111 81.6139 266.654 81.6139 267.978C81.6139 269.369 82.6319 269.912 83.9892 269.912ZM82.2247 273.441C78.7635 273.441 76.2863 271.575 76.2863 268.148C76.2863 264.313 79.3403 263.159 82.9373 262.684C86.1949 262.277 87.3487 261.938 87.3487 260.75C87.3487 259.63 86.6361 258.884 84.9733 258.884C83.2088 258.884 82.3265 259.664 82.1568 261.123H77.0668C77.2025 257.9 79.6797 255.151 84.9394 255.151C87.5523 255.151 89.3168 255.626 90.5723 256.576C92.0654 257.662 92.778 259.359 92.778 261.53V270.285C92.778 271.677 92.9138 272.457 93.3888 272.762V273H88.0273C87.7559 272.627 87.5862 271.948 87.4505 271.066H87.3826C86.3646 272.525 84.8376 273.441 82.2247 273.441ZM104.554 269.267C106.657 269.267 107.947 267.469 107.947 264.517C107.947 261.53 106.827 259.562 104.452 259.562C102.042 259.562 100.821 261.7 100.821 264.517C100.821 267.333 102.178 269.267 104.554 269.267ZM95.4593 278.735V255.626H100.753V257.73H100.855C102.042 256.169 103.739 255.117 106.114 255.117C110.729 255.117 113.546 259.087 113.546 264.313C113.546 269.946 110.526 273.543 105.979 273.543C103.739 273.543 102.144 272.661 101.058 271.202H100.99V278.735H95.4593ZM124.503 269.267C126.607 269.267 127.896 267.469 127.896 264.517C127.896 261.53 126.776 259.562 124.401 259.562C121.992 259.562 120.77 261.7 120.77 264.517C120.77 267.333 122.127 269.267 124.503 269.267ZM115.409 278.735V255.626H120.702V257.73H120.804C121.992 256.169 123.688 255.117 126.064 255.117C130.679 255.117 133.495 259.087 133.495 264.313C133.495 269.946 130.475 273.543 125.928 273.543C123.688 273.543 122.093 272.661 121.008 271.202H120.94V278.735H115.409ZM142.246 269.912C144.316 269.912 145.741 268.657 145.741 266.79V264.72C145.029 265.093 144.011 265.365 142.891 265.636C140.753 266.111 139.871 266.654 139.871 267.978C139.871 269.369 140.889 269.912 142.246 269.912ZM140.482 273.441C137.02 273.441 134.543 271.575 134.543 268.148C134.543 264.313 137.597 263.159 141.194 262.684C144.452 262.277 145.606 261.938 145.606 260.75C145.606 259.63 144.893 258.884 143.23 258.884C141.466 258.884 140.584 259.664 140.414 261.123H135.324C135.46 257.9 137.937 255.151 143.196 255.151C145.809 255.151 147.574 255.626 148.829 256.576C150.322 257.662 151.035 259.359 151.035 261.53V270.285C151.035 271.677 151.171 272.457 151.646 272.762V273H146.284C146.013 272.627 145.843 271.948 145.707 271.066H145.64C144.622 272.525 143.095 273.441 140.482 273.441ZM165.331 259.461H169.844C172.219 259.461 173.441 258.341 173.441 256.508C173.441 254.744 172.287 253.488 169.98 253.488H165.331V259.461ZM159.325 273V248.738H170.93C175.748 248.738 179.413 251.215 179.413 255.728C179.413 258.544 178.022 260.614 175.206 261.598V261.7C177.309 262.413 178.395 263.736 178.735 266.145C179.244 269.335 178.904 272.389 179.753 272.695V273H173.916C173.271 272.627 173.373 269.776 173 267.367C172.694 265.127 171.541 263.906 168.962 263.906H165.331V273H159.325ZM190.069 273.509C184.334 273.509 180.805 269.539 180.805 264.279C180.805 259.087 184.436 255.117 189.73 255.117C192.207 255.117 194.175 255.931 195.668 257.289C197.738 259.189 198.756 262.209 198.722 265.738H186.234C186.574 268.08 187.863 269.539 190.137 269.539C191.596 269.539 192.546 268.894 193.021 267.808H198.417C198.043 269.369 197.025 270.862 195.498 271.914C194.039 272.932 192.275 273.509 190.069 273.509ZM186.268 262.447H193.123C192.919 260.377 191.63 259.053 189.831 259.053C187.728 259.053 186.642 260.377 186.268 262.447ZM208.616 267.944C211.025 267.944 212.145 266.044 212.145 263.6C212.145 261.259 210.924 259.291 208.616 259.291C206.546 259.291 205.189 260.988 205.189 263.634C205.189 266.247 206.546 267.944 208.616 267.944ZM208.65 279.006C203.865 279.006 200.71 277.038 200.167 273.407H205.528C205.834 274.323 206.75 275.104 208.582 275.104C210.924 275.104 211.908 273.882 211.908 271.778V270.048H211.772C210.754 271.202 209.43 272.05 207.327 272.05C203.424 272.05 199.793 269.132 199.793 263.804C199.793 258.714 202.779 255.117 207.089 255.117C209.397 255.117 210.957 256.033 211.975 257.492H212.043V255.626H217.337V271.303C217.337 273.916 216.421 275.816 215.03 277.072C213.502 278.429 211.229 279.006 208.65 279.006ZM222.775 248.229C224.506 248.229 225.829 249.45 225.829 251.181C225.829 252.911 224.506 254.133 222.775 254.133C221.045 254.133 219.721 252.911 219.721 251.181C219.721 249.45 221.045 248.229 222.775 248.229ZM219.993 273V255.626H225.524V273H219.993ZM236.695 273.543C231.13 273.543 227.397 269.573 227.397 264.347C227.397 259.121 231.13 255.151 236.695 255.151C242.294 255.151 245.959 259.121 245.959 264.347C245.959 269.573 242.294 273.543 236.695 273.543ZM236.661 269.607C239.071 269.607 240.36 267.503 240.36 264.347C240.36 261.191 239.071 259.053 236.661 259.053C234.252 259.053 232.997 261.191 232.997 264.347C232.997 267.503 234.252 269.607 236.661 269.607ZM247.829 273V255.626H253.157V258.001H253.258C254.548 256.135 256.211 255.117 258.62 255.117C262.42 255.117 264.66 257.832 264.66 261.7V273H259.129V262.82C259.129 260.988 258.213 259.732 256.414 259.732C254.582 259.732 253.36 261.259 253.36 263.397V273H247.829ZM274.07 269.912C276.14 269.912 277.565 268.657 277.565 266.79V264.72C276.853 265.093 275.835 265.365 274.715 265.636C272.577 266.111 271.695 266.654 271.695 267.978C271.695 269.369 272.713 269.912 274.07 269.912ZM272.306 273.441C268.844 273.441 266.367 271.575 266.367 268.148C266.367 264.313 269.421 263.159 273.018 262.684C276.276 262.277 277.43 261.938 277.43 260.75C277.43 259.63 276.717 258.884 275.054 258.884C273.29 258.884 272.407 259.664 272.238 261.123H267.148C267.283 257.9 269.761 255.151 275.02 255.151C277.633 255.151 279.398 255.626 280.653 256.576C282.146 257.662 282.859 259.359 282.859 261.53V270.285C282.859 271.677 282.995 272.457 283.47 272.762V273H278.108C277.837 272.627 277.667 271.948 277.531 271.066H277.464C276.446 272.525 274.919 273.441 272.306 273.441ZM285.574 273V248.738H291.173V273H285.574ZM302.341 273.509C296.607 273.509 293.077 269.539 293.077 264.279C293.077 259.087 296.708 255.117 302.002 255.117C304.479 255.117 306.447 255.931 307.94 257.289C310.01 259.189 311.028 262.209 310.994 265.738H298.507C298.846 268.08 300.136 269.539 302.409 269.539C303.868 269.539 304.818 268.894 305.294 267.808H310.689C310.316 269.369 309.298 270.862 307.771 271.914C306.312 272.932 304.547 273.509 302.341 273.509ZM298.541 262.447H305.395C305.192 260.377 303.902 259.053 302.104 259.053C300 259.053 298.914 260.377 298.541 262.447ZM157.215 314.577C150.768 314.577 146.526 311.726 146.39 306.365H152.43C152.702 308.808 154.297 309.826 157.181 309.826C159.149 309.826 161.083 309.114 161.083 307.281C161.083 305.347 159.115 304.94 155.79 304.125C151.582 303.141 147.137 301.852 147.137 296.762C147.137 291.57 151.345 289.296 156.774 289.296C162.034 289.296 166.106 291.672 166.343 296.762H160.473C160.235 294.895 158.81 293.843 156.57 293.843C154.466 293.843 153.075 294.76 153.075 296.117C153.075 297.814 154.942 298.221 158.572 299.035C163.086 300.087 167.158 301.479 167.158 306.67C167.158 311.76 162.814 314.577 157.215 314.577ZM179.617 314.577C173.169 314.577 168.927 311.726 168.792 306.365H174.832C175.103 308.808 176.698 309.826 179.583 309.826C181.551 309.826 183.485 309.114 183.485 307.281C183.485 305.347 181.517 304.94 178.191 304.125C173.984 303.141 169.538 301.852 169.538 296.762C169.538 291.57 173.746 289.296 179.175 289.296C184.435 289.296 188.507 291.672 188.745 296.762H182.874C182.637 294.895 181.211 293.843 178.972 293.843C176.868 293.843 175.477 294.76 175.477 296.117C175.477 297.814 177.343 298.221 180.974 299.035C185.487 300.087 189.559 301.479 189.559 306.67C189.559 311.76 185.216 314.577 179.617 314.577ZM198.022 300.461H202.535C204.91 300.461 206.132 299.341 206.132 297.508C206.132 295.744 204.978 294.488 202.671 294.488H198.022V300.461ZM192.016 314V289.738H203.621C208.439 289.738 212.104 292.215 212.104 296.728C212.104 299.544 210.713 301.614 207.896 302.598V302.7C210 303.413 211.086 304.736 211.426 307.145C211.935 310.335 211.595 313.389 212.444 313.695V314H206.607C205.962 313.627 206.064 310.776 205.691 308.367C205.385 306.127 204.232 304.906 201.653 304.906H198.022V314H192.016Z" fill="#002068"/>
<path d="M179 212C217.108 212 248 181.108 248 143C248 104.892 217.108 74 179 74C140.892 74 110 104.892 110 143C110 181.108 140.892 212 179 212Z" fill="url(#paint0_linear_639_314)"/>
<mask id="path-4-inside-1_639_314" fill="white">
<path d="M159.98 117.217C157.74 117.159 156.343 114.831 155.79 112.649C155.732 112.387 155.644 112.125 155.586 111.834C155.179 110.117 154.771 108.371 153.462 107.411C153.113 107.178 152.793 107.032 152.502 107.003C151.6 106.945 151.018 107.702 150.29 108.604C149.737 109.302 149.155 110.03 148.369 110.437C147.409 110.932 146.187 110.873 144.645 110.291C144.441 110.204 144.237 110.117 144.004 110.03C143.131 109.68 142.287 109.331 141.444 109.331C140.483 109.331 139.407 109.971 139.377 110.903C139.377 111.455 139.727 111.95 140.076 112.503C140.483 113.085 140.891 113.696 140.92 114.453C140.949 115.413 140.367 116.257 139.843 116.985C139.174 117.916 138.795 118.527 139.116 119.167C139.523 119.953 140.716 119.895 141.793 119.865H141.967C143.83 119.807 145.314 120.331 146.303 121.321C146.943 121.99 147.293 122.921 147.264 123.852C147.264 124.638 146.943 125.336 146.42 125.802C145.983 126.209 145.459 126.413 144.965 126.646C144.586 126.82 144.208 126.966 143.917 127.199C143.364 127.635 143.044 128.392 143.131 129.236C143.19 129.847 143.451 130.371 143.83 130.72C144.877 129.847 146.478 128.945 147.846 129.963C148.835 130.691 148.922 131.942 149.01 133.135C149.068 134.212 149.155 135.201 149.854 135.696C150.756 136.336 151.774 135.725 153.258 134.765C153.666 134.503 154.102 134.212 154.51 134.008C155.877 133.281 157.652 133.252 159.253 133.95C160.853 134.648 162.017 135.958 162.425 137.471C162.454 137.617 162.512 137.791 162.541 137.937C162.658 138.432 162.745 138.868 163.007 139.188C163.56 139.828 164.462 139.683 165.539 139.508C166.499 139.363 167.459 139.217 168.332 139.596C168.42 139.625 168.478 139.683 168.536 139.77C169.263 141.138 169.031 142.651 168.827 144.135C168.623 145.474 168.449 146.754 168.943 147.86C169.293 148.646 169.933 149.257 170.602 149.926C171.155 150.45 171.737 151.032 172.144 151.701C173.076 153.214 173.105 155.048 173.105 156.794C173.105 158.598 173.105 160.315 174.123 161.654C174.443 162.061 174.851 162.468 175.258 162.818C176.073 163.574 176.946 164.36 177.091 165.553C177.208 166.484 176.83 167.299 176.48 168.114C176.16 168.812 175.869 169.482 175.927 170.151C176.015 171.373 177.295 172.246 178.43 172.537C179.187 172.741 179.972 172.77 180.816 172.828C181.398 172.857 181.98 172.886 182.562 172.974C185.181 173.352 187.538 175.011 189.052 177.513C190.507 179.929 190.885 182.635 190.158 185.05C191.031 184.643 192.107 184.526 193.329 184.788C194.697 185.079 196.123 185.836 196.851 187C196.967 186.854 197.112 186.738 197.287 186.651C197.724 186.418 198.189 186.447 198.597 186.476C198.829 186.476 199.062 186.476 199.266 186.476C200.226 186.302 200.692 185.05 200.779 184.032C200.779 183.828 200.808 183.624 200.837 183.421C200.925 182.315 201.012 181.209 201.739 180.336C202.845 179.056 204.591 179.201 206.279 179.347C207.792 179.463 209.218 179.608 210.12 178.735C210.528 178.357 210.761 177.833 211.022 177.28L211.081 177.135C212.245 174.574 213.641 172.857 215.329 171.897C216.464 171.257 217.948 170.937 219.345 171.169C217.541 166.542 215.853 161.857 214.224 157.259C210.644 147.074 206.948 136.569 201.507 127.141C200.896 127.868 199.935 128.363 199.004 128.392C197.52 128.45 196.21 127.723 194.988 126.966C188.586 122.95 182.504 118.323 176.917 113.231L176.422 112.794C173.978 110.582 171.475 108.284 168.42 107.44C167.838 107.294 167.256 107.178 166.615 107.09C166.092 109.331 165.335 111.514 164.316 113.58C163.123 116.024 161.639 117.305 159.951 117.246"/>
</mask>
<path d="M155.79 112.649L153.838 113.082L153.844 113.111L153.851 113.14L155.79 112.649ZM155.586 111.834L157.547 111.442L157.54 111.407L157.532 111.372L155.586 111.834ZM153.462 107.411L154.645 105.798L154.609 105.771L154.571 105.746L153.462 107.411ZM152.502 107.003L152.701 105.013L152.666 105.01L152.63 105.007L152.502 107.003ZM150.29 108.604L148.733 107.348L148.728 107.355L148.722 107.362L150.29 108.604ZM148.369 110.437L149.285 112.215L149.29 112.213L148.369 110.437ZM144.645 110.291L143.857 112.13L143.897 112.147L143.938 112.163L144.645 110.291ZM144.004 110.03L143.262 111.887L143.282 111.895L143.302 111.902L144.004 110.03ZM139.377 110.903L137.378 110.84L137.377 110.871V110.903H139.377ZM140.076 112.503L138.385 113.571L138.41 113.611L138.437 113.65L140.076 112.503ZM140.92 114.453L142.919 114.392L142.919 114.384L142.918 114.376L140.92 114.453ZM139.843 116.985L138.22 115.816L138.219 115.817L139.843 116.985ZM139.116 119.167L137.327 120.062L137.333 120.075L137.34 120.088L139.116 119.167ZM141.793 119.865V117.865H141.766L141.739 117.866L141.793 119.865ZM141.967 119.865V121.865H141.999L142.03 121.865L141.967 119.865ZM146.303 121.321L147.749 119.938L147.733 119.922L147.717 119.906L146.303 121.321ZM147.264 123.852L145.265 123.79L145.264 123.821V123.852H147.264ZM146.42 125.802L145.091 124.307L145.073 124.323L145.055 124.34L146.42 125.802ZM144.965 126.646L145.803 128.462L145.81 128.459L145.816 128.456L144.965 126.646ZM143.917 127.199L145.156 128.769L145.166 128.761L143.917 127.199ZM143.131 129.236L145.122 129.046L145.122 129.038L145.121 129.03L143.131 129.236ZM143.83 130.72L142.473 132.19L143.762 133.38L145.11 132.256L143.83 130.72ZM147.846 129.963L146.651 131.567L146.661 131.575L147.846 129.963ZM149.01 133.135L151.007 133.027L151.006 133.008L151.004 132.989L149.01 133.135ZM149.854 135.696L151.011 134.065L151.01 134.064L149.854 135.696ZM153.258 134.765L152.177 133.082L152.172 133.086L153.258 134.765ZM154.51 134.008L155.404 135.797L155.427 135.786L155.449 135.774L154.51 134.008ZM162.425 137.471L164.386 137.079L164.373 137.015L164.356 136.951L162.425 137.471ZM162.541 137.937L160.58 138.329L160.587 138.362L160.594 138.395L162.541 137.937ZM163.007 139.188L161.459 140.455L161.476 140.475L161.493 140.495L163.007 139.188ZM165.539 139.508L165.239 137.531L165.229 137.532L165.218 137.534L165.539 139.508ZM168.332 139.596L167.537 141.431L167.617 141.465L167.7 141.493L168.332 139.596ZM168.536 139.77L170.302 138.831L170.255 138.743L170.2 138.661L168.536 139.77ZM168.827 144.135L170.804 144.436L170.806 144.422L170.808 144.407L168.827 144.135ZM168.943 147.86L170.771 147.048L170.769 147.043L168.943 147.86ZM170.602 149.926L169.188 151.34L169.207 151.359L169.227 151.378L170.602 149.926ZM172.144 151.701L170.436 152.741L170.441 152.749L172.144 151.701ZM174.123 161.654L172.532 162.865L172.541 162.877L172.551 162.889L174.123 161.654ZM175.258 162.818L176.619 161.352L176.59 161.325L176.56 161.299L175.258 162.818ZM177.091 165.553L175.106 165.795L175.107 165.801L177.091 165.553ZM176.48 168.114L178.298 168.947L178.309 168.925L178.319 168.902L176.48 168.114ZM175.927 170.151L177.922 170.008L177.921 169.993L177.92 169.978L175.927 170.151ZM178.43 172.537L178.95 170.606L178.938 170.603L178.927 170.6L178.43 172.537ZM180.816 172.828L180.679 174.823L180.698 174.825L180.716 174.826L180.816 172.828ZM182.562 172.974L182.266 174.952L182.276 174.953L182.562 172.974ZM189.052 177.513L190.765 176.481L190.763 176.478L189.052 177.513ZM190.158 185.05L188.243 184.473L186.954 188.752L191.003 186.863L190.158 185.05ZM193.329 184.788L192.91 186.744L192.913 186.745L193.329 184.788ZM196.851 187L195.155 188.06L196.65 190.452L198.412 188.249L196.851 187ZM197.287 186.651L198.182 188.44L198.205 188.428L198.228 188.415L197.287 186.651ZM198.597 186.476L198.454 188.471L198.525 188.476H198.597V186.476ZM199.266 186.476V188.476H199.446L199.624 188.444L199.266 186.476ZM200.779 184.032L202.772 184.203L202.779 184.117V184.032H200.779ZM200.837 183.421L202.817 183.703L202.826 183.641L202.831 183.578L200.837 183.421ZM201.739 180.336L200.226 179.029L200.214 179.042L200.203 179.056L201.739 180.336ZM206.279 179.347L206.107 181.339L206.117 181.34L206.126 181.341L206.279 179.347ZM210.12 178.735L208.759 177.27L208.744 177.284L208.729 177.298L210.12 178.735ZM211.022 177.28L212.83 178.137L212.856 178.081L212.879 178.023L211.022 177.28ZM211.081 177.135L209.26 176.307L209.241 176.349L209.224 176.392L211.081 177.135ZM215.329 171.897L214.347 170.155L214.34 170.159L215.329 171.897ZM219.345 171.169L219.016 173.142L222.487 173.721L221.209 170.443L219.345 171.169ZM214.224 157.259L212.337 157.923L212.338 157.928L214.224 157.259ZM201.507 127.141L203.239 126.141L201.812 123.668L199.975 125.854L201.507 127.141ZM199.004 128.392L198.942 126.393L198.934 126.393L198.926 126.393L199.004 128.392ZM194.988 126.966L193.925 128.66L193.935 128.666L194.988 126.966ZM176.917 113.231L178.264 111.752L178.252 111.742L178.24 111.731L176.917 113.231ZM176.422 112.794L175.08 114.277L175.09 114.286L175.099 114.294L176.422 112.794ZM168.42 107.44L168.952 105.512L168.928 105.505L168.905 105.499L168.42 107.44ZM166.615 107.09L166.886 105.109L165.082 104.863L164.668 106.635L166.615 107.09ZM164.316 113.58L162.523 112.695L162.519 112.703L164.316 113.58ZM160.032 115.218C159.668 115.209 159.259 115.03 158.806 114.471C158.339 113.894 157.956 113.055 157.729 112.157L153.851 113.14C154.177 114.425 154.769 115.841 155.698 116.989C156.642 118.153 158.053 119.168 159.929 119.217L160.032 115.218ZM157.742 112.215C157.701 112.028 157.649 111.843 157.619 111.73C157.583 111.599 157.562 111.517 157.547 111.442L153.625 112.226C153.668 112.442 153.72 112.636 153.757 112.774C153.8 112.931 153.821 113.007 153.838 113.082L157.742 112.215ZM157.532 111.372C157.337 110.55 157.1 109.523 156.713 108.579C156.315 107.611 155.7 106.572 154.645 105.798L152.279 109.023C152.533 109.209 152.777 109.524 153.012 110.098C153.258 110.696 153.428 111.4 153.64 112.296L157.532 111.372ZM154.571 105.746C154.114 105.442 153.469 105.09 152.701 105.013L152.303 108.993C152.248 108.988 152.208 108.978 152.187 108.972C152.165 108.966 152.158 108.963 152.167 108.967C152.176 108.97 152.196 108.98 152.229 108.998C152.261 109.016 152.302 109.041 152.353 109.075L154.571 105.746ZM152.63 105.007C151.502 104.935 150.64 105.409 150.041 105.915C149.51 106.362 149.047 106.959 148.733 107.348L151.847 109.859C152.04 109.619 152.185 109.438 152.326 109.276C152.464 109.117 152.557 109.025 152.62 108.972C152.68 108.921 152.678 108.936 152.618 108.96C152.545 108.989 152.455 109.004 152.373 108.999L152.63 105.007ZM148.722 107.362C148.118 108.125 147.789 108.485 147.449 108.661L149.29 112.213C150.521 111.574 151.356 110.479 151.858 109.845L148.722 107.362ZM147.454 108.659C147.223 108.778 146.662 108.915 145.351 108.42L143.938 112.163C145.712 112.832 147.595 113.086 149.285 112.215L147.454 108.659ZM145.432 108.453C145.232 108.367 144.989 108.263 144.707 108.157L143.302 111.902C143.486 111.971 143.65 112.041 143.857 112.13L145.432 108.453ZM144.747 108.173C143.987 107.869 142.753 107.331 141.444 107.331V111.331C141.822 111.331 142.276 111.492 143.262 111.887L144.747 108.173ZM141.444 107.331C140.554 107.331 139.643 107.617 138.91 108.132C138.177 108.648 137.418 109.561 137.378 110.84L141.376 110.965C141.371 111.123 141.32 111.251 141.271 111.329C141.227 111.398 141.195 111.416 141.212 111.403C141.228 111.392 141.266 111.371 141.321 111.353C141.376 111.336 141.421 111.331 141.444 111.331V107.331ZM137.377 110.903C137.377 111.608 137.602 112.188 137.807 112.597C137.996 112.975 138.252 113.361 138.385 113.571L141.767 111.435C141.66 111.267 141.598 111.171 141.522 111.048C141.454 110.938 141.412 110.864 141.385 110.808C141.327 110.694 141.377 110.75 141.377 110.903H137.377ZM138.437 113.65C138.644 113.945 138.763 114.127 138.843 114.291C138.913 114.434 138.92 114.501 138.921 114.53L142.918 114.376C142.864 112.955 142.09 111.893 141.714 111.356L138.437 113.65ZM138.921 114.513C138.922 114.564 138.911 114.685 138.794 114.924C138.669 115.177 138.486 115.447 138.22 115.816L141.466 118.153C141.923 117.518 142.972 116.135 142.919 114.392L138.921 114.513ZM138.219 115.817C137.908 116.251 137.493 116.832 137.249 117.449C136.957 118.187 136.852 119.112 137.327 120.062L140.904 118.273C140.959 118.382 141.001 118.533 141 118.698C140.999 118.847 140.964 118.931 140.968 118.921C140.974 118.905 141.005 118.837 141.095 118.693C141.185 118.55 141.303 118.379 141.467 118.152L138.219 115.817ZM137.34 120.088C137.974 121.311 139.151 121.675 139.877 121.795C140.593 121.914 141.385 121.877 141.847 121.865L141.739 117.866C141.45 117.874 141.221 117.881 140.998 117.879C140.777 117.877 140.629 117.865 140.53 117.849C140.426 117.832 140.45 117.821 140.535 117.869C140.643 117.929 140.791 118.054 140.891 118.246L137.34 120.088ZM141.793 121.865H141.967V117.865H141.793V121.865ZM142.03 121.865C143.492 121.819 144.386 122.231 144.889 122.735L147.717 119.906C146.242 118.431 144.168 117.796 141.905 117.866L142.03 121.865ZM144.858 122.703C145.118 122.975 145.277 123.382 145.265 123.79L149.263 123.915C149.308 122.46 148.769 121.004 147.749 119.938L144.858 122.703ZM145.264 123.852C145.264 124.09 145.171 124.236 145.091 124.307L147.748 127.297C148.716 126.436 149.264 125.186 149.264 123.852H145.264ZM145.055 124.34C145.008 124.383 144.932 124.441 144.778 124.522C144.7 124.563 144.611 124.606 144.498 124.659C144.411 124.699 144.234 124.779 144.113 124.836L145.816 128.456C146.143 128.302 147.056 127.944 147.784 127.264L145.055 124.34ZM144.127 124.83C143.937 124.918 143.208 125.205 142.668 125.637L145.166 128.761C145.148 128.775 145.168 128.756 145.288 128.697C145.345 128.668 145.412 128.638 145.501 128.598C145.581 128.562 145.695 128.511 145.803 128.462L144.127 124.83ZM142.678 125.629C141.534 126.532 140.991 127.987 141.142 129.442L145.121 129.03C145.097 128.797 145.194 128.739 145.156 128.769L142.678 125.629ZM141.14 129.425C141.241 130.486 141.704 131.48 142.473 132.19L145.186 129.25C145.199 129.262 145.138 129.208 145.122 129.046L141.14 129.425ZM145.11 132.256C145.541 131.897 145.958 131.647 146.284 131.55C146.43 131.507 146.51 131.51 146.539 131.514C146.555 131.516 146.586 131.519 146.651 131.567L149.04 128.359C147.734 127.387 146.302 127.374 145.151 127.714C144.073 128.033 143.166 128.67 142.549 129.183L145.11 132.256ZM146.661 131.575C146.695 131.6 146.766 131.654 146.841 131.919C146.932 132.24 146.968 132.638 147.015 133.281L151.004 132.989C150.964 132.44 150.912 131.615 150.69 130.83C150.453 129.99 149.985 129.054 149.03 128.352L146.661 131.575ZM147.013 133.243C147.04 133.76 147.082 134.473 147.257 135.141C147.441 135.843 147.826 136.711 148.697 137.328L151.01 134.064C151.183 134.187 151.175 134.312 151.126 134.126C151.102 134.034 151.077 133.899 151.056 133.705C151.035 133.51 151.021 133.292 151.007 133.027L147.013 133.243ZM148.696 137.327C149.832 138.133 151.04 138.053 151.996 137.719C152.82 137.432 153.656 136.89 154.345 136.444L152.172 133.086C151.799 133.327 151.499 133.518 151.233 133.67C150.965 133.824 150.79 133.903 150.679 133.942C150.572 133.98 150.595 133.953 150.701 133.961C150.834 133.97 150.95 134.021 151.011 134.065L148.696 137.327ZM154.34 136.447C154.802 136.15 155.12 135.939 155.404 135.797L153.615 132.219C153.085 132.485 152.529 132.856 152.177 133.083L154.34 136.447ZM155.449 135.774C156.213 135.367 157.342 135.298 158.453 135.783L160.053 132.117C157.963 131.205 155.542 131.194 153.57 132.243L155.449 135.774ZM158.453 135.783C159.553 136.263 160.26 137.122 160.494 137.991L164.356 136.951C163.775 134.794 162.154 133.034 160.053 132.117L158.453 135.783ZM160.464 137.863C160.494 138.017 160.536 138.167 160.554 138.23C160.58 138.327 160.582 138.337 160.58 138.329L164.502 137.545C164.472 137.391 164.43 137.241 164.413 137.178C164.386 137.081 164.384 137.071 164.386 137.079L160.464 137.863ZM160.594 138.395C160.665 138.694 160.835 139.691 161.459 140.455L164.555 137.922C164.638 138.023 164.647 138.088 164.62 138.005C164.607 137.965 164.59 137.907 164.567 137.815C164.543 137.714 164.522 137.623 164.488 137.479L160.594 138.395ZM161.493 140.495C162.239 141.359 163.201 141.612 163.975 141.651C164.66 141.686 165.384 141.559 165.859 141.482L165.218 137.534C164.94 137.579 164.728 137.613 164.538 137.635C164.349 137.657 164.239 137.659 164.178 137.656C164.121 137.653 164.159 137.648 164.245 137.683C164.346 137.725 164.447 137.796 164.521 137.881L161.493 140.495ZM165.838 141.486C166.923 141.321 167.283 141.321 167.537 141.431L169.127 137.76C167.636 137.114 166.075 137.404 165.239 137.531L165.838 141.486ZM167.7 141.493C167.473 141.417 167.275 141.297 167.116 141.156C166.974 141.029 166.894 140.913 166.872 140.88L170.2 138.661C170.024 138.396 169.651 137.927 168.965 137.698L167.7 141.493ZM166.77 140.709C167.139 141.402 167.071 142.217 166.846 143.863L170.808 144.407C170.99 143.085 171.388 140.874 170.302 138.831L166.77 140.709ZM166.85 143.834C166.665 145.051 166.342 146.943 167.118 148.677L170.769 147.043C170.555 146.566 170.582 145.896 170.804 144.436L166.85 143.834ZM167.116 148.672C167.649 149.871 168.611 150.764 169.188 151.34L172.016 148.512C171.255 147.75 170.936 147.42 170.771 147.048L167.116 148.672ZM169.227 151.378C169.777 151.9 170.181 152.322 170.436 152.741L173.853 150.661C173.293 149.742 172.533 149 171.978 148.474L169.227 151.378ZM170.441 152.749C171.03 153.707 171.105 154.96 171.105 156.794H175.105C175.105 155.135 175.121 152.722 173.848 150.653L170.441 152.749ZM171.105 156.794C171.105 158.433 171.031 160.893 172.532 162.865L175.715 160.443C175.178 159.737 175.105 158.764 175.105 156.794H171.105ZM172.551 162.889C172.97 163.423 173.476 163.924 173.957 164.336L176.56 161.299C176.226 161.013 175.916 160.699 175.696 160.418L172.551 162.889ZM173.897 164.283C174.34 164.694 174.624 164.96 174.84 165.24C175.029 165.486 175.089 165.651 175.106 165.795L179.077 165.311C178.827 163.264 177.305 161.989 176.619 161.352L173.897 164.283ZM175.107 165.801C175.143 166.09 175.051 166.373 174.642 167.326L178.319 168.902C178.608 168.225 179.273 166.878 179.076 165.305L175.107 165.801ZM174.662 167.281C174.385 167.886 173.823 169.04 173.935 170.324L177.92 169.978C177.921 169.988 177.913 169.927 177.971 169.739C178.034 169.538 178.135 169.304 178.298 168.947L174.662 167.281ZM173.933 170.293C174.026 171.598 174.747 172.576 175.48 173.208C176.214 173.84 177.104 174.262 177.933 174.474L178.927 170.6C178.621 170.521 178.303 170.361 178.091 170.178C177.879 169.995 177.916 169.926 177.922 170.008L173.933 170.293ZM177.91 174.468C178.904 174.736 179.939 174.772 180.679 174.823L180.954 170.833C180.006 170.767 179.469 170.746 178.95 170.606L177.91 174.468ZM180.716 174.826C181.314 174.856 181.798 174.881 182.266 174.952L182.859 170.996C182.163 170.891 181.482 170.859 180.916 170.831L180.716 174.826ZM182.276 174.953C184.229 175.235 186.096 176.491 187.34 178.548L190.763 176.478C188.981 173.531 186.134 171.469 182.848 170.994L182.276 174.953ZM187.339 178.545C188.531 180.526 188.791 182.651 188.243 184.473L192.073 185.627C192.979 182.619 192.482 179.332 190.765 176.481L187.339 178.545ZM191.003 186.863C191.423 186.667 192.046 186.559 192.91 186.744L193.749 182.833C192.169 182.494 190.638 182.619 189.312 183.238L191.003 186.863ZM192.913 186.745C193.967 186.969 194.814 187.515 195.155 188.06L198.547 185.94C197.432 184.157 195.428 183.19 193.746 182.832L192.913 186.745ZM198.412 188.249C198.339 188.341 198.253 188.404 198.182 188.44L196.393 184.862C195.972 185.072 195.595 185.368 195.289 185.751L198.412 188.249ZM198.228 188.415C198.146 188.459 198.09 188.461 198.116 188.459C198.132 188.457 198.164 188.456 198.222 188.458C198.284 188.459 198.351 188.464 198.454 188.471L198.739 184.481C198.386 184.456 197.357 184.347 196.346 184.886L198.228 188.415ZM198.597 188.476C198.597 188.476 198.598 188.476 198.598 188.476C198.598 188.476 198.599 188.476 198.599 188.476C198.6 188.476 198.6 188.476 198.601 188.476C198.601 188.476 198.602 188.476 198.602 188.476C198.603 188.476 198.603 188.476 198.603 188.476C198.604 188.476 198.604 188.476 198.605 188.476C198.605 188.476 198.606 188.476 198.606 188.476C198.607 188.476 198.607 188.476 198.608 188.476C198.608 188.476 198.608 188.476 198.609 188.476C198.609 188.476 198.61 188.476 198.61 188.476C198.611 188.476 198.611 188.476 198.612 188.476C198.612 188.476 198.613 188.476 198.613 188.476C198.613 188.476 198.614 188.476 198.614 188.476C198.615 188.476 198.615 188.476 198.616 188.476C198.616 188.476 198.617 188.476 198.617 188.476C198.618 188.476 198.618 188.476 198.618 188.476C198.619 188.476 198.619 188.476 198.62 188.476C198.62 188.476 198.621 188.476 198.621 188.476C198.622 188.476 198.622 188.476 198.623 188.476C198.623 188.476 198.623 188.476 198.624 188.476C198.624 188.476 198.625 188.476 198.625 188.476C198.626 188.476 198.626 188.476 198.627 188.476C198.627 188.476 198.628 188.476 198.628 188.476C198.628 188.476 198.629 188.476 198.629 188.476C198.63 188.476 198.63 188.476 198.631 188.476C198.631 188.476 198.632 188.476 198.632 188.476C198.633 188.476 198.633 188.476 198.633 188.476C198.634 188.476 198.634 188.476 198.635 188.476C198.635 188.476 198.636 188.476 198.636 188.476C198.637 188.476 198.637 188.476 198.638 188.476C198.638 188.476 198.638 188.476 198.639 188.476C198.639 188.476 198.64 188.476 198.64 188.476C198.641 188.476 198.641 188.476 198.642 188.476C198.642 188.476 198.643 188.476 198.643 188.476C198.643 188.476 198.644 188.476 198.644 188.476C198.645 188.476 198.645 188.476 198.646 188.476C198.646 188.476 198.647 188.476 198.647 188.476C198.648 188.476 198.648 188.476 198.648 188.476C198.649 188.476 198.649 188.476 198.65 188.476C198.65 188.476 198.651 188.476 198.651 188.476C198.652 188.476 198.652 188.476 198.653 188.476C198.653 188.476 198.653 188.476 198.654 188.476C198.654 188.476 198.655 188.476 198.655 188.476C198.656 188.476 198.656 188.476 198.657 188.476C198.657 188.476 198.658 188.476 198.658 188.476C198.658 188.476 198.659 188.476 198.659 188.476C198.66 188.476 198.66 188.476 198.661 188.476C198.661 188.476 198.662 188.476 198.662 188.476C198.663 188.476 198.663 188.476 198.663 188.476C198.664 188.476 198.664 188.476 198.665 188.476C198.665 188.476 198.666 188.476 198.666 188.476C198.667 188.476 198.667 188.476 198.668 188.476C198.668 188.476 198.668 188.476 198.669 188.476C198.669 188.476 198.67 188.476 198.67 188.476C198.671 188.476 198.671 188.476 198.672 188.476C198.672 188.476 198.673 188.476 198.673 188.476C198.673 188.476 198.674 188.476 198.674 188.476C198.675 188.476 198.675 188.476 198.676 188.476C198.676 188.476 198.677 188.476 198.677 188.476C198.677 188.476 198.678 188.476 198.678 188.476C198.679 188.476 198.679 188.476 198.68 188.476C198.68 188.476 198.681 188.476 198.681 188.476C198.682 188.476 198.682 188.476 198.682 188.476C198.683 188.476 198.683 188.476 198.684 188.476C198.684 188.476 198.685 188.476 198.685 188.476C198.686 188.476 198.686 188.476 198.687 188.476C198.687 188.476 198.687 188.476 198.688 188.476C198.688 188.476 198.689 188.476 198.689 188.476C198.69 188.476 198.69 188.476 198.691 188.476C198.691 188.476 198.692 188.476 198.692 188.476C198.692 188.476 198.693 188.476 198.693 188.476C198.694 188.476 198.694 188.476 198.695 188.476C198.695 188.476 198.696 188.476 198.696 188.476C198.697 188.476 198.697 188.476 198.697 188.476C198.698 188.476 198.698 188.476 198.699 188.476C198.699 188.476 198.7 188.476 198.7 188.476C198.701 188.476 198.701 188.476 198.702 188.476C198.702 188.476 198.702 188.476 198.703 188.476C198.703 188.476 198.704 188.476 198.704 188.476C198.705 188.476 198.705 188.476 198.706 188.476C198.706 188.476 198.707 188.476 198.707 188.476C198.707 188.476 198.708 188.476 198.708 188.476C198.709 188.476 198.709 188.476 198.71 188.476C198.71 188.476 198.711 188.476 198.711 188.476C198.712 188.476 198.712 188.476 198.712 188.476C198.713 188.476 198.713 188.476 198.714 188.476C198.714 188.476 198.715 188.476 198.715 188.476C198.716 188.476 198.716 188.476 198.716 188.476C198.717 188.476 198.717 188.476 198.718 188.476C198.718 188.476 198.719 188.476 198.719 188.476C198.72 188.476 198.72 188.476 198.721 188.476C198.721 188.476 198.721 188.476 198.722 188.476C198.722 188.476 198.723 188.476 198.723 188.476C198.724 188.476 198.724 188.476 198.725 188.476C198.725 188.476 198.726 188.476 198.726 188.476C198.726 188.476 198.727 188.476 198.727 188.476C198.728 188.476 198.728 188.476 198.729 188.476C198.729 188.476 198.73 188.476 198.73 188.476C198.731 188.476 198.731 188.476 198.731 188.476C198.732 188.476 198.732 188.476 198.733 188.476C198.733 188.476 198.734 188.476 198.734 188.476C198.735 188.476 198.735 188.476 198.736 188.476C198.736 188.476 198.736 188.476 198.737 188.476C198.737 188.476 198.738 188.476 198.738 188.476C198.739 188.476 198.739 188.476 198.74 188.476C198.74 188.476 198.74 188.476 198.741 188.476C198.741 188.476 198.742 188.476 198.742 188.476C198.743 188.476 198.743 188.476 198.744 188.476C198.744 188.476 198.745 188.476 198.745 188.476C198.745 188.476 198.746 188.476 198.746 188.476C198.747 188.476 198.747 188.476 198.748 188.476C198.748 188.476 198.749 188.476 198.749 188.476C198.75 188.476 198.75 188.476 198.75 188.476C198.751 188.476 198.751 188.476 198.752 188.476C198.752 188.476 198.753 188.476 198.753 188.476C198.754 188.476 198.754 188.476 198.755 188.476C198.755 188.476 198.755 188.476 198.756 188.476C198.756 188.476 198.757 188.476 198.757 188.476C198.758 188.476 198.758 188.476 198.759 188.476C198.759 188.476 198.759 188.476 198.76 188.476C198.76 188.476 198.761 188.476 198.761 188.476C198.762 188.476 198.762 188.476 198.763 188.476C198.763 188.476 198.764 188.476 198.764 188.476C198.764 188.476 198.765 188.476 198.765 188.476C198.766 188.476 198.766 188.476 198.767 188.476C198.767 188.476 198.768 188.476 198.768 188.476C198.769 188.476 198.769 188.476 198.769 188.476C198.77 188.476 198.77 188.476 198.771 188.476C198.771 188.476 198.772 188.476 198.772 188.476C198.773 188.476 198.773 188.476 198.773 188.476C198.774 188.476 198.774 188.476 198.775 188.476C198.775 188.476 198.776 188.476 198.776 188.476C198.777 188.476 198.777 188.476 198.778 188.476C198.778 188.476 198.778 188.476 198.779 188.476C198.779 188.476 198.78 188.476 198.78 188.476C198.781 188.476 198.781 188.476 198.782 188.476C198.782 188.476 198.782 188.476 198.783 188.476C198.783 188.476 198.784 188.476 198.784 188.476C198.785 188.476 198.785 188.476 198.786 188.476C198.786 188.476 198.787 188.476 198.787 188.476C198.787 188.476 198.788 188.476 198.788 188.476C198.789 188.476 198.789 188.476 198.79 188.476C198.79 188.476 198.791 188.476 198.791 188.476C198.791 188.476 198.792 188.476 198.792 188.476C198.793 188.476 198.793 188.476 198.794 188.476C198.794 188.476 198.795 188.476 198.795 188.476C198.796 188.476 198.796 188.476 198.796 188.476C198.797 188.476 198.797 188.476 198.798 188.476C198.798 188.476 198.799 188.476 198.799 188.476C198.8 188.476 198.8 188.476 198.8 188.476C198.801 188.476 198.801 188.476 198.802 188.476C198.802 188.476 198.803 188.476 198.803 188.476C198.804 188.476 198.804 188.476 198.805 188.476C198.805 188.476 198.805 188.476 198.806 188.476C198.806 188.476 198.807 188.476 198.807 188.476C198.808 188.476 198.808 188.476 198.809 188.476C198.809 188.476 198.809 188.476 198.81 188.476C198.81 188.476 198.811 188.476 198.811 188.476C198.812 188.476 198.812 188.476 198.813 188.476C198.813 188.476 198.814 188.476 198.814 188.476C198.814 188.476 198.815 188.476 198.815 188.476C198.816 188.476 198.816 188.476 198.817 188.476C198.817 188.476 198.818 188.476 198.818 188.476C198.818 188.476 198.819 188.476 198.819 188.476C198.82 188.476 198.82 188.476 198.821 188.476C198.821 188.476 198.822 188.476 198.822 188.476C198.823 188.476 198.823 188.476 198.823 188.476C198.824 188.476 198.824 188.476 198.825 188.476C198.825 188.476 198.826 188.476 198.826 188.476C198.827 188.476 198.827 188.476 198.827 188.476C198.828 188.476 198.828 188.476 198.829 188.476C198.829 188.476 198.83 188.476 198.83 188.476C198.831 188.476 198.831 188.476 198.831 188.476C198.832 188.476 198.832 188.476 198.833 188.476C198.833 188.476 198.834 188.476 198.834 188.476C198.835 188.476 198.835 188.476 198.836 188.476C198.836 188.476 198.836 188.476 198.837 188.476C198.837 188.476 198.838 188.476 198.838 188.476C198.839 188.476 198.839 188.476 198.84 188.476C198.84 188.476 198.84 188.476 198.841 188.476C198.841 188.476 198.842 188.476 198.842 188.476C198.843 188.476 198.843 188.476 198.844 188.476C198.844 188.476 198.844 188.476 198.845 188.476C198.845 188.476 198.846 188.476 198.846 188.476C198.847 188.476 198.847 188.476 198.848 188.476C198.848 188.476 198.848 188.476 198.849 188.476C198.849 188.476 198.85 188.476 198.85 188.476C198.851 188.476 198.851 188.476 198.852 188.476C198.852 188.476 198.853 188.476 198.853 188.476C198.853 188.476 198.854 188.476 198.854 188.476C198.855 188.476 198.855 188.476 198.856 188.476C198.856 188.476 198.857 188.476 198.857 188.476C198.857 188.476 198.858 188.476 198.858 188.476C198.859 188.476 198.859 188.476 198.86 188.476C198.86 188.476 198.861 188.476 198.861 188.476C198.861 188.476 198.862 188.476 198.862 188.476C198.863 188.476 198.863 188.476 198.864 188.476C198.864 188.476 198.865 188.476 198.865 188.476C198.865 188.476 198.866 188.476 198.866 188.476C198.867 188.476 198.867 188.476 198.868 188.476C198.868 188.476 198.869 188.476 198.869 188.476C198.869 188.476 198.87 188.476 198.87 188.476C198.871 188.476 198.871 188.476 198.872 188.476C198.872 188.476 198.873 188.476 198.873 188.476C198.873 188.476 198.874 188.476 198.874 188.476C198.875 188.476 198.875 188.476 198.876 188.476C198.876 188.476 198.877 188.476 198.877 188.476C198.877 188.476 198.878 188.476 198.878 188.476C198.879 188.476 198.879 188.476 198.88 188.476C198.88 188.476 198.881 188.476 198.881 188.476C198.882 188.476 198.882 188.476 198.882 188.476C198.883 188.476 198.883 188.476 198.884 188.476C198.884 188.476 198.885 188.476 198.885 188.476C198.886 188.476 198.886 188.476 198.886 188.476C198.887 188.476 198.887 188.476 198.888 188.476C198.888 188.476 198.889 188.476 198.889 188.476C198.89 188.476 198.89 188.476 198.89 188.476C198.891 188.476 198.891 188.476 198.892 188.476C198.892 188.476 198.893 188.476 198.893 188.476C198.894 188.476 198.894 188.476 198.894 188.476C198.895 188.476 198.895 188.476 198.896 188.476C198.896 188.476 198.897 188.476 198.897 188.476C198.898 188.476 198.898 188.476 198.898 188.476C198.899 188.476 198.899 188.476 198.9 188.476C198.9 188.476 198.901 188.476 198.901 188.476C198.902 188.476 198.902 188.476 198.902 188.476C198.903 188.476 198.903 188.476 198.904 188.476C198.904 188.476 198.905 188.476 198.905 188.476C198.905 188.476 198.906 188.476 198.906 188.476C198.907 188.476 198.907 188.476 198.908 188.476C198.908 188.476 198.909 188.476 198.909 188.476C198.909 188.476 198.91 188.476 198.91 188.476C198.911 188.476 198.911 188.476 198.912 188.476C198.912 188.476 198.913 188.476 198.913 188.476C198.913 188.476 198.914 188.476 198.914 188.476C198.915 188.476 198.915 188.476 198.916 188.476C198.916 188.476 198.917 188.476 198.917 188.476C198.917 188.476 198.918 188.476 198.918 188.476C198.919 188.476 198.919 188.476 198.92 188.476C198.92 188.476 198.921 188.476 198.921 188.476C198.921 188.476 198.922 188.476 198.922 188.476C198.923 188.476 198.923 188.476 198.924 188.476C198.924 188.476 198.925 188.476 198.925 188.476C198.925 188.476 198.926 188.476 198.926 188.476C198.927 188.476 198.927 188.476 198.928 188.476C198.928 188.476 198.929 188.476 198.929 188.476C198.929 188.476 198.93 188.476 198.93 188.476C198.931 188.476 198.931 188.476 198.932 188.476C198.932 188.476 198.932 188.476 198.933 188.476C198.933 188.476 198.934 188.476 198.934 188.476C198.935 188.476 198.935 188.476 198.936 188.476C198.936 188.476 198.936 188.476 198.937 188.476C198.937 188.476 198.938 188.476 198.938 188.476C198.939 188.476 198.939 188.476 198.94 188.476C198.94 188.476 198.94 188.476 198.941 188.476C198.941 188.476 198.942 188.476 198.942 188.476C198.943 188.476 198.943 188.476 198.944 188.476C198.944 188.476 198.944 188.476 198.945 188.476C198.945 188.476 198.946 188.476 198.946 188.476C198.947 188.476 198.947 188.476 198.947 188.476C198.948 188.476 198.948 188.476 198.949 188.476C198.949 188.476 198.95 188.476 198.95 188.476C198.951 188.476 198.951 188.476 198.951 188.476C198.952 188.476 198.952 188.476 198.953 188.476C198.953 188.476 198.954 188.476 198.954 188.476C198.954 188.476 198.955 188.476 198.955 188.476C198.956 188.476 198.956 188.476 198.957 188.476C198.957 188.476 198.958 188.476 198.958 188.476C198.958 188.476 198.959 188.476 198.959 188.476C198.96 188.476 198.96 188.476 198.961 188.476C198.961 188.476 198.962 188.476 198.962 188.476C198.962 188.476 198.963 188.476 198.963 188.476C198.964 188.476 198.964 188.476 198.965 188.476C198.965 188.476 198.965 188.476 198.966 188.476C198.966 188.476 198.967 188.476 198.967 188.476C198.968 188.476 198.968 188.476 198.969 188.476C198.969 188.476 198.969 188.476 198.97 188.476C198.97 188.476 198.971 188.476 198.971 188.476C198.972 188.476 198.972 188.476 198.972 188.476C198.973 188.476 198.973 188.476 198.974 188.476C198.974 188.476 198.975 188.476 198.975 188.476C198.976 188.476 198.976 188.476 198.976 188.476C198.977 188.476 198.977 188.476 198.978 188.476C198.978 188.476 198.979 188.476 198.979 188.476C198.979 188.476 198.98 188.476 198.98 188.476C198.981 188.476 198.981 188.476 198.982 188.476C198.982 188.476 198.983 188.476 198.983 188.476C198.983 188.476 198.984 188.476 198.984 188.476C198.985 188.476 198.985 188.476 198.986 188.476C198.986 188.476 198.986 188.476 198.987 188.476C198.987 188.476 198.988 188.476 198.988 188.476C198.989 188.476 198.989 188.476 198.99 188.476C198.99 188.476 198.99 188.476 198.991 188.476C198.991 188.476 198.992 188.476 198.992 188.476C198.993 188.476 198.993 188.476 198.993 188.476C198.994 188.476 198.994 188.476 198.995 188.476C198.995 188.476 198.996 188.476 198.996 188.476C198.997 188.476 198.997 188.476 198.997 188.476C198.998 188.476 198.998 188.476 198.999 188.476C198.999 188.476 199 188.476 199 188.476C199 188.476 199.001 188.476 199.001 188.476C199.002 188.476 199.002 188.476 199.003 188.476C199.003 188.476 199.003 188.476 199.004 188.476C199.004 188.476 199.005 188.476 199.005 188.476C199.006 188.476 199.006 188.476 199.007 188.476C199.007 188.476 199.007 188.476 199.008 188.476C199.008 188.476 199.009 188.476 199.009 188.476C199.01 188.476 199.01 188.476 199.01 188.476C199.011 188.476 199.011 188.476 199.012 188.476C199.012 188.476 199.013 188.476 199.013 188.476C199.013 188.476 199.014 188.476 199.014 188.476C199.015 188.476 199.015 188.476 199.016 188.476C199.016 188.476 199.016 188.476 199.017 188.476C199.017 188.476 199.018 188.476 199.018 188.476C199.019 188.476 199.019 188.476 199.02 188.476C199.02 188.476 199.02 188.476 199.021 188.476C199.021 188.476 199.022 188.476 199.022 188.476C199.023 188.476 199.023 188.476 199.023 188.476C199.024 188.476 199.024 188.476 199.025 188.476C199.025 188.476 199.026 188.476 199.026 188.476C199.026 188.476 199.027 188.476 199.027 188.476C199.028 188.476 199.028 188.476 199.029 188.476C199.029 188.476 199.029 188.476 199.03 188.476C199.03 188.476 199.031 188.476 199.031 188.476C199.032 188.476 199.032 188.476 199.032 188.476C199.033 188.476 199.033 188.476 199.034 188.476C199.034 188.476 199.035 188.476 199.035 188.476C199.036 188.476 199.036 188.476 199.036 188.476C199.037 188.476 199.037 188.476 199.038 188.476C199.038 188.476 199.039 188.476 199.039 188.476C199.039 188.476 199.04 188.476 199.04 188.476C199.041 188.476 199.041 188.476 199.042 188.476C199.042 188.476 199.042 188.476 199.043 188.476C199.043 188.476 199.044 188.476 199.044 188.476C199.045 188.476 199.045 188.476 199.045 188.476C199.046 188.476 199.046 188.476 199.047 188.476C199.047 188.476 199.048 188.476 199.048 188.476C199.048 188.476 199.049 188.476 199.049 188.476C199.05 188.476 199.05 188.476 199.051 188.476C199.051 188.476 199.051 188.476 199.052 188.476C199.052 188.476 199.053 188.476 199.053 188.476C199.054 188.476 199.054 188.476 199.054 188.476C199.055 188.476 199.055 188.476 199.056 188.476C199.056 188.476 199.057 188.476 199.057 188.476C199.057 188.476 199.058 188.476 199.058 188.476C199.059 188.476 199.059 188.476 199.06 188.476C199.06 188.476 199.06 188.476 199.061 188.476C199.061 188.476 199.062 188.476 199.062 188.476C199.063 188.476 199.063 188.476 199.063 188.476C199.064 188.476 199.064 188.476 199.065 188.476C199.065 188.476 199.066 188.476 199.066 188.476C199.066 188.476 199.067 188.476 199.067 188.476C199.068 188.476 199.068 188.476 199.069 188.476C199.069 188.476 199.069 188.476 199.07 188.476C199.07 188.476 199.071 188.476 199.071 188.476C199.072 188.476 199.072 188.476 199.072 188.476C199.073 188.476 199.073 188.476 199.074 188.476C199.074 188.476 199.075 188.476 199.075 188.476C199.075 188.476 199.076 188.476 199.076 188.476C199.077 188.476 199.077 188.476 199.078 188.476C199.078 188.476 199.078 188.476 199.079 188.476C199.079 188.476 199.08 188.476 199.08 188.476C199.081 188.476 199.081 188.476 199.081 188.476C199.082 188.476 199.082 188.476 199.083 188.476C199.083 188.476 199.084 188.476 199.084 188.476C199.084 188.476 199.085 188.476 199.085 188.476C199.086 188.476 199.086 188.476 199.087 188.476C199.087 188.476 199.087 188.476 199.088 188.476C199.088 188.476 199.089 188.476 199.089 188.476C199.089 188.476 199.09 188.476 199.09 188.476C199.091 188.476 199.091 188.476 199.092 188.476C199.092 188.476 199.092 188.476 199.093 188.476C199.093 188.476 199.094 188.476 199.094 188.476C199.095 188.476 199.095 188.476 199.095 188.476C199.096 188.476 199.096 188.476 199.097 188.476C199.097 188.476 199.098 188.476 199.098 188.476C199.098 188.476 199.099 188.476 199.099 188.476C199.1 188.476 199.1 188.476 199.101 188.476C199.101 188.476 199.101 188.476 199.102 188.476C199.102 188.476 199.103 188.476 199.103 188.476C199.103 188.476 199.104 188.476 199.104 188.476C199.105 188.476 199.105 188.476 199.106 188.476C199.106 188.476 199.106 188.476 199.107 188.476C199.107 188.476 199.108 188.476 199.108 188.476C199.109 188.476 199.109 188.476 199.109 188.476C199.11 188.476 199.11 188.476 199.111 188.476C199.111 188.476 199.112 188.476 199.112 188.476C199.112 188.476 199.113 188.476 199.113 188.476C199.114 188.476 199.114 188.476 199.114 188.476C199.115 188.476 199.115 188.476 199.116 188.476C199.116 188.476 199.117 188.476 199.117 188.476C199.117 188.476 199.118 188.476 199.118 188.476C199.119 188.476 199.119 188.476 199.12 188.476C199.12 188.476 199.12 188.476 199.121 188.476C199.121 188.476 199.122 188.476 199.122 188.476C199.122 188.476 199.123 188.476 199.123 188.476C199.124 188.476 199.124 188.476 199.125 188.476C199.125 188.476 199.125 188.476 199.126 188.476C199.126 188.476 199.127 188.476 199.127 188.476C199.128 188.476 199.128 188.476 199.128 188.476C199.129 188.476 199.129 188.476 199.13 188.476C199.13 188.476 199.13 188.476 199.131 188.476C199.131 188.476 199.132 188.476 199.132 188.476C199.133 188.476 199.133 188.476 199.133 188.476C199.134 188.476 199.134 188.476 199.135 188.476C199.135 188.476 199.136 188.476 199.136 188.476C199.136 188.476 199.137 188.476 199.137 188.476C199.138 188.476 199.138 188.476 199.138 188.476C199.139 188.476 199.139 188.476 199.14 188.476C199.14 188.476 199.141 188.476 199.141 188.476C199.141 188.476 199.142 188.476 199.142 188.476C199.143 188.476 199.143 188.476 199.143 188.476C199.144 188.476 199.144 188.476 199.145 188.476C199.145 188.476 199.146 188.476 199.146 188.476C199.146 188.476 199.147 188.476 199.147 188.476C199.148 188.476 199.148 188.476 199.148 188.476C199.149 188.476 199.149 188.476 199.15 188.476C199.15 188.476 199.151 188.476 199.151 188.476C199.151 188.476 199.152 188.476 199.152 188.476C199.153 188.476 199.153 188.476 199.153 188.476C199.154 188.476 199.154 188.476 199.155 188.476C199.155 188.476 199.156 188.476 199.156 188.476C199.156 188.476 199.157 188.476 199.157 188.476C199.158 188.476 199.158 188.476 199.158 188.476C199.159 188.476 199.159 188.476 199.16 188.476C199.16 188.476 199.161 188.476 199.161 188.476C199.161 188.476 199.162 188.476 199.162 188.476C199.163 188.476 199.163 188.476 199.163 188.476C199.164 188.476 199.164 188.476 199.165 188.476C199.165 188.476 199.166 188.476 199.166 188.476C199.166 188.476 199.167 188.476 199.167 188.476C199.168 188.476 199.168 188.476 199.168 188.476C199.169 188.476 199.169 188.476 199.17 188.476C199.17 188.476 199.17 188.476 199.171 188.476C199.171 188.476 199.172 188.476 199.172 188.476C199.173 188.476 199.173 188.476 199.173 188.476C199.174 188.476 199.174 188.476 199.175 188.476C199.175 188.476 199.175 188.476 199.176 188.476C199.176 188.476 199.177 188.476 199.177 188.476C199.178 188.476 199.178 188.476 199.178 188.476C199.179 188.476 199.179 188.476 199.18 188.476C199.18 188.476 199.18 188.476 199.181 188.476C199.181 188.476 199.182 188.476 199.182 188.476C199.182 188.476 199.183 188.476 199.183 188.476C199.184 188.476 199.184 188.476 199.185 188.476C199.185 188.476 199.185 188.476 199.186 188.476C199.186 188.476 199.187 188.476 199.187 188.476C199.187 188.476 199.188 188.476 199.188 188.476C199.189 188.476 199.189 188.476 199.189 188.476C199.19 188.476 199.19 188.476 199.191 188.476C199.191 188.476 199.192 188.476 199.192 188.476C199.192 188.476 199.193 188.476 199.193 188.476C199.194 188.476 199.194 188.476 199.194 188.476C199.195 188.476 199.195 188.476 199.196 188.476C199.196 188.476 199.196 188.476 199.197 188.476C199.197 188.476 199.198 188.476 199.198 188.476C199.198 188.476 199.199 188.476 199.199 188.476C199.2 188.476 199.2 188.476 199.201 188.476C199.201 188.476 199.201 188.476 199.202 188.476C199.202 188.476 199.203 188.476 199.203 188.476C199.203 188.476 199.204 188.476 199.204 188.476C199.205 188.476 199.205 188.476 199.205 188.476C199.206 188.476 199.206 188.476 199.207 188.476C199.207 188.476 199.207 188.476 199.208 188.476C199.208 188.476 199.209 188.476 199.209 188.476C199.21 188.476 199.21 188.476 199.21 188.476C199.211 188.476 199.211 188.476 199.212 188.476C199.212 188.476 199.212 188.476 199.213 188.476C199.213 188.476 199.214 188.476 199.214 188.476C199.214 188.476 199.215 188.476 199.215 188.476C199.216 188.476 199.216 188.476 199.216 188.476C199.217 188.476 199.217 188.476 199.218 188.476C199.218 188.476 199.218 188.476 199.219 188.476C199.219 188.476 199.22 188.476 199.22 188.476C199.221 188.476 199.221 188.476 199.221 188.476C199.222 188.476 199.222 188.476 199.223 188.476C199.223 188.476 199.223 188.476 199.224 188.476C199.224 188.476 199.225 188.476 199.225 188.476C199.225 188.476 199.226 188.476 199.226 188.476C199.227 188.476 199.227 188.476 199.227 188.476C199.228 188.476 199.228 188.476 199.229 188.476C199.229 188.476 199.229 188.476 199.23 188.476C199.23 188.476 199.231 188.476 199.231 188.476C199.231 188.476 199.232 188.476 199.232 188.476C199.233 188.476 199.233 188.476 199.233 188.476C199.234 188.476 199.234 188.476 199.235 188.476C199.235 188.476 199.235 188.476 199.236 188.476C199.236 188.476 199.237 188.476 199.237 188.476C199.237 188.476 199.238 188.476 199.238 188.476C199.239 188.476 199.239 188.476 199.24 188.476C199.24 188.476 199.24 188.476 199.241 188.476C199.241 188.476 199.242 188.476 199.242 188.476C199.242 188.476 199.243 188.476 199.243 188.476C199.244 188.476 199.244 188.476 199.244 188.476C199.245 188.476 199.245 188.476 199.246 188.476C199.246 188.476 199.246 188.476 199.247 188.476C199.247 188.476 199.248 188.476 199.248 188.476C199.248 188.476 199.249 188.476 199.249 188.476C199.25 188.476 199.25 188.476 199.25 188.476C199.251 188.476 199.251 188.476 199.252 188.476C199.252 188.476 199.252 188.476 199.253 188.476C199.253 188.476 199.254 188.476 199.254 188.476C199.254 188.476 199.255 188.476 199.255 188.476C199.256 188.476 199.256 188.476 199.256 188.476C199.257 188.476 199.257 188.476 199.258 188.476C199.258 188.476 199.258 188.476 199.259 188.476C199.259 188.476 199.26 188.476 199.26 188.476C199.26 188.476 199.261 188.476 199.261 188.476C199.262 188.476 199.262 188.476 199.262 188.476C199.263 188.476 199.263 188.476 199.264 188.476C199.264 188.476 199.264 188.476 199.265 188.476C199.265 188.476 199.266 188.476 199.266 188.476V184.476C199.266 184.476 199.265 184.476 199.265 184.476C199.264 184.476 199.264 184.476 199.264 184.476C199.263 184.476 199.263 184.476 199.262 184.476C199.262 184.476 199.262 184.476 199.261 184.476C199.261 184.476 199.26 184.476 199.26 184.476C199.26 184.476 199.259 184.476 199.259 184.476C199.258 184.476 199.258 184.476 199.258 184.476C199.257 184.476 199.257 184.476 199.256 184.476C199.256 184.476 199.256 184.476 199.255 184.476C199.255 184.476 199.254 184.476 199.254 184.476C199.254 184.476 199.253 184.476 199.253 184.476C199.252 184.476 199.252 184.476 199.252 184.476C199.251 184.476 199.251 184.476 199.25 184.476C199.25 184.476 199.25 184.476 199.249 184.476C199.249 184.476 199.248 184.476 199.248 184.476C199.248 184.476 199.247 184.476 199.247 184.476C199.246 184.476 199.246 184.476 199.246 184.476C199.245 184.476 199.245 184.476 199.244 184.476C199.244 184.476 199.244 184.476 199.243 184.476C199.243 184.476 199.242 184.476 199.242 184.476C199.242 184.476 199.241 184.476 199.241 184.476C199.24 184.476 199.24 184.476 199.24 184.476C199.239 184.476 199.239 184.476 199.238 184.476C199.238 184.476 199.237 184.476 199.237 184.476C199.237 184.476 199.236 184.476 199.236 184.476C199.235 184.476 199.235 184.476 199.235 184.476C199.234 184.476 199.234 184.476 199.233 184.476C199.233 184.476 199.233 184.476 199.232 184.476C199.232 184.476 199.231 184.476 199.231 184.476C199.231 184.476 199.23 184.476 199.23 184.476C199.229 184.476 199.229 184.476 199.229 184.476C199.228 184.476 199.228 184.476 199.227 184.476C199.227 184.476 199.227 184.476 199.226 184.476C199.226 184.476 199.225 184.476 199.225 184.476C199.225 184.476 199.224 184.476 199.224 184.476C199.223 184.476 199.223 184.476 199.223 184.476C199.222 184.476 199.222 184.476 199.221 184.476C199.221 184.476 199.221 184.476 199.22 184.476C199.22 184.476 199.219 184.476 199.219 184.476C199.218 184.476 199.218 184.476 199.218 184.476C199.217 184.476 199.217 184.476 199.216 184.476C199.216 184.476 199.216 184.476 199.215 184.476C199.215 184.476 199.214 184.476 199.214 184.476C199.214 184.476 199.213 184.476 199.213 184.476C199.212 184.476 199.212 184.476 199.212 184.476C199.211 184.476 199.211 184.476 199.21 184.476C199.21 184.476 199.21 184.476 199.209 184.476C199.209 184.476 199.208 184.476 199.208 184.476C199.207 184.476 199.207 184.476 199.207 184.476C199.206 184.476 199.206 184.476 199.205 184.476C199.205 184.476 199.205 184.476 199.204 184.476C199.204 184.476 199.203 184.476 199.203 184.476C199.203 184.476 199.202 184.476 199.202 184.476C199.201 184.476 199.201 184.476 199.201 184.476C199.2 184.476 199.2 184.476 199.199 184.476C199.199 184.476 199.198 184.476 199.198 184.476C199.198 184.476 199.197 184.476 199.197 184.476C199.196 184.476 199.196 184.476 199.196 184.476C199.195 184.476 199.195 184.476 199.194 184.476C199.194 184.476 199.194 184.476 199.193 184.476C199.193 184.476 199.192 184.476 199.192 184.476C199.192 184.476 199.191 184.476 199.191 184.476C199.19 184.476 199.19 184.476 199.189 184.476C199.189 184.476 199.189 184.476 199.188 184.476C199.188 184.476 199.187 184.476 199.187 184.476C199.187 184.476 199.186 184.476 199.186 184.476C199.185 184.476 199.185 184.476 199.185 184.476C199.184 184.476 199.184 184.476 199.183 184.476C199.183 184.476 199.182 184.476 199.182 184.476C199.182 184.476 199.181 184.476 199.181 184.476C199.18 184.476 199.18 184.476 199.18 184.476C199.179 184.476 199.179 184.476 199.178 184.476C199.178 184.476 199.178 184.476 199.177 184.476C199.177 184.476 199.176 184.476 199.176 184.476C199.175 184.476 199.175 184.476 199.175 184.476C199.174 184.476 199.174 184.476 199.173 184.476C199.173 184.476 199.173 184.476 199.172 184.476C199.172 184.476 199.171 184.476 199.171 184.476C199.17 184.476 199.17 184.476 199.17 184.476C199.169 184.476 199.169 184.476 199.168 184.476C199.168 184.476 199.168 184.476 199.167 184.476C199.167 184.476 199.166 184.476 199.166 184.476C199.166 184.476 199.165 184.476 199.165 184.476C199.164 184.476 199.164 184.476 199.163 184.476C199.163 184.476 199.163 184.476 199.162 184.476C199.162 184.476 199.161 184.476 199.161 184.476C199.161 184.476 199.16 184.476 199.16 184.476C199.159 184.476 199.159 184.476 199.158 184.476C199.158 184.476 199.158 184.476 199.157 184.476C199.157 184.476 199.156 184.476 199.156 184.476C199.156 184.476 199.155 184.476 199.155 184.476C199.154 184.476 199.154 184.476 199.153 184.476C199.153 184.476 199.153 184.476 199.152 184.476C199.152 184.476 199.151 184.476 199.151 184.476C199.151 184.476 199.15 184.476 199.15 184.476C199.149 184.476 199.149 184.476 199.148 184.476C199.148 184.476 199.148 184.476 199.147 184.476C199.147 184.476 199.146 184.476 199.146 184.476C199.146 184.476 199.145 184.476 199.145 184.476C199.144 184.476 199.144 184.476 199.143 184.476C199.143 184.476 199.143 184.476 199.142 184.476C199.142 184.476 199.141 184.476 199.141 184.476C199.141 184.476 199.14 184.476 199.14 184.476C199.139 184.476 199.139 184.476 199.138 184.476C199.138 184.476 199.138 184.476 199.137 184.476C199.137 184.476 199.136 184.476 199.136 184.476C199.136 184.476 199.135 184.476 199.135 184.476C199.134 184.476 199.134 184.476 199.133 184.476C199.133 184.476 199.133 184.476 199.132 184.476C199.132 184.476 199.131 184.476 199.131 184.476C199.13 184.476 199.13 184.476 199.13 184.476C199.129 184.476 199.129 184.476 199.128 184.476C199.128 184.476 199.128 184.476 199.127 184.476C199.127 184.476 199.126 184.476 199.126 184.476C199.125 184.476 199.125 184.476 199.125 184.476C199.124 184.476 199.124 184.476 199.123 184.476C199.123 184.476 199.122 184.476 199.122 184.476C199.122 184.476 199.121 184.476 199.121 184.476C199.12 184.476 199.12 184.476 199.12 184.476C199.119 184.476 199.119 184.476 199.118 184.476C199.118 184.476 199.117 184.476 199.117 184.476C199.117 184.476 199.116 184.476 199.116 184.476C199.115 184.476 199.115 184.476 199.114 184.476C199.114 184.476 199.114 184.476 199.113 184.476C199.113 184.476 199.112 184.476 199.112 184.476C199.112 184.476 199.111 184.476 199.111 184.476C199.11 184.476 199.11 184.476 199.109 184.476C199.109 184.476 199.109 184.476 199.108 184.476C199.108 184.476 199.107 184.476 199.107 184.476C199.106 184.476 199.106 184.476 199.106 184.476C199.105 184.476 199.105 184.476 199.104 184.476C199.104 184.476 199.103 184.476 199.103 184.476C199.103 184.476 199.102 184.476 199.102 184.476C199.101 184.476 199.101 184.476 199.101 184.476C199.1 184.476 199.1 184.476 199.099 184.476C199.099 184.476 199.098 184.476 199.098 184.476C199.098 184.476 199.097 184.476 199.097 184.476C199.096 184.476 199.096 184.476 199.095 184.476C199.095 184.476 199.095 184.476 199.094 184.476C199.094 184.476 199.093 184.476 199.093 184.476C199.092 184.476 199.092 184.476 199.092 184.476C199.091 184.476 199.091 184.476 199.09 184.476C199.09 184.476 199.089 184.476 199.089 184.476C199.089 184.476 199.088 184.476 199.088 184.476C199.087 184.476 199.087 184.476 199.087 184.476C199.086 184.476 199.086 184.476 199.085 184.476C199.085 184.476 199.084 184.476 199.084 184.476C199.084 184.476 199.083 184.476 199.083 184.476C199.082 184.476 199.082 184.476 199.081 184.476C199.081 184.476 199.081 184.476 199.08 184.476C199.08 184.476 199.079 184.476 199.079 184.476C199.078 184.476 199.078 184.476 199.078 184.476C199.077 184.476 199.077 184.476 199.076 184.476C199.076 184.476 199.075 184.476 199.075 184.476C199.075 184.476 199.074 184.476 199.074 184.476C199.073 184.476 199.073 184.476 199.072 184.476C199.072 184.476 199.072 184.476 199.071 184.476C199.071 184.476 199.07 184.476 199.07 184.476C199.069 184.476 199.069 184.476 199.069 184.476C199.068 184.476 199.068 184.476 199.067 184.476C199.067 184.476 199.066 184.476 199.066 184.476C199.066 184.476 199.065 184.476 199.065 184.476C199.064 184.476 199.064 184.476 199.063 184.476C199.063 184.476 199.063 184.476 199.062 184.476C199.062 184.476 199.061 184.476 199.061 184.476C199.06 184.476 199.06 184.476 199.06 184.476C199.059 184.476 199.059 184.476 199.058 184.476C199.058 184.476 199.057 184.476 199.057 184.476C199.057 184.476 199.056 184.476 199.056 184.476C199.055 184.476 199.055 184.476 199.054 184.476C199.054 184.476 199.054 184.476 199.053 184.476C199.053 184.476 199.052 184.476 199.052 184.476C199.051 184.476 199.051 184.476 199.051 184.476C199.05 184.476 199.05 184.476 199.049 184.476C199.049 184.476 199.048 184.476 199.048 184.476C199.048 184.476 199.047 184.476 199.047 184.476C199.046 184.476 199.046 184.476 199.045 184.476C199.045 184.476 199.045 184.476 199.044 184.476C199.044 184.476 199.043 184.476 199.043 184.476C199.042 184.476 199.042 184.476 199.042 184.476C199.041 184.476 199.041 184.476 199.04 184.476C199.04 184.476 199.039 184.476 199.039 184.476C199.039 184.476 199.038 184.476 199.038 184.476C199.037 184.476 199.037 184.476 199.036 184.476C199.036 184.476 199.036 184.476 199.035 184.476C199.035 184.476 199.034 184.476 199.034 184.476C199.033 184.476 199.033 184.476 199.032 184.476C199.032 184.476 199.032 184.476 199.031 184.476C199.031 184.476 199.03 184.476 199.03 184.476C199.029 184.476 199.029 184.476 199.029 184.476C199.028 184.476 199.028 184.476 199.027 184.476C199.027 184.476 199.026 184.476 199.026 184.476C199.026 184.476 199.025 184.476 199.025 184.476C199.024 184.476 199.024 184.476 199.023 184.476C199.023 184.476 199.023 184.476 199.022 184.476C199.022 184.476 199.021 184.476 199.021 184.476C199.02 184.476 199.02 184.476 199.02 184.476C199.019 184.476 199.019 184.476 199.018 184.476C199.018 184.476 199.017 184.476 199.017 184.476C199.016 184.476 199.016 184.476 199.016 184.476C199.015 184.476 199.015 184.476 199.014 184.476C199.014 184.476 199.013 184.476 199.013 184.476C199.013 184.476 199.012 184.476 199.012 184.476C199.011 184.476 199.011 184.476 199.01 184.476C199.01 184.476 199.01 184.476 199.009 184.476C199.009 184.476 199.008 184.476 199.008 184.476C199.007 184.476 199.007 184.476 199.007 184.476C199.006 184.476 199.006 184.476 199.005 184.476C199.005 184.476 199.004 184.476 199.004 184.476C199.003 184.476 199.003 184.476 199.003 184.476C199.002 184.476 199.002 184.476 199.001 184.476C199.001 184.476 199 184.476 199 184.476C199 184.476 198.999 184.476 198.999 184.476C198.998 184.476 198.998 184.476 198.997 184.476C198.997 184.476 198.997 184.476 198.996 184.476C198.996 184.476 198.995 184.476 198.995 184.476C198.994 184.476 198.994 184.476 198.993 184.476C198.993 184.476 198.993 184.476 198.992 184.476C198.992 184.476 198.991 184.476 198.991 184.476C198.99 184.476 198.99 184.476 198.99 184.476C198.989 184.476 198.989 184.476 198.988 184.476C198.988 184.476 198.987 184.476 198.987 184.476C198.986 184.476 198.986 184.476 198.986 184.476C198.985 184.476 198.985 184.476 198.984 184.476C198.984 184.476 198.983 184.476 198.983 184.476C198.983 184.476 198.982 184.476 198.982 184.476C198.981 184.476 198.981 184.476 198.98 184.476C198.98 184.476 198.979 184.476 198.979 184.476C198.979 184.476 198.978 184.476 198.978 184.476C198.977 184.476 198.977 184.476 198.976 184.476C198.976 184.476 198.976 184.476 198.975 184.476C198.975 184.476 198.974 184.476 198.974 184.476C198.973 184.476 198.973 184.476 198.972 184.476C198.972 184.476 198.972 184.476 198.971 184.476C198.971 184.476 198.97 184.476 198.97 184.476C198.969 184.476 198.969 184.476 198.969 184.476C198.968 184.476 198.968 184.476 198.967 184.476C198.967 184.476 198.966 184.476 198.966 184.476C198.965 184.476 198.965 184.476 198.965 184.476C198.964 184.476 198.964 184.476 198.963 184.476C198.963 184.476 198.962 184.476 198.962 184.476C198.962 184.476 198.961 184.476 198.961 184.476C198.96 184.476 198.96 184.476 198.959 184.476C198.959 184.476 198.958 184.476 198.958 184.476C198.958 184.476 198.957 184.476 198.957 184.476C198.956 184.476 198.956 184.476 198.955 184.476C198.955 184.476 198.954 184.476 198.954 184.476C198.954 184.476 198.953 184.476 198.953 184.476C198.952 184.476 198.952 184.476 198.951 184.476C198.951 184.476 198.951 184.476 198.95 184.476C198.95 184.476 198.949 184.476 198.949 184.476C198.948 184.476 198.948 184.476 198.947 184.476C198.947 184.476 198.947 184.476 198.946 184.476C198.946 184.476 198.945 184.476 198.945 184.476C198.944 184.476 198.944 184.476 198.944 184.476C198.943 184.476 198.943 184.476 198.942 184.476C198.942 184.476 198.941 184.476 198.941 184.476C198.94 184.476 198.94 184.476 198.94 184.476C198.939 184.476 198.939 184.476 198.938 184.476C198.938 184.476 198.937 184.476 198.937 184.476C198.936 184.476 198.936 184.476 198.936 184.476C198.935 184.476 198.935 184.476 198.934 184.476C198.934 184.476 198.933 184.476 198.933 184.476C198.932 184.476 198.932 184.476 198.932 184.476C198.931 184.476 198.931 184.476 198.93 184.476C198.93 184.476 198.929 184.476 198.929 184.476C198.929 184.476 198.928 184.476 198.928 184.476C198.927 184.476 198.927 184.476 198.926 184.476C198.926 184.476 198.925 184.476 198.925 184.476C198.925 184.476 198.924 184.476 198.924 184.476C198.923 184.476 198.923 184.476 198.922 184.476C198.922 184.476 198.921 184.476 198.921 184.476C198.921 184.476 198.92 184.476 198.92 184.476C198.919 184.476 198.919 184.476 198.918 184.476C198.918 184.476 198.917 184.476 198.917 184.476C198.917 184.476 198.916 184.476 198.916 184.476C198.915 184.476 198.915 184.476 198.914 184.476C198.914 184.476 198.913 184.476 198.913 184.476C198.913 184.476 198.912 184.476 198.912 184.476C198.911 184.476 198.911 184.476 198.91 184.476C198.91 184.476 198.909 184.476 198.909 184.476C198.909 184.476 198.908 184.476 198.908 184.476C198.907 184.476 198.907 184.476 198.906 184.476C198.906 184.476 198.905 184.476 198.905 184.476C198.905 184.476 198.904 184.476 198.904 184.476C198.903 184.476 198.903 184.476 198.902 184.476C198.902 184.476 198.902 184.476 198.901 184.476C198.901 184.476 198.9 184.476 198.9 184.476C198.899 184.476 198.899 184.476 198.898 184.476C198.898 184.476 198.898 184.476 198.897 184.476C198.897 184.476 198.896 184.476 198.896 184.476C198.895 184.476 198.895 184.476 198.894 184.476C198.894 184.476 198.894 184.476 198.893 184.476C198.893 184.476 198.892 184.476 198.892 184.476C198.891 184.476 198.891 184.476 198.89 184.476C198.89 184.476 198.89 184.476 198.889 184.476C198.889 184.476 198.888 184.476 198.888 184.476C198.887 184.476 198.887 184.476 198.886 184.476C198.886 184.476 198.886 184.476 198.885 184.476C198.885 184.476 198.884 184.476 198.884 184.476C198.883 184.476 198.883 184.476 198.882 184.476C198.882 184.476 198.882 184.476 198.881 184.476C198.881 184.476 198.88 184.476 198.88 184.476C198.879 184.476 198.879 184.476 198.878 184.476C198.878 184.476 198.877 184.476 198.877 184.476C198.877 184.476 198.876 184.476 198.876 184.476C198.875 184.476 198.875 184.476 198.874 184.476C198.874 184.476 198.873 184.476 198.873 184.476C198.873 184.476 198.872 184.476 198.872 184.476C198.871 184.476 198.871 184.476 198.87 184.476C198.87 184.476 198.869 184.476 198.869 184.476C198.869 184.476 198.868 184.476 198.868 184.476C198.867 184.476 198.867 184.476 198.866 184.476C198.866 184.476 198.865 184.476 198.865 184.476C198.865 184.476 198.864 184.476 198.864 184.476C198.863 184.476 198.863 184.476 198.862 184.476C198.862 184.476 198.861 184.476 198.861 184.476C198.861 184.476 198.86 184.476 198.86 184.476C198.859 184.476 198.859 184.476 198.858 184.476C198.858 184.476 198.857 184.476 198.857 184.476C198.857 184.476 198.856 184.476 198.856 184.476C198.855 184.476 198.855 184.476 198.854 184.476C198.854 184.476 198.853 184.476 198.853 184.476C198.853 184.476 198.852 184.476 198.852 184.476C198.851 184.476 198.851 184.476 198.85 184.476C198.85 184.476 198.849 184.476 198.849 184.476C198.848 184.476 198.848 184.476 198.848 184.476C198.847 184.476 198.847 184.476 198.846 184.476C198.846 184.476 198.845 184.476 198.845 184.476C198.844 184.476 198.844 184.476 198.844 184.476C198.843 184.476 198.843 184.476 198.842 184.476C198.842 184.476 198.841 184.476 198.841 184.476C198.84 184.476 198.84 184.476 198.84 184.476C198.839 184.476 198.839 184.476 198.838 184.476C198.838 184.476 198.837 184.476 198.837 184.476C198.836 184.476 198.836 184.476 198.836 184.476C198.835 184.476 198.835 184.476 198.834 184.476C198.834 184.476 198.833 184.476 198.833 184.476C198.832 184.476 198.832 184.476 198.831 184.476C198.831 184.476 198.831 184.476 198.83 184.476C198.83 184.476 198.829 184.476 198.829 184.476C198.828 184.476 198.828 184.476 198.827 184.476C198.827 184.476 198.827 184.476 198.826 184.476C198.826 184.476 198.825 184.476 198.825 184.476C198.824 184.476 198.824 184.476 198.823 184.476C198.823 184.476 198.823 184.476 198.822 184.476C198.822 184.476 198.821 184.476 198.821 184.476C198.82 184.476 198.82 184.476 198.819 184.476C198.819 184.476 198.818 184.476 198.818 184.476C198.818 184.476 198.817 184.476 198.817 184.476C198.816 184.476 198.816 184.476 198.815 184.476C198.815 184.476 198.814 184.476 198.814 184.476C198.814 184.476 198.813 184.476 198.813 184.476C198.812 184.476 198.812 184.476 198.811 184.476C198.811 184.476 198.81 184.476 198.81 184.476C198.809 184.476 198.809 184.476 198.809 184.476C198.808 184.476 198.808 184.476 198.807 184.476C198.807 184.476 198.806 184.476 198.806 184.476C198.805 184.476 198.805 184.476 198.805 184.476C198.804 184.476 198.804 184.476 198.803 184.476C198.803 184.476 198.802 184.476 198.802 184.476C198.801 184.476 198.801 184.476 198.8 184.476C198.8 184.476 198.8 184.476 198.799 184.476C198.799 184.476 198.798 184.476 198.798 184.476C198.797 184.476 198.797 184.476 198.796 184.476C198.796 184.476 198.796 184.476 198.795 184.476C198.795 184.476 198.794 184.476 198.794 184.476C198.793 184.476 198.793 184.476 198.792 184.476C198.792 184.476 198.791 184.476 198.791 184.476C198.791 184.476 198.79 184.476 198.79 184.476C198.789 184.476 198.789 184.476 198.788 184.476C198.788 184.476 198.787 184.476 198.787 184.476C198.787 184.476 198.786 184.476 198.786 184.476C198.785 184.476 198.785 184.476 198.784 184.476C198.784 184.476 198.783 184.476 198.783 184.476C198.782 184.476 198.782 184.476 198.782 184.476C198.781 184.476 198.781 184.476 198.78 184.476C198.78 184.476 198.779 184.476 198.779 184.476C198.778 184.476 198.778 184.476 198.778 184.476C198.777 184.476 198.777 184.476 198.776 184.476C198.776 184.476 198.775 184.476 198.775 184.476C198.774 184.476 198.774 184.476 198.773 184.476C198.773 184.476 198.773 184.476 198.772 184.476C198.772 184.476 198.771 184.476 198.771 184.476C198.77 184.476 198.77 184.476 198.769 184.476C198.769 184.476 198.769 184.476 198.768 184.476C198.768 184.476 198.767 184.476 198.767 184.476C198.766 184.476 198.766 184.476 198.765 184.476C198.765 184.476 198.764 184.476 198.764 184.476C198.764 184.476 198.763 184.476 198.763 184.476C198.762 184.476 198.762 184.476 198.761 184.476C198.761 184.476 198.76 184.476 198.76 184.476C198.759 184.476 198.759 184.476 198.759 184.476C198.758 184.476 198.758 184.476 198.757 184.476C198.757 184.476 198.756 184.476 198.756 184.476C198.755 184.476 198.755 184.476 198.755 184.476C198.754 184.476 198.754 184.476 198.753 184.476C198.753 184.476 198.752 184.476 198.752 184.476C198.751 184.476 198.751 184.476 198.75 184.476C198.75 184.476 198.75 184.476 198.749 184.476C198.749 184.476 198.748 184.476 198.748 184.476C198.747 184.476 198.747 184.476 198.746 184.476C198.746 184.476 198.745 184.476 198.745 184.476C198.745 184.476 198.744 184.476 198.744 184.476C198.743 184.476 198.743 184.476 198.742 184.476C198.742 184.476 198.741 184.476 198.741 184.476C198.74 184.476 198.74 184.476 198.74 184.476C198.739 184.476 198.739 184.476 198.738 184.476C198.738 184.476 198.737 184.476 198.737 184.476C198.736 184.476 198.736 184.476 198.736 184.476C198.735 184.476 198.735 184.476 198.734 184.476C198.734 184.476 198.733 184.476 198.733 184.476C198.732 184.476 198.732 184.476 198.731 184.476C198.731 184.476 198.731 184.476 198.73 184.476C198.73 184.476 198.729 184.476 198.729 184.476C198.728 184.476 198.728 184.476 198.727 184.476C198.727 184.476 198.726 184.476 198.726 184.476C198.726 184.476 198.725 184.476 198.725 184.476C198.724 184.476 198.724 184.476 198.723 184.476C198.723 184.476 198.722 184.476 198.722 184.476C198.721 184.476 198.721 184.476 198.721 184.476C198.72 184.476 198.72 184.476 198.719 184.476C198.719 184.476 198.718 184.476 198.718 184.476C198.717 184.476 198.717 184.476 198.716 184.476C198.716 184.476 198.716 184.476 198.715 184.476C198.715 184.476 198.714 184.476 198.714 184.476C198.713 184.476 198.713 184.476 198.712 184.476C198.712 184.476 198.712 184.476 198.711 184.476C198.711 184.476 198.71 184.476 198.71 184.476C198.709 184.476 198.709 184.476 198.708 184.476C198.708 184.476 198.707 184.476 198.707 184.476C198.707 184.476 198.706 184.476 198.706 184.476C198.705 184.476 198.705 184.476 198.704 184.476C198.704 184.476 198.703 184.476 198.703 184.476C198.702 184.476 198.702 184.476 198.702 184.476C198.701 184.476 198.701 184.476 198.7 184.476C198.7 184.476 198.699 184.476 198.699 184.476C198.698 184.476 198.698 184.476 198.697 184.476C198.697 184.476 198.697 184.476 198.696 184.476C198.696 184.476 198.695 184.476 198.695 184.476C198.694 184.476 198.694 184.476 198.693 184.476C198.693 184.476 198.692 184.476 198.692 184.476C198.692 184.476 198.691 184.476 198.691 184.476C198.69 184.476 198.69 184.476 198.689 184.476C198.689 184.476 198.688 184.476 198.688 184.476C198.687 184.476 198.687 184.476 198.687 184.476C198.686 184.476 198.686 184.476 198.685 184.476C198.685 184.476 198.684 184.476 198.684 184.476C198.683 184.476 198.683 184.476 198.682 184.476C198.682 184.476 198.682 184.476 198.681 184.476C198.681 184.476 198.68 184.476 198.68 184.476C198.679 184.476 198.679 184.476 198.678 184.476C198.678 184.476 198.677 184.476 198.677 184.476C198.677 184.476 198.676 184.476 198.676 184.476C198.675 184.476 198.675 184.476 198.674 184.476C198.674 184.476 198.673 184.476 198.673 184.476C198.673 184.476 198.672 184.476 198.672 184.476C198.671 184.476 198.671 184.476 198.67 184.476C198.67 184.476 198.669 184.476 198.669 184.476C198.668 184.476 198.668 184.476 198.668 184.476C198.667 184.476 198.667 184.476 198.666 184.476C198.666 184.476 198.665 184.476 198.665 184.476C198.664 184.476 198.664 184.476 198.663 184.476C198.663 184.476 198.663 184.476 198.662 184.476C198.662 184.476 198.661 184.476 198.661 184.476C198.66 184.476 198.66 184.476 198.659 184.476C198.659 184.476 198.658 184.476 198.658 184.476C198.658 184.476 198.657 184.476 198.657 184.476C198.656 184.476 198.656 184.476 198.655 184.476C198.655 184.476 198.654 184.476 198.654 184.476C198.653 184.476 198.653 184.476 198.653 184.476C198.652 184.476 198.652 184.476 198.651 184.476C198.651 184.476 198.65 184.476 198.65 184.476C198.649 184.476 198.649 184.476 198.648 184.476C198.648 184.476 198.648 184.476 198.647 184.476C198.647 184.476 198.646 184.476 198.646 184.476C198.645 184.476 198.645 184.476 198.644 184.476C198.644 184.476 198.643 184.476 198.643 184.476C198.643 184.476 198.642 184.476 198.642 184.476C198.641 184.476 198.641 184.476 198.64 184.476C198.64 184.476 198.639 184.476 198.639 184.476C198.638 184.476 198.638 184.476 198.638 184.476C198.637 184.476 198.637 184.476 198.636 184.476C198.636 184.476 198.635 184.476 198.635 184.476C198.634 184.476 198.634 184.476 198.633 184.476C198.633 184.476 198.633 184.476 198.632 184.476C198.632 184.476 198.631 184.476 198.631 184.476C198.63 184.476 198.63 184.476 198.629 184.476C198.629 184.476 198.628 184.476 198.628 184.476C198.628 184.476 198.627 184.476 198.627 184.476C198.626 184.476 198.626 184.476 198.625 184.476C198.625 184.476 198.624 184.476 198.624 184.476C198.623 184.476 198.623 184.476 198.623 184.476C198.622 184.476 198.622 184.476 198.621 184.476C198.621 184.476 198.62 184.476 198.62 184.476C198.619 184.476 198.619 184.476 198.618 184.476C198.618 184.476 198.618 184.476 198.617 184.476C198.617 184.476 198.616 184.476 198.616 184.476C198.615 184.476 198.615 184.476 198.614 184.476C198.614 184.476 198.613 184.476 198.613 184.476C198.613 184.476 198.612 184.476 198.612 184.476C198.611 184.476 198.611 184.476 198.61 184.476C198.61 184.476 198.609 184.476 198.609 184.476C198.608 184.476 198.608 184.476 198.608 184.476C198.607 184.476 198.607 184.476 198.606 184.476C198.606 184.476 198.605 184.476 198.605 184.476C198.604 184.476 198.604 184.476 198.603 184.476C198.603 184.476 198.603 184.476 198.602 184.476C198.602 184.476 198.601 184.476 198.601 184.476C198.6 184.476 198.6 184.476 198.599 184.476C198.599 184.476 198.598 184.476 198.598 184.476C198.598 184.476 198.597 184.476 198.597 184.476V188.476ZM199.624 188.444C200.941 188.204 201.715 187.258 202.113 186.514C202.519 185.756 202.711 184.909 202.772 184.203L198.786 183.861C198.774 184.003 198.748 184.155 198.71 184.299C198.671 184.444 198.625 184.554 198.587 184.626C198.546 184.702 198.534 184.698 198.577 184.66C198.631 184.612 198.745 184.538 198.908 184.508L199.624 188.444ZM202.779 184.032C202.779 183.994 202.785 183.932 202.817 183.703L198.857 183.138C198.832 183.317 198.779 183.662 198.779 184.032H202.779ZM202.831 183.578C202.928 182.349 203.022 181.921 203.276 181.616L200.203 179.056C199.002 180.497 198.921 182.28 198.844 183.263L202.831 183.578ZM203.253 181.643C203.396 181.478 203.597 181.351 204.057 181.289C204.585 181.218 205.216 181.262 206.107 181.339L206.451 177.354C205.654 177.285 204.569 177.184 203.525 177.324C202.413 177.474 201.189 177.913 200.226 179.029L203.253 181.643ZM206.126 181.341C206.814 181.394 207.743 181.48 208.605 181.404C209.512 181.324 210.607 181.048 211.511 180.173L208.729 177.298C208.721 177.306 208.704 177.323 208.646 177.345C208.578 177.37 208.457 177.402 208.253 177.42C207.798 177.46 207.258 177.416 206.432 177.352L206.126 181.341ZM211.481 180.201C212.232 179.504 212.626 178.566 212.83 178.137L209.215 176.424C209.067 176.738 208.984 176.917 208.891 177.078C208.808 177.223 208.765 177.265 208.759 177.27L211.481 180.201ZM212.879 178.023L212.938 177.878L209.224 176.392L209.165 176.538L212.879 178.023ZM212.901 177.963C213.965 175.624 215.126 174.314 216.318 173.635L214.34 170.159C212.157 171.401 210.525 173.525 209.26 176.307L212.901 177.963ZM216.312 173.639C217.084 173.203 218.108 172.991 219.016 173.142L219.674 169.197C217.788 168.882 215.844 169.31 214.347 170.155L216.312 173.639ZM221.209 170.443C219.416 165.846 217.737 161.185 216.109 156.591L212.338 157.928C213.97 162.53 215.666 167.239 217.482 171.896L221.209 170.443ZM216.11 156.596C212.542 146.442 208.789 135.758 203.239 126.141L199.774 128.14C205.108 137.381 208.746 147.706 212.337 157.923L216.11 156.596ZM199.975 125.854C199.701 126.181 199.26 126.383 198.942 126.393L199.066 130.391C200.61 130.343 202.09 129.555 203.038 128.427L199.975 125.854ZM198.926 126.393C198.119 126.425 197.286 126.036 196.041 125.265L193.935 128.666C195.135 129.409 196.921 130.475 199.082 130.39L198.926 126.393ZM196.051 125.272C189.751 121.32 183.764 116.765 178.264 111.752L175.57 114.709C181.244 119.881 187.421 124.58 193.925 128.66L196.051 125.272ZM178.24 111.731L177.745 111.294L175.099 114.294L175.594 114.73L178.24 111.731ZM177.764 111.311C175.415 109.186 172.553 106.507 168.952 105.512L167.887 109.367C170.397 110.061 172.54 111.979 175.08 114.277L177.764 111.311ZM168.905 105.499C168.258 105.338 167.604 105.207 166.886 105.109L166.345 109.072C166.907 109.149 167.417 109.251 167.934 109.38L168.905 105.499ZM164.668 106.635C164.176 108.741 163.468 110.778 162.523 112.696L166.11 114.464C167.202 112.249 168.007 109.921 168.563 107.546L164.668 106.635ZM162.519 112.703C161.421 114.952 160.473 115.263 160.02 115.248L159.882 119.245C162.805 119.346 164.826 117.096 166.114 114.457L162.519 112.703Z" fill="white" mask="url(#path-4-inside-1_639_314)"/>
</g>
<defs>
<filter id="filter0_d_639_314" x="0" y="0" width="361" height="357" filterUnits="userSpaceOnUse" color-interpolation-filters="sRGB">
<feFlood flood-opacity="0" result="BackgroundImageFix"/>
<feColorMatrix in="SourceAlpha" type="matrix" values="0 0 0 0 0 0 0 0 0 0 0 0 0 0 0 0 0 0 127 0" result="hardAlpha"/>
<feOffset dx="2" dy="2"/>
<feGaussianBlur stdDeviation="2"/>
<feComposite in2="hardAlpha" operator="out"/>
<feColorMatrix type="matrix" values="0 0 0 0 0 0 0 0 0 0 0 0 0 0 0 0 0 0 0.25 0"/>
<feBlend mode="normal" in2="BackgroundImageFix" result="effect1_dropShadow_639_314"/>
<feBlend mode="normal" in="SourceGraphic" in2="effect1_dropShadow_639_314" result="shape"/>
</filter>
<linearGradient id="paint0_linear_639_314" x1="144.488" y1="202.766" x2="213.512" y2="83.2345" gradientUnits="userSpaceOnUse">
<stop stop-color="#0460A9"/>
<stop offset="1" stop-color="#50E2D0"/>
</linearGradient>
</defs>
</svg>
