<svg width="361" height="357" viewBox="0 0 361 357" fill="none" xmlns="http://www.w3.org/2000/svg">
<g filter="url(#filter0_d_639_309)">
<rect x="2" y="2" width="353" height="349" rx="19.0804" fill="white"/>
<path d="M49.14 273V248.738H57.2162L60.1684 259.359C60.6096 260.886 61.5597 264.89 61.5597 264.89H61.6276C61.6276 264.89 62.5777 260.886 62.9849 259.359L65.9711 248.738H74.1151V273H68.6179V260.784C68.6179 259.8 68.7197 255.931 68.7197 255.931H68.6518C68.6518 255.931 67.8035 259.562 67.532 260.445L64.0368 273H59.0825L55.6213 260.479C55.3498 259.596 54.5015 255.931 54.5015 255.931H54.4336C54.4336 255.931 54.5354 259.834 54.5354 260.818V273H49.14ZM83.9892 269.912C86.0592 269.912 87.4844 268.657 87.4844 266.79V264.72C86.7718 265.093 85.7538 265.365 84.634 265.636C82.4962 266.111 81.6139 266.654 81.6139 267.978C81.6139 269.369 82.6319 269.912 83.9892 269.912ZM82.2247 273.441C78.7635 273.441 76.2863 271.575 76.2863 268.148C76.2863 264.313 79.3403 263.159 82.9373 262.684C86.1949 262.277 87.3487 261.938 87.3487 260.75C87.3487 259.63 86.6361 258.884 84.9733 258.884C83.2088 258.884 82.3265 259.664 82.1568 261.123H77.0668C77.2025 257.9 79.6797 255.151 84.9394 255.151C87.5523 255.151 89.3168 255.626 90.5723 256.576C92.0654 257.662 92.778 259.359 92.778 261.53V270.285C92.778 271.677 92.9138 272.457 93.3888 272.762V273H88.0273C87.7559 272.627 87.5862 271.948 87.4505 271.066H87.3826C86.3646 272.525 84.8376 273.441 82.2247 273.441ZM104.554 269.267C106.657 269.267 107.947 267.469 107.947 264.517C107.947 261.53 106.827 259.562 104.452 259.562C102.042 259.562 100.821 261.7 100.821 264.517C100.821 267.333 102.178 269.267 104.554 269.267ZM95.4593 278.735V255.626H100.753V257.73H100.855C102.042 256.169 103.739 255.117 106.114 255.117C110.729 255.117 113.546 259.087 113.546 264.313C113.546 269.946 110.526 273.543 105.979 273.543C103.739 273.543 102.144 272.661 101.058 271.202H100.99V278.735H95.4593ZM124.503 269.267C126.607 269.267 127.896 267.469 127.896 264.517C127.896 261.53 126.776 259.562 124.401 259.562C121.992 259.562 120.77 261.7 120.77 264.517C120.77 267.333 122.127 269.267 124.503 269.267ZM115.409 278.735V255.626H120.702V257.73H120.804C121.992 256.169 123.688 255.117 126.064 255.117C130.679 255.117 133.495 259.087 133.495 264.313C133.495 269.946 130.475 273.543 125.928 273.543C123.688 273.543 122.093 272.661 121.008 271.202H120.94V278.735H115.409ZM142.246 269.912C144.316 269.912 145.741 268.657 145.741 266.79V264.72C145.029 265.093 144.011 265.365 142.891 265.636C140.753 266.111 139.871 266.654 139.871 267.978C139.871 269.369 140.889 269.912 142.246 269.912ZM140.482 273.441C137.02 273.441 134.543 271.575 134.543 268.148C134.543 264.313 137.597 263.159 141.194 262.684C144.452 262.277 145.606 261.938 145.606 260.75C145.606 259.63 144.893 258.884 143.23 258.884C141.466 258.884 140.584 259.664 140.414 261.123H135.324C135.46 257.9 137.937 255.151 143.196 255.151C145.809 255.151 147.574 255.626 148.829 256.576C150.322 257.662 151.035 259.359 151.035 261.53V270.285C151.035 271.677 151.171 272.457 151.646 272.762V273H146.284C146.013 272.627 145.843 271.948 145.707 271.066H145.64C144.622 272.525 143.095 273.441 140.482 273.441ZM165.331 259.461H169.844C172.219 259.461 173.441 258.341 173.441 256.508C173.441 254.744 172.287 253.488 169.98 253.488H165.331V259.461ZM159.325 273V248.738H170.93C175.748 248.738 179.413 251.215 179.413 255.728C179.413 258.544 178.022 260.614 175.206 261.598V261.7C177.309 262.413 178.395 263.736 178.735 266.145C179.244 269.335 178.904 272.389 179.753 272.695V273H173.916C173.271 272.627 173.373 269.776 173 267.367C172.694 265.127 171.541 263.906 168.962 263.906H165.331V273H159.325ZM190.069 273.509C184.334 273.509 180.805 269.539 180.805 264.279C180.805 259.087 184.436 255.117 189.73 255.117C192.207 255.117 194.175 255.931 195.668 257.289C197.738 259.189 198.756 262.209 198.722 265.738H186.234C186.574 268.08 187.863 269.539 190.137 269.539C191.596 269.539 192.546 268.894 193.021 267.808H198.417C198.043 269.369 197.025 270.862 195.498 271.914C194.039 272.932 192.275 273.509 190.069 273.509ZM186.268 262.447H193.123C192.919 260.377 191.63 259.053 189.831 259.053C187.728 259.053 186.642 260.377 186.268 262.447ZM208.616 267.944C211.025 267.944 212.145 266.044 212.145 263.6C212.145 261.259 210.924 259.291 208.616 259.291C206.546 259.291 205.189 260.988 205.189 263.634C205.189 266.247 206.546 267.944 208.616 267.944ZM208.65 279.006C203.865 279.006 200.71 277.038 200.167 273.407H205.528C205.834 274.323 206.75 275.104 208.582 275.104C210.924 275.104 211.908 273.882 211.908 271.778V270.048H211.772C210.754 271.202 209.43 272.05 207.327 272.05C203.424 272.05 199.793 269.132 199.793 263.804C199.793 258.714 202.779 255.117 207.089 255.117C209.397 255.117 210.957 256.033 211.975 257.492H212.043V255.626H217.337V271.303C217.337 273.916 216.421 275.816 215.03 277.072C213.502 278.429 211.229 279.006 208.65 279.006ZM222.775 248.229C224.506 248.229 225.829 249.45 225.829 251.181C225.829 252.911 224.506 254.133 222.775 254.133C221.045 254.133 219.721 252.911 219.721 251.181C219.721 249.45 221.045 248.229 222.775 248.229ZM219.993 273V255.626H225.524V273H219.993ZM236.695 273.543C231.13 273.543 227.397 269.573 227.397 264.347C227.397 259.121 231.13 255.151 236.695 255.151C242.294 255.151 245.959 259.121 245.959 264.347C245.959 269.573 242.294 273.543 236.695 273.543ZM236.661 269.607C239.071 269.607 240.36 267.503 240.36 264.347C240.36 261.191 239.071 259.053 236.661 259.053C234.252 259.053 232.997 261.191 232.997 264.347C232.997 267.503 234.252 269.607 236.661 269.607ZM247.829 273V255.626H253.157V258.001H253.258C254.548 256.135 256.211 255.117 258.62 255.117C262.42 255.117 264.66 257.832 264.66 261.7V273H259.129V262.82C259.129 260.988 258.213 259.732 256.414 259.732C254.582 259.732 253.36 261.259 253.36 263.397V273H247.829ZM274.07 269.912C276.14 269.912 277.565 268.657 277.565 266.79V264.72C276.853 265.093 275.835 265.365 274.715 265.636C272.577 266.111 271.695 266.654 271.695 267.978C271.695 269.369 272.713 269.912 274.07 269.912ZM272.306 273.441C268.844 273.441 266.367 271.575 266.367 268.148C266.367 264.313 269.421 263.159 273.018 262.684C276.276 262.277 277.43 261.938 277.43 260.75C277.43 259.63 276.717 258.884 275.054 258.884C273.29 258.884 272.407 259.664 272.238 261.123H267.148C267.283 257.9 269.761 255.151 275.02 255.151C277.633 255.151 279.398 255.626 280.653 256.576C282.146 257.662 282.859 259.359 282.859 261.53V270.285C282.859 271.677 282.995 272.457 283.47 272.762V273H278.108C277.837 272.627 277.667 271.948 277.531 271.066H277.464C276.446 272.525 274.919 273.441 272.306 273.441ZM285.574 273V248.738H291.173V273H285.574ZM302.341 273.509C296.607 273.509 293.077 269.539 293.077 264.279C293.077 259.087 296.708 255.117 302.002 255.117C304.479 255.117 306.447 255.931 307.94 257.289C310.01 259.189 311.028 262.209 310.994 265.738H298.507C298.846 268.08 300.136 269.539 302.409 269.539C303.868 269.539 304.818 268.894 305.294 267.808H310.689C310.316 269.369 309.298 270.862 307.771 271.914C306.312 272.932 304.547 273.509 302.341 273.509ZM298.541 262.447H305.395C305.192 260.377 303.902 259.053 302.104 259.053C300 259.053 298.914 260.377 298.541 262.447ZM157.215 314.577C150.768 314.577 146.526 311.726 146.39 306.365H152.43C152.702 308.808 154.297 309.826 157.181 309.826C159.149 309.826 161.083 309.114 161.083 307.281C161.083 305.347 159.115 304.94 155.79 304.125C151.582 303.141 147.137 301.852 147.137 296.762C147.137 291.57 151.345 289.296 156.774 289.296C162.034 289.296 166.106 291.672 166.343 296.762H160.473C160.235 294.895 158.81 293.843 156.57 293.843C154.466 293.843 153.075 294.76 153.075 296.117C153.075 297.814 154.942 298.221 158.572 299.035C163.086 300.087 167.158 301.479 167.158 306.67C167.158 311.76 162.814 314.577 157.215 314.577ZM179.617 314.577C173.169 314.577 168.927 311.726 168.792 306.365H174.832C175.103 308.808 176.698 309.826 179.583 309.826C181.551 309.826 183.485 309.114 183.485 307.281C183.485 305.347 181.517 304.94 178.191 304.125C173.984 303.141 169.538 301.852 169.538 296.762C169.538 291.57 173.746 289.296 179.175 289.296C184.435 289.296 188.507 291.672 188.745 296.762H182.874C182.637 294.895 181.211 293.843 178.972 293.843C176.868 293.843 175.477 294.76 175.477 296.117C175.477 297.814 177.343 298.221 180.974 299.035C185.487 300.087 189.559 301.479 189.559 306.67C189.559 311.76 185.216 314.577 179.617 314.577ZM198.022 300.461H202.535C204.91 300.461 206.132 299.341 206.132 297.508C206.132 295.744 204.978 294.488 202.671 294.488H198.022V300.461ZM192.016 314V289.738H203.621C208.439 289.738 212.104 292.215 212.104 296.728C212.104 299.544 210.713 301.614 207.896 302.598V302.7C210 303.413 211.086 304.736 211.426 307.145C211.935 310.335 211.595 313.389 212.444 313.695V314H206.607C205.962 313.627 206.064 310.776 205.691 308.367C205.385 306.127 204.232 304.906 201.653 304.906H198.022V314H192.016Z" fill="#002068"/>
<path d="M179 212C217.108 212 248 181.108 248 143C248 104.892 217.108 74 179 74C140.892 74 110 104.892 110 143C110 181.108 140.892 212 179 212Z" fill="url(#paint0_linear_639_309)"/>
<mask id="path-4-inside-1_639_309" fill="white">
<path d="M192.606 106.168C191.299 107.019 189.3 107.256 188.033 106.069C187.914 105.97 187.815 105.851 187.696 105.732C187.518 105.534 187.36 105.356 187.162 105.237C186.409 104.782 185.38 105.296 184.865 106.049C184.469 106.623 184.291 107.316 184.093 108.028C184.014 108.325 183.935 108.622 183.836 108.9C183.677 109.394 183.38 110.107 182.707 110.365C182.074 110.602 181.48 110.345 180.926 110.087C180.53 109.909 180.134 109.731 179.777 109.751C179.461 109.751 179.144 109.909 178.906 110.206C178.609 110.562 178.471 111.038 178.55 111.453C178.708 112.364 179.52 112.998 180.213 113.275C180.332 113.314 180.391 113.433 180.391 113.552C180.391 113.671 180.292 113.77 180.173 113.809C179.124 114.067 178.273 114.977 177.956 116.205C177.619 117.412 177.916 118.64 178.688 119.392C179.045 119.729 179.461 119.986 179.916 120.263C180.371 120.54 180.846 120.837 181.242 121.213C182.628 122.56 182.826 124.955 181.678 126.677C180.668 128.221 178.688 129.172 176.63 129.093C175.976 129.073 175.184 129.033 174.967 129.508C174.887 129.686 174.887 129.904 174.907 130.122C174.927 130.459 174.967 130.795 175.006 131.112C175.105 131.924 175.204 132.755 175.026 133.567C174.868 134.319 174.392 135.032 173.779 135.428C173.323 135.725 172.829 135.824 172.334 135.725C171.482 135.546 171.007 134.854 170.532 134.18C170.176 133.685 169.839 133.21 169.384 132.933C168.79 132.597 168.117 132.795 167.681 133.092C167.246 133.389 166.81 133.943 166.889 134.616C166.889 134.735 166.929 134.854 166.969 134.972C167.028 135.19 167.087 135.428 167.068 135.665C167.048 136.635 166.117 137.289 165.246 137.585C165.028 137.665 164.811 137.724 164.593 137.783C164.019 137.942 163.465 138.08 163.049 138.417C162.099 139.189 162.178 140.476 162.237 141.862C162.277 142.733 162.316 143.624 162.118 144.435C161.742 145.979 160.376 147.227 158.792 147.444C158.614 147.464 158.436 147.484 158.278 147.484C157.03 147.484 155.803 146.87 155.031 145.88C154.595 146.633 153.942 147.425 153.012 147.385C151.883 147.345 151.21 146.138 151.131 144.97C151.111 144.693 151.111 144.415 151.111 144.138C151.111 143.426 151.111 142.733 150.775 142.178C150.517 141.723 149.943 141.505 149.508 141.565C149.31 141.565 149.052 141.664 148.953 141.961C148.953 141.98 148.933 141.98 148.914 142C149.032 142.357 149.112 142.772 149.171 143.247C149.31 144.415 149.409 145.663 148.874 146.732C148.379 147.722 147.468 148.355 146.578 148.969C145.885 149.444 145.172 149.939 144.697 150.592C143.192 152.651 144.36 155.68 145.964 157.838L146.241 158.214C147.211 159.501 148.3 160.946 148.201 162.649C148.201 162.906 148.142 163.203 148.102 163.48C147.983 164.213 147.884 164.886 148.28 165.321C148.557 165.618 149.013 165.697 149.488 165.796C149.725 165.836 149.943 165.876 150.181 165.955C151.349 166.311 152.081 167.261 152.794 168.172C153.249 168.766 153.724 169.38 154.298 169.795C154.694 170.092 155.13 170.31 155.585 170.528C155.783 170.627 155.981 170.726 156.179 170.825C159.089 172.389 161.01 175.24 162.692 177.754C162.732 177.813 162.752 177.892 162.732 177.972C166.197 177.615 169.8 178.328 172.789 180.11L172.908 180.169C173.363 180.446 173.818 180.723 174.294 180.723C175.085 180.723 175.699 180.05 176.352 179.338C177.105 178.506 177.877 177.655 179.005 177.892C179.381 177.972 179.718 178.17 180.015 178.367C180.252 178.526 180.47 178.664 180.728 178.724C181.579 178.981 182.391 178.427 183.242 177.813C183.974 177.298 184.746 176.744 185.637 176.665C186.627 176.566 187.558 177.081 188.29 177.496L193.002 180.149C194.368 180.921 195.1 181.792 195.12 182.663C195.259 182.624 195.417 182.604 195.556 182.584C196.05 182.545 196.506 182.683 196.823 183L199.099 181.317C200.822 180.07 201.455 177.576 200.643 175.279C199.99 173.398 198.585 171.815 197.238 170.27C196.961 169.954 196.684 169.637 196.407 169.32C195.476 168.231 194.605 167.024 194.526 165.579C194.487 164.727 194.744 163.935 194.962 163.223C195.655 160.986 196.585 157.937 198.98 156.254C200.129 155.462 201.435 155.066 202.722 154.69C203.89 154.354 204.979 154.037 205.929 153.423C206.8 152.869 207.572 152.057 208.344 151.285C209.71 149.879 211.116 148.415 213.175 148.256C213.551 148.236 213.967 148.236 214.383 148.256C213.393 147.266 212.799 145.88 212.759 144.475C212.759 144.138 212.759 143.802 212.799 143.465C212.838 142.812 212.878 142.218 212.7 141.644C212.264 140.238 210.681 139.585 209.374 139.664C208.147 139.743 206.899 140.317 205.474 141.486C204.88 141.961 204.266 142.475 203.455 142.396C202.623 142.317 202.089 141.604 201.633 140.971L195.853 132.517C194.942 131.171 194.764 130.102 195.318 129.37C195.496 129.132 195.734 128.974 195.952 128.796C196.209 128.617 196.446 128.439 196.545 128.202C196.842 127.529 196.011 126.994 194.882 126.38L194.566 126.202C193.358 125.509 192.606 124.163 192.546 122.579C192.487 120.996 193.14 119.59 194.289 118.818C194.586 118.62 194.902 118.462 195.199 118.303C195.674 118.046 196.13 117.828 196.486 117.472C197.357 116.561 197.357 115.136 197.258 113.73C197.258 113.611 197.318 113.492 197.456 113.453C199.218 112.879 201.02 112.285 202.485 111.097C203.89 109.969 204.702 108.345 204.623 106.88C201.099 106.346 197.733 105.316 195.278 103C194.605 104.227 193.813 105.435 192.626 106.207"/>
</mask>
<path d="M188.033 106.069L189.401 104.609L189.358 104.57L189.313 104.532L188.033 106.069ZM187.696 105.732L186.21 107.07L186.245 107.109L186.282 107.146L187.696 105.732ZM187.162 105.237L186.126 106.948L186.133 106.952L187.162 105.237ZM184.865 106.049L186.512 107.184L186.516 107.178L184.865 106.049ZM184.093 108.028L182.166 107.493L182.163 107.503L182.161 107.513L184.093 108.028ZM183.836 108.9L181.952 108.227L181.941 108.258L181.931 108.29L183.836 108.9ZM182.707 110.365L183.41 112.237L183.422 112.233L182.707 110.365ZM180.926 110.087L181.768 108.273L181.757 108.268L181.746 108.264L180.926 110.087ZM179.777 109.751V111.751H179.833L179.888 111.748L179.777 109.751ZM178.906 110.206L180.443 111.487L180.455 111.471L180.468 111.456L178.906 110.206ZM178.55 111.453L180.52 111.111L180.518 111.095L180.515 111.079L178.55 111.453ZM180.213 113.275L179.47 115.132L179.525 115.153L179.58 115.172L180.213 113.275ZM180.173 113.809L180.65 115.752L180.729 115.732L180.806 115.707L180.173 113.809ZM177.956 116.205L179.883 116.742L179.888 116.723L179.893 116.704L177.956 116.205ZM178.688 119.392L177.293 120.824L177.304 120.835L177.315 120.846L178.688 119.392ZM181.242 121.213L182.636 119.779L182.628 119.771L182.62 119.763L181.242 121.213ZM181.678 126.677L180.014 125.568L180.009 125.575L180.004 125.583L181.678 126.677ZM176.63 129.093L176.706 127.094L176.698 127.094L176.69 127.093L176.63 129.093ZM174.967 129.508L173.148 128.675L173.144 128.685L173.139 128.696L174.967 129.508ZM174.907 130.122L176.904 130.005L176.902 129.973L176.899 129.941L174.907 130.122ZM175.006 131.112L176.992 130.87L176.991 130.864L175.006 131.112ZM175.026 133.567L173.073 133.138L173.071 133.146L173.069 133.155L175.026 133.567ZM173.779 135.428L172.695 133.747L172.686 133.752L173.779 135.428ZM172.334 135.725L171.924 137.682L171.933 137.684L171.941 137.686L172.334 135.725ZM170.532 134.18L172.166 133.027L172.161 133.019L172.155 133.012L170.532 134.18ZM169.384 132.933L170.424 131.225L170.397 131.209L170.37 131.193L169.384 132.933ZM166.889 134.616H168.889V134.499L168.876 134.382L166.889 134.616ZM166.969 134.972L168.898 134.446L168.884 134.392L168.866 134.34L166.969 134.972ZM167.068 135.665L165.074 135.499L165.069 135.562L165.068 135.624L167.068 135.665ZM165.246 137.585L164.601 135.692L164.582 135.699L164.563 135.706L165.246 137.585ZM164.593 137.783L164.067 135.854L164.061 135.855L164.593 137.783ZM163.049 138.417L161.79 136.862L161.788 136.865L163.049 138.417ZM162.237 141.862L160.239 141.947L160.239 141.952L162.237 141.862ZM162.118 144.435L160.175 143.961L160.175 143.962L162.118 144.435ZM158.792 147.444L159.013 149.432L159.039 149.429L159.065 149.426L158.792 147.444ZM155.031 145.88L156.608 144.65L154.785 142.313L153.3 144.878L155.031 145.88ZM153.012 147.385L153.097 145.387L153.089 145.387L153.082 145.386L153.012 147.385ZM151.131 144.97L153.126 144.835L153.126 144.827L151.131 144.97ZM150.775 142.178L149.033 143.163L149.049 143.19L149.065 143.216L150.775 142.178ZM149.508 141.565V143.565H149.643L149.778 143.546L149.508 141.565ZM148.953 141.961L147.056 141.328L146.953 141.636V141.961H148.953ZM148.914 142L147.499 140.586L146.625 141.46L147.016 142.633L148.914 142ZM149.171 143.247L151.157 143.012L151.156 142.999L149.171 143.247ZM146.578 148.969L147.709 150.618L147.712 150.616L146.578 148.969ZM144.697 150.592L146.312 151.772L146.314 151.769L144.697 150.592ZM145.964 157.838L147.574 156.652L147.569 156.645L145.964 157.838ZM146.241 158.214L144.631 159.4L144.637 159.409L144.644 159.418L146.241 158.214ZM148.201 162.649L146.204 162.533L146.201 162.591V162.649H148.201ZM148.102 163.48L150.076 163.8L150.079 163.782L150.082 163.763L148.102 163.48ZM148.28 165.321L146.8 166.667L146.809 166.676L146.818 166.686L148.28 165.321ZM149.488 165.796L149.08 167.754L149.119 167.763L149.159 167.769L149.488 165.796ZM150.181 165.955L149.548 167.852L149.573 167.86L149.597 167.868L150.181 165.955ZM152.794 168.172L154.381 166.955L154.375 166.947L154.369 166.939L152.794 168.172ZM154.298 169.795L155.498 168.195L155.485 168.185L155.471 168.175L154.298 169.795ZM155.585 170.528L156.48 168.739L156.464 168.731L156.448 168.724L155.585 170.528ZM156.179 170.825L157.126 169.063L157.1 169.049L157.074 169.036L156.179 170.825ZM162.692 177.754L164.357 176.644L164.355 176.641L162.692 177.754ZM162.732 177.972L160.792 177.486L160.1 180.253L162.937 179.961L162.732 177.972ZM172.789 180.11L171.765 181.828L171.828 181.865L171.894 181.898L172.789 180.11ZM172.908 180.169L173.948 178.461L173.877 178.417L173.802 178.38L172.908 180.169ZM176.352 179.338L177.827 180.689L177.835 180.679L176.352 179.338ZM179.005 177.892L179.417 175.935L179.005 177.892ZM180.015 178.367L181.124 176.703L180.015 178.367ZM180.728 178.724L181.306 176.809L181.242 176.79L181.177 176.775L180.728 178.724ZM183.242 177.813L182.092 176.177L182.082 176.184L182.072 176.191L183.242 177.813ZM185.637 176.665L185.814 178.657L185.825 178.656L185.836 178.655L185.637 176.665ZM188.29 177.496L187.303 179.236L187.309 179.239L188.29 177.496ZM193.002 180.149L193.986 178.408L193.983 178.406L193.002 180.149ZM195.12 182.663L193.121 182.709L193.179 185.298L195.669 184.586L195.12 182.663ZM195.556 182.584L195.396 180.591L195.334 180.596L195.273 180.604L195.556 182.584ZM196.823 183L195.408 184.414L196.626 185.632L198.011 184.608L196.823 183ZM199.099 181.317L197.926 179.697L197.918 179.703L197.91 179.709L199.099 181.317ZM200.643 175.279L198.754 175.935L198.758 175.946L200.643 175.279ZM197.238 170.27L198.746 168.956L198.743 168.953L197.238 170.27ZM196.407 169.32L194.886 170.62L194.894 170.628L194.902 170.637L196.407 169.32ZM194.526 165.579L192.528 165.671L192.529 165.68L192.529 165.688L194.526 165.579ZM194.962 163.223L193.051 162.631L193.049 162.638L194.962 163.223ZM198.98 156.254L197.845 154.608L197.838 154.613L197.831 154.618L198.98 156.254ZM202.722 154.69L202.168 152.768L202.161 152.771L202.722 154.69ZM205.929 153.423L204.855 151.736L204.844 151.743L205.929 153.423ZM208.344 151.285L209.759 152.699L209.769 152.689L209.779 152.679L208.344 151.285ZM213.175 148.256L213.07 146.259L213.046 146.26L213.022 146.262L213.175 148.256ZM214.383 148.256L214.287 150.254L219.455 150.5L215.797 146.842L214.383 148.256ZM212.759 144.475H210.759V144.503L210.76 144.531L212.759 144.475ZM212.799 143.465L214.785 143.699L214.792 143.643L214.795 143.586L212.799 143.465ZM212.7 141.644L210.789 142.236L210.79 142.237L212.7 141.644ZM209.374 139.664L209.253 137.668L209.245 137.668L209.374 139.664ZM205.474 141.486L206.723 143.047L206.732 143.04L206.742 143.032L205.474 141.486ZM203.455 142.396L203.649 140.406L203.644 140.405L203.455 142.396ZM201.633 140.971L199.982 142.1L199.996 142.119L200.009 142.138L201.633 140.971ZM195.853 132.517L194.196 133.638L194.202 133.646L195.853 132.517ZM195.318 129.37L196.913 130.577L196.918 130.57L195.318 129.37ZM195.952 128.796L194.813 127.151L194.747 127.197L194.685 127.248L195.952 128.796ZM196.545 128.202L194.716 127.394L194.707 127.413L194.699 127.432L196.545 128.202ZM194.882 126.38L193.902 128.124L193.914 128.131L193.927 128.137L194.882 126.38ZM194.566 126.202L193.57 127.937L193.578 127.941L193.585 127.945L194.566 126.202ZM194.289 118.818L193.179 117.154L193.173 117.158L194.289 118.818ZM195.199 118.303L196.14 120.068L196.152 120.062L195.199 118.303ZM196.486 117.472L197.9 118.886L197.916 118.87L197.931 118.854L196.486 117.472ZM197.258 113.73H195.258V113.8L195.263 113.871L197.258 113.73ZM197.456 113.453L198.006 115.376L198.041 115.366L198.076 115.354L197.456 113.453ZM202.485 111.097L201.232 109.537L201.225 109.543L202.485 111.097ZM204.623 106.88L206.62 106.772L206.532 105.147L204.923 104.903L204.623 106.88ZM195.278 103L196.651 101.545L194.769 99.7696L193.525 102.038L195.278 103ZM191.514 104.492C191.158 104.724 190.693 104.874 190.262 104.883C189.849 104.892 189.577 104.775 189.401 104.609L186.665 107.528C188.854 109.58 191.949 108.982 193.698 107.843L191.514 104.492ZM189.313 104.532C189.342 104.556 189.349 104.566 189.31 104.525C189.286 104.5 189.274 104.487 189.234 104.445C189.202 104.411 189.159 104.366 189.11 104.318L186.282 107.146C186.322 107.187 186.325 107.191 186.419 107.29C186.489 107.363 186.605 107.482 186.752 107.605L189.313 104.532ZM189.183 104.394C189.059 104.257 188.696 103.825 188.191 103.522L186.133 106.952C186.056 106.906 186.023 106.87 186.043 106.889C186.052 106.899 186.069 106.916 186.098 106.947C186.129 106.981 186.161 107.016 186.21 107.07L189.183 104.394ZM188.197 103.526C187.134 102.882 185.995 103.008 185.183 103.332C184.379 103.653 183.684 104.234 183.215 104.919L186.516 107.178C186.531 107.155 186.56 107.123 186.597 107.092C186.615 107.078 186.631 107.067 186.645 107.059C186.658 107.051 186.665 107.048 186.665 107.048C186.665 107.048 186.654 107.052 186.631 107.057C186.608 107.061 186.57 107.067 186.52 107.066C186.41 107.064 186.265 107.032 186.126 106.948L188.197 103.526ZM183.219 104.913C182.592 105.823 182.335 106.886 182.166 107.493L186.02 108.564C186.247 107.745 186.347 107.423 186.512 107.184L183.219 104.913ZM182.161 107.513C182.077 107.826 182.019 108.041 181.952 108.227L185.719 109.572C185.851 109.204 185.951 108.825 186.026 108.544L182.161 107.513ZM181.931 108.29C181.904 108.375 181.878 108.447 181.851 108.508C181.824 108.57 181.803 108.607 181.791 108.626C181.779 108.644 181.786 108.629 181.819 108.6C181.855 108.568 181.914 108.527 181.993 108.496L183.422 112.233C185.061 111.606 185.586 109.991 185.741 109.509L181.931 108.29ZM182.005 108.492C182.06 108.471 182.119 108.461 182.171 108.459C182.219 108.457 182.241 108.464 182.226 108.46C182.208 108.456 182.164 108.444 182.082 108.412C181.998 108.379 181.903 108.336 181.768 108.273L180.083 111.901C180.541 112.114 181.889 112.807 183.41 112.237L182.005 108.492ZM181.746 108.264C181.568 108.183 181.276 108.05 180.969 107.947C180.662 107.845 180.201 107.724 179.666 107.754L179.888 111.748C179.792 111.753 179.726 111.743 179.699 111.739C179.674 111.734 179.673 111.732 179.704 111.742C179.735 111.753 179.782 111.77 179.853 111.8C179.925 111.83 180.002 111.865 180.105 111.911L181.746 108.264ZM179.777 107.751C178.77 107.751 177.907 108.254 177.345 108.957L180.468 111.456C180.381 111.564 180.151 111.751 179.777 111.751V107.751ZM177.37 108.926C176.741 109.68 176.38 110.749 176.585 111.828L180.515 111.079C180.541 111.216 180.523 111.312 180.509 111.36C180.495 111.41 180.473 111.45 180.443 111.487L177.37 108.926ZM176.579 111.796C176.908 113.684 178.469 114.731 179.47 115.132L180.956 111.418C180.827 111.366 180.686 111.278 180.589 111.182C180.497 111.09 180.512 111.062 180.52 111.111L176.579 111.796ZM179.58 115.172C178.636 114.857 178.391 114.002 178.391 113.552H182.391C182.391 112.864 182.027 111.771 180.845 111.377L179.58 115.172ZM178.391 113.552C178.391 113.031 178.612 112.629 178.832 112.381C179.046 112.141 179.299 111.992 179.541 111.912L180.806 115.707C181.401 115.508 182.391 114.843 182.391 113.552H178.391ZM179.697 111.867C177.807 112.33 176.485 113.899 176.019 115.705L179.893 116.704C180.06 116.055 180.441 115.803 180.65 115.752L179.697 111.867ZM176.029 115.668C175.526 117.474 175.923 119.49 177.293 120.824L180.084 117.96C179.909 117.789 179.713 117.35 179.883 116.742L176.029 115.668ZM177.315 120.846C177.848 121.349 178.443 121.708 178.876 121.971L180.956 118.555C180.478 118.264 180.242 118.108 180.062 117.938L177.315 120.846ZM178.876 121.971C179.344 122.256 179.644 122.454 179.865 122.663L182.62 119.763C182.049 119.221 181.399 118.824 180.956 118.555L178.876 121.971ZM179.849 122.648C180.48 123.261 180.677 124.573 180.014 125.568L183.342 127.787C184.975 125.337 184.776 121.858 182.636 119.779L179.849 122.648ZM180.004 125.583C179.428 126.464 178.158 127.15 176.706 127.094L176.553 131.091C179.219 131.194 181.909 129.979 183.352 127.772L180.004 125.583ZM176.69 127.093C176.435 127.086 175.861 127.057 175.332 127.138C174.858 127.21 173.697 127.477 173.148 128.675L176.785 130.342C176.628 130.684 176.375 130.892 176.184 130.996C176.021 131.085 175.912 131.096 175.938 131.092C175.954 131.089 176.013 131.083 176.136 131.082C176.26 131.082 176.388 131.086 176.569 131.092L176.69 127.093ZM173.139 128.696C172.836 129.377 172.892 130.044 172.915 130.303L176.899 129.941C176.894 129.883 176.898 129.894 176.895 129.943C176.891 129.992 176.876 130.137 176.794 130.321L173.139 128.696ZM172.911 130.239C172.935 130.647 172.982 131.039 173.022 131.36L176.991 130.864C176.952 130.551 176.919 130.27 176.904 130.005L172.911 130.239ZM173.021 131.354C173.127 132.221 173.166 132.713 173.073 133.138L176.979 133.996C177.243 132.797 177.084 131.626 176.992 130.87L173.021 131.354ZM173.069 133.155C173.013 133.422 172.829 133.66 172.695 133.747L174.863 137.108C175.956 136.403 176.723 135.216 176.983 133.979L173.069 133.155ZM172.686 133.752C172.669 133.764 172.659 133.768 172.658 133.768C172.657 133.769 172.661 133.767 172.671 133.765C172.681 133.763 172.693 133.762 172.704 133.762C172.716 133.762 172.723 133.763 172.726 133.763L171.941 137.686C172.98 137.894 174.005 137.668 174.871 137.103L172.686 133.752ZM172.743 133.767C172.79 133.777 172.786 133.802 172.694 133.712C172.64 133.659 172.572 133.582 172.481 133.463C172.386 133.339 172.293 133.207 172.166 133.027L168.898 135.334C169.264 135.852 170.169 137.315 171.924 137.682L172.743 133.767ZM172.155 133.012C171.871 132.617 171.296 131.756 170.424 131.225L168.344 134.642C168.329 134.632 168.371 134.654 168.48 134.781C168.597 134.916 168.716 135.08 168.909 135.349L172.155 133.012ZM170.37 131.193C168.845 130.329 167.318 130.919 166.555 131.439L168.808 134.744C168.806 134.745 168.806 134.745 168.808 134.744C168.809 134.744 168.81 134.743 168.809 134.743C168.809 134.743 168.806 134.745 168.801 134.746C168.795 134.748 168.785 134.75 168.77 134.753C168.741 134.757 168.688 134.761 168.618 134.75C168.545 134.738 168.468 134.713 168.398 134.673L170.37 131.193ZM166.555 131.439C165.799 131.954 164.702 133.138 164.903 134.85L168.876 134.382C168.885 134.461 168.879 134.539 168.863 134.605C168.847 134.668 168.826 134.709 168.815 134.73C168.803 134.749 168.797 134.755 168.8 134.751C168.804 134.747 168.808 134.744 168.808 134.744L166.555 131.439ZM164.889 134.616C164.889 135.118 165.054 135.553 165.071 135.605L168.866 134.34C168.855 134.307 168.851 134.295 168.848 134.287C168.846 134.28 168.85 134.289 168.854 134.309C168.863 134.345 168.889 134.457 168.889 134.616H164.889ZM165.039 135.499C165.046 135.522 165.051 135.542 165.056 135.561C165.061 135.579 165.064 135.594 165.067 135.607C165.074 135.632 165.076 135.644 165.076 135.647C165.077 135.649 165.074 135.637 165.073 135.613C165.071 135.588 165.07 135.549 165.074 135.499L169.061 135.831C169.113 135.199 168.952 134.644 168.898 134.446L165.039 135.499ZM165.068 135.624C165.07 135.541 165.093 135.468 165.117 135.421C165.137 135.381 165.146 135.383 165.11 135.417C165.074 135.451 165.01 135.5 164.915 135.554C164.82 135.607 164.712 135.654 164.601 135.692L165.892 139.479C166.519 139.265 167.24 138.902 167.842 138.338C168.459 137.761 169.043 136.876 169.067 135.706L165.068 135.624ZM164.563 135.706C164.435 135.752 164.296 135.791 164.067 135.854L165.119 139.713C165.325 139.657 165.622 139.577 165.93 139.465L164.563 135.706ZM164.061 135.855C163.636 135.973 162.603 136.205 161.79 136.862L164.307 139.971C164.283 139.991 164.305 139.964 164.452 139.91C164.616 139.85 164.797 139.802 165.125 139.711L164.061 135.855ZM161.788 136.865C160.809 137.66 160.428 138.698 160.288 139.603C160.159 140.433 160.212 141.325 160.239 141.947L164.235 141.776C164.203 141.012 164.186 140.569 164.241 140.215C164.264 140.066 164.292 139.999 164.302 139.98C164.307 139.97 164.304 139.974 164.31 139.969L161.788 136.865ZM160.239 141.952C160.282 142.884 160.293 143.478 160.175 143.961L164.061 144.909C164.339 143.769 164.272 142.581 164.235 141.771L160.239 141.952ZM160.175 143.962C159.991 144.716 159.282 145.358 158.52 145.463L159.065 149.426C161.47 149.095 163.493 147.243 164.061 144.909L160.175 143.962ZM158.572 145.457C158.478 145.467 158.414 145.474 158.357 145.479C158.33 145.481 158.311 145.483 158.296 145.483C158.282 145.484 158.276 145.484 158.278 145.484V149.484C158.568 149.484 158.864 149.449 159.013 149.432L158.572 145.457ZM158.278 145.484C157.664 145.484 157.012 145.168 156.608 144.65L153.454 147.111C154.594 148.572 156.397 149.484 158.278 149.484V145.484ZM153.3 144.878C153.222 145.013 153.146 145.129 153.073 145.225C152.999 145.321 152.941 145.38 152.903 145.413C152.867 145.444 152.867 145.435 152.909 145.418C152.958 145.399 153.026 145.384 153.097 145.387L152.927 149.383C154.035 149.43 154.908 148.964 155.51 148.447C156.088 147.95 156.493 147.347 156.762 146.883L153.3 144.878ZM153.082 145.386C153.163 145.389 153.244 145.417 153.3 145.451C153.346 145.48 153.344 145.493 153.313 145.448C153.281 145.404 153.237 145.324 153.199 145.207C153.16 145.091 153.135 144.962 153.126 144.835L149.136 145.105C149.196 145.992 149.479 146.953 150.043 147.753C150.623 148.576 151.598 149.337 152.942 149.384L153.082 145.386ZM153.126 144.827C153.112 144.633 153.111 144.427 153.111 144.138H149.111C149.111 144.404 149.11 144.752 149.136 145.112L153.126 144.827ZM153.111 144.138C153.111 143.57 153.166 142.263 152.484 141.14L149.065 143.216C149.039 143.173 149.064 143.186 149.085 143.351C149.108 143.534 149.111 143.756 149.111 144.138H153.111ZM152.516 141.194C151.8 139.927 150.366 139.429 149.237 139.583L149.778 143.546C149.582 143.573 149.457 143.534 149.385 143.501C149.304 143.465 149.152 143.371 149.033 143.163L152.516 141.194ZM149.508 139.565C148.715 139.565 147.503 139.988 147.056 141.328L150.851 142.593C150.745 142.909 150.522 143.184 150.235 143.359C149.978 143.515 149.721 143.565 149.508 143.565V139.565ZM146.953 141.961C146.953 141.595 147.056 141.19 147.311 140.826C147.527 140.517 147.776 140.353 147.831 140.316C147.864 140.294 147.895 140.276 147.883 140.283C147.881 140.284 147.853 140.302 147.819 140.324C147.743 140.375 147.625 140.46 147.499 140.586L150.328 143.414C150.212 143.53 150.104 143.608 150.038 143.653C150.022 143.663 150.009 143.671 150 143.677C149.996 143.68 149.992 143.682 149.99 143.683C149.989 143.684 149.988 143.684 149.988 143.685C149.987 143.685 149.987 143.685 149.987 143.685C149.987 143.685 149.987 143.685 149.987 143.685C149.987 143.685 149.987 143.685 149.987 143.685C149.987 143.685 149.987 143.685 149.987 143.685C149.979 143.69 150.014 143.669 150.05 143.644C150.113 143.603 150.368 143.434 150.588 143.119C150.848 142.749 150.953 142.336 150.953 141.961H146.953ZM147.016 142.633C147.076 142.812 147.135 143.082 147.186 143.496L151.156 142.999C151.089 142.463 150.989 141.901 150.811 141.368L147.016 142.633ZM147.185 143.483C147.33 144.703 147.318 145.372 147.085 145.837L150.663 147.626C151.499 145.954 151.289 144.128 151.157 143.012L147.185 143.483ZM147.085 145.837C146.858 146.293 146.408 146.657 145.443 147.322L147.712 150.616C148.529 150.053 149.901 149.151 150.663 147.626L147.085 145.837ZM145.447 147.319C144.807 147.758 143.792 148.437 143.079 149.416L146.314 151.769C146.552 151.441 146.962 151.13 147.709 150.618L145.447 147.319ZM143.082 149.412C141.868 151.073 141.833 153.011 142.219 154.639C142.603 156.262 143.447 157.804 144.359 159.031L147.569 156.645C146.877 155.714 146.335 154.663 146.111 153.717C145.888 152.777 146.021 152.17 146.312 151.772L143.082 149.412ZM144.354 159.024L144.631 159.4L147.851 157.028L147.574 156.652L144.354 159.024ZM144.644 159.418C145.721 160.847 146.253 161.693 146.204 162.533L150.198 162.765C150.347 160.2 148.701 158.155 147.838 157.01L144.644 159.418ZM146.201 162.649C146.201 162.637 146.201 162.668 146.186 162.779C146.178 162.831 146.17 162.886 146.158 162.959C146.148 163.026 146.134 163.111 146.122 163.197L150.082 163.763C150.096 163.661 150.201 163.095 150.201 162.649H146.201ZM146.128 163.16C146.074 163.489 145.982 164.034 145.999 164.575C146.017 165.155 146.165 165.968 146.8 166.667L149.76 163.976C149.87 164.096 149.935 164.226 149.969 164.329C149.999 164.422 149.998 164.473 149.997 164.449C149.996 164.424 149.997 164.362 150.011 164.243C150.025 164.123 150.046 163.986 150.076 163.8L146.128 163.16ZM146.818 166.686C147.274 167.174 147.806 167.407 148.177 167.53C148.525 167.646 148.903 167.717 149.08 167.754L149.896 163.838C149.864 163.832 149.832 163.825 149.803 163.819C149.774 163.813 149.746 163.808 149.72 163.802C149.667 163.791 149.622 163.781 149.583 163.772C149.501 163.754 149.46 163.742 149.442 163.736C149.425 163.73 149.455 163.738 149.509 163.769C149.566 163.802 149.653 163.861 149.742 163.957L146.818 166.686ZM149.159 167.769C149.386 167.807 149.47 167.826 149.548 167.852L150.813 164.057C150.416 163.925 150.065 163.865 149.817 163.824L149.159 167.769ZM149.597 167.868C150.059 168.009 150.423 168.388 151.219 169.405L154.369 166.939C153.739 166.135 152.638 164.613 150.764 164.042L149.597 167.868ZM151.207 169.389C151.626 169.936 152.273 170.798 153.125 171.415L155.471 168.175C155.175 167.961 154.872 167.596 154.381 166.955L151.207 169.389ZM153.098 171.395C153.669 171.823 154.267 172.114 154.722 172.332L156.448 168.724C155.993 168.506 155.72 168.361 155.498 168.195L153.098 171.395ZM154.691 172.317C154.778 172.36 154.901 172.422 154.988 172.465C155.037 172.49 155.087 172.515 155.136 172.539C155.14 172.541 155.141 172.542 155.146 172.544C155.156 172.549 155.145 172.544 155.155 172.549C155.218 172.58 155.11 172.526 155.173 172.558C155.189 172.566 155.195 172.569 155.211 172.577C155.244 172.593 155.214 172.578 155.248 172.595C155.249 172.596 155.256 172.599 155.257 172.6C155.268 172.605 155.251 172.597 155.262 172.602C155.265 172.604 155.261 172.602 155.264 172.603C155.264 172.603 155.266 172.604 155.266 172.604C155.269 172.606 155.273 172.608 155.275 172.609C155.278 172.61 155.278 172.61 155.28 172.611C155.283 172.613 155.28 172.611 155.282 172.612C155.283 172.613 155.283 172.613 155.284 172.613C155.284 172.613 155.284 172.613 155.285 172.614L157.074 169.036C156.987 168.993 156.864 168.931 156.777 168.887C156.727 168.863 156.678 168.838 156.628 168.813C156.624 168.811 156.623 168.811 156.619 168.809C156.609 168.803 156.62 168.809 156.61 168.804C156.547 168.772 156.654 168.826 156.591 168.795C156.576 168.787 156.569 168.784 156.554 168.776C156.52 168.759 156.55 168.774 156.517 168.758C156.516 168.757 156.509 168.754 156.508 168.753C156.497 168.747 156.514 168.756 156.503 168.751C156.5 168.749 156.504 168.751 156.501 168.749C156.5 168.749 156.499 168.749 156.498 168.748C156.496 168.747 156.492 168.745 156.489 168.744C156.487 168.743 156.487 168.742 156.484 168.741C156.482 168.74 156.485 168.741 156.482 168.74C156.482 168.74 156.481 168.74 156.481 168.74C156.48 168.739 156.48 168.739 156.48 168.739L154.691 172.317ZM155.232 172.587C157.632 173.876 159.297 176.277 161.03 178.866L164.355 176.641C162.722 174.202 160.546 170.901 157.126 169.063L155.232 172.587ZM161.028 178.863C160.798 178.518 160.657 178.025 160.792 177.486L164.672 178.457C164.847 177.76 164.666 177.108 164.357 176.644L161.028 178.863ZM162.937 179.961C166.006 179.645 169.173 180.283 171.765 181.828L173.813 178.392C170.426 176.373 166.387 175.585 162.527 175.982L162.937 179.961ZM171.894 181.898L172.013 181.958L173.802 178.38L173.683 178.321L171.894 181.898ZM171.868 181.877C172.185 182.071 173.148 182.723 174.294 182.723V178.723C174.444 178.723 174.503 178.767 174.416 178.727C174.377 178.71 174.321 178.681 174.239 178.634C174.155 178.586 174.066 178.533 173.948 178.461L171.868 181.877ZM174.294 182.723C175.296 182.723 176.07 182.287 176.595 181.882C177.094 181.498 177.532 181.011 177.827 180.689L174.878 177.986C174.709 178.171 174.575 178.317 174.446 178.447C174.318 178.576 174.225 178.659 174.154 178.713C174.012 178.823 174.083 178.723 174.294 178.723V182.723ZM177.835 180.679C178.03 180.464 178.181 180.298 178.33 180.152C178.476 180.008 178.579 179.924 178.652 179.875C178.72 179.829 178.732 179.835 178.696 179.844C178.677 179.848 178.655 179.851 178.631 179.852C178.62 179.852 178.611 179.852 178.604 179.851C178.597 179.85 178.593 179.849 178.593 179.849L179.417 175.935C178.196 175.678 177.177 176.048 176.424 176.553C175.753 177.003 175.206 177.623 174.869 177.996L177.835 180.679ZM178.593 179.849C178.572 179.845 178.586 179.845 178.645 179.874C178.707 179.905 178.787 179.952 178.905 180.032L181.124 176.703C180.79 176.48 180.187 176.097 179.417 175.935L178.593 179.849ZM178.905 180.032C179.119 180.174 179.618 180.52 180.278 180.673L181.177 176.775C181.264 176.795 181.311 176.821 181.303 176.817C181.298 176.814 181.282 176.806 181.251 176.786C181.219 176.766 181.18 176.741 181.124 176.703L178.905 180.032ZM180.149 180.638C181.181 180.95 182.107 180.727 182.791 180.425C183.429 180.144 184.01 179.725 184.411 179.436L182.072 176.191C181.86 176.344 181.688 176.465 181.529 176.568C181.37 176.669 181.258 176.73 181.178 176.765C181.031 176.83 181.125 176.755 181.306 176.809L180.149 180.638ZM184.392 179.45C185.243 178.851 185.56 178.68 185.814 178.657L185.46 174.673C183.933 174.809 182.705 175.746 182.092 176.177L184.392 179.45ZM185.836 178.655C185.925 178.646 186.085 178.658 186.357 178.76C186.639 178.866 186.929 179.023 187.303 179.236L189.277 175.757C188.638 175.394 187.159 174.503 185.438 174.675L185.836 178.655ZM187.309 179.239L192.021 181.892L193.983 178.406L189.271 175.754L187.309 179.239ZM192.018 181.89C192.569 182.202 192.881 182.473 193.036 182.657C193.184 182.833 193.124 182.846 193.121 182.709L197.12 182.618C197.074 180.622 195.479 179.252 193.986 178.408L192.018 181.89ZM195.669 184.586C195.651 184.592 195.64 184.594 195.642 184.594C195.643 184.593 195.65 184.592 195.667 184.589C195.683 184.586 195.704 184.583 195.734 184.579C195.748 184.577 195.764 184.575 195.781 184.572C195.798 184.57 195.818 184.567 195.838 184.564L195.273 180.604C195.202 180.614 194.874 180.654 194.571 180.74L195.669 184.586ZM195.715 184.578C195.731 184.577 195.704 184.582 195.643 184.562C195.579 184.542 195.491 184.496 195.408 184.414L198.237 181.586C197.424 180.773 196.348 180.514 195.396 180.591L195.715 184.578ZM198.011 184.608L200.288 182.926L197.91 179.709L195.634 181.392L198.011 184.608ZM200.272 182.937C202.849 181.072 203.576 177.575 202.529 174.613L198.758 175.946C199.334 177.576 198.795 179.069 197.926 179.697L200.272 182.937ZM202.533 174.623C201.727 172.305 200.023 170.421 198.746 168.956L195.731 171.585C197.146 173.208 198.253 174.492 198.754 175.935L202.533 174.623ZM198.743 168.953C198.605 168.795 198.466 168.637 198.328 168.478C198.189 168.32 198.051 168.162 197.912 168.003L194.902 170.637C195.04 170.796 195.179 170.954 195.317 171.112C195.456 171.271 195.595 171.429 195.733 171.587L198.743 168.953ZM197.927 168.021C197.008 166.945 196.563 166.188 196.523 165.469L192.529 165.688C192.648 167.86 193.945 169.518 194.886 170.62L197.927 168.021ZM196.524 165.486C196.503 165.045 196.632 164.6 196.874 163.807L193.049 162.638C192.856 163.271 192.47 164.409 192.528 165.671L196.524 165.486ZM196.872 163.814C197.611 161.429 198.39 159.113 200.13 157.891L197.831 154.618C194.78 156.761 193.698 160.542 193.051 162.631L196.872 163.814ZM200.116 157.901C200.962 157.317 201.966 156.995 203.283 156.61L202.161 152.771C200.904 153.138 199.295 153.608 197.845 154.608L200.116 157.901ZM203.276 156.612C204.393 156.29 205.775 155.904 207.014 155.103L204.844 151.743C204.183 152.17 203.387 152.417 202.168 152.768L203.276 156.612ZM207.003 155.11C208.105 154.409 209.06 153.398 209.759 152.699L206.93 149.871C206.084 150.717 205.495 151.329 204.855 151.736L207.003 155.11ZM209.779 152.679C211.264 151.151 212.152 150.341 213.328 150.25L213.022 146.262C210.081 146.488 208.157 148.608 206.91 149.891L209.779 152.679ZM213.28 150.253C213.583 150.237 213.932 150.237 214.287 150.254L214.478 146.258C214.002 146.236 213.519 146.235 213.07 146.259L213.28 150.253ZM215.797 146.842C215.171 146.216 214.784 145.318 214.758 144.419L210.76 144.531C210.814 146.443 211.614 148.316 212.968 149.67L215.797 146.842ZM214.759 144.475C214.759 144.119 214.761 143.9 214.785 143.699L210.813 143.232C210.757 143.704 210.759 144.157 210.759 144.475H214.759ZM214.795 143.586C214.83 143.018 214.916 142.038 214.61 141.051L210.79 142.237C210.84 142.398 210.847 142.606 210.802 143.344L214.795 143.586ZM214.61 141.052C213.797 138.428 211.072 137.558 209.253 137.668L209.495 141.661C209.796 141.642 210.147 141.714 210.418 141.86C210.674 141.997 210.759 142.138 210.789 142.236L214.61 141.052ZM209.245 137.668C207.448 137.784 205.813 138.622 204.206 139.939L206.742 143.032C207.986 142.013 208.845 141.702 209.503 141.66L209.245 137.668ZM204.225 139.924C204.061 140.054 203.948 140.146 203.832 140.232C203.721 140.314 203.646 140.361 203.594 140.39C203.505 140.438 203.55 140.396 203.649 140.406L203.26 144.387C205.03 144.559 206.304 143.383 206.723 143.047L204.225 139.924ZM203.644 140.405C203.79 140.419 203.837 140.492 203.747 140.41C203.699 140.367 203.635 140.299 203.548 140.192C203.46 140.083 203.37 139.96 203.257 139.804L200.009 142.138C200.226 142.44 200.586 142.944 201.059 143.372C201.558 143.826 202.287 144.294 203.265 144.387L203.644 140.405ZM203.284 139.842L197.503 131.388L194.202 133.646L199.982 142.1L203.284 139.842ZM197.509 131.397C197.141 130.852 197.032 130.52 197.008 130.38C196.998 130.323 197.009 130.334 196.997 130.392C196.984 130.456 196.953 130.524 196.913 130.577L193.723 128.163C192.323 130.014 193.208 132.177 194.196 133.638L197.509 131.397ZM196.918 130.57C196.88 130.62 196.858 130.632 196.907 130.591C196.933 130.57 196.964 130.545 197.019 130.502C197.066 130.465 197.143 130.405 197.218 130.344L194.685 127.248C194.664 127.265 194.089 127.675 193.718 128.17L196.918 130.57ZM197.09 130.44C197.259 130.323 198.031 129.837 198.392 128.971L194.699 127.432C194.799 127.193 194.932 127.069 194.947 127.055C194.958 127.045 194.956 127.048 194.931 127.067C194.905 127.086 194.87 127.112 194.813 127.151L197.09 130.44ZM198.375 129.009C198.65 128.386 198.682 127.703 198.458 127.061C198.258 126.488 197.901 126.078 197.622 125.815C197.091 125.314 196.37 124.912 195.838 124.623L193.927 128.137C194.199 128.285 194.415 128.408 194.59 128.519C194.771 128.633 194.851 128.7 194.875 128.723C194.908 128.754 194.773 128.642 194.681 128.378C194.631 128.234 194.599 128.06 194.607 127.869C194.616 127.678 194.662 127.517 194.716 127.394L198.375 129.009ZM195.863 124.637L195.546 124.459L193.585 127.945L193.902 128.124L195.863 124.637ZM195.561 124.467C195.041 124.169 194.583 123.509 194.545 122.504L190.548 122.654C190.629 124.818 191.675 126.849 193.57 127.937L195.561 124.467ZM194.545 122.504C194.507 121.497 194.921 120.803 195.405 120.478L193.173 117.158C191.36 118.377 190.467 120.494 190.548 122.654L194.545 122.504ZM195.398 120.482C195.589 120.355 195.78 120.26 196.14 120.068L194.258 116.538C194.025 116.663 193.582 116.885 193.179 117.154L195.398 120.482ZM196.152 120.062C196.483 119.882 197.283 119.503 197.9 118.886L195.072 116.057C194.976 116.153 194.865 116.209 194.247 116.545L196.152 120.062ZM197.931 118.854C198.746 118.003 199.08 116.979 199.214 116.082C199.345 115.205 199.304 114.312 199.253 113.59L195.263 113.871C195.311 114.554 195.32 115.076 195.258 115.491C195.199 115.886 195.097 116.03 195.041 116.089L197.931 118.854ZM199.258 113.73C199.258 113.992 199.194 114.326 198.982 114.652C198.753 115.004 198.404 115.262 198.006 115.376L196.907 111.53C195.696 111.876 195.258 112.962 195.258 113.73H199.258ZM198.076 115.354C199.781 114.799 201.945 114.109 203.744 112.651L201.225 109.543C200.094 110.46 198.655 110.959 196.836 111.551L198.076 115.354ZM203.737 112.657C205.528 111.218 206.741 109.016 206.62 106.772L202.626 106.988C202.663 107.674 202.252 108.719 201.232 109.537L203.737 112.657ZM204.923 104.903C201.535 104.389 198.661 103.442 196.651 101.545L193.906 104.455C196.805 107.191 200.662 108.302 204.323 108.858L204.923 104.903ZM193.525 102.038C192.878 103.217 192.283 104.044 191.536 104.53L193.716 107.884C195.344 106.826 196.332 105.238 197.032 103.962L193.525 102.038Z" fill="white" mask="url(#path-4-inside-1_639_309)"/>
</g>
<defs>
<filter id="filter0_d_639_309" x="0" y="0" width="361" height="357" filterUnits="userSpaceOnUse" color-interpolation-filters="sRGB">
<feFlood flood-opacity="0" result="BackgroundImageFix"/>
<feColorMatrix in="SourceAlpha" type="matrix" values="0 0 0 0 0 0 0 0 0 0 0 0 0 0 0 0 0 0 127 0" result="hardAlpha"/>
<feOffset dx="2" dy="2"/>
<feGaussianBlur stdDeviation="2"/>
<feComposite in2="hardAlpha" operator="out"/>
<feColorMatrix type="matrix" values="0 0 0 0 0 0 0 0 0 0 0 0 0 0 0 0 0 0 0.25 0"/>
<feBlend mode="normal" in2="BackgroundImageFix" result="effect1_dropShadow_639_309"/>
<feBlend mode="normal" in="SourceGraphic" in2="effect1_dropShadow_639_309" result="shape"/>
</filter>
<linearGradient id="paint0_linear_639_309" x1="144.488" y1="202.766" x2="213.512" y2="83.2345" gradientUnits="userSpaceOnUse">
<stop stop-color="#0460A9"/>
<stop offset="1" stop-color="#50E2D0"/>
</linearGradient>
</defs>
</svg>
