<svg width="361" height="357" viewBox="0 0 361 357" fill="none" xmlns="http://www.w3.org/2000/svg">
<g filter="url(#filter0_d_639_307)">
<rect x="2" y="2" width="353" height="349" rx="19.0804" fill="white"/>
<path d="M122.698 273V253.828H115.64V248.738H135.83V253.828H128.704V273H122.698ZM135.507 273V255.626H140.801V258.341H140.902C142.124 256.271 143.549 255.355 145.653 255.355C146.162 255.355 146.501 255.388 146.739 255.49V260.241H146.603C143.21 259.766 141.038 261.429 141.038 265.195V273H135.507ZM156.649 273.509C150.914 273.509 147.385 269.539 147.385 264.279C147.385 259.087 151.016 255.117 156.31 255.117C158.787 255.117 160.755 255.931 162.248 257.289C164.318 259.189 165.336 262.209 165.302 265.738H152.815C153.154 268.08 154.443 269.539 156.717 269.539C158.176 269.539 159.126 268.894 159.601 267.808H164.997C164.623 269.369 163.605 270.862 162.078 271.914C160.619 272.932 158.855 273.509 156.649 273.509ZM152.849 262.447H159.703C159.499 260.377 158.21 259.053 156.412 259.053C154.308 259.053 153.222 260.377 152.849 262.447ZM167.154 273V255.626H172.481V258.001H172.583C173.873 256.135 175.535 255.117 177.945 255.117C181.745 255.117 183.985 257.832 183.985 261.7V273H178.454V262.82C178.454 260.988 177.538 259.732 175.739 259.732C173.907 259.732 172.685 261.259 172.685 263.397V273H167.154ZM193.064 273.204C189.84 273.204 187.533 272.152 187.533 268.419V259.087H185.225V255.626H187.533V250.129H192.928V255.626H196.084V259.087H192.928V267.231C192.928 268.589 193.675 268.928 194.862 268.928C195.337 268.928 195.88 268.894 196.084 268.894V272.932C195.609 273.068 194.557 273.204 193.064 273.204ZM200.854 248.229C202.585 248.229 203.908 249.45 203.908 251.181C203.908 252.911 202.585 254.133 200.854 254.133C199.124 254.133 197.8 252.911 197.8 251.181C197.8 249.45 199.124 248.229 200.854 248.229ZM198.072 273V255.626H203.603V273H198.072ZM206.257 273V255.626H211.585V258.001H211.686C212.976 256.135 214.639 255.117 217.048 255.117C220.848 255.117 223.088 257.832 223.088 261.7V273H217.557V262.82C217.557 260.988 216.641 259.732 214.842 259.732C213.01 259.732 211.788 261.259 211.788 263.397V273H206.257ZM234.127 273.543C228.562 273.543 224.829 269.573 224.829 264.347C224.829 259.121 228.562 255.151 234.127 255.151C239.726 255.151 243.391 259.121 243.391 264.347C243.391 269.573 239.726 273.543 234.127 273.543ZM234.093 269.607C236.502 269.607 237.792 267.503 237.792 264.347C237.792 261.191 236.502 259.053 234.093 259.053C231.684 259.053 230.428 261.191 230.428 264.347C230.428 267.503 231.684 269.607 234.093 269.607Z" fill="#002068"/>
<path d="M179 212C217.108 212 248 181.108 248 143C248 104.892 217.108 74 179 74C140.892 74 110 104.892 110 143C110 181.108 140.892 212 179 212Z" fill="url(#paint0_linear_639_307)"/>
<path d="M207.757 114.104L200.646 115.256L198.152 116.215L196.85 118.507L196.779 118.634L196.674 118.734L194.231 121.08L194.024 121.279L193.743 121.338L185.899 122.975L184.031 125.037L182.765 127.169L182.641 127.377L182.435 127.506L171.894 134.094L171.181 134.54L170.62 133.913L169.784 132.982L169.513 132.679L169.53 132.272L169.787 126.134L169.788 126.11L169.79 126.087L170.106 122.55L169.72 122.094L167.817 122.581L162.563 125.507L162.441 125.575L162.305 125.607L159.83 126.186L159.302 126.309L158.91 125.934L157.479 124.56L156.624 124.226L155.3 124.961L155.188 125.024L155.063 125.056L153.305 125.508C153.215 125.636 153.104 125.752 152.972 125.851L152.9 125.905L152.819 125.946C152.578 126.066 152.069 126.241 151.54 125.994C151.022 125.772 150.417 125.593 149.856 125.515C149.262 125.433 148.849 125.482 148.635 125.578L148.623 125.583L148.611 125.589C148.533 125.621 148.508 125.647 148.5 125.656C148.491 125.666 148.465 125.697 148.436 125.785C148.402 125.887 148.392 126.07 148.599 126.443C148.809 126.823 149.148 127.228 149.562 127.708L149.567 127.715L149.573 127.721C149.65 127.814 149.736 127.915 149.825 128.021L149.826 128.022C149.914 128.125 150.004 128.232 150.087 128.332L150.092 128.337L150.096 128.343C152.107 130.829 152.662 134.454 151.732 137.999L151.73 138.005L151.73 138.005C150.911 141.043 149.215 143.705 147.515 146.239C147.515 146.239 147.514 146.239 147.514 146.24L147.454 146.33C147.454 146.33 147.453 146.331 147.453 146.332C147.415 146.389 147.377 146.446 147.34 146.503C146.357 147.992 145.479 149.322 145.154 150.782C144.678 152.969 145.368 155.417 146.36 157.911L146.364 157.922L146.364 157.922C147.25 160.232 148.296 162.548 149.41 164.774C149.617 165.189 149.801 165.529 150.001 165.798C150.196 166.06 150.365 166.197 150.518 166.264C150.738 166.357 151.083 166.348 151.627 165.968C152.163 165.594 152.714 164.968 153.171 164.261L153.176 164.253L153.182 164.244C153.209 164.205 153.236 164.164 153.265 164.121C153.66 163.534 154.295 162.589 155.122 161.822C156.012 160.995 157.279 160.23 158.853 160.473C159.961 160.641 160.819 161.242 161.462 162.098C161.722 161.992 162.006 161.919 162.314 161.883L162.317 161.882C163.838 161.708 165.479 162.546 166.224 163.859C166.999 165.217 166.998 166.733 166.998 167.895C166.998 167.926 166.998 167.956 166.998 167.985C166.998 168.411 166.998 168.822 167.027 169.194L167.028 169.204C167.066 169.787 167.25 170.382 167.52 170.806C167.793 171.236 168.054 171.352 168.24 171.356C168.456 171.362 168.751 171.242 169.134 170.816C169.503 170.406 169.828 169.848 170.103 169.299C170.343 168.76 170.877 168.464 171.397 168.464C171.752 168.464 172.402 168.589 172.707 169.235C173.602 170.774 175.494 171.694 177.302 171.462C179.126 171.194 180.709 169.78 181.125 168.013L181.126 168.006C181.375 166.985 181.326 165.758 181.26 164.373C181.197 163.218 181.13 161.909 181.346 160.682C181.568 159.421 182.097 158.183 183.26 157.221L183.269 157.213L183.269 157.213C184.289 156.389 185.479 156.059 186.469 155.803C186.817 155.708 187.15 155.617 187.452 155.527C187.889 155.38 188.336 155.148 188.654 154.873C188.98 154.591 189.068 154.361 189.068 154.199V154.144L189.074 154.088C189.074 154.089 189.075 154.08 189.073 154.057C189.071 154.033 189.067 153.998 189.057 153.947C189.047 153.894 189.034 153.836 189.016 153.758L189.012 153.742C188.996 153.671 188.977 153.585 188.959 153.495L188.953 153.468L188.949 153.44C188.945 153.408 188.938 153.383 188.921 153.314C188.913 153.286 188.904 153.25 188.893 153.204C188.865 153.095 188.821 152.91 188.812 152.697C188.621 151.029 189.488 149.422 190.922 148.453C192.363 147.479 194.227 147.255 195.717 148.131M207.757 114.104L195.717 148.131M207.757 114.104C207.659 115.109 207.903 116.022 208.309 116.79C208.592 117.324 208.953 117.789 209.334 118.178C208.155 119.148 207.278 120.547 206.842 122.154L206.841 122.157C206.153 124.729 206.745 127.431 208.518 129.169C209.206 129.855 210.015 130.346 210.691 130.755C210.746 130.789 210.801 130.822 210.854 130.854C211.601 131.309 212.184 131.674 212.673 132.134C214.217 133.66 214.482 136.492 213.11 138.577L213.109 138.578C211.852 140.491 209.32 141.745 206.536 141.631C205.934 141.599 205.093 141.564 204.302 141.743C203.479 141.928 202.592 142.372 202.092 143.372C201.745 144.066 201.762 144.804 201.794 145.299C201.797 145.781 201.864 146.296 201.919 146.722C201.935 146.84 201.949 146.951 201.961 147.053L201.962 147.06C202.124 148.357 202.228 149.43 202.037 150.444C201.891 151.191 201.4 151.896 200.865 152.217L200.845 152.229L200.825 152.242C200.59 152.399 200.281 152.508 199.941 152.448C199.686 152.389 199.437 152.238 199.146 151.941C198.84 151.629 198.556 151.228 198.196 150.72L198.181 150.699C198.18 150.698 198.18 150.698 198.18 150.698L207.757 114.104ZM195.717 148.131C195.716 148.131 195.716 148.13 195.715 148.13L195.21 148.993L195.717 148.131L195.717 148.131ZM162.002 162.966C161.658 163.073 161.377 163.255 161.145 163.486C160.983 163.163 160.804 162.874 160.606 162.623L162.002 162.966Z" stroke="white" stroke-width="2"/>
</g>
<defs>
<filter id="filter0_d_639_307" x="0" y="0" width="361" height="357" filterUnits="userSpaceOnUse" color-interpolation-filters="sRGB">
<feFlood flood-opacity="0" result="BackgroundImageFix"/>
<feColorMatrix in="SourceAlpha" type="matrix" values="0 0 0 0 0 0 0 0 0 0 0 0 0 0 0 0 0 0 127 0" result="hardAlpha"/>
<feOffset dx="2" dy="2"/>
<feGaussianBlur stdDeviation="2"/>
<feComposite in2="hardAlpha" operator="out"/>
<feColorMatrix type="matrix" values="0 0 0 0 0 0 0 0 0 0 0 0 0 0 0 0 0 0 0.25 0"/>
<feBlend mode="normal" in2="BackgroundImageFix" result="effect1_dropShadow_639_307"/>
<feBlend mode="normal" in="SourceGraphic" in2="effect1_dropShadow_639_307" result="shape"/>
</filter>
<linearGradient id="paint0_linear_639_307" x1="144.488" y1="202.766" x2="213.512" y2="83.2345" gradientUnits="userSpaceOnUse">
<stop stop-color="#0460A9"/>
<stop offset="1" stop-color="#50E2D0"/>
</linearGradient>
</defs>
</svg>
