<svg width="361" height="357" viewBox="0 0 361 357" fill="none" xmlns="http://www.w3.org/2000/svg">
<g filter="url(#filter0_d_639_310)">
<rect x="2" y="2" width="353" height="349" rx="19.0804" fill="white"/>
<path d="M49.14 273V248.738H57.2162L60.1684 259.359C60.6096 260.886 61.5597 264.89 61.5597 264.89H61.6276C61.6276 264.89 62.5777 260.886 62.9849 259.359L65.9711 248.738H74.1151V273H68.6179V260.784C68.6179 259.8 68.7197 255.931 68.7197 255.931H68.6518C68.6518 255.931 67.8035 259.562 67.532 260.445L64.0368 273H59.0825L55.6213 260.479C55.3498 259.596 54.5015 255.931 54.5015 255.931H54.4336C54.4336 255.931 54.5354 259.834 54.5354 260.818V273H49.14ZM83.9892 269.912C86.0592 269.912 87.4844 268.657 87.4844 266.79V264.72C86.7718 265.093 85.7538 265.365 84.634 265.636C82.4962 266.111 81.6139 266.654 81.6139 267.978C81.6139 269.369 82.6319 269.912 83.9892 269.912ZM82.2247 273.441C78.7635 273.441 76.2863 271.575 76.2863 268.148C76.2863 264.313 79.3403 263.159 82.9373 262.684C86.1949 262.277 87.3487 261.938 87.3487 260.75C87.3487 259.63 86.6361 258.884 84.9733 258.884C83.2088 258.884 82.3265 259.664 82.1568 261.123H77.0668C77.2025 257.9 79.6797 255.151 84.9394 255.151C87.5523 255.151 89.3168 255.626 90.5723 256.576C92.0654 257.662 92.778 259.359 92.778 261.53V270.285C92.778 271.677 92.9138 272.457 93.3888 272.762V273H88.0273C87.7559 272.627 87.5862 271.948 87.4505 271.066H87.3826C86.3646 272.525 84.8376 273.441 82.2247 273.441ZM104.554 269.267C106.657 269.267 107.947 267.469 107.947 264.517C107.947 261.53 106.827 259.562 104.452 259.562C102.042 259.562 100.821 261.7 100.821 264.517C100.821 267.333 102.178 269.267 104.554 269.267ZM95.4593 278.735V255.626H100.753V257.73H100.855C102.042 256.169 103.739 255.117 106.114 255.117C110.729 255.117 113.546 259.087 113.546 264.313C113.546 269.946 110.526 273.543 105.979 273.543C103.739 273.543 102.144 272.661 101.058 271.202H100.99V278.735H95.4593ZM124.503 269.267C126.607 269.267 127.896 267.469 127.896 264.517C127.896 261.53 126.776 259.562 124.401 259.562C121.992 259.562 120.77 261.7 120.77 264.517C120.77 267.333 122.127 269.267 124.503 269.267ZM115.409 278.735V255.626H120.702V257.73H120.804C121.992 256.169 123.688 255.117 126.064 255.117C130.679 255.117 133.495 259.087 133.495 264.313C133.495 269.946 130.475 273.543 125.928 273.543C123.688 273.543 122.093 272.661 121.008 271.202H120.94V278.735H115.409ZM142.246 269.912C144.316 269.912 145.741 268.657 145.741 266.79V264.72C145.029 265.093 144.011 265.365 142.891 265.636C140.753 266.111 139.871 266.654 139.871 267.978C139.871 269.369 140.889 269.912 142.246 269.912ZM140.482 273.441C137.02 273.441 134.543 271.575 134.543 268.148C134.543 264.313 137.597 263.159 141.194 262.684C144.452 262.277 145.606 261.938 145.606 260.75C145.606 259.63 144.893 258.884 143.23 258.884C141.466 258.884 140.584 259.664 140.414 261.123H135.324C135.46 257.9 137.937 255.151 143.196 255.151C145.809 255.151 147.574 255.626 148.829 256.576C150.322 257.662 151.035 259.359 151.035 261.53V270.285C151.035 271.677 151.171 272.457 151.646 272.762V273H146.284C146.013 272.627 145.843 271.948 145.707 271.066H145.64C144.622 272.525 143.095 273.441 140.482 273.441ZM165.331 259.461H169.844C172.219 259.461 173.441 258.341 173.441 256.508C173.441 254.744 172.287 253.488 169.98 253.488H165.331V259.461ZM159.325 273V248.738H170.93C175.748 248.738 179.413 251.215 179.413 255.728C179.413 258.544 178.022 260.614 175.206 261.598V261.7C177.309 262.413 178.395 263.736 178.735 266.145C179.244 269.335 178.904 272.389 179.753 272.695V273H173.916C173.271 272.627 173.373 269.776 173 267.367C172.694 265.127 171.541 263.906 168.962 263.906H165.331V273H159.325ZM190.069 273.509C184.334 273.509 180.805 269.539 180.805 264.279C180.805 259.087 184.436 255.117 189.73 255.117C192.207 255.117 194.175 255.931 195.668 257.289C197.738 259.189 198.756 262.209 198.722 265.738H186.234C186.574 268.08 187.863 269.539 190.137 269.539C191.596 269.539 192.546 268.894 193.021 267.808H198.417C198.043 269.369 197.025 270.862 195.498 271.914C194.039 272.932 192.275 273.509 190.069 273.509ZM186.268 262.447H193.123C192.919 260.377 191.63 259.053 189.831 259.053C187.728 259.053 186.642 260.377 186.268 262.447ZM208.616 267.944C211.025 267.944 212.145 266.044 212.145 263.6C212.145 261.259 210.924 259.291 208.616 259.291C206.546 259.291 205.189 260.988 205.189 263.634C205.189 266.247 206.546 267.944 208.616 267.944ZM208.65 279.006C203.865 279.006 200.71 277.038 200.167 273.407H205.528C205.834 274.323 206.75 275.104 208.582 275.104C210.924 275.104 211.908 273.882 211.908 271.778V270.048H211.772C210.754 271.202 209.43 272.05 207.327 272.05C203.424 272.05 199.793 269.132 199.793 263.804C199.793 258.714 202.779 255.117 207.089 255.117C209.397 255.117 210.957 256.033 211.975 257.492H212.043V255.626H217.337V271.303C217.337 273.916 216.421 275.816 215.03 277.072C213.502 278.429 211.229 279.006 208.65 279.006ZM222.775 248.229C224.506 248.229 225.829 249.45 225.829 251.181C225.829 252.911 224.506 254.133 222.775 254.133C221.045 254.133 219.721 252.911 219.721 251.181C219.721 249.45 221.045 248.229 222.775 248.229ZM219.993 273V255.626H225.524V273H219.993ZM236.695 273.543C231.13 273.543 227.397 269.573 227.397 264.347C227.397 259.121 231.13 255.151 236.695 255.151C242.294 255.151 245.959 259.121 245.959 264.347C245.959 269.573 242.294 273.543 236.695 273.543ZM236.661 269.607C239.071 269.607 240.36 267.503 240.36 264.347C240.36 261.191 239.071 259.053 236.661 259.053C234.252 259.053 232.997 261.191 232.997 264.347C232.997 267.503 234.252 269.607 236.661 269.607ZM247.829 273V255.626H253.157V258.001H253.258C254.548 256.135 256.211 255.117 258.62 255.117C262.42 255.117 264.66 257.832 264.66 261.7V273H259.129V262.82C259.129 260.988 258.213 259.732 256.414 259.732C254.582 259.732 253.36 261.259 253.36 263.397V273H247.829ZM274.07 269.912C276.14 269.912 277.565 268.657 277.565 266.79V264.72C276.853 265.093 275.835 265.365 274.715 265.636C272.577 266.111 271.695 266.654 271.695 267.978C271.695 269.369 272.713 269.912 274.07 269.912ZM272.306 273.441C268.844 273.441 266.367 271.575 266.367 268.148C266.367 264.313 269.421 263.159 273.018 262.684C276.276 262.277 277.43 261.938 277.43 260.75C277.43 259.63 276.717 258.884 275.054 258.884C273.29 258.884 272.407 259.664 272.238 261.123H267.148C267.283 257.9 269.761 255.151 275.02 255.151C277.633 255.151 279.398 255.626 280.653 256.576C282.146 257.662 282.859 259.359 282.859 261.53V270.285C282.859 271.677 282.995 272.457 283.47 272.762V273H278.108C277.837 272.627 277.667 271.948 277.531 271.066H277.464C276.446 272.525 274.919 273.441 272.306 273.441ZM285.574 273V248.738H291.173V273H285.574ZM302.341 273.509C296.607 273.509 293.077 269.539 293.077 264.279C293.077 259.087 296.708 255.117 302.002 255.117C304.479 255.117 306.447 255.931 307.94 257.289C310.01 259.189 311.028 262.209 310.994 265.738H298.507C298.846 268.08 300.136 269.539 302.409 269.539C303.868 269.539 304.818 268.894 305.294 267.808H310.689C310.316 269.369 309.298 270.862 307.771 271.914C306.312 272.932 304.547 273.509 302.341 273.509ZM298.541 262.447H305.395C305.192 260.377 303.902 259.053 302.104 259.053C300 259.053 298.914 260.377 298.541 262.447ZM157.215 314.577C150.768 314.577 146.526 311.726 146.39 306.365H152.43C152.702 308.808 154.297 309.826 157.181 309.826C159.149 309.826 161.083 309.114 161.083 307.281C161.083 305.347 159.115 304.94 155.79 304.125C151.582 303.141 147.137 301.852 147.137 296.762C147.137 291.57 151.345 289.296 156.774 289.296C162.034 289.296 166.106 291.672 166.343 296.762H160.473C160.235 294.895 158.81 293.843 156.57 293.843C154.466 293.843 153.075 294.76 153.075 296.117C153.075 297.814 154.942 298.221 158.572 299.035C163.086 300.087 167.158 301.479 167.158 306.67C167.158 311.76 162.814 314.577 157.215 314.577ZM179.617 314.577C173.169 314.577 168.927 311.726 168.792 306.365H174.832C175.103 308.808 176.698 309.826 179.583 309.826C181.551 309.826 183.485 309.114 183.485 307.281C183.485 305.347 181.517 304.94 178.191 304.125C173.984 303.141 169.538 301.852 169.538 296.762C169.538 291.57 173.746 289.296 179.175 289.296C184.435 289.296 188.507 291.672 188.745 296.762H182.874C182.637 294.895 181.211 293.843 178.972 293.843C176.868 293.843 175.477 294.76 175.477 296.117C175.477 297.814 177.343 298.221 180.974 299.035C185.487 300.087 189.559 301.479 189.559 306.67C189.559 311.76 185.216 314.577 179.617 314.577ZM198.022 300.461H202.535C204.91 300.461 206.132 299.341 206.132 297.508C206.132 295.744 204.978 294.488 202.671 294.488H198.022V300.461ZM192.016 314V289.738H203.621C208.439 289.738 212.104 292.215 212.104 296.728C212.104 299.544 210.713 301.614 207.896 302.598V302.7C210 303.413 211.086 304.736 211.426 307.145C211.935 310.335 211.595 313.389 212.444 313.695V314H206.607C205.962 313.627 206.064 310.776 205.691 308.367C205.385 306.127 204.232 304.906 201.653 304.906H198.022V314H192.016Z" fill="#002068"/>
<path d="M179 212C217.108 212 248 181.108 248 143C248 104.892 217.108 74 179 74C140.892 74 110 104.892 110 143C110 181.108 140.892 212 179 212Z" fill="url(#paint0_linear_639_310)"/>
<mask id="path-4-inside-1_639_310" fill="white">
<path d="M156.461 114.197C153.835 116.326 150.5 117.461 147.484 118.455C147.626 120.974 147.555 123.706 145.781 125.551C145.036 126.296 144.113 126.793 143.226 127.254C142.694 127.538 142.162 127.787 141.7 128.106C139.926 129.312 138.933 131.512 139.004 133.996C139.11 136.48 140.281 138.573 142.126 139.638L142.658 139.957C144.468 140.951 146.987 142.37 146.065 144.499C145.781 145.173 145.178 145.599 144.645 145.989C144.291 146.238 143.936 146.486 143.723 146.805C143.013 147.763 143.332 149.289 144.716 151.276L155.077 166.427C155.751 167.421 156.568 168.45 157.597 168.556C158.626 168.663 159.513 167.918 160.435 167.173C163.238 164.937 165.616 163.802 168.029 163.66C170.725 163.482 174.096 164.902 175.019 167.882C175.374 169.089 175.303 170.295 175.232 171.502C175.196 172.069 175.161 172.672 175.161 173.24C175.232 175.795 176.438 178.279 178.39 179.875C178.425 179.911 178.461 179.982 178.461 180.053C180.448 180.053 181.654 179.84 181.973 178.74C182.08 178.385 182.044 177.959 181.973 177.498C181.973 177.108 181.902 176.753 181.938 176.363C182.151 171.892 187.651 170.473 192.299 170.579C193.86 170.614 195.634 170.792 196.805 172.105C197.231 172.601 197.479 173.169 197.692 173.666C197.834 174.021 198.012 174.376 198.189 174.624C198.615 175.192 199.396 175.227 199.928 175.121C200.46 175.014 201.17 174.624 201.347 173.95C201.418 173.666 201.595 173.418 201.879 173.276C203.76 172.318 204.682 171.005 206.031 168.947C206.173 168.734 206.35 168.592 206.599 168.521C209.757 167.634 213.198 169.053 215.327 172.14C216.96 174.482 217.456 177.143 216.782 179.45C217.492 178.953 217.953 178.279 218.237 177.676C219.514 175.014 219.16 170.969 217.385 168.379C216.108 166.498 214.369 164.866 212.702 163.269C210.36 161.034 207.911 158.692 206.492 155.641C203.476 149.112 206.066 141.589 208.266 136.48C208.515 135.877 208.763 135.344 208.728 134.883C208.657 133.464 206.457 132.825 205.073 132.896C204.682 132.896 204.328 132.896 203.937 132.932C202.163 133.038 200.105 133.144 198.508 131.903C197.408 131.051 196.77 129.845 196.734 128.39C196.628 125.658 198.508 122.748 200.389 121.116L201.312 120.335C203.724 118.277 206.244 116.113 205.96 113.416C205.534 109.264 199.112 108.484 196.379 108.306L169.022 106.745C166.254 106.603 163.416 106.39 160.613 106C160.684 108.91 159.122 112.032 156.39 114.197"/>
</mask>
<path d="M147.484 118.455L146.858 116.555L145.401 117.035L145.487 118.567L147.484 118.455ZM145.781 125.551L147.195 126.965L147.209 126.951L147.222 126.937L145.781 125.551ZM143.226 127.254L142.303 125.48L142.294 125.485L142.285 125.49L143.226 127.254ZM141.7 128.106L142.825 129.76L142.832 129.755L142.839 129.75L141.7 128.106ZM139.004 133.996L137.004 134.053L137.005 134.067L137.005 134.082L139.004 133.996ZM142.126 139.638L143.155 137.923L143.14 137.914L143.125 137.905L142.126 139.638ZM142.658 139.957L141.629 141.672L141.662 141.692L141.696 141.71L142.658 139.957ZM146.065 144.499L144.23 143.704L144.225 143.713L144.221 143.723L146.065 144.499ZM144.645 145.989L145.792 147.628L145.81 147.615L145.828 147.602L144.645 145.989ZM143.723 146.805L145.33 147.996L145.359 147.956L145.387 147.915L143.723 146.805ZM144.716 151.276L146.367 150.147L146.362 150.14L146.358 150.133L144.716 151.276ZM155.077 166.427L156.732 165.304L156.728 165.298L155.077 166.427ZM160.435 167.173L159.188 165.609L159.179 165.617L160.435 167.173ZM168.029 163.66L168.146 165.656L168.16 165.655L168.029 163.66ZM175.019 167.882L176.937 167.318L176.933 167.304L176.929 167.291L175.019 167.882ZM175.232 171.502L177.228 171.626L177.228 171.619L175.232 171.502ZM175.161 173.24H173.161V173.268L173.161 173.296L175.161 173.24ZM178.39 179.875L179.804 178.461L179.733 178.391L179.656 178.328L178.39 179.875ZM178.461 180.053H176.461V182.053H178.461V180.053ZM181.973 178.74L180.058 178.165L180.055 178.174L180.053 178.182L181.973 178.74ZM181.973 177.498H179.973V177.651L179.997 177.802L181.973 177.498ZM181.938 176.363L183.93 176.544L183.934 176.501L183.936 176.458L181.938 176.363ZM192.299 170.579L192.253 172.578L192.254 172.578L192.299 170.579ZM196.805 172.105L198.324 170.803L198.311 170.788L198.298 170.773L196.805 172.105ZM197.692 173.666L199.549 172.923L199.54 172.901L199.531 172.878L197.692 173.666ZM198.189 174.624L196.562 175.786L196.575 175.805L196.589 175.824L198.189 174.624ZM201.347 173.95L203.281 174.459L203.284 174.447L203.287 174.435L201.347 173.95ZM201.879 173.276L202.774 175.064L202.78 175.061L202.787 175.058L201.879 173.276ZM206.031 168.947L204.367 167.837L204.362 167.844L204.358 167.851L206.031 168.947ZM206.599 168.521L206.058 166.595L206.049 166.598L206.599 168.521ZM215.327 172.14L213.681 173.276L213.687 173.284L215.327 172.14ZM216.782 179.45L214.862 178.889L213.265 184.353L217.929 181.088L216.782 179.45ZM218.237 177.676L216.434 176.81L216.431 176.817L216.427 176.824L218.237 177.676ZM217.385 168.379L215.731 169.503L215.735 169.509L217.385 168.379ZM212.702 163.269L214.085 161.825L214.083 161.823L212.702 163.269ZM206.492 155.641L204.676 156.479L204.679 156.484L206.492 155.641ZM208.266 136.48L210.103 137.271L210.11 137.256L210.116 137.241L208.266 136.48ZM208.728 134.883L206.73 134.983L206.731 135.01L206.733 135.037L208.728 134.883ZM205.073 132.896V134.896H205.124L205.175 134.893L205.073 132.896ZM203.937 132.932L204.057 134.928L204.088 134.926L204.118 134.923L203.937 132.932ZM198.508 131.903L199.736 130.324L199.733 130.321L198.508 131.903ZM196.734 128.39L198.734 128.341L198.733 128.326L198.733 128.312L196.734 128.39ZM200.389 121.116L199.097 119.589L199.088 119.597L199.078 119.605L200.389 121.116ZM201.312 120.335L202.603 121.862L202.609 121.857L201.312 120.335ZM205.96 113.416L203.97 113.62L203.971 113.625L205.96 113.416ZM196.379 108.306L196.509 106.311L196.501 106.31L196.493 106.31L196.379 108.306ZM169.022 106.745L169.136 104.748L169.125 104.748L169.022 106.745ZM160.613 106L160.889 104.019L158.556 103.694L158.613 106.049L160.613 106ZM155.202 112.643C152.904 114.506 149.92 115.546 146.858 116.555L148.11 120.354C151.08 119.376 154.767 118.145 157.721 115.75L155.202 112.643ZM145.487 118.567C145.632 121.143 145.446 123.014 144.339 124.165L147.222 126.937C149.664 124.398 149.62 120.804 149.481 118.342L145.487 118.567ZM144.367 124.137C143.867 124.636 143.209 125.009 142.303 125.48L144.149 129.029C145.017 128.577 146.204 127.956 147.195 126.965L144.367 124.137ZM142.285 125.49C141.885 125.703 141.15 126.054 140.562 126.461L142.839 129.75C143.173 129.519 143.503 129.373 144.167 129.019L142.285 125.49ZM140.576 126.452C138.13 128.115 136.918 131.028 137.004 134.053L141.003 133.939C140.947 131.996 141.723 130.509 142.825 129.76L140.576 126.452ZM137.005 134.082C137.136 137.128 138.591 139.907 141.127 141.37L143.125 137.905C141.971 137.239 141.084 135.832 141.002 133.91L137.005 134.082ZM141.097 141.353L141.629 141.672L143.687 138.242L143.155 137.923L141.097 141.353ZM141.696 141.71C142.653 142.236 143.466 142.708 143.968 143.212C144.199 143.445 144.252 143.579 144.261 143.607C144.262 143.612 144.262 143.613 144.262 143.61C144.262 143.609 144.262 143.607 144.262 143.606C144.262 143.604 144.262 143.604 144.262 143.604C144.262 143.604 144.261 143.605 144.261 143.609C144.26 143.612 144.26 143.617 144.258 143.625C144.254 143.64 144.246 143.666 144.23 143.704L147.9 145.294C148.311 144.346 148.367 143.372 148.091 142.455C147.83 141.587 147.314 140.905 146.804 140.392C145.825 139.407 144.474 138.672 143.621 138.204L141.696 141.71ZM144.221 143.723C144.22 143.726 144.198 143.78 144.073 143.899C143.93 144.033 143.761 144.158 143.463 144.376L145.828 147.602C146.248 147.294 147.37 146.553 147.908 145.275L144.221 143.723ZM143.498 144.351C143.228 144.54 142.521 145.002 142.059 145.696L145.387 147.915C145.347 147.975 145.331 147.974 145.411 147.907C145.495 147.837 145.601 147.761 145.792 147.628L143.498 144.351ZM142.116 145.615C141.325 146.682 141.23 147.939 141.481 149.083C141.723 150.189 142.305 151.314 143.075 152.419L146.358 150.133C145.744 149.252 145.474 148.62 145.388 148.227C145.31 147.872 145.41 147.887 145.33 147.996L142.116 145.615ZM143.065 152.405L153.426 167.556L156.728 165.298L146.367 150.147L143.065 152.405ZM153.422 167.55C153.775 168.07 154.247 168.726 154.829 169.277C155.406 169.824 156.261 170.429 157.391 170.546L157.802 166.567C157.903 166.577 157.835 166.615 157.579 166.372C157.327 166.134 157.054 165.778 156.732 165.304L153.422 167.55ZM157.391 170.546C158.473 170.658 159.379 170.303 160.048 169.92C160.685 169.557 161.276 169.064 161.692 168.728L159.179 165.617C158.672 166.026 158.359 166.279 158.064 166.447C157.802 166.597 157.75 166.562 157.802 166.567L157.391 170.546ZM161.682 168.736C164.333 166.622 166.32 165.764 168.146 165.656L167.911 161.663C164.912 161.84 162.144 163.252 159.188 165.609L161.682 168.736ZM168.16 165.655C170.308 165.514 172.557 166.691 173.108 168.474L176.929 167.291C175.636 163.112 171.143 161.451 167.897 161.664L168.16 165.655ZM173.1 168.447C173.341 169.266 173.309 170.125 173.235 171.384L177.228 171.619C177.296 170.465 177.406 168.911 176.937 167.318L173.1 168.447ZM173.236 171.377C173.2 171.94 173.161 172.602 173.161 173.24H177.161C177.161 172.743 177.192 172.199 177.228 171.626L173.236 171.377ZM173.161 173.296C173.248 176.42 174.714 179.452 177.123 181.423L179.656 178.328C178.162 177.105 177.215 175.17 177.16 173.185L173.161 173.296ZM176.975 181.29C176.782 181.096 176.668 180.897 176.6 180.739C176.529 180.573 176.461 180.339 176.461 180.053H180.461C180.461 179.417 180.189 178.846 179.804 178.461L176.975 181.29ZM178.461 182.053C179.458 182.053 180.539 182.009 181.458 181.712C182.514 181.37 183.506 180.635 183.894 179.298L180.053 178.182C180.068 178.13 180.117 178.028 180.212 177.94C180.291 177.867 180.328 177.873 180.227 177.906C180.121 177.94 179.931 177.982 179.617 178.011C179.307 178.04 178.928 178.053 178.461 178.053V182.053ZM183.889 179.315C184.138 178.486 184.021 177.655 183.95 177.194L179.997 177.802C180.027 178.001 180.039 178.123 180.04 178.202C180.042 178.28 180.032 178.252 180.058 178.165L183.889 179.315ZM183.973 177.498C183.973 177.21 183.946 176.913 183.937 176.788C183.926 176.624 183.927 176.571 183.93 176.544L179.946 176.182C179.913 176.545 179.933 176.864 179.947 177.073C179.965 177.32 179.973 177.396 179.973 177.498H183.973ZM183.936 176.458C183.994 175.223 184.719 174.285 186.282 173.575C187.894 172.843 190.102 172.529 192.253 172.578L192.345 168.579C189.848 168.522 186.981 168.865 184.628 169.933C182.227 171.024 180.094 173.032 179.94 176.268L183.936 176.458ZM192.254 172.578C193.84 172.614 194.771 172.829 195.313 173.436L198.298 170.773C196.497 168.755 193.88 168.614 192.344 168.579L192.254 172.578ZM195.287 173.406C195.489 173.642 195.635 173.942 195.854 174.454L199.531 172.878C199.324 172.397 198.973 171.561 198.324 170.803L195.287 173.406ZM195.835 174.409C196.008 174.84 196.255 175.357 196.562 175.786L199.817 173.462C199.768 173.394 199.661 173.201 199.549 172.923L195.835 174.409ZM196.589 175.824C197.735 177.352 199.575 177.231 200.32 177.082L199.536 173.16C199.512 173.164 199.483 173.168 199.456 173.168C199.427 173.169 199.42 173.166 199.432 173.168C199.445 173.171 199.495 173.183 199.564 173.223C199.639 173.266 199.721 173.333 199.789 173.424L196.589 175.824ZM200.32 177.082C200.849 176.976 201.434 176.742 201.953 176.361C202.478 175.976 203.045 175.356 203.281 174.459L199.413 173.441C199.441 173.333 199.487 173.253 199.525 173.202C199.561 173.155 199.587 173.136 199.588 173.135C199.588 173.135 199.578 173.142 199.558 173.151C199.537 173.16 199.527 173.161 199.536 173.16L200.32 177.082ZM203.287 174.435C203.232 174.658 203.064 174.919 202.774 175.064L200.985 171.487C200.127 171.916 199.605 172.674 199.407 173.465L203.287 174.435ZM202.787 175.058C205.188 173.834 206.359 172.095 207.704 170.043L204.358 167.851C203.006 169.915 202.331 170.801 200.971 171.494L202.787 175.058ZM207.695 170.056C207.665 170.101 207.599 170.186 207.487 170.271C207.371 170.36 207.25 170.415 207.148 170.444L206.049 166.598C205.29 166.815 204.739 167.279 204.367 167.837L207.695 170.056ZM207.139 170.446C209.334 169.83 211.949 170.765 213.681 173.276L216.974 171.005C214.448 167.342 210.179 165.438 206.058 166.595L207.139 170.446ZM213.687 173.284C215.027 175.207 215.342 177.249 214.862 178.889L218.702 180.011C219.571 177.038 218.892 173.757 216.968 170.997L213.687 173.284ZM217.929 181.088C219 180.338 219.659 179.35 220.047 178.527L216.427 176.824C216.247 177.207 215.983 177.567 215.635 177.811L217.929 181.088ZM220.04 178.541C220.869 176.814 221.123 174.759 220.947 172.821C220.772 170.876 220.149 168.875 219.035 167.249L215.735 169.509C216.396 170.473 216.838 171.79 216.964 173.181C217.09 174.577 216.882 175.876 216.434 176.81L220.04 178.541ZM219.04 167.255C217.619 165.164 215.707 163.378 214.085 161.825L211.318 164.714C213.032 166.354 214.597 167.833 215.731 169.503L219.04 167.255ZM214.083 161.823C211.694 159.543 209.54 157.45 208.306 154.797L204.679 156.484C206.283 159.934 209.026 162.525 211.321 164.716L214.083 161.823ZM208.308 154.802C205.701 149.16 207.887 142.418 210.103 137.271L206.429 135.689C204.246 140.76 201.251 149.064 204.676 156.479L208.308 154.802ZM210.116 137.241C210.214 137.002 210.383 136.613 210.501 136.261C210.621 135.9 210.77 135.353 210.722 134.73L206.733 135.037C206.721 134.874 206.763 134.824 206.706 134.996C206.681 135.07 206.646 135.162 206.595 135.288C206.536 135.433 206.494 135.532 206.417 135.718L210.116 137.241ZM210.725 134.783C210.632 132.926 209.169 131.936 208.211 131.506C207.171 131.039 205.957 130.848 204.97 130.899L205.175 134.893C205.572 134.873 206.15 134.966 206.574 135.156C206.669 135.198 206.739 135.238 206.788 135.271C206.837 135.304 206.853 135.322 206.85 135.318C206.831 135.298 206.74 135.176 206.73 134.983L210.725 134.783ZM205.073 130.896C204.693 130.896 204.25 130.895 203.756 130.94L204.118 134.923C204.405 134.897 204.672 134.896 205.073 134.896V130.896ZM203.818 130.935C201.906 131.05 200.646 131.031 199.736 130.324L197.281 133.481C199.565 135.258 202.421 135.026 204.057 134.928L203.818 130.935ZM199.733 130.321C199.098 129.83 198.754 129.181 198.734 128.341L194.735 128.439C194.785 130.508 195.719 132.272 197.284 133.484L199.733 130.321ZM198.733 128.312C198.698 127.415 198.993 126.365 199.574 125.295C200.15 124.236 200.938 123.288 201.7 122.626L199.078 119.605C197.96 120.576 196.867 121.899 196.059 123.385C195.257 124.862 194.664 126.632 194.736 128.468L198.733 128.312ZM201.681 122.642L202.603 121.862L200.02 118.808L199.097 119.589L201.681 122.642ZM202.609 121.857C203.781 120.857 205.176 119.673 206.217 118.354C207.275 117.014 208.168 115.285 207.949 113.207L203.971 113.625C204.036 114.243 203.811 114.946 203.077 115.876C202.326 116.828 201.255 117.755 200.014 118.813L202.609 121.857ZM207.949 113.212C207.615 109.946 204.919 108.301 202.725 107.494C200.447 106.655 197.923 106.402 196.509 106.311L196.25 110.302C197.568 110.388 199.622 110.614 201.344 111.248C203.151 111.913 203.879 112.734 203.97 113.62L207.949 113.212ZM196.493 106.31L169.136 104.748L168.908 108.742L196.266 110.303L196.493 106.31ZM169.125 104.748C166.386 104.607 163.611 104.398 160.889 104.019L160.337 107.981C163.221 108.382 166.123 108.599 168.92 108.743L169.125 104.748ZM158.613 106.049C158.667 108.232 157.471 110.789 155.148 112.629L157.632 115.764C160.774 113.275 162.701 109.587 162.612 105.951L158.613 106.049Z" fill="white" mask="url(#path-4-inside-1_639_310)"/>
</g>
<defs>
<filter id="filter0_d_639_310" x="0" y="0" width="361" height="357" filterUnits="userSpaceOnUse" color-interpolation-filters="sRGB">
<feFlood flood-opacity="0" result="BackgroundImageFix"/>
<feColorMatrix in="SourceAlpha" type="matrix" values="0 0 0 0 0 0 0 0 0 0 0 0 0 0 0 0 0 0 127 0" result="hardAlpha"/>
<feOffset dx="2" dy="2"/>
<feGaussianBlur stdDeviation="2"/>
<feComposite in2="hardAlpha" operator="out"/>
<feColorMatrix type="matrix" values="0 0 0 0 0 0 0 0 0 0 0 0 0 0 0 0 0 0 0.25 0"/>
<feBlend mode="normal" in2="BackgroundImageFix" result="effect1_dropShadow_639_310"/>
<feBlend mode="normal" in="SourceGraphic" in2="effect1_dropShadow_639_310" result="shape"/>
</filter>
<linearGradient id="paint0_linear_639_310" x1="144.488" y1="202.766" x2="213.512" y2="83.2345" gradientUnits="userSpaceOnUse">
<stop stop-color="#0460A9"/>
<stop offset="1" stop-color="#50E2D0"/>
</linearGradient>
</defs>
</svg>
