<svg width="361" height="357" viewBox="0 0 361 357" fill="none" xmlns="http://www.w3.org/2000/svg">
<g filter="url(#filter0_d_639_323)">
<rect x="2" y="2" width="353" height="349" rx="19.0804" fill="white"/>
<path d="M49.14 273V248.738H57.2162L60.1684 259.359C60.6096 260.886 61.5597 264.89 61.5597 264.89H61.6276C61.6276 264.89 62.5777 260.886 62.9849 259.359L65.9711 248.738H74.1151V273H68.6179V260.784C68.6179 259.8 68.7197 255.931 68.7197 255.931H68.6518C68.6518 255.931 67.8035 259.562 67.532 260.445L64.0368 273H59.0825L55.6213 260.479C55.3498 259.596 54.5015 255.931 54.5015 255.931H54.4336C54.4336 255.931 54.5354 259.834 54.5354 260.818V273H49.14ZM83.9892 269.912C86.0592 269.912 87.4844 268.657 87.4844 266.79V264.72C86.7718 265.093 85.7538 265.365 84.634 265.636C82.4962 266.111 81.6139 266.654 81.6139 267.978C81.6139 269.369 82.6319 269.912 83.9892 269.912ZM82.2247 273.441C78.7635 273.441 76.2863 271.575 76.2863 268.148C76.2863 264.313 79.3403 263.159 82.9373 262.684C86.1949 262.277 87.3487 261.938 87.3487 260.75C87.3487 259.63 86.6361 258.884 84.9733 258.884C83.2088 258.884 82.3265 259.664 82.1568 261.123H77.0668C77.2025 257.9 79.6797 255.151 84.9394 255.151C87.5523 255.151 89.3168 255.626 90.5723 256.576C92.0654 257.662 92.778 259.359 92.778 261.53V270.285C92.778 271.677 92.9138 272.457 93.3888 272.762V273H88.0273C87.7559 272.627 87.5862 271.948 87.4505 271.066H87.3826C86.3646 272.525 84.8376 273.441 82.2247 273.441ZM104.554 269.267C106.657 269.267 107.947 267.469 107.947 264.517C107.947 261.53 106.827 259.562 104.452 259.562C102.042 259.562 100.821 261.7 100.821 264.517C100.821 267.333 102.178 269.267 104.554 269.267ZM95.4593 278.735V255.626H100.753V257.73H100.855C102.042 256.169 103.739 255.117 106.114 255.117C110.729 255.117 113.546 259.087 113.546 264.313C113.546 269.946 110.526 273.543 105.979 273.543C103.739 273.543 102.144 272.661 101.058 271.202H100.99V278.735H95.4593ZM124.503 269.267C126.607 269.267 127.896 267.469 127.896 264.517C127.896 261.53 126.776 259.562 124.401 259.562C121.992 259.562 120.77 261.7 120.77 264.517C120.77 267.333 122.127 269.267 124.503 269.267ZM115.409 278.735V255.626H120.702V257.73H120.804C121.992 256.169 123.688 255.117 126.064 255.117C130.679 255.117 133.495 259.087 133.495 264.313C133.495 269.946 130.475 273.543 125.928 273.543C123.688 273.543 122.093 272.661 121.008 271.202H120.94V278.735H115.409ZM142.246 269.912C144.316 269.912 145.741 268.657 145.741 266.79V264.72C145.029 265.093 144.011 265.365 142.891 265.636C140.753 266.111 139.871 266.654 139.871 267.978C139.871 269.369 140.889 269.912 142.246 269.912ZM140.482 273.441C137.02 273.441 134.543 271.575 134.543 268.148C134.543 264.313 137.597 263.159 141.194 262.684C144.452 262.277 145.606 261.938 145.606 260.75C145.606 259.63 144.893 258.884 143.23 258.884C141.466 258.884 140.584 259.664 140.414 261.123H135.324C135.46 257.9 137.937 255.151 143.196 255.151C145.809 255.151 147.574 255.626 148.829 256.576C150.322 257.662 151.035 259.359 151.035 261.53V270.285C151.035 271.677 151.171 272.457 151.646 272.762V273H146.284C146.013 272.627 145.843 271.948 145.707 271.066H145.64C144.622 272.525 143.095 273.441 140.482 273.441ZM165.331 259.461H169.844C172.219 259.461 173.441 258.341 173.441 256.508C173.441 254.744 172.287 253.488 169.98 253.488H165.331V259.461ZM159.325 273V248.738H170.93C175.748 248.738 179.413 251.215 179.413 255.728C179.413 258.544 178.022 260.614 175.206 261.598V261.7C177.309 262.413 178.395 263.736 178.735 266.145C179.244 269.335 178.904 272.389 179.753 272.695V273H173.916C173.271 272.627 173.373 269.776 173 267.367C172.694 265.127 171.541 263.906 168.962 263.906H165.331V273H159.325ZM190.069 273.509C184.334 273.509 180.805 269.539 180.805 264.279C180.805 259.087 184.436 255.117 189.73 255.117C192.207 255.117 194.175 255.931 195.668 257.289C197.738 259.189 198.756 262.209 198.722 265.738H186.234C186.574 268.08 187.863 269.539 190.137 269.539C191.596 269.539 192.546 268.894 193.021 267.808H198.417C198.043 269.369 197.025 270.862 195.498 271.914C194.039 272.932 192.275 273.509 190.069 273.509ZM186.268 262.447H193.123C192.919 260.377 191.63 259.053 189.831 259.053C187.728 259.053 186.642 260.377 186.268 262.447ZM208.616 267.944C211.025 267.944 212.145 266.044 212.145 263.6C212.145 261.259 210.924 259.291 208.616 259.291C206.546 259.291 205.189 260.988 205.189 263.634C205.189 266.247 206.546 267.944 208.616 267.944ZM208.65 279.006C203.865 279.006 200.71 277.038 200.167 273.407H205.528C205.834 274.323 206.75 275.104 208.582 275.104C210.924 275.104 211.908 273.882 211.908 271.778V270.048H211.772C210.754 271.202 209.43 272.05 207.327 272.05C203.424 272.05 199.793 269.132 199.793 263.804C199.793 258.714 202.779 255.117 207.089 255.117C209.397 255.117 210.957 256.033 211.975 257.492H212.043V255.626H217.337V271.303C217.337 273.916 216.421 275.816 215.03 277.072C213.502 278.429 211.229 279.006 208.65 279.006ZM222.775 248.229C224.506 248.229 225.829 249.45 225.829 251.181C225.829 252.911 224.506 254.133 222.775 254.133C221.045 254.133 219.721 252.911 219.721 251.181C219.721 249.45 221.045 248.229 222.775 248.229ZM219.993 273V255.626H225.524V273H219.993ZM236.695 273.543C231.13 273.543 227.397 269.573 227.397 264.347C227.397 259.121 231.13 255.151 236.695 255.151C242.294 255.151 245.959 259.121 245.959 264.347C245.959 269.573 242.294 273.543 236.695 273.543ZM236.661 269.607C239.071 269.607 240.36 267.503 240.36 264.347C240.36 261.191 239.071 259.053 236.661 259.053C234.252 259.053 232.997 261.191 232.997 264.347C232.997 267.503 234.252 269.607 236.661 269.607ZM247.829 273V255.626H253.157V258.001H253.258C254.548 256.135 256.211 255.117 258.62 255.117C262.42 255.117 264.66 257.832 264.66 261.7V273H259.129V262.82C259.129 260.988 258.213 259.732 256.414 259.732C254.582 259.732 253.36 261.259 253.36 263.397V273H247.829ZM274.07 269.912C276.14 269.912 277.565 268.657 277.565 266.79V264.72C276.853 265.093 275.835 265.365 274.715 265.636C272.577 266.111 271.695 266.654 271.695 267.978C271.695 269.369 272.713 269.912 274.07 269.912ZM272.306 273.441C268.844 273.441 266.367 271.575 266.367 268.148C266.367 264.313 269.421 263.159 273.018 262.684C276.276 262.277 277.43 261.938 277.43 260.75C277.43 259.63 276.717 258.884 275.054 258.884C273.29 258.884 272.407 259.664 272.238 261.123H267.148C267.283 257.9 269.761 255.151 275.02 255.151C277.633 255.151 279.398 255.626 280.653 256.576C282.146 257.662 282.859 259.359 282.859 261.53V270.285C282.859 271.677 282.995 272.457 283.47 272.762V273H278.108C277.837 272.627 277.667 271.948 277.531 271.066H277.464C276.446 272.525 274.919 273.441 272.306 273.441ZM285.574 273V248.738H291.173V273H285.574ZM302.341 273.509C296.607 273.509 293.077 269.539 293.077 264.279C293.077 259.087 296.708 255.117 302.002 255.117C304.479 255.117 306.447 255.931 307.94 257.289C310.01 259.189 311.028 262.209 310.994 265.738H298.507C298.846 268.08 300.136 269.539 302.409 269.539C303.868 269.539 304.818 268.894 305.294 267.808H310.689C310.316 269.369 309.298 270.862 307.771 271.914C306.312 272.932 304.547 273.509 302.341 273.509ZM298.541 262.447H305.395C305.192 260.377 303.902 259.053 302.104 259.053C300 259.053 298.914 260.377 298.541 262.447ZM157.215 314.577C150.768 314.577 146.526 311.726 146.39 306.365H152.43C152.702 308.808 154.297 309.826 157.181 309.826C159.149 309.826 161.083 309.114 161.083 307.281C161.083 305.347 159.115 304.94 155.79 304.125C151.582 303.141 147.137 301.852 147.137 296.762C147.137 291.57 151.345 289.296 156.774 289.296C162.034 289.296 166.106 291.672 166.343 296.762H160.473C160.235 294.895 158.81 293.843 156.57 293.843C154.466 293.843 153.075 294.76 153.075 296.117C153.075 297.814 154.942 298.221 158.572 299.035C163.086 300.087 167.158 301.479 167.158 306.67C167.158 311.76 162.814 314.577 157.215 314.577ZM179.617 314.577C173.169 314.577 168.927 311.726 168.792 306.365H174.832C175.103 308.808 176.698 309.826 179.583 309.826C181.551 309.826 183.485 309.114 183.485 307.281C183.485 305.347 181.517 304.94 178.191 304.125C173.984 303.141 169.538 301.852 169.538 296.762C169.538 291.57 173.746 289.296 179.175 289.296C184.435 289.296 188.507 291.672 188.745 296.762H182.874C182.637 294.895 181.211 293.843 178.972 293.843C176.868 293.843 175.477 294.76 175.477 296.117C175.477 297.814 177.343 298.221 180.974 299.035C185.487 300.087 189.559 301.479 189.559 306.67C189.559 311.76 185.216 314.577 179.617 314.577ZM198.022 300.461H202.535C204.91 300.461 206.132 299.341 206.132 297.508C206.132 295.744 204.978 294.488 202.671 294.488H198.022V300.461ZM192.016 314V289.738H203.621C208.439 289.738 212.104 292.215 212.104 296.728C212.104 299.544 210.713 301.614 207.896 302.598V302.7C210 303.413 211.086 304.736 211.426 307.145C211.935 310.335 211.595 313.389 212.444 313.695V314H206.607C205.962 313.627 206.064 310.776 205.691 308.367C205.385 306.127 204.232 304.906 201.653 304.906H198.022V314H192.016Z" fill="#002068"/>
<path d="M179 212C217.108 212 248 181.108 248 143C248 104.892 217.108 74 179 74C140.892 74 110 104.892 110 143C110 181.108 140.892 212 179 212Z" fill="url(#paint0_linear_639_323)"/>
<mask id="path-4-inside-1_639_323" fill="white">
<path d="M208.11 141.126C208.262 140.792 208.413 140.458 208.504 140.14C208.656 139.654 208.702 139.139 208.762 138.593C208.777 138.396 208.808 138.198 208.823 138.001C209.323 133.952 211.689 130.478 213.98 127.126C216.406 123.577 218.681 120.225 219 116.252C217.589 115.539 215.451 116.434 214.465 117.768C214.359 117.92 214.253 118.056 214.147 118.208C213.752 118.769 213.358 119.331 212.766 119.74C212.251 120.074 211.583 120.21 211.007 120.104C210.552 120.013 210.188 119.77 209.96 119.406C209.748 119.058 209.687 118.678 209.627 118.345C209.596 118.193 209.581 118.026 209.536 117.874C209.475 117.677 209.323 117.495 209.187 117.435C209.111 117.404 209.096 117.419 209.081 117.435C209.05 117.45 208.975 117.51 208.899 117.708C208.702 118.223 208.702 118.815 208.702 119.437C208.702 119.725 208.702 120.013 208.686 120.301C208.611 121.333 208.156 122.561 207.063 122.895C206.199 123.153 205.35 122.758 204.667 122.44C202.574 121.469 199.662 120.62 197.66 122.121C197.159 122.5 196.75 122.986 196.325 123.517C195.976 123.941 195.612 124.396 195.173 124.776C193.428 126.338 190.986 126.611 188.438 126.778L179.156 127.384C177.837 127.475 176.335 127.566 175.106 128.188C174.773 128.355 174.454 128.567 174.121 128.78C173.468 129.204 172.801 129.644 171.982 129.796C170.693 130.038 169.313 129.553 167.766 128.279C167.538 128.097 167.311 127.9 167.083 127.703C166.219 126.96 165.415 126.262 164.429 125.928C163.61 125.655 162.806 125.413 161.911 125.413C161.684 125.413 161.502 125.231 161.486 125.003C161.441 124.123 161.168 122.91 160.576 122.394C160.364 122.197 160.121 122.121 159.848 122.136C159.53 122.152 159.196 122.349 158.893 122.516L155.95 124.184C155.283 124.563 154.54 124.988 154.1 125.625C153.903 125.898 153.766 126.232 153.63 126.565C153.402 127.081 153.175 127.612 152.75 128.052C151.446 129.341 149.156 128.749 147.7 127.415C147.305 127.051 146.941 126.656 146.592 126.277C145.955 125.579 145.349 124.912 144.605 124.487C144.348 125.746 143.771 126.96 142.967 127.945C142.588 128.416 142.148 128.825 141.739 129.235C141.284 129.674 140.859 130.084 140.495 130.554C139.069 132.374 138.614 135.074 139.342 137.577C140.146 140.367 142.088 142.43 143.589 143.674C143.862 143.901 144.181 144.144 144.499 144.159C144.803 144.159 145.121 143.977 145.47 143.78C145.591 143.704 145.713 143.643 145.819 143.568C147.593 142.612 149.686 143.128 151.127 143.719C151.734 143.962 152.325 144.265 152.887 144.538C153.857 145.024 154.767 145.479 155.753 145.736C156.163 145.843 156.572 145.918 156.997 145.994C157.892 146.161 158.817 146.328 159.651 146.813C160.531 147.329 161.183 148.103 161.805 148.861C162.412 149.604 162.988 150.302 163.761 150.726C164.55 151.166 165.475 151.288 166.446 151.409C167.22 151.5 168.008 151.606 168.767 151.879C170.086 152.349 171.133 153.29 172.134 154.185C172.983 154.943 173.787 155.671 174.758 156.141C176.32 156.899 178.064 156.884 179.914 156.884C181.355 156.884 182.826 156.884 184.252 157.248C187.24 158.037 189.409 160.342 191.517 162.587C193.671 164.862 195.688 167.016 198.494 167.698C199.829 168.017 201.3 167.971 202.726 167.926C203.226 167.911 203.727 167.896 204.227 167.896C205.88 167.896 207.503 168.062 208.944 168.957L209.02 169.003C209.278 169.17 209.551 169.336 209.733 169.291C209.945 169.245 210.067 168.912 210.097 168.593C210.142 167.911 209.885 167.243 209.612 166.531C209.339 165.818 209.066 165.09 209.066 164.286C209.066 162.253 210.764 160.873 212.266 159.66C212.569 159.417 212.857 159.174 213.13 158.947C213.479 158.644 213.813 158.31 213.934 157.916C214.162 157.142 213.525 156.444 212.812 155.641C212.069 154.822 211.234 153.896 211.386 152.728C211.416 152.41 211.523 152.107 211.629 151.803C211.841 151.151 211.917 150.817 211.705 150.635C211.553 150.514 211.295 150.499 210.977 150.499C210.825 150.499 210.673 150.499 210.522 150.484C208.944 150.317 207.913 148.74 207.625 146.04C207.488 144.826 207.352 143.446 207.761 142.157C207.883 141.793 208.034 141.444 208.186 141.11"/>
</mask>
<path d="M208.504 140.14L206.595 139.543L206.588 139.567L206.581 139.59L208.504 140.14ZM208.762 138.593L210.75 138.814L210.754 138.78L210.756 138.746L208.762 138.593ZM208.823 138.001L206.838 137.756L206.832 137.802L206.829 137.848L208.823 138.001ZM213.98 127.126L212.329 125.998L212.328 125.998L213.98 127.126ZM219 116.252L220.994 116.411L221.101 115.072L219.902 114.467L219 116.252ZM214.465 117.768L212.856 116.58L212.841 116.601L212.827 116.621L214.465 117.768ZM214.147 118.208L215.783 119.358L215.785 119.355L214.147 118.208ZM212.766 119.74L213.853 121.419L213.879 121.402L213.905 121.384L212.766 119.74ZM211.007 120.104L210.615 122.065L210.63 122.068L210.645 122.071L211.007 120.104ZM209.96 119.406L208.252 120.446L208.258 120.456L208.264 120.466L209.96 119.406ZM209.627 118.345L211.594 117.987L211.591 117.97L211.588 117.952L209.627 118.345ZM209.536 117.874L211.451 117.3L211.447 117.286L209.536 117.874ZM209.187 117.435L209.999 115.607L209.965 115.592L209.93 115.578L209.187 117.435ZM209.081 117.435L209.975 119.224L210.265 119.078L210.495 118.849L209.081 117.435ZM208.899 117.708L207.032 116.99L207.031 116.993L208.899 117.708ZM208.686 120.301L210.681 120.448L210.683 120.427L210.684 120.406L208.686 120.301ZM207.063 122.895L207.635 124.811L207.648 124.807L207.063 122.895ZM204.667 122.44L205.513 120.627L205.509 120.625L204.667 122.44ZM197.66 122.121L196.46 120.521L196.452 120.527L197.66 122.121ZM196.325 123.517L197.871 124.786L197.879 124.776L197.887 124.766L196.325 123.517ZM195.173 124.776L193.867 123.261L193.852 123.273L193.838 123.286L195.173 124.776ZM188.438 126.778L188.569 128.773L188.569 128.773L188.438 126.778ZM179.156 127.384L179.026 125.389L179.018 125.389L179.156 127.384ZM175.106 128.188L176.001 129.977L176.01 129.973L175.106 128.188ZM174.121 128.78L173.047 127.092L173.038 127.098L173.029 127.104L174.121 128.78ZM171.982 129.796L171.618 127.829L171.612 127.83L171.982 129.796ZM167.766 128.279L169.037 126.735L169.026 126.726L169.015 126.717L167.766 128.279ZM167.083 127.703L168.393 126.191L168.387 126.186L167.083 127.703ZM164.429 125.928L165.07 124.034L165.061 124.031L164.429 125.928ZM161.486 125.003L159.489 125.106L159.49 125.121L159.491 125.136L161.486 125.003ZM160.576 122.394L159.215 123.86L159.238 123.881L159.262 123.902L160.576 122.394ZM159.848 122.136L159.943 124.134L159.951 124.134L159.959 124.133L159.848 122.136ZM158.893 122.516L157.929 120.763L157.918 120.769L157.906 120.776L158.893 122.516ZM155.95 124.184L154.964 122.444L154.962 122.445L155.95 124.184ZM154.1 125.625L155.721 126.796L155.734 126.779L155.746 126.761L154.1 125.625ZM153.63 126.565L155.46 127.373L155.471 127.348L155.481 127.323L153.63 126.565ZM152.75 128.052L154.156 129.474L154.173 129.458L154.189 129.441L152.75 128.052ZM147.7 127.415L146.343 128.884L146.348 128.889L147.7 127.415ZM146.592 126.277L145.115 127.626L145.12 127.631L146.592 126.277ZM144.605 124.487L145.598 122.751L143.2 121.381L142.646 124.086L144.605 124.487ZM142.967 127.945L141.417 126.682L141.411 126.69L142.967 127.945ZM141.739 129.235L143.129 130.673L143.141 130.661L143.153 130.649L141.739 129.235ZM140.495 130.554L142.07 131.788L142.077 131.779L140.495 130.554ZM139.342 137.577L141.264 137.023L141.263 137.018L139.342 137.577ZM143.589 143.674L144.87 142.137L144.865 142.133L143.589 143.674ZM144.499 144.159L144.404 146.157L144.452 146.159H144.499V144.159ZM145.47 143.78L146.454 145.521L146.493 145.499L146.53 145.476L145.47 143.78ZM145.819 143.568L144.871 141.807L144.759 141.867L144.656 141.94L145.819 143.568ZM151.127 143.719L150.368 145.569L150.376 145.573L150.385 145.576L151.127 143.719ZM152.887 144.538L153.781 142.749L153.771 142.745L153.762 142.74L152.887 144.538ZM155.753 145.736L155.247 147.671L155.251 147.672L155.753 145.736ZM156.997 145.994L157.364 144.028L157.356 144.027L157.349 144.025L156.997 145.994ZM159.651 146.813L160.663 145.088L160.657 145.085L159.651 146.813ZM161.805 148.861L163.354 147.596L163.351 147.593L161.805 148.861ZM163.761 150.726L164.736 148.98L164.724 148.973L163.761 150.726ZM166.446 151.409L166.198 153.393L166.205 153.394L166.212 153.395L166.446 151.409ZM168.767 151.879L168.089 153.761L168.095 153.763L168.767 151.879ZM172.134 154.185L170.801 155.676L170.802 155.676L172.134 154.185ZM174.758 156.141L175.631 154.342L175.629 154.341L174.758 156.141ZM184.252 157.248L184.763 155.314L184.755 155.312L184.747 155.31L184.252 157.248ZM191.517 162.587L190.059 163.956L190.065 163.962L191.517 162.587ZM198.494 167.698L198.021 169.642L198.03 169.644L198.494 167.698ZM202.726 167.926L202.665 165.927L202.662 165.927L202.726 167.926ZM208.944 168.957L207.889 170.656L207.902 170.664L207.915 170.672L208.944 168.957ZM209.02 169.003L210.107 167.324L210.078 167.305L210.049 167.288L209.02 169.003ZM209.733 169.291L209.314 167.335L209.281 167.342L209.248 167.351L209.733 169.291ZM210.097 168.593L212.088 168.783L212.091 168.755L212.092 168.726L210.097 168.593ZM212.266 159.66L211.016 158.098L211.009 158.104L212.266 159.66ZM213.13 158.947L214.411 160.483L214.427 160.47L214.443 160.456L213.13 158.947ZM213.934 157.916L215.846 158.504L215.849 158.492L215.853 158.48L213.934 157.916ZM212.812 155.641L214.308 154.314L214.301 154.305L214.293 154.297L212.812 155.641ZM211.386 152.728L213.369 152.986L213.374 152.952L213.377 152.918L211.386 152.728ZM211.629 151.803L213.517 152.464L213.524 152.443L213.531 152.422L211.629 151.803ZM211.705 150.635L213.006 149.117L212.98 149.095L212.954 149.074L211.705 150.635ZM210.522 150.484L210.311 152.473L210.323 152.474L210.522 150.484ZM207.625 146.04L209.613 145.828L209.612 145.816L207.625 146.04ZM207.761 142.157L205.864 141.525L205.859 141.538L205.855 141.552L207.761 142.157ZM209.931 141.953C210.067 141.653 210.288 141.178 210.427 140.689L206.581 139.59C206.539 139.739 206.456 139.931 206.289 140.298L209.931 141.953ZM210.413 140.736C210.636 140.022 210.699 139.274 210.75 138.814L206.774 138.372C206.704 139.003 206.676 139.287 206.595 139.543L210.413 140.736ZM210.756 138.746C210.761 138.692 210.767 138.631 210.779 138.526C210.79 138.434 210.806 138.298 210.817 138.155L206.829 137.848C206.825 137.902 206.818 137.963 206.806 138.068C206.795 138.16 206.779 138.296 206.768 138.439L210.756 138.746ZM210.808 138.247C211.239 134.761 213.286 131.687 215.631 128.255L212.328 125.998C210.093 129.269 207.408 133.142 206.838 137.756L210.808 138.247ZM215.631 128.255C217.994 124.8 220.625 121.007 220.994 116.411L217.006 116.092C216.738 119.444 214.819 122.355 212.329 125.998L215.631 128.255ZM219.902 114.467C218.536 113.776 217.035 113.949 215.894 114.361C214.731 114.781 213.609 115.56 212.856 116.58L216.074 118.957C216.307 118.642 216.747 118.306 217.253 118.123C217.78 117.933 218.054 118.014 218.098 118.037L219.902 114.467ZM212.827 116.621C212.79 116.674 212.751 116.727 212.696 116.802C212.645 116.871 212.577 116.962 212.508 117.061L215.785 119.355C215.822 119.302 215.861 119.25 215.916 119.175C215.967 119.105 216.034 119.014 216.104 118.915L212.827 116.621ZM212.51 117.058C212.086 117.662 211.881 117.921 211.628 118.096L213.905 121.384C214.835 120.741 215.418 119.877 215.783 119.358L212.51 117.058ZM211.68 118.061C211.643 118.085 211.582 118.113 211.505 118.128C211.428 118.144 211.379 118.139 211.369 118.137L210.645 122.071C211.743 122.273 212.926 122.019 213.853 121.419L211.68 118.061ZM211.399 118.143C211.408 118.145 211.45 118.155 211.508 118.193C211.567 118.233 211.619 118.287 211.656 118.346L208.264 120.466C208.809 121.338 209.668 121.876 210.615 122.065L211.399 118.143ZM211.669 118.366C211.687 118.396 211.682 118.401 211.666 118.342C211.658 118.312 211.648 118.271 211.636 118.211C211.623 118.145 211.612 118.085 211.594 117.987L207.659 118.702C207.705 118.955 207.812 119.723 208.252 120.446L211.669 118.366ZM211.588 117.952C211.581 117.918 211.584 117.925 211.56 117.781C211.543 117.681 211.512 117.5 211.451 117.3L207.62 118.449C207.605 118.4 207.604 118.379 207.614 118.438C207.616 118.451 207.619 118.466 207.622 118.485C207.624 118.502 207.628 118.526 207.632 118.55C207.64 118.597 207.651 118.664 207.666 118.737L211.588 117.952ZM211.447 117.286C211.334 116.92 211.152 116.603 210.948 116.349C210.76 116.116 210.45 115.807 209.999 115.607L208.375 119.262C208.203 119.186 208.083 119.098 208.009 119.037C207.932 118.972 207.874 118.91 207.832 118.857C207.753 118.76 207.676 118.632 207.624 118.463L211.447 117.286ZM209.93 115.578C209.815 115.532 209.399 115.366 208.863 115.433C208.128 115.525 207.704 115.983 207.667 116.02L210.495 118.849C210.518 118.826 210.381 118.972 210.183 119.101C209.943 119.257 209.663 119.364 209.359 119.402C208.853 119.465 208.483 119.307 208.444 119.292L209.93 115.578ZM208.186 115.646C207.528 115.975 207.197 116.56 207.032 116.99L210.765 118.426C210.75 118.467 210.7 118.582 210.589 118.726C210.485 118.861 210.29 119.066 209.975 119.224L208.186 115.646ZM207.031 116.993C206.677 117.919 206.702 118.906 206.702 119.437H210.702C210.702 118.724 210.726 118.528 210.767 118.422L207.031 116.993ZM206.702 119.437C206.702 119.734 206.701 119.969 206.689 120.196L210.684 120.406C210.702 120.057 210.702 119.716 210.702 119.437H206.702ZM206.692 120.155C206.669 120.463 206.591 120.736 206.499 120.904C206.417 121.055 206.395 121.008 206.479 120.982L207.648 124.807C208.824 124.448 209.575 123.62 210.013 122.815C210.441 122.028 210.628 121.171 210.681 120.448L206.692 120.155ZM206.492 120.978C206.518 120.971 206.481 120.995 206.303 120.949C206.1 120.895 205.876 120.797 205.513 120.627L203.821 124.252C204.365 124.506 205.925 125.322 207.635 124.811L206.492 120.978ZM205.509 120.625C204.367 120.096 202.898 119.548 201.363 119.367C199.822 119.186 198.014 119.356 196.46 120.521L198.86 123.721C199.308 123.385 199.957 123.229 200.896 123.34C201.84 123.451 202.874 123.813 203.826 124.254L205.509 120.625ZM196.452 120.527C195.733 121.072 195.189 121.736 194.763 122.267L197.887 124.766C198.311 124.236 198.586 123.929 198.868 123.715L196.452 120.527ZM194.78 122.247C194.396 122.714 194.149 123.018 193.867 123.261L196.478 126.29C197.076 125.775 197.556 125.169 197.871 124.786L194.78 122.247ZM193.838 123.286C192.679 124.324 190.941 124.609 188.308 124.782L188.569 128.773C191.032 128.612 194.178 128.351 196.507 126.265L193.838 123.286ZM188.308 124.782L179.026 125.389L179.287 129.38L188.569 128.773L188.308 124.782ZM179.018 125.389C177.807 125.473 175.863 125.563 174.203 126.404L176.01 129.973C176.807 129.569 177.867 129.478 179.294 129.38L179.018 125.389ZM174.212 126.399C173.76 126.625 173.325 126.915 173.047 127.092L175.194 130.467C175.584 130.219 175.785 130.085 176.001 129.977L174.212 126.399ZM173.029 127.104C172.318 127.566 171.98 127.762 171.618 127.829L172.346 131.762C173.622 131.526 174.618 130.842 175.212 130.456L173.029 127.104ZM171.612 127.83C171.145 127.918 170.356 127.822 169.037 126.735L166.494 129.823C168.269 131.285 170.24 132.159 172.352 131.761L171.612 127.83ZM169.015 126.717C168.824 126.564 168.626 126.393 168.393 126.191L165.773 129.214C165.995 129.406 166.253 129.63 166.516 129.841L169.015 126.717ZM168.387 126.186C167.594 125.505 166.493 124.515 165.07 124.034L163.788 127.823C164.337 128.008 164.843 128.415 165.779 129.219L168.387 126.186ZM165.061 124.031C164.233 123.755 163.159 123.413 161.911 123.413V127.413C162.453 127.413 162.987 127.556 163.796 127.826L165.061 124.031ZM161.911 123.413C162.811 123.413 163.432 124.123 163.482 124.87L159.491 125.136C159.571 126.338 160.556 127.413 161.911 127.413V123.413ZM163.484 124.9C163.454 124.321 163.351 123.631 163.147 122.971C162.96 122.367 162.604 121.509 161.891 120.887L159.262 123.902C159.182 123.832 159.174 123.796 159.207 123.856C159.238 123.911 159.281 124.009 159.326 124.154C159.417 124.449 159.474 124.806 159.489 125.106L163.484 124.9ZM161.937 120.929C161.295 120.332 160.508 120.097 159.737 120.14L159.959 124.133C159.875 124.138 159.741 124.131 159.585 124.077C159.425 124.022 159.3 123.938 159.215 123.86L161.937 120.929ZM159.753 120.139C159.236 120.163 158.81 120.326 158.549 120.443C158.291 120.558 158.036 120.704 157.929 120.763L159.857 124.268C159.878 124.256 159.899 124.245 159.918 124.234C159.938 124.223 159.956 124.213 159.974 124.203C160.01 124.184 160.04 124.167 160.068 124.152C160.126 124.121 160.16 124.104 160.181 124.095C160.202 124.086 160.193 124.091 160.16 124.101C160.126 124.11 160.051 124.129 159.943 124.134L159.753 120.139ZM157.906 120.776L154.964 122.444L156.937 125.924L159.879 124.255L157.906 120.776ZM154.962 122.445C154.386 122.773 153.201 123.407 152.454 124.488L155.746 126.761C155.879 126.569 156.18 126.354 156.938 125.923L154.962 122.445ZM152.479 124.454C152.116 124.956 151.895 125.524 151.779 125.808L155.481 127.323C155.638 126.939 155.689 126.84 155.721 126.796L152.479 124.454ZM151.8 125.758C151.545 126.336 151.446 126.523 151.311 126.662L154.189 129.441C154.903 128.701 155.26 127.826 155.46 127.373L151.8 125.758ZM151.344 126.629C151.274 126.699 151.092 126.825 150.612 126.745C150.117 126.662 149.526 126.376 149.051 125.94L146.348 128.889C147.329 129.788 148.612 130.465 149.952 130.69C151.307 130.916 152.922 130.693 154.156 129.474L151.344 126.629ZM149.056 125.945C148.731 125.645 148.419 125.309 148.064 124.923L145.12 127.631C145.463 128.003 145.88 128.457 146.343 128.884L149.056 125.945ZM148.069 124.929C147.484 124.287 146.665 123.361 145.598 122.751L143.613 126.224C144.032 126.463 144.427 126.872 145.115 127.626L148.069 124.929ZM142.646 124.086C142.453 125.03 142.016 125.947 141.417 126.682L144.517 129.209C145.526 127.972 146.242 126.463 146.565 124.889L142.646 124.086ZM141.411 126.69C141.12 127.051 140.802 127.343 140.325 127.82L143.153 130.649C143.494 130.308 144.057 129.78 144.524 129.201L141.411 126.69ZM140.349 127.797C139.914 128.217 139.381 128.726 138.914 129.33L142.077 131.779C142.337 131.442 142.653 131.132 143.129 130.673L140.349 127.797ZM138.921 129.321C137.05 131.709 136.537 135.094 137.422 138.135L141.263 137.018C140.692 135.054 141.089 133.039 142.07 131.788L138.921 129.321ZM137.421 138.13C138.383 141.472 140.667 143.85 142.313 145.214L144.865 142.133C143.508 141.01 141.91 139.263 141.264 137.023L137.421 138.13ZM142.309 145.21C142.456 145.333 142.707 145.539 143.008 145.717C143.299 145.889 143.785 146.127 144.404 146.157L144.594 142.161C144.752 142.169 144.87 142.202 144.939 142.227C145.007 142.252 145.044 142.274 145.047 142.275C145.05 142.277 145.037 142.27 145.003 142.244C144.969 142.219 144.927 142.185 144.87 142.137L142.309 145.21ZM144.499 146.159C145.04 146.159 145.485 145.999 145.766 145.877C146.042 145.757 146.306 145.605 146.454 145.521L144.486 142.039C144.44 142.064 144.402 142.086 144.365 142.107C144.329 142.127 144.297 142.144 144.27 142.159C144.212 142.19 144.182 142.204 144.169 142.21C144.156 142.215 144.179 142.204 144.23 142.191C144.282 142.178 144.375 142.159 144.499 142.159V146.159ZM146.53 145.476C146.554 145.461 146.565 145.455 146.654 145.403C146.722 145.364 146.847 145.291 146.981 145.195L144.656 141.94C144.684 141.92 144.696 141.915 144.646 141.944C144.634 141.951 144.623 141.957 144.607 141.967C144.592 141.975 144.573 141.986 144.554 141.997C144.515 142.02 144.465 142.05 144.41 142.084L146.53 145.476ZM146.767 145.328C147.702 144.825 149.036 145.023 150.368 145.569L151.887 141.869C150.337 141.233 147.485 140.399 144.871 141.807L146.767 145.328ZM150.385 145.576C150.904 145.784 151.397 146.038 152.012 146.337L153.762 142.74C153.254 142.493 152.564 142.14 151.87 141.862L150.385 145.576ZM151.992 146.327C152.928 146.795 154.025 147.352 155.247 147.671L156.259 143.802C155.51 143.606 154.787 143.252 153.781 142.749L151.992 146.327ZM155.251 147.672C155.743 147.8 156.221 147.887 156.645 147.963L157.349 144.025C156.923 143.95 156.582 143.885 156.255 143.8L155.251 147.672ZM156.63 147.96C157.589 148.139 158.161 148.26 158.645 148.542L160.657 145.085C159.473 144.396 158.195 144.183 157.364 144.028L156.63 147.96ZM158.64 148.539C159.169 148.849 159.616 149.346 160.258 150.129L163.351 147.593C162.75 146.859 161.893 145.809 160.663 145.088L158.64 148.539ZM160.256 150.126C160.816 150.812 161.627 151.836 162.799 152.48L164.724 148.973C164.349 148.767 164.007 148.396 163.354 147.596L160.256 150.126ZM162.787 152.473C163.973 153.135 165.3 153.281 166.198 153.393L166.694 149.424C165.651 149.294 165.127 149.198 164.736 148.98L162.787 152.473ZM166.212 153.395C166.989 153.487 167.57 153.574 168.089 153.761L169.444 149.997C168.446 149.638 167.45 149.513 166.68 149.423L166.212 153.395ZM168.095 153.763C168.983 154.079 169.744 154.731 170.801 155.676L173.467 152.693C172.521 151.848 171.189 150.619 169.438 149.995L168.095 153.763ZM170.802 155.676C171.6 156.389 172.616 157.326 173.886 157.941L175.629 154.341C174.958 154.016 174.366 153.496 173.466 152.693L170.802 155.676ZM173.884 157.94C175.937 158.937 178.178 158.884 179.914 158.884V154.884C177.95 154.884 176.702 154.862 175.631 154.342L173.884 157.94ZM179.914 158.884C181.398 158.884 182.615 158.895 183.757 159.186L184.747 155.31C183.038 154.874 181.313 154.884 179.914 154.884V158.884ZM183.742 159.182C186.08 159.799 187.868 161.623 190.059 163.956L192.975 161.218C190.95 159.062 188.401 156.275 184.763 155.314L183.742 159.182ZM190.065 163.962C192.114 166.127 194.535 168.794 198.021 169.642L198.967 165.755C196.841 165.238 195.228 163.597 192.97 161.212L190.065 163.962ZM198.03 169.644C199.672 170.036 201.421 169.969 202.79 169.925L202.662 165.927C201.179 165.974 199.986 165.998 198.958 165.753L198.03 169.644ZM202.786 169.925C203.292 169.91 203.762 169.896 204.227 169.896V165.896C203.691 165.896 203.161 165.912 202.665 165.927L202.786 169.925ZM204.227 169.896C205.783 169.896 206.938 170.065 207.889 170.656L209.999 167.258C208.069 166.059 205.978 165.896 204.227 165.896V169.896ZM207.915 170.672L207.991 170.718L210.049 167.288L209.973 167.242L207.915 170.672ZM207.934 170.682C208.053 170.759 208.297 170.918 208.567 171.042C208.752 171.128 209.416 171.432 210.218 171.231L209.248 167.351C209.591 167.265 209.866 167.304 210.001 167.333C210.139 167.363 210.225 167.402 210.243 167.411C210.266 167.421 210.245 167.413 210.107 167.324L207.934 170.682ZM210.152 171.247C211.187 171.025 211.645 170.21 211.793 169.896C211.979 169.501 212.058 169.098 212.088 168.783L208.106 168.404C208.107 168.393 208.109 168.377 208.115 168.351C208.121 168.328 208.136 168.272 208.174 168.193C208.207 168.121 208.287 167.971 208.445 167.809C208.611 167.64 208.898 167.424 209.314 167.335L210.152 171.247ZM212.092 168.726C212.173 167.523 211.713 166.424 211.479 165.815L207.744 167.246C208.057 168.062 208.112 168.299 208.101 168.46L212.092 168.726ZM211.479 165.815C211.191 165.063 211.066 164.666 211.066 164.286H207.066C207.066 165.513 207.486 166.573 207.744 167.246L211.479 165.815ZM211.066 164.286C211.066 163.877 211.223 163.457 211.652 162.93C212.111 162.368 212.742 161.847 213.523 161.215L211.009 158.104C210.288 158.686 209.319 159.462 208.553 160.402C207.758 161.376 207.066 162.662 207.066 164.286H211.066ZM213.515 161.222C213.839 160.963 214.148 160.702 214.411 160.483L211.85 157.411C211.566 157.647 211.3 157.872 211.016 158.098L213.515 161.222ZM214.443 160.456C214.776 160.166 215.538 159.503 215.846 158.504L212.023 157.327C212.045 157.255 212.07 157.208 212.082 157.187C212.094 157.166 212.097 157.165 212.081 157.185C212.065 157.205 212.037 157.236 211.991 157.281C211.945 157.325 211.889 157.376 211.818 157.438L214.443 160.456ZM215.853 158.48C216.183 157.356 215.818 156.398 215.447 155.771C215.107 155.197 214.617 154.661 214.308 154.314L211.315 156.968C211.504 157.18 211.647 157.341 211.774 157.495C211.899 157.648 211.968 157.746 212.004 157.808C212.041 157.869 212.016 157.846 211.997 157.754C211.974 157.644 211.972 157.497 212.015 157.351L215.853 158.48ZM214.293 154.297C213.896 153.86 213.647 153.573 213.487 153.3C213.349 153.067 213.369 152.993 213.369 152.986L209.403 152.471C209.252 153.632 209.613 154.604 210.04 155.33C210.444 156.017 210.984 156.602 211.331 156.985L214.293 154.297ZM213.377 152.918C213.377 152.918 213.378 152.91 213.382 152.891C213.386 152.872 213.392 152.845 213.403 152.807C213.427 152.72 213.46 152.625 213.517 152.464L209.741 151.143C209.649 151.405 209.452 151.938 209.395 152.539L213.377 152.918ZM213.531 152.422C213.625 152.131 213.772 151.681 213.816 151.244C213.868 150.728 213.813 149.809 213.006 149.117L210.403 152.154C210.156 151.942 209.979 151.661 209.891 151.36C209.815 151.096 209.831 150.897 209.836 150.842C209.842 150.784 209.849 150.777 209.828 150.855C209.809 150.927 209.777 151.029 209.727 151.184L213.531 152.422ZM212.954 149.074C212.486 148.699 211.986 148.588 211.707 148.545C211.42 148.501 211.142 148.499 210.977 148.499V152.499C211.043 152.499 211.084 152.5 211.11 152.501C211.138 152.502 211.13 152.503 211.099 152.498C211.07 152.494 210.991 152.48 210.884 152.441C210.774 152.401 210.619 152.328 210.455 152.197L212.954 149.074ZM210.977 148.499C210.809 148.499 210.757 148.497 210.721 148.494L210.323 152.474C210.59 152.501 210.841 152.499 210.977 152.499V148.499ZM210.732 148.495C210.64 148.485 210.486 148.458 210.265 148.119C210.008 147.726 209.739 147 209.613 145.828L205.636 146.252C205.799 147.779 206.189 149.192 206.915 150.304C207.676 151.471 208.825 152.315 210.311 152.473L210.732 148.495ZM209.612 145.816C209.47 144.557 209.405 143.589 209.667 142.762L205.855 141.552C205.298 143.304 205.506 145.096 205.637 146.263L209.612 145.816ZM209.659 142.789C209.745 142.529 209.861 142.258 210.007 141.938L206.365 140.283C206.207 140.631 206.02 141.057 205.864 141.525L209.659 142.789Z" fill="white" mask="url(#path-4-inside-1_639_323)"/>
</g>
<defs>
<filter id="filter0_d_639_323" x="0" y="0" width="361" height="357" filterUnits="userSpaceOnUse" color-interpolation-filters="sRGB">
<feFlood flood-opacity="0" result="BackgroundImageFix"/>
<feColorMatrix in="SourceAlpha" type="matrix" values="0 0 0 0 0 0 0 0 0 0 0 0 0 0 0 0 0 0 127 0" result="hardAlpha"/>
<feOffset dx="2" dy="2"/>
<feGaussianBlur stdDeviation="2"/>
<feComposite in2="hardAlpha" operator="out"/>
<feColorMatrix type="matrix" values="0 0 0 0 0 0 0 0 0 0 0 0 0 0 0 0 0 0 0.25 0"/>
<feBlend mode="normal" in2="BackgroundImageFix" result="effect1_dropShadow_639_323"/>
<feBlend mode="normal" in="SourceGraphic" in2="effect1_dropShadow_639_323" result="shape"/>
</filter>
<linearGradient id="paint0_linear_639_323" x1="144.488" y1="202.766" x2="213.512" y2="83.2345" gradientUnits="userSpaceOnUse">
<stop stop-color="#0460A9"/>
<stop offset="1" stop-color="#50E2D0"/>
</linearGradient>
</defs>
</svg>
