<svg width="361" height="357" viewBox="0 0 361 357" fill="none" xmlns="http://www.w3.org/2000/svg">
<g filter="url(#filter0_d_639_318)">
<rect x="2" y="2" width="353" height="349" rx="19.0804" fill="white"/>
<path d="M49.14 273V248.738H57.2162L60.1684 259.359C60.6096 260.886 61.5597 264.89 61.5597 264.89H61.6276C61.6276 264.89 62.5777 260.886 62.9849 259.359L65.9711 248.738H74.1151V273H68.6179V260.784C68.6179 259.8 68.7197 255.931 68.7197 255.931H68.6518C68.6518 255.931 67.8035 259.562 67.532 260.445L64.0368 273H59.0825L55.6213 260.479C55.3498 259.596 54.5015 255.931 54.5015 255.931H54.4336C54.4336 255.931 54.5354 259.834 54.5354 260.818V273H49.14ZM83.9892 269.912C86.0592 269.912 87.4844 268.657 87.4844 266.79V264.72C86.7718 265.093 85.7538 265.365 84.634 265.636C82.4962 266.111 81.6139 266.654 81.6139 267.978C81.6139 269.369 82.6319 269.912 83.9892 269.912ZM82.2247 273.441C78.7635 273.441 76.2863 271.575 76.2863 268.148C76.2863 264.313 79.3403 263.159 82.9373 262.684C86.1949 262.277 87.3487 261.938 87.3487 260.75C87.3487 259.63 86.6361 258.884 84.9733 258.884C83.2088 258.884 82.3265 259.664 82.1568 261.123H77.0668C77.2025 257.9 79.6797 255.151 84.9394 255.151C87.5523 255.151 89.3168 255.626 90.5723 256.576C92.0654 257.662 92.778 259.359 92.778 261.53V270.285C92.778 271.677 92.9138 272.457 93.3888 272.762V273H88.0273C87.7559 272.627 87.5862 271.948 87.4505 271.066H87.3826C86.3646 272.525 84.8376 273.441 82.2247 273.441ZM104.554 269.267C106.657 269.267 107.947 267.469 107.947 264.517C107.947 261.53 106.827 259.562 104.452 259.562C102.042 259.562 100.821 261.7 100.821 264.517C100.821 267.333 102.178 269.267 104.554 269.267ZM95.4593 278.735V255.626H100.753V257.73H100.855C102.042 256.169 103.739 255.117 106.114 255.117C110.729 255.117 113.546 259.087 113.546 264.313C113.546 269.946 110.526 273.543 105.979 273.543C103.739 273.543 102.144 272.661 101.058 271.202H100.99V278.735H95.4593ZM124.503 269.267C126.607 269.267 127.896 267.469 127.896 264.517C127.896 261.53 126.776 259.562 124.401 259.562C121.992 259.562 120.77 261.7 120.77 264.517C120.77 267.333 122.127 269.267 124.503 269.267ZM115.409 278.735V255.626H120.702V257.73H120.804C121.992 256.169 123.688 255.117 126.064 255.117C130.679 255.117 133.495 259.087 133.495 264.313C133.495 269.946 130.475 273.543 125.928 273.543C123.688 273.543 122.093 272.661 121.008 271.202H120.94V278.735H115.409ZM142.246 269.912C144.316 269.912 145.741 268.657 145.741 266.79V264.72C145.029 265.093 144.011 265.365 142.891 265.636C140.753 266.111 139.871 266.654 139.871 267.978C139.871 269.369 140.889 269.912 142.246 269.912ZM140.482 273.441C137.02 273.441 134.543 271.575 134.543 268.148C134.543 264.313 137.597 263.159 141.194 262.684C144.452 262.277 145.606 261.938 145.606 260.75C145.606 259.63 144.893 258.884 143.23 258.884C141.466 258.884 140.584 259.664 140.414 261.123H135.324C135.46 257.9 137.937 255.151 143.196 255.151C145.809 255.151 147.574 255.626 148.829 256.576C150.322 257.662 151.035 259.359 151.035 261.53V270.285C151.035 271.677 151.171 272.457 151.646 272.762V273H146.284C146.013 272.627 145.843 271.948 145.707 271.066H145.64C144.622 272.525 143.095 273.441 140.482 273.441ZM165.331 259.461H169.844C172.219 259.461 173.441 258.341 173.441 256.508C173.441 254.744 172.287 253.488 169.98 253.488H165.331V259.461ZM159.325 273V248.738H170.93C175.748 248.738 179.413 251.215 179.413 255.728C179.413 258.544 178.022 260.614 175.206 261.598V261.7C177.309 262.413 178.395 263.736 178.735 266.145C179.244 269.335 178.904 272.389 179.753 272.695V273H173.916C173.271 272.627 173.373 269.776 173 267.367C172.694 265.127 171.541 263.906 168.962 263.906H165.331V273H159.325ZM190.069 273.509C184.334 273.509 180.805 269.539 180.805 264.279C180.805 259.087 184.436 255.117 189.73 255.117C192.207 255.117 194.175 255.931 195.668 257.289C197.738 259.189 198.756 262.209 198.722 265.738H186.234C186.574 268.08 187.863 269.539 190.137 269.539C191.596 269.539 192.546 268.894 193.021 267.808H198.417C198.043 269.369 197.025 270.862 195.498 271.914C194.039 272.932 192.275 273.509 190.069 273.509ZM186.268 262.447H193.123C192.919 260.377 191.63 259.053 189.831 259.053C187.728 259.053 186.642 260.377 186.268 262.447ZM208.616 267.944C211.025 267.944 212.145 266.044 212.145 263.6C212.145 261.259 210.924 259.291 208.616 259.291C206.546 259.291 205.189 260.988 205.189 263.634C205.189 266.247 206.546 267.944 208.616 267.944ZM208.65 279.006C203.865 279.006 200.71 277.038 200.167 273.407H205.528C205.834 274.323 206.75 275.104 208.582 275.104C210.924 275.104 211.908 273.882 211.908 271.778V270.048H211.772C210.754 271.202 209.43 272.05 207.327 272.05C203.424 272.05 199.793 269.132 199.793 263.804C199.793 258.714 202.779 255.117 207.089 255.117C209.397 255.117 210.957 256.033 211.975 257.492H212.043V255.626H217.337V271.303C217.337 273.916 216.421 275.816 215.03 277.072C213.502 278.429 211.229 279.006 208.65 279.006ZM222.775 248.229C224.506 248.229 225.829 249.45 225.829 251.181C225.829 252.911 224.506 254.133 222.775 254.133C221.045 254.133 219.721 252.911 219.721 251.181C219.721 249.45 221.045 248.229 222.775 248.229ZM219.993 273V255.626H225.524V273H219.993ZM236.695 273.543C231.13 273.543 227.397 269.573 227.397 264.347C227.397 259.121 231.13 255.151 236.695 255.151C242.294 255.151 245.959 259.121 245.959 264.347C245.959 269.573 242.294 273.543 236.695 273.543ZM236.661 269.607C239.071 269.607 240.36 267.503 240.36 264.347C240.36 261.191 239.071 259.053 236.661 259.053C234.252 259.053 232.997 261.191 232.997 264.347C232.997 267.503 234.252 269.607 236.661 269.607ZM247.829 273V255.626H253.157V258.001H253.258C254.548 256.135 256.211 255.117 258.62 255.117C262.42 255.117 264.66 257.832 264.66 261.7V273H259.129V262.82C259.129 260.988 258.213 259.732 256.414 259.732C254.582 259.732 253.36 261.259 253.36 263.397V273H247.829ZM274.07 269.912C276.14 269.912 277.565 268.657 277.565 266.79V264.72C276.853 265.093 275.835 265.365 274.715 265.636C272.577 266.111 271.695 266.654 271.695 267.978C271.695 269.369 272.713 269.912 274.07 269.912ZM272.306 273.441C268.844 273.441 266.367 271.575 266.367 268.148C266.367 264.313 269.421 263.159 273.018 262.684C276.276 262.277 277.43 261.938 277.43 260.75C277.43 259.63 276.717 258.884 275.054 258.884C273.29 258.884 272.407 259.664 272.238 261.123H267.148C267.283 257.9 269.761 255.151 275.02 255.151C277.633 255.151 279.398 255.626 280.653 256.576C282.146 257.662 282.859 259.359 282.859 261.53V270.285C282.859 271.677 282.995 272.457 283.47 272.762V273H278.108C277.837 272.627 277.667 271.948 277.531 271.066H277.464C276.446 272.525 274.919 273.441 272.306 273.441ZM285.574 273V248.738H291.173V273H285.574ZM302.341 273.509C296.607 273.509 293.077 269.539 293.077 264.279C293.077 259.087 296.708 255.117 302.002 255.117C304.479 255.117 306.447 255.931 307.94 257.289C310.01 259.189 311.028 262.209 310.994 265.738H298.507C298.846 268.08 300.136 269.539 302.409 269.539C303.868 269.539 304.818 268.894 305.294 267.808H310.689C310.316 269.369 309.298 270.862 307.771 271.914C306.312 272.932 304.547 273.509 302.341 273.509ZM298.541 262.447H305.395C305.192 260.377 303.902 259.053 302.104 259.053C300 259.053 298.914 260.377 298.541 262.447ZM157.215 314.577C150.768 314.577 146.526 311.726 146.39 306.365H152.43C152.702 308.808 154.297 309.826 157.181 309.826C159.149 309.826 161.083 309.114 161.083 307.281C161.083 305.347 159.115 304.94 155.79 304.125C151.582 303.141 147.137 301.852 147.137 296.762C147.137 291.57 151.345 289.296 156.774 289.296C162.034 289.296 166.106 291.672 166.343 296.762H160.473C160.235 294.895 158.81 293.843 156.57 293.843C154.466 293.843 153.075 294.76 153.075 296.117C153.075 297.814 154.942 298.221 158.572 299.035C163.086 300.087 167.158 301.479 167.158 306.67C167.158 311.76 162.814 314.577 157.215 314.577ZM179.617 314.577C173.169 314.577 168.927 311.726 168.792 306.365H174.832C175.103 308.808 176.698 309.826 179.583 309.826C181.551 309.826 183.485 309.114 183.485 307.281C183.485 305.347 181.517 304.94 178.191 304.125C173.984 303.141 169.538 301.852 169.538 296.762C169.538 291.57 173.746 289.296 179.175 289.296C184.435 289.296 188.507 291.672 188.745 296.762H182.874C182.637 294.895 181.211 293.843 178.972 293.843C176.868 293.843 175.477 294.76 175.477 296.117C175.477 297.814 177.343 298.221 180.974 299.035C185.487 300.087 189.559 301.479 189.559 306.67C189.559 311.76 185.216 314.577 179.617 314.577ZM198.022 300.461H202.535C204.91 300.461 206.132 299.341 206.132 297.508C206.132 295.744 204.978 294.488 202.671 294.488H198.022V300.461ZM192.016 314V289.738H203.621C208.439 289.738 212.104 292.215 212.104 296.728C212.104 299.544 210.713 301.614 207.896 302.598V302.7C210 303.413 211.086 304.736 211.426 307.145C211.935 310.335 211.595 313.389 212.444 313.695V314H206.607C205.962 313.627 206.064 310.776 205.691 308.367C205.385 306.127 204.232 304.906 201.653 304.906H198.022V314H192.016Z" fill="#002068"/>
<path d="M179 212C217.108 212 248 181.108 248 143C248 104.892 217.108 74 179 74C140.892 74 110 104.892 110 143C110 181.108 140.892 212 179 212Z" fill="url(#paint0_linear_639_318)"/>
<mask id="path-4-inside-1_639_318" fill="white">
<path d="M186.795 123.48C185.904 128.015 184.76 132.678 181.284 135.518C179.207 137.214 176.028 137.722 173.357 136.747C171.365 136.027 170.051 134.628 169.67 132.763C169.627 132.466 169.585 132.212 169.542 131.915C169.458 131.279 169.373 130.686 169.076 130.262C168.44 129.499 167.126 129.541 165.982 129.541C163.947 129.541 161.658 129.584 159.751 130.431C157.97 131.194 156.105 133.017 156.232 135.221C156.232 135.645 156.359 136.069 156.444 136.493C156.529 137.002 156.656 137.553 156.656 138.104C156.656 141.241 154.07 142.767 151.781 144.123C150.934 144.632 150.128 145.098 149.492 145.607C148.899 146.115 148.263 146.793 147.543 147.556C146.059 149.167 144.533 150.82 143.007 150.948C141.82 151.626 141.396 153.279 141.439 154.635C141.439 155.356 141.566 156.034 141.693 156.797C141.82 157.687 141.99 158.62 141.947 159.595C141.947 161.206 141.396 162.816 140.93 164.342C140.294 166.335 139.701 168.242 140.167 170.023C140.548 169.895 140.93 169.853 141.354 169.853H141.439C143.261 169.853 144.83 170.998 146.398 172.1C148.475 173.541 149.832 174.389 151.146 173.498C152.163 172.82 152.417 171.421 152.672 169.895C152.968 168.157 153.265 166.377 154.833 165.487C155.766 164.936 156.953 164.894 158.394 165.275C160.302 165.826 162.04 166.886 163.354 168.327C163.777 168.793 164.159 169.302 164.54 169.811C165.6 171.167 166.575 172.481 168.059 172.778C169.246 172.99 170.475 172.566 171.789 172.057C173.527 171.421 175.265 170.786 176.96 171.718C177.681 172.142 178.274 172.82 178.868 173.456C179.8 174.516 180.436 175.152 181.199 174.897C181.454 174.812 181.708 174.601 181.962 174.389C182.386 174.05 182.852 173.668 183.488 173.626C184.463 173.498 185.141 174.134 185.777 174.685C185.989 174.897 186.244 175.109 186.498 175.279C187.049 175.618 187.642 175.703 188.321 175.533C189.635 175.194 191.161 173.753 192.051 172.015L192.263 171.633C193.492 169.217 195.018 166.208 197.943 166.038C198.875 165.996 199.681 166.25 200.529 166.462C201.292 166.674 202.012 166.886 202.733 166.843C204.047 166.759 205.064 165.784 206.166 164.809C206.845 164.173 207.565 163.537 208.37 163.071C209.133 162.604 210.024 162.35 210.956 162.265C210.956 162.265 210.956 162.223 210.956 162.181C210.914 159.849 209.769 157.56 207.989 156.077C207.735 155.865 207.48 155.695 207.226 155.483C206.336 154.847 205.446 154.169 204.979 153.109C204.556 152.134 204.556 151.075 205.064 150.015C205.785 148.489 207.353 147.217 209.134 146.751C210.405 146.412 211.677 146.37 212.906 146.285C214.22 146.2 215.449 146.158 216.636 145.819C217.993 145.437 219.307 144.293 219.773 143.106C219.985 142.597 220.155 141.792 219.773 141.029C219.349 140.266 218.544 139.757 217.654 139.248C216.975 138.867 216.297 138.443 215.704 137.849C213.754 135.9 213.923 132.72 214.347 130.219C214.686 128.058 215.11 125.853 215.577 123.649C215.873 122.25 216.212 120.936 217.018 119.792C217.315 119.368 217.654 119.029 218.035 118.732C216.128 118.139 214.263 117.46 212.482 116.57C211.168 115.934 209.897 115.214 208.625 114.536C205.87 113.01 203.241 111.526 200.359 110.89C199.511 110.721 198.621 110.551 197.689 110.424C196.841 110.297 195.951 110.17 195.103 110C193.916 110.381 192.814 111.017 191.881 111.823C188.702 114.663 187.77 119.495 187.007 123.352"/>
</mask>
<path d="M181.284 135.518L182.549 137.067L182.55 137.067L181.284 135.518ZM173.357 136.747L174.043 134.869L174.038 134.867L173.357 136.747ZM169.67 132.763L167.69 133.046L167.698 133.105L167.71 133.164L169.67 132.763ZM169.542 131.915L167.56 132.179L167.561 132.189L167.562 132.198L169.542 131.915ZM169.076 130.262L170.715 129.115L170.666 129.046L170.613 128.981L169.076 130.262ZM159.751 130.431L160.538 132.27L160.551 132.264L160.563 132.259L159.751 130.431ZM156.232 135.221H158.232V135.164L158.229 135.106L156.232 135.221ZM156.444 136.493L158.417 136.164L158.412 136.132L158.405 136.101L156.444 136.493ZM151.781 144.123L150.762 142.402L150.752 142.408L151.781 144.123ZM149.492 145.607L148.243 144.045L148.217 144.066L148.191 144.088L149.492 145.607ZM147.543 147.556L146.089 146.183L146.08 146.192L146.071 146.202L147.543 147.556ZM143.007 150.948L142.841 148.954L142.399 148.991L142.015 149.211L143.007 150.948ZM141.439 154.635H143.439V154.604L143.438 154.573L141.439 154.635ZM141.693 156.797L143.673 156.514L143.67 156.491L143.666 156.468L141.693 156.797ZM141.947 159.595L139.949 159.508L139.947 159.551V159.595H141.947ZM140.93 164.342L142.835 164.951L142.839 164.939L142.843 164.927L140.93 164.342ZM140.167 170.023L138.232 170.529L138.773 172.595L140.799 171.92L140.167 170.023ZM146.398 172.1L145.248 173.736L145.258 173.743L146.398 172.1ZM151.146 173.498L150.036 171.834L150.03 171.838L150.024 171.843L151.146 173.498ZM152.672 169.895L150.7 169.559L150.699 169.567L152.672 169.895ZM154.833 165.487L155.821 167.226L155.836 167.218L155.851 167.209L154.833 165.487ZM158.394 165.275L158.949 163.354L158.928 163.347L158.906 163.342L158.394 165.275ZM163.354 168.327L164.833 166.982L164.832 166.98L163.354 168.327ZM164.54 169.811L162.94 171.011L162.952 171.026L162.964 171.042L164.54 169.811ZM168.059 172.778L167.667 174.739L167.687 174.743L167.707 174.747L168.059 172.778ZM171.789 172.057L171.102 170.179L171.084 170.185L171.067 170.192L171.789 172.057ZM176.96 171.718L177.974 169.994L177.95 169.98L177.924 169.966L176.96 171.718ZM178.868 173.456L180.369 172.135L180.35 172.113L180.33 172.091L178.868 173.456ZM181.199 174.897L181.832 176.795L181.199 174.897ZM181.962 174.389L180.713 172.827L180.697 172.839L180.682 172.852L181.962 174.389ZM183.488 173.626L183.621 175.621L183.684 175.617L183.747 175.609L183.488 173.626ZM185.777 174.685L187.191 173.271L187.141 173.221L187.087 173.174L185.777 174.685ZM186.498 175.279L185.388 176.943L185.419 176.963L185.45 176.982L186.498 175.279ZM188.321 175.533L188.806 177.473L188.813 177.472L188.82 177.47L188.321 175.533ZM192.051 172.015L190.303 171.044L190.286 171.073L190.271 171.103L192.051 172.015ZM192.263 171.633L194.011 172.605L194.029 172.573L194.045 172.54L192.263 171.633ZM197.943 166.038L197.852 164.04L197.84 164.041L197.827 164.041L197.943 166.038ZM200.529 166.462L201.064 164.535L201.039 164.528L201.014 164.522L200.529 166.462ZM202.733 166.843L202.85 168.84L202.862 168.839L202.733 166.843ZM206.166 164.809L207.491 166.307L207.513 166.288L207.534 166.268L206.166 164.809ZM208.37 163.071L209.373 164.802L209.393 164.79L209.413 164.777L208.37 163.071ZM210.956 162.265L211.137 164.257L212.956 164.092V162.265H210.956ZM210.956 162.181H212.956V162.162L212.956 162.144L210.956 162.181ZM207.989 156.077L206.709 157.613L207.989 156.077ZM207.226 155.483L208.506 153.947L208.449 153.899L208.389 153.856L207.226 155.483ZM204.979 153.109L203.145 153.907L203.149 153.915L204.979 153.109ZM205.064 150.015L206.867 150.881L206.873 150.869L205.064 150.015ZM209.134 146.751L209.64 148.686L209.649 148.684L209.134 146.751ZM212.906 146.285L212.777 144.289L212.769 144.29L212.906 146.285ZM216.636 145.819L216.095 143.893L216.087 143.895L216.636 145.819ZM219.773 143.106L217.927 142.336L217.919 142.355L217.912 142.374L219.773 143.106ZM219.773 141.029L221.562 140.134L221.543 140.095L221.521 140.057L219.773 141.029ZM217.654 139.248L218.646 137.512L218.634 137.505L217.654 139.248ZM214.347 130.219L216.319 130.554L216.321 130.542L216.323 130.529L214.347 130.219ZM215.577 123.649L213.62 123.234L213.62 123.235L215.577 123.649ZM217.018 119.792L218.653 120.943L218.656 120.939L217.018 119.792ZM218.035 118.732L219.263 120.311L222.286 117.96L218.629 116.822L218.035 118.732ZM212.482 116.57L213.377 114.781L213.365 114.776L213.353 114.77L212.482 116.57ZM208.625 114.536L207.656 116.285L207.67 116.293L207.684 116.3L208.625 114.536ZM200.359 110.89L200.79 108.937L200.771 108.933L200.751 108.929L200.359 110.89ZM197.689 110.424L197.392 112.402L197.405 112.404L197.418 112.406L197.689 110.424ZM195.103 110L195.495 108.039L194.985 107.937L194.491 108.096L195.103 110ZM191.881 111.823L190.574 110.309L190.561 110.32L190.549 110.331L191.881 111.823ZM184.832 123.094C183.925 127.717 182.861 131.647 180.019 133.969L182.55 137.067C186.659 133.709 187.884 128.314 188.757 123.865L184.832 123.094ZM180.019 133.969C178.517 135.195 176.086 135.614 174.043 134.869L172.671 138.626C175.97 139.83 179.897 139.232 182.549 137.067L180.019 133.969ZM174.038 134.867C172.594 134.344 171.85 133.441 171.629 132.362L167.71 133.164C168.252 135.815 170.136 137.709 172.677 138.628L174.038 134.867ZM171.649 132.48C171.626 132.319 171.604 132.171 171.583 132.035C171.561 131.896 171.542 131.768 171.522 131.632L167.562 132.198C167.585 132.358 167.608 132.506 167.629 132.643C167.651 132.782 167.67 132.909 167.69 133.046L171.649 132.48ZM171.525 131.651C171.458 131.149 171.345 130.016 170.715 129.115L167.438 131.409C167.39 131.341 167.409 131.332 167.446 131.485C167.485 131.645 167.515 131.846 167.56 132.179L171.525 131.651ZM170.613 128.981C169.834 128.047 168.763 127.752 168.024 127.639C167.284 127.525 166.481 127.541 165.982 127.541V131.541C166.626 131.541 167.053 131.536 167.416 131.592C167.778 131.648 167.682 131.714 167.54 131.542L170.613 128.981ZM165.982 127.541C164.004 127.541 161.292 127.558 158.938 128.604L160.563 132.259C162.024 131.609 163.89 131.541 165.982 131.541V127.541ZM158.963 128.593C157.801 129.091 156.619 129.925 155.725 131.023C154.825 132.129 154.136 133.612 154.236 135.337L158.229 135.106C158.201 134.626 158.382 134.096 158.827 133.549C159.279 132.994 159.92 132.535 160.538 132.27L158.963 128.593ZM154.232 135.221C154.232 135.909 154.45 136.72 154.483 136.885L158.405 136.101C158.269 135.418 158.232 135.381 158.232 135.221H154.232ZM154.471 136.822C154.584 137.499 154.656 137.772 154.656 138.104H158.656C158.656 137.334 158.474 136.504 158.417 136.164L154.471 136.822ZM154.656 138.104C154.656 139.034 154.304 139.718 153.655 140.375C152.936 141.102 151.954 141.696 150.762 142.402L152.801 145.844C153.898 145.194 155.353 144.347 156.499 143.187C157.715 141.958 158.656 140.311 158.656 138.104H154.656ZM150.752 142.408C149.967 142.88 149.012 143.43 148.243 144.045L150.742 147.168C151.245 146.766 151.901 146.384 152.81 145.838L150.752 142.408ZM148.191 144.088C147.499 144.681 146.78 145.451 146.089 146.183L148.997 148.93C149.746 148.136 150.299 147.549 150.794 147.125L148.191 144.088ZM146.071 146.202C145.308 147.031 144.648 147.742 144.011 148.271C143.346 148.825 142.978 148.943 142.841 148.954L143.173 152.941C144.562 152.825 145.72 152.053 146.57 151.346C147.449 150.614 148.294 149.693 149.014 148.911L146.071 146.202ZM142.015 149.211C140.889 149.854 140.241 150.891 139.888 151.838C139.533 152.791 139.412 153.809 139.44 154.698L143.438 154.573C143.423 154.106 143.493 153.619 143.636 153.236C143.78 152.848 143.938 152.719 143.999 152.684L142.015 149.211ZM139.439 154.635C139.439 155.56 139.604 156.43 139.72 157.126L143.666 156.468C143.527 155.638 143.439 155.152 143.439 154.635H139.439ZM139.713 157.08C139.855 158.075 139.981 158.769 139.949 159.508L143.945 159.682C143.998 158.471 143.785 157.299 143.673 156.514L139.713 157.08ZM139.947 159.595C139.947 160.835 139.522 162.105 139.017 163.758L142.843 164.927C143.27 163.528 143.947 161.577 143.947 159.595H139.947ZM139.025 163.734C138.433 165.588 137.592 168.084 138.232 170.529L142.102 169.516C141.81 168.401 142.155 167.081 142.835 164.951L139.025 163.734ZM140.799 171.92C140.914 171.882 141.067 171.853 141.354 171.853V167.853C140.793 167.853 140.182 167.909 139.534 168.125L140.799 171.92ZM141.354 171.853H141.439V167.853H141.354V171.853ZM141.439 171.853C142.5 171.853 143.515 172.518 145.248 173.736L147.548 170.463C146.144 169.477 144.022 167.853 141.439 167.853V171.853ZM145.258 173.743C146.245 174.428 147.319 175.165 148.367 175.55C149.574 175.995 150.95 176.047 152.267 175.154L150.024 171.843C149.967 171.881 149.972 171.865 150.007 171.863C150.02 171.862 149.951 171.871 149.749 171.796C149.271 171.62 148.628 171.212 147.538 170.456L145.258 173.743ZM152.255 175.163C153.256 174.495 153.777 173.533 154.079 172.685C154.371 171.865 154.523 170.956 154.644 170.224L150.699 169.567C150.566 170.361 150.464 170.914 150.311 171.344C150.167 171.747 150.052 171.824 150.036 171.834L152.255 175.163ZM154.643 170.232C154.8 169.313 154.919 168.653 155.134 168.112C155.325 167.632 155.538 167.386 155.821 167.226L153.846 163.748C152.56 164.478 151.841 165.567 151.417 166.635C151.018 167.64 150.84 168.74 150.7 169.559L154.643 170.232ZM155.851 167.209C156.135 167.041 156.701 166.896 157.882 167.208L158.906 163.342C157.205 162.891 155.397 162.831 153.816 163.765L155.851 167.209ZM157.839 167.196C159.407 167.65 160.821 168.518 161.876 169.675L164.832 166.98C163.258 165.254 161.196 164.003 158.949 163.354L157.839 167.196ZM161.874 169.672C162.223 170.057 162.549 170.489 162.94 171.011L166.14 168.611C165.769 168.115 165.332 167.53 164.833 166.982L161.874 169.672ZM162.964 171.042C163.457 171.673 164.068 172.479 164.761 173.14C165.482 173.827 166.425 174.491 167.667 174.739L168.451 170.817C168.209 170.768 167.922 170.627 167.52 170.244C167.09 169.833 166.683 169.305 166.117 168.579L162.964 171.042ZM167.707 174.747C169.527 175.072 171.27 174.403 172.511 173.922L171.067 170.192C169.68 170.729 168.965 170.908 168.41 170.809L167.707 174.747ZM172.476 173.935C174.403 173.231 175.227 173.047 175.997 173.471L177.924 169.966C175.303 168.524 172.651 169.612 171.102 170.179L172.476 173.935ZM175.946 173.442C176.355 173.682 176.72 174.086 177.406 174.821L180.33 172.091C179.829 171.554 179.007 170.602 177.974 169.994L175.946 173.442ZM177.366 174.777C177.804 175.274 178.35 175.888 178.95 176.308C179.644 176.794 180.654 177.187 181.832 176.795L180.567 173C180.716 172.95 180.902 172.937 181.079 172.976C181.229 173.01 181.29 173.063 181.244 173.031C181.196 172.998 181.101 172.92 180.939 172.757C180.781 172.597 180.599 172.395 180.369 172.135L177.366 174.777ZM181.832 176.795C182.521 176.565 183.086 176.056 183.243 175.925L180.682 172.852C180.616 172.907 180.567 172.948 180.52 172.985C180.475 173.022 180.445 173.044 180.425 173.059C180.405 173.073 180.405 173.071 180.423 173.061C180.441 173.051 180.49 173.025 180.567 173L181.832 176.795ZM183.212 175.95C183.327 175.858 183.404 175.796 183.483 175.738C183.557 175.683 183.607 175.65 183.642 175.63C183.704 175.594 183.685 175.617 183.621 175.621L183.355 171.63C181.994 171.721 181.049 172.558 180.713 172.827L183.212 175.95ZM183.747 175.609C183.747 175.609 183.741 175.61 183.729 175.609C183.718 175.608 183.709 175.607 183.703 175.605C183.691 175.602 183.71 175.605 183.768 175.638C183.829 175.673 183.914 175.73 184.036 175.829C184.166 175.933 184.286 176.04 184.467 176.197L187.087 173.174C186.643 172.789 185.257 171.378 183.23 171.642L183.747 175.609ZM184.363 176.1C184.661 176.397 185.016 176.695 185.388 176.943L187.607 173.615C187.471 173.524 187.318 173.397 187.191 173.271L184.363 176.1ZM185.45 176.982C186.493 177.624 187.645 177.764 188.806 177.473L187.836 173.593C187.709 173.624 187.652 173.618 187.64 173.616C187.631 173.615 187.605 173.612 187.546 173.575L185.45 176.982ZM188.82 177.47C189.917 177.187 190.916 176.509 191.717 175.753C192.54 174.977 193.282 173.998 193.831 172.927L190.271 171.103C189.929 171.769 189.463 172.381 188.972 172.844C188.459 173.328 188.038 173.54 187.821 173.597L188.82 177.47ZM193.799 172.986L194.011 172.605L190.514 170.662L190.303 171.044L193.799 172.986ZM194.045 172.54C194.682 171.289 195.272 170.147 196 169.277C196.697 168.445 197.343 168.076 198.059 168.035L197.827 164.041C195.618 164.169 194.038 165.39 192.934 166.709C191.861 167.991 191.073 169.561 190.48 170.726L194.045 172.54ZM198.034 168.036C198.598 168.01 199.044 168.152 200.044 168.402L201.014 164.522C200.318 164.348 199.153 163.981 197.852 164.04L198.034 168.036ZM199.993 168.389C200.655 168.573 201.728 168.906 202.85 168.84L202.615 164.847C202.296 164.866 201.929 164.775 201.064 164.535L199.993 168.389ZM202.862 168.839C203.998 168.766 204.923 168.308 205.649 167.817C206.342 167.348 206.994 166.747 207.491 166.307L204.841 163.311C204.236 163.846 203.829 164.219 203.409 164.503C203.022 164.764 202.782 164.836 202.604 164.848L202.862 168.839ZM207.534 166.268C208.201 165.643 208.78 165.145 209.373 164.802L207.368 161.34C206.35 161.929 205.488 162.703 204.798 163.35L207.534 166.268ZM209.413 164.777C209.862 164.503 210.442 164.32 211.137 164.257L210.775 160.274C209.605 160.38 208.405 160.706 207.328 161.364L209.413 164.777ZM210.956 162.265C212.956 162.265 212.956 162.265 212.956 162.265C212.956 162.265 212.956 162.265 212.956 162.265V162.265V162.265V162.265C212.956 162.265 212.956 162.265 212.956 162.265C212.956 162.265 212.956 162.265 212.956 162.265C212.956 162.265 212.956 162.265 212.956 162.265C212.956 162.265 212.956 162.265 212.956 162.265C212.956 162.265 212.956 162.265 212.956 162.265C212.956 162.265 212.956 162.265 212.956 162.265C212.956 162.265 212.956 162.265 212.956 162.265C212.956 162.265 212.956 162.265 212.956 162.265C212.956 162.265 212.956 162.265 212.956 162.265C212.956 162.265 212.956 162.265 212.956 162.265C212.956 162.265 212.956 162.265 212.956 162.265C212.956 162.265 212.956 162.265 212.956 162.265C212.956 162.265 212.956 162.265 212.956 162.265C212.956 162.265 212.956 162.265 212.956 162.265C212.956 162.265 212.956 162.265 212.956 162.265C212.956 162.265 212.956 162.265 212.956 162.265C212.956 162.265 212.956 162.265 212.956 162.265C212.956 162.265 212.956 162.265 212.956 162.265C212.956 162.265 212.956 162.265 212.956 162.265C212.956 162.265 212.956 162.265 212.956 162.265C212.956 162.265 212.956 162.265 212.956 162.265C212.956 162.265 212.956 162.265 212.956 162.265C212.956 162.265 212.956 162.265 212.956 162.265C212.956 162.265 212.956 162.265 212.956 162.265C212.956 162.265 212.956 162.265 212.956 162.265C212.956 162.265 212.956 162.265 212.956 162.265C212.956 162.265 212.956 162.265 212.956 162.265C212.956 162.265 212.956 162.265 212.956 162.265C212.956 162.265 212.956 162.265 212.956 162.265C212.956 162.265 212.956 162.265 212.956 162.265C212.956 162.265 212.956 162.265 212.956 162.265C212.956 162.265 212.956 162.265 212.956 162.265C212.956 162.265 212.956 162.265 212.956 162.265C212.956 162.265 212.956 162.265 212.956 162.265C212.956 162.265 212.956 162.265 212.956 162.265C212.956 162.265 212.956 162.265 212.956 162.265C212.956 162.265 212.956 162.265 212.956 162.265C212.956 162.265 212.956 162.265 212.956 162.264C212.956 162.264 212.956 162.264 212.956 162.264C212.956 162.264 212.956 162.264 212.956 162.264C212.956 162.264 212.956 162.264 212.956 162.264C212.956 162.264 212.956 162.264 212.956 162.264C212.956 162.264 212.956 162.264 212.956 162.264C212.956 162.264 212.956 162.264 212.956 162.264C212.956 162.264 212.956 162.264 212.956 162.264C212.956 162.264 212.956 162.264 212.956 162.264C212.956 162.264 212.956 162.264 212.956 162.264C212.956 162.264 212.956 162.264 212.956 162.264C212.956 162.264 212.956 162.264 212.956 162.264C212.956 162.264 212.956 162.264 212.956 162.264C212.956 162.264 212.956 162.264 212.956 162.264C212.956 162.264 212.956 162.264 212.956 162.264C212.956 162.264 212.956 162.264 212.956 162.264C212.956 162.264 212.956 162.264 212.956 162.264C212.956 162.264 212.956 162.264 212.956 162.264C212.956 162.264 212.956 162.264 212.956 162.264C212.956 162.264 212.956 162.264 212.956 162.264C212.956 162.264 212.956 162.264 212.956 162.264C212.956 162.263 212.956 162.263 212.956 162.263C212.956 162.263 212.956 162.263 212.956 162.263C212.956 162.263 212.956 162.263 212.956 162.263C212.956 162.263 212.956 162.263 212.956 162.263C212.956 162.263 212.956 162.263 212.956 162.263C212.956 162.263 212.956 162.263 212.956 162.263C212.956 162.263 212.956 162.263 212.956 162.263C212.956 162.263 212.956 162.263 212.956 162.263C212.956 162.263 212.956 162.263 212.956 162.263C212.956 162.263 212.956 162.263 212.956 162.263C212.956 162.263 212.956 162.263 212.956 162.263C212.956 162.263 212.956 162.263 212.956 162.263C212.956 162.263 212.956 162.263 212.956 162.263C212.956 162.263 212.956 162.263 212.956 162.263C212.956 162.263 212.956 162.263 212.956 162.263C212.956 162.263 212.956 162.262 212.956 162.262C212.956 162.262 212.956 162.262 212.956 162.262C212.956 162.262 212.956 162.262 212.956 162.262C212.956 162.262 212.956 162.262 212.956 162.262C212.956 162.262 212.956 162.262 212.956 162.262C212.956 162.262 212.956 162.262 212.956 162.262C212.956 162.262 212.956 162.262 212.956 162.262C212.956 162.262 212.956 162.262 212.956 162.262C212.956 162.262 212.956 162.262 212.956 162.262C212.956 162.262 212.956 162.262 212.956 162.262C212.956 162.262 212.956 162.262 212.956 162.262C212.956 162.262 212.956 162.262 212.956 162.262C212.956 162.262 212.956 162.262 212.956 162.262C212.956 162.262 212.956 162.261 212.956 162.261C212.956 162.261 212.956 162.261 212.956 162.261C212.956 162.261 212.956 162.261 212.956 162.261C212.956 162.261 212.956 162.261 212.956 162.261C212.956 162.261 212.956 162.261 212.956 162.261C212.956 162.261 212.956 162.261 212.956 162.261C212.956 162.261 212.956 162.261 212.956 162.261C212.956 162.261 212.956 162.261 212.956 162.261C212.956 162.261 212.956 162.261 212.956 162.261C212.956 162.261 212.956 162.261 212.956 162.261C212.956 162.261 212.956 162.261 212.956 162.261C212.956 162.261 212.956 162.261 212.956 162.261C212.956 162.26 212.956 162.26 212.956 162.26C212.956 162.26 212.956 162.26 212.956 162.26C212.956 162.26 212.956 162.26 212.956 162.26C212.956 162.26 212.956 162.26 212.956 162.26C212.956 162.26 212.956 162.26 212.956 162.26C212.956 162.26 212.956 162.26 212.956 162.26C212.956 162.26 212.956 162.26 212.956 162.26C212.956 162.26 212.956 162.26 212.956 162.26C212.956 162.26 212.956 162.26 212.956 162.26C212.956 162.26 212.956 162.26 212.956 162.26C212.956 162.26 212.956 162.26 212.956 162.259C212.956 162.259 212.956 162.259 212.956 162.259C212.956 162.259 212.956 162.259 212.956 162.259C212.956 162.259 212.956 162.259 212.956 162.259C212.956 162.259 212.956 162.259 212.956 162.259C212.956 162.259 212.956 162.259 212.956 162.259C212.956 162.259 212.956 162.259 212.956 162.259C212.956 162.259 212.956 162.259 212.956 162.259C212.956 162.259 212.956 162.259 212.956 162.259C212.956 162.259 212.956 162.259 212.956 162.259C212.956 162.259 212.956 162.258 212.956 162.258C212.956 162.258 212.956 162.258 212.956 162.258C212.956 162.258 212.956 162.258 212.956 162.258C212.956 162.258 212.956 162.258 212.956 162.258C212.956 162.258 212.956 162.258 212.956 162.258C212.956 162.258 212.956 162.258 212.956 162.258C212.956 162.258 212.956 162.258 212.956 162.258C212.956 162.258 212.956 162.258 212.956 162.258C212.956 162.258 212.956 162.258 212.956 162.258C212.956 162.258 212.956 162.257 212.956 162.257C212.956 162.257 212.956 162.257 212.956 162.257C212.956 162.257 212.956 162.257 212.956 162.257C212.956 162.257 212.956 162.257 212.956 162.257C212.956 162.257 212.956 162.257 212.956 162.257C212.956 162.257 212.956 162.257 212.956 162.257C212.956 162.257 212.956 162.257 212.956 162.257C212.956 162.257 212.956 162.257 212.956 162.257C212.956 162.257 212.956 162.257 212.956 162.257C212.956 162.256 212.956 162.256 212.956 162.256C212.956 162.256 212.956 162.256 212.956 162.256C212.956 162.256 212.956 162.256 212.956 162.256C212.956 162.256 212.956 162.256 212.956 162.256C212.956 162.256 212.956 162.256 212.956 162.256C212.956 162.256 212.956 162.256 212.956 162.256C212.956 162.256 212.956 162.256 212.956 162.256C212.956 162.256 212.956 162.256 212.956 162.256C212.956 162.256 212.956 162.255 212.956 162.255C212.956 162.255 212.956 162.255 212.956 162.255C212.956 162.255 212.956 162.255 212.956 162.255C212.956 162.255 212.956 162.255 212.956 162.255C212.956 162.255 212.956 162.255 212.956 162.255C212.956 162.255 212.956 162.255 212.956 162.255C212.956 162.255 212.956 162.255 212.956 162.255C212.956 162.255 212.956 162.255 212.956 162.255C212.956 162.255 212.956 162.254 212.956 162.254C212.956 162.254 212.956 162.254 212.956 162.254C212.956 162.254 212.956 162.254 212.956 162.254C212.956 162.254 212.956 162.254 212.956 162.254C212.956 162.254 212.956 162.254 212.956 162.254C212.956 162.254 212.956 162.254 212.956 162.254C212.956 162.254 212.956 162.254 212.956 162.254C212.956 162.254 212.956 162.254 212.956 162.253C212.956 162.253 212.956 162.253 212.956 162.253C212.956 162.253 212.956 162.253 212.956 162.253C212.956 162.253 212.956 162.253 212.956 162.253C212.956 162.253 212.956 162.253 212.956 162.253C212.956 162.253 212.956 162.253 212.956 162.253C212.956 162.253 212.956 162.253 212.956 162.253C212.956 162.253 212.956 162.253 212.956 162.253C212.956 162.252 212.956 162.252 212.956 162.252C212.956 162.252 212.956 162.252 212.956 162.252C212.956 162.252 212.956 162.252 212.956 162.252C212.956 162.252 212.956 162.252 212.956 162.252C212.956 162.252 212.956 162.252 212.956 162.252C212.956 162.252 212.956 162.252 212.956 162.252C212.956 162.252 212.956 162.252 212.956 162.252C212.956 162.251 212.956 162.251 212.956 162.251C212.956 162.251 212.956 162.251 212.956 162.251C212.956 162.251 212.956 162.251 212.956 162.251C212.956 162.251 212.956 162.251 212.956 162.251C212.956 162.251 212.956 162.251 212.956 162.251C212.956 162.251 212.956 162.251 212.956 162.251C212.956 162.251 212.956 162.251 212.956 162.251C212.956 162.25 212.956 162.25 212.956 162.25C212.956 162.25 212.956 162.25 212.956 162.25C212.956 162.25 212.956 162.25 212.956 162.25C212.956 162.25 212.956 162.25 212.956 162.25C212.956 162.25 212.956 162.25 212.956 162.25C212.956 162.25 212.956 162.25 212.956 162.25C212.956 162.25 212.956 162.25 212.956 162.249C212.956 162.249 212.956 162.249 212.956 162.249C212.956 162.249 212.956 162.249 212.956 162.249C212.956 162.249 212.956 162.249 212.956 162.249C212.956 162.249 212.956 162.249 212.956 162.249C212.956 162.249 212.956 162.249 212.956 162.249C212.956 162.249 212.956 162.249 212.956 162.249C212.956 162.248 212.956 162.248 212.956 162.248C212.956 162.248 212.956 162.248 212.956 162.248C212.956 162.248 212.956 162.248 212.956 162.248C212.956 162.248 212.956 162.248 212.956 162.248C212.956 162.248 212.956 162.248 212.956 162.248C212.956 162.248 212.956 162.248 212.956 162.248C212.956 162.248 212.956 162.247 212.956 162.247C212.956 162.247 212.956 162.247 212.956 162.247C212.956 162.247 212.956 162.247 212.956 162.247C212.956 162.247 212.956 162.247 212.956 162.247C212.956 162.247 212.956 162.247 212.956 162.247C212.956 162.247 212.956 162.247 212.956 162.247C212.956 162.247 212.956 162.247 212.956 162.246C212.956 162.246 212.956 162.246 212.956 162.246C212.956 162.246 212.956 162.246 212.956 162.246C212.956 162.246 212.956 162.246 212.956 162.246C212.956 162.246 212.956 162.246 212.956 162.246C212.956 162.246 212.956 162.246 212.956 162.246C212.956 162.246 212.956 162.246 212.956 162.245C212.956 162.245 212.956 162.245 212.956 162.245C212.956 162.245 212.956 162.245 212.956 162.245C212.956 162.245 212.956 162.245 212.956 162.245C212.956 162.245 212.956 162.245 212.956 162.245C212.956 162.245 212.956 162.245 212.956 162.245C212.956 162.245 212.956 162.244 212.956 162.244C212.956 162.244 212.956 162.244 212.956 162.244C212.956 162.244 212.956 162.244 212.956 162.244C212.956 162.244 212.956 162.244 212.956 162.244C212.956 162.244 212.956 162.244 212.956 162.244C212.956 162.244 212.956 162.244 212.956 162.244C212.956 162.244 212.956 162.243 212.956 162.243C212.956 162.243 212.956 162.243 212.956 162.243C212.956 162.243 212.956 162.243 212.956 162.243C212.956 162.243 212.956 162.243 212.956 162.243C212.956 162.243 212.956 162.243 212.956 162.243C212.956 162.243 212.956 162.243 212.956 162.243C212.956 162.242 212.956 162.242 212.956 162.242C212.956 162.242 212.956 162.242 212.956 162.242C212.956 162.242 212.956 162.242 212.956 162.242C212.956 162.242 212.956 162.242 212.956 162.242C212.956 162.242 212.956 162.242 212.956 162.242C212.956 162.242 212.956 162.242 212.956 162.241C212.956 162.241 212.956 162.241 212.956 162.241C212.956 162.241 212.956 162.241 212.956 162.241C212.956 162.241 212.956 162.241 212.956 162.241C212.956 162.241 212.956 162.241 212.956 162.241C212.956 162.241 212.956 162.241 212.956 162.241C212.956 162.241 212.956 162.24 212.956 162.24C212.956 162.24 212.956 162.24 212.956 162.24C212.956 162.24 212.956 162.24 212.956 162.24C212.956 162.24 212.956 162.24 212.956 162.24C212.956 162.24 212.956 162.24 212.956 162.24C212.956 162.24 212.956 162.24 212.956 162.239C212.956 162.239 212.956 162.239 212.956 162.239C212.956 162.239 212.956 162.239 212.956 162.239C212.956 162.239 212.956 162.239 212.956 162.239C212.956 162.239 212.956 162.239 212.956 162.239C212.956 162.239 212.956 162.239 212.956 162.239C212.956 162.238 212.956 162.238 212.956 162.238C212.956 162.238 212.956 162.238 212.956 162.238C212.956 162.238 212.956 162.238 212.956 162.238C212.956 162.238 212.956 162.238 212.956 162.238C212.956 162.238 212.956 162.238 212.956 162.238C212.956 162.238 212.956 162.237 212.956 162.237C212.956 162.237 212.956 162.237 212.956 162.237C212.956 162.237 212.956 162.237 212.956 162.237C212.956 162.237 212.956 162.237 212.956 162.237C212.956 162.237 212.956 162.237 212.956 162.237C212.956 162.237 212.956 162.237 212.956 162.236C212.956 162.236 212.956 162.236 212.956 162.236C212.956 162.236 212.956 162.236 212.956 162.236C212.956 162.236 212.956 162.236 212.956 162.236C212.956 162.236 212.956 162.236 212.956 162.236C212.956 162.236 212.956 162.236 212.956 162.235C212.956 162.235 212.956 162.235 212.956 162.235C212.956 162.235 212.956 162.235 212.956 162.235C212.956 162.235 212.956 162.235 212.956 162.235C212.956 162.235 212.956 162.235 212.956 162.235C212.956 162.235 212.956 162.235 212.956 162.235C212.956 162.234 212.956 162.234 212.956 162.234C212.956 162.234 212.956 162.234 212.956 162.234C212.956 162.234 212.956 162.234 212.956 162.234C212.956 162.234 212.956 162.234 212.956 162.234C212.956 162.234 212.956 162.234 212.956 162.234C212.956 162.233 212.956 162.233 212.956 162.233C212.956 162.233 212.956 162.233 212.956 162.233C212.956 162.233 212.956 162.233 212.956 162.233C212.956 162.233 212.956 162.233 212.956 162.233C212.956 162.233 212.956 162.233 212.956 162.233C212.956 162.232 212.956 162.232 212.956 162.232C212.956 162.232 212.956 162.232 212.956 162.232C212.956 162.232 212.956 162.232 212.956 162.232C212.956 162.232 212.956 162.232 212.956 162.232C212.956 162.232 212.956 162.232 212.956 162.231C212.956 162.231 212.956 162.231 212.956 162.231C212.956 162.231 212.956 162.231 212.956 162.231C212.956 162.231 212.956 162.231 212.956 162.231C212.956 162.231 212.956 162.231 212.956 162.231C212.956 162.231 212.956 162.231 212.956 162.23C212.956 162.23 212.956 162.23 212.956 162.23C212.956 162.23 212.956 162.23 212.956 162.23C212.956 162.23 212.956 162.23 212.956 162.23C212.956 162.23 212.956 162.23 212.956 162.23C212.956 162.23 212.956 162.23 212.956 162.229C212.956 162.229 212.956 162.229 212.956 162.229C212.956 162.229 212.956 162.229 212.956 162.229C212.956 162.229 212.956 162.229 212.956 162.229C212.956 162.229 212.956 162.229 212.956 162.229C212.956 162.229 212.956 162.228 212.956 162.228C212.956 162.228 212.956 162.228 212.956 162.228C212.956 162.228 212.956 162.228 212.956 162.228C212.956 162.228 212.956 162.228 212.956 162.228C212.956 162.228 212.956 162.228 212.956 162.228C212.956 162.227 212.956 162.227 212.956 162.227C212.956 162.227 212.956 162.227 212.956 162.227C212.956 162.227 212.956 162.227 212.956 162.227C212.956 162.227 212.956 162.227 212.956 162.227C212.956 162.227 212.956 162.227 212.956 162.227C212.956 162.226 212.956 162.226 212.956 162.226C212.956 162.226 212.956 162.226 212.956 162.226C212.956 162.226 212.956 162.226 212.956 162.226C212.956 162.226 212.956 162.226 212.956 162.226C212.956 162.226 212.956 162.226 212.956 162.225C212.956 162.225 212.956 162.225 212.956 162.225C212.956 162.225 212.956 162.225 212.956 162.225C212.956 162.225 212.956 162.225 212.956 162.225C212.956 162.225 212.956 162.225 212.956 162.225C212.956 162.224 212.956 162.224 212.956 162.224C212.956 162.224 212.956 162.224 212.956 162.224C212.956 162.224 212.956 162.224 212.956 162.224C212.956 162.224 212.956 162.224 212.956 162.224C212.956 162.224 212.956 162.224 212.956 162.223C212.956 162.223 212.956 162.223 212.956 162.223C212.956 162.223 212.956 162.223 212.956 162.223C212.956 162.223 212.956 162.223 212.956 162.223C212.956 162.223 212.956 162.223 212.956 162.223C212.956 162.223 212.956 162.222 212.956 162.222C212.956 162.222 212.956 162.222 212.956 162.222C212.956 162.222 212.956 162.222 212.956 162.222C212.956 162.222 212.956 162.222 212.956 162.222C212.956 162.222 212.956 162.222 212.956 162.222C212.956 162.221 212.956 162.221 212.956 162.221C212.956 162.221 212.956 162.221 212.956 162.221C212.956 162.221 212.956 162.221 212.956 162.221C212.956 162.221 212.956 162.221 212.956 162.221C212.956 162.221 212.956 162.22 212.956 162.22C212.956 162.22 212.956 162.22 212.956 162.22C212.956 162.22 212.956 162.22 212.956 162.22C212.956 162.22 212.956 162.22 212.956 162.22C212.956 162.22 212.956 162.22 212.956 162.22C212.956 162.219 212.956 162.219 212.956 162.219C212.956 162.219 212.956 162.219 212.956 162.219C212.956 162.219 212.956 162.219 212.956 162.219C212.956 162.219 212.956 162.219 212.956 162.219C212.956 162.219 212.956 162.218 212.956 162.218C212.956 162.218 212.956 162.218 212.956 162.218C212.956 162.218 212.956 162.218 212.956 162.218C212.956 162.218 212.956 162.218 212.956 162.218C212.956 162.218 212.956 162.218 212.956 162.217C212.956 162.217 212.956 162.217 212.956 162.217C212.956 162.217 212.956 162.217 212.956 162.217C212.956 162.217 212.956 162.217 212.956 162.217C212.956 162.217 212.956 162.217 212.956 162.217C212.956 162.217 212.956 162.216 212.956 162.216C212.956 162.216 212.956 162.216 212.956 162.216C212.956 162.216 212.956 162.216 212.956 162.216C212.956 162.216 212.956 162.216 212.956 162.216C212.956 162.216 212.956 162.216 212.956 162.215C212.956 162.215 212.956 162.215 212.956 162.215C212.956 162.215 212.956 162.215 212.956 162.215C212.956 162.215 212.956 162.215 212.956 162.215C212.956 162.215 212.956 162.215 212.956 162.215C212.956 162.214 212.956 162.214 212.956 162.214C212.956 162.214 212.956 162.214 212.956 162.214C212.956 162.214 212.956 162.214 212.956 162.214C212.956 162.214 212.956 162.214 212.956 162.214C212.956 162.214 212.956 162.213 212.956 162.213C212.956 162.213 212.956 162.213 212.956 162.213C212.956 162.213 212.956 162.213 212.956 162.213C212.956 162.213 212.956 162.213 212.956 162.213C212.956 162.213 212.956 162.213 212.956 162.212C212.956 162.212 212.956 162.212 212.956 162.212C212.956 162.212 212.956 162.212 212.956 162.212C212.956 162.212 212.956 162.212 212.956 162.212C212.956 162.212 212.956 162.212 212.956 162.212C212.956 162.211 212.956 162.211 212.956 162.211C212.956 162.211 212.956 162.211 212.956 162.211C212.956 162.211 212.956 162.211 212.956 162.211C212.956 162.211 212.956 162.211 212.956 162.211C212.956 162.211 212.956 162.21 212.956 162.21C212.956 162.21 212.956 162.21 212.956 162.21C212.956 162.21 212.956 162.21 212.956 162.21C212.956 162.21 212.956 162.21 212.956 162.21C212.956 162.21 212.956 162.209 212.956 162.209C212.956 162.209 212.956 162.209 212.956 162.209C212.956 162.209 212.956 162.209 212.956 162.209C212.956 162.209 212.956 162.209 212.956 162.209C212.956 162.209 212.956 162.209 212.956 162.208C212.956 162.208 212.956 162.208 212.956 162.208C212.956 162.208 212.956 162.208 212.956 162.208C212.956 162.208 212.956 162.208 212.956 162.208C212.956 162.208 212.956 162.208 212.956 162.208C212.956 162.207 212.956 162.207 212.956 162.207C212.956 162.207 212.956 162.207 212.956 162.207C212.956 162.207 212.956 162.207 212.956 162.207C212.956 162.207 212.956 162.207 212.956 162.207C212.956 162.206 212.956 162.206 212.956 162.206C212.956 162.206 212.956 162.206 212.956 162.206C212.956 162.206 212.956 162.206 212.956 162.206C212.956 162.206 212.956 162.206 212.956 162.206C212.956 162.206 212.956 162.205 212.956 162.205C212.956 162.205 212.956 162.205 212.956 162.205C212.956 162.205 212.956 162.205 212.956 162.205C212.956 162.205 212.956 162.205 212.956 162.205C212.956 162.205 212.956 162.205 212.956 162.204C212.956 162.204 212.956 162.204 212.956 162.204C212.956 162.204 212.956 162.204 212.956 162.204C212.956 162.204 212.956 162.204 212.956 162.204C212.956 162.204 212.956 162.204 212.956 162.203C212.956 162.203 212.956 162.203 212.956 162.203C212.956 162.203 212.956 162.203 212.956 162.203C212.956 162.203 212.956 162.203 212.956 162.203C212.956 162.203 212.956 162.203 212.956 162.202C212.956 162.202 212.956 162.202 212.956 162.202C212.956 162.202 212.956 162.202 212.956 162.202C212.956 162.202 212.956 162.202 212.956 162.202C212.956 162.202 212.956 162.202 212.956 162.202C212.956 162.201 212.956 162.201 212.956 162.201C212.956 162.201 212.956 162.201 212.956 162.201C212.956 162.201 212.956 162.201 212.956 162.201C212.956 162.201 212.956 162.201 212.956 162.201C212.956 162.2 212.956 162.2 212.956 162.2C212.956 162.2 212.956 162.2 212.956 162.2C212.956 162.2 212.956 162.2 212.956 162.2C212.956 162.2 212.956 162.2 212.956 162.2C212.956 162.2 212.956 162.199 212.956 162.199C212.956 162.199 212.956 162.199 212.956 162.199C212.956 162.199 212.956 162.199 212.956 162.199C212.956 162.199 212.956 162.199 212.956 162.199C212.956 162.199 212.956 162.198 212.956 162.198C212.956 162.198 212.956 162.198 212.956 162.198C212.956 162.198 212.956 162.198 212.956 162.198C212.956 162.198 212.956 162.198 212.956 162.198C212.956 162.198 212.956 162.197 212.956 162.197C212.956 162.197 212.956 162.197 212.956 162.197C212.956 162.197 212.956 162.197 212.956 162.197C212.956 162.197 212.956 162.197 212.956 162.197C212.956 162.197 212.956 162.197 212.956 162.196C212.956 162.196 212.956 162.196 212.956 162.196C212.956 162.196 212.956 162.196 212.956 162.196C212.956 162.196 212.956 162.196 212.956 162.196C212.956 162.196 212.956 162.196 212.956 162.195C212.956 162.195 212.956 162.195 212.956 162.195C212.956 162.195 212.956 162.195 212.956 162.195C212.956 162.195 212.956 162.195 212.956 162.195C212.956 162.195 212.956 162.195 212.956 162.194C212.956 162.194 212.956 162.194 212.956 162.194C212.956 162.194 212.956 162.194 212.956 162.194C212.956 162.194 212.956 162.194 212.956 162.194C212.956 162.194 212.956 162.194 212.956 162.193C212.956 162.193 212.956 162.193 212.956 162.193C212.956 162.193 212.956 162.193 212.956 162.193C212.956 162.193 212.956 162.193 212.956 162.193C212.956 162.193 212.956 162.193 212.956 162.193C212.956 162.192 212.956 162.192 212.956 162.192C212.956 162.192 212.956 162.192 212.956 162.192C212.956 162.192 212.956 162.192 212.956 162.192C212.956 162.192 212.956 162.192 212.956 162.192C212.956 162.191 212.956 162.191 212.956 162.191C212.956 162.191 212.956 162.191 212.956 162.191C212.956 162.191 212.956 162.191 212.956 162.191C212.956 162.191 212.956 162.191 212.956 162.191C212.956 162.19 212.956 162.19 212.956 162.19C212.956 162.19 212.956 162.19 212.956 162.19C212.956 162.19 212.956 162.19 212.956 162.19C212.956 162.19 212.956 162.19 212.956 162.19C212.956 162.189 212.956 162.189 212.956 162.189C212.956 162.189 212.956 162.189 212.956 162.189C212.956 162.189 212.956 162.189 212.956 162.189C212.956 162.189 212.956 162.189 212.956 162.189C212.956 162.188 212.956 162.188 212.956 162.188C212.956 162.188 212.956 162.188 212.956 162.188C212.956 162.188 212.956 162.188 212.956 162.188C212.956 162.188 212.956 162.188 212.956 162.188C212.956 162.187 212.956 162.187 212.956 162.187C212.956 162.187 212.956 162.187 212.956 162.187C212.956 162.187 212.956 162.187 212.956 162.187C212.956 162.187 212.956 162.187 212.956 162.187C212.956 162.186 212.956 162.186 212.956 162.186C212.956 162.186 212.956 162.186 212.956 162.186C212.956 162.186 212.956 162.186 212.956 162.186C212.956 162.186 212.956 162.186 212.956 162.186C212.956 162.185 212.956 162.185 212.956 162.185C212.956 162.185 212.956 162.185 212.956 162.185C212.956 162.185 212.956 162.185 212.956 162.185C212.956 162.185 212.956 162.185 212.956 162.185C212.956 162.185 212.956 162.184 212.956 162.184C212.956 162.184 212.956 162.184 212.956 162.184C212.956 162.184 212.956 162.184 212.956 162.184C212.956 162.184 212.956 162.184 212.956 162.184C212.956 162.184 212.956 162.183 212.956 162.183C212.956 162.183 212.956 162.183 212.956 162.183C212.956 162.183 212.956 162.183 212.956 162.183C212.956 162.183 212.956 162.183 212.956 162.183C212.956 162.183 212.956 162.182 212.956 162.182C212.956 162.182 212.956 162.182 212.956 162.182C212.956 162.182 212.956 162.182 212.956 162.182C212.956 162.182 212.956 162.182 212.956 162.182C212.956 162.182 212.956 162.181 212.956 162.181C212.956 162.181 212.956 162.181 212.956 162.181C212.956 162.181 212.956 162.181 212.956 162.181C212.956 162.181 212.956 162.181 212.956 162.181H208.956C208.956 162.181 208.956 162.181 208.956 162.181C208.956 162.181 208.956 162.181 208.956 162.181C208.956 162.181 208.956 162.181 208.956 162.181C208.956 162.181 208.956 162.182 208.956 162.182C208.956 162.182 208.956 162.182 208.956 162.182C208.956 162.182 208.956 162.182 208.956 162.182C208.956 162.182 208.956 162.182 208.956 162.182C208.956 162.182 208.956 162.183 208.956 162.183C208.956 162.183 208.956 162.183 208.956 162.183C208.956 162.183 208.956 162.183 208.956 162.183C208.956 162.183 208.956 162.183 208.956 162.183C208.956 162.183 208.956 162.184 208.956 162.184C208.956 162.184 208.956 162.184 208.956 162.184C208.956 162.184 208.956 162.184 208.956 162.184C208.956 162.184 208.956 162.184 208.956 162.184C208.956 162.184 208.956 162.185 208.956 162.185C208.956 162.185 208.956 162.185 208.956 162.185C208.956 162.185 208.956 162.185 208.956 162.185C208.956 162.185 208.956 162.185 208.956 162.185C208.956 162.185 208.956 162.185 208.956 162.186C208.956 162.186 208.956 162.186 208.956 162.186C208.956 162.186 208.956 162.186 208.956 162.186C208.956 162.186 208.956 162.186 208.956 162.186C208.956 162.186 208.956 162.186 208.956 162.187C208.956 162.187 208.956 162.187 208.956 162.187C208.956 162.187 208.956 162.187 208.956 162.187C208.956 162.187 208.956 162.187 208.956 162.187C208.956 162.187 208.956 162.187 208.956 162.188C208.956 162.188 208.956 162.188 208.956 162.188C208.956 162.188 208.956 162.188 208.956 162.188C208.956 162.188 208.956 162.188 208.956 162.188C208.956 162.188 208.956 162.188 208.956 162.189C208.956 162.189 208.956 162.189 208.956 162.189C208.956 162.189 208.956 162.189 208.956 162.189C208.956 162.189 208.956 162.189 208.956 162.189C208.956 162.189 208.956 162.189 208.956 162.19C208.956 162.19 208.956 162.19 208.956 162.19C208.956 162.19 208.956 162.19 208.956 162.19C208.956 162.19 208.956 162.19 208.956 162.19C208.956 162.19 208.956 162.19 208.956 162.191C208.956 162.191 208.956 162.191 208.956 162.191C208.956 162.191 208.956 162.191 208.956 162.191C208.956 162.191 208.956 162.191 208.956 162.191C208.956 162.191 208.956 162.191 208.956 162.192C208.956 162.192 208.956 162.192 208.956 162.192C208.956 162.192 208.956 162.192 208.956 162.192C208.956 162.192 208.956 162.192 208.956 162.192C208.956 162.192 208.956 162.192 208.956 162.193C208.956 162.193 208.956 162.193 208.956 162.193C208.956 162.193 208.956 162.193 208.956 162.193C208.956 162.193 208.956 162.193 208.956 162.193C208.956 162.193 208.956 162.193 208.956 162.193C208.956 162.194 208.956 162.194 208.956 162.194C208.956 162.194 208.956 162.194 208.956 162.194C208.956 162.194 208.956 162.194 208.956 162.194C208.956 162.194 208.956 162.194 208.956 162.194C208.956 162.195 208.956 162.195 208.956 162.195C208.956 162.195 208.956 162.195 208.956 162.195C208.956 162.195 208.956 162.195 208.956 162.195C208.956 162.195 208.956 162.195 208.956 162.195C208.956 162.196 208.956 162.196 208.956 162.196C208.956 162.196 208.956 162.196 208.956 162.196C208.956 162.196 208.956 162.196 208.956 162.196C208.956 162.196 208.956 162.196 208.956 162.196C208.956 162.197 208.956 162.197 208.956 162.197C208.956 162.197 208.956 162.197 208.956 162.197C208.956 162.197 208.956 162.197 208.956 162.197C208.956 162.197 208.956 162.197 208.956 162.197C208.956 162.197 208.956 162.198 208.956 162.198C208.956 162.198 208.956 162.198 208.956 162.198C208.956 162.198 208.956 162.198 208.956 162.198C208.956 162.198 208.956 162.198 208.956 162.198C208.956 162.198 208.956 162.199 208.956 162.199C208.956 162.199 208.956 162.199 208.956 162.199C208.956 162.199 208.956 162.199 208.956 162.199C208.956 162.199 208.956 162.199 208.956 162.199C208.956 162.199 208.956 162.2 208.956 162.2C208.956 162.2 208.956 162.2 208.956 162.2C208.956 162.2 208.956 162.2 208.956 162.2C208.956 162.2 208.956 162.2 208.956 162.2C208.956 162.2 208.956 162.2 208.956 162.201C208.956 162.201 208.956 162.201 208.956 162.201C208.956 162.201 208.956 162.201 208.956 162.201C208.956 162.201 208.956 162.201 208.956 162.201C208.956 162.201 208.956 162.201 208.956 162.202C208.956 162.202 208.956 162.202 208.956 162.202C208.956 162.202 208.956 162.202 208.956 162.202C208.956 162.202 208.956 162.202 208.956 162.202C208.956 162.202 208.956 162.202 208.956 162.202C208.956 162.203 208.956 162.203 208.956 162.203C208.956 162.203 208.956 162.203 208.956 162.203C208.956 162.203 208.956 162.203 208.956 162.203C208.956 162.203 208.956 162.203 208.956 162.203C208.956 162.204 208.956 162.204 208.956 162.204C208.956 162.204 208.956 162.204 208.956 162.204C208.956 162.204 208.956 162.204 208.956 162.204C208.956 162.204 208.956 162.204 208.956 162.204C208.956 162.205 208.956 162.205 208.956 162.205C208.956 162.205 208.956 162.205 208.956 162.205C208.956 162.205 208.956 162.205 208.956 162.205C208.956 162.205 208.956 162.205 208.956 162.205C208.956 162.205 208.956 162.206 208.956 162.206C208.956 162.206 208.956 162.206 208.956 162.206C208.956 162.206 208.956 162.206 208.956 162.206C208.956 162.206 208.956 162.206 208.956 162.206C208.956 162.206 208.956 162.206 208.956 162.207C208.956 162.207 208.956 162.207 208.956 162.207C208.956 162.207 208.956 162.207 208.956 162.207C208.956 162.207 208.956 162.207 208.956 162.207C208.956 162.207 208.956 162.207 208.956 162.208C208.956 162.208 208.956 162.208 208.956 162.208C208.956 162.208 208.956 162.208 208.956 162.208C208.956 162.208 208.956 162.208 208.956 162.208C208.956 162.208 208.956 162.208 208.956 162.208C208.956 162.209 208.956 162.209 208.956 162.209C208.956 162.209 208.956 162.209 208.956 162.209C208.956 162.209 208.956 162.209 208.956 162.209C208.956 162.209 208.956 162.209 208.956 162.209C208.956 162.209 208.956 162.21 208.956 162.21C208.956 162.21 208.956 162.21 208.956 162.21C208.956 162.21 208.956 162.21 208.956 162.21C208.956 162.21 208.956 162.21 208.956 162.21C208.956 162.21 208.956 162.211 208.956 162.211C208.956 162.211 208.956 162.211 208.956 162.211C208.956 162.211 208.956 162.211 208.956 162.211C208.956 162.211 208.956 162.211 208.956 162.211C208.956 162.211 208.956 162.211 208.956 162.212C208.956 162.212 208.956 162.212 208.956 162.212C208.956 162.212 208.956 162.212 208.956 162.212C208.956 162.212 208.956 162.212 208.956 162.212C208.956 162.212 208.956 162.212 208.956 162.212C208.956 162.213 208.956 162.213 208.956 162.213C208.956 162.213 208.956 162.213 208.956 162.213C208.956 162.213 208.956 162.213 208.956 162.213C208.956 162.213 208.956 162.213 208.956 162.213C208.956 162.213 208.956 162.214 208.956 162.214C208.956 162.214 208.956 162.214 208.956 162.214C208.956 162.214 208.956 162.214 208.956 162.214C208.956 162.214 208.956 162.214 208.956 162.214C208.956 162.214 208.956 162.214 208.956 162.215C208.956 162.215 208.956 162.215 208.956 162.215C208.956 162.215 208.956 162.215 208.956 162.215C208.956 162.215 208.956 162.215 208.956 162.215C208.956 162.215 208.956 162.215 208.956 162.215C208.956 162.216 208.956 162.216 208.956 162.216C208.956 162.216 208.956 162.216 208.956 162.216C208.956 162.216 208.956 162.216 208.956 162.216C208.956 162.216 208.956 162.216 208.956 162.216C208.956 162.216 208.956 162.217 208.956 162.217C208.956 162.217 208.956 162.217 208.956 162.217C208.956 162.217 208.956 162.217 208.956 162.217C208.956 162.217 208.956 162.217 208.956 162.217C208.956 162.217 208.956 162.217 208.956 162.217C208.956 162.218 208.956 162.218 208.956 162.218C208.956 162.218 208.956 162.218 208.956 162.218C208.956 162.218 208.956 162.218 208.956 162.218C208.956 162.218 208.956 162.218 208.956 162.218C208.956 162.218 208.956 162.219 208.956 162.219C208.956 162.219 208.956 162.219 208.956 162.219C208.956 162.219 208.956 162.219 208.956 162.219C208.956 162.219 208.956 162.219 208.956 162.219C208.956 162.219 208.956 162.219 208.956 162.22C208.956 162.22 208.956 162.22 208.956 162.22C208.956 162.22 208.956 162.22 208.956 162.22C208.956 162.22 208.956 162.22 208.956 162.22C208.956 162.22 208.956 162.22 208.956 162.22C208.956 162.22 208.956 162.221 208.956 162.221C208.956 162.221 208.956 162.221 208.956 162.221C208.956 162.221 208.956 162.221 208.956 162.221C208.956 162.221 208.956 162.221 208.956 162.221C208.956 162.221 208.956 162.221 208.956 162.222C208.956 162.222 208.956 162.222 208.956 162.222C208.956 162.222 208.956 162.222 208.956 162.222C208.956 162.222 208.956 162.222 208.956 162.222C208.956 162.222 208.956 162.222 208.956 162.222C208.956 162.222 208.956 162.223 208.956 162.223C208.956 162.223 208.956 162.223 208.956 162.223C208.956 162.223 208.956 162.223 208.956 162.223C208.956 162.223 208.956 162.223 208.956 162.223C208.956 162.223 208.956 162.223 208.956 162.223C208.956 162.224 208.956 162.224 208.956 162.224C208.956 162.224 208.956 162.224 208.956 162.224C208.956 162.224 208.956 162.224 208.956 162.224C208.956 162.224 208.956 162.224 208.956 162.224C208.956 162.224 208.956 162.224 208.956 162.225C208.956 162.225 208.956 162.225 208.956 162.225C208.956 162.225 208.956 162.225 208.956 162.225C208.956 162.225 208.956 162.225 208.956 162.225C208.956 162.225 208.956 162.225 208.956 162.225C208.956 162.226 208.956 162.226 208.956 162.226C208.956 162.226 208.956 162.226 208.956 162.226C208.956 162.226 208.956 162.226 208.956 162.226C208.956 162.226 208.956 162.226 208.956 162.226C208.956 162.226 208.956 162.226 208.956 162.227C208.956 162.227 208.956 162.227 208.956 162.227C208.956 162.227 208.956 162.227 208.956 162.227C208.956 162.227 208.956 162.227 208.956 162.227C208.956 162.227 208.956 162.227 208.956 162.227C208.956 162.227 208.956 162.227 208.956 162.228C208.956 162.228 208.956 162.228 208.956 162.228C208.956 162.228 208.956 162.228 208.956 162.228C208.956 162.228 208.956 162.228 208.956 162.228C208.956 162.228 208.956 162.228 208.956 162.228C208.956 162.228 208.956 162.229 208.956 162.229C208.956 162.229 208.956 162.229 208.956 162.229C208.956 162.229 208.956 162.229 208.956 162.229C208.956 162.229 208.956 162.229 208.956 162.229C208.956 162.229 208.956 162.229 208.956 162.229C208.956 162.23 208.956 162.23 208.956 162.23C208.956 162.23 208.956 162.23 208.956 162.23C208.956 162.23 208.956 162.23 208.956 162.23C208.956 162.23 208.956 162.23 208.956 162.23C208.956 162.23 208.956 162.23 208.956 162.23C208.956 162.231 208.956 162.231 208.956 162.231C208.956 162.231 208.956 162.231 208.956 162.231C208.956 162.231 208.956 162.231 208.956 162.231C208.956 162.231 208.956 162.231 208.956 162.231C208.956 162.231 208.956 162.231 208.956 162.231C208.956 162.232 208.956 162.232 208.956 162.232C208.956 162.232 208.956 162.232 208.956 162.232C208.956 162.232 208.956 162.232 208.956 162.232C208.956 162.232 208.956 162.232 208.956 162.232C208.956 162.232 208.956 162.232 208.956 162.233C208.956 162.233 208.956 162.233 208.956 162.233C208.956 162.233 208.956 162.233 208.956 162.233C208.956 162.233 208.956 162.233 208.956 162.233C208.956 162.233 208.956 162.233 208.956 162.233C208.956 162.233 208.956 162.233 208.956 162.234C208.956 162.234 208.956 162.234 208.956 162.234C208.956 162.234 208.956 162.234 208.956 162.234C208.956 162.234 208.956 162.234 208.956 162.234C208.956 162.234 208.956 162.234 208.956 162.234C208.956 162.234 208.956 162.234 208.956 162.235C208.956 162.235 208.956 162.235 208.956 162.235C208.956 162.235 208.956 162.235 208.956 162.235C208.956 162.235 208.956 162.235 208.956 162.235C208.956 162.235 208.956 162.235 208.956 162.235C208.956 162.235 208.956 162.235 208.956 162.235C208.956 162.236 208.956 162.236 208.956 162.236C208.956 162.236 208.956 162.236 208.956 162.236C208.956 162.236 208.956 162.236 208.956 162.236C208.956 162.236 208.956 162.236 208.956 162.236C208.956 162.236 208.956 162.236 208.956 162.236C208.956 162.237 208.956 162.237 208.956 162.237C208.956 162.237 208.956 162.237 208.956 162.237C208.956 162.237 208.956 162.237 208.956 162.237C208.956 162.237 208.956 162.237 208.956 162.237C208.956 162.237 208.956 162.237 208.956 162.237C208.956 162.237 208.956 162.238 208.956 162.238C208.956 162.238 208.956 162.238 208.956 162.238C208.956 162.238 208.956 162.238 208.956 162.238C208.956 162.238 208.956 162.238 208.956 162.238C208.956 162.238 208.956 162.238 208.956 162.238C208.956 162.238 208.956 162.238 208.956 162.239C208.956 162.239 208.956 162.239 208.956 162.239C208.956 162.239 208.956 162.239 208.956 162.239C208.956 162.239 208.956 162.239 208.956 162.239C208.956 162.239 208.956 162.239 208.956 162.239C208.956 162.239 208.956 162.239 208.956 162.239C208.956 162.24 208.956 162.24 208.956 162.24C208.956 162.24 208.956 162.24 208.956 162.24C208.956 162.24 208.956 162.24 208.956 162.24C208.956 162.24 208.956 162.24 208.956 162.24C208.956 162.24 208.956 162.24 208.956 162.24C208.956 162.24 208.956 162.241 208.956 162.241C208.956 162.241 208.956 162.241 208.956 162.241C208.956 162.241 208.956 162.241 208.956 162.241C208.956 162.241 208.956 162.241 208.956 162.241C208.956 162.241 208.956 162.241 208.956 162.241C208.956 162.241 208.956 162.241 208.956 162.241C208.956 162.242 208.956 162.242 208.956 162.242C208.956 162.242 208.956 162.242 208.956 162.242C208.956 162.242 208.956 162.242 208.956 162.242C208.956 162.242 208.956 162.242 208.956 162.242C208.956 162.242 208.956 162.242 208.956 162.242C208.956 162.242 208.956 162.242 208.956 162.243C208.956 162.243 208.956 162.243 208.956 162.243C208.956 162.243 208.956 162.243 208.956 162.243C208.956 162.243 208.956 162.243 208.956 162.243C208.956 162.243 208.956 162.243 208.956 162.243C208.956 162.243 208.956 162.243 208.956 162.243C208.956 162.243 208.956 162.244 208.956 162.244C208.956 162.244 208.956 162.244 208.956 162.244C208.956 162.244 208.956 162.244 208.956 162.244C208.956 162.244 208.956 162.244 208.956 162.244C208.956 162.244 208.956 162.244 208.956 162.244C208.956 162.244 208.956 162.244 208.956 162.244C208.956 162.244 208.956 162.245 208.956 162.245C208.956 162.245 208.956 162.245 208.956 162.245C208.956 162.245 208.956 162.245 208.956 162.245C208.956 162.245 208.956 162.245 208.956 162.245C208.956 162.245 208.956 162.245 208.956 162.245C208.956 162.245 208.956 162.245 208.956 162.245C208.956 162.246 208.956 162.246 208.956 162.246C208.956 162.246 208.956 162.246 208.956 162.246C208.956 162.246 208.956 162.246 208.956 162.246C208.956 162.246 208.956 162.246 208.956 162.246C208.956 162.246 208.956 162.246 208.956 162.246C208.956 162.246 208.956 162.246 208.956 162.246C208.956 162.247 208.956 162.247 208.956 162.247C208.956 162.247 208.956 162.247 208.956 162.247C208.956 162.247 208.956 162.247 208.956 162.247C208.956 162.247 208.956 162.247 208.956 162.247C208.956 162.247 208.956 162.247 208.956 162.247C208.956 162.247 208.956 162.247 208.956 162.247C208.956 162.247 208.956 162.248 208.956 162.248C208.956 162.248 208.956 162.248 208.956 162.248C208.956 162.248 208.956 162.248 208.956 162.248C208.956 162.248 208.956 162.248 208.956 162.248C208.956 162.248 208.956 162.248 208.956 162.248C208.956 162.248 208.956 162.248 208.956 162.248C208.956 162.248 208.956 162.248 208.956 162.249C208.956 162.249 208.956 162.249 208.956 162.249C208.956 162.249 208.956 162.249 208.956 162.249C208.956 162.249 208.956 162.249 208.956 162.249C208.956 162.249 208.956 162.249 208.956 162.249C208.956 162.249 208.956 162.249 208.956 162.249C208.956 162.249 208.956 162.249 208.956 162.249C208.956 162.25 208.956 162.25 208.956 162.25C208.956 162.25 208.956 162.25 208.956 162.25C208.956 162.25 208.956 162.25 208.956 162.25C208.956 162.25 208.956 162.25 208.956 162.25C208.956 162.25 208.956 162.25 208.956 162.25C208.956 162.25 208.956 162.25 208.956 162.25C208.956 162.25 208.956 162.25 208.956 162.251C208.956 162.251 208.956 162.251 208.956 162.251C208.956 162.251 208.956 162.251 208.956 162.251C208.956 162.251 208.956 162.251 208.956 162.251C208.956 162.251 208.956 162.251 208.956 162.251C208.956 162.251 208.956 162.251 208.956 162.251C208.956 162.251 208.956 162.251 208.956 162.251C208.956 162.251 208.956 162.251 208.956 162.252C208.956 162.252 208.956 162.252 208.956 162.252C208.956 162.252 208.956 162.252 208.956 162.252C208.956 162.252 208.956 162.252 208.956 162.252C208.956 162.252 208.956 162.252 208.956 162.252C208.956 162.252 208.956 162.252 208.956 162.252C208.956 162.252 208.956 162.252 208.956 162.252C208.956 162.252 208.956 162.252 208.956 162.253C208.956 162.253 208.956 162.253 208.956 162.253C208.956 162.253 208.956 162.253 208.956 162.253C208.956 162.253 208.956 162.253 208.956 162.253C208.956 162.253 208.956 162.253 208.956 162.253C208.956 162.253 208.956 162.253 208.956 162.253C208.956 162.253 208.956 162.253 208.956 162.253C208.956 162.253 208.956 162.253 208.956 162.253C208.956 162.254 208.956 162.254 208.956 162.254C208.956 162.254 208.956 162.254 208.956 162.254C208.956 162.254 208.956 162.254 208.956 162.254C208.956 162.254 208.956 162.254 208.956 162.254C208.956 162.254 208.956 162.254 208.956 162.254C208.956 162.254 208.956 162.254 208.956 162.254C208.956 162.254 208.956 162.254 208.956 162.254C208.956 162.254 208.956 162.255 208.956 162.255C208.956 162.255 208.956 162.255 208.956 162.255C208.956 162.255 208.956 162.255 208.956 162.255C208.956 162.255 208.956 162.255 208.956 162.255C208.956 162.255 208.956 162.255 208.956 162.255C208.956 162.255 208.956 162.255 208.956 162.255C208.956 162.255 208.956 162.255 208.956 162.255C208.956 162.255 208.956 162.255 208.956 162.255C208.956 162.255 208.956 162.256 208.956 162.256C208.956 162.256 208.956 162.256 208.956 162.256C208.956 162.256 208.956 162.256 208.956 162.256C208.956 162.256 208.956 162.256 208.956 162.256C208.956 162.256 208.956 162.256 208.956 162.256C208.956 162.256 208.956 162.256 208.956 162.256C208.956 162.256 208.956 162.256 208.956 162.256C208.956 162.256 208.956 162.256 208.956 162.256C208.956 162.256 208.956 162.256 208.956 162.257C208.956 162.257 208.956 162.257 208.956 162.257C208.956 162.257 208.956 162.257 208.956 162.257C208.956 162.257 208.956 162.257 208.956 162.257C208.956 162.257 208.956 162.257 208.956 162.257C208.956 162.257 208.956 162.257 208.956 162.257C208.956 162.257 208.956 162.257 208.956 162.257C208.956 162.257 208.956 162.257 208.956 162.257C208.956 162.257 208.956 162.257 208.956 162.257C208.956 162.257 208.956 162.258 208.956 162.258C208.956 162.258 208.956 162.258 208.956 162.258C208.956 162.258 208.956 162.258 208.956 162.258C208.956 162.258 208.956 162.258 208.956 162.258C208.956 162.258 208.956 162.258 208.956 162.258C208.956 162.258 208.956 162.258 208.956 162.258C208.956 162.258 208.956 162.258 208.956 162.258C208.956 162.258 208.956 162.258 208.956 162.258C208.956 162.258 208.956 162.258 208.956 162.258C208.956 162.258 208.956 162.259 208.956 162.259C208.956 162.259 208.956 162.259 208.956 162.259C208.956 162.259 208.956 162.259 208.956 162.259C208.956 162.259 208.956 162.259 208.956 162.259C208.956 162.259 208.956 162.259 208.956 162.259C208.956 162.259 208.956 162.259 208.956 162.259C208.956 162.259 208.956 162.259 208.956 162.259C208.956 162.259 208.956 162.259 208.956 162.259C208.956 162.259 208.956 162.259 208.956 162.259C208.956 162.259 208.956 162.259 208.956 162.259C208.956 162.26 208.956 162.26 208.956 162.26C208.956 162.26 208.956 162.26 208.956 162.26C208.956 162.26 208.956 162.26 208.956 162.26C208.956 162.26 208.956 162.26 208.956 162.26C208.956 162.26 208.956 162.26 208.956 162.26C208.956 162.26 208.956 162.26 208.956 162.26C208.956 162.26 208.956 162.26 208.956 162.26C208.956 162.26 208.956 162.26 208.956 162.26C208.956 162.26 208.956 162.26 208.956 162.26C208.956 162.26 208.956 162.26 208.956 162.26C208.956 162.26 208.956 162.26 208.956 162.261C208.956 162.261 208.956 162.261 208.956 162.261C208.956 162.261 208.956 162.261 208.956 162.261C208.956 162.261 208.956 162.261 208.956 162.261C208.956 162.261 208.956 162.261 208.956 162.261C208.956 162.261 208.956 162.261 208.956 162.261C208.956 162.261 208.956 162.261 208.956 162.261C208.956 162.261 208.956 162.261 208.956 162.261C208.956 162.261 208.956 162.261 208.956 162.261C208.956 162.261 208.956 162.261 208.956 162.261C208.956 162.261 208.956 162.261 208.956 162.261C208.956 162.261 208.956 162.261 208.956 162.261C208.956 162.261 208.956 162.262 208.956 162.262C208.956 162.262 208.956 162.262 208.956 162.262C208.956 162.262 208.956 162.262 208.956 162.262C208.956 162.262 208.956 162.262 208.956 162.262C208.956 162.262 208.956 162.262 208.956 162.262C208.956 162.262 208.956 162.262 208.956 162.262C208.956 162.262 208.956 162.262 208.956 162.262C208.956 162.262 208.956 162.262 208.956 162.262C208.956 162.262 208.956 162.262 208.956 162.262C208.956 162.262 208.956 162.262 208.956 162.262C208.956 162.262 208.956 162.262 208.956 162.262C208.956 162.262 208.956 162.262 208.956 162.262C208.956 162.262 208.956 162.262 208.956 162.262C208.956 162.262 208.956 162.263 208.956 162.263C208.956 162.263 208.956 162.263 208.956 162.263C208.956 162.263 208.956 162.263 208.956 162.263C208.956 162.263 208.956 162.263 208.956 162.263C208.956 162.263 208.956 162.263 208.956 162.263C208.956 162.263 208.956 162.263 208.956 162.263C208.956 162.263 208.956 162.263 208.956 162.263C208.956 162.263 208.956 162.263 208.956 162.263C208.956 162.263 208.956 162.263 208.956 162.263C208.956 162.263 208.956 162.263 208.956 162.263C208.956 162.263 208.956 162.263 208.956 162.263C208.956 162.263 208.956 162.263 208.956 162.263C208.956 162.263 208.956 162.263 208.956 162.263C208.956 162.263 208.956 162.263 208.956 162.263C208.956 162.263 208.956 162.263 208.956 162.263C208.956 162.263 208.956 162.263 208.956 162.264C208.956 162.264 208.956 162.264 208.956 162.264C208.956 162.264 208.956 162.264 208.956 162.264C208.956 162.264 208.956 162.264 208.956 162.264C208.956 162.264 208.956 162.264 208.956 162.264C208.956 162.264 208.956 162.264 208.956 162.264C208.956 162.264 208.956 162.264 208.956 162.264C208.956 162.264 208.956 162.264 208.956 162.264C208.956 162.264 208.956 162.264 208.956 162.264C208.956 162.264 208.956 162.264 208.956 162.264C208.956 162.264 208.956 162.264 208.956 162.264C208.956 162.264 208.956 162.264 208.956 162.264C208.956 162.264 208.956 162.264 208.956 162.264C208.956 162.264 208.956 162.264 208.956 162.264C208.956 162.264 208.956 162.264 208.956 162.264C208.956 162.264 208.956 162.264 208.956 162.264C208.956 162.264 208.956 162.264 208.956 162.264C208.956 162.264 208.956 162.264 208.956 162.264C208.956 162.264 208.956 162.264 208.956 162.264C208.956 162.264 208.956 162.264 208.956 162.264C208.956 162.264 208.956 162.264 208.956 162.264C208.956 162.265 208.956 162.265 208.956 162.265C208.956 162.265 208.956 162.265 208.956 162.265C208.956 162.265 208.956 162.265 208.956 162.265C208.956 162.265 208.956 162.265 208.956 162.265C208.956 162.265 208.956 162.265 208.956 162.265C208.956 162.265 208.956 162.265 208.956 162.265C208.956 162.265 208.956 162.265 208.956 162.265C208.956 162.265 208.956 162.265 208.956 162.265C208.956 162.265 208.956 162.265 208.956 162.265C208.956 162.265 208.956 162.265 208.956 162.265C208.956 162.265 208.956 162.265 208.956 162.265C208.956 162.265 208.956 162.265 208.956 162.265C208.956 162.265 208.956 162.265 208.956 162.265C208.956 162.265 208.956 162.265 208.956 162.265C208.956 162.265 208.956 162.265 208.956 162.265C208.956 162.265 208.956 162.265 208.956 162.265C208.956 162.265 208.956 162.265 208.956 162.265C208.956 162.265 208.956 162.265 208.956 162.265C208.956 162.265 208.956 162.265 208.956 162.265C208.956 162.265 208.956 162.265 208.956 162.265C208.956 162.265 208.956 162.265 208.956 162.265C208.956 162.265 208.956 162.265 208.956 162.265C208.956 162.265 208.956 162.265 208.956 162.265C208.956 162.265 208.956 162.265 208.956 162.265C208.956 162.265 208.956 162.265 208.956 162.265C208.956 162.265 208.956 162.265 208.956 162.265C208.956 162.265 208.956 162.265 208.956 162.265C208.956 162.265 208.956 162.265 208.956 162.265C208.956 162.265 208.956 162.265 208.956 162.265C208.956 162.265 208.956 162.265 208.956 162.265C208.956 162.265 208.956 162.265 208.956 162.265C208.956 162.265 208.956 162.265 208.956 162.265C208.956 162.265 208.956 162.265 208.956 162.265C208.956 162.265 208.956 162.265 208.956 162.265C208.956 162.265 208.956 162.265 208.956 162.265C208.956 162.265 208.956 162.265 208.956 162.265C208.956 162.265 208.956 162.265 208.956 162.265C208.956 162.265 208.956 162.265 208.956 162.265V162.265V162.265V162.265C208.956 162.265 208.956 162.265 208.956 162.265C208.956 162.265 208.956 162.265 210.956 162.265ZM212.956 162.144C212.902 159.208 211.477 156.38 209.269 154.54L206.709 157.613C208.062 158.741 208.925 160.491 208.957 162.217L212.956 162.144ZM209.269 154.54C209.097 154.396 208.929 154.271 208.808 154.18C208.675 154.08 208.588 154.015 208.506 153.947L205.946 157.02C206.118 157.164 206.286 157.289 206.407 157.38C206.54 157.479 206.627 157.545 206.709 157.613L209.269 154.54ZM208.389 153.856C207.474 153.202 207.03 152.803 206.81 152.304L203.149 153.915C203.862 155.536 205.198 156.493 206.064 157.111L208.389 153.856ZM206.814 152.312C206.623 151.874 206.608 151.421 206.867 150.881L203.261 149.15C202.503 150.728 202.488 152.395 203.145 153.907L206.814 152.312ZM206.873 150.869C207.322 149.918 208.388 149.014 209.64 148.686L208.627 144.816C206.319 145.421 204.248 147.06 203.256 149.161L206.873 150.869ZM209.649 148.684C210.686 148.407 211.713 148.372 213.044 148.28L212.769 144.29C211.64 144.367 210.124 144.417 208.618 144.819L209.649 148.684ZM213.035 148.281C214.247 148.202 215.741 148.154 217.186 147.742L216.087 143.895C215.158 144.161 214.194 144.198 212.777 144.289L213.035 148.281ZM217.178 147.744C219.075 147.21 220.917 145.664 221.635 143.837L217.912 142.374C217.697 142.921 216.911 143.664 216.095 143.893L217.178 147.744ZM221.619 143.875C221.939 143.107 222.313 141.636 221.562 140.134L217.984 141.923C217.99 141.935 218.004 141.966 217.999 142.045C217.994 142.135 217.966 142.241 217.927 142.336L221.619 143.875ZM221.521 140.057C220.788 138.738 219.478 137.987 218.646 137.512L216.661 140.985C217.609 141.527 217.91 141.793 218.025 142L221.521 140.057ZM218.634 137.505C218 137.148 217.514 136.831 217.118 136.435L214.29 139.264C215.08 140.054 215.951 140.585 216.673 140.991L218.634 137.505ZM217.118 136.435C216.569 135.886 216.241 135.094 216.123 134.023C216.005 132.941 216.119 131.732 216.319 130.554L212.375 129.885C212.151 131.208 211.969 132.839 212.147 134.459C212.326 136.09 212.889 137.863 214.29 139.264L217.118 136.435ZM216.323 130.529C216.655 128.413 217.072 126.245 217.533 124.063L213.62 123.235C213.149 125.462 212.718 127.703 212.371 129.91L216.323 130.529ZM217.533 124.064C217.827 122.677 218.104 121.724 218.653 120.943L215.382 118.641C214.321 120.149 213.919 121.824 213.62 123.234L217.533 124.064ZM218.656 120.939C218.824 120.699 219.018 120.502 219.263 120.311L216.807 117.153C216.29 117.556 215.805 118.037 215.379 118.645L218.656 120.939ZM218.629 116.822C216.777 116.246 215.024 115.605 213.377 114.781L211.588 118.359C213.501 119.316 215.478 120.031 217.441 120.642L218.629 116.822ZM213.353 114.77C212.086 114.157 210.899 113.482 209.566 112.771L207.684 116.3C208.894 116.946 210.25 117.712 211.611 118.371L213.353 114.77ZM209.594 112.786C206.905 111.297 204.011 109.648 200.79 108.937L199.928 112.843C202.472 113.404 204.834 114.722 207.656 116.285L209.594 112.786ZM200.751 108.929C199.894 108.758 198.955 108.578 197.959 108.442L197.418 112.406C198.287 112.524 199.128 112.684 199.967 112.851L200.751 108.929ZM197.985 108.446C197.114 108.315 196.283 108.196 195.495 108.039L194.711 111.961C195.618 112.143 196.568 112.278 197.392 112.402L197.985 108.446ZM194.491 108.096C193.035 108.564 191.699 109.338 190.574 110.309L193.189 113.336C193.929 112.697 194.797 112.199 195.715 111.904L194.491 108.096ZM190.549 110.331C188.613 112.06 187.439 114.324 186.653 116.537C185.87 118.744 185.421 121.063 185.045 122.964L188.969 123.741C189.355 121.784 189.754 119.759 190.423 117.875C191.089 115.998 191.97 114.425 193.214 113.314L190.549 110.331Z" fill="white" mask="url(#path-4-inside-1_639_318)"/>
</g>
<defs>
<filter id="filter0_d_639_318" x="0" y="0" width="361" height="357" filterUnits="userSpaceOnUse" color-interpolation-filters="sRGB">
<feFlood flood-opacity="0" result="BackgroundImageFix"/>
<feColorMatrix in="SourceAlpha" type="matrix" values="0 0 0 0 0 0 0 0 0 0 0 0 0 0 0 0 0 0 127 0" result="hardAlpha"/>
<feOffset dx="2" dy="2"/>
<feGaussianBlur stdDeviation="2"/>
<feComposite in2="hardAlpha" operator="out"/>
<feColorMatrix type="matrix" values="0 0 0 0 0 0 0 0 0 0 0 0 0 0 0 0 0 0 0.25 0"/>
<feBlend mode="normal" in2="BackgroundImageFix" result="effect1_dropShadow_639_318"/>
<feBlend mode="normal" in="SourceGraphic" in2="effect1_dropShadow_639_318" result="shape"/>
</filter>
<linearGradient id="paint0_linear_639_318" x1="144.488" y1="202.766" x2="213.512" y2="83.2345" gradientUnits="userSpaceOnUse">
<stop stop-color="#0460A9"/>
<stop offset="1" stop-color="#50E2D0"/>
</linearGradient>
</defs>
</svg>
