<svg width="361" height="357" viewBox="0 0 361 357" fill="none" xmlns="http://www.w3.org/2000/svg">
<g filter="url(#filter0_d_639_316)">
<rect x="2" y="2" width="353" height="349" rx="19.0804" fill="white"/>
<path d="M49.14 273V248.738H57.2162L60.1684 259.359C60.6096 260.886 61.5597 264.89 61.5597 264.89H61.6276C61.6276 264.89 62.5777 260.886 62.9849 259.359L65.9711 248.738H74.1151V273H68.6179V260.784C68.6179 259.8 68.7197 255.931 68.7197 255.931H68.6518C68.6518 255.931 67.8035 259.562 67.532 260.445L64.0368 273H59.0825L55.6213 260.479C55.3498 259.596 54.5015 255.931 54.5015 255.931H54.4336C54.4336 255.931 54.5354 259.834 54.5354 260.818V273H49.14ZM83.9892 269.912C86.0592 269.912 87.4844 268.657 87.4844 266.79V264.72C86.7718 265.093 85.7538 265.365 84.634 265.636C82.4962 266.111 81.6139 266.654 81.6139 267.978C81.6139 269.369 82.6319 269.912 83.9892 269.912ZM82.2247 273.441C78.7635 273.441 76.2863 271.575 76.2863 268.148C76.2863 264.313 79.3403 263.159 82.9373 262.684C86.1949 262.277 87.3487 261.938 87.3487 260.75C87.3487 259.63 86.6361 258.884 84.9733 258.884C83.2088 258.884 82.3265 259.664 82.1568 261.123H77.0668C77.2025 257.9 79.6797 255.151 84.9394 255.151C87.5523 255.151 89.3168 255.626 90.5723 256.576C92.0654 257.662 92.778 259.359 92.778 261.53V270.285C92.778 271.677 92.9138 272.457 93.3888 272.762V273H88.0273C87.7559 272.627 87.5862 271.948 87.4505 271.066H87.3826C86.3646 272.525 84.8376 273.441 82.2247 273.441ZM104.554 269.267C106.657 269.267 107.947 267.469 107.947 264.517C107.947 261.53 106.827 259.562 104.452 259.562C102.042 259.562 100.821 261.7 100.821 264.517C100.821 267.333 102.178 269.267 104.554 269.267ZM95.4593 278.735V255.626H100.753V257.73H100.855C102.042 256.169 103.739 255.117 106.114 255.117C110.729 255.117 113.546 259.087 113.546 264.313C113.546 269.946 110.526 273.543 105.979 273.543C103.739 273.543 102.144 272.661 101.058 271.202H100.99V278.735H95.4593ZM124.503 269.267C126.607 269.267 127.896 267.469 127.896 264.517C127.896 261.53 126.776 259.562 124.401 259.562C121.992 259.562 120.77 261.7 120.77 264.517C120.77 267.333 122.127 269.267 124.503 269.267ZM115.409 278.735V255.626H120.702V257.73H120.804C121.992 256.169 123.688 255.117 126.064 255.117C130.679 255.117 133.495 259.087 133.495 264.313C133.495 269.946 130.475 273.543 125.928 273.543C123.688 273.543 122.093 272.661 121.008 271.202H120.94V278.735H115.409ZM142.246 269.912C144.316 269.912 145.741 268.657 145.741 266.79V264.72C145.029 265.093 144.011 265.365 142.891 265.636C140.753 266.111 139.871 266.654 139.871 267.978C139.871 269.369 140.889 269.912 142.246 269.912ZM140.482 273.441C137.02 273.441 134.543 271.575 134.543 268.148C134.543 264.313 137.597 263.159 141.194 262.684C144.452 262.277 145.606 261.938 145.606 260.75C145.606 259.63 144.893 258.884 143.23 258.884C141.466 258.884 140.584 259.664 140.414 261.123H135.324C135.46 257.9 137.937 255.151 143.196 255.151C145.809 255.151 147.574 255.626 148.829 256.576C150.322 257.662 151.035 259.359 151.035 261.53V270.285C151.035 271.677 151.171 272.457 151.646 272.762V273H146.284C146.013 272.627 145.843 271.948 145.707 271.066H145.64C144.622 272.525 143.095 273.441 140.482 273.441ZM165.331 259.461H169.844C172.219 259.461 173.441 258.341 173.441 256.508C173.441 254.744 172.287 253.488 169.98 253.488H165.331V259.461ZM159.325 273V248.738H170.93C175.748 248.738 179.413 251.215 179.413 255.728C179.413 258.544 178.022 260.614 175.206 261.598V261.7C177.309 262.413 178.395 263.736 178.735 266.145C179.244 269.335 178.904 272.389 179.753 272.695V273H173.916C173.271 272.627 173.373 269.776 173 267.367C172.694 265.127 171.541 263.906 168.962 263.906H165.331V273H159.325ZM190.069 273.509C184.334 273.509 180.805 269.539 180.805 264.279C180.805 259.087 184.436 255.117 189.73 255.117C192.207 255.117 194.175 255.931 195.668 257.289C197.738 259.189 198.756 262.209 198.722 265.738H186.234C186.574 268.08 187.863 269.539 190.137 269.539C191.596 269.539 192.546 268.894 193.021 267.808H198.417C198.043 269.369 197.025 270.862 195.498 271.914C194.039 272.932 192.275 273.509 190.069 273.509ZM186.268 262.447H193.123C192.919 260.377 191.63 259.053 189.831 259.053C187.728 259.053 186.642 260.377 186.268 262.447ZM208.616 267.944C211.025 267.944 212.145 266.044 212.145 263.6C212.145 261.259 210.924 259.291 208.616 259.291C206.546 259.291 205.189 260.988 205.189 263.634C205.189 266.247 206.546 267.944 208.616 267.944ZM208.65 279.006C203.865 279.006 200.71 277.038 200.167 273.407H205.528C205.834 274.323 206.75 275.104 208.582 275.104C210.924 275.104 211.908 273.882 211.908 271.778V270.048H211.772C210.754 271.202 209.43 272.05 207.327 272.05C203.424 272.05 199.793 269.132 199.793 263.804C199.793 258.714 202.779 255.117 207.089 255.117C209.397 255.117 210.957 256.033 211.975 257.492H212.043V255.626H217.337V271.303C217.337 273.916 216.421 275.816 215.03 277.072C213.502 278.429 211.229 279.006 208.65 279.006ZM222.775 248.229C224.506 248.229 225.829 249.45 225.829 251.181C225.829 252.911 224.506 254.133 222.775 254.133C221.045 254.133 219.721 252.911 219.721 251.181C219.721 249.45 221.045 248.229 222.775 248.229ZM219.993 273V255.626H225.524V273H219.993ZM236.695 273.543C231.13 273.543 227.397 269.573 227.397 264.347C227.397 259.121 231.13 255.151 236.695 255.151C242.294 255.151 245.959 259.121 245.959 264.347C245.959 269.573 242.294 273.543 236.695 273.543ZM236.661 269.607C239.071 269.607 240.36 267.503 240.36 264.347C240.36 261.191 239.071 259.053 236.661 259.053C234.252 259.053 232.997 261.191 232.997 264.347C232.997 267.503 234.252 269.607 236.661 269.607ZM247.829 273V255.626H253.157V258.001H253.258C254.548 256.135 256.211 255.117 258.62 255.117C262.42 255.117 264.66 257.832 264.66 261.7V273H259.129V262.82C259.129 260.988 258.213 259.732 256.414 259.732C254.582 259.732 253.36 261.259 253.36 263.397V273H247.829ZM274.07 269.912C276.14 269.912 277.565 268.657 277.565 266.79V264.72C276.853 265.093 275.835 265.365 274.715 265.636C272.577 266.111 271.695 266.654 271.695 267.978C271.695 269.369 272.713 269.912 274.07 269.912ZM272.306 273.441C268.844 273.441 266.367 271.575 266.367 268.148C266.367 264.313 269.421 263.159 273.018 262.684C276.276 262.277 277.43 261.938 277.43 260.75C277.43 259.63 276.717 258.884 275.054 258.884C273.29 258.884 272.407 259.664 272.238 261.123H267.148C267.283 257.9 269.761 255.151 275.02 255.151C277.633 255.151 279.398 255.626 280.653 256.576C282.146 257.662 282.859 259.359 282.859 261.53V270.285C282.859 271.677 282.995 272.457 283.47 272.762V273H278.108C277.837 272.627 277.667 271.948 277.531 271.066H277.464C276.446 272.525 274.919 273.441 272.306 273.441ZM285.574 273V248.738H291.173V273H285.574ZM302.341 273.509C296.607 273.509 293.077 269.539 293.077 264.279C293.077 259.087 296.708 255.117 302.002 255.117C304.479 255.117 306.447 255.931 307.94 257.289C310.01 259.189 311.028 262.209 310.994 265.738H298.507C298.846 268.08 300.136 269.539 302.409 269.539C303.868 269.539 304.818 268.894 305.294 267.808H310.689C310.316 269.369 309.298 270.862 307.771 271.914C306.312 272.932 304.547 273.509 302.341 273.509ZM298.541 262.447H305.395C305.192 260.377 303.902 259.053 302.104 259.053C300 259.053 298.914 260.377 298.541 262.447ZM157.215 314.577C150.768 314.577 146.526 311.726 146.39 306.365H152.43C152.702 308.808 154.297 309.826 157.181 309.826C159.149 309.826 161.083 309.114 161.083 307.281C161.083 305.347 159.115 304.94 155.79 304.125C151.582 303.141 147.137 301.852 147.137 296.762C147.137 291.57 151.345 289.296 156.774 289.296C162.034 289.296 166.106 291.672 166.343 296.762H160.473C160.235 294.895 158.81 293.843 156.57 293.843C154.466 293.843 153.075 294.76 153.075 296.117C153.075 297.814 154.942 298.221 158.572 299.035C163.086 300.087 167.158 301.479 167.158 306.67C167.158 311.76 162.814 314.577 157.215 314.577ZM179.617 314.577C173.169 314.577 168.927 311.726 168.792 306.365H174.832C175.103 308.808 176.698 309.826 179.583 309.826C181.551 309.826 183.485 309.114 183.485 307.281C183.485 305.347 181.517 304.94 178.191 304.125C173.984 303.141 169.538 301.852 169.538 296.762C169.538 291.57 173.746 289.296 179.175 289.296C184.435 289.296 188.507 291.672 188.745 296.762H182.874C182.637 294.895 181.211 293.843 178.972 293.843C176.868 293.843 175.477 294.76 175.477 296.117C175.477 297.814 177.343 298.221 180.974 299.035C185.487 300.087 189.559 301.479 189.559 306.67C189.559 311.76 185.216 314.577 179.617 314.577ZM198.022 300.461H202.535C204.91 300.461 206.132 299.341 206.132 297.508C206.132 295.744 204.978 294.488 202.671 294.488H198.022V300.461ZM192.016 314V289.738H203.621C208.439 289.738 212.104 292.215 212.104 296.728C212.104 299.544 210.713 301.614 207.896 302.598V302.7C210 303.413 211.086 304.736 211.426 307.145C211.935 310.335 211.595 313.389 212.444 313.695V314H206.607C205.962 313.627 206.064 310.776 205.691 308.367C205.385 306.127 204.232 304.906 201.653 304.906H198.022V314H192.016Z" fill="#002068"/>
<path d="M179 212C217.108 212 248 181.108 248 143C248 104.892 217.108 74 179 74C140.892 74 110 104.892 110 143C110 181.108 140.892 212 179 212Z" fill="url(#paint0_linear_639_316)"/>
<mask id="path-4-inside-1_639_316" fill="white">
<path d="M172.189 104.907C170.599 105.806 169.279 107.456 168.169 109.946L168.109 110.096C167.839 110.726 167.54 111.355 167 111.865C165.77 113.005 164.06 112.855 162.38 112.705C160.791 112.555 159.291 112.435 158.421 113.425C157.821 114.115 157.761 115.075 157.671 116.125C157.671 116.335 157.641 116.545 157.611 116.784C157.461 118.194 156.801 119.814 155.362 120.054C155.062 120.114 154.792 120.084 154.492 120.054C154.132 120.054 153.832 120.024 153.592 120.144C153.022 120.444 153.202 121.194 153.532 122.393C153.652 122.813 153.772 123.233 153.862 123.623C154.222 125.753 152.452 127.553 150.683 128.302C149.663 128.752 148.583 128.962 147.533 129.172C146.783 129.322 146.033 129.472 145.284 129.712C144.684 129.892 144.354 130.132 144.264 130.432C144.054 131.062 145.014 131.632 145.853 131.992C146.573 132.322 147.383 133.042 147.533 133.821C147.623 134.241 147.503 134.631 147.203 134.931C146.783 135.381 146.183 135.411 145.644 135.411C145.464 135.411 145.284 135.411 145.104 135.411C143.994 135.561 143.334 136.941 143.454 138.051C143.574 139.34 144.384 140.48 145.104 141.5L153.352 153.318C153.352 153.318 153.442 153.588 153.382 153.708C153.322 153.828 153.202 153.948 153.052 153.948C151.642 154.188 150.233 154.128 148.853 154.098C147.623 154.068 146.393 154.008 145.164 154.188C142.764 154.518 140.125 156.107 140.005 158.477C139.855 161.416 143.424 163.216 146.813 163.936C150.563 164.716 154.462 166.006 155.122 169.425C155.272 170.145 155.212 170.865 155.182 171.554C155.152 172.124 155.122 172.694 155.182 173.234C155.272 173.924 155.662 174.644 156.142 175.004C156.442 175.214 156.742 175.304 157.071 175.244C157.551 175.154 157.941 174.764 158.361 174.344C158.871 173.834 159.471 173.264 160.281 173.204C161.901 173.084 162.68 174.884 162.89 176.444C163.13 178.213 163.64 179.143 164.45 179.263C165.26 179.413 165.8 178.723 166.58 177.583C167.27 176.594 168.049 175.484 169.309 175.394C170.989 175.274 171.769 176.924 172.429 178.363C173.029 179.683 173.598 180.913 174.708 181.033C175.668 181.123 176.418 180.313 177.228 179.443C178.128 178.483 179.147 177.403 180.557 177.673C182.147 177.973 182.717 179.773 183.107 181.093C183.467 182.233 183.887 182.892 184.336 182.982C185.116 183.132 186.256 181.873 187.186 180.853C187.696 180.283 188.176 179.773 188.656 179.383C189.166 178.963 189.765 178.633 190.395 178.243C191.985 177.313 193.455 176.444 193.425 174.704C193.425 174.374 193.365 174.074 193.275 173.714C193.215 173.384 193.125 173.054 193.125 172.694C193.035 170.745 194.625 169.155 196.124 168.495C197.744 167.805 199.574 167.805 201.193 167.805C201.853 167.805 203.083 167.805 203.743 168.645C204.103 169.125 204.193 169.695 204.253 170.235C204.253 170.415 204.283 170.595 204.343 170.775C204.553 171.794 205.303 172.574 206.412 172.964C208.002 173.534 209.952 173.234 211.182 172.214C213.431 170.385 214.211 167.235 214.781 164.176C215.321 161.326 216.011 157.757 218.47 155.567C218.92 155.147 219.46 154.818 220 154.548C219.04 154.218 218.14 153.708 217.42 152.868C216.581 151.908 216.251 150.738 215.921 149.628C215.771 149.089 215.591 148.519 215.381 148.009C215.021 147.199 214.271 146.449 213.581 146.239C213.221 146.119 212.921 146.149 212.621 146.299C212.381 146.449 212.081 146.449 211.841 146.329C197.474 139.82 184.696 124.913 176.778 105.477C176.598 105.057 176.448 104.607 176.268 104.187C174.918 103.797 173.328 104.037 172.189 104.727"/>
</mask>
<path d="M168.169 109.946L166.343 109.131L166.327 109.167L166.313 109.203L168.169 109.946ZM168.109 110.096L169.948 110.884L169.957 110.861L169.966 110.839L168.109 110.096ZM167 111.865L168.359 113.332L168.366 113.326L168.373 113.319L167 111.865ZM162.38 112.705L162.193 114.696L162.203 114.697L162.38 112.705ZM158.421 113.425L156.919 112.105L156.912 112.113L158.421 113.425ZM157.671 116.125L155.679 115.954L155.671 116.039V116.125H157.671ZM157.611 116.784L155.627 116.536L155.625 116.555L155.623 116.573L157.611 116.784ZM155.362 120.054L155.033 118.081L155.001 118.086L154.97 118.093L155.362 120.054ZM154.492 120.054L154.691 118.064L154.592 118.054H154.492V120.054ZM153.592 120.144L152.698 118.355L152.679 118.364L152.661 118.374L153.592 120.144ZM153.532 122.393L151.604 122.924L151.606 122.933L151.609 122.943L153.532 122.393ZM153.862 123.623L155.834 123.29L155.824 123.231L155.811 123.174L153.862 123.623ZM150.683 128.302L149.902 126.461L149.889 126.467L149.875 126.473L150.683 128.302ZM147.533 129.172L147.925 131.133L147.533 129.172ZM145.284 129.712L145.858 131.628L145.876 131.623L145.893 131.617L145.284 129.712ZM144.264 130.432L146.161 131.064L146.171 131.036L146.179 131.007L144.264 130.432ZM145.853 131.992L146.687 130.174L146.664 130.163L146.641 130.153L145.853 131.992ZM147.533 133.821L145.569 134.199L145.573 134.22L145.578 134.24L147.533 133.821ZM147.203 134.931L145.789 133.517L145.765 133.541L145.741 133.567L147.203 134.931ZM145.104 135.411V133.411H144.969L144.836 133.429L145.104 135.411ZM143.454 138.051L145.445 137.865L145.444 137.85L145.442 137.836L143.454 138.051ZM145.104 141.5L146.744 140.355L146.738 140.347L145.104 141.5ZM153.352 153.318L155.249 152.685L155.158 152.411L154.992 152.173L153.352 153.318ZM153.052 153.948V151.948H152.883L152.717 151.976L153.052 153.948ZM148.853 154.098L148.804 156.097L148.809 156.097L148.853 154.098ZM145.164 154.188L145.436 156.169L145.445 156.168L145.453 156.167L145.164 154.188ZM140.005 158.477L142.002 158.579L142.002 158.578L140.005 158.477ZM146.813 163.936L146.398 165.892L146.406 165.894L146.813 163.936ZM155.122 169.425L153.158 169.804L153.161 169.818L153.164 169.833L155.122 169.425ZM155.182 171.554L157.179 171.66L157.18 171.65L157.18 171.641L155.182 171.554ZM155.182 173.234L153.194 173.455L153.196 173.474L153.199 173.493L155.182 173.234ZM156.142 175.004L154.942 176.604L154.968 176.624L154.995 176.642L156.142 175.004ZM157.071 175.244L157.429 177.212L157.44 177.21L157.071 175.244ZM158.361 174.344L156.947 172.93L158.361 174.344ZM160.281 173.204L160.429 175.199L160.281 173.204ZM162.89 176.444L160.908 176.71L160.909 176.712L162.89 176.444ZM164.45 179.263L164.814 177.297L164.779 177.29L164.743 177.285L164.45 179.263ZM166.58 177.583L164.939 176.44L164.934 176.447L164.929 176.454L166.58 177.583ZM169.309 175.394L169.167 173.399L169.309 175.394ZM172.429 178.363L174.249 177.536L174.247 177.53L172.429 178.363ZM174.708 181.033L174.493 183.021L174.507 183.023L174.522 183.024L174.708 181.033ZM177.228 179.443L175.769 178.075L175.764 178.08L177.228 179.443ZM180.557 177.673L180.181 179.638L180.186 179.639L180.557 177.673ZM183.107 181.093L181.189 181.659L181.194 181.677L181.2 181.695L183.107 181.093ZM184.336 182.982L183.944 184.944L183.952 184.945L183.959 184.946L184.336 182.982ZM187.186 180.853L188.664 182.2L188.67 182.193L188.676 182.186L187.186 180.853ZM188.656 179.383L189.917 180.935L189.927 180.927L188.656 179.383ZM190.395 178.243L189.386 176.517L189.364 176.53L189.343 176.543L190.395 178.243ZM193.425 174.704H191.425V174.721L191.425 174.738L193.425 174.704ZM193.275 173.714L191.307 174.072L191.319 174.136L191.335 174.199L193.275 173.714ZM193.125 172.694H195.125V172.648L195.123 172.602L193.125 172.694ZM196.124 168.495L195.341 166.655L195.33 166.66L195.319 166.664L196.124 168.495ZM203.743 168.645L205.343 167.445L205.329 167.427L205.316 167.409L203.743 168.645ZM204.253 170.235H206.253V170.124L206.241 170.014L204.253 170.235ZM204.343 170.775L206.302 170.371L206.278 170.255L206.24 170.142L204.343 170.775ZM206.412 172.964L207.087 171.082L207.075 171.077L206.412 172.964ZM211.182 172.214L209.92 170.663L209.912 170.669L209.905 170.675L211.182 172.214ZM214.781 164.176L212.816 163.804L212.815 163.81L214.781 164.176ZM218.47 155.567L219.8 157.061L219.818 157.046L219.835 157.03L218.47 155.567ZM220 154.548L220.894 156.336L225.157 154.205L220.65 152.656L220 154.548ZM217.42 152.868L218.939 151.566L218.932 151.559L218.926 151.551L217.42 152.868ZM215.921 149.628L213.994 150.164L213.999 150.181L214.004 150.198L215.921 149.628ZM215.381 148.009L217.23 147.247L217.22 147.222L217.208 147.197L215.381 148.009ZM213.581 146.239L212.949 148.136L212.974 148.145L212.999 148.152L213.581 146.239ZM212.621 146.299L211.727 144.51L211.642 144.553L211.561 144.603L212.621 146.299ZM211.841 146.329L212.736 144.54L212.702 144.523L212.667 144.507L211.841 146.329ZM176.778 105.477L178.63 104.722L178.623 104.705L178.616 104.689L176.778 105.477ZM176.268 104.187L178.106 103.399L177.733 102.528L176.823 102.265L176.268 104.187ZM171.204 103.166C169.101 104.356 167.547 106.431 166.343 109.131L169.996 110.76C171.012 108.482 172.097 107.256 173.174 106.647L171.204 103.166ZM166.313 109.203L166.253 109.353L169.966 110.839L170.026 110.689L166.313 109.203ZM166.271 109.308C166.009 109.919 165.842 110.208 165.626 110.411L168.373 113.319C169.237 112.503 169.67 111.532 169.948 110.884L166.271 109.308ZM165.64 110.398C165.431 110.593 165.148 110.726 164.642 110.781C164.083 110.842 163.44 110.792 162.558 110.713L162.203 114.697C163.001 114.769 164.052 114.869 165.076 114.757C166.152 114.64 167.339 114.278 168.359 113.332L165.64 110.398ZM162.568 110.714C161.814 110.643 160.833 110.548 159.912 110.65C158.944 110.756 157.801 111.102 156.919 112.105L159.924 114.745C159.931 114.737 159.94 114.726 159.983 114.707C160.038 114.683 160.149 114.648 160.349 114.626C160.793 114.577 161.358 114.618 162.193 114.696L162.568 110.714ZM156.912 112.113C156.32 112.794 156.047 113.554 155.902 114.208C155.766 114.825 155.719 115.483 155.679 115.954L159.664 116.295C159.714 115.716 159.742 115.37 159.808 115.072C159.866 114.81 159.923 114.746 159.93 114.737L156.912 112.113ZM155.671 116.125C155.671 116.178 155.665 116.235 155.627 116.536L159.596 117.033C159.618 116.854 159.671 116.491 159.671 116.125H155.671ZM155.623 116.573C155.568 117.084 155.427 117.541 155.252 117.835C155.169 117.973 155.103 118.037 155.071 118.062C155.049 118.079 155.043 118.079 155.033 118.081L155.691 122.027C157.158 121.782 158.124 120.831 158.689 119.881C159.241 118.953 159.504 117.895 159.6 116.996L155.623 116.573ZM154.97 118.093C155.001 118.086 155.013 118.089 154.979 118.088C154.96 118.088 154.93 118.086 154.88 118.082C154.828 118.078 154.774 118.072 154.691 118.064L154.293 122.044C154.538 122.068 155.111 122.144 155.754 122.015L154.97 118.093ZM154.492 118.054C154.446 118.054 154.107 118.046 153.897 118.056C153.628 118.07 153.175 118.116 152.698 118.355L154.487 121.933C154.365 121.993 154.26 122.023 154.191 122.037C154.126 122.051 154.088 122.052 154.097 122.051C154.1 122.051 154.11 122.051 154.13 122.051C154.15 122.05 154.176 122.051 154.21 122.051C154.228 122.051 154.246 122.051 154.267 122.052C154.286 122.052 154.31 122.052 154.333 122.053C154.379 122.053 154.434 122.054 154.492 122.054V118.054ZM152.661 118.374C152.14 118.648 151.717 119.079 151.467 119.643C151.24 120.157 151.212 120.654 151.226 121.011C151.252 121.664 151.458 122.394 151.604 122.924L155.461 121.863C155.377 121.561 155.317 121.333 155.274 121.143C155.254 121.051 155.241 120.981 155.232 120.928C155.228 120.903 155.226 120.884 155.225 120.87C155.223 120.857 155.223 120.851 155.223 120.851C155.223 120.852 155.223 120.861 155.223 120.878C155.222 120.895 155.22 120.922 155.215 120.956C155.205 121.025 155.182 121.134 155.125 121.263C155.066 121.396 154.979 121.532 154.862 121.655C154.747 121.777 154.626 121.86 154.524 121.914L152.661 118.374ZM151.609 122.943C151.732 123.374 151.837 123.743 151.913 124.073L155.811 123.174C155.707 122.724 155.572 122.253 155.455 121.844L151.609 122.943ZM151.89 123.957C151.956 124.347 151.851 124.782 151.482 125.266C151.098 125.768 150.507 126.205 149.902 126.461L151.463 130.144C152.628 129.65 153.806 128.812 154.66 127.694C155.528 126.558 156.128 125.029 155.834 123.29L151.89 123.957ZM149.875 126.473C149.091 126.818 148.235 126.992 147.141 127.211L147.925 131.133C148.931 130.932 150.234 130.686 151.49 130.132L149.875 126.473ZM147.141 127.211C146.407 127.358 145.548 127.528 144.674 127.807L145.893 131.617C146.519 131.417 147.159 131.287 147.925 131.133L147.141 127.211ZM144.709 127.796C144.023 128.002 142.754 128.506 142.348 129.857L146.179 131.007C146.064 131.392 145.83 131.594 145.742 131.657C145.669 131.709 145.676 131.682 145.858 131.628L144.709 127.796ZM142.366 129.8C141.839 131.383 142.953 132.489 143.383 132.848C143.926 133.302 144.589 133.626 145.066 133.83L146.641 130.153C146.477 130.083 146.324 130.01 146.193 129.937C146.057 129.861 145.98 129.805 145.947 129.778C145.901 129.74 145.999 129.806 146.095 129.999C146.149 130.106 146.207 130.264 146.227 130.463C146.248 130.668 146.224 130.875 146.161 131.064L142.366 129.8ZM145.02 133.81C145.16 133.874 145.339 133.995 145.476 134.135C145.54 134.201 145.575 134.25 145.589 134.274C145.604 134.299 145.584 134.274 145.569 134.199L149.497 133.444C149.322 132.534 148.808 131.822 148.338 131.341C147.853 130.844 147.267 130.44 146.687 130.174L145.02 133.81ZM145.578 134.24C145.556 134.142 145.552 134.001 145.599 133.847C145.645 133.693 145.723 133.583 145.789 133.517L148.617 136.345C149.388 135.575 149.724 134.498 149.489 133.402L145.578 134.24ZM145.741 133.567C145.795 133.509 145.857 133.463 145.916 133.432C145.972 133.402 146.008 133.393 146.009 133.393C146.009 133.393 146.002 133.395 145.986 133.397C145.969 133.4 145.946 133.402 145.914 133.404C145.847 133.409 145.764 133.411 145.644 133.411V137.411C146.117 137.411 147.588 137.45 148.665 136.296L145.741 133.567ZM145.644 133.411C145.643 133.411 145.643 133.411 145.642 133.411C145.642 133.411 145.642 133.411 145.641 133.411C145.641 133.411 145.641 133.411 145.64 133.411C145.64 133.411 145.64 133.411 145.639 133.411C145.639 133.411 145.639 133.411 145.638 133.411C145.638 133.411 145.638 133.411 145.637 133.411C145.637 133.411 145.637 133.411 145.636 133.411C145.636 133.411 145.635 133.411 145.635 133.411C145.635 133.411 145.634 133.411 145.634 133.411C145.634 133.411 145.633 133.411 145.633 133.411C145.633 133.411 145.632 133.411 145.632 133.411C145.632 133.411 145.631 133.411 145.631 133.411C145.631 133.411 145.63 133.411 145.63 133.411C145.629 133.411 145.629 133.411 145.629 133.411C145.628 133.411 145.628 133.411 145.628 133.411C145.627 133.411 145.627 133.411 145.627 133.411C145.626 133.411 145.626 133.411 145.626 133.411C145.625 133.411 145.625 133.411 145.625 133.411C145.624 133.411 145.624 133.411 145.623 133.411C145.623 133.411 145.623 133.411 145.622 133.411C145.622 133.411 145.622 133.411 145.621 133.411C145.621 133.411 145.621 133.411 145.62 133.411C145.62 133.411 145.62 133.411 145.619 133.411C145.619 133.411 145.619 133.411 145.618 133.411C145.618 133.411 145.618 133.411 145.617 133.411C145.617 133.411 145.616 133.411 145.616 133.411C145.616 133.411 145.615 133.411 145.615 133.411C145.615 133.411 145.614 133.411 145.614 133.411C145.614 133.411 145.613 133.411 145.613 133.411C145.613 133.411 145.612 133.411 145.612 133.411C145.612 133.411 145.611 133.411 145.611 133.411C145.61 133.411 145.61 133.411 145.61 133.411C145.609 133.411 145.609 133.411 145.609 133.411C145.608 133.411 145.608 133.411 145.608 133.411C145.607 133.411 145.607 133.411 145.607 133.411C145.606 133.411 145.606 133.411 145.606 133.411C145.605 133.411 145.605 133.411 145.605 133.411C145.604 133.411 145.604 133.411 145.603 133.411C145.603 133.411 145.603 133.411 145.602 133.411C145.602 133.411 145.602 133.411 145.601 133.411C145.601 133.411 145.601 133.411 145.6 133.411C145.6 133.411 145.6 133.411 145.599 133.411C145.599 133.411 145.599 133.411 145.598 133.411C145.598 133.411 145.597 133.411 145.597 133.411C145.597 133.411 145.596 133.411 145.596 133.411C145.596 133.411 145.595 133.411 145.595 133.411C145.595 133.411 145.594 133.411 145.594 133.411C145.594 133.411 145.593 133.411 145.593 133.411C145.593 133.411 145.592 133.411 145.592 133.411C145.592 133.411 145.591 133.411 145.591 133.411C145.59 133.411 145.59 133.411 145.59 133.411C145.589 133.411 145.589 133.411 145.589 133.411C145.588 133.411 145.588 133.411 145.588 133.411C145.587 133.411 145.587 133.411 145.587 133.411C145.586 133.411 145.586 133.411 145.586 133.411C145.585 133.411 145.585 133.411 145.584 133.411C145.584 133.411 145.584 133.411 145.583 133.411C145.583 133.411 145.583 133.411 145.582 133.411C145.582 133.411 145.582 133.411 145.581 133.411C145.581 133.411 145.581 133.411 145.58 133.411C145.58 133.411 145.58 133.411 145.579 133.411C145.579 133.411 145.579 133.411 145.578 133.411C145.578 133.411 145.577 133.411 145.577 133.411C145.577 133.411 145.576 133.411 145.576 133.411C145.576 133.411 145.575 133.411 145.575 133.411C145.575 133.411 145.574 133.411 145.574 133.411C145.574 133.411 145.573 133.411 145.573 133.411C145.573 133.411 145.572 133.411 145.572 133.411C145.571 133.411 145.571 133.411 145.571 133.411C145.57 133.411 145.57 133.411 145.57 133.411C145.569 133.411 145.569 133.411 145.569 133.411C145.568 133.411 145.568 133.411 145.568 133.411C145.567 133.411 145.567 133.411 145.567 133.411C145.566 133.411 145.566 133.411 145.566 133.411C145.565 133.411 145.565 133.411 145.564 133.411C145.564 133.411 145.564 133.411 145.563 133.411C145.563 133.411 145.563 133.411 145.562 133.411C145.562 133.411 145.562 133.411 145.561 133.411C145.561 133.411 145.561 133.411 145.56 133.411C145.56 133.411 145.56 133.411 145.559 133.411C145.559 133.411 145.558 133.411 145.558 133.411C145.558 133.411 145.557 133.411 145.557 133.411C145.557 133.411 145.556 133.411 145.556 133.411C145.556 133.411 145.555 133.411 145.555 133.411C145.555 133.411 145.554 133.411 145.554 133.411C145.554 133.411 145.553 133.411 145.553 133.411C145.552 133.411 145.552 133.411 145.552 133.411C145.551 133.411 145.551 133.411 145.551 133.411C145.55 133.411 145.55 133.411 145.55 133.411C145.549 133.411 145.549 133.411 145.549 133.411C145.548 133.411 145.548 133.411 145.548 133.411C145.547 133.411 145.547 133.411 145.547 133.411C145.546 133.411 145.546 133.411 145.545 133.411C145.545 133.411 145.545 133.411 145.544 133.411C145.544 133.411 145.544 133.411 145.543 133.411C145.543 133.411 145.543 133.411 145.542 133.411C145.542 133.411 145.542 133.411 145.541 133.411C145.541 133.411 145.541 133.411 145.54 133.411C145.54 133.411 145.539 133.411 145.539 133.411C145.539 133.411 145.538 133.411 145.538 133.411C145.538 133.411 145.537 133.411 145.537 133.411C145.537 133.411 145.536 133.411 145.536 133.411C145.536 133.411 145.535 133.411 145.535 133.411C145.535 133.411 145.534 133.411 145.534 133.411C145.534 133.411 145.533 133.411 145.533 133.411C145.532 133.411 145.532 133.411 145.532 133.411C145.531 133.411 145.531 133.411 145.531 133.411C145.53 133.411 145.53 133.411 145.53 133.411C145.529 133.411 145.529 133.411 145.529 133.411C145.528 133.411 145.528 133.411 145.528 133.411C145.527 133.411 145.527 133.411 145.526 133.411C145.526 133.411 145.526 133.411 145.525 133.411C145.525 133.411 145.525 133.411 145.524 133.411C145.524 133.411 145.524 133.411 145.523 133.411C145.523 133.411 145.523 133.411 145.522 133.411C145.522 133.411 145.522 133.411 145.521 133.411C145.521 133.411 145.521 133.411 145.52 133.411C145.52 133.411 145.519 133.411 145.519 133.411C145.519 133.411 145.518 133.411 145.518 133.411C145.518 133.411 145.517 133.411 145.517 133.411C145.517 133.411 145.516 133.411 145.516 133.411C145.516 133.411 145.515 133.411 145.515 133.411C145.515 133.411 145.514 133.411 145.514 133.411C145.513 133.411 145.513 133.411 145.513 133.411C145.512 133.411 145.512 133.411 145.512 133.411C145.511 133.411 145.511 133.411 145.511 133.411C145.51 133.411 145.51 133.411 145.51 133.411C145.509 133.411 145.509 133.411 145.509 133.411C145.508 133.411 145.508 133.411 145.508 133.411C145.507 133.411 145.507 133.411 145.506 133.411C145.506 133.411 145.506 133.411 145.505 133.411C145.505 133.411 145.505 133.411 145.504 133.411C145.504 133.411 145.504 133.411 145.503 133.411C145.503 133.411 145.503 133.411 145.502 133.411C145.502 133.411 145.502 133.411 145.501 133.411C145.501 133.411 145.5 133.411 145.5 133.411C145.5 133.411 145.499 133.411 145.499 133.411C145.499 133.411 145.498 133.411 145.498 133.411C145.498 133.411 145.497 133.411 145.497 133.411C145.497 133.411 145.496 133.411 145.496 133.411C145.496 133.411 145.495 133.411 145.495 133.411C145.494 133.411 145.494 133.411 145.494 133.411C145.493 133.411 145.493 133.411 145.493 133.411C145.492 133.411 145.492 133.411 145.492 133.411C145.491 133.411 145.491 133.411 145.491 133.411C145.49 133.411 145.49 133.411 145.49 133.411C145.489 133.411 145.489 133.411 145.489 133.411C145.488 133.411 145.488 133.411 145.487 133.411C145.487 133.411 145.487 133.411 145.486 133.411C145.486 133.411 145.486 133.411 145.485 133.411C145.485 133.411 145.485 133.411 145.484 133.411C145.484 133.411 145.484 133.411 145.483 133.411C145.483 133.411 145.483 133.411 145.482 133.411C145.482 133.411 145.481 133.411 145.481 133.411C145.481 133.411 145.48 133.411 145.48 133.411C145.48 133.411 145.479 133.411 145.479 133.411C145.479 133.411 145.478 133.411 145.478 133.411C145.478 133.411 145.477 133.411 145.477 133.411C145.477 133.411 145.476 133.411 145.476 133.411C145.476 133.411 145.475 133.411 145.475 133.411C145.474 133.411 145.474 133.411 145.474 133.411C145.473 133.411 145.473 133.411 145.473 133.411C145.472 133.411 145.472 133.411 145.472 133.411C145.471 133.411 145.471 133.411 145.471 133.411C145.47 133.411 145.47 133.411 145.47 133.411C145.469 133.411 145.469 133.411 145.468 133.411C145.468 133.411 145.468 133.411 145.467 133.411C145.467 133.411 145.467 133.411 145.466 133.411C145.466 133.411 145.466 133.411 145.465 133.411C145.465 133.411 145.465 133.411 145.464 133.411C145.464 133.411 145.464 133.411 145.463 133.411C145.463 133.411 145.463 133.411 145.462 133.411C145.462 133.411 145.461 133.411 145.461 133.411C145.461 133.411 145.46 133.411 145.46 133.411C145.46 133.411 145.459 133.411 145.459 133.411C145.459 133.411 145.458 133.411 145.458 133.411C145.458 133.411 145.457 133.411 145.457 133.411C145.457 133.411 145.456 133.411 145.456 133.411C145.455 133.411 145.455 133.411 145.455 133.411C145.454 133.411 145.454 133.411 145.454 133.411C145.453 133.411 145.453 133.411 145.453 133.411C145.452 133.411 145.452 133.411 145.452 133.411C145.451 133.411 145.451 133.411 145.451 133.411C145.45 133.411 145.45 133.411 145.45 133.411C145.449 133.411 145.449 133.411 145.448 133.411C145.448 133.411 145.448 133.411 145.447 133.411C145.447 133.411 145.447 133.411 145.446 133.411C145.446 133.411 145.446 133.411 145.445 133.411C145.445 133.411 145.445 133.411 145.444 133.411C145.444 133.411 145.444 133.411 145.443 133.411C145.443 133.411 145.442 133.411 145.442 133.411C145.442 133.411 145.441 133.411 145.441 133.411C145.441 133.411 145.44 133.411 145.44 133.411C145.44 133.411 145.439 133.411 145.439 133.411C145.439 133.411 145.438 133.411 145.438 133.411C145.438 133.411 145.437 133.411 145.437 133.411C145.437 133.411 145.436 133.411 145.436 133.411C145.435 133.411 145.435 133.411 145.435 133.411C145.434 133.411 145.434 133.411 145.434 133.411C145.433 133.411 145.433 133.411 145.433 133.411C145.432 133.411 145.432 133.411 145.432 133.411C145.431 133.411 145.431 133.411 145.431 133.411C145.43 133.411 145.43 133.411 145.429 133.411C145.429 133.411 145.429 133.411 145.428 133.411C145.428 133.411 145.428 133.411 145.427 133.411C145.427 133.411 145.427 133.411 145.426 133.411C145.426 133.411 145.426 133.411 145.425 133.411C145.425 133.411 145.425 133.411 145.424 133.411C145.424 133.411 145.423 133.411 145.423 133.411C145.423 133.411 145.422 133.411 145.422 133.411C145.422 133.411 145.421 133.411 145.421 133.411C145.421 133.411 145.42 133.411 145.42 133.411C145.42 133.411 145.419 133.411 145.419 133.411C145.419 133.411 145.418 133.411 145.418 133.411C145.418 133.411 145.417 133.411 145.417 133.411C145.416 133.411 145.416 133.411 145.416 133.411C145.415 133.411 145.415 133.411 145.415 133.411C145.414 133.411 145.414 133.411 145.414 133.411C145.413 133.411 145.413 133.411 145.413 133.411C145.412 133.411 145.412 133.411 145.412 133.411C145.411 133.411 145.411 133.411 145.41 133.411C145.41 133.411 145.41 133.411 145.409 133.411C145.409 133.411 145.409 133.411 145.408 133.411C145.408 133.411 145.408 133.411 145.407 133.411C145.407 133.411 145.407 133.411 145.406 133.411C145.406 133.411 145.406 133.411 145.405 133.411C145.405 133.411 145.405 133.411 145.404 133.411C145.404 133.411 145.403 133.411 145.403 133.411C145.403 133.411 145.402 133.411 145.402 133.411C145.402 133.411 145.401 133.411 145.401 133.411C145.401 133.411 145.4 133.411 145.4 133.411C145.4 133.411 145.399 133.411 145.399 133.411C145.399 133.411 145.398 133.411 145.398 133.411C145.397 133.411 145.397 133.411 145.397 133.411C145.396 133.411 145.396 133.411 145.396 133.411C145.395 133.411 145.395 133.411 145.395 133.411C145.394 133.411 145.394 133.411 145.394 133.411C145.393 133.411 145.393 133.411 145.393 133.411C145.392 133.411 145.392 133.411 145.392 133.411C145.391 133.411 145.391 133.411 145.39 133.411C145.39 133.411 145.39 133.411 145.389 133.411C145.389 133.411 145.389 133.411 145.388 133.411C145.388 133.411 145.388 133.411 145.387 133.411C145.387 133.411 145.387 133.411 145.386 133.411C145.386 133.411 145.386 133.411 145.385 133.411C145.385 133.411 145.384 133.411 145.384 133.411C145.384 133.411 145.383 133.411 145.383 133.411C145.383 133.411 145.382 133.411 145.382 133.411C145.382 133.411 145.381 133.411 145.381 133.411C145.381 133.411 145.38 133.411 145.38 133.411C145.38 133.411 145.379 133.411 145.379 133.411C145.379 133.411 145.378 133.411 145.378 133.411C145.377 133.411 145.377 133.411 145.377 133.411C145.376 133.411 145.376 133.411 145.376 133.411C145.375 133.411 145.375 133.411 145.375 133.411C145.374 133.411 145.374 133.411 145.374 133.411C145.373 133.411 145.373 133.411 145.373 133.411C145.372 133.411 145.372 133.411 145.371 133.411C145.371 133.411 145.371 133.411 145.37 133.411C145.37 133.411 145.37 133.411 145.369 133.411C145.369 133.411 145.369 133.411 145.368 133.411C145.368 133.411 145.368 133.411 145.367 133.411C145.367 133.411 145.367 133.411 145.366 133.411C145.366 133.411 145.365 133.411 145.365 133.411C145.365 133.411 145.364 133.411 145.364 133.411C145.364 133.411 145.363 133.411 145.363 133.411C145.363 133.411 145.362 133.411 145.362 133.411C145.362 133.411 145.361 133.411 145.361 133.411C145.361 133.411 145.36 133.411 145.36 133.411C145.36 133.411 145.359 133.411 145.359 133.411C145.358 133.411 145.358 133.411 145.358 133.411C145.357 133.411 145.357 133.411 145.357 133.411C145.356 133.411 145.356 133.411 145.356 133.411C145.355 133.411 145.355 133.411 145.355 133.411C145.354 133.411 145.354 133.411 145.354 133.411C145.353 133.411 145.353 133.411 145.352 133.411C145.352 133.411 145.352 133.411 145.351 133.411C145.351 133.411 145.351 133.411 145.35 133.411C145.35 133.411 145.35 133.411 145.349 133.411C145.349 133.411 145.349 133.411 145.348 133.411C145.348 133.411 145.348 133.411 145.347 133.411C145.347 133.411 145.347 133.411 145.346 133.411C145.346 133.411 145.345 133.411 145.345 133.411C145.345 133.411 145.344 133.411 145.344 133.411C145.344 133.411 145.343 133.411 145.343 133.411C145.343 133.411 145.342 133.411 145.342 133.411C145.342 133.411 145.341 133.411 145.341 133.411C145.341 133.411 145.34 133.411 145.34 133.411C145.339 133.411 145.339 133.411 145.339 133.411C145.338 133.411 145.338 133.411 145.338 133.411C145.337 133.411 145.337 133.411 145.337 133.411C145.336 133.411 145.336 133.411 145.336 133.411C145.335 133.411 145.335 133.411 145.335 133.411C145.334 133.411 145.334 133.411 145.334 133.411C145.333 133.411 145.333 133.411 145.332 133.411C145.332 133.411 145.332 133.411 145.331 133.411C145.331 133.411 145.331 133.411 145.33 133.411C145.33 133.411 145.33 133.411 145.329 133.411C145.329 133.411 145.329 133.411 145.328 133.411C145.328 133.411 145.328 133.411 145.327 133.411C145.327 133.411 145.326 133.411 145.326 133.411C145.326 133.411 145.325 133.411 145.325 133.411C145.325 133.411 145.324 133.411 145.324 133.411C145.324 133.411 145.323 133.411 145.323 133.411C145.323 133.411 145.322 133.411 145.322 133.411C145.322 133.411 145.321 133.411 145.321 133.411C145.321 133.411 145.32 133.411 145.32 133.411C145.319 133.411 145.319 133.411 145.319 133.411C145.318 133.411 145.318 133.411 145.318 133.411C145.317 133.411 145.317 133.411 145.317 133.411C145.316 133.411 145.316 133.411 145.316 133.411C145.315 133.411 145.315 133.411 145.315 133.411C145.314 133.411 145.314 133.411 145.313 133.411C145.313 133.411 145.313 133.411 145.312 133.411C145.312 133.411 145.312 133.411 145.311 133.411C145.311 133.411 145.311 133.411 145.31 133.411C145.31 133.411 145.31 133.411 145.309 133.411C145.309 133.411 145.309 133.411 145.308 133.411C145.308 133.411 145.307 133.411 145.307 133.411C145.307 133.411 145.306 133.411 145.306 133.411C145.306 133.411 145.305 133.411 145.305 133.411C145.305 133.411 145.304 133.411 145.304 133.411C145.304 133.411 145.303 133.411 145.303 133.411C145.303 133.411 145.302 133.411 145.302 133.411C145.302 133.411 145.301 133.411 145.301 133.411C145.3 133.411 145.3 133.411 145.3 133.411C145.299 133.411 145.299 133.411 145.299 133.411C145.298 133.411 145.298 133.411 145.298 133.411C145.297 133.411 145.297 133.411 145.297 133.411C145.296 133.411 145.296 133.411 145.296 133.411C145.295 133.411 145.295 133.411 145.294 133.411C145.294 133.411 145.294 133.411 145.293 133.411C145.293 133.411 145.293 133.411 145.292 133.411C145.292 133.411 145.292 133.411 145.291 133.411C145.291 133.411 145.291 133.411 145.29 133.411C145.29 133.411 145.29 133.411 145.289 133.411C145.289 133.411 145.289 133.411 145.288 133.411C145.288 133.411 145.287 133.411 145.287 133.411C145.287 133.411 145.286 133.411 145.286 133.411C145.286 133.411 145.285 133.411 145.285 133.411C145.285 133.411 145.284 133.411 145.284 133.411C145.284 133.411 145.283 133.411 145.283 133.411C145.283 133.411 145.282 133.411 145.282 133.411C145.281 133.411 145.281 133.411 145.281 133.411C145.28 133.411 145.28 133.411 145.28 133.411C145.279 133.411 145.279 133.411 145.279 133.411C145.278 133.411 145.278 133.411 145.278 133.411C145.277 133.411 145.277 133.411 145.277 133.411C145.276 133.411 145.276 133.411 145.276 133.411C145.275 133.411 145.275 133.411 145.274 133.411C145.274 133.411 145.274 133.411 145.273 133.411C145.273 133.411 145.273 133.411 145.272 133.411C145.272 133.411 145.272 133.411 145.271 133.411C145.271 133.411 145.271 133.411 145.27 133.411C145.27 133.411 145.27 133.411 145.269 133.411C145.269 133.411 145.268 133.411 145.268 133.411C145.268 133.411 145.267 133.411 145.267 133.411C145.267 133.411 145.266 133.411 145.266 133.411C145.266 133.411 145.265 133.411 145.265 133.411C145.265 133.411 145.264 133.411 145.264 133.411C145.264 133.411 145.263 133.411 145.263 133.411C145.263 133.411 145.262 133.411 145.262 133.411C145.261 133.411 145.261 133.411 145.261 133.411C145.26 133.411 145.26 133.411 145.26 133.411C145.259 133.411 145.259 133.411 145.259 133.411C145.258 133.411 145.258 133.411 145.258 133.411C145.257 133.411 145.257 133.411 145.257 133.411C145.256 133.411 145.256 133.411 145.255 133.411C145.255 133.411 145.255 133.411 145.254 133.411C145.254 133.411 145.254 133.411 145.253 133.411C145.253 133.411 145.253 133.411 145.252 133.411C145.252 133.411 145.252 133.411 145.251 133.411C145.251 133.411 145.251 133.411 145.25 133.411C145.25 133.411 145.25 133.411 145.249 133.411C145.249 133.411 145.248 133.411 145.248 133.411C145.248 133.411 145.247 133.411 145.247 133.411C145.247 133.411 145.246 133.411 145.246 133.411C145.246 133.411 145.245 133.411 145.245 133.411C145.245 133.411 145.244 133.411 145.244 133.411C145.244 133.411 145.243 133.411 145.243 133.411C145.242 133.411 145.242 133.411 145.242 133.411C145.241 133.411 145.241 133.411 145.241 133.411C145.24 133.411 145.24 133.411 145.24 133.411C145.239 133.411 145.239 133.411 145.239 133.411C145.238 133.411 145.238 133.411 145.238 133.411C145.237 133.411 145.237 133.411 145.236 133.411C145.236 133.411 145.236 133.411 145.235 133.411C145.235 133.411 145.235 133.411 145.234 133.411C145.234 133.411 145.234 133.411 145.233 133.411C145.233 133.411 145.233 133.411 145.232 133.411C145.232 133.411 145.232 133.411 145.231 133.411C145.231 133.411 145.231 133.411 145.23 133.411C145.23 133.411 145.229 133.411 145.229 133.411C145.229 133.411 145.228 133.411 145.228 133.411C145.228 133.411 145.227 133.411 145.227 133.411C145.227 133.411 145.226 133.411 145.226 133.411C145.226 133.411 145.225 133.411 145.225 133.411C145.225 133.411 145.224 133.411 145.224 133.411C145.223 133.411 145.223 133.411 145.223 133.411C145.222 133.411 145.222 133.411 145.222 133.411C145.221 133.411 145.221 133.411 145.221 133.411C145.22 133.411 145.22 133.411 145.22 133.411C145.219 133.411 145.219 133.411 145.219 133.411C145.218 133.411 145.218 133.411 145.218 133.411C145.217 133.411 145.217 133.411 145.216 133.411C145.216 133.411 145.216 133.411 145.215 133.411C145.215 133.411 145.215 133.411 145.214 133.411C145.214 133.411 145.214 133.411 145.213 133.411C145.213 133.411 145.213 133.411 145.212 133.411C145.212 133.411 145.212 133.411 145.211 133.411C145.211 133.411 145.21 133.411 145.21 133.411C145.21 133.411 145.209 133.411 145.209 133.411C145.209 133.411 145.208 133.411 145.208 133.411C145.208 133.411 145.207 133.411 145.207 133.411C145.207 133.411 145.206 133.411 145.206 133.411C145.206 133.411 145.205 133.411 145.205 133.411C145.205 133.411 145.204 133.411 145.204 133.411C145.203 133.411 145.203 133.411 145.203 133.411C145.202 133.411 145.202 133.411 145.202 133.411C145.201 133.411 145.201 133.411 145.201 133.411C145.2 133.411 145.2 133.411 145.2 133.411C145.199 133.411 145.199 133.411 145.199 133.411C145.198 133.411 145.198 133.411 145.197 133.411C145.197 133.411 145.197 133.411 145.196 133.411C145.196 133.411 145.196 133.411 145.195 133.411C145.195 133.411 145.195 133.411 145.194 133.411C145.194 133.411 145.194 133.411 145.193 133.411C145.193 133.411 145.193 133.411 145.192 133.411C145.192 133.411 145.192 133.411 145.191 133.411C145.191 133.411 145.19 133.411 145.19 133.411C145.19 133.411 145.189 133.411 145.189 133.411C145.189 133.411 145.188 133.411 145.188 133.411C145.188 133.411 145.187 133.411 145.187 133.411C145.187 133.411 145.186 133.411 145.186 133.411C145.186 133.411 145.185 133.411 145.185 133.411C145.184 133.411 145.184 133.411 145.184 133.411C145.183 133.411 145.183 133.411 145.183 133.411C145.182 133.411 145.182 133.411 145.182 133.411C145.181 133.411 145.181 133.411 145.181 133.411C145.18 133.411 145.18 133.411 145.18 133.411C145.179 133.411 145.179 133.411 145.178 133.411C145.178 133.411 145.178 133.411 145.177 133.411C145.177 133.411 145.177 133.411 145.176 133.411C145.176 133.411 145.176 133.411 145.175 133.411C145.175 133.411 145.175 133.411 145.174 133.411C145.174 133.411 145.174 133.411 145.173 133.411C145.173 133.411 145.173 133.411 145.172 133.411C145.172 133.411 145.171 133.411 145.171 133.411C145.171 133.411 145.17 133.411 145.17 133.411C145.17 133.411 145.169 133.411 145.169 133.411C145.169 133.411 145.168 133.411 145.168 133.411C145.168 133.411 145.167 133.411 145.167 133.411C145.167 133.411 145.166 133.411 145.166 133.411C145.165 133.411 145.165 133.411 145.165 133.411C145.164 133.411 145.164 133.411 145.164 133.411C145.163 133.411 145.163 133.411 145.163 133.411C145.162 133.411 145.162 133.411 145.162 133.411C145.161 133.411 145.161 133.411 145.161 133.411C145.16 133.411 145.16 133.411 145.16 133.411C145.159 133.411 145.159 133.411 145.158 133.411C145.158 133.411 145.158 133.411 145.157 133.411C145.157 133.411 145.157 133.411 145.156 133.411C145.156 133.411 145.156 133.411 145.155 133.411C145.155 133.411 145.155 133.411 145.154 133.411C145.154 133.411 145.154 133.411 145.153 133.411C145.153 133.411 145.152 133.411 145.152 133.411C145.152 133.411 145.151 133.411 145.151 133.411C145.151 133.411 145.15 133.411 145.15 133.411C145.15 133.411 145.149 133.411 145.149 133.411C145.149 133.411 145.148 133.411 145.148 133.411C145.148 133.411 145.147 133.411 145.147 133.411C145.147 133.411 145.146 133.411 145.146 133.411C145.145 133.411 145.145 133.411 145.145 133.411C145.144 133.411 145.144 133.411 145.144 133.411C145.143 133.411 145.143 133.411 145.143 133.411C145.142 133.411 145.142 133.411 145.142 133.411C145.141 133.411 145.141 133.411 145.141 133.411C145.14 133.411 145.14 133.411 145.139 133.411C145.139 133.411 145.139 133.411 145.138 133.411C145.138 133.411 145.138 133.411 145.137 133.411C145.137 133.411 145.137 133.411 145.136 133.411C145.136 133.411 145.136 133.411 145.135 133.411C145.135 133.411 145.135 133.411 145.134 133.411C145.134 133.411 145.134 133.411 145.133 133.411C145.133 133.411 145.132 133.411 145.132 133.411C145.132 133.411 145.131 133.411 145.131 133.411C145.131 133.411 145.13 133.411 145.13 133.411C145.13 133.411 145.129 133.411 145.129 133.411C145.129 133.411 145.128 133.411 145.128 133.411C145.128 133.411 145.127 133.411 145.127 133.411C145.126 133.411 145.126 133.411 145.126 133.411C145.125 133.411 145.125 133.411 145.125 133.411C145.124 133.411 145.124 133.411 145.124 133.411C145.123 133.411 145.123 133.411 145.123 133.411C145.122 133.411 145.122 133.411 145.122 133.411C145.121 133.411 145.121 133.411 145.121 133.411C145.12 133.411 145.12 133.411 145.119 133.411C145.119 133.411 145.119 133.411 145.118 133.411C145.118 133.411 145.118 133.411 145.117 133.411C145.117 133.411 145.117 133.411 145.116 133.411C145.116 133.411 145.116 133.411 145.115 133.411C145.115 133.411 145.115 133.411 145.114 133.411C145.114 133.411 145.113 133.411 145.113 133.411C145.113 133.411 145.112 133.411 145.112 133.411C145.112 133.411 145.111 133.411 145.111 133.411C145.111 133.411 145.11 133.411 145.11 133.411C145.11 133.411 145.109 133.411 145.109 133.411C145.109 133.411 145.108 133.411 145.108 133.411C145.107 133.411 145.107 133.411 145.107 133.411C145.106 133.411 145.106 133.411 145.106 133.411C145.105 133.411 145.105 133.411 145.105 133.411C145.104 133.411 145.104 133.411 145.104 133.411V137.411C145.104 137.411 145.104 137.411 145.105 137.411C145.105 137.411 145.105 137.411 145.106 137.411C145.106 137.411 145.106 137.411 145.107 137.411C145.107 137.411 145.107 137.411 145.108 137.411C145.108 137.411 145.109 137.411 145.109 137.411C145.109 137.411 145.11 137.411 145.11 137.411C145.11 137.411 145.111 137.411 145.111 137.411C145.111 137.411 145.112 137.411 145.112 137.411C145.112 137.411 145.113 137.411 145.113 137.411C145.113 137.411 145.114 137.411 145.114 137.411C145.115 137.411 145.115 137.411 145.115 137.411C145.116 137.411 145.116 137.411 145.116 137.411C145.117 137.411 145.117 137.411 145.117 137.411C145.118 137.411 145.118 137.411 145.118 137.411C145.119 137.411 145.119 137.411 145.119 137.411C145.12 137.411 145.12 137.411 145.121 137.411C145.121 137.411 145.121 137.411 145.122 137.411C145.122 137.411 145.122 137.411 145.123 137.411C145.123 137.411 145.123 137.411 145.124 137.411C145.124 137.411 145.124 137.411 145.125 137.411C145.125 137.411 145.125 137.411 145.126 137.411C145.126 137.411 145.126 137.411 145.127 137.411C145.127 137.411 145.128 137.411 145.128 137.411C145.128 137.411 145.129 137.411 145.129 137.411C145.129 137.411 145.13 137.411 145.13 137.411C145.13 137.411 145.131 137.411 145.131 137.411C145.131 137.411 145.132 137.411 145.132 137.411C145.132 137.411 145.133 137.411 145.133 137.411C145.134 137.411 145.134 137.411 145.134 137.411C145.135 137.411 145.135 137.411 145.135 137.411C145.136 137.411 145.136 137.411 145.136 137.411C145.137 137.411 145.137 137.411 145.137 137.411C145.138 137.411 145.138 137.411 145.138 137.411C145.139 137.411 145.139 137.411 145.139 137.411C145.14 137.411 145.14 137.411 145.141 137.411C145.141 137.411 145.141 137.411 145.142 137.411C145.142 137.411 145.142 137.411 145.143 137.411C145.143 137.411 145.143 137.411 145.144 137.411C145.144 137.411 145.144 137.411 145.145 137.411C145.145 137.411 145.145 137.411 145.146 137.411C145.146 137.411 145.147 137.411 145.147 137.411C145.147 137.411 145.148 137.411 145.148 137.411C145.148 137.411 145.149 137.411 145.149 137.411C145.149 137.411 145.15 137.411 145.15 137.411C145.15 137.411 145.151 137.411 145.151 137.411C145.151 137.411 145.152 137.411 145.152 137.411C145.152 137.411 145.153 137.411 145.153 137.411C145.154 137.411 145.154 137.411 145.154 137.411C145.155 137.411 145.155 137.411 145.155 137.411C145.156 137.411 145.156 137.411 145.156 137.411C145.157 137.411 145.157 137.411 145.157 137.411C145.158 137.411 145.158 137.411 145.158 137.411C145.159 137.411 145.159 137.411 145.16 137.411C145.16 137.411 145.16 137.411 145.161 137.411C145.161 137.411 145.161 137.411 145.162 137.411C145.162 137.411 145.162 137.411 145.163 137.411C145.163 137.411 145.163 137.411 145.164 137.411C145.164 137.411 145.164 137.411 145.165 137.411C145.165 137.411 145.165 137.411 145.166 137.411C145.166 137.411 145.167 137.411 145.167 137.411C145.167 137.411 145.168 137.411 145.168 137.411C145.168 137.411 145.169 137.411 145.169 137.411C145.169 137.411 145.17 137.411 145.17 137.411C145.17 137.411 145.171 137.411 145.171 137.411C145.171 137.411 145.172 137.411 145.172 137.411C145.173 137.411 145.173 137.411 145.173 137.411C145.174 137.411 145.174 137.411 145.174 137.411C145.175 137.411 145.175 137.411 145.175 137.411C145.176 137.411 145.176 137.411 145.176 137.411C145.177 137.411 145.177 137.411 145.177 137.411C145.178 137.411 145.178 137.411 145.178 137.411C145.179 137.411 145.179 137.411 145.18 137.411C145.18 137.411 145.18 137.411 145.181 137.411C145.181 137.411 145.181 137.411 145.182 137.411C145.182 137.411 145.182 137.411 145.183 137.411C145.183 137.411 145.183 137.411 145.184 137.411C145.184 137.411 145.184 137.411 145.185 137.411C145.185 137.411 145.186 137.411 145.186 137.411C145.186 137.411 145.187 137.411 145.187 137.411C145.187 137.411 145.188 137.411 145.188 137.411C145.188 137.411 145.189 137.411 145.189 137.411C145.189 137.411 145.19 137.411 145.19 137.411C145.19 137.411 145.191 137.411 145.191 137.411C145.192 137.411 145.192 137.411 145.192 137.411C145.193 137.411 145.193 137.411 145.193 137.411C145.194 137.411 145.194 137.411 145.194 137.411C145.195 137.411 145.195 137.411 145.195 137.411C145.196 137.411 145.196 137.411 145.196 137.411C145.197 137.411 145.197 137.411 145.197 137.411C145.198 137.411 145.198 137.411 145.199 137.411C145.199 137.411 145.199 137.411 145.2 137.411C145.2 137.411 145.2 137.411 145.201 137.411C145.201 137.411 145.201 137.411 145.202 137.411C145.202 137.411 145.202 137.411 145.203 137.411C145.203 137.411 145.203 137.411 145.204 137.411C145.204 137.411 145.205 137.411 145.205 137.411C145.205 137.411 145.206 137.411 145.206 137.411C145.206 137.411 145.207 137.411 145.207 137.411C145.207 137.411 145.208 137.411 145.208 137.411C145.208 137.411 145.209 137.411 145.209 137.411C145.209 137.411 145.21 137.411 145.21 137.411C145.21 137.411 145.211 137.411 145.211 137.411C145.212 137.411 145.212 137.411 145.212 137.411C145.213 137.411 145.213 137.411 145.213 137.411C145.214 137.411 145.214 137.411 145.214 137.411C145.215 137.411 145.215 137.411 145.215 137.411C145.216 137.411 145.216 137.411 145.216 137.411C145.217 137.411 145.217 137.411 145.218 137.411C145.218 137.411 145.218 137.411 145.219 137.411C145.219 137.411 145.219 137.411 145.22 137.411C145.22 137.411 145.22 137.411 145.221 137.411C145.221 137.411 145.221 137.411 145.222 137.411C145.222 137.411 145.222 137.411 145.223 137.411C145.223 137.411 145.223 137.411 145.224 137.411C145.224 137.411 145.225 137.411 145.225 137.411C145.225 137.411 145.226 137.411 145.226 137.411C145.226 137.411 145.227 137.411 145.227 137.411C145.227 137.411 145.228 137.411 145.228 137.411C145.228 137.411 145.229 137.411 145.229 137.411C145.229 137.411 145.23 137.411 145.23 137.411C145.231 137.411 145.231 137.411 145.231 137.411C145.232 137.411 145.232 137.411 145.232 137.411C145.233 137.411 145.233 137.411 145.233 137.411C145.234 137.411 145.234 137.411 145.234 137.411C145.235 137.411 145.235 137.411 145.235 137.411C145.236 137.411 145.236 137.411 145.236 137.411C145.237 137.411 145.237 137.411 145.238 137.411C145.238 137.411 145.238 137.411 145.239 137.411C145.239 137.411 145.239 137.411 145.24 137.411C145.24 137.411 145.24 137.411 145.241 137.411C145.241 137.411 145.241 137.411 145.242 137.411C145.242 137.411 145.242 137.411 145.243 137.411C145.243 137.411 145.244 137.411 145.244 137.411C145.244 137.411 145.245 137.411 145.245 137.411C145.245 137.411 145.246 137.411 145.246 137.411C145.246 137.411 145.247 137.411 145.247 137.411C145.247 137.411 145.248 137.411 145.248 137.411C145.248 137.411 145.249 137.411 145.249 137.411C145.25 137.411 145.25 137.411 145.25 137.411C145.251 137.411 145.251 137.411 145.251 137.411C145.252 137.411 145.252 137.411 145.252 137.411C145.253 137.411 145.253 137.411 145.253 137.411C145.254 137.411 145.254 137.411 145.254 137.411C145.255 137.411 145.255 137.411 145.255 137.411C145.256 137.411 145.256 137.411 145.257 137.411C145.257 137.411 145.257 137.411 145.258 137.411C145.258 137.411 145.258 137.411 145.259 137.411C145.259 137.411 145.259 137.411 145.26 137.411C145.26 137.411 145.26 137.411 145.261 137.411C145.261 137.411 145.261 137.411 145.262 137.411C145.262 137.411 145.263 137.411 145.263 137.411C145.263 137.411 145.264 137.411 145.264 137.411C145.264 137.411 145.265 137.411 145.265 137.411C145.265 137.411 145.266 137.411 145.266 137.411C145.266 137.411 145.267 137.411 145.267 137.411C145.267 137.411 145.268 137.411 145.268 137.411C145.268 137.411 145.269 137.411 145.269 137.411C145.27 137.411 145.27 137.411 145.27 137.411C145.271 137.411 145.271 137.411 145.271 137.411C145.272 137.411 145.272 137.411 145.272 137.411C145.273 137.411 145.273 137.411 145.273 137.411C145.274 137.411 145.274 137.411 145.274 137.411C145.275 137.411 145.275 137.411 145.276 137.411C145.276 137.411 145.276 137.411 145.277 137.411C145.277 137.411 145.277 137.411 145.278 137.411C145.278 137.411 145.278 137.411 145.279 137.411C145.279 137.411 145.279 137.411 145.28 137.411C145.28 137.411 145.28 137.411 145.281 137.411C145.281 137.411 145.281 137.411 145.282 137.411C145.282 137.411 145.283 137.411 145.283 137.411C145.283 137.411 145.284 137.411 145.284 137.411C145.284 137.411 145.285 137.411 145.285 137.411C145.285 137.411 145.286 137.411 145.286 137.411C145.286 137.411 145.287 137.411 145.287 137.411C145.287 137.411 145.288 137.411 145.288 137.411C145.289 137.411 145.289 137.411 145.289 137.411C145.29 137.411 145.29 137.411 145.29 137.411C145.291 137.411 145.291 137.411 145.291 137.411C145.292 137.411 145.292 137.411 145.292 137.411C145.293 137.411 145.293 137.411 145.293 137.411C145.294 137.411 145.294 137.411 145.294 137.411C145.295 137.411 145.295 137.411 145.296 137.411C145.296 137.411 145.296 137.411 145.297 137.411C145.297 137.411 145.297 137.411 145.298 137.411C145.298 137.411 145.298 137.411 145.299 137.411C145.299 137.411 145.299 137.411 145.3 137.411C145.3 137.411 145.3 137.411 145.301 137.411C145.301 137.411 145.302 137.411 145.302 137.411C145.302 137.411 145.303 137.411 145.303 137.411C145.303 137.411 145.304 137.411 145.304 137.411C145.304 137.411 145.305 137.411 145.305 137.411C145.305 137.411 145.306 137.411 145.306 137.411C145.306 137.411 145.307 137.411 145.307 137.411C145.307 137.411 145.308 137.411 145.308 137.411C145.309 137.411 145.309 137.411 145.309 137.411C145.31 137.411 145.31 137.411 145.31 137.411C145.311 137.411 145.311 137.411 145.311 137.411C145.312 137.411 145.312 137.411 145.312 137.411C145.313 137.411 145.313 137.411 145.313 137.411C145.314 137.411 145.314 137.411 145.315 137.411C145.315 137.411 145.315 137.411 145.316 137.411C145.316 137.411 145.316 137.411 145.317 137.411C145.317 137.411 145.317 137.411 145.318 137.411C145.318 137.411 145.318 137.411 145.319 137.411C145.319 137.411 145.319 137.411 145.32 137.411C145.32 137.411 145.321 137.411 145.321 137.411C145.321 137.411 145.322 137.411 145.322 137.411C145.322 137.411 145.323 137.411 145.323 137.411C145.323 137.411 145.324 137.411 145.324 137.411C145.324 137.411 145.325 137.411 145.325 137.411C145.325 137.411 145.326 137.411 145.326 137.411C145.326 137.411 145.327 137.411 145.327 137.411C145.328 137.411 145.328 137.411 145.328 137.411C145.329 137.411 145.329 137.411 145.329 137.411C145.33 137.411 145.33 137.411 145.33 137.411C145.331 137.411 145.331 137.411 145.331 137.411C145.332 137.411 145.332 137.411 145.332 137.411C145.333 137.411 145.333 137.411 145.334 137.411C145.334 137.411 145.334 137.411 145.335 137.411C145.335 137.411 145.335 137.411 145.336 137.411C145.336 137.411 145.336 137.411 145.337 137.411C145.337 137.411 145.337 137.411 145.338 137.411C145.338 137.411 145.338 137.411 145.339 137.411C145.339 137.411 145.339 137.411 145.34 137.411C145.34 137.411 145.341 137.411 145.341 137.411C145.341 137.411 145.342 137.411 145.342 137.411C145.342 137.411 145.343 137.411 145.343 137.411C145.343 137.411 145.344 137.411 145.344 137.411C145.344 137.411 145.345 137.411 145.345 137.411C145.345 137.411 145.346 137.411 145.346 137.411C145.347 137.411 145.347 137.411 145.347 137.411C145.348 137.411 145.348 137.411 145.348 137.411C145.349 137.411 145.349 137.411 145.349 137.411C145.35 137.411 145.35 137.411 145.35 137.411C145.351 137.411 145.351 137.411 145.351 137.411C145.352 137.411 145.352 137.411 145.352 137.411C145.353 137.411 145.353 137.411 145.354 137.411C145.354 137.411 145.354 137.411 145.355 137.411C145.355 137.411 145.355 137.411 145.356 137.411C145.356 137.411 145.356 137.411 145.357 137.411C145.357 137.411 145.357 137.411 145.358 137.411C145.358 137.411 145.358 137.411 145.359 137.411C145.359 137.411 145.36 137.411 145.36 137.411C145.36 137.411 145.361 137.411 145.361 137.411C145.361 137.411 145.362 137.411 145.362 137.411C145.362 137.411 145.363 137.411 145.363 137.411C145.363 137.411 145.364 137.411 145.364 137.411C145.364 137.411 145.365 137.411 145.365 137.411C145.365 137.411 145.366 137.411 145.366 137.411C145.367 137.411 145.367 137.411 145.367 137.411C145.368 137.411 145.368 137.411 145.368 137.411C145.369 137.411 145.369 137.411 145.369 137.411C145.37 137.411 145.37 137.411 145.37 137.411C145.371 137.411 145.371 137.411 145.371 137.411C145.372 137.411 145.372 137.411 145.373 137.411C145.373 137.411 145.373 137.411 145.374 137.411C145.374 137.411 145.374 137.411 145.375 137.411C145.375 137.411 145.375 137.411 145.376 137.411C145.376 137.411 145.376 137.411 145.377 137.411C145.377 137.411 145.377 137.411 145.378 137.411C145.378 137.411 145.379 137.411 145.379 137.411C145.379 137.411 145.38 137.411 145.38 137.411C145.38 137.411 145.381 137.411 145.381 137.411C145.381 137.411 145.382 137.411 145.382 137.411C145.382 137.411 145.383 137.411 145.383 137.411C145.383 137.411 145.384 137.411 145.384 137.411C145.384 137.411 145.385 137.411 145.385 137.411C145.386 137.411 145.386 137.411 145.386 137.411C145.387 137.411 145.387 137.411 145.387 137.411C145.388 137.411 145.388 137.411 145.388 137.411C145.389 137.411 145.389 137.411 145.389 137.411C145.39 137.411 145.39 137.411 145.39 137.411C145.391 137.411 145.391 137.411 145.392 137.411C145.392 137.411 145.392 137.411 145.393 137.411C145.393 137.411 145.393 137.411 145.394 137.411C145.394 137.411 145.394 137.411 145.395 137.411C145.395 137.411 145.395 137.411 145.396 137.411C145.396 137.411 145.396 137.411 145.397 137.411C145.397 137.411 145.397 137.411 145.398 137.411C145.398 137.411 145.399 137.411 145.399 137.411C145.399 137.411 145.4 137.411 145.4 137.411C145.4 137.411 145.401 137.411 145.401 137.411C145.401 137.411 145.402 137.411 145.402 137.411C145.402 137.411 145.403 137.411 145.403 137.411C145.403 137.411 145.404 137.411 145.404 137.411C145.405 137.411 145.405 137.411 145.405 137.411C145.406 137.411 145.406 137.411 145.406 137.411C145.407 137.411 145.407 137.411 145.407 137.411C145.408 137.411 145.408 137.411 145.408 137.411C145.409 137.411 145.409 137.411 145.409 137.411C145.41 137.411 145.41 137.411 145.41 137.411C145.411 137.411 145.411 137.411 145.412 137.411C145.412 137.411 145.412 137.411 145.413 137.411C145.413 137.411 145.413 137.411 145.414 137.411C145.414 137.411 145.414 137.411 145.415 137.411C145.415 137.411 145.415 137.411 145.416 137.411C145.416 137.411 145.416 137.411 145.417 137.411C145.417 137.411 145.418 137.411 145.418 137.411C145.418 137.411 145.419 137.411 145.419 137.411C145.419 137.411 145.42 137.411 145.42 137.411C145.42 137.411 145.421 137.411 145.421 137.411C145.421 137.411 145.422 137.411 145.422 137.411C145.422 137.411 145.423 137.411 145.423 137.411C145.423 137.411 145.424 137.411 145.424 137.411C145.425 137.411 145.425 137.411 145.425 137.411C145.426 137.411 145.426 137.411 145.426 137.411C145.427 137.411 145.427 137.411 145.427 137.411C145.428 137.411 145.428 137.411 145.428 137.411C145.429 137.411 145.429 137.411 145.429 137.411C145.43 137.411 145.43 137.411 145.431 137.411C145.431 137.411 145.431 137.411 145.432 137.411C145.432 137.411 145.432 137.411 145.433 137.411C145.433 137.411 145.433 137.411 145.434 137.411C145.434 137.411 145.434 137.411 145.435 137.411C145.435 137.411 145.435 137.411 145.436 137.411C145.436 137.411 145.437 137.411 145.437 137.411C145.437 137.411 145.438 137.411 145.438 137.411C145.438 137.411 145.439 137.411 145.439 137.411C145.439 137.411 145.44 137.411 145.44 137.411C145.44 137.411 145.441 137.411 145.441 137.411C145.441 137.411 145.442 137.411 145.442 137.411C145.442 137.411 145.443 137.411 145.443 137.411C145.444 137.411 145.444 137.411 145.444 137.411C145.445 137.411 145.445 137.411 145.445 137.411C145.446 137.411 145.446 137.411 145.446 137.411C145.447 137.411 145.447 137.411 145.447 137.411C145.448 137.411 145.448 137.411 145.448 137.411C145.449 137.411 145.449 137.411 145.45 137.411C145.45 137.411 145.45 137.411 145.451 137.411C145.451 137.411 145.451 137.411 145.452 137.411C145.452 137.411 145.452 137.411 145.453 137.411C145.453 137.411 145.453 137.411 145.454 137.411C145.454 137.411 145.454 137.411 145.455 137.411C145.455 137.411 145.455 137.411 145.456 137.411C145.456 137.411 145.457 137.411 145.457 137.411C145.457 137.411 145.458 137.411 145.458 137.411C145.458 137.411 145.459 137.411 145.459 137.411C145.459 137.411 145.46 137.411 145.46 137.411C145.46 137.411 145.461 137.411 145.461 137.411C145.461 137.411 145.462 137.411 145.462 137.411C145.463 137.411 145.463 137.411 145.463 137.411C145.464 137.411 145.464 137.411 145.464 137.411C145.465 137.411 145.465 137.411 145.465 137.411C145.466 137.411 145.466 137.411 145.466 137.411C145.467 137.411 145.467 137.411 145.467 137.411C145.468 137.411 145.468 137.411 145.468 137.411C145.469 137.411 145.469 137.411 145.47 137.411C145.47 137.411 145.47 137.411 145.471 137.411C145.471 137.411 145.471 137.411 145.472 137.411C145.472 137.411 145.472 137.411 145.473 137.411C145.473 137.411 145.473 137.411 145.474 137.411C145.474 137.411 145.474 137.411 145.475 137.411C145.475 137.411 145.476 137.411 145.476 137.411C145.476 137.411 145.477 137.411 145.477 137.411C145.477 137.411 145.478 137.411 145.478 137.411C145.478 137.411 145.479 137.411 145.479 137.411C145.479 137.411 145.48 137.411 145.48 137.411C145.48 137.411 145.481 137.411 145.481 137.411C145.481 137.411 145.482 137.411 145.482 137.411C145.483 137.411 145.483 137.411 145.483 137.411C145.484 137.411 145.484 137.411 145.484 137.411C145.485 137.411 145.485 137.411 145.485 137.411C145.486 137.411 145.486 137.411 145.486 137.411C145.487 137.411 145.487 137.411 145.487 137.411C145.488 137.411 145.488 137.411 145.489 137.411C145.489 137.411 145.489 137.411 145.49 137.411C145.49 137.411 145.49 137.411 145.491 137.411C145.491 137.411 145.491 137.411 145.492 137.411C145.492 137.411 145.492 137.411 145.493 137.411C145.493 137.411 145.493 137.411 145.494 137.411C145.494 137.411 145.494 137.411 145.495 137.411C145.495 137.411 145.496 137.411 145.496 137.411C145.496 137.411 145.497 137.411 145.497 137.411C145.497 137.411 145.498 137.411 145.498 137.411C145.498 137.411 145.499 137.411 145.499 137.411C145.499 137.411 145.5 137.411 145.5 137.411C145.5 137.411 145.501 137.411 145.501 137.411C145.502 137.411 145.502 137.411 145.502 137.411C145.503 137.411 145.503 137.411 145.503 137.411C145.504 137.411 145.504 137.411 145.504 137.411C145.505 137.411 145.505 137.411 145.505 137.411C145.506 137.411 145.506 137.411 145.506 137.411C145.507 137.411 145.507 137.411 145.508 137.411C145.508 137.411 145.508 137.411 145.509 137.411C145.509 137.411 145.509 137.411 145.51 137.411C145.51 137.411 145.51 137.411 145.511 137.411C145.511 137.411 145.511 137.411 145.512 137.411C145.512 137.411 145.512 137.411 145.513 137.411C145.513 137.411 145.513 137.411 145.514 137.411C145.514 137.411 145.515 137.411 145.515 137.411C145.515 137.411 145.516 137.411 145.516 137.411C145.516 137.411 145.517 137.411 145.517 137.411C145.517 137.411 145.518 137.411 145.518 137.411C145.518 137.411 145.519 137.411 145.519 137.411C145.519 137.411 145.52 137.411 145.52 137.411C145.521 137.411 145.521 137.411 145.521 137.411C145.522 137.411 145.522 137.411 145.522 137.411C145.523 137.411 145.523 137.411 145.523 137.411C145.524 137.411 145.524 137.411 145.524 137.411C145.525 137.411 145.525 137.411 145.525 137.411C145.526 137.411 145.526 137.411 145.526 137.411C145.527 137.411 145.527 137.411 145.528 137.411C145.528 137.411 145.528 137.411 145.529 137.411C145.529 137.411 145.529 137.411 145.53 137.411C145.53 137.411 145.53 137.411 145.531 137.411C145.531 137.411 145.531 137.411 145.532 137.411C145.532 137.411 145.532 137.411 145.533 137.411C145.533 137.411 145.534 137.411 145.534 137.411C145.534 137.411 145.535 137.411 145.535 137.411C145.535 137.411 145.536 137.411 145.536 137.411C145.536 137.411 145.537 137.411 145.537 137.411C145.537 137.411 145.538 137.411 145.538 137.411C145.538 137.411 145.539 137.411 145.539 137.411C145.539 137.411 145.54 137.411 145.54 137.411C145.541 137.411 145.541 137.411 145.541 137.411C145.542 137.411 145.542 137.411 145.542 137.411C145.543 137.411 145.543 137.411 145.543 137.411C145.544 137.411 145.544 137.411 145.544 137.411C145.545 137.411 145.545 137.411 145.545 137.411C145.546 137.411 145.546 137.411 145.547 137.411C145.547 137.411 145.547 137.411 145.548 137.411C145.548 137.411 145.548 137.411 145.549 137.411C145.549 137.411 145.549 137.411 145.55 137.411C145.55 137.411 145.55 137.411 145.551 137.411C145.551 137.411 145.551 137.411 145.552 137.411C145.552 137.411 145.552 137.411 145.553 137.411C145.553 137.411 145.554 137.411 145.554 137.411C145.554 137.411 145.555 137.411 145.555 137.411C145.555 137.411 145.556 137.411 145.556 137.411C145.556 137.411 145.557 137.411 145.557 137.411C145.557 137.411 145.558 137.411 145.558 137.411C145.558 137.411 145.559 137.411 145.559 137.411C145.56 137.411 145.56 137.411 145.56 137.411C145.561 137.411 145.561 137.411 145.561 137.411C145.562 137.411 145.562 137.411 145.562 137.411C145.563 137.411 145.563 137.411 145.563 137.411C145.564 137.411 145.564 137.411 145.564 137.411C145.565 137.411 145.565 137.411 145.566 137.411C145.566 137.411 145.566 137.411 145.567 137.411C145.567 137.411 145.567 137.411 145.568 137.411C145.568 137.411 145.568 137.411 145.569 137.411C145.569 137.411 145.569 137.411 145.57 137.411C145.57 137.411 145.57 137.411 145.571 137.411C145.571 137.411 145.571 137.411 145.572 137.411C145.572 137.411 145.573 137.411 145.573 137.411C145.573 137.411 145.574 137.411 145.574 137.411C145.574 137.411 145.575 137.411 145.575 137.411C145.575 137.411 145.576 137.411 145.576 137.411C145.576 137.411 145.577 137.411 145.577 137.411C145.577 137.411 145.578 137.411 145.578 137.411C145.579 137.411 145.579 137.411 145.579 137.411C145.58 137.411 145.58 137.411 145.58 137.411C145.581 137.411 145.581 137.411 145.581 137.411C145.582 137.411 145.582 137.411 145.582 137.411C145.583 137.411 145.583 137.411 145.583 137.411C145.584 137.411 145.584 137.411 145.584 137.411C145.585 137.411 145.585 137.411 145.586 137.411C145.586 137.411 145.586 137.411 145.587 137.411C145.587 137.411 145.587 137.411 145.588 137.411C145.588 137.411 145.588 137.411 145.589 137.411C145.589 137.411 145.589 137.411 145.59 137.411C145.59 137.411 145.59 137.411 145.591 137.411C145.591 137.411 145.592 137.411 145.592 137.411C145.592 137.411 145.593 137.411 145.593 137.411C145.593 137.411 145.594 137.411 145.594 137.411C145.594 137.411 145.595 137.411 145.595 137.411C145.595 137.411 145.596 137.411 145.596 137.411C145.596 137.411 145.597 137.411 145.597 137.411C145.597 137.411 145.598 137.411 145.598 137.411C145.599 137.411 145.599 137.411 145.599 137.411C145.6 137.411 145.6 137.411 145.6 137.411C145.601 137.411 145.601 137.411 145.601 137.411C145.602 137.411 145.602 137.411 145.602 137.411C145.603 137.411 145.603 137.411 145.603 137.411C145.604 137.411 145.604 137.411 145.605 137.411C145.605 137.411 145.605 137.411 145.606 137.411C145.606 137.411 145.606 137.411 145.607 137.411C145.607 137.411 145.607 137.411 145.608 137.411C145.608 137.411 145.608 137.411 145.609 137.411C145.609 137.411 145.609 137.411 145.61 137.411C145.61 137.411 145.61 137.411 145.611 137.411C145.611 137.411 145.612 137.411 145.612 137.411C145.612 137.411 145.613 137.411 145.613 137.411C145.613 137.411 145.614 137.411 145.614 137.411C145.614 137.411 145.615 137.411 145.615 137.411C145.615 137.411 145.616 137.411 145.616 137.411C145.616 137.411 145.617 137.411 145.617 137.411C145.618 137.411 145.618 137.411 145.618 137.411C145.619 137.411 145.619 137.411 145.619 137.411C145.62 137.411 145.62 137.411 145.62 137.411C145.621 137.411 145.621 137.411 145.621 137.411C145.622 137.411 145.622 137.411 145.622 137.411C145.623 137.411 145.623 137.411 145.623 137.411C145.624 137.411 145.624 137.411 145.625 137.411C145.625 137.411 145.625 137.411 145.626 137.411C145.626 137.411 145.626 137.411 145.627 137.411C145.627 137.411 145.627 137.411 145.628 137.411C145.628 137.411 145.628 137.411 145.629 137.411C145.629 137.411 145.629 137.411 145.63 137.411C145.63 137.411 145.631 137.411 145.631 137.411C145.631 137.411 145.632 137.411 145.632 137.411C145.632 137.411 145.633 137.411 145.633 137.411C145.633 137.411 145.634 137.411 145.634 137.411C145.634 137.411 145.635 137.411 145.635 137.411C145.635 137.411 145.636 137.411 145.636 137.411C145.637 137.411 145.637 137.411 145.637 137.411C145.638 137.411 145.638 137.411 145.638 137.411C145.639 137.411 145.639 137.411 145.639 137.411C145.64 137.411 145.64 137.411 145.64 137.411C145.641 137.411 145.641 137.411 145.641 137.411C145.642 137.411 145.642 137.411 145.642 137.411C145.643 137.411 145.643 137.411 145.644 137.411V133.411ZM144.836 133.429C143.478 133.613 142.573 134.522 142.084 135.374C141.593 136.228 141.358 137.273 141.466 138.266L145.442 137.836C145.438 137.791 145.438 137.713 145.46 137.614C145.481 137.516 145.516 137.43 145.552 137.367C145.589 137.303 145.609 137.293 145.587 137.31C145.559 137.333 145.484 137.378 145.371 137.393L144.836 133.429ZM141.463 138.236C141.641 140.155 142.824 141.739 143.47 142.653L146.738 140.347C145.943 139.221 145.507 138.526 145.445 137.865L141.463 138.236ZM143.464 142.645L151.712 154.463L154.992 152.173L146.744 140.355L143.464 142.645ZM153.352 153.318C151.455 153.95 151.455 153.95 151.455 153.95C151.455 153.95 151.454 153.949 151.454 153.949C151.454 153.949 151.454 153.948 151.454 153.948C151.454 153.947 151.453 153.946 151.453 153.946C151.453 153.944 151.452 153.942 151.452 153.941C151.451 153.938 151.45 153.935 151.449 153.933C151.447 153.927 151.446 153.922 151.444 153.918C151.442 153.909 151.439 153.901 151.437 153.894C151.434 153.882 151.428 153.859 151.422 153.826C151.417 153.8 151.403 153.717 151.403 153.596C151.403 153.512 151.406 153.189 151.593 152.813L155.171 154.602C155.389 154.167 155.403 153.765 155.403 153.596C155.403 153.391 155.377 153.218 155.357 153.11C155.336 152.994 155.312 152.896 155.293 152.83C155.284 152.795 155.275 152.765 155.267 152.741C155.264 152.729 155.26 152.719 155.257 152.709C155.256 152.705 155.254 152.7 155.253 152.696C155.252 152.694 155.252 152.692 155.251 152.691C155.251 152.69 155.251 152.689 155.25 152.688C155.25 152.687 155.25 152.687 155.25 152.687C155.25 152.686 155.25 152.686 155.25 152.686C155.25 152.686 155.249 152.685 153.352 153.318ZM151.593 152.813C151.673 152.653 151.8 152.472 152.001 152.311C152.211 152.144 152.571 151.948 153.052 151.948V155.948C154.301 155.948 154.958 155.028 155.171 154.602L151.593 152.813ZM152.717 151.976C151.538 152.177 150.349 152.13 148.896 152.098L148.809 156.097C150.116 156.126 151.747 156.199 153.388 155.919L152.717 151.976ZM148.902 152.098C147.751 152.07 146.314 151.998 144.874 152.209L145.453 156.167C146.473 156.017 147.496 156.065 148.804 156.097L148.902 152.098ZM144.891 152.206C143.393 152.412 141.803 153.007 140.525 153.97C139.245 154.935 138.106 156.417 138.007 158.376L142.002 158.578C142.023 158.167 142.263 157.669 142.933 157.164C143.605 156.658 144.535 156.293 145.436 156.169L144.891 152.206ZM138.007 158.375C137.883 160.806 139.341 162.563 140.935 163.678C142.528 164.792 144.55 165.5 146.398 165.892L147.229 161.98C145.687 161.652 144.229 161.1 143.228 160.4C142.228 159.7 141.976 159.087 142.002 158.579L138.007 158.375ZM146.406 165.894C148.242 166.276 149.906 166.745 151.155 167.439C152.365 168.111 152.977 168.868 153.158 169.804L157.086 169.046C156.606 166.562 154.939 164.965 153.097 163.942C151.294 162.941 149.134 162.376 147.221 161.978L146.406 165.894ZM153.164 169.833C153.25 170.246 153.219 170.656 153.184 171.468L157.18 171.641C157.205 171.073 157.294 170.043 157.08 169.017L153.164 169.833ZM153.185 171.449C153.156 171.986 153.113 172.723 153.194 173.455L157.17 173.013C157.131 172.665 157.147 172.263 157.179 171.66L153.185 171.449ZM153.199 173.493C153.346 174.623 153.96 175.868 154.942 176.604L157.342 173.404C157.371 173.426 157.37 173.431 157.35 173.406C157.33 173.382 157.303 173.344 157.274 173.29C157.211 173.173 157.175 173.055 157.165 172.976L153.199 173.493ZM154.995 176.642C155.615 177.077 156.449 177.39 157.429 177.212L156.714 173.276C156.841 173.253 156.982 173.258 157.114 173.293C157.234 173.326 157.294 173.369 157.289 173.365L154.995 176.642ZM157.44 177.21C158.103 177.085 158.61 176.771 158.957 176.504C159.29 176.248 159.587 175.946 159.775 175.758L156.947 172.93C156.838 173.039 156.757 173.12 156.679 173.193C156.604 173.263 156.554 173.306 156.521 173.331C156.448 173.387 156.52 173.312 156.703 173.278L157.44 177.21ZM159.775 175.758C160.033 175.5 160.191 175.356 160.332 175.26C160.451 175.179 160.471 175.196 160.429 175.199L160.133 171.21C158.481 171.332 157.388 172.489 156.947 172.93L159.775 175.758ZM160.429 175.199C160.429 175.199 160.381 175.195 160.34 175.171C160.319 175.159 160.367 175.18 160.455 175.31C160.647 175.597 160.827 176.107 160.908 176.71L164.873 176.177C164.744 175.22 164.428 174.051 163.774 173.078C163.082 172.049 161.869 171.081 160.133 171.21L160.429 175.199ZM160.909 176.712C161.042 177.698 161.273 178.655 161.706 179.439C162.165 180.271 162.955 181.063 164.157 181.242L164.743 177.285C164.9 177.308 165.043 177.375 165.144 177.456C165.232 177.526 165.242 177.568 165.207 177.505C165.123 177.352 164.979 176.959 164.872 176.175L160.909 176.712ZM164.086 181.23C165.269 181.449 166.208 180.976 166.854 180.403C167.403 179.915 167.866 179.246 168.23 178.713L164.929 176.454C164.737 176.735 164.586 176.949 164.452 177.121C164.317 177.295 164.237 177.377 164.198 177.411C164.164 177.442 164.219 177.384 164.358 177.335C164.52 177.279 164.686 177.273 164.814 177.297L164.086 181.23ZM168.221 178.727C168.587 178.201 168.84 177.854 169.101 177.608C169.328 177.395 169.426 177.391 169.452 177.389L169.167 173.399C167.933 173.487 167.011 174.083 166.361 174.694C165.744 175.273 165.262 175.976 164.939 176.44L168.221 178.727ZM169.452 177.389C169.492 177.386 169.508 177.389 169.509 177.39C169.509 177.39 169.51 177.389 169.516 177.392C169.531 177.4 169.602 177.441 169.723 177.584C170.004 177.916 170.258 178.428 170.611 179.197L174.247 177.53C173.939 176.859 173.474 175.826 172.78 175.004C172.015 174.097 170.827 173.28 169.167 173.399L169.452 177.389ZM170.608 179.191C170.886 179.804 171.262 180.643 171.762 181.328C172.289 182.049 173.155 182.876 174.493 183.021L174.923 179.044C175.152 179.069 175.178 179.222 174.992 178.968C174.78 178.678 174.571 178.243 174.249 177.536L170.608 179.191ZM174.522 183.024C175.668 183.132 176.578 182.673 177.208 182.21C177.799 181.776 178.323 181.202 178.692 180.806L175.764 178.08C175.555 178.305 175.386 178.486 175.222 178.649C175.059 178.809 174.937 178.915 174.841 178.986C174.653 179.123 174.709 179.024 174.895 179.042L174.522 183.024ZM178.687 180.811C179.169 180.297 179.488 179.972 179.797 179.77C180.044 179.608 180.127 179.627 180.181 179.638L180.933 175.709C179.577 175.449 178.446 175.873 177.605 176.424C176.827 176.934 176.187 177.63 175.769 178.075L178.687 180.811ZM180.186 179.639C180.218 179.645 180.345 179.658 180.565 180.027C180.807 180.432 180.987 180.977 181.189 181.659L185.025 180.526C184.836 179.889 184.536 178.874 183.999 177.975C183.439 177.038 182.486 176.002 180.928 175.708L180.186 179.639ZM181.2 181.695C181.406 182.348 181.665 182.987 182.009 183.518C182.315 183.991 182.921 184.739 183.944 184.944L184.729 181.021C185.027 181.081 185.218 181.215 185.303 181.288C185.383 181.356 185.399 181.394 185.367 181.345C185.338 181.3 185.287 181.21 185.222 181.06C185.158 180.912 185.088 180.724 185.014 180.491L181.2 181.695ZM183.959 184.946C184.753 185.099 185.433 184.861 185.858 184.653C186.301 184.437 186.69 184.144 187 183.88C187.616 183.357 188.225 182.682 188.664 182.2L185.708 179.505C185.217 180.043 184.792 180.508 184.41 180.832C184.322 180.907 184.25 180.962 184.193 181.002C184.164 181.022 184.142 181.036 184.126 181.046C184.11 181.056 184.102 181.06 184.102 181.06C184.102 181.059 184.105 181.058 184.11 181.056C184.115 181.054 184.123 181.05 184.135 181.046C184.156 181.038 184.193 181.027 184.243 181.017C184.342 180.996 184.508 180.979 184.714 181.018L183.959 184.946ZM188.676 182.186C189.183 181.62 189.571 181.216 189.917 180.935L187.395 177.831C186.78 178.33 186.209 178.945 185.695 179.519L188.676 182.186ZM189.927 180.927C190.299 180.621 190.695 180.41 191.448 179.944L189.343 176.543C188.836 176.856 188.032 177.306 187.384 177.839L189.927 180.927ZM191.405 179.97C192.147 179.536 193.145 178.963 193.917 178.206C194.772 177.369 195.451 176.215 195.425 174.669L191.425 174.738C191.428 174.932 191.388 175.084 191.118 175.349C190.766 175.694 190.234 176.021 189.386 176.517L191.405 179.97ZM195.425 174.704C195.425 174.123 195.315 173.63 195.215 173.229L191.335 174.199C191.414 174.518 191.425 174.625 191.425 174.704H195.425ZM195.243 173.356C195.223 173.249 195.202 173.145 195.186 173.068C195.169 172.983 195.157 172.922 195.147 172.865C195.127 172.754 195.125 172.71 195.125 172.694H191.125C191.125 173.294 191.286 173.958 191.307 174.072L195.243 173.356ZM195.123 172.602C195.087 171.818 195.818 170.815 196.93 170.326L195.319 166.664C193.431 167.495 190.983 169.671 191.127 172.787L195.123 172.602ZM196.908 170.335C198.089 169.832 199.498 169.805 201.193 169.805V165.805C199.649 165.805 197.399 165.778 195.341 166.655L196.908 170.335ZM201.193 169.805C201.539 169.805 201.804 169.811 202.034 169.863C202.255 169.912 202.231 169.957 202.17 169.881L205.316 167.409C204.595 166.493 203.626 166.119 202.902 165.958C202.187 165.799 201.507 165.805 201.193 165.805V169.805ZM202.143 169.845C202.138 169.839 202.157 169.859 202.183 169.953C202.213 170.06 202.237 170.205 202.265 170.456L206.241 170.014C206.18 169.467 206.059 168.399 205.343 167.445L202.143 169.845ZM202.253 170.235C202.253 170.641 202.321 171.034 202.445 171.407L206.24 170.142C206.242 170.147 206.245 170.159 206.248 170.176C206.251 170.193 206.253 170.213 206.253 170.235H202.253ZM202.384 171.178C202.76 173.006 204.102 174.272 205.75 174.851L207.075 171.077C206.504 170.876 206.345 170.583 206.302 170.371L202.384 171.178ZM205.738 174.847C207.937 175.635 210.64 175.262 212.458 173.754L209.905 170.675C209.264 171.207 208.068 171.433 207.087 171.082L205.738 174.847ZM212.444 173.766C215.339 171.411 216.194 167.514 216.747 164.542L212.815 163.81C212.229 166.957 211.523 169.358 209.92 170.663L212.444 173.766ZM216.746 164.548C217.315 161.546 217.937 158.72 219.8 157.061L217.14 154.074C214.084 156.794 213.327 161.106 212.816 163.804L216.746 164.548ZM219.835 157.03C220.093 156.789 220.448 156.56 220.894 156.336L219.106 152.759C218.472 153.075 217.748 153.506 217.106 154.105L219.835 157.03ZM220.65 152.656C219.93 152.409 219.368 152.067 218.939 151.566L215.902 154.169C216.912 155.348 218.15 156.027 219.35 156.439L220.65 152.656ZM218.926 151.551C218.423 150.977 218.193 150.254 217.838 149.059L214.004 150.198C214.308 151.222 214.738 152.839 215.915 154.185L218.926 151.551ZM217.848 149.093C217.687 148.514 217.482 147.86 217.23 147.247L213.531 148.77C213.699 149.178 213.855 149.663 213.994 150.164L217.848 149.093ZM217.208 147.197C216.919 146.545 216.492 145.952 216.011 145.476C215.544 145.015 214.913 144.554 214.163 144.326L212.999 148.152C212.957 148.14 212.963 148.135 213.012 148.167C213.059 148.197 213.124 148.248 213.199 148.322C213.355 148.476 213.483 148.663 213.553 148.821L217.208 147.197ZM214.214 144.342C213.35 144.054 212.5 144.124 211.727 144.51L213.516 148.088C213.469 148.112 213.364 148.153 213.221 148.163C213.079 148.173 212.98 148.147 212.949 148.136L214.214 144.342ZM211.561 144.603C211.962 144.352 212.407 144.376 212.736 144.54L210.947 148.118C211.755 148.522 212.8 148.546 213.681 147.995L211.561 144.603ZM212.667 144.507C198.904 138.272 186.422 123.847 178.63 104.722L174.926 106.231C182.971 125.979 196.044 141.368 211.016 148.151L212.667 144.507ZM178.616 104.689C178.546 104.524 178.478 104.347 178.393 104.122C178.313 103.912 178.216 103.654 178.106 103.399L174.43 104.975C174.5 105.139 174.568 105.316 174.653 105.541C174.733 105.751 174.83 106.009 174.94 106.264L178.616 104.689ZM176.823 102.265C174.923 101.716 172.758 102.045 171.153 103.016L173.224 106.438C173.899 106.029 174.914 105.877 175.713 106.108L176.823 102.265Z" fill="white" mask="url(#path-4-inside-1_639_316)"/>
</g>
<defs>
<filter id="filter0_d_639_316" x="0" y="0" width="361" height="357" filterUnits="userSpaceOnUse" color-interpolation-filters="sRGB">
<feFlood flood-opacity="0" result="BackgroundImageFix"/>
<feColorMatrix in="SourceAlpha" type="matrix" values="0 0 0 0 0 0 0 0 0 0 0 0 0 0 0 0 0 0 127 0" result="hardAlpha"/>
<feOffset dx="2" dy="2"/>
<feGaussianBlur stdDeviation="2"/>
<feComposite in2="hardAlpha" operator="out"/>
<feColorMatrix type="matrix" values="0 0 0 0 0 0 0 0 0 0 0 0 0 0 0 0 0 0 0.25 0"/>
<feBlend mode="normal" in2="BackgroundImageFix" result="effect1_dropShadow_639_316"/>
<feBlend mode="normal" in="SourceGraphic" in2="effect1_dropShadow_639_316" result="shape"/>
</filter>
<linearGradient id="paint0_linear_639_316" x1="144.488" y1="202.766" x2="213.512" y2="83.2345" gradientUnits="userSpaceOnUse">
<stop stop-color="#0460A9"/>
<stop offset="1" stop-color="#50E2D0"/>
</linearGradient>
</defs>
</svg>
