<svg width="361" height="357" viewBox="0 0 361 357" fill="none" xmlns="http://www.w3.org/2000/svg">
<g filter="url(#filter0_d_639_311)">
<rect x="2" y="2" width="353" height="349" rx="19.0804" fill="white"/>
<path d="M49.14 273V248.738H57.2162L60.1684 259.359C60.6096 260.886 61.5597 264.89 61.5597 264.89H61.6276C61.6276 264.89 62.5777 260.886 62.9849 259.359L65.9711 248.738H74.1151V273H68.6179V260.784C68.6179 259.8 68.7197 255.931 68.7197 255.931H68.6518C68.6518 255.931 67.8035 259.562 67.532 260.445L64.0368 273H59.0825L55.6213 260.479C55.3498 259.596 54.5015 255.931 54.5015 255.931H54.4336C54.4336 255.931 54.5354 259.834 54.5354 260.818V273H49.14ZM83.9892 269.912C86.0592 269.912 87.4844 268.657 87.4844 266.79V264.72C86.7718 265.093 85.7538 265.365 84.634 265.636C82.4962 266.111 81.6139 266.654 81.6139 267.978C81.6139 269.369 82.6319 269.912 83.9892 269.912ZM82.2247 273.441C78.7635 273.441 76.2863 271.575 76.2863 268.148C76.2863 264.313 79.3403 263.159 82.9373 262.684C86.1949 262.277 87.3487 261.938 87.3487 260.75C87.3487 259.63 86.6361 258.884 84.9733 258.884C83.2088 258.884 82.3265 259.664 82.1568 261.123H77.0668C77.2025 257.9 79.6797 255.151 84.9394 255.151C87.5523 255.151 89.3168 255.626 90.5723 256.576C92.0654 257.662 92.778 259.359 92.778 261.53V270.285C92.778 271.677 92.9138 272.457 93.3888 272.762V273H88.0273C87.7559 272.627 87.5862 271.948 87.4505 271.066H87.3826C86.3646 272.525 84.8376 273.441 82.2247 273.441ZM104.554 269.267C106.657 269.267 107.947 267.469 107.947 264.517C107.947 261.53 106.827 259.562 104.452 259.562C102.042 259.562 100.821 261.7 100.821 264.517C100.821 267.333 102.178 269.267 104.554 269.267ZM95.4593 278.735V255.626H100.753V257.73H100.855C102.042 256.169 103.739 255.117 106.114 255.117C110.729 255.117 113.546 259.087 113.546 264.313C113.546 269.946 110.526 273.543 105.979 273.543C103.739 273.543 102.144 272.661 101.058 271.202H100.99V278.735H95.4593ZM124.503 269.267C126.607 269.267 127.896 267.469 127.896 264.517C127.896 261.53 126.776 259.562 124.401 259.562C121.992 259.562 120.77 261.7 120.77 264.517C120.77 267.333 122.127 269.267 124.503 269.267ZM115.409 278.735V255.626H120.702V257.73H120.804C121.992 256.169 123.688 255.117 126.064 255.117C130.679 255.117 133.495 259.087 133.495 264.313C133.495 269.946 130.475 273.543 125.928 273.543C123.688 273.543 122.093 272.661 121.008 271.202H120.94V278.735H115.409ZM142.246 269.912C144.316 269.912 145.741 268.657 145.741 266.79V264.72C145.029 265.093 144.011 265.365 142.891 265.636C140.753 266.111 139.871 266.654 139.871 267.978C139.871 269.369 140.889 269.912 142.246 269.912ZM140.482 273.441C137.02 273.441 134.543 271.575 134.543 268.148C134.543 264.313 137.597 263.159 141.194 262.684C144.452 262.277 145.606 261.938 145.606 260.75C145.606 259.63 144.893 258.884 143.23 258.884C141.466 258.884 140.584 259.664 140.414 261.123H135.324C135.46 257.9 137.937 255.151 143.196 255.151C145.809 255.151 147.574 255.626 148.829 256.576C150.322 257.662 151.035 259.359 151.035 261.53V270.285C151.035 271.677 151.171 272.457 151.646 272.762V273H146.284C146.013 272.627 145.843 271.948 145.707 271.066H145.64C144.622 272.525 143.095 273.441 140.482 273.441ZM165.331 259.461H169.844C172.219 259.461 173.441 258.341 173.441 256.508C173.441 254.744 172.287 253.488 169.98 253.488H165.331V259.461ZM159.325 273V248.738H170.93C175.748 248.738 179.413 251.215 179.413 255.728C179.413 258.544 178.022 260.614 175.206 261.598V261.7C177.309 262.413 178.395 263.736 178.735 266.145C179.244 269.335 178.904 272.389 179.753 272.695V273H173.916C173.271 272.627 173.373 269.776 173 267.367C172.694 265.127 171.541 263.906 168.962 263.906H165.331V273H159.325ZM190.069 273.509C184.334 273.509 180.805 269.539 180.805 264.279C180.805 259.087 184.436 255.117 189.73 255.117C192.207 255.117 194.175 255.931 195.668 257.289C197.738 259.189 198.756 262.209 198.722 265.738H186.234C186.574 268.08 187.863 269.539 190.137 269.539C191.596 269.539 192.546 268.894 193.021 267.808H198.417C198.043 269.369 197.025 270.862 195.498 271.914C194.039 272.932 192.275 273.509 190.069 273.509ZM186.268 262.447H193.123C192.919 260.377 191.63 259.053 189.831 259.053C187.728 259.053 186.642 260.377 186.268 262.447ZM208.616 267.944C211.025 267.944 212.145 266.044 212.145 263.6C212.145 261.259 210.924 259.291 208.616 259.291C206.546 259.291 205.189 260.988 205.189 263.634C205.189 266.247 206.546 267.944 208.616 267.944ZM208.65 279.006C203.865 279.006 200.71 277.038 200.167 273.407H205.528C205.834 274.323 206.75 275.104 208.582 275.104C210.924 275.104 211.908 273.882 211.908 271.778V270.048H211.772C210.754 271.202 209.43 272.05 207.327 272.05C203.424 272.05 199.793 269.132 199.793 263.804C199.793 258.714 202.779 255.117 207.089 255.117C209.397 255.117 210.957 256.033 211.975 257.492H212.043V255.626H217.337V271.303C217.337 273.916 216.421 275.816 215.03 277.072C213.502 278.429 211.229 279.006 208.65 279.006ZM222.775 248.229C224.506 248.229 225.829 249.45 225.829 251.181C225.829 252.911 224.506 254.133 222.775 254.133C221.045 254.133 219.721 252.911 219.721 251.181C219.721 249.45 221.045 248.229 222.775 248.229ZM219.993 273V255.626H225.524V273H219.993ZM236.695 273.543C231.13 273.543 227.397 269.573 227.397 264.347C227.397 259.121 231.13 255.151 236.695 255.151C242.294 255.151 245.959 259.121 245.959 264.347C245.959 269.573 242.294 273.543 236.695 273.543ZM236.661 269.607C239.071 269.607 240.36 267.503 240.36 264.347C240.36 261.191 239.071 259.053 236.661 259.053C234.252 259.053 232.997 261.191 232.997 264.347C232.997 267.503 234.252 269.607 236.661 269.607ZM247.829 273V255.626H253.157V258.001H253.258C254.548 256.135 256.211 255.117 258.62 255.117C262.42 255.117 264.66 257.832 264.66 261.7V273H259.129V262.82C259.129 260.988 258.213 259.732 256.414 259.732C254.582 259.732 253.36 261.259 253.36 263.397V273H247.829ZM274.07 269.912C276.14 269.912 277.565 268.657 277.565 266.79V264.72C276.853 265.093 275.835 265.365 274.715 265.636C272.577 266.111 271.695 266.654 271.695 267.978C271.695 269.369 272.713 269.912 274.07 269.912ZM272.306 273.441C268.844 273.441 266.367 271.575 266.367 268.148C266.367 264.313 269.421 263.159 273.018 262.684C276.276 262.277 277.43 261.938 277.43 260.75C277.43 259.63 276.717 258.884 275.054 258.884C273.29 258.884 272.407 259.664 272.238 261.123H267.148C267.283 257.9 269.761 255.151 275.02 255.151C277.633 255.151 279.398 255.626 280.653 256.576C282.146 257.662 282.859 259.359 282.859 261.53V270.285C282.859 271.677 282.995 272.457 283.47 272.762V273H278.108C277.837 272.627 277.667 271.948 277.531 271.066H277.464C276.446 272.525 274.919 273.441 272.306 273.441ZM285.574 273V248.738H291.173V273H285.574ZM302.341 273.509C296.607 273.509 293.077 269.539 293.077 264.279C293.077 259.087 296.708 255.117 302.002 255.117C304.479 255.117 306.447 255.931 307.94 257.289C310.01 259.189 311.028 262.209 310.994 265.738H298.507C298.846 268.08 300.136 269.539 302.409 269.539C303.868 269.539 304.818 268.894 305.294 267.808H310.689C310.316 269.369 309.298 270.862 307.771 271.914C306.312 272.932 304.547 273.509 302.341 273.509ZM298.541 262.447H305.395C305.192 260.377 303.902 259.053 302.104 259.053C300 259.053 298.914 260.377 298.541 262.447ZM157.215 314.577C150.768 314.577 146.526 311.726 146.39 306.365H152.43C152.702 308.808 154.297 309.826 157.181 309.826C159.149 309.826 161.083 309.114 161.083 307.281C161.083 305.347 159.115 304.94 155.79 304.125C151.582 303.141 147.137 301.852 147.137 296.762C147.137 291.57 151.345 289.296 156.774 289.296C162.034 289.296 166.106 291.672 166.343 296.762H160.473C160.235 294.895 158.81 293.843 156.57 293.843C154.466 293.843 153.075 294.76 153.075 296.117C153.075 297.814 154.942 298.221 158.572 299.035C163.086 300.087 167.158 301.479 167.158 306.67C167.158 311.76 162.814 314.577 157.215 314.577ZM179.617 314.577C173.169 314.577 168.927 311.726 168.792 306.365H174.832C175.103 308.808 176.698 309.826 179.583 309.826C181.551 309.826 183.485 309.114 183.485 307.281C183.485 305.347 181.517 304.94 178.191 304.125C173.984 303.141 169.538 301.852 169.538 296.762C169.538 291.57 173.746 289.296 179.175 289.296C184.435 289.296 188.507 291.672 188.745 296.762H182.874C182.637 294.895 181.211 293.843 178.972 293.843C176.868 293.843 175.477 294.76 175.477 296.117C175.477 297.814 177.343 298.221 180.974 299.035C185.487 300.087 189.559 301.479 189.559 306.67C189.559 311.76 185.216 314.577 179.617 314.577ZM198.022 300.461H202.535C204.91 300.461 206.132 299.341 206.132 297.508C206.132 295.744 204.978 294.488 202.671 294.488H198.022V300.461ZM192.016 314V289.738H203.621C208.439 289.738 212.104 292.215 212.104 296.728C212.104 299.544 210.713 301.614 207.896 302.598V302.7C210 303.413 211.086 304.736 211.426 307.145C211.935 310.335 211.595 313.389 212.444 313.695V314H206.607C205.962 313.627 206.064 310.776 205.691 308.367C205.385 306.127 204.232 304.906 201.653 304.906H198.022V314H192.016Z" fill="#002068"/>
<path d="M179 212C217.108 212 248 181.108 248 143C248 104.892 217.108 74 179 74C140.892 74 110 104.892 110 143C110 181.108 140.892 212 179 212Z" fill="url(#paint0_linear_639_311)"/>
<mask id="path-4-inside-1_639_311" fill="white">
<path d="M205.526 127.494L202.01 125.514C201.508 125.234 200.887 124.879 200.267 124.938C199.705 124.983 199.188 125.367 198.686 125.721C197.992 126.209 197.283 126.711 196.455 126.46C196.219 126.386 196.027 126.268 195.835 126.15C195.628 126.017 195.421 125.899 195.214 125.854C194.608 125.736 194.121 126.253 193.619 126.815C193.087 127.391 192.54 127.982 191.772 127.982H191.757C191.284 127.982 190.871 127.731 190.516 127.509L190.442 127.465C186.734 125.263 181.8 125.337 178.151 127.627L177.973 127.745C177.56 128.011 177.116 128.292 176.614 128.395C175.757 128.558 174.974 128.189 174.221 127.834C173.645 127.568 173.054 127.287 172.463 127.258C171.694 127.213 170.926 127.583 170.173 127.952C169.242 128.395 168.282 128.853 167.277 128.573C166.657 128.395 166.184 127.967 165.711 127.553C165.209 127.11 164.721 126.682 164.13 126.593C163.864 126.549 163.584 126.593 163.288 126.623C162.904 126.667 162.52 126.711 162.136 126.593C161.619 126.445 161.175 126.061 160.747 125.692C160.082 125.116 159.654 124.791 159.166 125.042C159.048 125.101 158.945 125.189 158.826 125.293C158.605 125.47 158.368 125.662 158.014 125.677C157.305 125.647 157.157 124.835 157.054 124.229L157.024 124.081C156.847 123.092 155.96 122.249 154.926 122.043C153.936 121.865 152.813 122.249 152.075 123.032C151.898 123.225 151.735 123.431 151.572 123.653C151.085 124.288 150.568 124.938 149.755 125.042C148.825 125.145 148.16 124.466 147.539 123.816C147.111 123.372 146.682 122.914 146.151 122.707C145.013 122.249 143.757 123.062 143.107 123.594C141.807 124.658 140.566 126.401 140.994 128.129C141.068 128.395 141.172 128.661 141.275 128.927C141.364 129.164 141.467 129.4 141.541 129.651C141.984 131.202 141.438 132.798 140.773 134.438L139 138.84C140.138 138.707 141.29 138.693 142.442 138.811C143.432 138.9 144.85 139.136 145.855 140.067C146.771 140.909 147.185 142.519 146.343 143.553C146.269 143.657 146.165 143.745 146.077 143.834C145.885 144.026 145.693 144.218 145.648 144.44C145.619 144.602 145.648 144.765 145.781 144.912C145.988 145.164 146.343 145.326 146.697 145.326C147.037 145.326 147.362 145.237 147.717 145.134C147.997 145.06 148.278 144.986 148.573 144.942C149.312 144.853 150.199 145.223 150.317 145.961C150.317 145.888 150.317 145.828 150.346 145.755C150.479 145.356 150.789 145.075 151.1 144.809C152.134 143.937 153.39 143.021 154.867 142.859C156.285 142.696 158.029 143.465 158.368 144.972C158.398 145.09 158.413 145.223 158.428 145.341C158.472 145.636 158.516 145.902 158.679 146.094C158.93 146.405 159.388 146.419 159.861 146.434C160.392 146.464 160.954 146.493 161.323 146.892C161.619 147.217 161.678 147.646 161.737 148.059C161.796 148.443 161.84 148.813 162.091 149.02C162.372 149.256 162.801 149.197 163.244 149.138C163.362 149.123 163.48 149.108 163.598 149.093C165.253 148.931 166.642 150.039 167.986 151.103C169.375 152.196 170.675 153.23 172.211 152.92C172.507 152.861 172.802 152.757 173.083 152.639C173.733 152.403 174.398 152.152 175.078 152.403C175.728 152.654 176.067 153.245 176.407 153.806C176.614 154.161 176.821 154.515 177.087 154.767L177.707 153.053C177.781 152.846 177.87 152.61 178.062 152.418C178.254 152.24 178.49 152.166 178.771 152.181C179.155 152.211 179.584 152.432 179.864 152.772C180.027 152.964 180.16 153.186 180.278 153.393C180.44 153.673 180.603 153.939 180.839 154.146C181.622 154.84 182.967 154.486 183.765 153.732C184.252 153.289 184.621 152.743 185.006 152.166C185.286 151.753 185.582 151.324 185.922 150.925C186.749 149.98 188.108 149.256 189.29 149.773C189.822 150.009 190.221 150.453 190.605 150.881C191.033 151.369 191.447 151.827 192.008 151.945C192.171 151.974 192.333 151.974 192.525 151.989C192.791 151.989 193.057 151.989 193.323 152.093C193.87 152.299 194.151 152.787 194.431 153.274C194.594 153.555 194.756 153.851 194.978 154.072C195.096 154.19 195.244 154.309 195.406 154.427C195.864 154.781 196.381 155.18 196.248 155.801C196.16 156.214 195.805 156.436 195.495 156.628C195.288 156.746 195.111 156.879 194.978 157.027C194.623 157.485 194.889 158.179 195.288 158.652C195.421 158.815 195.569 158.962 195.717 159.11C196.071 159.465 196.426 159.819 196.618 160.307C196.721 160.543 196.765 160.809 196.81 161.06C196.898 161.474 196.972 161.873 197.253 162.109C197.622 162.419 198.139 162.316 198.686 162.213C198.996 162.153 199.321 162.094 199.646 162.109C200.518 162.139 201.212 162.671 201.877 163.173C202.143 163.365 202.409 163.572 202.675 163.749C203.251 164.118 204.108 164.192 204.64 163.941C204.921 163.808 205.083 163.601 205.127 163.335C205.098 163.291 205.068 163.261 205.054 163.217C204.773 162.656 205.127 162.139 205.452 161.695C205.689 161.356 205.94 161.001 205.925 160.661C205.925 160.395 205.748 160.144 205.571 159.878C205.364 159.568 205.142 159.243 205.142 158.829C205.142 158.105 205.91 157.618 206.605 157.618C207.122 157.618 207.609 157.81 208.067 158.002C208.171 158.046 208.274 158.091 208.378 158.12C209.042 158.371 209.56 158.401 209.944 158.224C210.269 158.061 210.52 157.736 210.786 157.411C211.185 156.909 211.584 156.406 212.263 156.436C212.5 156.451 212.736 156.554 212.972 156.717C213.77 157.293 213.992 158.268 214.213 159.199C214.243 159.332 214.272 159.465 214.317 159.598C214.553 160.558 215.144 161.577 216.045 161.607C216.902 161.636 217.508 160.735 217.877 159.982C218.365 158.977 218.749 157.913 219 156.805C218.631 156.746 218.247 156.687 217.862 156.569C216.784 156.259 215.883 155.609 215.218 155.077C211.406 152.078 208.836 147.587 208.171 142.785C208.127 142.46 208.082 142.12 208.053 141.795C207.905 140.466 207.757 139.21 207.137 138.146C206.693 137.393 205.881 136.816 205.039 136.669C204.64 136.595 204.078 136.595 203.591 136.994C203.502 137.068 203.384 137.097 203.266 137.082C203.148 137.068 203.044 136.994 202.985 136.89C202.498 136.122 202.645 135.073 203.384 134.275C203.99 133.611 204.817 133.33 205.541 133.522C205.704 133.079 205.689 132.576 205.689 132.044C205.689 131.587 205.689 131.099 205.777 130.641C205.91 129.991 206.413 129.474 206.959 129.178C207.092 128.44 206.176 127.804 205.6 127.479"/>
</mask>
<path d="M202.01 125.514L202.991 123.772L202.986 123.769L202.01 125.514ZM200.267 124.938L200.424 126.932L200.44 126.931L200.456 126.929L200.267 124.938ZM198.686 125.721L199.835 127.358L199.839 127.355L198.686 125.721ZM196.455 126.46L195.859 128.369L195.866 128.371L195.874 128.374L196.455 126.46ZM195.835 126.15L194.753 127.832L194.77 127.843L194.787 127.853L195.835 126.15ZM195.214 125.854L195.633 123.899L195.615 123.895L195.597 123.891L195.214 125.854ZM193.619 126.815L195.088 128.171L195.099 128.16L195.109 128.148L193.619 126.815ZM190.516 127.509L191.576 125.813L191.561 125.803L191.545 125.794L190.516 127.509ZM190.442 127.465L191.471 125.75L191.463 125.745L190.442 127.465ZM178.151 127.627L177.087 125.933L177.064 125.948L177.041 125.963L178.151 127.627ZM177.973 127.745L179.055 129.428L179.069 129.419L179.083 129.409L177.973 127.745ZM176.614 128.395L176.987 130.36L177.002 130.357L177.017 130.354L176.614 128.395ZM174.221 127.834L175.072 126.024L175.066 126.021L175.059 126.018L174.221 127.834ZM172.463 127.258L172.347 129.254L172.355 129.255L172.363 129.255L172.463 127.258ZM170.173 127.952L171.033 129.758L171.043 129.753L171.053 129.748L170.173 127.952ZM167.277 128.573L166.728 130.496L166.739 130.499L167.277 128.573ZM165.711 127.553L164.388 129.053L164.394 129.058L165.711 127.553ZM164.13 126.593L163.801 128.566L163.817 128.568L163.834 128.571L164.13 126.593ZM163.288 126.623L163.089 124.632L163.074 124.634L163.059 124.636L163.288 126.623ZM162.136 126.593L162.724 124.681L162.705 124.675L162.685 124.67L162.136 126.593ZM160.747 125.692L159.437 127.203L159.441 127.207L160.747 125.692ZM159.166 125.042L160.061 126.831L160.071 126.825L160.082 126.82L159.166 125.042ZM158.826 125.293L160.076 126.855L160.11 126.827L160.143 126.798L158.826 125.293ZM158.014 125.677L157.931 127.675L158.014 127.679L158.097 127.675L158.014 125.677ZM157.054 124.229L159.025 123.893L159.02 123.865L159.015 123.837L157.054 124.229ZM157.024 124.081L155.055 124.434L155.059 124.454L155.063 124.474L157.024 124.081ZM154.926 122.043L155.318 120.081L155.299 120.078L155.279 120.074L154.926 122.043ZM152.075 123.032L150.62 121.66L150.613 121.668L150.605 121.676L152.075 123.032ZM151.572 123.653L153.159 124.871L153.172 124.853L153.185 124.836L151.572 123.653ZM149.755 125.042L149.976 127.029L149.992 127.028L150.008 127.026L149.755 125.042ZM147.539 123.816L148.986 122.435L148.977 122.425L147.539 123.816ZM146.151 122.707L145.404 124.563L145.415 124.567L145.426 124.571L146.151 122.707ZM140.994 128.129L139.053 128.611L139.06 128.638L139.067 128.665L140.994 128.129ZM141.275 128.927L143.148 128.225L143.144 128.214L143.139 128.202L141.275 128.927ZM141.541 129.651L143.464 129.102L143.462 129.094L143.46 129.087L141.541 129.651ZM140.773 134.438L138.919 133.686L138.918 133.691L140.773 134.438ZM139 138.84L137.145 138.093L135.887 141.218L139.232 140.827L139 138.84ZM142.442 138.811L142.238 140.8L142.251 140.802L142.264 140.803L142.442 138.811ZM145.855 140.067L144.496 141.534L144.501 141.539L145.855 140.067ZM146.343 143.553L144.792 142.29L144.752 142.339L144.715 142.391L146.343 143.553ZM146.077 143.834L144.662 142.42L146.077 143.834ZM145.648 144.44L143.687 144.047L143.684 144.065L143.68 144.082L145.648 144.44ZM145.781 144.912L147.325 143.641L147.297 143.607L147.268 143.575L145.781 144.912ZM147.717 145.134L147.208 143.2L147.182 143.207L147.157 143.214L147.717 145.134ZM148.573 144.942L148.335 142.956L148.306 142.96L148.277 142.964L148.573 144.942ZM150.317 145.961L148.342 146.277L152.317 145.961H150.317ZM150.346 145.755L152.203 146.497L152.225 146.443L152.244 146.387L150.346 145.755ZM151.1 144.809L149.811 143.28L149.804 143.285L149.798 143.291L151.1 144.809ZM154.867 142.859L155.086 144.847L155.095 144.846L154.867 142.859ZM158.368 144.972L156.417 145.411L156.423 145.434L156.428 145.457L158.368 144.972ZM158.428 145.341L156.443 145.589L156.446 145.613L156.45 145.638L158.428 145.341ZM158.679 146.094L160.233 144.836L160.219 144.819L160.205 144.802L158.679 146.094ZM159.861 146.434L159.972 144.437L159.947 144.436L159.923 144.435L159.861 146.434ZM161.323 146.892L162.803 145.547L162.797 145.54L162.791 145.533L161.323 146.892ZM161.737 148.059L159.757 148.342L159.758 148.353L159.76 148.363L161.737 148.059ZM162.091 149.02L163.38 147.49L163.371 147.483L163.363 147.476L162.091 149.02ZM163.244 149.138L162.996 147.153L162.988 147.154L162.979 147.155L163.244 149.138ZM163.598 149.093L163.403 147.103L163.377 147.106L163.35 147.109L163.598 149.093ZM167.986 151.103L166.745 152.671L166.749 152.674L167.986 151.103ZM172.211 152.92L171.819 150.959L171.816 150.959L172.211 152.92ZM173.083 152.639L172.4 150.76L172.353 150.777L172.307 150.796L173.083 152.639ZM175.078 152.403L175.798 150.537L175.785 150.532L175.771 150.527L175.078 152.403ZM176.407 153.806L178.135 152.799L178.127 152.785L178.118 152.771L176.407 153.806ZM177.087 154.767L175.714 156.221L177.93 158.314L178.967 155.447L177.087 154.767ZM177.707 153.053L179.588 153.734L179.591 153.725L177.707 153.053ZM178.062 152.418L176.705 150.948L176.676 150.975L176.648 151.003L178.062 152.418ZM178.771 152.181L178.924 150.187L178.9 150.185L178.876 150.184L178.771 152.181ZM179.864 152.772L178.322 154.046L178.33 154.055L178.337 154.064L179.864 152.772ZM180.278 153.393L178.541 154.385L178.547 154.395L180.278 153.393ZM180.839 154.146L182.166 152.65L182.156 152.641L180.839 154.146ZM183.765 153.732L182.419 152.253L182.405 152.265L182.391 152.278L183.765 153.732ZM185.006 152.166L183.351 151.043L183.346 151.05L183.341 151.057L185.006 152.166ZM185.922 150.925L184.416 149.608L184.408 149.618L184.399 149.628L185.922 150.925ZM189.29 149.773L190.102 147.945L190.092 147.941L189.29 149.773ZM190.605 150.881L192.107 149.561L192.101 149.553L192.094 149.546L190.605 150.881ZM192.008 151.945L191.596 153.902L191.623 153.908L191.651 153.913L192.008 151.945ZM192.525 151.989L192.372 153.983L192.449 153.989H192.525V151.989ZM193.323 152.093L192.598 153.957L192.607 153.96L192.615 153.963L193.323 152.093ZM194.431 153.274L192.698 154.272L192.7 154.276L194.431 153.274ZM195.406 154.427L196.631 152.845L196.607 152.827L196.583 152.809L195.406 154.427ZM196.248 155.801L194.293 155.382L196.248 155.801ZM195.495 156.628L196.487 158.365L196.518 158.347L196.548 158.329L195.495 156.628ZM194.978 157.027L193.491 155.689L193.442 155.744L193.396 155.803L194.978 157.027ZM195.288 158.652L196.836 157.386L196.826 157.374L196.817 157.362L195.288 158.652ZM196.618 160.307L194.757 161.04L194.771 161.074L194.785 161.108L196.618 160.307ZM196.81 161.06L194.84 161.408L194.847 161.444L194.854 161.479L196.81 161.06ZM197.253 162.109L195.965 163.639L195.967 163.641L197.253 162.109ZM198.686 162.213L199.058 164.178L199.06 164.177L198.686 162.213ZM199.646 162.109L199.556 164.107L199.567 164.108L199.579 164.108L199.646 162.109ZM201.877 163.173L200.672 164.769L200.689 164.782L200.706 164.794L201.877 163.173ZM202.675 163.749L201.566 165.413L201.581 165.423L201.596 165.433L202.675 163.749ZM204.64 163.941L205.494 165.75L205.496 165.749L204.64 163.941ZM205.127 163.335L207.1 163.664L207.23 162.884L206.792 162.226L205.127 163.335ZM205.054 163.217L206.951 162.585L206.906 162.45L206.842 162.323L205.054 163.217ZM205.452 161.695L207.065 162.878L207.08 162.858L207.094 162.838L205.452 161.695ZM205.925 160.661H203.925V160.705L203.927 160.748L205.925 160.661ZM205.571 159.878L207.235 158.769L205.571 159.878ZM208.067 158.002L208.855 156.164L208.848 156.161L208.841 156.158L208.067 158.002ZM208.378 158.12L209.084 156.249L209.007 156.22L208.927 156.197L208.378 158.12ZM209.944 158.224L210.782 160.04L210.81 160.026L210.838 160.012L209.944 158.224ZM210.786 157.411L212.334 158.678L212.343 158.666L212.352 158.655L210.786 157.411ZM212.263 156.436L212.388 154.44L212.369 154.439L212.35 154.438L212.263 156.436ZM212.972 156.717L214.143 155.095L214.124 155.082L214.105 155.069L212.972 156.717ZM214.213 159.199L216.166 158.765L216.162 158.75L216.159 158.735L214.213 159.199ZM214.317 159.598L216.259 159.12L216.24 159.041L216.214 158.965L214.317 159.598ZM216.045 161.607L216.114 159.608L216.111 159.608L216.045 161.607ZM217.877 159.982L219.673 160.862L219.677 160.855L217.877 159.982ZM219 156.805L220.951 157.247L221.422 155.167L219.316 154.83L219 156.805ZM217.862 156.569L218.451 154.657L218.433 154.652L218.415 154.647L217.862 156.569ZM215.218 155.077L216.467 153.515L216.461 153.51L216.455 153.505L215.218 155.077ZM208.171 142.785L206.189 143.055L206.19 143.059L208.171 142.785ZM208.053 141.795L210.044 141.614L210.043 141.594L210.04 141.574L208.053 141.795ZM207.137 138.146L208.864 137.138L208.861 137.132L207.137 138.146ZM205.039 136.669L204.675 138.635L204.684 138.637L204.693 138.639L205.039 136.669ZM203.591 136.994L202.324 135.446L202.318 135.452L202.311 135.457L203.591 136.994ZM202.985 136.89L204.722 135.898L204.699 135.858L204.674 135.819L202.985 136.89ZM203.384 134.275L204.852 135.634L204.857 135.628L204.863 135.622L203.384 134.275ZM205.541 133.522L205.028 135.455L206.791 135.923L207.419 134.21L205.541 133.522ZM205.777 130.641L203.818 130.24L203.816 130.251L203.814 130.261L205.777 130.641ZM206.959 129.178L207.91 130.938L208.757 130.48L208.928 129.533L206.959 129.178ZM206.508 125.751L202.991 123.772L201.029 127.257L204.545 129.237L206.508 125.751ZM202.986 123.769C202.762 123.644 202.36 123.413 201.916 123.238C201.465 123.06 200.821 122.877 200.077 122.947L200.456 126.929C200.334 126.941 200.31 126.905 200.45 126.96C200.513 126.985 200.591 127.021 200.693 127.073C200.797 127.128 200.9 127.185 201.035 127.26L202.986 123.769ZM200.109 122.945C199.43 122.998 198.873 123.248 198.482 123.466C198.103 123.676 197.745 123.938 197.533 124.087L199.839 127.355C199.979 127.257 200.081 127.184 200.187 127.112C200.289 127.043 200.365 126.995 200.427 126.961C200.56 126.887 200.542 126.923 200.424 126.932L200.109 122.945ZM197.537 124.084C197.354 124.213 197.221 124.306 197.094 124.386C196.969 124.465 196.891 124.505 196.843 124.525C196.798 124.544 196.807 124.534 196.856 124.529C196.913 124.523 196.98 124.529 197.036 124.546L195.874 128.374C196.855 128.672 197.732 128.491 198.398 128.21C199 127.956 199.531 127.572 199.835 127.358L197.537 124.084ZM197.052 124.551C197.078 124.559 197.085 124.565 197.061 124.552C197.048 124.546 197.029 124.535 196.999 124.517C196.967 124.498 196.933 124.477 196.883 124.446L194.787 127.853C194.957 127.958 195.35 128.21 195.859 128.369L197.052 124.551ZM196.916 124.467C196.705 124.331 196.229 124.026 195.633 123.899L194.795 127.81C194.736 127.797 194.693 127.783 194.667 127.773C194.642 127.764 194.629 127.757 194.63 127.758C194.632 127.758 194.642 127.764 194.664 127.777C194.686 127.79 194.715 127.807 194.753 127.832L196.916 124.467ZM195.597 123.891C194.568 123.69 193.741 124.079 193.221 124.448C192.747 124.784 192.355 125.227 192.128 125.481L195.109 128.148C195.234 128.008 195.326 127.908 195.408 127.827C195.446 127.788 195.477 127.76 195.5 127.74C195.511 127.73 195.52 127.723 195.526 127.718C195.532 127.713 195.535 127.711 195.535 127.711C195.535 127.711 195.531 127.714 195.524 127.718C195.516 127.723 195.505 127.729 195.489 127.737C195.458 127.753 195.409 127.775 195.342 127.795C195.196 127.838 195.015 127.853 194.831 127.817L195.597 123.891ZM192.149 125.458C192.011 125.608 191.908 125.719 191.808 125.818C191.71 125.914 191.644 125.97 191.6 126.002C191.522 126.06 191.6 125.982 191.772 125.982V129.982C192.712 129.982 193.447 129.608 193.968 129.226C194.45 128.872 194.85 128.429 195.088 128.171L192.149 125.458ZM191.772 125.982H191.757V129.982H191.772V125.982ZM191.757 125.982C191.879 125.982 191.937 126.015 191.894 125.996C191.873 125.987 191.839 125.97 191.783 125.939C191.726 125.906 191.664 125.868 191.576 125.813L189.456 129.205C189.744 129.385 190.627 129.982 191.757 129.982V125.982ZM191.545 125.794L191.471 125.75L189.413 129.18L189.487 129.224L191.545 125.794ZM191.463 125.745C187.107 123.159 181.368 123.247 177.087 125.933L179.214 129.321C182.231 127.427 186.361 127.368 189.421 129.184L191.463 125.745ZM177.041 125.963L176.864 126.081L179.083 129.409L179.26 129.291L177.041 125.963ZM176.892 126.063C176.678 126.2 176.539 126.287 176.409 126.354C176.287 126.417 176.228 126.433 176.211 126.436L177.017 130.354C177.941 130.164 178.687 129.664 179.055 129.428L176.892 126.063ZM176.241 126.43C176.212 126.436 176.134 126.446 175.941 126.389C175.719 126.324 175.476 126.214 175.072 126.024L173.369 129.644C174.004 129.943 175.387 130.664 176.987 130.36L176.241 126.43ZM175.059 126.018C174.593 125.803 173.62 125.313 172.562 125.26L172.363 129.255C172.487 129.261 172.696 129.333 173.383 129.65L175.059 126.018ZM172.578 125.261C171.19 125.181 169.933 125.842 169.292 126.156L171.053 129.748C171.919 129.324 172.199 129.246 172.347 129.254L172.578 125.261ZM169.313 126.146C168.816 126.383 168.501 126.528 168.214 126.608C167.963 126.678 167.862 126.659 167.815 126.646L166.739 130.499C168.591 131.016 170.262 130.125 171.033 129.758L169.313 126.146ZM167.826 126.65C167.8 126.642 167.732 126.617 167.597 126.521C167.443 126.412 167.291 126.279 167.028 126.048L164.394 129.058C164.78 129.396 165.595 130.172 166.728 130.496L167.826 126.65ZM167.034 126.054C166.651 125.715 165.712 124.808 164.427 124.615L163.834 128.571C163.736 128.556 163.725 128.524 163.839 128.601C163.969 128.688 164.117 128.814 164.388 129.053L167.034 126.054ZM164.459 124.62C163.854 124.519 163.2 124.621 163.089 124.632L163.487 128.613C163.533 128.608 163.576 128.603 163.614 128.599C163.654 128.595 163.685 128.592 163.717 128.588C163.781 128.581 163.821 128.578 163.852 128.576C163.916 128.571 163.882 128.579 163.801 128.566L164.459 124.62ZM163.059 124.636C162.958 124.647 162.888 124.655 162.823 124.661C162.76 124.667 162.72 124.669 162.693 124.669C162.641 124.669 162.666 124.663 162.724 124.681L161.548 128.505C162.396 128.766 163.199 128.646 163.517 128.609L163.059 124.636ZM162.685 124.67C162.717 124.679 162.682 124.676 162.557 124.588C162.424 124.495 162.283 124.375 162.053 124.177L159.441 127.207C159.784 127.502 160.566 128.224 161.586 128.516L162.685 124.67ZM162.057 124.18C161.765 123.928 161.294 123.515 160.763 123.257C160.077 122.924 159.172 122.789 158.25 123.264L160.082 126.82C159.926 126.9 159.707 126.964 159.456 126.955C159.223 126.947 159.067 126.88 159.017 126.856C158.975 126.835 158.987 126.835 159.076 126.903C159.164 126.969 159.274 127.062 159.437 127.203L162.057 124.18ZM158.272 123.253C157.887 123.445 157.598 123.711 157.509 123.788L160.143 126.798C160.172 126.773 160.189 126.758 160.203 126.747C160.216 126.736 160.218 126.734 160.213 126.738C160.204 126.745 160.15 126.786 160.061 126.831L158.272 123.253ZM157.577 123.731C157.513 123.782 157.492 123.799 157.473 123.813C157.459 123.823 157.473 123.811 157.507 123.793C157.543 123.773 157.602 123.745 157.68 123.721C157.76 123.697 157.845 123.682 157.931 123.679L158.097 127.675C159.191 127.63 159.906 126.991 160.076 126.855L157.577 123.731ZM158.097 123.679C158.328 123.688 158.588 123.774 158.809 123.946C159.003 124.098 159.084 124.251 159.102 124.289C159.121 124.326 159.112 124.319 159.091 124.233C159.07 124.148 159.052 124.048 159.025 123.893L155.082 124.566C155.124 124.814 155.223 125.463 155.511 126.049C155.85 126.741 156.602 127.62 157.931 127.675L158.097 123.679ZM159.015 123.837L158.985 123.689L155.063 124.474L155.092 124.621L159.015 123.837ZM158.993 123.729C158.655 121.844 157.069 120.432 155.318 120.081L154.534 124.004C154.851 124.067 155.038 124.34 155.055 124.434L158.993 123.729ZM155.279 120.074C153.583 119.77 151.792 120.418 150.62 121.66L153.53 124.405C153.835 124.081 154.29 123.961 154.574 124.011L155.279 120.074ZM150.605 121.676C150.357 121.945 150.145 122.217 149.96 122.47L153.185 124.836C153.325 124.646 153.438 124.505 153.544 124.389L150.605 121.676ZM149.986 122.435C149.864 122.594 149.768 122.717 149.676 122.825C149.586 122.93 149.519 122.997 149.47 123.04C149.382 123.117 149.406 123.07 149.503 123.058L150.008 127.026C151.777 126.801 152.772 125.376 153.159 124.871L149.986 122.435ZM149.534 123.054C149.577 123.049 149.626 123.054 149.665 123.066C149.696 123.075 149.687 123.078 149.634 123.043C149.579 123.006 149.498 122.943 149.383 122.835C149.265 122.725 149.144 122.6 148.986 122.435L146.093 125.196C146.378 125.496 146.849 125.997 147.427 126.379C148.058 126.796 148.92 127.147 149.976 127.029L149.534 123.054ZM148.977 122.425C148.651 122.088 147.903 121.243 146.875 120.843L145.426 124.571C145.401 124.562 145.445 124.573 145.578 124.688C145.72 124.811 145.863 124.959 146.101 125.206L148.977 122.425ZM146.897 120.852C145.677 120.361 144.513 120.603 143.711 120.919C142.906 121.238 142.247 121.713 141.841 122.046L144.374 125.142C144.617 124.943 144.912 124.746 145.181 124.64C145.454 124.532 145.486 124.596 145.404 124.563L146.897 120.852ZM141.841 122.046C141.036 122.704 140.209 123.602 139.638 124.67C139.065 125.743 138.685 127.125 139.053 128.611L142.936 127.648C142.875 127.405 142.901 127.051 143.167 126.555C143.434 126.054 143.878 125.548 144.374 125.142L141.841 122.046ZM139.067 128.665C139.173 129.044 139.315 129.404 139.411 129.652L143.139 128.202C143.029 127.918 142.964 127.747 142.921 127.594L139.067 128.665ZM139.403 129.629C139.542 130.001 139.575 130.055 139.622 130.215L143.46 129.087C143.359 128.745 143.186 128.326 143.148 128.225L139.403 129.629ZM139.618 130.201C139.848 131.006 139.609 131.985 138.919 133.686L142.626 135.189C143.266 133.611 144.12 131.399 143.464 129.102L139.618 130.201ZM138.918 133.691L137.145 138.093L140.855 139.588L142.628 135.185L138.918 133.691ZM139.232 140.827C140.232 140.71 141.238 140.698 142.238 140.8L142.646 136.821C141.342 136.688 140.043 136.705 138.768 136.854L139.232 140.827ZM142.264 140.803C143.203 140.887 144.018 141.091 144.496 141.534L147.214 138.6C145.683 137.181 143.661 136.912 142.621 136.819L142.264 140.803ZM144.501 141.539C144.625 141.653 144.75 141.866 144.789 142.086C144.825 142.291 144.765 142.324 144.792 142.29L147.893 144.816C148.763 143.749 148.917 142.459 148.728 141.39C148.541 140.336 148.001 139.323 147.209 138.594L144.501 141.539ZM144.715 142.391C144.746 142.348 144.771 142.318 144.785 142.302C144.799 142.287 144.806 142.28 144.801 142.285C144.799 142.287 144.795 142.291 144.787 142.298C144.78 142.305 144.772 142.313 144.76 142.325C144.749 142.335 144.734 142.35 144.718 142.365C144.702 142.38 144.683 142.399 144.662 142.42L147.491 145.248C147.496 145.243 147.504 145.235 147.531 145.21C147.552 145.189 147.59 145.153 147.629 145.113C147.706 145.037 147.839 144.899 147.97 144.716L144.715 142.391ZM144.662 142.42C144.586 142.496 144.396 142.682 144.228 142.898C144.057 143.118 143.795 143.508 143.687 144.047L147.609 144.832C147.577 144.995 147.523 145.121 147.48 145.204C147.437 145.285 147.399 145.336 147.386 145.354C147.372 145.371 147.369 145.372 147.39 145.351C147.412 145.327 147.439 145.3 147.491 145.248L144.662 142.42ZM143.68 144.082C143.554 144.776 143.697 145.586 144.295 146.25L147.268 143.575C147.404 143.726 147.527 143.933 147.591 144.186C147.654 144.432 147.643 144.646 147.616 144.797L143.68 144.082ZM144.237 146.184C144.852 146.93 145.79 147.326 146.697 147.326V143.326C146.82 143.326 146.923 143.353 147.01 143.392C147.094 143.43 147.211 143.503 147.325 143.641L144.237 146.184ZM146.697 147.326C147.36 147.326 147.942 147.152 148.277 147.054L147.157 143.214C146.98 143.266 146.877 143.294 146.793 143.311C146.717 143.327 146.692 143.326 146.697 143.326V147.326ZM148.226 147.068C148.522 146.99 148.699 146.946 148.87 146.92L148.277 142.964C147.857 143.027 147.473 143.13 147.208 143.2L148.226 147.068ZM148.812 146.928C148.8 146.929 148.793 146.929 148.791 146.929C148.79 146.929 148.79 146.929 148.79 146.929C148.79 146.929 148.79 146.929 148.789 146.929C148.789 146.929 148.789 146.929 148.787 146.928C148.786 146.928 148.784 146.928 148.781 146.926C148.775 146.924 148.762 146.92 148.744 146.91C148.684 146.878 148.409 146.695 148.342 146.277L152.292 145.645C152.107 144.49 151.329 143.752 150.612 143.373C149.907 143.001 149.09 142.866 148.335 142.956L148.812 146.928ZM152.317 145.961C152.317 145.903 152.319 145.983 152.308 146.079C152.294 146.206 152.262 146.35 152.203 146.497L148.489 145.012C148.302 145.481 148.317 145.894 148.317 145.961H152.317ZM152.244 146.387C152.205 146.504 152.153 146.559 152.167 146.542C152.175 146.533 152.195 146.512 152.236 146.474C152.278 146.435 152.328 146.39 152.401 146.328L149.798 143.291C149.527 143.523 148.78 144.129 148.449 145.122L152.244 146.387ZM152.389 146.338C153.406 145.481 154.258 144.938 155.086 144.847L154.648 140.871C152.521 141.105 150.862 142.394 149.811 143.28L152.389 146.338ZM155.095 144.846C155.39 144.812 155.765 144.88 156.059 145.042C156.34 145.196 156.402 145.345 156.417 145.411L160.319 144.532C159.995 143.091 159.015 142.102 157.985 141.536C156.969 140.978 155.762 140.743 154.639 140.872L155.095 144.846ZM156.428 145.457C156.424 145.439 156.422 145.43 156.422 145.429C156.422 145.429 156.423 145.434 156.425 145.447C156.427 145.46 156.429 145.477 156.432 145.502C156.434 145.514 156.435 145.526 156.437 145.541C156.439 145.555 156.441 145.572 156.443 145.589L160.412 145.093C160.404 145.03 160.375 144.751 160.309 144.486L156.428 145.457ZM156.45 145.638C156.475 145.809 156.558 146.685 157.152 147.386L160.205 144.802C160.365 144.991 160.419 145.162 160.43 145.2C160.435 145.219 160.434 145.22 160.429 145.19C160.423 145.159 160.416 145.118 160.405 145.044L156.45 145.638ZM157.124 147.353C157.642 147.993 158.311 148.232 158.764 148.33C159.181 148.42 159.607 148.427 159.798 148.433L159.923 144.435C159.797 144.431 159.722 144.429 159.658 144.424C159.596 144.419 159.587 144.415 159.609 144.42C159.632 144.425 159.72 144.446 159.837 144.508C159.963 144.574 160.107 144.68 160.233 144.836L157.124 147.353ZM159.75 148.431C159.891 148.439 159.982 148.444 160.065 148.452C160.144 148.46 160.178 148.467 160.184 148.469C160.189 148.47 160.148 148.461 160.083 148.427C160.013 148.39 159.931 148.332 159.856 148.251L162.791 145.533C161.774 144.435 160.295 144.455 159.972 144.437L159.75 148.431ZM159.843 148.237C159.79 148.179 159.753 148.122 159.73 148.076C159.707 148.033 159.7 148.007 159.701 148.011C159.703 148.016 159.71 148.041 159.72 148.1C159.725 148.128 159.73 148.161 159.737 148.203C159.743 148.245 159.749 148.288 159.757 148.342L163.717 147.776C163.675 147.488 163.581 146.403 162.803 145.547L159.843 148.237ZM159.76 148.363C159.779 148.487 159.826 148.847 159.926 149.181C160.036 149.546 160.27 150.11 160.82 150.563L163.363 147.476C163.662 147.722 163.748 147.998 163.758 148.031C163.764 148.051 163.76 148.045 163.751 147.991C163.74 147.93 163.732 147.874 163.714 147.755L159.76 148.363ZM160.803 150.549C161.418 151.067 162.101 151.172 162.532 151.188C162.934 151.203 163.334 151.143 163.508 151.12L162.979 147.155C162.859 147.171 162.789 147.181 162.727 147.186C162.668 147.192 162.659 147.19 162.681 147.191C162.717 147.192 163.046 147.209 163.38 147.49L160.803 150.549ZM163.492 151.122C163.551 151.115 163.61 151.108 163.669 151.1C163.728 151.093 163.787 151.085 163.846 151.078L163.35 147.109C163.291 147.116 163.232 147.124 163.173 147.131C163.114 147.138 163.055 147.146 162.996 147.153L163.492 151.122ZM163.794 151.084C164.096 151.054 164.453 151.125 164.959 151.398C165.498 151.689 166.041 152.114 166.745 152.671L169.227 149.534C168.587 149.028 167.763 148.367 166.858 147.878C165.92 147.372 164.755 146.97 163.403 147.103L163.794 151.084ZM166.749 152.674C167.402 153.188 168.232 153.853 169.126 154.315C170.073 154.803 171.254 155.154 172.607 154.88L171.816 150.959C171.633 150.996 171.395 150.985 170.961 150.76C170.474 150.509 169.959 150.111 169.223 149.531L166.749 152.674ZM172.604 154.881C173.078 154.786 173.509 154.63 173.859 154.482L172.307 150.796C172.096 150.885 171.936 150.935 171.819 150.959L172.604 154.881ZM173.767 154.519C173.941 154.455 174.065 154.41 174.186 154.371C174.301 154.334 174.378 154.315 174.43 154.305C174.521 154.289 174.474 154.312 174.384 154.279L175.771 150.527C174.283 149.977 172.884 150.584 172.4 150.76L173.767 154.519ZM174.357 154.268C174.277 154.238 174.263 154.198 174.325 154.272C174.36 154.313 174.406 154.376 174.47 154.475C174.538 154.579 174.602 154.686 174.696 154.842L178.118 152.771C177.871 152.363 177.203 151.08 175.798 150.537L174.357 154.268ZM174.68 154.814C174.849 155.104 175.198 155.733 175.714 156.221L178.46 153.313C178.474 153.326 178.449 153.305 178.383 153.207C178.315 153.106 178.245 152.987 178.135 152.799L174.68 154.814ZM178.967 155.447L179.588 153.734L175.827 152.372L175.206 154.086L178.967 155.447ZM179.591 153.725C179.608 153.677 179.617 153.653 179.624 153.636C179.63 153.621 179.63 153.623 179.623 153.636C179.609 153.664 179.564 153.743 179.476 153.832L176.648 151.003C176.103 151.548 175.893 152.186 175.824 152.38L179.591 153.725ZM179.418 153.887C179.308 153.989 179.167 154.075 179.007 154.128C178.853 154.178 178.73 154.182 178.666 154.178L178.876 150.184C178.145 150.145 177.354 150.349 176.705 150.948L179.418 153.887ZM178.618 154.175C178.497 154.166 178.433 154.135 178.414 154.125C178.392 154.112 178.36 154.092 178.322 154.046L181.406 151.498C180.802 150.767 179.884 150.261 178.924 150.187L178.618 154.175ZM178.337 154.064C178.349 154.078 178.373 154.109 178.41 154.166C178.448 154.223 178.488 154.292 178.541 154.385L182.014 152.4C181.891 152.184 181.681 151.823 181.391 151.48L178.337 154.064ZM178.547 154.395C178.703 154.663 179.008 155.201 179.522 155.651L182.156 152.641C182.187 152.668 182.189 152.678 182.162 152.639C182.129 152.593 182.087 152.526 182.009 152.391L178.547 154.395ZM179.512 155.642C180.497 156.516 181.716 156.619 182.651 156.451C183.583 156.283 184.469 155.818 185.138 155.186L182.391 152.278C182.336 152.331 182.259 152.386 182.169 152.433C182.078 152.479 181.998 152.504 181.942 152.514C181.885 152.524 181.883 152.514 181.929 152.524C181.983 152.535 182.077 152.57 182.166 152.65L179.512 155.642ZM185.11 155.212C185.808 154.578 186.304 153.824 186.67 153.276L183.341 151.057C182.939 151.661 182.696 152.001 182.419 152.253L185.11 155.212ZM186.66 153.289C186.942 152.874 187.183 152.529 187.444 152.222L184.399 149.628C183.98 150.12 183.63 150.631 183.351 151.043L186.66 153.289ZM187.427 152.242C187.667 151.968 187.961 151.759 188.211 151.66C188.328 151.613 188.406 151.602 188.446 151.601C188.479 151.6 188.487 151.605 188.488 151.605L190.092 147.941C188.888 147.414 187.681 147.566 186.735 147.942C185.802 148.312 185.004 148.937 184.416 149.608L187.427 152.242ZM188.478 151.601C188.489 151.606 188.546 151.634 188.661 151.738C188.785 151.85 188.913 151.99 189.116 152.216L192.094 149.546C191.763 149.177 191.091 148.385 190.102 147.945L188.478 151.601ZM189.102 152.201C189.426 152.569 190.268 153.622 191.596 153.902L192.42 149.988C192.566 150.018 192.614 150.079 192.541 150.018C192.504 149.987 192.451 149.938 192.375 149.858C192.298 149.776 192.215 149.683 192.107 149.561L189.102 152.201ZM191.651 153.913C191.844 153.948 192.013 153.961 192.126 153.968C192.288 153.979 192.275 153.976 192.372 153.983L192.679 149.995C192.61 149.99 192.548 149.986 192.5 149.983C192.445 149.98 192.417 149.979 192.386 149.977C192.328 149.973 192.336 149.971 192.366 149.977L191.651 153.913ZM192.525 153.989C192.56 153.989 192.587 153.989 192.613 153.989C192.638 153.989 192.659 153.99 192.676 153.99C192.712 153.991 192.727 153.992 192.731 153.993C192.735 153.993 192.679 153.988 192.598 153.957L194.048 150.229C193.38 149.969 192.743 149.989 192.525 149.989V153.989ZM192.615 153.963C192.557 153.941 192.508 153.911 192.471 153.884C192.438 153.858 192.427 153.843 192.439 153.857C192.453 153.873 192.48 153.91 192.526 153.982C192.575 154.059 192.624 154.144 192.698 154.272L196.164 152.276C195.953 151.909 195.354 150.722 194.031 150.222L192.615 153.963ZM192.7 154.276C192.81 154.466 193.114 155.036 193.564 155.486L196.392 152.658C196.418 152.683 196.408 152.681 196.36 152.607C196.338 152.573 196.312 152.53 196.278 152.472C196.241 152.409 196.21 152.356 196.162 152.272L192.7 154.276ZM193.564 155.486C193.789 155.711 194.032 155.9 194.23 156.044L196.583 152.809C196.456 152.717 196.403 152.669 196.392 152.658L193.564 155.486ZM194.182 156.008C194.305 156.104 194.375 156.158 194.433 156.209C194.488 156.258 194.486 156.263 194.462 156.231C194.434 156.195 194.362 156.09 194.313 155.92C194.261 155.736 194.258 155.546 194.293 155.382L198.204 156.22C198.425 155.188 198.059 154.348 197.636 153.797C197.279 153.331 196.81 152.984 196.631 152.845L194.182 156.008ZM194.293 155.382C194.322 155.247 194.373 155.127 194.435 155.027C194.493 154.932 194.551 154.873 194.58 154.845C194.607 154.819 194.618 154.814 194.592 154.832C194.562 154.853 194.525 154.877 194.442 154.928L196.548 158.329C196.719 158.222 197.909 157.595 198.204 156.22L194.293 155.382ZM194.503 154.892C194.174 155.079 193.808 155.337 193.491 155.689L196.464 158.365C196.45 158.381 196.438 158.392 196.432 158.398C196.425 158.404 196.423 158.406 196.425 158.404C196.427 158.403 196.433 158.398 196.444 158.391C196.454 158.384 196.469 158.375 196.487 158.365L194.503 154.892ZM193.396 155.803C192.724 156.671 192.745 157.654 192.909 158.316C193.072 158.969 193.411 159.529 193.76 159.942L196.817 157.362C196.766 157.302 196.773 157.279 196.791 157.352C196.812 157.434 196.877 157.841 196.559 158.251L193.396 155.803ZM193.74 159.919C193.947 160.171 194.166 160.388 194.302 160.524L197.131 157.696C196.971 157.536 196.895 157.458 196.836 157.386L193.74 159.919ZM194.302 160.524C194.492 160.714 194.594 160.818 194.674 160.917C194.742 161.002 194.756 161.037 194.757 161.04L198.479 159.574C198.11 158.639 197.44 158.005 197.131 157.696L194.302 160.524ZM194.785 161.108C194.771 161.075 194.774 161.072 194.788 161.13C194.794 161.157 194.801 161.191 194.81 161.239C194.819 161.289 194.828 161.338 194.84 161.408L198.779 160.713C198.747 160.527 198.668 160.004 198.45 159.505L194.785 161.108ZM194.854 161.479C194.886 161.628 194.956 161.988 195.076 162.324C195.206 162.689 195.454 163.209 195.965 163.639L198.541 160.579C198.771 160.773 198.842 160.975 198.843 160.978C198.844 160.982 198.837 160.962 198.822 160.899C198.815 160.869 198.807 160.835 198.797 160.79C198.787 160.741 198.779 160.703 198.765 160.641L194.854 161.479ZM195.967 163.641C196.633 164.2 197.376 164.316 197.903 164.316C198.374 164.316 198.842 164.218 199.058 164.178L198.314 160.247C198.165 160.276 198.074 160.293 197.991 160.305C197.911 160.317 197.89 160.316 197.903 160.316C197.918 160.316 198.002 160.317 198.125 160.353C198.257 160.393 198.405 160.465 198.539 160.578L195.967 163.641ZM199.06 164.177C199.217 164.147 199.32 164.129 199.412 164.117C199.499 164.106 199.541 164.106 199.556 164.107L199.737 160.111C199.144 160.084 198.599 160.193 198.312 160.248L199.06 164.177ZM199.579 164.108C199.611 164.109 199.696 164.118 199.882 164.22C200.093 164.335 200.312 164.497 200.672 164.769L203.083 161.577C202.531 161.16 201.329 160.165 199.714 160.11L199.579 164.108ZM200.706 164.794C200.888 164.925 201.263 165.211 201.566 165.413L203.784 162.085C203.555 161.932 203.399 161.805 203.048 161.551L200.706 164.794ZM201.596 165.433C202.194 165.816 202.87 166.011 203.486 166.069C204.089 166.126 204.818 166.069 205.494 165.75L203.786 162.133C203.83 162.112 203.863 162.101 203.883 162.095C203.903 162.09 203.915 162.088 203.916 162.088C203.918 162.087 203.914 162.088 203.903 162.088C203.892 162.089 203.878 162.088 203.862 162.087C203.826 162.083 203.793 162.076 203.766 162.067C203.754 162.063 203.747 162.06 203.744 162.059C203.741 162.057 203.745 162.059 203.754 162.065L201.596 165.433ZM205.496 165.749C206.291 165.372 206.935 164.657 207.1 163.664L203.155 163.007C203.186 162.819 203.268 162.617 203.411 162.439C203.548 162.267 203.695 162.176 203.784 162.134L205.496 165.749ZM206.792 162.226C206.757 162.174 206.726 162.133 206.715 162.117C206.695 162.09 206.711 162.112 206.723 162.129C206.761 162.183 206.871 162.346 206.951 162.585L203.156 163.85C203.251 164.133 203.383 164.332 203.446 164.423C203.462 164.445 203.475 164.464 203.483 164.474C203.487 164.48 203.491 164.484 203.493 164.487C203.495 164.491 203.496 164.491 203.496 164.492C203.499 164.496 203.483 164.475 203.463 164.445L206.792 162.226ZM206.842 162.323C206.909 162.455 206.95 162.618 206.952 162.788C206.953 162.947 206.919 163.059 206.902 163.105C206.886 163.147 206.88 163.149 206.911 163.099C206.942 163.049 206.987 162.985 207.065 162.878L203.84 160.513C203.693 160.713 203.355 161.164 203.15 161.719C202.913 162.359 202.82 163.223 203.265 164.112L206.842 162.323ZM207.094 162.838C207.191 162.699 207.395 162.413 207.557 162.103C207.716 161.796 207.953 161.253 207.923 160.574L203.927 160.748C203.919 160.571 203.948 160.436 203.971 160.359C203.992 160.284 204.013 160.247 204.01 160.254C204.006 160.26 203.992 160.287 203.955 160.342C203.917 160.4 203.875 160.461 203.811 160.553L207.094 162.838ZM207.925 160.661C207.925 160.083 207.733 159.627 207.593 159.355C207.462 159.1 207.293 158.857 207.235 158.769L203.907 160.988C203.961 161.069 203.988 161.108 204.015 161.151C204.039 161.19 204.042 161.197 204.036 161.184C204.029 161.171 203.925 160.974 203.925 160.661H207.925ZM207.235 158.769C207.207 158.727 207.186 158.695 207.165 158.664C207.145 158.633 207.13 158.609 207.117 158.589C207.091 158.548 207.085 158.534 207.087 158.537C207.089 158.542 207.104 158.574 207.117 158.627C207.131 158.682 207.142 158.751 207.142 158.829H203.142C203.142 159.948 203.764 160.774 203.907 160.988L207.235 158.769ZM207.142 158.829C207.142 159.238 206.913 159.476 206.825 159.543C206.753 159.598 206.692 159.618 206.605 159.618V155.618C205.823 155.618 205.031 155.881 204.401 156.361C203.755 156.853 203.142 157.697 203.142 158.829H207.142ZM206.605 159.618C206.617 159.618 206.67 159.62 206.792 159.656C206.921 159.694 207.068 159.752 207.294 159.846L208.841 156.158C208.409 155.977 207.575 155.618 206.605 155.618V159.618ZM207.28 159.84C207.359 159.875 207.581 159.973 207.828 160.043L208.927 156.197C208.957 156.206 208.97 156.211 208.954 156.205C208.947 156.202 208.936 156.198 208.919 156.191C208.901 156.183 208.882 156.175 208.855 156.164L207.28 159.84ZM207.671 159.991C208.537 160.318 209.681 160.547 210.782 160.04L209.106 156.408C209.186 156.371 209.258 156.352 209.311 156.343C209.338 156.339 209.358 156.337 209.372 156.337C209.386 156.336 209.393 156.337 209.393 156.337C209.393 156.337 209.387 156.336 209.373 156.334C209.36 156.332 209.34 156.328 209.313 156.322C209.259 156.309 209.184 156.287 209.084 156.249L207.671 159.991ZM210.838 160.012C211.636 159.613 212.184 158.861 212.334 158.678L209.238 156.145C209.16 156.24 209.111 156.301 209.055 156.367C209.004 156.428 208.97 156.467 208.945 156.492C208.888 156.551 208.927 156.496 209.049 156.435L210.838 160.012ZM212.352 158.655C212.458 158.521 212.524 158.44 212.585 158.37C212.643 158.305 212.665 158.289 212.656 158.295C212.644 158.305 212.587 158.348 212.487 158.384C212.381 158.423 212.271 158.438 212.176 158.434L212.35 154.438C210.489 154.357 209.473 155.849 209.22 156.167L212.352 158.655ZM212.138 158.432C212.006 158.424 211.912 158.393 211.865 158.374C211.82 158.356 211.811 158.346 211.839 158.365L214.105 155.069C213.704 154.793 213.119 154.486 212.388 154.44L212.138 158.432ZM211.801 158.338C211.816 158.349 211.877 158.392 211.967 158.604C212.072 158.852 212.147 159.154 212.268 159.662L216.159 158.735C215.982 157.992 215.653 156.186 214.143 155.095L211.801 158.338ZM212.261 159.633C212.287 159.751 212.337 159.984 212.419 160.23L216.214 158.965C216.213 158.961 216.208 158.947 216.2 158.913C216.191 158.876 216.181 158.835 216.166 158.765L212.261 159.633ZM212.375 160.076C212.538 160.741 212.841 161.511 213.344 162.167C213.847 162.824 214.719 163.564 215.98 163.606L216.111 159.608C216.271 159.613 216.401 159.666 216.479 159.714C216.545 159.755 216.553 159.779 216.52 159.735C216.488 159.693 216.439 159.617 216.387 159.5C216.336 159.386 216.292 159.255 216.259 159.12L212.375 160.076ZM215.976 163.606C217.188 163.647 218.066 163.013 218.583 162.477C219.099 161.943 219.451 161.315 219.673 160.862L216.081 159.101C216.014 159.24 215.944 159.367 215.873 159.476C215.801 159.588 215.743 159.659 215.705 159.699C215.665 159.74 215.674 159.719 215.742 159.685C215.822 159.644 215.954 159.603 216.114 159.608L215.976 163.606ZM219.677 160.855C220.226 159.723 220.663 158.515 220.951 157.247L217.049 156.363C216.834 157.312 216.504 158.231 216.078 159.109L219.677 160.855ZM219.316 154.83C218.916 154.766 218.676 154.727 218.451 154.657L217.274 158.481C217.817 158.647 218.345 158.726 218.684 158.78L219.316 154.83ZM218.415 154.647C217.735 154.451 217.089 154.013 216.467 153.515L213.969 156.639C214.676 157.205 215.833 158.066 217.31 158.491L218.415 154.647ZM216.455 153.505C213.051 150.827 210.746 146.801 210.152 142.511L206.19 143.059C206.925 148.372 209.762 153.329 213.981 156.649L216.455 153.505ZM210.152 142.515C210.109 142.193 210.07 141.891 210.044 141.614L206.061 141.976C206.095 142.349 206.144 142.727 206.189 143.055L210.152 142.515ZM210.04 141.574C209.902 140.325 209.734 138.63 208.864 137.138L205.409 139.154C205.78 139.79 205.908 140.606 206.065 142.016L210.04 141.574ZM208.861 137.132C208.132 135.894 206.827 134.952 205.384 134.699L204.693 138.639C204.935 138.681 205.255 138.891 205.413 139.16L208.861 137.132ZM205.403 134.702C204.714 134.574 203.454 134.522 202.324 135.446L204.857 138.542C204.832 138.563 204.798 138.584 204.759 138.601C204.721 138.617 204.689 138.625 204.667 138.628C204.632 138.634 204.632 138.627 204.675 138.635L205.403 134.702ZM202.311 135.457C202.701 135.132 203.156 135.053 203.514 135.098L203.018 139.067C203.613 139.141 204.304 139.003 204.871 138.53L202.311 135.457ZM203.514 135.098C204.071 135.167 204.495 135.501 204.722 135.898L201.249 137.883C201.594 138.486 202.224 138.968 203.018 139.067L203.514 135.098ZM204.674 135.819C204.688 135.841 204.697 135.865 204.7 135.883C204.704 135.9 204.701 135.903 204.703 135.889C204.707 135.861 204.732 135.763 204.852 135.634L201.917 132.917C200.697 134.234 200.223 136.27 201.297 137.962L204.674 135.819ZM204.863 135.622C204.956 135.52 205.037 135.48 205.073 135.467C205.108 135.455 205.088 135.471 205.028 135.455L206.054 131.589C204.472 131.169 202.911 131.825 201.906 132.928L204.863 135.622ZM207.419 134.21C207.732 133.355 207.689 132.428 207.689 132.044H203.689C203.689 132.355 203.691 132.521 203.68 132.682C203.671 132.826 203.655 132.856 203.663 132.833L207.419 134.21ZM207.689 132.044C207.689 131.55 207.695 131.258 207.741 131.021L203.814 130.261C203.683 130.94 203.689 131.623 203.689 132.044H207.689ZM207.737 131.042C207.724 131.103 207.704 131.111 207.737 131.073C207.752 131.055 207.775 131.031 207.807 131.006C207.839 130.98 207.875 130.957 207.91 130.938L206.008 127.419C205.125 127.896 204.106 128.833 203.818 130.24L207.737 131.042ZM208.928 129.533C209.168 128.199 208.414 127.226 207.978 126.778C207.497 126.284 206.931 125.934 206.583 125.737L204.618 129.221C204.719 129.278 204.823 129.343 204.918 129.41C205.016 129.479 205.08 129.535 205.113 129.57C205.153 129.61 205.111 129.58 205.062 129.471C205.004 129.343 204.94 129.109 204.991 128.824L208.928 129.533Z" fill="white" mask="url(#path-4-inside-1_639_311)"/>
</g>
<defs>
<filter id="filter0_d_639_311" x="0" y="0" width="361" height="357" filterUnits="userSpaceOnUse" color-interpolation-filters="sRGB">
<feFlood flood-opacity="0" result="BackgroundImageFix"/>
<feColorMatrix in="SourceAlpha" type="matrix" values="0 0 0 0 0 0 0 0 0 0 0 0 0 0 0 0 0 0 127 0" result="hardAlpha"/>
<feOffset dx="2" dy="2"/>
<feGaussianBlur stdDeviation="2"/>
<feComposite in2="hardAlpha" operator="out"/>
<feColorMatrix type="matrix" values="0 0 0 0 0 0 0 0 0 0 0 0 0 0 0 0 0 0 0.25 0"/>
<feBlend mode="normal" in2="BackgroundImageFix" result="effect1_dropShadow_639_311"/>
<feBlend mode="normal" in="SourceGraphic" in2="effect1_dropShadow_639_311" result="shape"/>
</filter>
<linearGradient id="paint0_linear_639_311" x1="144.488" y1="202.766" x2="213.512" y2="83.2345" gradientUnits="userSpaceOnUse">
<stop stop-color="#0460A9"/>
<stop offset="1" stop-color="#50E2D0"/>
</linearGradient>
</defs>
</svg>
