<svg width="361" height="357" viewBox="0 0 361 357" fill="none" xmlns="http://www.w3.org/2000/svg">
<g filter="url(#filter0_d_639_320)">
<rect x="2" y="2" width="353" height="349" rx="19.0804" fill="white"/>
<path d="M49.14 273V248.738H57.2162L60.1684 259.359C60.6096 260.886 61.5597 264.89 61.5597 264.89H61.6276C61.6276 264.89 62.5777 260.886 62.9849 259.359L65.9711 248.738H74.1151V273H68.6179V260.784C68.6179 259.8 68.7197 255.931 68.7197 255.931H68.6518C68.6518 255.931 67.8035 259.562 67.532 260.445L64.0368 273H59.0825L55.6213 260.479C55.3498 259.596 54.5015 255.931 54.5015 255.931H54.4336C54.4336 255.931 54.5354 259.834 54.5354 260.818V273H49.14ZM83.9892 269.912C86.0592 269.912 87.4844 268.657 87.4844 266.79V264.72C86.7718 265.093 85.7538 265.365 84.634 265.636C82.4962 266.111 81.6139 266.654 81.6139 267.978C81.6139 269.369 82.6319 269.912 83.9892 269.912ZM82.2247 273.441C78.7635 273.441 76.2863 271.575 76.2863 268.148C76.2863 264.313 79.3403 263.159 82.9373 262.684C86.1949 262.277 87.3487 261.938 87.3487 260.75C87.3487 259.63 86.6361 258.884 84.9733 258.884C83.2088 258.884 82.3265 259.664 82.1568 261.123H77.0668C77.2025 257.9 79.6797 255.151 84.9394 255.151C87.5523 255.151 89.3168 255.626 90.5723 256.576C92.0654 257.662 92.778 259.359 92.778 261.53V270.285C92.778 271.677 92.9138 272.457 93.3888 272.762V273H88.0273C87.7559 272.627 87.5862 271.948 87.4505 271.066H87.3826C86.3646 272.525 84.8376 273.441 82.2247 273.441ZM104.554 269.267C106.657 269.267 107.947 267.469 107.947 264.517C107.947 261.53 106.827 259.562 104.452 259.562C102.042 259.562 100.821 261.7 100.821 264.517C100.821 267.333 102.178 269.267 104.554 269.267ZM95.4593 278.735V255.626H100.753V257.73H100.855C102.042 256.169 103.739 255.117 106.114 255.117C110.729 255.117 113.546 259.087 113.546 264.313C113.546 269.946 110.526 273.543 105.979 273.543C103.739 273.543 102.144 272.661 101.058 271.202H100.99V278.735H95.4593ZM124.503 269.267C126.607 269.267 127.896 267.469 127.896 264.517C127.896 261.53 126.776 259.562 124.401 259.562C121.992 259.562 120.77 261.7 120.77 264.517C120.77 267.333 122.127 269.267 124.503 269.267ZM115.409 278.735V255.626H120.702V257.73H120.804C121.992 256.169 123.688 255.117 126.064 255.117C130.679 255.117 133.495 259.087 133.495 264.313C133.495 269.946 130.475 273.543 125.928 273.543C123.688 273.543 122.093 272.661 121.008 271.202H120.94V278.735H115.409ZM142.246 269.912C144.316 269.912 145.741 268.657 145.741 266.79V264.72C145.029 265.093 144.011 265.365 142.891 265.636C140.753 266.111 139.871 266.654 139.871 267.978C139.871 269.369 140.889 269.912 142.246 269.912ZM140.482 273.441C137.02 273.441 134.543 271.575 134.543 268.148C134.543 264.313 137.597 263.159 141.194 262.684C144.452 262.277 145.606 261.938 145.606 260.75C145.606 259.63 144.893 258.884 143.23 258.884C141.466 258.884 140.584 259.664 140.414 261.123H135.324C135.46 257.9 137.937 255.151 143.196 255.151C145.809 255.151 147.574 255.626 148.829 256.576C150.322 257.662 151.035 259.359 151.035 261.53V270.285C151.035 271.677 151.171 272.457 151.646 272.762V273H146.284C146.013 272.627 145.843 271.948 145.707 271.066H145.64C144.622 272.525 143.095 273.441 140.482 273.441ZM165.331 259.461H169.844C172.219 259.461 173.441 258.341 173.441 256.508C173.441 254.744 172.287 253.488 169.98 253.488H165.331V259.461ZM159.325 273V248.738H170.93C175.748 248.738 179.413 251.215 179.413 255.728C179.413 258.544 178.022 260.614 175.206 261.598V261.7C177.309 262.413 178.395 263.736 178.735 266.145C179.244 269.335 178.904 272.389 179.753 272.695V273H173.916C173.271 272.627 173.373 269.776 173 267.367C172.694 265.127 171.541 263.906 168.962 263.906H165.331V273H159.325ZM190.069 273.509C184.334 273.509 180.805 269.539 180.805 264.279C180.805 259.087 184.436 255.117 189.73 255.117C192.207 255.117 194.175 255.931 195.668 257.289C197.738 259.189 198.756 262.209 198.722 265.738H186.234C186.574 268.08 187.863 269.539 190.137 269.539C191.596 269.539 192.546 268.894 193.021 267.808H198.417C198.043 269.369 197.025 270.862 195.498 271.914C194.039 272.932 192.275 273.509 190.069 273.509ZM186.268 262.447H193.123C192.919 260.377 191.63 259.053 189.831 259.053C187.728 259.053 186.642 260.377 186.268 262.447ZM208.616 267.944C211.025 267.944 212.145 266.044 212.145 263.6C212.145 261.259 210.924 259.291 208.616 259.291C206.546 259.291 205.189 260.988 205.189 263.634C205.189 266.247 206.546 267.944 208.616 267.944ZM208.65 279.006C203.865 279.006 200.71 277.038 200.167 273.407H205.528C205.834 274.323 206.75 275.104 208.582 275.104C210.924 275.104 211.908 273.882 211.908 271.778V270.048H211.772C210.754 271.202 209.43 272.05 207.327 272.05C203.424 272.05 199.793 269.132 199.793 263.804C199.793 258.714 202.779 255.117 207.089 255.117C209.397 255.117 210.957 256.033 211.975 257.492H212.043V255.626H217.337V271.303C217.337 273.916 216.421 275.816 215.03 277.072C213.502 278.429 211.229 279.006 208.65 279.006ZM222.775 248.229C224.506 248.229 225.829 249.45 225.829 251.181C225.829 252.911 224.506 254.133 222.775 254.133C221.045 254.133 219.721 252.911 219.721 251.181C219.721 249.45 221.045 248.229 222.775 248.229ZM219.993 273V255.626H225.524V273H219.993ZM236.695 273.543C231.13 273.543 227.397 269.573 227.397 264.347C227.397 259.121 231.13 255.151 236.695 255.151C242.294 255.151 245.959 259.121 245.959 264.347C245.959 269.573 242.294 273.543 236.695 273.543ZM236.661 269.607C239.071 269.607 240.36 267.503 240.36 264.347C240.36 261.191 239.071 259.053 236.661 259.053C234.252 259.053 232.997 261.191 232.997 264.347C232.997 267.503 234.252 269.607 236.661 269.607ZM247.829 273V255.626H253.157V258.001H253.258C254.548 256.135 256.211 255.117 258.62 255.117C262.42 255.117 264.66 257.832 264.66 261.7V273H259.129V262.82C259.129 260.988 258.213 259.732 256.414 259.732C254.582 259.732 253.36 261.259 253.36 263.397V273H247.829ZM274.07 269.912C276.14 269.912 277.565 268.657 277.565 266.79V264.72C276.853 265.093 275.835 265.365 274.715 265.636C272.577 266.111 271.695 266.654 271.695 267.978C271.695 269.369 272.713 269.912 274.07 269.912ZM272.306 273.441C268.844 273.441 266.367 271.575 266.367 268.148C266.367 264.313 269.421 263.159 273.018 262.684C276.276 262.277 277.43 261.938 277.43 260.75C277.43 259.63 276.717 258.884 275.054 258.884C273.29 258.884 272.407 259.664 272.238 261.123H267.148C267.283 257.9 269.761 255.151 275.02 255.151C277.633 255.151 279.398 255.626 280.653 256.576C282.146 257.662 282.859 259.359 282.859 261.53V270.285C282.859 271.677 282.995 272.457 283.47 272.762V273H278.108C277.837 272.627 277.667 271.948 277.531 271.066H277.464C276.446 272.525 274.919 273.441 272.306 273.441ZM285.574 273V248.738H291.173V273H285.574ZM302.341 273.509C296.607 273.509 293.077 269.539 293.077 264.279C293.077 259.087 296.708 255.117 302.002 255.117C304.479 255.117 306.447 255.931 307.94 257.289C310.01 259.189 311.028 262.209 310.994 265.738H298.507C298.846 268.08 300.136 269.539 302.409 269.539C303.868 269.539 304.818 268.894 305.294 267.808H310.689C310.316 269.369 309.298 270.862 307.771 271.914C306.312 272.932 304.547 273.509 302.341 273.509ZM298.541 262.447H305.395C305.192 260.377 303.902 259.053 302.104 259.053C300 259.053 298.914 260.377 298.541 262.447ZM157.215 314.577C150.768 314.577 146.526 311.726 146.39 306.365H152.43C152.702 308.808 154.297 309.826 157.181 309.826C159.149 309.826 161.083 309.114 161.083 307.281C161.083 305.347 159.115 304.94 155.79 304.125C151.582 303.141 147.137 301.852 147.137 296.762C147.137 291.57 151.345 289.296 156.774 289.296C162.034 289.296 166.106 291.672 166.343 296.762H160.473C160.235 294.895 158.81 293.843 156.57 293.843C154.466 293.843 153.075 294.76 153.075 296.117C153.075 297.814 154.942 298.221 158.572 299.035C163.086 300.087 167.158 301.479 167.158 306.67C167.158 311.76 162.814 314.577 157.215 314.577ZM179.617 314.577C173.169 314.577 168.927 311.726 168.792 306.365H174.832C175.103 308.808 176.698 309.826 179.583 309.826C181.551 309.826 183.485 309.114 183.485 307.281C183.485 305.347 181.517 304.94 178.191 304.125C173.984 303.141 169.538 301.852 169.538 296.762C169.538 291.57 173.746 289.296 179.175 289.296C184.435 289.296 188.507 291.672 188.745 296.762H182.874C182.637 294.895 181.211 293.843 178.972 293.843C176.868 293.843 175.477 294.76 175.477 296.117C175.477 297.814 177.343 298.221 180.974 299.035C185.487 300.087 189.559 301.479 189.559 306.67C189.559 311.76 185.216 314.577 179.617 314.577ZM198.022 300.461H202.535C204.91 300.461 206.132 299.341 206.132 297.508C206.132 295.744 204.978 294.488 202.671 294.488H198.022V300.461ZM192.016 314V289.738H203.621C208.439 289.738 212.104 292.215 212.104 296.728C212.104 299.544 210.713 301.614 207.896 302.598V302.7C210 303.413 211.086 304.736 211.426 307.145C211.935 310.335 211.595 313.389 212.444 313.695V314H206.607C205.962 313.627 206.064 310.776 205.691 308.367C205.385 306.127 204.232 304.906 201.653 304.906H198.022V314H192.016Z" fill="#002068"/>
<path d="M179 212C217.108 212 248 181.108 248 143C248 104.892 217.108 74 179 74C140.892 74 110 104.892 110 143C110 181.108 140.892 212 179 212Z" fill="url(#paint0_linear_639_320)"/>
<mask id="path-4-inside-1_639_320" fill="white">
<path d="M216.2 157.832C212.273 154.264 208.214 150.563 203.359 148.201C202.139 147.604 200.852 147.1 199.605 146.596C198.358 146.092 197.058 145.575 195.824 144.978C194.073 144.129 192.402 143.094 190.783 142.099C190.306 141.807 189.815 141.502 189.338 141.21C182.241 136.926 174.082 133.251 164.386 129.962C162.528 129.338 160.578 128.436 160.207 126.579C159.849 124.762 161.175 123.448 162.462 122.175C163.497 121.14 164.571 120.079 164.717 118.792C164.903 117.094 163.311 115.608 161.719 115.197C159.942 114.733 158.018 115.184 156.333 115.569C152.606 116.431 147.711 117.545 143.32 116.418C143.121 116.484 142.936 116.617 142.79 116.829C142.577 117.134 142.485 117.505 142.392 117.903C142.246 118.58 142.113 119.27 142.007 119.933C141.888 120.676 141.835 121.498 142.325 121.989C142.471 122.135 142.657 122.241 142.856 122.361C143.161 122.546 143.479 122.732 143.665 123.064C143.824 123.355 143.838 123.7 143.692 124.032C143.493 124.509 143.002 124.934 142.471 125.093C142.06 125.213 141.636 125.239 141.224 125.252C140.84 125.279 140.468 125.292 140.11 125.385C139.672 125.504 139.261 125.836 139.089 126.207C138.982 126.433 138.969 126.658 139.062 126.857C139.168 127.096 139.407 127.269 139.646 127.454C139.739 127.521 139.818 127.587 139.911 127.653C140.561 128.184 140.959 129.006 140.986 129.842C140.986 129.842 140.986 129.855 140.986 129.869C141.41 129.895 141.821 130.041 142.14 130.306C142.776 130.824 143.028 131.766 142.763 132.535C142.737 132.601 142.71 132.668 142.684 132.734C142.63 132.853 142.591 132.959 142.564 133.079C142.458 133.702 143.161 134.246 143.891 134.419C144.063 134.458 144.222 134.498 144.395 134.525C145.031 134.657 145.681 134.79 146.146 135.268C146.769 135.918 146.716 136.833 146.663 137.708C146.623 138.491 146.584 139.234 146.968 139.791C147.605 140.706 148.971 140.627 150.338 140.415C151.346 140.255 153.07 140.176 153.787 141.29C153.919 141.051 154.092 140.839 154.291 140.64C154.901 140.056 155.71 139.712 156.413 139.406C156.506 139.367 156.652 139.3 156.811 139.34C157.01 139.38 157.143 139.552 157.209 139.658L157.965 140.733C158.642 139.499 159.504 138.664 160.486 138.332C161.189 138.08 162.011 138.146 162.701 138.478C163.258 138.756 163.656 139.194 163.815 139.725C164.014 140.348 163.908 140.985 163.789 141.608C163.682 142.179 163.59 142.709 163.722 143.227C163.868 143.784 164.359 144.248 165.009 144.434C165.659 144.62 166.322 144.474 166.734 144.063C166.8 143.996 166.866 143.93 166.932 143.85C167.238 143.519 167.569 143.147 168.06 143.24C168.272 143.28 168.445 143.399 168.564 143.585C168.803 143.983 168.75 144.606 168.617 145.071C168.511 145.455 168.485 145.973 168.657 146.238C168.723 146.331 168.803 146.384 168.922 146.397C169.015 146.397 169.081 146.477 169.095 146.556C169.174 147.206 170.488 147.1 170.753 147.074L170.992 147.047C171.668 146.968 172.424 146.875 172.955 147.379C173.234 147.644 173.366 148.016 173.499 148.374C173.658 148.811 173.791 149.183 174.149 149.289C174.653 149.435 175.104 148.838 175.343 148.48C175.608 148.069 176.072 147.313 176.842 147.339C177.571 147.379 177.929 148.148 178.089 148.626L179.176 147.777C179.282 147.697 179.535 147.498 179.813 147.591C180.012 147.657 180.105 147.843 180.158 147.976C180.476 148.772 180.37 149.634 180.251 150.47C180.185 151 180.105 151.557 180.145 152.075C180.33 154.131 182.227 155.51 184.018 156.651C184.27 156.413 184.509 156.16 184.788 155.935C186.565 154.476 188.648 153.773 190.518 153.998C190.571 153.998 190.611 154.025 190.651 154.038C190.876 154.171 191.022 154.383 191.075 154.661C191.128 155.02 190.996 155.431 190.73 155.723C190.571 155.895 190.399 156.015 190.24 156.134C190.067 156.253 189.908 156.373 189.802 156.519C189.59 156.797 189.682 157.182 189.828 157.421C189.974 157.659 190.253 157.925 190.611 157.872C193.543 157.407 196.408 158.137 199.194 158.827C200.772 159.225 202.417 159.636 204.036 159.822C204.566 159.888 205.176 159.954 205.72 160.273C206.98 161.016 207.14 162.568 207.272 163.947C207.299 164.199 207.312 164.438 207.352 164.677C207.816 168.404 211.239 171.575 214.993 171.76C215.338 171.774 215.722 171.76 216.014 171.601C216.611 171.256 216.611 170.527 216.531 169.359C216.505 168.935 216.478 168.484 216.505 168.059C216.598 166.932 217.208 165.977 217.805 165.061C218.362 164.199 218.893 163.39 218.986 162.461C219.158 160.737 217.765 159.211 216.24 157.819"/>
</mask>
<path d="M203.359 148.201L202.48 149.998L202.484 150L203.359 148.201ZM195.824 144.978L194.952 146.777L194.953 146.778L195.824 144.978ZM190.783 142.099L191.831 140.395L191.826 140.393L190.783 142.099ZM189.338 141.21L190.38 139.504L190.371 139.498L189.338 141.21ZM164.386 129.962L165.028 128.068L165.022 128.066L164.386 129.962ZM160.207 126.579L158.245 126.966L158.246 126.971L160.207 126.579ZM162.462 122.175L163.869 123.596L163.876 123.589L162.462 122.175ZM164.717 118.792L166.704 119.017L166.705 119.01L164.717 118.792ZM161.719 115.197L161.214 117.132L161.219 117.134L161.719 115.197ZM156.333 115.569L155.888 113.619L155.883 113.62L156.333 115.569ZM143.32 116.418L143.818 114.481L143.247 114.334L142.688 114.52L143.32 116.418ZM142.79 116.829L144.431 117.971L144.438 117.962L142.79 116.829ZM142.392 117.903L140.444 117.449L140.44 117.465L140.437 117.482L142.392 117.903ZM142.007 119.933L143.982 120.25L143.982 120.249L142.007 119.933ZM142.856 122.361L143.896 120.652L143.885 120.646L142.856 122.361ZM143.665 123.064L145.421 122.106L145.416 122.096L145.41 122.086L143.665 123.064ZM143.692 124.032L141.861 123.226L141.853 123.244L141.846 123.263L143.692 124.032ZM142.471 125.093L143.029 127.014L143.037 127.011L143.046 127.009L142.471 125.093ZM141.224 125.252L141.16 123.253L141.123 123.255L141.087 123.257L141.224 125.252ZM140.11 125.385L139.608 123.449L139.596 123.452L139.584 123.455L140.11 125.385ZM139.089 126.207L140.898 127.059L140.903 127.05L139.089 126.207ZM139.062 126.857L140.89 126.045L140.882 126.028L140.874 126.012L139.062 126.857ZM139.646 127.454L138.418 129.033L138.45 129.058L138.483 129.082L139.646 127.454ZM139.911 127.653L141.176 126.104L141.126 126.063L141.074 126.026L139.911 127.653ZM140.986 129.842H142.986V129.81L142.985 129.779L140.986 129.842ZM140.986 129.869H138.986V131.748L140.861 131.865L140.986 129.869ZM142.14 130.306L140.859 131.843L140.869 131.851L140.878 131.859L142.14 130.306ZM142.763 132.535L144.62 133.278L144.638 133.233L144.654 133.187L142.763 132.535ZM142.684 132.734L144.511 133.546L144.526 133.512L144.54 133.477L142.684 132.734ZM142.564 133.079L140.612 132.645L140.601 132.694L140.592 132.743L142.564 133.079ZM143.891 134.419L143.431 136.365L143.441 136.367L143.891 134.419ZM144.395 134.525L144.803 132.567L144.751 132.556L144.699 132.548L144.395 134.525ZM146.146 135.268L147.589 133.883L147.58 133.873L146.146 135.268ZM146.663 137.708L144.667 137.587L144.666 137.597L144.666 137.607L146.663 137.708ZM146.968 139.791L145.322 140.927L145.326 140.933L146.968 139.791ZM150.338 140.415L150.645 142.391L150.65 142.39L150.338 140.415ZM153.787 141.29L152.104 142.372L153.912 145.183L155.535 142.261L153.787 141.29ZM154.291 140.64L152.908 139.195L152.892 139.21L152.876 139.226L154.291 140.64ZM156.413 139.406L155.625 137.568L155.617 137.572L156.413 139.406ZM156.811 139.34L156.326 141.28L156.372 141.292L156.419 141.301L156.811 139.34ZM157.209 139.658L155.513 140.718L155.542 140.765L155.573 140.809L157.209 139.658ZM157.965 140.733L156.33 141.884L158.176 144.508L159.719 141.695L157.965 140.733ZM160.486 138.332L161.126 140.227L161.143 140.221L161.16 140.215L160.486 138.332ZM162.701 138.478L163.595 136.689L163.581 136.682L163.567 136.675L162.701 138.478ZM163.815 139.725L161.899 140.299L161.905 140.316L161.91 140.333L163.815 139.725ZM163.789 141.608L161.824 141.232L161.822 141.243L163.789 141.608ZM163.722 143.227L161.785 143.724L161.788 143.734L163.722 143.227ZM166.734 144.063L168.148 145.477L166.734 144.063ZM166.932 143.85L165.461 142.496L165.427 142.532L165.396 142.57L166.932 143.85ZM168.06 143.24L167.688 145.205L167.691 145.206L168.06 143.24ZM168.564 143.585L170.279 142.556L170.263 142.529L170.246 142.503L168.564 143.585ZM168.617 145.071L166.694 144.521L166.692 144.53L166.689 144.539L168.617 145.071ZM168.657 146.238L166.98 147.328L167.004 147.365L167.03 147.4L168.657 146.238ZM168.922 146.397L168.701 148.385L168.812 148.397H168.922V146.397ZM169.095 146.556L171.08 146.313L171.075 146.27L171.068 146.228L169.095 146.556ZM170.753 147.074L170.952 149.064L170.963 149.063L170.974 149.061L170.753 147.074ZM170.992 147.047L171.213 149.035L171.225 149.034L170.992 147.047ZM172.955 147.379L174.334 145.931L174.332 145.929L172.955 147.379ZM173.499 148.374L175.378 147.69L175.374 147.679L173.499 148.374ZM174.149 149.289L173.581 151.207L173.593 151.21L174.149 149.289ZM175.343 148.48L177.007 149.589L177.015 149.577L177.023 149.564L175.343 148.48ZM176.842 147.339L176.951 145.342L176.931 145.341L176.911 145.34L176.842 147.339ZM178.089 148.626L176.191 149.258L177.087 151.945L179.319 150.202L178.089 148.626ZM179.176 147.777L177.976 146.177L177.961 146.188L177.946 146.2L179.176 147.777ZM179.813 147.591L179.181 149.488L179.813 147.591ZM180.158 147.976L182.015 147.233L180.158 147.976ZM180.251 150.47L178.271 150.187L178.268 150.204L178.266 150.222L180.251 150.47ZM180.145 152.075L178.151 152.228L178.152 152.241L178.153 152.255L180.145 152.075ZM184.018 156.651L182.944 158.338L184.26 159.177L185.394 158.103L184.018 156.651ZM184.788 155.935L186.046 157.489L186.057 157.481L184.788 155.935ZM190.518 153.998L190.279 155.984L190.398 155.998H190.518V153.998ZM190.651 154.038L191.665 152.314L191.483 152.207L191.283 152.141L190.651 154.038ZM191.075 154.661L193.054 154.368L193.048 154.328L193.04 154.287L191.075 154.661ZM190.73 155.723L192.2 157.079L192.205 157.074L192.21 157.068L190.73 155.723ZM190.24 156.134L191.378 157.778L191.409 157.757L191.44 157.734L190.24 156.134ZM189.802 156.519L191.393 157.731L191.406 157.713L191.419 157.695L189.802 156.519ZM190.611 157.872L190.904 159.85L190.914 159.849L190.924 159.847L190.611 157.872ZM199.194 158.827L199.683 156.887L199.674 156.885L199.194 158.827ZM204.036 159.822L204.284 157.837L204.274 157.836L204.264 157.835L204.036 159.822ZM205.72 160.273L206.736 158.55L206.731 158.547L205.72 160.273ZM207.272 163.947L205.281 164.139L205.282 164.148L205.283 164.157L207.272 163.947ZM207.352 164.677L209.336 164.43L209.331 164.389L209.325 164.348L207.352 164.677ZM214.993 171.76L214.894 173.758L214.905 173.759L214.916 173.759L214.993 171.76ZM216.014 171.601L216.972 173.357L216.993 173.345L217.015 173.333L216.014 171.601ZM216.531 169.359L214.535 169.484L214.536 169.495L216.531 169.359ZM216.505 168.059L214.512 167.895L214.51 167.915L214.509 167.935L216.505 168.059ZM217.805 165.061L219.48 166.154L219.485 166.147L217.805 165.061ZM218.986 162.461L220.976 162.66L218.986 162.461ZM217.545 156.352C213.659 152.821 209.391 148.911 204.234 146.403L202.484 150C207.037 152.214 210.887 155.707 214.855 159.312L217.545 156.352ZM204.238 146.405C202.938 145.769 201.569 145.233 200.354 144.742L198.855 148.45C200.135 148.968 201.34 149.44 202.48 149.998L204.238 146.405ZM200.354 144.742C199.086 144.229 197.856 143.739 196.695 143.177L194.953 146.778C196.26 147.41 197.63 147.955 198.855 148.45L200.354 144.742ZM196.697 143.178C195.052 142.381 193.469 141.402 191.831 140.395L189.736 143.803C191.335 144.786 193.094 145.877 194.952 146.777L196.697 143.178ZM191.826 140.393C191.591 140.249 191.353 140.102 191.11 139.952C190.869 139.803 190.623 139.652 190.38 139.504L188.295 142.917C188.53 143.061 188.768 143.208 189.011 143.357C189.253 143.506 189.498 143.658 189.741 143.806L191.826 140.393ZM190.371 139.498C183.126 135.124 174.83 131.393 165.028 128.068L163.743 131.855C173.335 135.11 181.356 138.728 188.304 142.923L190.371 139.498ZM165.022 128.066C164.138 127.769 163.409 127.46 162.885 127.094C162.39 126.747 162.222 126.454 162.168 126.187L158.246 126.971C158.564 128.561 159.556 129.647 160.593 130.372C161.602 131.077 162.776 131.531 163.749 131.858L165.022 128.066ZM162.169 126.192C162.114 125.913 162.155 125.645 162.413 125.235C162.714 124.753 163.187 124.271 163.869 123.596L161.055 120.753C160.45 121.352 159.617 122.163 159.023 123.111C158.385 124.13 157.942 125.428 158.245 126.966L162.169 126.192ZM163.876 123.589C164.367 123.098 165.005 122.469 165.523 121.777C166.051 121.074 166.576 120.152 166.704 119.017L162.73 118.567C162.713 118.719 162.627 118.971 162.322 119.379C162.008 119.798 161.592 120.217 161.048 120.761L163.876 123.589ZM166.705 119.01C166.877 117.444 166.212 116.105 165.369 115.171C164.531 114.244 163.392 113.564 162.219 113.261L161.219 117.134C161.638 117.242 162.091 117.51 162.401 117.853C162.705 118.19 162.744 118.442 162.729 118.575L166.705 119.01ZM162.225 113.262C159.886 112.651 157.457 113.261 155.888 113.619L156.779 117.518C158.579 117.107 159.997 116.815 161.214 117.132L162.225 113.262ZM155.883 113.62C152.064 114.504 147.656 115.466 143.818 114.481L142.823 118.355C147.766 119.624 153.148 118.358 156.784 117.517L155.883 113.62ZM142.688 114.52C142.065 114.728 141.527 115.135 141.142 115.696L144.438 117.962C144.344 118.098 144.178 118.24 143.953 118.315L142.688 114.52ZM141.148 115.687C140.683 116.354 140.525 117.103 140.444 117.449L144.339 118.358C144.387 118.154 144.414 118.051 144.44 117.974C144.462 117.908 144.465 117.923 144.431 117.971L141.148 115.687ZM140.437 117.482C140.285 118.187 140.145 118.912 140.032 119.617L143.982 120.249C144.081 119.627 144.207 118.973 144.347 118.325L140.437 117.482ZM140.032 119.616C139.966 120.028 139.889 120.621 139.946 121.239C140.004 121.87 140.22 122.712 140.911 123.403L143.74 120.575C143.94 120.775 143.937 120.96 143.929 120.872C143.925 120.832 143.923 120.761 143.932 120.647C143.94 120.535 143.957 120.405 143.982 120.25L140.032 119.616ZM140.911 123.403C141.272 123.764 141.713 124.007 141.827 124.075L143.885 120.646C143.86 120.63 143.83 120.612 143.809 120.6C143.786 120.587 143.767 120.575 143.75 120.564C143.714 120.542 143.693 120.529 143.68 120.521C143.653 120.502 143.686 120.522 143.74 120.575L140.911 123.403ZM141.816 124.069C141.86 124.095 141.89 124.114 141.924 124.135C141.956 124.154 141.981 124.17 142.002 124.184C142.046 124.212 142.064 124.225 142.067 124.228C142.07 124.23 142.051 124.215 142.022 124.184C141.992 124.151 141.955 124.103 141.92 124.041L145.41 122.086C144.921 121.213 144.093 120.772 143.896 120.652L141.816 124.069ZM141.909 124.021C141.839 123.893 141.798 123.745 141.794 123.593C141.789 123.443 141.821 123.317 141.861 123.226L145.522 124.837C145.903 123.972 145.894 122.973 145.421 122.106L141.909 124.021ZM141.846 123.263C141.867 123.212 141.887 123.184 141.893 123.175C141.9 123.166 141.901 123.166 141.895 123.172C141.888 123.177 141.881 123.182 141.877 123.184C141.872 123.187 141.878 123.183 141.897 123.177L143.046 127.009C144.097 126.694 145.087 125.882 145.538 124.801L141.846 123.263ZM141.914 123.172C141.761 123.217 141.553 123.241 141.16 123.253L141.289 127.251C141.718 127.237 142.359 127.208 143.029 127.014L141.914 123.172ZM141.087 123.257C140.806 123.276 140.194 123.297 139.608 123.449L140.612 127.321C140.743 127.287 140.873 127.281 141.362 127.248L141.087 123.257ZM139.584 123.455C138.645 123.712 137.723 124.399 137.275 125.365L140.903 127.05C140.867 127.127 140.831 127.177 140.808 127.205C140.785 127.233 140.766 127.25 140.754 127.259C140.739 127.272 140.707 127.295 140.636 127.315L139.584 123.455ZM137.279 125.356C136.977 125.997 136.854 126.855 137.25 127.703L140.874 126.012C141.085 126.462 140.988 126.869 140.898 127.059L137.279 125.356ZM137.234 127.67C137.439 128.131 137.736 128.447 137.938 128.636C138.126 128.812 138.344 128.976 138.418 129.033L140.874 125.876C140.857 125.862 140.84 125.85 140.825 125.838C140.809 125.826 140.796 125.815 140.782 125.805C140.756 125.784 140.735 125.768 140.717 125.753C140.679 125.724 140.669 125.713 140.67 125.715C140.673 125.718 140.702 125.745 140.742 125.796C140.783 125.848 140.839 125.931 140.89 126.045L137.234 127.67ZM138.483 129.082C138.496 129.091 138.512 129.103 138.559 129.139C138.598 129.169 138.669 129.224 138.749 129.281L141.074 126.026C141.06 126.017 141.045 126.005 140.998 125.969C140.958 125.938 140.888 125.884 140.808 125.827L138.483 129.082ZM138.646 129.203C138.839 129.36 138.978 129.636 138.987 129.906L142.985 129.779C142.94 128.377 142.283 127.008 141.176 126.104L138.646 129.203ZM140.986 129.842C138.986 129.842 138.986 129.842 138.986 129.842C138.986 129.842 138.986 129.842 138.986 129.842C138.986 129.842 138.986 129.842 138.986 129.842C138.986 129.842 138.986 129.842 138.986 129.842V129.842C138.986 129.842 138.986 129.842 138.986 129.842C138.986 129.842 138.986 129.842 138.986 129.842C138.986 129.842 138.986 129.842 138.986 129.842C138.986 129.842 138.986 129.842 138.986 129.842C138.986 129.842 138.986 129.842 138.986 129.842C138.986 129.842 138.986 129.842 138.986 129.842C138.986 129.842 138.986 129.842 138.986 129.842C138.986 129.842 138.986 129.842 138.986 129.842C138.986 129.842 138.986 129.842 138.986 129.842C138.986 129.842 138.986 129.842 138.986 129.842C138.986 129.842 138.986 129.842 138.986 129.842C138.986 129.842 138.986 129.842 138.986 129.842C138.986 129.842 138.986 129.842 138.986 129.842C138.986 129.842 138.986 129.842 138.986 129.842C138.986 129.842 138.986 129.842 138.986 129.842C138.986 129.842 138.986 129.842 138.986 129.842C138.986 129.842 138.986 129.842 138.986 129.842C138.986 129.842 138.986 129.842 138.986 129.842C138.986 129.842 138.986 129.842 138.986 129.842C138.986 129.842 138.986 129.842 138.986 129.842C138.986 129.842 138.986 129.842 138.986 129.842C138.986 129.842 138.986 129.842 138.986 129.842C138.986 129.842 138.986 129.842 138.986 129.842C138.986 129.842 138.986 129.842 138.986 129.842C138.986 129.842 138.986 129.842 138.986 129.842C138.986 129.842 138.986 129.842 138.986 129.842C138.986 129.842 138.986 129.842 138.986 129.842C138.986 129.842 138.986 129.842 138.986 129.842C138.986 129.842 138.986 129.842 138.986 129.842C138.986 129.842 138.986 129.842 138.986 129.842C138.986 129.842 138.986 129.842 138.986 129.842C138.986 129.842 138.986 129.842 138.986 129.842C138.986 129.842 138.986 129.842 138.986 129.842C138.986 129.842 138.986 129.842 138.986 129.842C138.986 129.842 138.986 129.842 138.986 129.842C138.986 129.842 138.986 129.842 138.986 129.842C138.986 129.842 138.986 129.842 138.986 129.842C138.986 129.842 138.986 129.842 138.986 129.842C138.986 129.842 138.986 129.842 138.986 129.842C138.986 129.842 138.986 129.842 138.986 129.842C138.986 129.842 138.986 129.842 138.986 129.842C138.986 129.842 138.986 129.842 138.986 129.842C138.986 129.842 138.986 129.842 138.986 129.842C138.986 129.842 138.986 129.842 138.986 129.842C138.986 129.842 138.986 129.842 138.986 129.842C138.986 129.842 138.986 129.843 138.986 129.843C138.986 129.843 138.986 129.843 138.986 129.843C138.986 129.843 138.986 129.843 138.986 129.843C138.986 129.843 138.986 129.843 138.986 129.843C138.986 129.843 138.986 129.843 138.986 129.843C138.986 129.843 138.986 129.843 138.986 129.843C138.986 129.843 138.986 129.843 138.986 129.843C138.986 129.843 138.986 129.843 138.986 129.843C138.986 129.843 138.986 129.843 138.986 129.843C138.986 129.843 138.986 129.843 138.986 129.843C138.986 129.843 138.986 129.843 138.986 129.843C138.986 129.843 138.986 129.843 138.986 129.843C138.986 129.843 138.986 129.843 138.986 129.843C138.986 129.843 138.986 129.843 138.986 129.843C138.986 129.843 138.986 129.843 138.986 129.843C138.986 129.843 138.986 129.843 138.986 129.843C138.986 129.843 138.986 129.843 138.986 129.843C138.986 129.843 138.986 129.843 138.986 129.843C138.986 129.843 138.986 129.843 138.986 129.843C138.986 129.843 138.986 129.843 138.986 129.843C138.986 129.843 138.986 129.843 138.986 129.843C138.986 129.843 138.986 129.843 138.986 129.843C138.986 129.843 138.986 129.843 138.986 129.843C138.986 129.843 138.986 129.843 138.986 129.843C138.986 129.843 138.986 129.843 138.986 129.843C138.986 129.843 138.986 129.843 138.986 129.843C138.986 129.843 138.986 129.843 138.986 129.843C138.986 129.843 138.986 129.843 138.986 129.843C138.986 129.843 138.986 129.843 138.986 129.843C138.986 129.843 138.986 129.843 138.986 129.843C138.986 129.843 138.986 129.843 138.986 129.843C138.986 129.843 138.986 129.843 138.986 129.843C138.986 129.843 138.986 129.843 138.986 129.843C138.986 129.843 138.986 129.843 138.986 129.843C138.986 129.843 138.986 129.843 138.986 129.843C138.986 129.843 138.986 129.843 138.986 129.843C138.986 129.843 138.986 129.843 138.986 129.843C138.986 129.843 138.986 129.843 138.986 129.843C138.986 129.843 138.986 129.843 138.986 129.843C138.986 129.843 138.986 129.843 138.986 129.843C138.986 129.843 138.986 129.843 138.986 129.843C138.986 129.843 138.986 129.843 138.986 129.843C138.986 129.843 138.986 129.843 138.986 129.843C138.986 129.843 138.986 129.843 138.986 129.843C138.986 129.843 138.986 129.843 138.986 129.843C138.986 129.843 138.986 129.843 138.986 129.843C138.986 129.843 138.986 129.843 138.986 129.843C138.986 129.843 138.986 129.843 138.986 129.843C138.986 129.843 138.986 129.844 138.986 129.844C138.986 129.844 138.986 129.844 138.986 129.844C138.986 129.844 138.986 129.844 138.986 129.844C138.986 129.844 138.986 129.844 138.986 129.844C138.986 129.844 138.986 129.844 138.986 129.844C138.986 129.844 138.986 129.844 138.986 129.844C138.986 129.844 138.986 129.844 138.986 129.844C138.986 129.844 138.986 129.844 138.986 129.844C138.986 129.844 138.986 129.844 138.986 129.844C138.986 129.844 138.986 129.844 138.986 129.844C138.986 129.844 138.986 129.844 138.986 129.844C138.986 129.844 138.986 129.844 138.986 129.844C138.986 129.844 138.986 129.844 138.986 129.844C138.986 129.844 138.986 129.844 138.986 129.844C138.986 129.844 138.986 129.844 138.986 129.844C138.986 129.844 138.986 129.844 138.986 129.844C138.986 129.844 138.986 129.844 138.986 129.844C138.986 129.844 138.986 129.844 138.986 129.844C138.986 129.844 138.986 129.844 138.986 129.844C138.986 129.844 138.986 129.844 138.986 129.844C138.986 129.844 138.986 129.844 138.986 129.844C138.986 129.844 138.986 129.844 138.986 129.844C138.986 129.844 138.986 129.844 138.986 129.844C138.986 129.844 138.986 129.844 138.986 129.844C138.986 129.844 138.986 129.844 138.986 129.844C138.986 129.844 138.986 129.844 138.986 129.844C138.986 129.844 138.986 129.844 138.986 129.844C138.986 129.844 138.986 129.844 138.986 129.844C138.986 129.844 138.986 129.844 138.986 129.844C138.986 129.844 138.986 129.844 138.986 129.844C138.986 129.844 138.986 129.844 138.986 129.844C138.986 129.844 138.986 129.844 138.986 129.844C138.986 129.844 138.986 129.844 138.986 129.845C138.986 129.845 138.986 129.845 138.986 129.845C138.986 129.845 138.986 129.845 138.986 129.845C138.986 129.845 138.986 129.845 138.986 129.845C138.986 129.845 138.986 129.845 138.986 129.845C138.986 129.845 138.986 129.845 138.986 129.845C138.986 129.845 138.986 129.845 138.986 129.845C138.986 129.845 138.986 129.845 138.986 129.845C138.986 129.845 138.986 129.845 138.986 129.845C138.986 129.845 138.986 129.845 138.986 129.845C138.986 129.845 138.986 129.845 138.986 129.845C138.986 129.845 138.986 129.845 138.986 129.845C138.986 129.845 138.986 129.845 138.986 129.845C138.986 129.845 138.986 129.845 138.986 129.845C138.986 129.845 138.986 129.845 138.986 129.845C138.986 129.845 138.986 129.845 138.986 129.845C138.986 129.845 138.986 129.845 138.986 129.845C138.986 129.845 138.986 129.845 138.986 129.845C138.986 129.845 138.986 129.845 138.986 129.845C138.986 129.845 138.986 129.845 138.986 129.845C138.986 129.845 138.986 129.845 138.986 129.845C138.986 129.845 138.986 129.845 138.986 129.845C138.986 129.845 138.986 129.845 138.986 129.845C138.986 129.845 138.986 129.845 138.986 129.845C138.986 129.845 138.986 129.845 138.986 129.845C138.986 129.845 138.986 129.845 138.986 129.845C138.986 129.845 138.986 129.845 138.986 129.845C138.986 129.845 138.986 129.846 138.986 129.846C138.986 129.846 138.986 129.846 138.986 129.846C138.986 129.846 138.986 129.846 138.986 129.846C138.986 129.846 138.986 129.846 138.986 129.846C138.986 129.846 138.986 129.846 138.986 129.846C138.986 129.846 138.986 129.846 138.986 129.846C138.986 129.846 138.986 129.846 138.986 129.846C138.986 129.846 138.986 129.846 138.986 129.846C138.986 129.846 138.986 129.846 138.986 129.846C138.986 129.846 138.986 129.846 138.986 129.846C138.986 129.846 138.986 129.846 138.986 129.846C138.986 129.846 138.986 129.846 138.986 129.846C138.986 129.846 138.986 129.846 138.986 129.846C138.986 129.846 138.986 129.846 138.986 129.846C138.986 129.846 138.986 129.846 138.986 129.846C138.986 129.846 138.986 129.846 138.986 129.846C138.986 129.846 138.986 129.846 138.986 129.846C138.986 129.846 138.986 129.846 138.986 129.846C138.986 129.846 138.986 129.846 138.986 129.846C138.986 129.846 138.986 129.846 138.986 129.846C138.986 129.846 138.986 129.846 138.986 129.846C138.986 129.846 138.986 129.846 138.986 129.846C138.986 129.846 138.986 129.846 138.986 129.846C138.986 129.846 138.986 129.846 138.986 129.847C138.986 129.847 138.986 129.847 138.986 129.847C138.986 129.847 138.986 129.847 138.986 129.847C138.986 129.847 138.986 129.847 138.986 129.847C138.986 129.847 138.986 129.847 138.986 129.847C138.986 129.847 138.986 129.847 138.986 129.847C138.986 129.847 138.986 129.847 138.986 129.847C138.986 129.847 138.986 129.847 138.986 129.847C138.986 129.847 138.986 129.847 138.986 129.847C138.986 129.847 138.986 129.847 138.986 129.847C138.986 129.847 138.986 129.847 138.986 129.847C138.986 129.847 138.986 129.847 138.986 129.847C138.986 129.847 138.986 129.847 138.986 129.847C138.986 129.847 138.986 129.847 138.986 129.847C138.986 129.847 138.986 129.847 138.986 129.847C138.986 129.847 138.986 129.847 138.986 129.847C138.986 129.847 138.986 129.847 138.986 129.847C138.986 129.847 138.986 129.847 138.986 129.847C138.986 129.847 138.986 129.847 138.986 129.847C138.986 129.847 138.986 129.847 138.986 129.847C138.986 129.847 138.986 129.847 138.986 129.847C138.986 129.847 138.986 129.847 138.986 129.848C138.986 129.848 138.986 129.848 138.986 129.848C138.986 129.848 138.986 129.848 138.986 129.848C138.986 129.848 138.986 129.848 138.986 129.848C138.986 129.848 138.986 129.848 138.986 129.848C138.986 129.848 138.986 129.848 138.986 129.848C138.986 129.848 138.986 129.848 138.986 129.848C138.986 129.848 138.986 129.848 138.986 129.848C138.986 129.848 138.986 129.848 138.986 129.848C138.986 129.848 138.986 129.848 138.986 129.848C138.986 129.848 138.986 129.848 138.986 129.848C138.986 129.848 138.986 129.848 138.986 129.848C138.986 129.848 138.986 129.848 138.986 129.848C138.986 129.848 138.986 129.848 138.986 129.848C138.986 129.848 138.986 129.848 138.986 129.848C138.986 129.848 138.986 129.848 138.986 129.848C138.986 129.848 138.986 129.848 138.986 129.848C138.986 129.848 138.986 129.848 138.986 129.848C138.986 129.848 138.986 129.848 138.986 129.848C138.986 129.848 138.986 129.848 138.986 129.848C138.986 129.848 138.986 129.849 138.986 129.849C138.986 129.849 138.986 129.849 138.986 129.849C138.986 129.849 138.986 129.849 138.986 129.849C138.986 129.849 138.986 129.849 138.986 129.849C138.986 129.849 138.986 129.849 138.986 129.849C138.986 129.849 138.986 129.849 138.986 129.849C138.986 129.849 138.986 129.849 138.986 129.849C138.986 129.849 138.986 129.849 138.986 129.849C138.986 129.849 138.986 129.849 138.986 129.849C138.986 129.849 138.986 129.849 138.986 129.849C138.986 129.849 138.986 129.849 138.986 129.849C138.986 129.849 138.986 129.849 138.986 129.849C138.986 129.849 138.986 129.849 138.986 129.849C138.986 129.849 138.986 129.849 138.986 129.849C138.986 129.849 138.986 129.849 138.986 129.849C138.986 129.849 138.986 129.849 138.986 129.849C138.986 129.849 138.986 129.849 138.986 129.849C138.986 129.849 138.986 129.849 138.986 129.849C138.986 129.849 138.986 129.849 138.986 129.85C138.986 129.85 138.986 129.85 138.986 129.85C138.986 129.85 138.986 129.85 138.986 129.85C138.986 129.85 138.986 129.85 138.986 129.85C138.986 129.85 138.986 129.85 138.986 129.85C138.986 129.85 138.986 129.85 138.986 129.85C138.986 129.85 138.986 129.85 138.986 129.85C138.986 129.85 138.986 129.85 138.986 129.85C138.986 129.85 138.986 129.85 138.986 129.85C138.986 129.85 138.986 129.85 138.986 129.85C138.986 129.85 138.986 129.85 138.986 129.85C138.986 129.85 138.986 129.85 138.986 129.85C138.986 129.85 138.986 129.85 138.986 129.85C138.986 129.85 138.986 129.85 138.986 129.85C138.986 129.85 138.986 129.85 138.986 129.85C138.986 129.85 138.986 129.85 138.986 129.85C138.986 129.85 138.986 129.85 138.986 129.85C138.986 129.85 138.986 129.85 138.986 129.85C138.986 129.85 138.986 129.851 138.986 129.851C138.986 129.851 138.986 129.851 138.986 129.851C138.986 129.851 138.986 129.851 138.986 129.851C138.986 129.851 138.986 129.851 138.986 129.851C138.986 129.851 138.986 129.851 138.986 129.851C138.986 129.851 138.986 129.851 138.986 129.851C138.986 129.851 138.986 129.851 138.986 129.851C138.986 129.851 138.986 129.851 138.986 129.851C138.986 129.851 138.986 129.851 138.986 129.851C138.986 129.851 138.986 129.851 138.986 129.851C138.986 129.851 138.986 129.851 138.986 129.851C138.986 129.851 138.986 129.851 138.986 129.851C138.986 129.851 138.986 129.851 138.986 129.851C138.986 129.851 138.986 129.851 138.986 129.851C138.986 129.851 138.986 129.851 138.986 129.851C138.986 129.851 138.986 129.851 138.986 129.851C138.986 129.851 138.986 129.851 138.986 129.851C138.986 129.852 138.986 129.852 138.986 129.852C138.986 129.852 138.986 129.852 138.986 129.852C138.986 129.852 138.986 129.852 138.986 129.852C138.986 129.852 138.986 129.852 138.986 129.852C138.986 129.852 138.986 129.852 138.986 129.852C138.986 129.852 138.986 129.852 138.986 129.852C138.986 129.852 138.986 129.852 138.986 129.852C138.986 129.852 138.986 129.852 138.986 129.852C138.986 129.852 138.986 129.852 138.986 129.852C138.986 129.852 138.986 129.852 138.986 129.852C138.986 129.852 138.986 129.852 138.986 129.852C138.986 129.852 138.986 129.852 138.986 129.852C138.986 129.852 138.986 129.852 138.986 129.852C138.986 129.852 138.986 129.852 138.986 129.852C138.986 129.852 138.986 129.852 138.986 129.852C138.986 129.852 138.986 129.852 138.986 129.852C138.986 129.853 138.986 129.853 138.986 129.853C138.986 129.853 138.986 129.853 138.986 129.853C138.986 129.853 138.986 129.853 138.986 129.853C138.986 129.853 138.986 129.853 138.986 129.853C138.986 129.853 138.986 129.853 138.986 129.853C138.986 129.853 138.986 129.853 138.986 129.853C138.986 129.853 138.986 129.853 138.986 129.853C138.986 129.853 138.986 129.853 138.986 129.853C138.986 129.853 138.986 129.853 138.986 129.853C138.986 129.853 138.986 129.853 138.986 129.853C138.986 129.853 138.986 129.853 138.986 129.853C138.986 129.853 138.986 129.853 138.986 129.853C138.986 129.853 138.986 129.853 138.986 129.853C138.986 129.853 138.986 129.853 138.986 129.853C138.986 129.853 138.986 129.853 138.986 129.853C138.986 129.853 138.986 129.853 138.986 129.854C138.986 129.854 138.986 129.854 138.986 129.854C138.986 129.854 138.986 129.854 138.986 129.854C138.986 129.854 138.986 129.854 138.986 129.854C138.986 129.854 138.986 129.854 138.986 129.854C138.986 129.854 138.986 129.854 138.986 129.854C138.986 129.854 138.986 129.854 138.986 129.854C138.986 129.854 138.986 129.854 138.986 129.854C138.986 129.854 138.986 129.854 138.986 129.854C138.986 129.854 138.986 129.854 138.986 129.854C138.986 129.854 138.986 129.854 138.986 129.854C138.986 129.854 138.986 129.854 138.986 129.854C138.986 129.854 138.986 129.854 138.986 129.854C138.986 129.854 138.986 129.854 138.986 129.854C138.986 129.854 138.986 129.854 138.986 129.854C138.986 129.854 138.986 129.854 138.986 129.854C138.986 129.855 138.986 129.855 138.986 129.855C138.986 129.855 138.986 129.855 138.986 129.855C138.986 129.855 138.986 129.855 138.986 129.855C138.986 129.855 138.986 129.855 138.986 129.855C138.986 129.855 138.986 129.855 138.986 129.855C138.986 129.855 138.986 129.855 138.986 129.855C138.986 129.855 138.986 129.855 138.986 129.855C138.986 129.855 138.986 129.855 138.986 129.855C138.986 129.855 138.986 129.855 138.986 129.855C138.986 129.855 138.986 129.855 138.986 129.855C138.986 129.855 138.986 129.855 138.986 129.855C138.986 129.855 138.986 129.855 138.986 129.855C138.986 129.855 138.986 129.855 138.986 129.855C138.986 129.855 138.986 129.855 138.986 129.855C138.986 129.855 138.986 129.855 138.986 129.856C138.986 129.856 138.986 129.856 138.986 129.856C138.986 129.856 138.986 129.856 138.986 129.856C138.986 129.856 138.986 129.856 138.986 129.856C138.986 129.856 138.986 129.856 138.986 129.856C138.986 129.856 138.986 129.856 138.986 129.856C138.986 129.856 138.986 129.856 138.986 129.856C138.986 129.856 138.986 129.856 138.986 129.856C138.986 129.856 138.986 129.856 138.986 129.856C138.986 129.856 138.986 129.856 138.986 129.856C138.986 129.856 138.986 129.856 138.986 129.856C138.986 129.856 138.986 129.856 138.986 129.856C138.986 129.856 138.986 129.856 138.986 129.856C138.986 129.856 138.986 129.856 138.986 129.856C138.986 129.856 138.986 129.856 138.986 129.856C138.986 129.857 138.986 129.857 138.986 129.857C138.986 129.857 138.986 129.857 138.986 129.857C138.986 129.857 138.986 129.857 138.986 129.857C138.986 129.857 138.986 129.857 138.986 129.857C138.986 129.857 138.986 129.857 138.986 129.857C138.986 129.857 138.986 129.857 138.986 129.857C138.986 129.857 138.986 129.857 138.986 129.857C138.986 129.857 138.986 129.857 138.986 129.857C138.986 129.857 138.986 129.857 138.986 129.857C138.986 129.857 138.986 129.857 138.986 129.857C138.986 129.857 138.986 129.857 138.986 129.857C138.986 129.857 138.986 129.857 138.986 129.857C138.986 129.857 138.986 129.857 138.986 129.857C138.986 129.857 138.986 129.857 138.986 129.857C138.986 129.857 138.986 129.858 138.986 129.858C138.986 129.858 138.986 129.858 138.986 129.858C138.986 129.858 138.986 129.858 138.986 129.858C138.986 129.858 138.986 129.858 138.986 129.858C138.986 129.858 138.986 129.858 138.986 129.858C138.986 129.858 138.986 129.858 138.986 129.858C138.986 129.858 138.986 129.858 138.986 129.858C138.986 129.858 138.986 129.858 138.986 129.858C138.986 129.858 138.986 129.858 138.986 129.858C138.986 129.858 138.986 129.858 138.986 129.858C138.986 129.858 138.986 129.858 138.986 129.858C138.986 129.858 138.986 129.858 138.986 129.858C138.986 129.858 138.986 129.858 138.986 129.858C138.986 129.858 138.986 129.858 138.986 129.858C138.986 129.858 138.986 129.859 138.986 129.859C138.986 129.859 138.986 129.859 138.986 129.859C138.986 129.859 138.986 129.859 138.986 129.859C138.986 129.859 138.986 129.859 138.986 129.859C138.986 129.859 138.986 129.859 138.986 129.859C138.986 129.859 138.986 129.859 138.986 129.859C138.986 129.859 138.986 129.859 138.986 129.859C138.986 129.859 138.986 129.859 138.986 129.859C138.986 129.859 138.986 129.859 138.986 129.859C138.986 129.859 138.986 129.859 138.986 129.859C138.986 129.859 138.986 129.859 138.986 129.859C138.986 129.859 138.986 129.859 138.986 129.859C138.986 129.859 138.986 129.859 138.986 129.859C138.986 129.859 138.986 129.859 138.986 129.859C138.986 129.86 138.986 129.86 138.986 129.86C138.986 129.86 138.986 129.86 138.986 129.86C138.986 129.86 138.986 129.86 138.986 129.86C138.986 129.86 138.986 129.86 138.986 129.86C138.986 129.86 138.986 129.86 138.986 129.86C138.986 129.86 138.986 129.86 138.986 129.86C138.986 129.86 138.986 129.86 138.986 129.86C138.986 129.86 138.986 129.86 138.986 129.86C138.986 129.86 138.986 129.86 138.986 129.86C138.986 129.86 138.986 129.86 138.986 129.86C138.986 129.86 138.986 129.86 138.986 129.86C138.986 129.86 138.986 129.86 138.986 129.86C138.986 129.86 138.986 129.86 138.986 129.86C138.986 129.86 138.986 129.861 138.986 129.861C138.986 129.861 138.986 129.861 138.986 129.861C138.986 129.861 138.986 129.861 138.986 129.861C138.986 129.861 138.986 129.861 138.986 129.861C138.986 129.861 138.986 129.861 138.986 129.861C138.986 129.861 138.986 129.861 138.986 129.861C138.986 129.861 138.986 129.861 138.986 129.861C138.986 129.861 138.986 129.861 138.986 129.861C138.986 129.861 138.986 129.861 138.986 129.861C138.986 129.861 138.986 129.861 138.986 129.861C138.986 129.861 138.986 129.861 138.986 129.861C138.986 129.861 138.986 129.861 138.986 129.861C138.986 129.861 138.986 129.861 138.986 129.861C138.986 129.861 138.986 129.861 138.986 129.862C138.986 129.862 138.986 129.862 138.986 129.862C138.986 129.862 138.986 129.862 138.986 129.862C138.986 129.862 138.986 129.862 138.986 129.862C138.986 129.862 138.986 129.862 138.986 129.862C138.986 129.862 138.986 129.862 138.986 129.862C138.986 129.862 138.986 129.862 138.986 129.862C138.986 129.862 138.986 129.862 138.986 129.862C138.986 129.862 138.986 129.862 138.986 129.862C138.986 129.862 138.986 129.862 138.986 129.862C138.986 129.862 138.986 129.862 138.986 129.862C138.986 129.862 138.986 129.862 138.986 129.862C138.986 129.862 138.986 129.862 138.986 129.862C138.986 129.862 138.986 129.862 138.986 129.862C138.986 129.863 138.986 129.863 138.986 129.863C138.986 129.863 138.986 129.863 138.986 129.863C138.986 129.863 138.986 129.863 138.986 129.863C138.986 129.863 138.986 129.863 138.986 129.863C138.986 129.863 138.986 129.863 138.986 129.863C138.986 129.863 138.986 129.863 138.986 129.863C138.986 129.863 138.986 129.863 138.986 129.863C138.986 129.863 138.986 129.863 138.986 129.863C138.986 129.863 138.986 129.863 138.986 129.863C138.986 129.863 138.986 129.863 138.986 129.863C138.986 129.863 138.986 129.863 138.986 129.863C138.986 129.863 138.986 129.863 138.986 129.863C138.986 129.863 138.986 129.863 138.986 129.863C138.986 129.863 138.986 129.864 138.986 129.864C138.986 129.864 138.986 129.864 138.986 129.864C138.986 129.864 138.986 129.864 138.986 129.864C138.986 129.864 138.986 129.864 138.986 129.864C138.986 129.864 138.986 129.864 138.986 129.864C138.986 129.864 138.986 129.864 138.986 129.864C138.986 129.864 138.986 129.864 138.986 129.864C138.986 129.864 138.986 129.864 138.986 129.864C138.986 129.864 138.986 129.864 138.986 129.864C138.986 129.864 138.986 129.864 138.986 129.864C138.986 129.864 138.986 129.864 138.986 129.864C138.986 129.864 138.986 129.864 138.986 129.864C138.986 129.864 138.986 129.864 138.986 129.864C138.986 129.864 138.986 129.865 138.986 129.865C138.986 129.865 138.986 129.865 138.986 129.865C138.986 129.865 138.986 129.865 138.986 129.865C138.986 129.865 138.986 129.865 138.986 129.865C138.986 129.865 138.986 129.865 138.986 129.865C138.986 129.865 138.986 129.865 138.986 129.865C138.986 129.865 138.986 129.865 138.986 129.865C138.986 129.865 138.986 129.865 138.986 129.865C138.986 129.865 138.986 129.865 138.986 129.865C138.986 129.865 138.986 129.865 138.986 129.865C138.986 129.865 138.986 129.865 138.986 129.865C138.986 129.865 138.986 129.865 138.986 129.865C138.986 129.865 138.986 129.865 138.986 129.865C138.986 129.865 138.986 129.866 138.986 129.866C138.986 129.866 138.986 129.866 138.986 129.866C138.986 129.866 138.986 129.866 138.986 129.866C138.986 129.866 138.986 129.866 138.986 129.866C138.986 129.866 138.986 129.866 138.986 129.866C138.986 129.866 138.986 129.866 138.986 129.866C138.986 129.866 138.986 129.866 138.986 129.866C138.986 129.866 138.986 129.866 138.986 129.866C138.986 129.866 138.986 129.866 138.986 129.866C138.986 129.866 138.986 129.866 138.986 129.866C138.986 129.866 138.986 129.866 138.986 129.866C138.986 129.866 138.986 129.866 138.986 129.866C138.986 129.866 138.986 129.866 138.986 129.866C138.986 129.867 138.986 129.867 138.986 129.867C138.986 129.867 138.986 129.867 138.986 129.867C138.986 129.867 138.986 129.867 138.986 129.867C138.986 129.867 138.986 129.867 138.986 129.867C138.986 129.867 138.986 129.867 138.986 129.867C138.986 129.867 138.986 129.867 138.986 129.867C138.986 129.867 138.986 129.867 138.986 129.867C138.986 129.867 138.986 129.867 138.986 129.867C138.986 129.867 138.986 129.867 138.986 129.867C138.986 129.867 138.986 129.867 138.986 129.867C138.986 129.867 138.986 129.867 138.986 129.867C138.986 129.867 138.986 129.867 138.986 129.867C138.986 129.867 138.986 129.867 138.986 129.867C138.986 129.868 138.986 129.868 138.986 129.868C138.986 129.868 138.986 129.868 138.986 129.868C138.986 129.868 138.986 129.868 138.986 129.868C138.986 129.868 138.986 129.868 138.986 129.868C138.986 129.868 138.986 129.868 138.986 129.868C138.986 129.868 138.986 129.868 138.986 129.868C138.986 129.868 138.986 129.868 138.986 129.868C138.986 129.868 138.986 129.868 138.986 129.868C138.986 129.868 138.986 129.868 138.986 129.868C138.986 129.868 138.986 129.868 138.986 129.868C138.986 129.868 138.986 129.868 138.986 129.868C138.986 129.868 138.986 129.868 138.986 129.868C138.986 129.868 138.986 129.868 138.986 129.868C138.986 129.869 138.986 129.869 138.986 129.869C138.986 129.869 138.986 129.869 138.986 129.869H142.986C142.986 129.869 142.986 129.869 142.986 129.869C142.986 129.869 142.986 129.869 142.986 129.868C142.986 129.868 142.986 129.868 142.986 129.868C142.986 129.868 142.986 129.868 142.986 129.868C142.986 129.868 142.986 129.868 142.986 129.868C142.986 129.868 142.986 129.868 142.986 129.868C142.986 129.868 142.986 129.868 142.986 129.868C142.986 129.868 142.986 129.868 142.986 129.868C142.986 129.868 142.986 129.868 142.986 129.868C142.986 129.868 142.986 129.868 142.986 129.868C142.986 129.868 142.986 129.868 142.986 129.868C142.986 129.868 142.986 129.868 142.986 129.868C142.986 129.868 142.986 129.868 142.986 129.868C142.986 129.868 142.986 129.868 142.986 129.868C142.986 129.868 142.986 129.868 142.986 129.867C142.986 129.867 142.986 129.867 142.986 129.867C142.986 129.867 142.986 129.867 142.986 129.867C142.986 129.867 142.986 129.867 142.986 129.867C142.986 129.867 142.986 129.867 142.986 129.867C142.986 129.867 142.986 129.867 142.986 129.867C142.986 129.867 142.986 129.867 142.986 129.867C142.986 129.867 142.986 129.867 142.986 129.867C142.986 129.867 142.986 129.867 142.986 129.867C142.986 129.867 142.986 129.867 142.986 129.867C142.986 129.867 142.986 129.867 142.986 129.867C142.986 129.867 142.986 129.867 142.986 129.867C142.986 129.867 142.986 129.867 142.986 129.867C142.986 129.867 142.986 129.867 142.986 129.866C142.986 129.866 142.986 129.866 142.986 129.866C142.986 129.866 142.986 129.866 142.986 129.866C142.986 129.866 142.986 129.866 142.986 129.866C142.986 129.866 142.986 129.866 142.986 129.866C142.986 129.866 142.986 129.866 142.986 129.866C142.986 129.866 142.986 129.866 142.986 129.866C142.986 129.866 142.986 129.866 142.986 129.866C142.986 129.866 142.986 129.866 142.986 129.866C142.986 129.866 142.986 129.866 142.986 129.866C142.986 129.866 142.986 129.866 142.986 129.866C142.986 129.866 142.986 129.866 142.986 129.866C142.986 129.866 142.986 129.866 142.986 129.866C142.986 129.866 142.986 129.865 142.986 129.865C142.986 129.865 142.986 129.865 142.986 129.865C142.986 129.865 142.986 129.865 142.986 129.865C142.986 129.865 142.986 129.865 142.986 129.865C142.986 129.865 142.986 129.865 142.986 129.865C142.986 129.865 142.986 129.865 142.986 129.865C142.986 129.865 142.986 129.865 142.986 129.865C142.986 129.865 142.986 129.865 142.986 129.865C142.986 129.865 142.986 129.865 142.986 129.865C142.986 129.865 142.986 129.865 142.986 129.865C142.986 129.865 142.986 129.865 142.986 129.865C142.986 129.865 142.986 129.865 142.986 129.865C142.986 129.865 142.986 129.865 142.986 129.865C142.986 129.865 142.986 129.864 142.986 129.864C142.986 129.864 142.986 129.864 142.986 129.864C142.986 129.864 142.986 129.864 142.986 129.864C142.986 129.864 142.986 129.864 142.986 129.864C142.986 129.864 142.986 129.864 142.986 129.864C142.986 129.864 142.986 129.864 142.986 129.864C142.986 129.864 142.986 129.864 142.986 129.864C142.986 129.864 142.986 129.864 142.986 129.864C142.986 129.864 142.986 129.864 142.986 129.864C142.986 129.864 142.986 129.864 142.986 129.864C142.986 129.864 142.986 129.864 142.986 129.864C142.986 129.864 142.986 129.864 142.986 129.864C142.986 129.864 142.986 129.864 142.986 129.864C142.986 129.864 142.986 129.863 142.986 129.863C142.986 129.863 142.986 129.863 142.986 129.863C142.986 129.863 142.986 129.863 142.986 129.863C142.986 129.863 142.986 129.863 142.986 129.863C142.986 129.863 142.986 129.863 142.986 129.863C142.986 129.863 142.986 129.863 142.986 129.863C142.986 129.863 142.986 129.863 142.986 129.863C142.986 129.863 142.986 129.863 142.986 129.863C142.986 129.863 142.986 129.863 142.986 129.863C142.986 129.863 142.986 129.863 142.986 129.863C142.986 129.863 142.986 129.863 142.986 129.863C142.986 129.863 142.986 129.863 142.986 129.863C142.986 129.863 142.986 129.863 142.986 129.863C142.986 129.863 142.986 129.863 142.986 129.862C142.986 129.862 142.986 129.862 142.986 129.862C142.986 129.862 142.986 129.862 142.986 129.862C142.986 129.862 142.986 129.862 142.986 129.862C142.986 129.862 142.986 129.862 142.986 129.862C142.986 129.862 142.986 129.862 142.986 129.862C142.986 129.862 142.986 129.862 142.986 129.862C142.986 129.862 142.986 129.862 142.986 129.862C142.986 129.862 142.986 129.862 142.986 129.862C142.986 129.862 142.986 129.862 142.986 129.862C142.986 129.862 142.986 129.862 142.986 129.862C142.986 129.862 142.986 129.862 142.986 129.862C142.986 129.862 142.986 129.862 142.986 129.862C142.986 129.862 142.986 129.862 142.986 129.862C142.986 129.861 142.986 129.861 142.986 129.861C142.986 129.861 142.986 129.861 142.986 129.861C142.986 129.861 142.986 129.861 142.986 129.861C142.986 129.861 142.986 129.861 142.986 129.861C142.986 129.861 142.986 129.861 142.986 129.861C142.986 129.861 142.986 129.861 142.986 129.861C142.986 129.861 142.986 129.861 142.986 129.861C142.986 129.861 142.986 129.861 142.986 129.861C142.986 129.861 142.986 129.861 142.986 129.861C142.986 129.861 142.986 129.861 142.986 129.861C142.986 129.861 142.986 129.861 142.986 129.861C142.986 129.861 142.986 129.861 142.986 129.861C142.986 129.861 142.986 129.861 142.986 129.861C142.986 129.861 142.986 129.86 142.986 129.86C142.986 129.86 142.986 129.86 142.986 129.86C142.986 129.86 142.986 129.86 142.986 129.86C142.986 129.86 142.986 129.86 142.986 129.86C142.986 129.86 142.986 129.86 142.986 129.86C142.986 129.86 142.986 129.86 142.986 129.86C142.986 129.86 142.986 129.86 142.986 129.86C142.986 129.86 142.986 129.86 142.986 129.86C142.986 129.86 142.986 129.86 142.986 129.86C142.986 129.86 142.986 129.86 142.986 129.86C142.986 129.86 142.986 129.86 142.986 129.86C142.986 129.86 142.986 129.86 142.986 129.86C142.986 129.86 142.986 129.86 142.986 129.86C142.986 129.86 142.986 129.86 142.986 129.859C142.986 129.859 142.986 129.859 142.986 129.859C142.986 129.859 142.986 129.859 142.986 129.859C142.986 129.859 142.986 129.859 142.986 129.859C142.986 129.859 142.986 129.859 142.986 129.859C142.986 129.859 142.986 129.859 142.986 129.859C142.986 129.859 142.986 129.859 142.986 129.859C142.986 129.859 142.986 129.859 142.986 129.859C142.986 129.859 142.986 129.859 142.986 129.859C142.986 129.859 142.986 129.859 142.986 129.859C142.986 129.859 142.986 129.859 142.986 129.859C142.986 129.859 142.986 129.859 142.986 129.859C142.986 129.859 142.986 129.859 142.986 129.859C142.986 129.859 142.986 129.859 142.986 129.859C142.986 129.859 142.986 129.858 142.986 129.858C142.986 129.858 142.986 129.858 142.986 129.858C142.986 129.858 142.986 129.858 142.986 129.858C142.986 129.858 142.986 129.858 142.986 129.858C142.986 129.858 142.986 129.858 142.986 129.858C142.986 129.858 142.986 129.858 142.986 129.858C142.986 129.858 142.986 129.858 142.986 129.858C142.986 129.858 142.986 129.858 142.986 129.858C142.986 129.858 142.986 129.858 142.986 129.858C142.986 129.858 142.986 129.858 142.986 129.858C142.986 129.858 142.986 129.858 142.986 129.858C142.986 129.858 142.986 129.858 142.986 129.858C142.986 129.858 142.986 129.858 142.986 129.858C142.986 129.858 142.986 129.858 142.986 129.858C142.986 129.858 142.986 129.857 142.986 129.857C142.986 129.857 142.986 129.857 142.986 129.857C142.986 129.857 142.986 129.857 142.986 129.857C142.986 129.857 142.986 129.857 142.986 129.857C142.986 129.857 142.986 129.857 142.986 129.857C142.986 129.857 142.986 129.857 142.986 129.857C142.986 129.857 142.986 129.857 142.986 129.857C142.986 129.857 142.986 129.857 142.986 129.857C142.986 129.857 142.986 129.857 142.986 129.857C142.986 129.857 142.986 129.857 142.986 129.857C142.986 129.857 142.986 129.857 142.986 129.857C142.986 129.857 142.986 129.857 142.986 129.857C142.986 129.857 142.986 129.857 142.986 129.857C142.986 129.857 142.986 129.857 142.986 129.857C142.986 129.857 142.986 129.857 142.986 129.856C142.986 129.856 142.986 129.856 142.986 129.856C142.986 129.856 142.986 129.856 142.986 129.856C142.986 129.856 142.986 129.856 142.986 129.856C142.986 129.856 142.986 129.856 142.986 129.856C142.986 129.856 142.986 129.856 142.986 129.856C142.986 129.856 142.986 129.856 142.986 129.856C142.986 129.856 142.986 129.856 142.986 129.856C142.986 129.856 142.986 129.856 142.986 129.856C142.986 129.856 142.986 129.856 142.986 129.856C142.986 129.856 142.986 129.856 142.986 129.856C142.986 129.856 142.986 129.856 142.986 129.856C142.986 129.856 142.986 129.856 142.986 129.856C142.986 129.856 142.986 129.856 142.986 129.856C142.986 129.856 142.986 129.856 142.986 129.856C142.986 129.855 142.986 129.855 142.986 129.855C142.986 129.855 142.986 129.855 142.986 129.855C142.986 129.855 142.986 129.855 142.986 129.855C142.986 129.855 142.986 129.855 142.986 129.855C142.986 129.855 142.986 129.855 142.986 129.855C142.986 129.855 142.986 129.855 142.986 129.855C142.986 129.855 142.986 129.855 142.986 129.855C142.986 129.855 142.986 129.855 142.986 129.855C142.986 129.855 142.986 129.855 142.986 129.855C142.986 129.855 142.986 129.855 142.986 129.855C142.986 129.855 142.986 129.855 142.986 129.855C142.986 129.855 142.986 129.855 142.986 129.855C142.986 129.855 142.986 129.855 142.986 129.855C142.986 129.855 142.986 129.855 142.986 129.855C142.986 129.855 142.986 129.855 142.986 129.854C142.986 129.854 142.986 129.854 142.986 129.854C142.986 129.854 142.986 129.854 142.986 129.854C142.986 129.854 142.986 129.854 142.986 129.854C142.986 129.854 142.986 129.854 142.986 129.854C142.986 129.854 142.986 129.854 142.986 129.854C142.986 129.854 142.986 129.854 142.986 129.854C142.986 129.854 142.986 129.854 142.986 129.854C142.986 129.854 142.986 129.854 142.986 129.854C142.986 129.854 142.986 129.854 142.986 129.854C142.986 129.854 142.986 129.854 142.986 129.854C142.986 129.854 142.986 129.854 142.986 129.854C142.986 129.854 142.986 129.854 142.986 129.854C142.986 129.854 142.986 129.854 142.986 129.854C142.986 129.854 142.986 129.854 142.986 129.854C142.986 129.854 142.986 129.854 142.986 129.854C142.986 129.853 142.986 129.853 142.986 129.853C142.986 129.853 142.986 129.853 142.986 129.853C142.986 129.853 142.986 129.853 142.986 129.853C142.986 129.853 142.986 129.853 142.986 129.853C142.986 129.853 142.986 129.853 142.986 129.853C142.986 129.853 142.986 129.853 142.986 129.853C142.986 129.853 142.986 129.853 142.986 129.853C142.986 129.853 142.986 129.853 142.986 129.853C142.986 129.853 142.986 129.853 142.986 129.853C142.986 129.853 142.986 129.853 142.986 129.853C142.986 129.853 142.986 129.853 142.986 129.853C142.986 129.853 142.986 129.853 142.986 129.853C142.986 129.853 142.986 129.853 142.986 129.853C142.986 129.853 142.986 129.853 142.986 129.853C142.986 129.853 142.986 129.853 142.986 129.853C142.986 129.853 142.986 129.853 142.986 129.852C142.986 129.852 142.986 129.852 142.986 129.852C142.986 129.852 142.986 129.852 142.986 129.852C142.986 129.852 142.986 129.852 142.986 129.852C142.986 129.852 142.986 129.852 142.986 129.852C142.986 129.852 142.986 129.852 142.986 129.852C142.986 129.852 142.986 129.852 142.986 129.852C142.986 129.852 142.986 129.852 142.986 129.852C142.986 129.852 142.986 129.852 142.986 129.852C142.986 129.852 142.986 129.852 142.986 129.852C142.986 129.852 142.986 129.852 142.986 129.852C142.986 129.852 142.986 129.852 142.986 129.852C142.986 129.852 142.986 129.852 142.986 129.852C142.986 129.852 142.986 129.852 142.986 129.852C142.986 129.852 142.986 129.852 142.986 129.852C142.986 129.852 142.986 129.852 142.986 129.852C142.986 129.852 142.986 129.852 142.986 129.851C142.986 129.851 142.986 129.851 142.986 129.851C142.986 129.851 142.986 129.851 142.986 129.851C142.986 129.851 142.986 129.851 142.986 129.851C142.986 129.851 142.986 129.851 142.986 129.851C142.986 129.851 142.986 129.851 142.986 129.851C142.986 129.851 142.986 129.851 142.986 129.851C142.986 129.851 142.986 129.851 142.986 129.851C142.986 129.851 142.986 129.851 142.986 129.851C142.986 129.851 142.986 129.851 142.986 129.851C142.986 129.851 142.986 129.851 142.986 129.851C142.986 129.851 142.986 129.851 142.986 129.851C142.986 129.851 142.986 129.851 142.986 129.851C142.986 129.851 142.986 129.851 142.986 129.851C142.986 129.851 142.986 129.851 142.986 129.851C142.986 129.851 142.986 129.851 142.986 129.851C142.986 129.851 142.986 129.851 142.986 129.851C142.986 129.851 142.986 129.85 142.986 129.85C142.986 129.85 142.986 129.85 142.986 129.85C142.986 129.85 142.986 129.85 142.986 129.85C142.986 129.85 142.986 129.85 142.986 129.85C142.986 129.85 142.986 129.85 142.986 129.85C142.986 129.85 142.986 129.85 142.986 129.85C142.986 129.85 142.986 129.85 142.986 129.85C142.986 129.85 142.986 129.85 142.986 129.85C142.986 129.85 142.986 129.85 142.986 129.85C142.986 129.85 142.986 129.85 142.986 129.85C142.986 129.85 142.986 129.85 142.986 129.85C142.986 129.85 142.986 129.85 142.986 129.85C142.986 129.85 142.986 129.85 142.986 129.85C142.986 129.85 142.986 129.85 142.986 129.85C142.986 129.85 142.986 129.85 142.986 129.85C142.986 129.85 142.986 129.85 142.986 129.85C142.986 129.85 142.986 129.85 142.986 129.85C142.986 129.85 142.986 129.85 142.986 129.85C142.986 129.849 142.986 129.849 142.986 129.849C142.986 129.849 142.986 129.849 142.986 129.849C142.986 129.849 142.986 129.849 142.986 129.849C142.986 129.849 142.986 129.849 142.986 129.849C142.986 129.849 142.986 129.849 142.986 129.849C142.986 129.849 142.986 129.849 142.986 129.849C142.986 129.849 142.986 129.849 142.986 129.849C142.986 129.849 142.986 129.849 142.986 129.849C142.986 129.849 142.986 129.849 142.986 129.849C142.986 129.849 142.986 129.849 142.986 129.849C142.986 129.849 142.986 129.849 142.986 129.849C142.986 129.849 142.986 129.849 142.986 129.849C142.986 129.849 142.986 129.849 142.986 129.849C142.986 129.849 142.986 129.849 142.986 129.849C142.986 129.849 142.986 129.849 142.986 129.849C142.986 129.849 142.986 129.849 142.986 129.849C142.986 129.849 142.986 129.849 142.986 129.849C142.986 129.849 142.986 129.849 142.986 129.849C142.986 129.849 142.986 129.848 142.986 129.848C142.986 129.848 142.986 129.848 142.986 129.848C142.986 129.848 142.986 129.848 142.986 129.848C142.986 129.848 142.986 129.848 142.986 129.848C142.986 129.848 142.986 129.848 142.986 129.848C142.986 129.848 142.986 129.848 142.986 129.848C142.986 129.848 142.986 129.848 142.986 129.848C142.986 129.848 142.986 129.848 142.986 129.848C142.986 129.848 142.986 129.848 142.986 129.848C142.986 129.848 142.986 129.848 142.986 129.848C142.986 129.848 142.986 129.848 142.986 129.848C142.986 129.848 142.986 129.848 142.986 129.848C142.986 129.848 142.986 129.848 142.986 129.848C142.986 129.848 142.986 129.848 142.986 129.848C142.986 129.848 142.986 129.848 142.986 129.848C142.986 129.848 142.986 129.848 142.986 129.848C142.986 129.848 142.986 129.848 142.986 129.848C142.986 129.848 142.986 129.848 142.986 129.848C142.986 129.848 142.986 129.848 142.986 129.848C142.986 129.848 142.986 129.848 142.986 129.848C142.986 129.847 142.986 129.847 142.986 129.847C142.986 129.847 142.986 129.847 142.986 129.847C142.986 129.847 142.986 129.847 142.986 129.847C142.986 129.847 142.986 129.847 142.986 129.847C142.986 129.847 142.986 129.847 142.986 129.847C142.986 129.847 142.986 129.847 142.986 129.847C142.986 129.847 142.986 129.847 142.986 129.847C142.986 129.847 142.986 129.847 142.986 129.847C142.986 129.847 142.986 129.847 142.986 129.847C142.986 129.847 142.986 129.847 142.986 129.847C142.986 129.847 142.986 129.847 142.986 129.847C142.986 129.847 142.986 129.847 142.986 129.847C142.986 129.847 142.986 129.847 142.986 129.847C142.986 129.847 142.986 129.847 142.986 129.847C142.986 129.847 142.986 129.847 142.986 129.847C142.986 129.847 142.986 129.847 142.986 129.847C142.986 129.847 142.986 129.847 142.986 129.847C142.986 129.847 142.986 129.847 142.986 129.847C142.986 129.847 142.986 129.847 142.986 129.847C142.986 129.847 142.986 129.847 142.986 129.847C142.986 129.847 142.986 129.847 142.986 129.847C142.986 129.846 142.986 129.846 142.986 129.846C142.986 129.846 142.986 129.846 142.986 129.846C142.986 129.846 142.986 129.846 142.986 129.846C142.986 129.846 142.986 129.846 142.986 129.846C142.986 129.846 142.986 129.846 142.986 129.846C142.986 129.846 142.986 129.846 142.986 129.846C142.986 129.846 142.986 129.846 142.986 129.846C142.986 129.846 142.986 129.846 142.986 129.846C142.986 129.846 142.986 129.846 142.986 129.846C142.986 129.846 142.986 129.846 142.986 129.846C142.986 129.846 142.986 129.846 142.986 129.846C142.986 129.846 142.986 129.846 142.986 129.846C142.986 129.846 142.986 129.846 142.986 129.846C142.986 129.846 142.986 129.846 142.986 129.846C142.986 129.846 142.986 129.846 142.986 129.846C142.986 129.846 142.986 129.846 142.986 129.846C142.986 129.846 142.986 129.846 142.986 129.846C142.986 129.846 142.986 129.846 142.986 129.846C142.986 129.846 142.986 129.846 142.986 129.846C142.986 129.846 142.986 129.846 142.986 129.846C142.986 129.846 142.986 129.846 142.986 129.846C142.986 129.846 142.986 129.846 142.986 129.846C142.986 129.846 142.986 129.846 142.986 129.846C142.986 129.846 142.986 129.845 142.986 129.845C142.986 129.845 142.986 129.845 142.986 129.845C142.986 129.845 142.986 129.845 142.986 129.845C142.986 129.845 142.986 129.845 142.986 129.845C142.986 129.845 142.986 129.845 142.986 129.845C142.986 129.845 142.986 129.845 142.986 129.845C142.986 129.845 142.986 129.845 142.986 129.845C142.986 129.845 142.986 129.845 142.986 129.845C142.986 129.845 142.986 129.845 142.986 129.845C142.986 129.845 142.986 129.845 142.986 129.845C142.986 129.845 142.986 129.845 142.986 129.845C142.986 129.845 142.986 129.845 142.986 129.845C142.986 129.845 142.986 129.845 142.986 129.845C142.986 129.845 142.986 129.845 142.986 129.845C142.986 129.845 142.986 129.845 142.986 129.845C142.986 129.845 142.986 129.845 142.986 129.845C142.986 129.845 142.986 129.845 142.986 129.845C142.986 129.845 142.986 129.845 142.986 129.845C142.986 129.845 142.986 129.845 142.986 129.845C142.986 129.845 142.986 129.845 142.986 129.845C142.986 129.845 142.986 129.845 142.986 129.845C142.986 129.845 142.986 129.845 142.986 129.845C142.986 129.845 142.986 129.845 142.986 129.845C142.986 129.845 142.986 129.845 142.986 129.845C142.986 129.845 142.986 129.845 142.986 129.845C142.986 129.845 142.986 129.845 142.986 129.845C142.986 129.845 142.986 129.845 142.986 129.845C142.986 129.844 142.986 129.844 142.986 129.844C142.986 129.844 142.986 129.844 142.986 129.844C142.986 129.844 142.986 129.844 142.986 129.844C142.986 129.844 142.986 129.844 142.986 129.844C142.986 129.844 142.986 129.844 142.986 129.844C142.986 129.844 142.986 129.844 142.986 129.844C142.986 129.844 142.986 129.844 142.986 129.844C142.986 129.844 142.986 129.844 142.986 129.844C142.986 129.844 142.986 129.844 142.986 129.844C142.986 129.844 142.986 129.844 142.986 129.844C142.986 129.844 142.986 129.844 142.986 129.844C142.986 129.844 142.986 129.844 142.986 129.844C142.986 129.844 142.986 129.844 142.986 129.844C142.986 129.844 142.986 129.844 142.986 129.844C142.986 129.844 142.986 129.844 142.986 129.844C142.986 129.844 142.986 129.844 142.986 129.844C142.986 129.844 142.986 129.844 142.986 129.844C142.986 129.844 142.986 129.844 142.986 129.844C142.986 129.844 142.986 129.844 142.986 129.844C142.986 129.844 142.986 129.844 142.986 129.844C142.986 129.844 142.986 129.844 142.986 129.844C142.986 129.844 142.986 129.844 142.986 129.844C142.986 129.844 142.986 129.844 142.986 129.844C142.986 129.844 142.986 129.844 142.986 129.844C142.986 129.844 142.986 129.844 142.986 129.844C142.986 129.844 142.986 129.844 142.986 129.844C142.986 129.844 142.986 129.844 142.986 129.844C142.986 129.844 142.986 129.844 142.986 129.844C142.986 129.844 142.986 129.844 142.986 129.844C142.986 129.844 142.986 129.844 142.986 129.844C142.986 129.844 142.986 129.844 142.986 129.844C142.986 129.844 142.986 129.844 142.986 129.844C142.986 129.844 142.986 129.843 142.986 129.843C142.986 129.843 142.986 129.843 142.986 129.843C142.986 129.843 142.986 129.843 142.986 129.843C142.986 129.843 142.986 129.843 142.986 129.843C142.986 129.843 142.986 129.843 142.986 129.843C142.986 129.843 142.986 129.843 142.986 129.843C142.986 129.843 142.986 129.843 142.986 129.843C142.986 129.843 142.986 129.843 142.986 129.843C142.986 129.843 142.986 129.843 142.986 129.843C142.986 129.843 142.986 129.843 142.986 129.843C142.986 129.843 142.986 129.843 142.986 129.843C142.986 129.843 142.986 129.843 142.986 129.843C142.986 129.843 142.986 129.843 142.986 129.843C142.986 129.843 142.986 129.843 142.986 129.843C142.986 129.843 142.986 129.843 142.986 129.843C142.986 129.843 142.986 129.843 142.986 129.843C142.986 129.843 142.986 129.843 142.986 129.843C142.986 129.843 142.986 129.843 142.986 129.843C142.986 129.843 142.986 129.843 142.986 129.843C142.986 129.843 142.986 129.843 142.986 129.843C142.986 129.843 142.986 129.843 142.986 129.843C142.986 129.843 142.986 129.843 142.986 129.843C142.986 129.843 142.986 129.843 142.986 129.843C142.986 129.843 142.986 129.843 142.986 129.843C142.986 129.843 142.986 129.843 142.986 129.843C142.986 129.843 142.986 129.843 142.986 129.843C142.986 129.843 142.986 129.843 142.986 129.843C142.986 129.843 142.986 129.843 142.986 129.843C142.986 129.843 142.986 129.843 142.986 129.843C142.986 129.843 142.986 129.843 142.986 129.843C142.986 129.843 142.986 129.843 142.986 129.843C142.986 129.843 142.986 129.843 142.986 129.843C142.986 129.843 142.986 129.843 142.986 129.843C142.986 129.843 142.986 129.843 142.986 129.843C142.986 129.843 142.986 129.843 142.986 129.843C142.986 129.843 142.986 129.843 142.986 129.843C142.986 129.843 142.986 129.843 142.986 129.843C142.986 129.843 142.986 129.843 142.986 129.843C142.986 129.843 142.986 129.843 142.986 129.843C142.986 129.843 142.986 129.843 142.986 129.843C142.986 129.843 142.986 129.843 142.986 129.843C142.986 129.843 142.986 129.843 142.986 129.843C142.986 129.843 142.986 129.843 142.986 129.843C142.986 129.843 142.986 129.843 142.986 129.843C142.986 129.843 142.986 129.843 142.986 129.843C142.986 129.843 142.986 129.843 142.986 129.843C142.986 129.843 142.986 129.843 142.986 129.843C142.986 129.843 142.986 129.843 142.986 129.843C142.986 129.843 142.986 129.842 142.986 129.842C142.986 129.842 142.986 129.842 142.986 129.842C142.986 129.842 142.986 129.842 142.986 129.842C142.986 129.842 142.986 129.842 142.986 129.842C142.986 129.842 142.986 129.842 142.986 129.842C142.986 129.842 142.986 129.842 142.986 129.842C142.986 129.842 142.986 129.842 142.986 129.842C142.986 129.842 142.986 129.842 142.986 129.842C142.986 129.842 142.986 129.842 142.986 129.842C142.986 129.842 142.986 129.842 142.986 129.842C142.986 129.842 142.986 129.842 142.986 129.842C142.986 129.842 142.986 129.842 142.986 129.842C142.986 129.842 142.986 129.842 142.986 129.842C142.986 129.842 142.986 129.842 142.986 129.842C142.986 129.842 142.986 129.842 142.986 129.842C142.986 129.842 142.986 129.842 142.986 129.842C142.986 129.842 142.986 129.842 142.986 129.842C142.986 129.842 142.986 129.842 142.986 129.842C142.986 129.842 142.986 129.842 142.986 129.842C142.986 129.842 142.986 129.842 142.986 129.842C142.986 129.842 142.986 129.842 142.986 129.842C142.986 129.842 142.986 129.842 142.986 129.842C142.986 129.842 142.986 129.842 142.986 129.842C142.986 129.842 142.986 129.842 142.986 129.842C142.986 129.842 142.986 129.842 142.986 129.842C142.986 129.842 142.986 129.842 142.986 129.842C142.986 129.842 142.986 129.842 142.986 129.842C142.986 129.842 142.986 129.842 142.986 129.842C142.986 129.842 142.986 129.842 142.986 129.842C142.986 129.842 142.986 129.842 142.986 129.842C142.986 129.842 142.986 129.842 142.986 129.842C142.986 129.842 142.986 129.842 142.986 129.842C142.986 129.842 142.986 129.842 142.986 129.842C142.986 129.842 142.986 129.842 142.986 129.842C142.986 129.842 142.986 129.842 142.986 129.842C142.986 129.842 142.986 129.842 142.986 129.842C142.986 129.842 142.986 129.842 142.986 129.842C142.986 129.842 142.986 129.842 142.986 129.842C142.986 129.842 142.986 129.842 142.986 129.842C142.986 129.842 142.986 129.842 142.986 129.842C142.986 129.842 142.986 129.842 142.986 129.842C142.986 129.842 142.986 129.842 142.986 129.842C142.986 129.842 142.986 129.842 142.986 129.842C142.986 129.842 142.986 129.842 142.986 129.842C142.986 129.842 142.986 129.842 142.986 129.842C142.986 129.842 142.986 129.842 142.986 129.842V129.842C142.986 129.842 142.986 129.842 142.986 129.842C142.986 129.842 142.986 129.842 142.986 129.842C142.986 129.842 142.986 129.842 142.986 129.842C142.986 129.842 142.986 129.842 140.986 129.842ZM140.861 131.865C140.873 131.866 140.884 131.867 140.891 131.869C140.899 131.87 140.903 131.872 140.904 131.872C140.905 131.872 140.887 131.866 140.859 131.843L143.42 128.77C142.73 128.195 141.896 127.922 141.11 127.873L140.861 131.865ZM140.878 131.859C140.857 131.841 140.85 131.829 140.851 131.831C140.851 131.831 140.853 131.834 140.855 131.839C140.857 131.844 140.86 131.851 140.862 131.859C140.864 131.866 140.865 131.874 140.866 131.881C140.867 131.889 140.868 131.895 140.867 131.898C140.867 131.907 140.866 131.901 140.872 131.883L144.654 133.187C145.184 131.651 144.711 129.819 143.401 128.754L140.878 131.859ZM140.906 131.792C140.893 131.825 140.88 131.859 140.866 131.892C140.853 131.925 140.84 131.958 140.827 131.991L144.54 133.477C144.554 133.444 144.567 133.41 144.58 133.377C144.594 133.344 144.607 133.311 144.62 133.278L140.906 131.792ZM140.856 131.922C140.774 132.106 140.678 132.347 140.612 132.645L144.517 133.513C144.514 133.525 144.511 133.537 144.507 133.548C144.504 133.559 144.502 133.567 144.5 133.572C144.497 133.581 144.498 133.576 144.511 133.546L140.856 131.922ZM140.592 132.743C140.385 133.963 141.018 134.887 141.553 135.384C142.098 135.889 142.782 136.212 143.431 136.365L144.351 132.472C144.27 132.453 144.238 132.418 144.275 132.452C144.299 132.475 144.383 132.558 144.454 132.719C144.532 132.896 144.582 133.142 144.536 133.414L140.592 132.743ZM143.441 136.367C143.567 136.396 143.824 136.461 144.091 136.502L144.699 132.548C144.62 132.536 144.56 132.52 144.34 132.47L143.441 136.367ZM143.987 136.483C144.336 136.555 144.51 136.595 144.65 136.646C144.762 136.687 144.75 136.701 144.712 136.662L147.58 133.873C146.615 132.882 145.311 132.673 144.803 132.567L143.987 136.483ZM144.702 136.652C144.64 136.587 144.658 136.539 144.677 136.678C144.688 136.755 144.694 136.865 144.692 137.025C144.69 137.188 144.68 137.362 144.667 137.587L148.659 137.829C148.7 137.168 148.922 135.273 147.589 133.883L144.702 136.652ZM144.666 137.607C144.648 137.962 144.616 138.496 144.665 139.021C144.717 139.572 144.867 140.269 145.322 140.927L148.614 138.655C148.684 138.757 148.662 138.803 148.648 138.647C148.641 138.571 148.637 138.467 148.64 138.321C148.642 138.172 148.65 138.013 148.661 137.81L144.666 137.607ZM145.326 140.933C146.095 142.038 147.242 142.408 148.151 142.513C149.029 142.613 149.941 142.5 150.645 142.391L150.031 138.438C149.368 138.541 148.913 138.574 148.608 138.539C148.332 138.507 148.478 138.46 148.61 138.649L145.326 140.933ZM150.65 142.39C151.062 142.325 151.513 142.297 151.867 142.352C152.235 142.408 152.185 142.497 152.104 142.372L155.469 140.209C154.672 138.969 153.401 138.54 152.476 138.398C151.537 138.254 150.622 138.345 150.026 138.439L150.65 142.39ZM155.535 142.261C155.554 142.227 155.599 142.161 155.705 142.054L152.876 139.226C152.585 139.517 152.284 139.876 152.038 140.319L155.535 142.261ZM155.673 142.085C155.979 141.793 156.435 141.577 157.209 141.241L155.617 137.572C154.985 137.846 153.823 138.32 152.908 139.195L155.673 142.085ZM157.201 141.245C157.282 141.21 157.184 141.256 157.061 141.286C156.917 141.322 156.65 141.361 156.326 141.28L157.296 137.4C156.813 137.279 156.393 137.332 156.113 137.4C155.854 137.464 155.638 137.563 155.625 137.568L157.201 141.245ZM156.419 141.301C156.051 141.228 155.813 141.046 155.702 140.943C155.591 140.84 155.533 140.75 155.513 140.718L158.905 138.598C158.8 138.43 158.278 137.594 157.203 137.379L156.419 141.301ZM155.573 140.809L156.33 141.884L159.601 139.582L158.845 138.507L155.573 140.809ZM159.719 141.695C160.252 140.721 160.782 140.343 161.126 140.227L159.845 136.437C158.225 136.984 157.031 138.277 156.212 139.771L159.719 141.695ZM161.16 140.215C161.312 140.16 161.58 140.158 161.834 140.28L163.567 136.675C162.443 136.135 161.065 136 159.811 136.449L161.16 140.215ZM161.806 140.267C161.882 140.304 161.913 140.336 161.919 140.343C161.923 140.348 161.91 140.333 161.899 140.299L165.731 139.15C165.387 138.005 164.559 137.171 163.595 136.689L161.806 140.267ZM161.91 140.333C161.916 140.353 161.932 140.414 161.924 140.561C161.915 140.725 161.884 140.92 161.824 141.232L165.753 141.985C165.864 141.404 166.094 140.287 165.72 139.117L161.91 140.333ZM161.822 141.243C161.73 141.741 161.525 142.71 161.785 143.724L165.66 142.73C165.663 142.743 165.651 142.712 165.66 142.585C165.671 142.443 165.7 142.272 165.755 141.974L161.822 141.243ZM161.788 143.734C162.144 145.094 163.258 146.014 164.46 146.357L165.558 142.511C165.526 142.502 165.526 142.493 165.547 142.513C165.567 142.532 165.625 142.596 165.657 142.72L161.788 143.734ZM164.46 146.357C165.684 146.707 167.138 146.486 168.148 145.477L165.319 142.648C165.413 142.555 165.5 142.525 165.537 142.517C165.574 142.509 165.58 142.517 165.558 142.511L164.46 146.357ZM168.148 145.477C168.208 145.416 168.336 145.29 168.469 145.131L165.396 142.57C165.398 142.567 165.396 142.57 165.385 142.582C165.371 142.596 165.355 142.613 165.319 142.648L168.148 145.477ZM168.404 145.204C168.492 145.109 168.531 145.066 168.568 145.031C168.601 144.998 168.59 145.014 168.543 145.045C168.493 145.079 168.382 145.144 168.217 145.187C168.042 145.232 167.858 145.237 167.688 145.205L168.432 141.275C167.539 141.106 166.805 141.393 166.31 141.727C165.892 142.008 165.567 142.38 165.461 142.496L168.404 145.204ZM167.691 145.206C167.533 145.176 167.367 145.111 167.215 145.007C167.064 144.903 166.955 144.781 166.882 144.666L170.246 142.503C169.844 141.877 169.207 141.42 168.429 141.274L167.691 145.206ZM166.849 144.614C166.775 144.49 166.747 144.39 166.738 144.346C166.728 144.301 166.73 144.284 166.73 144.303C166.73 144.32 166.728 144.352 166.721 144.396C166.715 144.44 166.705 144.483 166.694 144.521L170.54 145.62C170.648 145.244 170.73 144.785 170.73 144.303C170.73 143.846 170.656 143.184 170.279 142.556L166.849 144.614ZM166.689 144.539C166.592 144.893 166.529 145.303 166.533 145.715C166.535 146.067 166.585 146.721 166.98 147.328L170.334 145.148C170.459 145.341 170.502 145.503 170.517 145.57C170.525 145.609 170.529 145.638 170.531 145.655C170.532 145.672 170.533 145.681 170.533 145.683C170.533 145.686 170.533 145.674 170.536 145.651C170.539 145.629 170.543 145.611 170.545 145.603L166.689 144.539ZM167.03 147.4C167.389 147.904 167.957 148.302 168.701 148.385L169.143 144.409C169.337 144.431 169.577 144.496 169.818 144.644C170.053 144.789 170.201 144.959 170.284 145.076L167.03 147.4ZM168.922 148.397C168.362 148.397 167.911 148.148 167.624 147.861C167.354 147.591 167.183 147.249 167.122 146.885L171.068 146.228C170.943 145.482 170.267 144.397 168.922 144.397V148.397ZM167.11 146.799C167.225 147.742 167.819 148.337 168.34 148.641C168.804 148.913 169.281 149.009 169.58 149.05C170.198 149.135 170.789 149.08 170.952 149.064L170.554 145.084C170.451 145.094 170.253 145.105 170.128 145.088C170.056 145.078 170.173 145.079 170.36 145.189C170.468 145.252 170.633 145.371 170.783 145.573C170.942 145.788 171.047 146.045 171.08 146.313L167.11 146.799ZM170.974 149.061L171.213 149.035L170.771 145.059L170.532 145.086L170.974 149.061ZM171.225 149.034C171.405 149.012 171.529 148.998 171.647 148.99C171.76 148.982 171.823 148.984 171.853 148.986C171.881 148.989 171.853 148.99 171.792 148.966C171.724 148.94 171.646 148.894 171.577 148.829L174.332 145.929C173.642 145.273 172.838 145.058 172.203 145.002C171.621 144.951 171.05 145.027 170.758 145.061L171.225 149.034ZM171.576 148.827C171.491 148.747 171.469 148.688 171.489 148.729C171.499 148.749 171.515 148.783 171.538 148.842C171.563 148.905 171.587 148.969 171.623 149.068L175.374 147.679C175.283 147.432 175.012 146.576 174.334 145.931L171.576 148.827ZM171.619 149.057C171.677 149.217 171.818 149.629 172.04 149.995C172.304 150.428 172.779 150.969 173.581 151.207L174.717 147.371C174.913 147.43 175.088 147.53 175.228 147.651C175.359 147.765 175.43 147.871 175.458 147.916C175.484 147.959 175.486 147.973 175.466 147.924C175.445 147.873 175.422 147.811 175.378 147.69L171.619 149.057ZM173.593 151.21C174.812 151.563 175.748 150.933 176.145 150.594C176.572 150.229 176.87 149.795 177.007 149.589L173.679 147.37C173.636 147.434 173.6 147.484 173.568 147.524C173.534 147.567 173.525 147.571 173.546 147.553C173.561 147.54 173.662 147.454 173.852 147.387C174.067 147.312 174.374 147.272 174.705 147.368L173.593 151.21ZM177.023 149.564C177.101 149.444 177.147 149.372 177.201 149.297C177.252 149.226 177.283 149.194 177.293 149.184C177.303 149.174 177.265 149.214 177.174 149.257C177.071 149.306 176.929 149.343 176.773 149.338L176.911 145.34C175.788 145.302 174.981 145.855 174.513 146.307C174.071 146.734 173.765 147.236 173.662 147.396L177.023 149.564ZM176.733 149.336C176.558 149.327 176.398 149.269 176.275 149.194C176.164 149.126 176.112 149.061 176.103 149.049C176.093 149.037 176.104 149.049 176.127 149.096C176.149 149.141 176.171 149.197 176.191 149.258L179.986 147.993C179.876 147.664 179.66 147.105 179.256 146.588C178.834 146.048 178.08 145.404 176.951 145.342L176.733 149.336ZM179.319 150.202L180.407 149.353L177.946 146.2L176.858 147.049L179.319 150.202ZM180.376 149.377C180.461 149.313 180.366 149.394 180.224 149.455C180.06 149.526 179.663 149.649 179.181 149.488L180.446 145.694C179.684 145.44 179.022 145.617 178.636 145.784C178.272 145.941 177.998 146.161 177.976 146.177L180.376 149.377ZM179.181 149.488C178.812 149.366 178.577 149.138 178.454 148.976C178.394 148.899 178.356 148.832 178.335 148.791C178.313 148.75 178.302 148.721 178.301 148.719L182.015 147.233C181.948 147.065 181.57 146.069 180.446 145.694L179.181 149.488ZM178.301 148.719C178.392 148.947 178.4 149.284 178.271 150.187L182.231 150.752C182.341 149.984 182.56 148.596 182.015 147.233L178.301 148.719ZM178.266 150.222C178.21 150.67 178.092 151.462 178.151 152.228L182.139 151.921C182.118 151.652 182.159 151.33 182.235 150.718L178.266 150.222ZM178.153 152.255C178.301 153.89 179.129 155.154 180.043 156.098C180.94 157.024 182.036 157.76 182.944 158.338L185.093 154.964C184.209 154.402 183.461 153.877 182.916 153.315C182.388 152.769 182.175 152.316 182.137 151.895L178.153 152.255ZM185.394 158.103C185.749 157.767 185.847 157.651 186.046 157.489L183.529 154.38C183.171 154.67 182.791 155.058 182.643 155.199L185.394 158.103ZM186.057 157.481C187.511 156.287 189.065 155.838 190.279 155.984L190.758 152.013C188.23 151.708 185.619 152.665 183.519 154.389L186.057 157.481ZM190.518 155.998C190.201 155.998 189.965 155.916 189.872 155.88C189.837 155.867 189.799 155.85 189.833 155.865C189.846 155.87 189.923 155.903 190.018 155.935L191.283 152.141C191.325 152.154 191.357 152.167 191.377 152.175C191.387 152.179 191.395 152.182 191.4 152.184C191.405 152.186 191.408 152.188 191.409 152.188C191.422 152.194 191.364 152.168 191.307 152.146C191.171 152.094 190.888 151.998 190.518 151.998V155.998ZM189.637 155.762C189.504 155.684 189.376 155.569 189.276 155.422C189.177 155.278 189.13 155.139 189.111 155.036L193.04 154.287C192.887 153.486 192.423 152.76 191.665 152.314L189.637 155.762ZM189.097 154.955C189.073 154.792 189.096 154.672 189.12 154.6C189.144 154.526 189.184 154.45 189.251 154.377L192.21 157.068C192.842 156.373 193.202 155.372 193.054 154.368L189.097 154.955ZM189.261 154.366C189.27 154.356 189.268 154.361 189.236 154.386C189.219 154.4 189.197 154.417 189.164 154.442C189.147 154.454 189.13 154.467 189.108 154.483C189.088 154.498 189.064 154.515 189.04 154.534L191.44 157.734C191.526 157.669 191.886 157.42 192.2 157.079L189.261 154.366ZM189.101 154.49C188.939 154.602 188.513 154.89 188.184 155.342L191.419 157.695C191.383 157.746 191.35 157.782 191.327 157.806C191.305 157.829 191.289 157.842 191.286 157.844C191.283 157.847 191.288 157.843 191.304 157.831C191.321 157.818 191.344 157.802 191.378 157.778L189.101 154.49ZM188.211 155.307C187.728 155.941 187.641 156.644 187.689 157.169C187.736 157.677 187.914 158.123 188.122 158.464L191.535 156.378C191.597 156.48 191.655 156.614 191.672 156.8C191.691 157.003 191.664 157.375 191.393 157.731L188.211 155.307ZM188.122 158.464C188.396 158.913 189.318 160.085 190.904 159.85L190.318 155.893C190.738 155.831 191.074 155.973 191.259 156.098C191.42 156.207 191.498 156.318 191.535 156.378L188.122 158.464ZM190.924 159.847C193.385 159.457 195.845 160.058 198.713 160.768L199.674 156.885C196.971 156.216 193.7 155.357 190.298 155.896L190.924 159.847ZM198.705 160.766C200.263 161.159 202.036 161.605 203.807 161.809L204.264 157.835C202.799 157.667 201.282 157.291 199.683 156.887L198.705 160.766ZM203.787 161.806C204.083 161.843 204.261 161.865 204.433 161.904C204.589 161.939 204.668 161.974 204.71 161.999L206.731 158.547C205.769 157.984 204.727 157.893 204.284 157.837L203.787 161.806ZM204.705 161.996C204.788 162.045 204.902 162.138 205.018 162.493C205.152 162.901 205.211 163.41 205.281 164.139L209.263 163.756C209.2 163.105 209.114 162.148 208.82 161.249C208.508 160.297 207.913 159.244 206.736 158.55L204.705 161.996ZM205.283 164.157C205.296 164.276 205.327 164.691 205.379 165.006L209.325 164.348C209.297 164.185 209.302 164.123 209.261 163.738L205.283 164.157ZM205.367 164.924C205.952 169.618 210.172 173.524 214.894 173.758L215.091 169.763C212.305 169.625 209.68 167.191 209.336 164.43L205.367 164.924ZM214.916 173.759C215.263 173.772 216.152 173.804 216.972 173.357L215.056 169.845C215.135 169.803 215.198 169.781 215.234 169.771C215.269 169.761 215.287 169.76 215.28 169.76C215.273 169.761 215.253 169.763 215.215 169.764C215.177 169.765 215.13 169.764 215.07 169.762L214.916 173.759ZM217.015 173.333C217.97 172.781 218.363 171.9 218.497 171.132C218.61 170.483 218.564 169.767 218.527 169.223L214.536 169.495C214.556 169.781 214.567 169.995 214.568 170.169C214.57 170.346 214.56 170.425 214.556 170.446C214.553 170.462 214.567 170.364 214.652 170.226C214.747 170.07 214.881 169.946 215.014 169.87L217.015 173.333ZM218.528 169.235C218.5 168.793 218.483 168.464 218.501 168.184L214.509 167.935C214.473 168.503 214.51 169.077 214.535 169.484L218.528 169.235ZM218.498 168.224C218.543 167.678 218.842 167.133 219.48 166.154L216.13 163.969C215.574 164.821 214.652 166.186 214.512 167.895L218.498 168.224ZM219.485 166.147C219.972 165.392 220.825 164.162 220.976 162.66L216.995 162.262C216.96 162.618 216.752 163.006 216.125 163.976L219.485 166.147ZM220.976 162.66C221.124 161.172 220.577 159.896 219.91 158.901C219.252 157.921 218.373 157.058 217.588 156.342L214.891 159.296C215.632 159.972 216.212 160.568 216.588 161.13C216.956 161.678 217.019 162.027 216.995 162.262L220.976 162.66Z" fill="white" mask="url(#path-4-inside-1_639_320)"/>
</g>
<defs>
<filter id="filter0_d_639_320" x="0" y="0" width="361" height="357" filterUnits="userSpaceOnUse" color-interpolation-filters="sRGB">
<feFlood flood-opacity="0" result="BackgroundImageFix"/>
<feColorMatrix in="SourceAlpha" type="matrix" values="0 0 0 0 0 0 0 0 0 0 0 0 0 0 0 0 0 0 127 0" result="hardAlpha"/>
<feOffset dx="2" dy="2"/>
<feGaussianBlur stdDeviation="2"/>
<feComposite in2="hardAlpha" operator="out"/>
<feColorMatrix type="matrix" values="0 0 0 0 0 0 0 0 0 0 0 0 0 0 0 0 0 0 0.25 0"/>
<feBlend mode="normal" in2="BackgroundImageFix" result="effect1_dropShadow_639_320"/>
<feBlend mode="normal" in="SourceGraphic" in2="effect1_dropShadow_639_320" result="shape"/>
</filter>
<linearGradient id="paint0_linear_639_320" x1="144.488" y1="202.766" x2="213.512" y2="83.2345" gradientUnits="userSpaceOnUse">
<stop stop-color="#0460A9"/>
<stop offset="1" stop-color="#50E2D0"/>
</linearGradient>
</defs>
</svg>
