<svg width="361" height="357" viewBox="0 0 361 357" fill="none" xmlns="http://www.w3.org/2000/svg">
<g filter="url(#filter0_d_639_321)">
<rect x="2" y="2" width="353" height="349" rx="19.0804" fill="white"/>
<path d="M49.14 273V248.738H57.2162L60.1684 259.359C60.6096 260.886 61.5597 264.89 61.5597 264.89H61.6276C61.6276 264.89 62.5777 260.886 62.9849 259.359L65.9711 248.738H74.1151V273H68.6179V260.784C68.6179 259.8 68.7197 255.931 68.7197 255.931H68.6518C68.6518 255.931 67.8035 259.562 67.532 260.445L64.0368 273H59.0825L55.6213 260.479C55.3498 259.596 54.5015 255.931 54.5015 255.931H54.4336C54.4336 255.931 54.5354 259.834 54.5354 260.818V273H49.14ZM83.9892 269.912C86.0592 269.912 87.4844 268.657 87.4844 266.79V264.72C86.7718 265.093 85.7538 265.365 84.634 265.636C82.4962 266.111 81.6139 266.654 81.6139 267.978C81.6139 269.369 82.6319 269.912 83.9892 269.912ZM82.2247 273.441C78.7635 273.441 76.2863 271.575 76.2863 268.148C76.2863 264.313 79.3403 263.159 82.9373 262.684C86.1949 262.277 87.3487 261.938 87.3487 260.75C87.3487 259.63 86.6361 258.884 84.9733 258.884C83.2088 258.884 82.3265 259.664 82.1568 261.123H77.0668C77.2025 257.9 79.6797 255.151 84.9394 255.151C87.5523 255.151 89.3168 255.626 90.5723 256.576C92.0654 257.662 92.778 259.359 92.778 261.53V270.285C92.778 271.677 92.9138 272.457 93.3888 272.762V273H88.0273C87.7559 272.627 87.5862 271.948 87.4505 271.066H87.3826C86.3646 272.525 84.8376 273.441 82.2247 273.441ZM104.554 269.267C106.657 269.267 107.947 267.469 107.947 264.517C107.947 261.53 106.827 259.562 104.452 259.562C102.042 259.562 100.821 261.7 100.821 264.517C100.821 267.333 102.178 269.267 104.554 269.267ZM95.4593 278.735V255.626H100.753V257.73H100.855C102.042 256.169 103.739 255.117 106.114 255.117C110.729 255.117 113.546 259.087 113.546 264.313C113.546 269.946 110.526 273.543 105.979 273.543C103.739 273.543 102.144 272.661 101.058 271.202H100.99V278.735H95.4593ZM124.503 269.267C126.607 269.267 127.896 267.469 127.896 264.517C127.896 261.53 126.776 259.562 124.401 259.562C121.992 259.562 120.77 261.7 120.77 264.517C120.77 267.333 122.127 269.267 124.503 269.267ZM115.409 278.735V255.626H120.702V257.73H120.804C121.992 256.169 123.688 255.117 126.064 255.117C130.679 255.117 133.495 259.087 133.495 264.313C133.495 269.946 130.475 273.543 125.928 273.543C123.688 273.543 122.093 272.661 121.008 271.202H120.94V278.735H115.409ZM142.246 269.912C144.316 269.912 145.741 268.657 145.741 266.79V264.72C145.029 265.093 144.011 265.365 142.891 265.636C140.753 266.111 139.871 266.654 139.871 267.978C139.871 269.369 140.889 269.912 142.246 269.912ZM140.482 273.441C137.02 273.441 134.543 271.575 134.543 268.148C134.543 264.313 137.597 263.159 141.194 262.684C144.452 262.277 145.606 261.938 145.606 260.75C145.606 259.63 144.893 258.884 143.23 258.884C141.466 258.884 140.584 259.664 140.414 261.123H135.324C135.46 257.9 137.937 255.151 143.196 255.151C145.809 255.151 147.574 255.626 148.829 256.576C150.322 257.662 151.035 259.359 151.035 261.53V270.285C151.035 271.677 151.171 272.457 151.646 272.762V273H146.284C146.013 272.627 145.843 271.948 145.707 271.066H145.64C144.622 272.525 143.095 273.441 140.482 273.441ZM165.331 259.461H169.844C172.219 259.461 173.441 258.341 173.441 256.508C173.441 254.744 172.287 253.488 169.98 253.488H165.331V259.461ZM159.325 273V248.738H170.93C175.748 248.738 179.413 251.215 179.413 255.728C179.413 258.544 178.022 260.614 175.206 261.598V261.7C177.309 262.413 178.395 263.736 178.735 266.145C179.244 269.335 178.904 272.389 179.753 272.695V273H173.916C173.271 272.627 173.373 269.776 173 267.367C172.694 265.127 171.541 263.906 168.962 263.906H165.331V273H159.325ZM190.069 273.509C184.334 273.509 180.805 269.539 180.805 264.279C180.805 259.087 184.436 255.117 189.73 255.117C192.207 255.117 194.175 255.931 195.668 257.289C197.738 259.189 198.756 262.209 198.722 265.738H186.234C186.574 268.08 187.863 269.539 190.137 269.539C191.596 269.539 192.546 268.894 193.021 267.808H198.417C198.043 269.369 197.025 270.862 195.498 271.914C194.039 272.932 192.275 273.509 190.069 273.509ZM186.268 262.447H193.123C192.919 260.377 191.63 259.053 189.831 259.053C187.728 259.053 186.642 260.377 186.268 262.447ZM208.616 267.944C211.025 267.944 212.145 266.044 212.145 263.6C212.145 261.259 210.924 259.291 208.616 259.291C206.546 259.291 205.189 260.988 205.189 263.634C205.189 266.247 206.546 267.944 208.616 267.944ZM208.65 279.006C203.865 279.006 200.71 277.038 200.167 273.407H205.528C205.834 274.323 206.75 275.104 208.582 275.104C210.924 275.104 211.908 273.882 211.908 271.778V270.048H211.772C210.754 271.202 209.43 272.05 207.327 272.05C203.424 272.05 199.793 269.132 199.793 263.804C199.793 258.714 202.779 255.117 207.089 255.117C209.397 255.117 210.957 256.033 211.975 257.492H212.043V255.626H217.337V271.303C217.337 273.916 216.421 275.816 215.03 277.072C213.502 278.429 211.229 279.006 208.65 279.006ZM222.775 248.229C224.506 248.229 225.829 249.45 225.829 251.181C225.829 252.911 224.506 254.133 222.775 254.133C221.045 254.133 219.721 252.911 219.721 251.181C219.721 249.45 221.045 248.229 222.775 248.229ZM219.993 273V255.626H225.524V273H219.993ZM236.695 273.543C231.13 273.543 227.397 269.573 227.397 264.347C227.397 259.121 231.13 255.151 236.695 255.151C242.294 255.151 245.959 259.121 245.959 264.347C245.959 269.573 242.294 273.543 236.695 273.543ZM236.661 269.607C239.071 269.607 240.36 267.503 240.36 264.347C240.36 261.191 239.071 259.053 236.661 259.053C234.252 259.053 232.997 261.191 232.997 264.347C232.997 267.503 234.252 269.607 236.661 269.607ZM247.829 273V255.626H253.157V258.001H253.258C254.548 256.135 256.211 255.117 258.62 255.117C262.42 255.117 264.66 257.832 264.66 261.7V273H259.129V262.82C259.129 260.988 258.213 259.732 256.414 259.732C254.582 259.732 253.36 261.259 253.36 263.397V273H247.829ZM274.07 269.912C276.14 269.912 277.565 268.657 277.565 266.79V264.72C276.853 265.093 275.835 265.365 274.715 265.636C272.577 266.111 271.695 266.654 271.695 267.978C271.695 269.369 272.713 269.912 274.07 269.912ZM272.306 273.441C268.844 273.441 266.367 271.575 266.367 268.148C266.367 264.313 269.421 263.159 273.018 262.684C276.276 262.277 277.43 261.938 277.43 260.75C277.43 259.63 276.717 258.884 275.054 258.884C273.29 258.884 272.407 259.664 272.238 261.123H267.148C267.283 257.9 269.761 255.151 275.02 255.151C277.633 255.151 279.398 255.626 280.653 256.576C282.146 257.662 282.859 259.359 282.859 261.53V270.285C282.859 271.677 282.995 272.457 283.47 272.762V273H278.108C277.837 272.627 277.667 271.948 277.531 271.066H277.464C276.446 272.525 274.919 273.441 272.306 273.441ZM285.574 273V248.738H291.173V273H285.574ZM302.341 273.509C296.607 273.509 293.077 269.539 293.077 264.279C293.077 259.087 296.708 255.117 302.002 255.117C304.479 255.117 306.447 255.931 307.94 257.289C310.01 259.189 311.028 262.209 310.994 265.738H298.507C298.846 268.08 300.136 269.539 302.409 269.539C303.868 269.539 304.818 268.894 305.294 267.808H310.689C310.316 269.369 309.298 270.862 307.771 271.914C306.312 272.932 304.547 273.509 302.341 273.509ZM298.541 262.447H305.395C305.192 260.377 303.902 259.053 302.104 259.053C300 259.053 298.914 260.377 298.541 262.447ZM157.215 314.577C150.768 314.577 146.526 311.726 146.39 306.365H152.43C152.702 308.808 154.297 309.826 157.181 309.826C159.149 309.826 161.083 309.114 161.083 307.281C161.083 305.347 159.115 304.94 155.79 304.125C151.582 303.141 147.137 301.852 147.137 296.762C147.137 291.57 151.345 289.296 156.774 289.296C162.034 289.296 166.106 291.672 166.343 296.762H160.473C160.235 294.895 158.81 293.843 156.57 293.843C154.466 293.843 153.075 294.76 153.075 296.117C153.075 297.814 154.942 298.221 158.572 299.035C163.086 300.087 167.158 301.479 167.158 306.67C167.158 311.76 162.814 314.577 157.215 314.577ZM179.617 314.577C173.169 314.577 168.927 311.726 168.792 306.365H174.832C175.103 308.808 176.698 309.826 179.583 309.826C181.551 309.826 183.485 309.114 183.485 307.281C183.485 305.347 181.517 304.94 178.191 304.125C173.984 303.141 169.538 301.852 169.538 296.762C169.538 291.57 173.746 289.296 179.175 289.296C184.435 289.296 188.507 291.672 188.745 296.762H182.874C182.637 294.895 181.211 293.843 178.972 293.843C176.868 293.843 175.477 294.76 175.477 296.117C175.477 297.814 177.343 298.221 180.974 299.035C185.487 300.087 189.559 301.479 189.559 306.67C189.559 311.76 185.216 314.577 179.617 314.577ZM198.022 300.461H202.535C204.91 300.461 206.132 299.341 206.132 297.508C206.132 295.744 204.978 294.488 202.671 294.488H198.022V300.461ZM192.016 314V289.738H203.621C208.439 289.738 212.104 292.215 212.104 296.728C212.104 299.544 210.713 301.614 207.896 302.598V302.7C210 303.413 211.086 304.736 211.426 307.145C211.935 310.335 211.595 313.389 212.444 313.695V314H206.607C205.962 313.627 206.064 310.776 205.691 308.367C205.385 306.127 204.232 304.906 201.653 304.906H198.022V314H192.016Z" fill="#002068"/>
<path d="M179 212C217.108 212 248 181.108 248 143C248 104.892 217.108 74 179 74C140.892 74 110 104.892 110 143C110 181.108 140.892 212 179 212Z" fill="url(#paint0_linear_639_321)"/>
<mask id="path-4-inside-1_639_321" fill="white">
<path d="M210.814 134.205C210.692 132.918 210.876 131.601 211.06 130.315C211.305 128.416 211.55 126.639 210.876 125.015C210.784 124.77 210.692 124.648 210.6 124.617C210.416 124.556 210.079 124.832 209.957 124.893L206.955 127.221C206.955 127.221 206.71 127.343 206.557 127.282C206.404 127.252 206.312 127.129 206.281 127.007C205.73 125.077 204.964 124.097 204.014 124.066C204.014 124.066 203.953 124.066 203.922 124.066C202.85 124.066 202.023 125.23 201.349 126.302C200.216 128.109 198.899 128.906 197.643 128.538C196.418 128.17 195.989 127.037 195.56 125.904C195.285 125.169 195.009 124.403 194.519 123.943C193.6 123.086 192.13 123.239 190.69 123.423L190.139 123.484C187.535 123.76 185.82 123.147 185.421 121.86C185.054 121.769 184.717 121.524 184.502 121.187C183.89 120.268 183.982 118.767 184.288 117.787C184.564 116.868 184.656 115.673 184.288 115.06C184.135 114.846 183.951 114.693 183.706 114.662C183.063 114.54 182.481 115.152 181.899 115.826C181.746 116.01 181.562 116.194 181.409 116.347C180.245 117.511 178.407 117.909 176.569 117.419C174.762 116.929 173.383 115.612 172.985 114.019C172.648 112.641 172.893 111.262 173.108 109.914C173.353 108.536 173.598 107.219 173.2 105.963C172.801 104.676 171.821 103.972 171.055 103.604C169.708 102.931 168.023 102.808 166.614 103.298C163.826 104.278 161.989 106.974 160.978 109.057C160.917 109.21 160.763 109.271 160.61 109.302C160.457 109.302 160.304 109.241 160.212 109.118L158.068 106.086C158.068 106.086 157.823 105.749 157.67 105.718C157.578 105.718 157.394 105.779 157.271 105.84C155.617 106.545 153.933 107.28 152.616 108.536C151.237 109.853 150.624 111.66 151.023 113.1C151.145 113.59 151.39 114.05 151.666 114.54C152.095 115.367 152.524 116.194 152.462 117.174C152.34 119.533 149.583 120.666 146.949 120.788H146.857C144.713 120.88 142.293 120.942 141.343 122.626C139.781 125.383 144.008 128.416 144.866 128.998C146.612 130.161 150.471 133.225 148.879 136.441C148.695 136.808 148.48 137.115 148.235 137.421C147.806 138.003 147.439 138.524 147.531 139.075C147.561 139.381 147.715 139.626 147.96 139.81C148.633 140.3 149.951 140.27 150.961 140.055C151.084 140.055 151.206 140.055 151.298 140.117C151.39 140.178 151.452 140.3 151.482 140.423C151.697 142.475 151.942 144.772 152.983 146.672C153.871 148.295 155.801 149.919 157.915 149.643C158.098 149.643 158.282 149.582 158.435 149.551C158.956 149.459 159.508 149.337 160.089 149.49C161.682 149.918 161.774 151.634 161.866 153.135C161.927 154.146 161.989 155.187 162.448 155.892C163.398 154.819 164.929 154.268 166.338 154.574C167.931 154.911 169.218 156.32 169.463 157.913C169.83 160.456 167.9 162.263 166.063 164.009C165.327 164.683 164.592 165.387 164.01 166.122C163.244 167.103 162.632 168.297 162.08 169.461C161.468 170.717 160.825 171.942 159.936 172.984C160.917 173.933 161.682 175.158 162.203 176.353C163.245 178.773 165.511 181.897 167.441 183C168.176 181.53 168.942 180.09 169.769 178.681C170.351 177.701 170.994 176.69 172.097 176.231C172.832 175.924 173.598 175.924 174.21 175.955C178.101 176.2 181.715 178.712 183.4 182.204L187.32 179.416C187.627 179.171 188.607 178.497 189.465 179.018C189.985 179.355 190.077 179.937 190.169 180.396C190.169 180.549 190.23 180.703 190.261 180.856C190.567 181.775 191.762 182.173 192.65 181.959C193.784 181.683 194.58 180.703 195.07 179.937C196.02 178.436 196.54 176.629 197 174.852C197.122 174.454 197.214 174.025 197.337 173.627C197.919 171.605 198.838 169.093 200.829 167.562C202.483 166.275 205.056 165.908 206.802 167.103C206.863 166.643 206.955 166.153 207.047 165.693C208.088 161.129 210.906 157.147 213.387 153.625C215.378 150.776 217.461 147.866 219.942 145.324C215.378 142.414 211.213 139.044 210.784 134.205"/>
</mask>
<path d="M211.06 130.315L213.039 130.598L213.041 130.584L213.043 130.571L211.06 130.315ZM210.876 125.015L209.003 125.718L209.015 125.75L209.029 125.782L210.876 125.015ZM210.6 124.617L211.232 122.72L210.6 124.617ZM209.957 124.893L209.062 123.104L208.887 123.192L208.731 123.313L209.957 124.893ZM206.955 127.221L207.849 129.01L208.025 128.922L208.181 128.801L206.955 127.221ZM206.557 127.282L207.3 125.425L207.129 125.357L206.949 125.321L206.557 127.282ZM206.281 127.007L208.221 126.521L208.213 126.489L208.204 126.457L206.281 127.007ZM204.014 124.066L204.079 122.067L204.047 122.066H204.014V124.066ZM201.349 126.302L199.656 125.238L199.655 125.239L201.349 126.302ZM197.643 128.538L197.068 130.454L197.081 130.458L197.643 128.538ZM195.56 125.904L193.688 126.606L193.69 126.612L195.56 125.904ZM194.519 123.943L195.887 122.484L195.883 122.481L194.519 123.943ZM190.69 123.423L190.911 125.41L190.927 125.409L190.943 125.407L190.69 123.423ZM190.139 123.484L190.349 125.473L190.359 125.472L190.139 123.484ZM185.421 121.86L187.332 121.269L186.999 120.193L185.906 119.92L185.421 121.86ZM184.502 121.187L186.19 120.113L186.178 120.095L186.167 120.077L184.502 121.187ZM184.288 117.787L186.197 118.383L186.2 118.372L186.204 118.361L184.288 117.787ZM184.288 115.06L186.003 114.031L185.962 113.963L185.915 113.898L184.288 115.06ZM183.706 114.662L183.332 116.627L183.395 116.639L183.458 116.647L183.706 114.662ZM181.899 115.826L180.385 114.519L180.374 114.532L180.362 114.546L181.899 115.826ZM181.409 116.347L179.994 114.933L181.409 116.347ZM176.569 117.419L176.045 119.349L176.054 119.351L176.569 117.419ZM172.985 114.019L171.042 114.494L171.045 114.504L172.985 114.019ZM173.108 109.914L171.139 109.564L171.135 109.582L171.133 109.6L173.108 109.914ZM173.2 105.963L171.289 106.554L171.293 106.567L173.2 105.963ZM171.055 103.604L170.161 105.393L170.175 105.4L170.19 105.407L171.055 103.604ZM166.614 103.298L165.957 101.409L165.95 101.411L166.614 103.298ZM160.978 109.057L159.178 108.184L159.147 108.248L159.121 108.314L160.978 109.057ZM160.61 109.302V111.302H160.808L161.002 111.263L160.61 109.302ZM160.212 109.118L158.579 110.273L158.595 110.296L158.612 110.318L160.212 109.118ZM158.068 106.086L159.701 104.931L159.693 104.92L159.685 104.909L158.068 106.086ZM157.67 105.718L158.062 103.757L157.868 103.718H157.67V105.718ZM157.271 105.84L158.055 107.681L158.111 107.657L158.166 107.629L157.271 105.84ZM152.616 108.536L151.235 107.089L151.234 107.09L152.616 108.536ZM151.023 113.1L152.963 112.615L152.957 112.591L152.95 112.567L151.023 113.1ZM151.666 114.54L153.441 113.619L153.426 113.589L153.409 113.559L151.666 114.54ZM152.462 117.174L150.466 117.049L150.466 117.06L150.465 117.07L152.462 117.174ZM146.949 120.788V122.788H146.995L147.042 122.786L146.949 120.788ZM146.857 120.788V118.788H146.814L146.771 118.79L146.857 120.788ZM141.343 122.626L143.083 123.612L143.086 123.608L141.343 122.626ZM144.866 128.998L143.743 130.652L143.75 130.657L143.756 130.662L144.866 128.998ZM148.879 136.441L150.667 137.335L150.671 137.328L148.879 136.441ZM148.235 137.421L146.674 136.172L146.649 136.203L146.625 136.235L148.235 137.421ZM147.531 139.075L149.521 138.876L149.514 138.811L149.504 138.746L147.531 139.075ZM147.96 139.81L146.76 141.41L146.771 141.419L146.783 141.428L147.96 139.81ZM150.961 140.055V138.055H150.752L150.546 138.099L150.961 140.055ZM151.482 140.423L153.471 140.215L153.457 140.075L153.422 139.938L151.482 140.423ZM152.983 146.672L154.738 145.712L154.737 145.71L152.983 146.672ZM157.915 149.643V147.643H157.785L157.656 147.66L157.915 149.643ZM158.435 149.551L158.088 147.581L158.065 147.585L158.043 147.59L158.435 149.551ZM160.089 149.49L160.609 147.558L160.598 147.556L160.089 149.49ZM161.866 153.135L163.862 153.014L163.862 153.013L161.866 153.135ZM162.448 155.892L160.773 156.984L162.206 159.181L163.945 157.218L162.448 155.892ZM166.338 154.574L165.913 156.529L165.924 156.531L166.338 154.574ZM169.463 157.913L171.442 157.627L171.441 157.618L171.439 157.609L169.463 157.913ZM166.063 164.009L167.414 165.483L167.427 165.471L167.44 165.459L166.063 164.009ZM164.01 166.122L162.442 164.881L162.434 164.891L164.01 166.122ZM162.08 169.461L163.878 170.338L163.883 170.328L163.888 170.317L162.08 169.461ZM159.936 172.984L158.415 171.686L157.196 173.114L158.545 174.42L159.936 172.984ZM162.203 176.353L164.04 175.562L164.036 175.554L162.203 176.353ZM167.441 183L166.449 184.736L168.284 185.785L169.23 183.894L167.441 183ZM169.769 178.681L168.049 177.66L168.044 177.669L169.769 178.681ZM172.097 176.231L172.866 178.077L172.097 176.231ZM174.21 175.955L174.336 173.959L174.323 173.958L174.31 173.957L174.21 175.955ZM183.4 182.204L181.598 183.073L182.628 185.206L184.559 183.834L183.4 182.204ZM187.32 179.416L188.479 181.046L188.526 181.013L188.57 180.978L187.32 179.416ZM189.465 179.018L190.551 177.339L190.527 177.323L190.503 177.308L189.465 179.018ZM190.169 180.396H192.169V180.198L192.13 180.004L190.169 180.396ZM190.261 180.856L188.3 181.248L188.324 181.37L188.364 181.488L190.261 180.856ZM192.65 181.959L193.12 183.903L193.123 183.902L192.65 181.959ZM195.07 179.937L196.755 181.015L196.76 181.006L195.07 179.937ZM197 174.852L195.088 174.264L195.075 174.307L195.064 174.351L197 174.852ZM197.337 173.627L199.248 174.215L199.254 174.198L199.259 174.18L197.337 173.627ZM200.829 167.562L202.048 169.147L202.057 169.141L200.829 167.562ZM206.802 167.103L205.672 168.753L208.355 170.588L208.784 167.367L206.802 167.103ZM207.047 165.693L205.097 165.249L205.091 165.275L205.086 165.301L207.047 165.693ZM213.387 153.625L215.023 154.777L215.027 154.771L213.387 153.625ZM219.942 145.324L221.374 146.721L223.092 144.96L221.018 143.637L219.942 145.324ZM212.805 134.015C212.709 133.004 212.85 131.922 213.039 130.598L209.08 130.032C208.901 131.28 208.675 132.832 208.823 134.394L212.805 134.015ZM213.043 130.571C213.27 128.812 213.64 126.459 212.723 124.249L209.029 125.782C209.459 126.819 209.339 128.019 209.076 130.059L213.043 130.571ZM212.748 124.313C212.671 124.106 212.554 123.84 212.372 123.582C212.201 123.341 211.845 122.924 211.232 122.72L209.968 126.515C209.447 126.341 209.183 126.001 209.104 125.89C209.014 125.762 208.989 125.68 209.003 125.718L212.748 124.313ZM211.232 122.72C210.609 122.512 210.075 122.646 209.853 122.714C209.596 122.793 209.389 122.902 209.275 122.966C209.152 123.035 209.043 123.106 208.995 123.137C208.891 123.205 208.967 123.152 209.062 123.104L210.851 126.682C210.954 126.631 211.037 126.579 211.07 126.558C211.11 126.533 211.152 126.506 211.171 126.494C211.226 126.458 211.237 126.452 211.236 126.452C211.233 126.454 211.215 126.464 211.186 126.478C211.158 126.491 211.102 126.514 211.025 126.538C210.951 126.561 210.823 126.594 210.657 126.605C210.489 126.616 210.245 126.607 209.968 126.515L211.232 122.72ZM208.731 123.313L205.729 125.64L208.181 128.801L211.182 126.473L208.731 123.313ZM206.955 127.221C206.061 125.432 206.061 125.432 206.061 125.432C206.061 125.432 206.062 125.431 206.062 125.431C206.063 125.431 206.063 125.431 206.064 125.431C206.065 125.43 206.066 125.429 206.067 125.429C206.069 125.428 206.071 125.427 206.073 125.426C206.077 125.424 206.081 125.422 206.084 125.42C206.092 125.417 206.099 125.413 206.106 125.41C206.12 125.404 206.133 125.398 206.147 125.392C206.172 125.382 206.211 125.366 206.264 125.351C206.31 125.338 206.412 125.312 206.555 125.303C206.686 125.294 206.967 125.292 207.3 125.425L205.814 129.139C206.553 129.435 207.221 129.238 207.363 129.198C207.496 129.16 207.605 129.118 207.681 129.086C207.72 129.07 207.755 129.055 207.782 129.042C207.796 129.036 207.809 129.03 207.82 129.024C207.826 129.021 207.831 129.019 207.836 129.016C207.838 129.015 207.841 129.014 207.843 129.013C207.844 129.012 207.845 129.012 207.846 129.011C207.847 129.011 207.847 129.011 207.848 129.011C207.848 129.01 207.848 129.01 207.849 129.01C207.849 129.01 207.849 129.01 206.955 127.221ZM206.949 125.321C207.741 125.479 208.116 126.099 208.221 126.521L204.341 127.492C204.508 128.159 205.066 129.024 206.165 129.243L206.949 125.321ZM208.204 126.457C207.896 125.377 207.479 124.376 206.879 123.6C206.252 122.79 205.318 122.107 204.079 122.067L203.95 126.065C203.66 126.056 203.584 125.878 203.715 126.048C203.873 126.252 204.115 126.706 204.358 127.556L208.204 126.457ZM204.014 124.066C204.014 122.066 204.014 122.066 204.014 122.066H204.014H204.014C204.014 122.066 204.014 122.066 204.014 122.066C204.014 122.066 204.014 122.066 204.014 122.066C204.014 122.066 204.014 122.066 204.014 122.066C204.014 122.066 204.014 122.066 204.014 122.066C204.014 122.066 204.014 122.066 204.014 122.066C204.014 122.066 204.014 122.066 204.014 122.066C204.014 122.066 204.014 122.066 204.014 122.066C204.014 122.066 204.014 122.066 204.014 122.066C204.014 122.066 204.014 122.066 204.014 122.066C204.014 122.066 204.014 122.066 204.014 122.066C204.014 122.066 204.014 122.066 204.014 122.066C204.014 122.066 204.014 122.066 204.014 122.066C204.014 122.066 204.014 122.066 204.014 122.066C204.014 122.066 204.014 122.066 204.014 122.066C204.014 122.066 204.014 122.066 204.014 122.066C204.014 122.066 204.014 122.066 204.014 122.066C204.014 122.066 204.014 122.066 204.014 122.066C204.014 122.066 204.014 122.066 204.014 122.066C204.014 122.066 204.014 122.066 204.014 122.066C204.014 122.066 204.014 122.066 204.014 122.066C204.014 122.066 204.014 122.066 204.014 122.066C204.014 122.066 204.014 122.066 204.014 122.066C204.014 122.066 204.014 122.066 204.014 122.066C204.014 122.066 204.014 122.066 204.014 122.066C204.014 122.066 204.014 122.066 204.014 122.066C204.014 122.066 204.014 122.066 204.014 122.066C204.014 122.066 204.014 122.066 204.014 122.066C204.014 122.066 204.014 122.066 204.014 122.066C204.014 122.066 204.014 122.066 204.014 122.066C204.014 122.066 204.014 122.066 204.014 122.066C204.014 122.066 204.014 122.066 204.014 122.066C204.014 122.066 204.014 122.066 204.013 122.066C204.013 122.066 204.013 122.066 204.013 122.066C204.013 122.066 204.013 122.066 204.013 122.066C204.013 122.066 204.013 122.066 204.013 122.066C204.013 122.066 204.013 122.066 204.013 122.066C204.013 122.066 204.013 122.066 204.013 122.066C204.013 122.066 204.013 122.066 204.013 122.066C204.013 122.066 204.013 122.066 204.013 122.066C204.013 122.066 204.013 122.066 204.013 122.066C204.013 122.066 204.013 122.066 204.013 122.066C204.013 122.066 204.013 122.066 204.013 122.066C204.013 122.066 204.013 122.066 204.013 122.066C204.013 122.066 204.013 122.066 204.013 122.066C204.013 122.066 204.013 122.066 204.013 122.066C204.013 122.066 204.013 122.066 204.013 122.066C204.013 122.066 204.013 122.066 204.013 122.066C204.013 122.066 204.013 122.066 204.013 122.066C204.013 122.066 204.013 122.066 204.012 122.066C204.012 122.066 204.012 122.066 204.012 122.066C204.012 122.066 204.012 122.066 204.012 122.066C204.012 122.066 204.012 122.066 204.012 122.066C204.012 122.066 204.012 122.066 204.012 122.066C204.012 122.066 204.012 122.066 204.012 122.066C204.012 122.066 204.012 122.066 204.012 122.066C204.012 122.066 204.012 122.066 204.012 122.066C204.012 122.066 204.012 122.066 204.012 122.066C204.012 122.066 204.012 122.066 204.012 122.066C204.012 122.066 204.012 122.066 204.012 122.066C204.012 122.066 204.012 122.066 204.012 122.066C204.012 122.066 204.012 122.066 204.012 122.066C204.012 122.066 204.012 122.066 204.012 122.066C204.011 122.066 204.011 122.066 204.011 122.066C204.011 122.066 204.011 122.066 204.011 122.066C204.011 122.066 204.011 122.066 204.011 122.066C204.011 122.066 204.011 122.066 204.011 122.066C204.011 122.066 204.011 122.066 204.011 122.066C204.011 122.066 204.011 122.066 204.011 122.066C204.011 122.066 204.011 122.066 204.011 122.066C204.011 122.066 204.011 122.066 204.011 122.066C204.011 122.066 204.011 122.066 204.011 122.066C204.011 122.066 204.011 122.066 204.011 122.066C204.011 122.066 204.011 122.066 204.011 122.066C204.01 122.066 204.01 122.066 204.01 122.066C204.01 122.066 204.01 122.066 204.01 122.066C204.01 122.066 204.01 122.066 204.01 122.066C204.01 122.066 204.01 122.066 204.01 122.066C204.01 122.066 204.01 122.066 204.01 122.066C204.01 122.066 204.01 122.066 204.01 122.066C204.01 122.066 204.01 122.066 204.01 122.066C204.01 122.066 204.01 122.066 204.01 122.066C204.01 122.066 204.01 122.066 204.01 122.066C204.01 122.066 204.01 122.066 204.01 122.066C204.009 122.066 204.009 122.066 204.009 122.066C204.009 122.066 204.009 122.066 204.009 122.066C204.009 122.066 204.009 122.066 204.009 122.066C204.009 122.066 204.009 122.066 204.009 122.066C204.009 122.066 204.009 122.066 204.009 122.066C204.009 122.066 204.009 122.066 204.009 122.066C204.009 122.066 204.009 122.066 204.009 122.066C204.009 122.066 204.009 122.066 204.009 122.066C204.009 122.066 204.009 122.066 204.009 122.066C204.008 122.066 204.008 122.066 204.008 122.066C204.008 122.066 204.008 122.066 204.008 122.066C204.008 122.066 204.008 122.066 204.008 122.066C204.008 122.066 204.008 122.066 204.008 122.066C204.008 122.066 204.008 122.066 204.008 122.066C204.008 122.066 204.008 122.066 204.008 122.066C204.008 122.066 204.008 122.066 204.008 122.066C204.008 122.066 204.008 122.066 204.008 122.066C204.008 122.066 204.007 122.066 204.007 122.066C204.007 122.066 204.007 122.066 204.007 122.066C204.007 122.066 204.007 122.066 204.007 122.066C204.007 122.066 204.007 122.066 204.007 122.066C204.007 122.066 204.007 122.066 204.007 122.066C204.007 122.066 204.007 122.066 204.007 122.066C204.007 122.066 204.007 122.066 204.007 122.066C204.007 122.066 204.007 122.066 204.007 122.066C204.006 122.066 204.006 122.066 204.006 122.066C204.006 122.066 204.006 122.066 204.006 122.066C204.006 122.066 204.006 122.066 204.006 122.066C204.006 122.066 204.006 122.066 204.006 122.066C204.006 122.066 204.006 122.066 204.006 122.066C204.006 122.066 204.006 122.066 204.006 122.066C204.006 122.066 204.006 122.066 204.006 122.066C204.006 122.066 204.006 122.066 204.005 122.066C204.005 122.066 204.005 122.066 204.005 122.066C204.005 122.066 204.005 122.066 204.005 122.066C204.005 122.066 204.005 122.066 204.005 122.066C204.005 122.066 204.005 122.066 204.005 122.066C204.005 122.066 204.005 122.066 204.005 122.066C204.005 122.066 204.005 122.066 204.005 122.066C204.005 122.066 204.005 122.066 204.004 122.066C204.004 122.066 204.004 122.066 204.004 122.066C204.004 122.066 204.004 122.066 204.004 122.066C204.004 122.066 204.004 122.066 204.004 122.066C204.004 122.066 204.004 122.066 204.004 122.066C204.004 122.066 204.004 122.066 204.004 122.066C204.004 122.066 204.004 122.066 204.004 122.066C204.004 122.066 204.003 122.066 204.003 122.066C204.003 122.066 204.003 122.066 204.003 122.066C204.003 122.066 204.003 122.066 204.003 122.066C204.003 122.066 204.003 122.066 204.003 122.066C204.003 122.066 204.003 122.066 204.003 122.066C204.003 122.066 204.003 122.066 204.003 122.066C204.003 122.066 204.003 122.066 204.003 122.066C204.002 122.066 204.002 122.066 204.002 122.066C204.002 122.066 204.002 122.066 204.002 122.066C204.002 122.066 204.002 122.066 204.002 122.066C204.002 122.066 204.002 122.066 204.002 122.066C204.002 122.066 204.002 122.066 204.002 122.066C204.002 122.066 204.002 122.066 204.002 122.066C204.001 122.066 204.001 122.066 204.001 122.066C204.001 122.066 204.001 122.066 204.001 122.066C204.001 122.066 204.001 122.066 204.001 122.066C204.001 122.066 204.001 122.066 204.001 122.066C204.001 122.066 204.001 122.066 204.001 122.066C204.001 122.066 204.001 122.066 204.001 122.066C204.001 122.066 204 122.066 204 122.066C204 122.066 204 122.066 204 122.066C204 122.066 204 122.066 204 122.066C204 122.066 204 122.066 204 122.066C204 122.066 204 122.066 204 122.066C204 122.066 204 122.066 204 122.066C204 122.066 203.999 122.066 203.999 122.066C203.999 122.066 203.999 122.066 203.999 122.066C203.999 122.066 203.999 122.066 203.999 122.066C203.999 122.066 203.999 122.066 203.999 122.066C203.999 122.066 203.999 122.066 203.999 122.066C203.999 122.066 203.999 122.066 203.999 122.066C203.998 122.066 203.998 122.066 203.998 122.066C203.998 122.066 203.998 122.066 203.998 122.066C203.998 122.066 203.998 122.066 203.998 122.066C203.998 122.066 203.998 122.066 203.998 122.066C203.998 122.066 203.998 122.066 203.998 122.066C203.998 122.066 203.998 122.066 203.997 122.066C203.997 122.066 203.997 122.066 203.997 122.066C203.997 122.066 203.997 122.066 203.997 122.066C203.997 122.066 203.997 122.066 203.997 122.066C203.997 122.066 203.997 122.066 203.997 122.066C203.997 122.066 203.997 122.066 203.997 122.066C203.997 122.066 203.996 122.066 203.996 122.066C203.996 122.066 203.996 122.066 203.996 122.066C203.996 122.066 203.996 122.066 203.996 122.066C203.996 122.066 203.996 122.066 203.996 122.066C203.996 122.066 203.996 122.066 203.996 122.066C203.996 122.066 203.996 122.066 203.995 122.066C203.995 122.066 203.995 122.066 203.995 122.066C203.995 122.066 203.995 122.066 203.995 122.066C203.995 122.066 203.995 122.066 203.995 122.066C203.995 122.066 203.995 122.066 203.995 122.066C203.995 122.066 203.995 122.066 203.995 122.066C203.994 122.066 203.994 122.066 203.994 122.066C203.994 122.066 203.994 122.066 203.994 122.066C203.994 122.066 203.994 122.066 203.994 122.066C203.994 122.066 203.994 122.066 203.994 122.066C203.994 122.066 203.994 122.066 203.994 122.066C203.993 122.066 203.993 122.066 203.993 122.066C203.993 122.066 203.993 122.066 203.993 122.066C203.993 122.066 203.993 122.066 203.993 122.066C203.993 122.066 203.993 122.066 203.993 122.066C203.993 122.066 203.993 122.066 203.993 122.066C203.993 122.066 203.992 122.066 203.992 122.066C203.992 122.066 203.992 122.066 203.992 122.066C203.992 122.066 203.992 122.066 203.992 122.066C203.992 122.066 203.992 122.066 203.992 122.066C203.992 122.066 203.992 122.066 203.992 122.066C203.992 122.066 203.991 122.066 203.991 122.066C203.991 122.066 203.991 122.066 203.991 122.066C203.991 122.066 203.991 122.066 203.991 122.066C203.991 122.066 203.991 122.066 203.991 122.066C203.991 122.066 203.991 122.066 203.991 122.066C203.991 122.066 203.99 122.066 203.99 122.066C203.99 122.066 203.99 122.066 203.99 122.066C203.99 122.066 203.99 122.066 203.99 122.066C203.99 122.066 203.99 122.066 203.99 122.066C203.99 122.066 203.99 122.066 203.99 122.066C203.99 122.066 203.989 122.066 203.989 122.066C203.989 122.066 203.989 122.066 203.989 122.066C203.989 122.066 203.989 122.066 203.989 122.066C203.989 122.066 203.989 122.066 203.989 122.066C203.989 122.066 203.989 122.066 203.989 122.066C203.988 122.066 203.988 122.066 203.988 122.066C203.988 122.066 203.988 122.066 203.988 122.066C203.988 122.066 203.988 122.066 203.988 122.066C203.988 122.066 203.988 122.066 203.988 122.066C203.988 122.066 203.988 122.066 203.988 122.066C203.987 122.066 203.987 122.066 203.987 122.066C203.987 122.066 203.987 122.066 203.987 122.066C203.987 122.066 203.987 122.066 203.987 122.066C203.987 122.066 203.987 122.066 203.987 122.066C203.987 122.066 203.987 122.066 203.986 122.066C203.986 122.066 203.986 122.066 203.986 122.066C203.986 122.066 203.986 122.066 203.986 122.066C203.986 122.066 203.986 122.066 203.986 122.066C203.986 122.066 203.986 122.066 203.986 122.066C203.986 122.066 203.985 122.066 203.985 122.066C203.985 122.066 203.985 122.066 203.985 122.066C203.985 122.066 203.985 122.066 203.985 122.066C203.985 122.066 203.985 122.066 203.985 122.066C203.985 122.066 203.985 122.066 203.985 122.066C203.984 122.066 203.984 122.066 203.984 122.066C203.984 122.066 203.984 122.066 203.984 122.066C203.984 122.066 203.984 122.066 203.984 122.066C203.984 122.066 203.984 122.066 203.984 122.066C203.984 122.066 203.984 122.066 203.983 122.066C203.983 122.066 203.983 122.066 203.983 122.066C203.983 122.066 203.983 122.066 203.983 122.066C203.983 122.066 203.983 122.066 203.983 122.066C203.983 122.066 203.983 122.066 203.983 122.066C203.982 122.066 203.982 122.066 203.982 122.066C203.982 122.066 203.982 122.066 203.982 122.066C203.982 122.066 203.982 122.066 203.982 122.066C203.982 122.066 203.982 122.066 203.982 122.066C203.982 122.066 203.982 122.066 203.981 122.066C203.981 122.066 203.981 122.066 203.981 122.066C203.981 122.066 203.981 122.066 203.981 122.066C203.981 122.066 203.981 122.066 203.981 122.066C203.981 122.066 203.981 122.066 203.981 122.066C203.981 122.066 203.98 122.066 203.98 122.066C203.98 122.066 203.98 122.066 203.98 122.066C203.98 122.066 203.98 122.066 203.98 122.066C203.98 122.066 203.98 122.066 203.98 122.066C203.98 122.066 203.98 122.066 203.979 122.066C203.979 122.066 203.979 122.066 203.979 122.066C203.979 122.066 203.979 122.066 203.979 122.066C203.979 122.066 203.979 122.066 203.979 122.066C203.979 122.066 203.979 122.066 203.979 122.066C203.978 122.066 203.978 122.066 203.978 122.066C203.978 122.066 203.978 122.066 203.978 122.066C203.978 122.066 203.978 122.066 203.978 122.066C203.978 122.066 203.978 122.066 203.978 122.066C203.978 122.066 203.977 122.066 203.977 122.066C203.977 122.066 203.977 122.066 203.977 122.066C203.977 122.066 203.977 122.066 203.977 122.066C203.977 122.066 203.977 122.066 203.977 122.066C203.977 122.066 203.977 122.066 203.977 122.066C203.976 122.066 203.976 122.066 203.976 122.066C203.976 122.066 203.976 122.066 203.976 122.066C203.976 122.066 203.976 122.066 203.976 122.066C203.976 122.066 203.976 122.066 203.976 122.066C203.976 122.066 203.975 122.066 203.975 122.066C203.975 122.066 203.975 122.066 203.975 122.066C203.975 122.066 203.975 122.066 203.975 122.066C203.975 122.066 203.975 122.066 203.975 122.066C203.975 122.066 203.975 122.066 203.974 122.066C203.974 122.066 203.974 122.066 203.974 122.066C203.974 122.066 203.974 122.066 203.974 122.066C203.974 122.066 203.974 122.066 203.974 122.066C203.974 122.066 203.974 122.066 203.974 122.066C203.973 122.066 203.973 122.066 203.973 122.066C203.973 122.066 203.973 122.066 203.973 122.066C203.973 122.066 203.973 122.066 203.973 122.066C203.973 122.066 203.973 122.066 203.973 122.066C203.972 122.066 203.972 122.066 203.972 122.066C203.972 122.066 203.972 122.066 203.972 122.066C203.972 122.066 203.972 122.066 203.972 122.066C203.972 122.066 203.972 122.066 203.972 122.066C203.972 122.066 203.971 122.066 203.971 122.066C203.971 122.066 203.971 122.066 203.971 122.066C203.971 122.066 203.971 122.066 203.971 122.066C203.971 122.066 203.971 122.066 203.971 122.066C203.971 122.066 203.971 122.066 203.97 122.066C203.97 122.066 203.97 122.066 203.97 122.066C203.97 122.066 203.97 122.066 203.97 122.066C203.97 122.066 203.97 122.066 203.97 122.066C203.97 122.066 203.97 122.066 203.97 122.066C203.969 122.066 203.969 122.066 203.969 122.066C203.969 122.066 203.969 122.066 203.969 122.066C203.969 122.066 203.969 122.066 203.969 122.066C203.969 122.066 203.969 122.066 203.969 122.066C203.968 122.066 203.968 122.066 203.968 122.066C203.968 122.066 203.968 122.066 203.968 122.066C203.968 122.066 203.968 122.066 203.968 122.066C203.968 122.066 203.968 122.066 203.968 122.066C203.968 122.066 203.967 122.066 203.967 122.066C203.967 122.066 203.967 122.066 203.967 122.066C203.967 122.066 203.967 122.066 203.967 122.066C203.967 122.066 203.967 122.066 203.967 122.066C203.967 122.066 203.967 122.066 203.966 122.066C203.966 122.066 203.966 122.066 203.966 122.066C203.966 122.066 203.966 122.066 203.966 122.066C203.966 122.066 203.966 122.066 203.966 122.066C203.966 122.066 203.966 122.066 203.965 122.066C203.965 122.066 203.965 122.066 203.965 122.066C203.965 122.066 203.965 122.066 203.965 122.066C203.965 122.066 203.965 122.066 203.965 122.066C203.965 122.066 203.965 122.066 203.965 122.066C203.964 122.066 203.964 122.066 203.964 122.066C203.964 122.066 203.964 122.066 203.964 122.066C203.964 122.066 203.964 122.066 203.964 122.066C203.964 122.066 203.964 122.066 203.964 122.066C203.964 122.066 203.963 122.066 203.963 122.066C203.963 122.066 203.963 122.066 203.963 122.066C203.963 122.066 203.963 122.066 203.963 122.066C203.963 122.066 203.963 122.066 203.963 122.066C203.963 122.066 203.962 122.066 203.962 122.066C203.962 122.066 203.962 122.066 203.962 122.066C203.962 122.066 203.962 122.066 203.962 122.066C203.962 122.066 203.962 122.066 203.962 122.066C203.962 122.066 203.962 122.066 203.961 122.066C203.961 122.066 203.961 122.066 203.961 122.066C203.961 122.066 203.961 122.066 203.961 122.066C203.961 122.066 203.961 122.066 203.961 122.066C203.961 122.066 203.961 122.066 203.96 122.066C203.96 122.066 203.96 122.066 203.96 122.066C203.96 122.066 203.96 122.066 203.96 122.066C203.96 122.066 203.96 122.066 203.96 122.066C203.96 122.066 203.96 122.066 203.96 122.066C203.959 122.066 203.959 122.066 203.959 122.066C203.959 122.066 203.959 122.066 203.959 122.066C203.959 122.066 203.959 122.066 203.959 122.066C203.959 122.066 203.959 122.066 203.959 122.066C203.958 122.066 203.958 122.066 203.958 122.066C203.958 122.066 203.958 122.066 203.958 122.066C203.958 122.066 203.958 122.066 203.958 122.066C203.958 122.066 203.958 122.066 203.958 122.066C203.958 122.066 203.957 122.066 203.957 122.066C203.957 122.066 203.957 122.066 203.957 122.066C203.957 122.066 203.957 122.066 203.957 122.066C203.957 122.066 203.957 122.066 203.957 122.066C203.957 122.066 203.956 122.066 203.956 122.066C203.956 122.066 203.956 122.066 203.956 122.066C203.956 122.066 203.956 122.066 203.956 122.066C203.956 122.066 203.956 122.066 203.956 122.066C203.956 122.066 203.956 122.066 203.955 122.066C203.955 122.066 203.955 122.066 203.955 122.066C203.955 122.066 203.955 122.066 203.955 122.066C203.955 122.066 203.955 122.066 203.955 122.066C203.955 122.066 203.955 122.066 203.954 122.066C203.954 122.066 203.954 122.066 203.954 122.066C203.954 122.066 203.954 122.066 203.954 122.066C203.954 122.066 203.954 122.066 203.954 122.066C203.954 122.066 203.954 122.066 203.954 122.066C203.953 122.066 203.953 122.066 203.953 122.066C203.953 122.066 203.953 122.066 203.953 122.066C203.953 122.066 203.953 122.066 203.953 122.066C203.953 122.066 203.953 122.066 203.953 122.066C203.953 122.066 203.952 122.066 203.952 122.066C203.952 122.066 203.952 122.066 203.952 122.066C203.952 122.066 203.952 122.066 203.952 122.066C203.952 122.066 203.952 122.066 203.952 122.066C203.952 122.066 203.951 122.066 203.951 122.066C203.951 122.066 203.951 122.066 203.951 122.066C203.951 122.066 203.951 122.066 203.951 122.066C203.951 122.066 203.951 122.066 203.951 122.066C203.951 122.066 203.951 122.066 203.95 122.066C203.95 122.066 203.95 122.066 203.95 122.066C203.95 122.066 203.95 122.066 203.95 122.066C203.95 122.066 203.95 122.066 203.95 122.066C203.95 122.066 203.95 122.066 203.95 122.066C203.949 122.066 203.949 122.066 203.949 122.066C203.949 122.066 203.949 122.066 203.949 122.066C203.949 122.066 203.949 122.066 203.949 122.066C203.949 122.066 203.949 122.066 203.949 122.066C203.949 122.066 203.948 122.066 203.948 122.066C203.948 122.066 203.948 122.066 203.948 122.066C203.948 122.066 203.948 122.066 203.948 122.066C203.948 122.066 203.948 122.066 203.948 122.066C203.948 122.066 203.947 122.066 203.947 122.066C203.947 122.066 203.947 122.066 203.947 122.066C203.947 122.066 203.947 122.066 203.947 122.066C203.947 122.066 203.947 122.066 203.947 122.066C203.947 122.066 203.947 122.066 203.946 122.066C203.946 122.066 203.946 122.066 203.946 122.066C203.946 122.066 203.946 122.066 203.946 122.066C203.946 122.066 203.946 122.066 203.946 122.066C203.946 122.066 203.946 122.066 203.946 122.066C203.945 122.066 203.945 122.066 203.945 122.066C203.945 122.066 203.945 122.066 203.945 122.066C203.945 122.066 203.945 122.066 203.945 122.066C203.945 122.066 203.945 122.066 203.945 122.066C203.945 122.066 203.944 122.066 203.944 122.066C203.944 122.066 203.944 122.066 203.944 122.066C203.944 122.066 203.944 122.066 203.944 122.066C203.944 122.066 203.944 122.066 203.944 122.066C203.944 122.066 203.944 122.066 203.943 122.066C203.943 122.066 203.943 122.066 203.943 122.066C203.943 122.066 203.943 122.066 203.943 122.066C203.943 122.066 203.943 122.066 203.943 122.066C203.943 122.066 203.943 122.066 203.943 122.066C203.942 122.066 203.942 122.066 203.942 122.066C203.942 122.066 203.942 122.066 203.942 122.066C203.942 122.066 203.942 122.066 203.942 122.066C203.942 122.066 203.942 122.066 203.942 122.066C203.942 122.066 203.941 122.066 203.941 122.066C203.941 122.066 203.941 122.066 203.941 122.066C203.941 122.066 203.941 122.066 203.941 122.066C203.941 122.066 203.941 122.066 203.941 122.066C203.941 122.066 203.941 122.066 203.941 122.066C203.94 122.066 203.94 122.066 203.94 122.066C203.94 122.066 203.94 122.066 203.94 122.066C203.94 122.066 203.94 122.066 203.94 122.066C203.94 122.066 203.94 122.066 203.94 122.066C203.94 122.066 203.939 122.066 203.939 122.066C203.939 122.066 203.939 122.066 203.939 122.066C203.939 122.066 203.939 122.066 203.939 122.066C203.939 122.066 203.939 122.066 203.939 122.066C203.939 122.066 203.939 122.066 203.939 122.066C203.938 122.066 203.938 122.066 203.938 122.066C203.938 122.066 203.938 122.066 203.938 122.066C203.938 122.066 203.938 122.066 203.938 122.066C203.938 122.066 203.938 122.066 203.938 122.066C203.938 122.066 203.937 122.066 203.937 122.066C203.937 122.066 203.937 122.066 203.937 122.066C203.937 122.066 203.937 122.066 203.937 122.066C203.937 122.066 203.937 122.066 203.937 122.066C203.937 122.066 203.937 122.066 203.937 122.066C203.936 122.066 203.936 122.066 203.936 122.066C203.936 122.066 203.936 122.066 203.936 122.066C203.936 122.066 203.936 122.066 203.936 122.066C203.936 122.066 203.936 122.066 203.936 122.066C203.936 122.066 203.936 122.066 203.935 122.066C203.935 122.066 203.935 122.066 203.935 122.066C203.935 122.066 203.935 122.066 203.935 122.066C203.935 122.066 203.935 122.066 203.935 122.066C203.935 122.066 203.935 122.066 203.935 122.066C203.935 122.066 203.934 122.066 203.934 122.066C203.934 122.066 203.934 122.066 203.934 122.066C203.934 122.066 203.934 122.066 203.934 122.066C203.934 122.066 203.934 122.066 203.934 122.066C203.934 122.066 203.934 122.066 203.934 122.066C203.933 122.066 203.933 122.066 203.933 122.066C203.933 122.066 203.933 122.066 203.933 122.066C203.933 122.066 203.933 122.066 203.933 122.066C203.933 122.066 203.933 122.066 203.933 122.066C203.933 122.066 203.933 122.066 203.932 122.066C203.932 122.066 203.932 122.066 203.932 122.066C203.932 122.066 203.932 122.066 203.932 122.066C203.932 122.066 203.932 122.066 203.932 122.066C203.932 122.066 203.932 122.066 203.932 122.066C203.932 122.066 203.931 122.066 203.931 122.066C203.931 122.066 203.931 122.066 203.931 122.066C203.931 122.066 203.931 122.066 203.931 122.066C203.931 122.066 203.931 122.066 203.931 122.066C203.931 122.066 203.931 122.066 203.931 122.066C203.931 122.066 203.93 122.066 203.93 122.066C203.93 122.066 203.93 122.066 203.93 122.066C203.93 122.066 203.93 122.066 203.93 122.066C203.93 122.066 203.93 122.066 203.93 122.066C203.93 122.066 203.93 122.066 203.93 122.066C203.929 122.066 203.929 122.066 203.929 122.066C203.929 122.066 203.929 122.066 203.929 122.066C203.929 122.066 203.929 122.066 203.929 122.066C203.929 122.066 203.929 122.066 203.929 122.066C203.929 122.066 203.929 122.066 203.929 122.066C203.928 122.066 203.928 122.066 203.928 122.066C203.928 122.066 203.928 122.066 203.928 122.066C203.928 122.066 203.928 122.066 203.928 122.066C203.928 122.066 203.928 122.066 203.928 122.066C203.928 122.066 203.928 122.066 203.928 122.066C203.927 122.066 203.927 122.066 203.927 122.066C203.927 122.066 203.927 122.066 203.927 122.066C203.927 122.066 203.927 122.066 203.927 122.066C203.927 122.066 203.927 122.066 203.927 122.066C203.927 122.066 203.927 122.066 203.927 122.066C203.927 122.066 203.926 122.066 203.926 122.066C203.926 122.066 203.926 122.066 203.926 122.066C203.926 122.066 203.926 122.066 203.926 122.066C203.926 122.066 203.926 122.066 203.926 122.066C203.926 122.066 203.926 122.066 203.926 122.066C203.926 122.066 203.925 122.066 203.925 122.066C203.925 122.066 203.925 122.066 203.925 122.066C203.925 122.066 203.925 122.066 203.925 122.066C203.925 122.066 203.925 122.066 203.925 122.066C203.925 122.066 203.925 122.066 203.925 122.066C203.925 122.066 203.925 122.066 203.924 122.066C203.924 122.066 203.924 122.066 203.924 122.066C203.924 122.066 203.924 122.066 203.924 122.066C203.924 122.066 203.924 122.066 203.924 122.066C203.924 122.066 203.924 122.066 203.924 122.066C203.924 122.066 203.924 122.066 203.924 122.066C203.924 122.066 203.923 122.066 203.923 122.066C203.923 122.066 203.923 122.066 203.923 122.066C203.923 122.066 203.923 122.066 203.923 122.066C203.923 122.066 203.923 122.066 203.923 122.066C203.923 122.066 203.923 122.066 203.923 122.066C203.923 122.066 203.923 122.066 203.922 122.066V126.066C203.923 126.066 203.923 126.066 203.923 126.066C203.923 126.066 203.923 126.066 203.923 126.066C203.923 126.066 203.923 126.066 203.923 126.066C203.923 126.066 203.923 126.066 203.923 126.066C203.923 126.066 203.923 126.066 203.923 126.066C203.923 126.066 203.924 126.066 203.924 126.066C203.924 126.066 203.924 126.066 203.924 126.066C203.924 126.066 203.924 126.066 203.924 126.066C203.924 126.066 203.924 126.066 203.924 126.066C203.924 126.066 203.924 126.066 203.924 126.066C203.924 126.066 203.924 126.066 203.924 126.066C203.925 126.066 203.925 126.066 203.925 126.066C203.925 126.066 203.925 126.066 203.925 126.066C203.925 126.066 203.925 126.066 203.925 126.066C203.925 126.066 203.925 126.066 203.925 126.066C203.925 126.066 203.925 126.066 203.925 126.066C203.925 126.066 203.926 126.066 203.926 126.066C203.926 126.066 203.926 126.066 203.926 126.066C203.926 126.066 203.926 126.066 203.926 126.066C203.926 126.066 203.926 126.066 203.926 126.066C203.926 126.066 203.926 126.066 203.926 126.066C203.926 126.066 203.927 126.066 203.927 126.066C203.927 126.066 203.927 126.066 203.927 126.066C203.927 126.066 203.927 126.066 203.927 126.066C203.927 126.066 203.927 126.066 203.927 126.066C203.927 126.066 203.927 126.066 203.927 126.066C203.927 126.066 203.927 126.066 203.928 126.066C203.928 126.066 203.928 126.066 203.928 126.066C203.928 126.066 203.928 126.066 203.928 126.066C203.928 126.066 203.928 126.066 203.928 126.066C203.928 126.066 203.928 126.066 203.928 126.066C203.928 126.066 203.928 126.066 203.929 126.066C203.929 126.066 203.929 126.066 203.929 126.066C203.929 126.066 203.929 126.066 203.929 126.066C203.929 126.066 203.929 126.066 203.929 126.066C203.929 126.066 203.929 126.066 203.929 126.066C203.929 126.066 203.929 126.066 203.93 126.066C203.93 126.066 203.93 126.066 203.93 126.066C203.93 126.066 203.93 126.066 203.93 126.066C203.93 126.066 203.93 126.066 203.93 126.066C203.93 126.066 203.93 126.066 203.93 126.066C203.93 126.066 203.931 126.066 203.931 126.066C203.931 126.066 203.931 126.066 203.931 126.066C203.931 126.066 203.931 126.066 203.931 126.066C203.931 126.066 203.931 126.066 203.931 126.066C203.931 126.066 203.931 126.066 203.931 126.066C203.931 126.066 203.932 126.066 203.932 126.066C203.932 126.066 203.932 126.066 203.932 126.066C203.932 126.066 203.932 126.066 203.932 126.066C203.932 126.066 203.932 126.066 203.932 126.066C203.932 126.066 203.932 126.066 203.932 126.066C203.933 126.066 203.933 126.066 203.933 126.066C203.933 126.066 203.933 126.066 203.933 126.066C203.933 126.066 203.933 126.066 203.933 126.066C203.933 126.066 203.933 126.066 203.933 126.066C203.933 126.066 203.933 126.066 203.934 126.066C203.934 126.066 203.934 126.066 203.934 126.066C203.934 126.066 203.934 126.066 203.934 126.066C203.934 126.066 203.934 126.066 203.934 126.066C203.934 126.066 203.934 126.066 203.934 126.066C203.934 126.066 203.935 126.066 203.935 126.066C203.935 126.066 203.935 126.066 203.935 126.066C203.935 126.066 203.935 126.066 203.935 126.066C203.935 126.066 203.935 126.066 203.935 126.066C203.935 126.066 203.935 126.066 203.935 126.066C203.936 126.066 203.936 126.066 203.936 126.066C203.936 126.066 203.936 126.066 203.936 126.066C203.936 126.066 203.936 126.066 203.936 126.066C203.936 126.066 203.936 126.066 203.936 126.066C203.936 126.066 203.936 126.066 203.937 126.066C203.937 126.066 203.937 126.066 203.937 126.066C203.937 126.066 203.937 126.066 203.937 126.066C203.937 126.066 203.937 126.066 203.937 126.066C203.937 126.066 203.937 126.066 203.937 126.066C203.937 126.066 203.938 126.066 203.938 126.066C203.938 126.066 203.938 126.066 203.938 126.066C203.938 126.066 203.938 126.066 203.938 126.066C203.938 126.066 203.938 126.066 203.938 126.066C203.938 126.066 203.938 126.066 203.939 126.066C203.939 126.066 203.939 126.066 203.939 126.066C203.939 126.066 203.939 126.066 203.939 126.066C203.939 126.066 203.939 126.066 203.939 126.066C203.939 126.066 203.939 126.066 203.939 126.066C203.939 126.066 203.94 126.066 203.94 126.066C203.94 126.066 203.94 126.066 203.94 126.066C203.94 126.066 203.94 126.066 203.94 126.066C203.94 126.066 203.94 126.066 203.94 126.066C203.94 126.066 203.94 126.066 203.941 126.066C203.941 126.066 203.941 126.066 203.941 126.066C203.941 126.066 203.941 126.066 203.941 126.066C203.941 126.066 203.941 126.066 203.941 126.066C203.941 126.066 203.941 126.066 203.941 126.066C203.941 126.066 203.942 126.066 203.942 126.066C203.942 126.066 203.942 126.066 203.942 126.066C203.942 126.066 203.942 126.066 203.942 126.066C203.942 126.066 203.942 126.066 203.942 126.066C203.942 126.066 203.942 126.066 203.943 126.066C203.943 126.066 203.943 126.066 203.943 126.066C203.943 126.066 203.943 126.066 203.943 126.066C203.943 126.066 203.943 126.066 203.943 126.066C203.943 126.066 203.943 126.066 203.943 126.066C203.944 126.066 203.944 126.066 203.944 126.066C203.944 126.066 203.944 126.066 203.944 126.066C203.944 126.066 203.944 126.066 203.944 126.066C203.944 126.066 203.944 126.066 203.944 126.066C203.944 126.066 203.945 126.066 203.945 126.066C203.945 126.066 203.945 126.066 203.945 126.066C203.945 126.066 203.945 126.066 203.945 126.066C203.945 126.066 203.945 126.066 203.945 126.066C203.945 126.066 203.945 126.066 203.946 126.066C203.946 126.066 203.946 126.066 203.946 126.066C203.946 126.066 203.946 126.066 203.946 126.066C203.946 126.066 203.946 126.066 203.946 126.066C203.946 126.066 203.946 126.066 203.946 126.066C203.947 126.066 203.947 126.066 203.947 126.066C203.947 126.066 203.947 126.066 203.947 126.066C203.947 126.066 203.947 126.066 203.947 126.066C203.947 126.066 203.947 126.066 203.947 126.066C203.947 126.066 203.948 126.066 203.948 126.066C203.948 126.066 203.948 126.066 203.948 126.066C203.948 126.066 203.948 126.066 203.948 126.066C203.948 126.066 203.948 126.066 203.948 126.066C203.948 126.066 203.949 126.066 203.949 126.066C203.949 126.066 203.949 126.066 203.949 126.066C203.949 126.066 203.949 126.066 203.949 126.066C203.949 126.066 203.949 126.066 203.949 126.066C203.949 126.066 203.949 126.066 203.95 126.066C203.95 126.066 203.95 126.066 203.95 126.066C203.95 126.066 203.95 126.066 203.95 126.066C203.95 126.066 203.95 126.066 203.95 126.066C203.95 126.066 203.95 126.066 203.95 126.066C203.951 126.066 203.951 126.066 203.951 126.066C203.951 126.066 203.951 126.066 203.951 126.066C203.951 126.066 203.951 126.066 203.951 126.066C203.951 126.066 203.951 126.066 203.951 126.066C203.951 126.066 203.952 126.066 203.952 126.066C203.952 126.066 203.952 126.066 203.952 126.066C203.952 126.066 203.952 126.066 203.952 126.066C203.952 126.066 203.952 126.066 203.952 126.066C203.952 126.066 203.953 126.066 203.953 126.066C203.953 126.066 203.953 126.066 203.953 126.066C203.953 126.066 203.953 126.066 203.953 126.066C203.953 126.066 203.953 126.066 203.953 126.066C203.953 126.066 203.953 126.066 203.954 126.066C203.954 126.066 203.954 126.066 203.954 126.066C203.954 126.066 203.954 126.066 203.954 126.066C203.954 126.066 203.954 126.066 203.954 126.066C203.954 126.066 203.954 126.066 203.954 126.066C203.955 126.066 203.955 126.066 203.955 126.066C203.955 126.066 203.955 126.066 203.955 126.066C203.955 126.066 203.955 126.066 203.955 126.066C203.955 126.066 203.955 126.066 203.955 126.066C203.956 126.066 203.956 126.066 203.956 126.066C203.956 126.066 203.956 126.066 203.956 126.066C203.956 126.066 203.956 126.066 203.956 126.066C203.956 126.066 203.956 126.066 203.956 126.066C203.956 126.066 203.957 126.066 203.957 126.066C203.957 126.066 203.957 126.066 203.957 126.066C203.957 126.066 203.957 126.066 203.957 126.066C203.957 126.066 203.957 126.066 203.957 126.066C203.957 126.066 203.958 126.066 203.958 126.066C203.958 126.066 203.958 126.066 203.958 126.066C203.958 126.066 203.958 126.066 203.958 126.066C203.958 126.066 203.958 126.066 203.958 126.066C203.958 126.066 203.958 126.066 203.959 126.066C203.959 126.066 203.959 126.066 203.959 126.066C203.959 126.066 203.959 126.066 203.959 126.066C203.959 126.066 203.959 126.066 203.959 126.066C203.959 126.066 203.959 126.066 203.96 126.066C203.96 126.066 203.96 126.066 203.96 126.066C203.96 126.066 203.96 126.066 203.96 126.066C203.96 126.066 203.96 126.066 203.96 126.066C203.96 126.066 203.96 126.066 203.96 126.066C203.961 126.066 203.961 126.066 203.961 126.066C203.961 126.066 203.961 126.066 203.961 126.066C203.961 126.066 203.961 126.066 203.961 126.066C203.961 126.066 203.961 126.066 203.961 126.066C203.962 126.066 203.962 126.066 203.962 126.066C203.962 126.066 203.962 126.066 203.962 126.066C203.962 126.066 203.962 126.066 203.962 126.066C203.962 126.066 203.962 126.066 203.962 126.066C203.962 126.066 203.963 126.066 203.963 126.066C203.963 126.066 203.963 126.066 203.963 126.066C203.963 126.066 203.963 126.066 203.963 126.066C203.963 126.066 203.963 126.066 203.963 126.066C203.963 126.066 203.964 126.066 203.964 126.066C203.964 126.066 203.964 126.066 203.964 126.066C203.964 126.066 203.964 126.066 203.964 126.066C203.964 126.066 203.964 126.066 203.964 126.066C203.964 126.066 203.964 126.066 203.965 126.066C203.965 126.066 203.965 126.066 203.965 126.066C203.965 126.066 203.965 126.066 203.965 126.066C203.965 126.066 203.965 126.066 203.965 126.066C203.965 126.066 203.965 126.066 203.965 126.066C203.966 126.066 203.966 126.066 203.966 126.066C203.966 126.066 203.966 126.066 203.966 126.066C203.966 126.066 203.966 126.066 203.966 126.066C203.966 126.066 203.966 126.066 203.966 126.066C203.967 126.066 203.967 126.066 203.967 126.066C203.967 126.066 203.967 126.066 203.967 126.066C203.967 126.066 203.967 126.066 203.967 126.066C203.967 126.066 203.967 126.066 203.967 126.066C203.967 126.066 203.968 126.066 203.968 126.066C203.968 126.066 203.968 126.066 203.968 126.066C203.968 126.066 203.968 126.066 203.968 126.066C203.968 126.066 203.968 126.066 203.968 126.066C203.968 126.066 203.968 126.066 203.969 126.066C203.969 126.066 203.969 126.066 203.969 126.066C203.969 126.066 203.969 126.066 203.969 126.066C203.969 126.066 203.969 126.066 203.969 126.066C203.969 126.066 203.969 126.066 203.97 126.066C203.97 126.066 203.97 126.066 203.97 126.066C203.97 126.066 203.97 126.066 203.97 126.066C203.97 126.066 203.97 126.066 203.97 126.066C203.97 126.066 203.97 126.066 203.97 126.066C203.971 126.066 203.971 126.066 203.971 126.066C203.971 126.066 203.971 126.066 203.971 126.066C203.971 126.066 203.971 126.066 203.971 126.066C203.971 126.066 203.971 126.066 203.971 126.066C203.971 126.066 203.972 126.066 203.972 126.066C203.972 126.066 203.972 126.066 203.972 126.066C203.972 126.066 203.972 126.066 203.972 126.066C203.972 126.066 203.972 126.066 203.972 126.066C203.972 126.066 203.972 126.066 203.973 126.066C203.973 126.066 203.973 126.066 203.973 126.066C203.973 126.066 203.973 126.066 203.973 126.066C203.973 126.066 203.973 126.066 203.973 126.066C203.973 126.066 203.973 126.066 203.974 126.066C203.974 126.066 203.974 126.066 203.974 126.066C203.974 126.066 203.974 126.066 203.974 126.066C203.974 126.066 203.974 126.066 203.974 126.066C203.974 126.066 203.974 126.066 203.974 126.066C203.975 126.066 203.975 126.066 203.975 126.066C203.975 126.066 203.975 126.066 203.975 126.066C203.975 126.066 203.975 126.066 203.975 126.066C203.975 126.066 203.975 126.066 203.975 126.066C203.975 126.066 203.976 126.066 203.976 126.066C203.976 126.066 203.976 126.066 203.976 126.066C203.976 126.066 203.976 126.066 203.976 126.066C203.976 126.066 203.976 126.066 203.976 126.066C203.976 126.066 203.976 126.066 203.977 126.066C203.977 126.066 203.977 126.066 203.977 126.066C203.977 126.066 203.977 126.066 203.977 126.066C203.977 126.066 203.977 126.066 203.977 126.066C203.977 126.066 203.977 126.066 203.977 126.066C203.977 126.066 203.978 126.066 203.978 126.066C203.978 126.066 203.978 126.066 203.978 126.066C203.978 126.066 203.978 126.066 203.978 126.066C203.978 126.066 203.978 126.066 203.978 126.066C203.978 126.066 203.978 126.066 203.979 126.066C203.979 126.066 203.979 126.066 203.979 126.066C203.979 126.066 203.979 126.066 203.979 126.066C203.979 126.066 203.979 126.066 203.979 126.066C203.979 126.066 203.979 126.066 203.979 126.066C203.98 126.066 203.98 126.066 203.98 126.066C203.98 126.066 203.98 126.066 203.98 126.066C203.98 126.066 203.98 126.066 203.98 126.066C203.98 126.066 203.98 126.066 203.98 126.066C203.98 126.066 203.981 126.066 203.981 126.066C203.981 126.066 203.981 126.066 203.981 126.066C203.981 126.066 203.981 126.066 203.981 126.066C203.981 126.066 203.981 126.066 203.981 126.066C203.981 126.066 203.981 126.066 203.981 126.066C203.982 126.066 203.982 126.066 203.982 126.066C203.982 126.066 203.982 126.066 203.982 126.066C203.982 126.066 203.982 126.066 203.982 126.066C203.982 126.066 203.982 126.066 203.982 126.066C203.982 126.066 203.982 126.066 203.983 126.066C203.983 126.066 203.983 126.066 203.983 126.066C203.983 126.066 203.983 126.066 203.983 126.066C203.983 126.066 203.983 126.066 203.983 126.066C203.983 126.066 203.983 126.066 203.983 126.066C203.984 126.066 203.984 126.066 203.984 126.066C203.984 126.066 203.984 126.066 203.984 126.066C203.984 126.066 203.984 126.066 203.984 126.066C203.984 126.066 203.984 126.066 203.984 126.066C203.984 126.066 203.984 126.066 203.985 126.066C203.985 126.066 203.985 126.066 203.985 126.066C203.985 126.066 203.985 126.066 203.985 126.066C203.985 126.066 203.985 126.066 203.985 126.066C203.985 126.066 203.985 126.066 203.985 126.066C203.985 126.066 203.986 126.066 203.986 126.066C203.986 126.066 203.986 126.066 203.986 126.066C203.986 126.066 203.986 126.066 203.986 126.066C203.986 126.066 203.986 126.066 203.986 126.066C203.986 126.066 203.986 126.066 203.986 126.066C203.987 126.066 203.987 126.066 203.987 126.066C203.987 126.066 203.987 126.066 203.987 126.066C203.987 126.066 203.987 126.066 203.987 126.066C203.987 126.066 203.987 126.066 203.987 126.066C203.987 126.066 203.987 126.066 203.988 126.066C203.988 126.066 203.988 126.066 203.988 126.066C203.988 126.066 203.988 126.066 203.988 126.066C203.988 126.066 203.988 126.066 203.988 126.066C203.988 126.066 203.988 126.066 203.988 126.066C203.988 126.066 203.988 126.066 203.989 126.066C203.989 126.066 203.989 126.066 203.989 126.066C203.989 126.066 203.989 126.066 203.989 126.066C203.989 126.066 203.989 126.066 203.989 126.066C203.989 126.066 203.989 126.066 203.989 126.066C203.989 126.066 203.99 126.066 203.99 126.066C203.99 126.066 203.99 126.066 203.99 126.066C203.99 126.066 203.99 126.066 203.99 126.066C203.99 126.066 203.99 126.066 203.99 126.066C203.99 126.066 203.99 126.066 203.99 126.066C203.99 126.066 203.991 126.066 203.991 126.066C203.991 126.066 203.991 126.066 203.991 126.066C203.991 126.066 203.991 126.066 203.991 126.066C203.991 126.066 203.991 126.066 203.991 126.066C203.991 126.066 203.991 126.066 203.991 126.066C203.991 126.066 203.992 126.066 203.992 126.066C203.992 126.066 203.992 126.066 203.992 126.066C203.992 126.066 203.992 126.066 203.992 126.066C203.992 126.066 203.992 126.066 203.992 126.066C203.992 126.066 203.992 126.066 203.992 126.066C203.992 126.066 203.993 126.066 203.993 126.066C203.993 126.066 203.993 126.066 203.993 126.066C203.993 126.066 203.993 126.066 203.993 126.066C203.993 126.066 203.993 126.066 203.993 126.066C203.993 126.066 203.993 126.066 203.993 126.066C203.993 126.066 203.993 126.066 203.994 126.066C203.994 126.066 203.994 126.066 203.994 126.066C203.994 126.066 203.994 126.066 203.994 126.066C203.994 126.066 203.994 126.066 203.994 126.066C203.994 126.066 203.994 126.066 203.994 126.066C203.994 126.066 203.994 126.066 203.995 126.066C203.995 126.066 203.995 126.066 203.995 126.066C203.995 126.066 203.995 126.066 203.995 126.066C203.995 126.066 203.995 126.066 203.995 126.066C203.995 126.066 203.995 126.066 203.995 126.066C203.995 126.066 203.995 126.066 203.995 126.066C203.996 126.066 203.996 126.066 203.996 126.066C203.996 126.066 203.996 126.066 203.996 126.066C203.996 126.066 203.996 126.066 203.996 126.066C203.996 126.066 203.996 126.066 203.996 126.066C203.996 126.066 203.996 126.066 203.996 126.066C203.996 126.066 203.997 126.066 203.997 126.066C203.997 126.066 203.997 126.066 203.997 126.066C203.997 126.066 203.997 126.066 203.997 126.066C203.997 126.066 203.997 126.066 203.997 126.066C203.997 126.066 203.997 126.066 203.997 126.066C203.997 126.066 203.997 126.066 203.997 126.066C203.998 126.066 203.998 126.066 203.998 126.066C203.998 126.066 203.998 126.066 203.998 126.066C203.998 126.066 203.998 126.066 203.998 126.066C203.998 126.066 203.998 126.066 203.998 126.066C203.998 126.066 203.998 126.066 203.998 126.066C203.998 126.066 203.998 126.066 203.999 126.066C203.999 126.066 203.999 126.066 203.999 126.066C203.999 126.066 203.999 126.066 203.999 126.066C203.999 126.066 203.999 126.066 203.999 126.066C203.999 126.066 203.999 126.066 203.999 126.066C203.999 126.066 203.999 126.066 203.999 126.066C203.999 126.066 204 126.066 204 126.066C204 126.066 204 126.066 204 126.066C204 126.066 204 126.066 204 126.066C204 126.066 204 126.066 204 126.066C204 126.066 204 126.066 204 126.066C204 126.066 204 126.066 204 126.066C204 126.066 204.001 126.066 204.001 126.066C204.001 126.066 204.001 126.066 204.001 126.066C204.001 126.066 204.001 126.066 204.001 126.066C204.001 126.066 204.001 126.066 204.001 126.066C204.001 126.066 204.001 126.066 204.001 126.066C204.001 126.066 204.001 126.066 204.001 126.066C204.001 126.066 204.001 126.066 204.002 126.066C204.002 126.066 204.002 126.066 204.002 126.066C204.002 126.066 204.002 126.066 204.002 126.066C204.002 126.066 204.002 126.066 204.002 126.066C204.002 126.066 204.002 126.066 204.002 126.066C204.002 126.066 204.002 126.066 204.002 126.066C204.002 126.066 204.002 126.066 204.003 126.066C204.003 126.066 204.003 126.066 204.003 126.066C204.003 126.066 204.003 126.066 204.003 126.066C204.003 126.066 204.003 126.066 204.003 126.066C204.003 126.066 204.003 126.066 204.003 126.066C204.003 126.066 204.003 126.066 204.003 126.066C204.003 126.066 204.003 126.066 204.003 126.066C204.003 126.066 204.004 126.066 204.004 126.066C204.004 126.066 204.004 126.066 204.004 126.066C204.004 126.066 204.004 126.066 204.004 126.066C204.004 126.066 204.004 126.066 204.004 126.066C204.004 126.066 204.004 126.066 204.004 126.066C204.004 126.066 204.004 126.066 204.004 126.066C204.004 126.066 204.004 126.066 204.004 126.066C204.005 126.066 204.005 126.066 204.005 126.066C204.005 126.066 204.005 126.066 204.005 126.066C204.005 126.066 204.005 126.066 204.005 126.066C204.005 126.066 204.005 126.066 204.005 126.066C204.005 126.066 204.005 126.066 204.005 126.066C204.005 126.066 204.005 126.066 204.005 126.066C204.005 126.066 204.005 126.066 204.005 126.066C204.006 126.066 204.006 126.066 204.006 126.066C204.006 126.066 204.006 126.066 204.006 126.066C204.006 126.066 204.006 126.066 204.006 126.066C204.006 126.066 204.006 126.066 204.006 126.066C204.006 126.066 204.006 126.066 204.006 126.066C204.006 126.066 204.006 126.066 204.006 126.066C204.006 126.066 204.006 126.066 204.006 126.066C204.006 126.066 204.006 126.066 204.007 126.066C204.007 126.066 204.007 126.066 204.007 126.066C204.007 126.066 204.007 126.066 204.007 126.066C204.007 126.066 204.007 126.066 204.007 126.066C204.007 126.066 204.007 126.066 204.007 126.066C204.007 126.066 204.007 126.066 204.007 126.066C204.007 126.066 204.007 126.066 204.007 126.066C204.007 126.066 204.007 126.066 204.007 126.066C204.007 126.066 204.008 126.066 204.008 126.066C204.008 126.066 204.008 126.066 204.008 126.066C204.008 126.066 204.008 126.066 204.008 126.066C204.008 126.066 204.008 126.066 204.008 126.066C204.008 126.066 204.008 126.066 204.008 126.066C204.008 126.066 204.008 126.066 204.008 126.066C204.008 126.066 204.008 126.066 204.008 126.066C204.008 126.066 204.008 126.066 204.008 126.066C204.008 126.066 204.008 126.066 204.009 126.066C204.009 126.066 204.009 126.066 204.009 126.066C204.009 126.066 204.009 126.066 204.009 126.066C204.009 126.066 204.009 126.066 204.009 126.066C204.009 126.066 204.009 126.066 204.009 126.066C204.009 126.066 204.009 126.066 204.009 126.066C204.009 126.066 204.009 126.066 204.009 126.066C204.009 126.066 204.009 126.066 204.009 126.066C204.009 126.066 204.009 126.066 204.009 126.066C204.009 126.066 204.009 126.066 204.01 126.066C204.01 126.066 204.01 126.066 204.01 126.066C204.01 126.066 204.01 126.066 204.01 126.066C204.01 126.066 204.01 126.066 204.01 126.066C204.01 126.066 204.01 126.066 204.01 126.066C204.01 126.066 204.01 126.066 204.01 126.066C204.01 126.066 204.01 126.066 204.01 126.066C204.01 126.066 204.01 126.066 204.01 126.066C204.01 126.066 204.01 126.066 204.01 126.066C204.01 126.066 204.01 126.066 204.01 126.066C204.01 126.066 204.01 126.066 204.011 126.066C204.011 126.066 204.011 126.066 204.011 126.066C204.011 126.066 204.011 126.066 204.011 126.066C204.011 126.066 204.011 126.066 204.011 126.066C204.011 126.066 204.011 126.066 204.011 126.066C204.011 126.066 204.011 126.066 204.011 126.066C204.011 126.066 204.011 126.066 204.011 126.066C204.011 126.066 204.011 126.066 204.011 126.066C204.011 126.066 204.011 126.066 204.011 126.066C204.011 126.066 204.011 126.066 204.011 126.066C204.011 126.066 204.011 126.066 204.011 126.066C204.011 126.066 204.011 126.066 204.012 126.066C204.012 126.066 204.012 126.066 204.012 126.066C204.012 126.066 204.012 126.066 204.012 126.066C204.012 126.066 204.012 126.066 204.012 126.066C204.012 126.066 204.012 126.066 204.012 126.066C204.012 126.066 204.012 126.066 204.012 126.066C204.012 126.066 204.012 126.066 204.012 126.066C204.012 126.066 204.012 126.066 204.012 126.066C204.012 126.066 204.012 126.066 204.012 126.066C204.012 126.066 204.012 126.066 204.012 126.066C204.012 126.066 204.012 126.066 204.012 126.066C204.012 126.066 204.012 126.066 204.012 126.066C204.012 126.066 204.012 126.066 204.012 126.066C204.012 126.066 204.012 126.066 204.012 126.066C204.013 126.066 204.013 126.066 204.013 126.066C204.013 126.066 204.013 126.066 204.013 126.066C204.013 126.066 204.013 126.066 204.013 126.066C204.013 126.066 204.013 126.066 204.013 126.066C204.013 126.066 204.013 126.066 204.013 126.066C204.013 126.066 204.013 126.066 204.013 126.066C204.013 126.066 204.013 126.066 204.013 126.066C204.013 126.066 204.013 126.066 204.013 126.066C204.013 126.066 204.013 126.066 204.013 126.066C204.013 126.066 204.013 126.066 204.013 126.066C204.013 126.066 204.013 126.066 204.013 126.066C204.013 126.066 204.013 126.066 204.013 126.066C204.013 126.066 204.013 126.066 204.013 126.066C204.013 126.066 204.013 126.066 204.013 126.066C204.013 126.066 204.013 126.066 204.013 126.066C204.013 126.066 204.013 126.066 204.013 126.066C204.013 126.066 204.013 126.066 204.013 126.066C204.014 126.066 204.014 126.066 204.014 126.066C204.014 126.066 204.014 126.066 204.014 126.066C204.014 126.066 204.014 126.066 204.014 126.066C204.014 126.066 204.014 126.066 204.014 126.066C204.014 126.066 204.014 126.066 204.014 126.066C204.014 126.066 204.014 126.066 204.014 126.066C204.014 126.066 204.014 126.066 204.014 126.066C204.014 126.066 204.014 126.066 204.014 126.066C204.014 126.066 204.014 126.066 204.014 126.066C204.014 126.066 204.014 126.066 204.014 126.066C204.014 126.066 204.014 126.066 204.014 126.066C204.014 126.066 204.014 126.066 204.014 126.066C204.014 126.066 204.014 126.066 204.014 126.066C204.014 126.066 204.014 126.066 204.014 126.066C204.014 126.066 204.014 126.066 204.014 126.066C204.014 126.066 204.014 126.066 204.014 126.066C204.014 126.066 204.014 126.066 204.014 126.066C204.014 126.066 204.014 126.066 204.014 126.066C204.014 126.066 204.014 126.066 204.014 126.066C204.014 126.066 204.014 126.066 204.014 126.066C204.014 126.066 204.014 126.066 204.014 126.066C204.014 126.066 204.014 126.066 204.014 126.066C204.014 126.066 204.014 126.066 204.014 126.066C204.014 126.066 204.014 126.066 204.014 126.066C204.014 126.066 204.014 126.066 204.014 126.066C204.014 126.066 204.014 126.066 204.014 126.066C204.014 126.066 204.014 126.066 204.014 126.066C204.014 126.066 204.014 126.066 204.014 126.066C204.014 126.066 204.014 126.066 204.014 126.066C204.014 126.066 204.014 126.066 204.014 126.066C204.014 126.066 204.014 126.066 204.014 126.066C204.014 126.066 204.014 126.066 204.014 126.066H204.014H204.014C204.014 126.066 204.014 126.066 204.014 124.066ZM203.922 122.066C202.619 122.066 201.663 122.777 201.072 123.368C200.474 123.966 199.997 124.696 199.656 125.238L203.043 127.366C203.376 126.836 203.649 126.448 203.901 126.196C204.16 125.937 204.153 126.066 203.922 126.066V122.066ZM199.655 125.239C199.189 125.982 198.78 126.36 198.509 126.523C198.281 126.661 198.213 126.621 198.205 126.619L197.081 130.458C199.703 131.225 201.791 129.362 203.044 127.365L199.655 125.239ZM198.218 126.622C198.15 126.602 198.086 126.578 197.967 126.399C197.802 126.152 197.663 125.81 197.431 125.196L193.69 126.612C194.039 127.535 194.745 129.757 197.068 130.454L198.218 126.622ZM197.433 125.202C197.307 124.865 197.134 124.392 196.921 123.95C196.707 123.507 196.387 122.954 195.887 122.484L193.151 125.402C193.14 125.393 193.204 125.452 193.319 125.69C193.435 125.93 193.538 126.208 193.688 126.606L197.433 125.202ZM195.883 122.481C194.963 121.622 193.851 121.361 192.938 121.297C192.05 121.236 191.133 121.35 190.437 121.439L190.943 125.407C191.686 125.312 192.224 125.257 192.661 125.288C192.863 125.302 192.989 125.332 193.063 125.358C193.128 125.381 193.148 125.4 193.154 125.406L195.883 122.481ZM190.469 121.435L189.918 121.496L190.359 125.472L190.911 125.41L190.469 121.435ZM189.928 121.495C188.794 121.615 188.037 121.518 187.61 121.369C187.211 121.23 187.289 121.132 187.332 121.269L183.511 122.452C183.951 123.876 185.086 124.727 186.296 125.147C187.477 125.557 188.879 125.628 190.349 125.473L189.928 121.495ZM185.906 119.92C185.987 119.94 186.045 119.972 186.086 120.001C186.126 120.031 186.161 120.068 186.19 120.113L182.815 122.26C183.293 123.012 184.052 123.58 184.936 123.801L185.906 119.92ZM186.167 120.077C186.149 120.05 186.06 119.867 186.05 119.46C186.04 119.076 186.106 118.674 186.197 118.383L182.379 117.19C182.164 117.879 182.03 118.718 182.051 119.56C182.072 120.377 182.244 121.404 182.838 122.296L186.167 120.077ZM186.204 118.361C186.387 117.749 186.513 117.043 186.529 116.355C186.543 115.733 186.478 114.823 186.003 114.031L182.573 116.089C182.505 115.976 182.504 115.918 182.514 115.975C182.523 116.023 182.533 116.118 182.53 116.262C182.523 116.554 182.464 116.905 182.372 117.212L186.204 118.361ZM185.915 113.898C185.598 113.454 184.979 112.806 183.954 112.678L183.458 116.647C183.215 116.616 183.011 116.522 182.863 116.416C182.73 116.32 182.668 116.233 182.661 116.223L185.915 113.898ZM184.08 112.698C182.972 112.487 182.095 112.962 181.586 113.341C181.088 113.711 180.666 114.194 180.385 114.519L183.412 117.133C183.552 116.972 183.665 116.844 183.769 116.739C183.873 116.632 183.939 116.576 183.973 116.55C184.009 116.524 183.969 116.561 183.859 116.597C183.733 116.639 183.545 116.668 183.332 116.627L184.08 112.698ZM180.362 114.546C180.277 114.648 180.159 114.768 179.994 114.933L182.823 117.761C182.964 117.62 183.214 117.372 183.435 117.107L180.362 114.546ZM179.994 114.933C179.431 115.497 178.374 115.83 177.084 115.487L176.054 119.351C178.44 119.988 181.059 119.525 182.823 117.761L179.994 114.933ZM177.092 115.489C175.876 115.159 175.122 114.321 174.925 113.534L171.045 114.504C171.644 116.902 173.647 118.699 176.045 119.349L177.092 115.489ZM174.928 113.544C174.705 112.632 174.852 111.681 175.083 110.229L171.133 109.6C170.935 110.844 170.591 112.649 171.042 114.494L174.928 113.544ZM175.077 110.264C175.3 109.008 175.681 107.172 175.106 105.359L171.293 106.567C171.515 107.266 171.405 108.064 171.139 109.564L175.077 110.264ZM175.11 105.372C174.482 103.344 172.949 102.295 171.921 101.801L170.19 105.407C170.694 105.649 171.12 106.009 171.289 106.554L175.11 105.372ZM171.95 101.816C170.134 100.908 167.89 100.737 165.957 101.409L167.271 105.187C168.156 104.879 169.282 104.954 170.161 105.393L171.95 101.816ZM165.95 101.411C162.391 102.663 160.25 105.977 159.178 108.184L162.777 109.93C163.728 107.971 165.262 105.893 167.277 105.185L165.95 101.411ZM159.121 108.314C159.285 107.903 159.575 107.642 159.814 107.501C160.022 107.379 160.191 107.346 160.218 107.341L161.002 111.263C161.267 111.21 162.368 110.966 162.835 109.8L159.121 108.314ZM160.61 107.302C160.945 107.302 161.449 107.434 161.812 107.918L158.612 110.318C159.159 111.047 159.969 111.302 160.61 111.302V107.302ZM161.845 107.963L159.701 104.931L156.435 107.24L158.579 110.273L161.845 107.963ZM158.068 106.086C159.685 104.909 159.685 104.909 159.685 104.909C159.685 104.909 159.685 104.908 159.685 104.908C159.684 104.908 159.684 104.908 159.684 104.907C159.684 104.907 159.683 104.906 159.683 104.906C159.682 104.904 159.681 104.903 159.68 104.902C159.678 104.899 159.675 104.895 159.673 104.892C159.667 104.885 159.661 104.876 159.653 104.866C159.638 104.846 159.619 104.821 159.596 104.792C159.551 104.735 159.484 104.654 159.403 104.565C159.328 104.482 159.207 104.356 159.052 104.231C158.952 104.151 158.595 103.863 158.062 103.757L157.277 107.679C157.017 107.627 156.832 107.532 156.742 107.481C156.643 107.425 156.575 107.373 156.541 107.345C156.504 107.315 156.48 107.292 156.469 107.281C156.457 107.27 156.45 107.263 156.449 107.262C156.448 107.261 156.453 107.266 156.459 107.273C156.461 107.276 156.462 107.277 156.461 107.276C156.46 107.275 156.459 107.274 156.458 107.272C156.457 107.271 156.456 107.269 156.454 107.268C156.454 107.267 156.453 107.266 156.453 107.265C156.452 107.264 156.452 107.264 156.452 107.263C156.451 107.263 156.451 107.263 156.451 107.263C156.451 107.263 156.451 107.262 156.451 107.262C156.451 107.262 156.45 107.262 158.068 106.086ZM157.67 103.718C157.301 103.718 156.987 103.815 156.88 103.849C156.718 103.9 156.542 103.969 156.377 104.052L158.166 107.629C158.123 107.651 158.101 107.658 158.084 107.663C158.073 107.667 158.043 107.676 157.995 107.686C157.97 107.691 157.933 107.698 157.884 107.705C157.839 107.71 157.764 107.718 157.67 107.718V103.718ZM156.488 104C154.878 104.686 152.855 105.544 151.235 107.089L153.996 109.983C155.01 109.016 156.356 108.404 158.055 107.681L156.488 104ZM151.234 107.09C149.475 108.771 148.45 111.302 149.095 113.633L152.95 112.567C152.799 112.019 153 110.935 153.997 109.982L151.234 107.09ZM149.082 113.585C149.278 114.368 149.654 115.043 149.923 115.52L153.409 113.559C153.126 113.057 153.012 112.812 152.963 112.615L149.082 113.585ZM149.89 115.46C150.36 116.367 150.488 116.708 150.466 117.049L154.458 117.299C154.56 115.679 153.829 114.367 153.441 113.619L149.89 115.46ZM150.465 117.07C150.45 117.363 150.303 117.711 149.652 118.085C148.971 118.476 147.958 118.739 146.856 118.791L147.042 122.786C148.574 122.715 150.257 122.35 151.643 121.554C153.06 120.741 154.352 119.343 154.46 117.278L150.465 117.07ZM146.949 118.788H146.857V122.788H146.949V118.788ZM146.771 118.79C145.766 118.833 144.407 118.873 143.187 119.165C141.939 119.463 140.466 120.11 139.601 121.644L143.086 123.608C143.17 123.458 143.381 123.231 144.118 123.055C144.881 122.872 145.804 122.835 146.943 122.787L146.771 118.79ZM139.603 121.64C138.16 124.188 139.588 126.607 140.654 127.899C141.809 129.302 143.274 130.334 143.743 130.652L145.989 127.343C145.6 127.079 144.522 126.304 143.741 125.355C142.868 124.297 142.965 123.821 143.083 123.612L139.603 121.64ZM143.756 130.662C144.562 131.199 145.742 132.106 146.524 133.149C147.309 134.196 147.394 134.931 147.086 135.553L150.671 137.328C151.955 134.735 150.908 132.329 149.725 130.75C148.538 129.167 146.916 127.96 145.975 127.333L143.756 130.662ZM147.09 135.546C146.989 135.747 146.865 135.932 146.674 136.172L149.797 138.67C150.096 138.297 150.4 137.87 150.667 137.335L147.09 135.546ZM146.625 136.235C146.428 136.503 146.119 136.918 145.894 137.375C145.655 137.861 145.418 138.567 145.558 139.404L149.504 138.746C149.526 138.88 149.516 138.996 149.5 139.074C149.485 139.145 149.468 139.172 149.482 139.144C149.496 139.115 149.528 139.058 149.593 138.961C149.659 138.863 149.738 138.753 149.845 138.607L146.625 136.235ZM145.541 139.274C145.633 140.201 146.12 140.931 146.76 141.41L149.16 138.21C149.22 138.255 149.307 138.338 149.384 138.468C149.464 138.601 149.508 138.745 149.521 138.876L145.541 139.274ZM146.783 141.428C147.586 142.012 148.55 142.16 149.235 142.195C149.978 142.231 150.735 142.148 151.376 142.012L150.546 138.099C150.177 138.177 149.77 138.216 149.433 138.199C149.268 138.191 149.154 138.171 149.088 138.154C149.018 138.135 149.052 138.132 149.136 138.193L146.783 141.428ZM150.961 142.055C151.05 142.055 150.975 142.058 150.877 142.045C150.763 142.03 150.487 141.98 150.189 141.781L152.408 138.452C152.017 138.192 151.635 138.111 151.406 138.081C151.193 138.052 150.995 138.055 150.961 138.055V142.055ZM150.189 141.781C149.902 141.59 149.749 141.365 149.677 141.239C149.6 141.106 149.562 140.99 149.542 140.908L153.422 139.938C153.345 139.627 153.111 138.921 152.408 138.452L150.189 141.781ZM149.493 140.631C149.699 142.605 149.961 145.321 151.229 147.633L154.737 145.71C153.922 144.224 153.694 142.346 153.471 140.215L149.493 140.631ZM151.229 147.632C151.817 148.707 152.735 149.767 153.877 150.531C155.025 151.3 156.517 151.842 158.173 151.626L157.656 147.66C157.199 147.719 156.669 147.587 156.102 147.208C155.529 146.823 155.037 146.259 154.738 145.712L151.229 147.632ZM157.915 151.643C158.217 151.643 158.47 151.593 158.611 151.563C158.683 151.547 158.752 151.53 158.785 151.522C158.829 151.512 158.833 151.511 158.828 151.512L158.043 147.59C158 147.598 157.96 147.607 157.929 147.615C157.897 147.622 157.868 147.629 157.846 147.634C157.795 147.646 157.778 147.65 157.762 147.654C157.749 147.657 157.758 147.654 157.781 147.651C157.804 147.648 157.851 147.643 157.915 147.643V151.643ZM158.783 151.521C158.945 151.492 159.036 151.474 159.156 151.455C159.262 151.437 159.34 151.427 159.406 151.421C159.531 151.411 159.573 151.422 159.581 151.424L160.598 147.556C159.502 147.267 158.465 147.515 158.088 147.581L158.783 151.521ZM159.57 151.421C159.629 151.437 159.61 151.442 159.581 151.412C159.567 151.397 159.602 151.425 159.652 151.568C159.704 151.717 159.751 151.931 159.789 152.236C159.826 152.542 159.846 152.867 159.87 153.257L163.862 153.013C163.821 152.341 163.772 151.235 163.429 150.252C163.039 149.132 162.205 147.988 160.609 147.558L159.57 151.421ZM159.87 153.256C159.899 153.736 159.934 154.362 160.036 154.962C160.137 155.56 160.329 156.303 160.773 156.984L164.123 154.799C164.108 154.775 164.039 154.646 163.98 154.294C163.921 153.945 163.895 153.544 163.862 153.014L159.87 153.256ZM163.945 157.218C164.448 156.65 165.259 156.387 165.913 156.529L166.763 152.62C164.599 152.15 162.347 152.989 160.951 154.565L163.945 157.218ZM165.924 156.531C166.675 156.69 167.363 157.418 167.486 158.217L171.439 157.609C171.072 155.223 169.187 153.133 166.752 152.618L165.924 156.531ZM167.483 158.199C167.576 158.84 167.41 159.432 166.931 160.141C166.411 160.913 165.646 161.646 164.685 162.559L167.44 165.459C168.317 164.626 169.435 163.582 170.248 162.378C171.102 161.112 171.717 159.529 171.442 157.627L167.483 158.199ZM164.711 162.534C163.97 163.214 163.131 164.011 162.442 164.881L165.578 167.364C166.053 166.764 166.685 166.151 167.414 165.483L164.711 162.534ZM162.434 164.891C161.522 166.059 160.831 167.428 160.273 168.605L163.888 170.317C164.433 169.166 164.967 168.146 165.586 167.354L162.434 164.891ZM160.283 168.584C159.675 169.83 159.125 170.853 158.415 171.686L161.458 174.282C162.525 173.031 163.261 171.604 163.878 170.338L160.283 168.584ZM158.545 174.42C159.296 175.147 159.927 176.137 160.37 177.152L164.036 175.554C163.438 174.18 162.537 172.719 161.328 171.547L158.545 174.42ZM160.366 177.144C160.961 178.526 161.878 180.054 162.903 181.389C163.902 182.69 165.144 183.991 166.449 184.736L168.433 181.264C167.808 180.906 166.952 180.093 166.075 178.952C165.224 177.844 164.487 176.6 164.04 175.562L160.366 177.144ZM169.23 183.894C169.95 182.453 170.695 181.055 171.494 179.693L168.044 177.669C167.189 179.125 166.402 180.606 165.652 182.106L169.23 183.894ZM171.489 179.702C172.107 178.661 172.456 178.248 172.866 178.077L171.328 174.384C169.533 175.132 168.595 176.74 168.049 177.66L171.489 179.702ZM172.866 178.077C173.165 177.952 173.55 177.924 174.111 177.952L174.31 173.957C173.646 173.924 172.499 173.896 171.328 174.384L172.866 178.077ZM174.085 177.951C177.229 178.149 180.217 180.209 181.598 183.073L185.201 181.335C183.213 177.214 178.972 174.251 174.336 173.959L174.085 177.951ZM184.559 183.834L188.479 181.046L186.162 177.786L182.241 180.574L184.559 183.834ZM188.57 180.978C188.592 180.96 188.639 180.925 188.697 180.89C188.758 180.853 188.806 180.831 188.835 180.822C188.865 180.811 188.834 180.828 188.754 180.825C188.711 180.824 188.656 180.817 188.595 180.8C188.533 180.783 188.476 180.757 188.427 180.728L190.503 177.308C189.385 176.63 188.251 176.793 187.537 177.038C186.838 177.278 186.309 177.664 186.071 177.854L188.57 180.978ZM188.378 180.697C188.305 180.649 188.24 180.588 188.192 180.524C188.146 180.464 188.127 180.42 188.125 180.414C188.123 180.411 188.132 180.432 188.148 180.498C188.156 180.531 188.164 180.569 188.174 180.618C188.179 180.642 188.184 180.668 188.19 180.697C188.195 180.724 188.202 180.757 188.208 180.789L192.13 180.004C192.081 179.759 191.907 178.216 190.551 177.339L188.378 180.697ZM188.169 180.396C188.169 180.724 188.234 180.992 188.263 181.111C188.276 181.163 188.298 181.242 188.299 181.249C188.306 181.276 188.304 181.269 188.3 181.248L192.222 180.464C192.212 180.413 192.202 180.368 192.193 180.331C192.184 180.293 192.175 180.259 192.168 180.233C192.165 180.22 192.161 180.208 192.159 180.197C192.156 180.186 192.154 180.179 192.151 180.17C192.147 180.154 192.145 180.146 192.144 180.141C192.141 180.13 192.147 180.152 192.153 180.19C192.16 180.231 192.169 180.302 192.169 180.396H188.169ZM188.364 181.488C188.747 182.638 189.641 183.332 190.465 183.677C191.282 184.019 192.237 184.116 193.12 183.903L192.181 180.014C192.19 180.012 192.169 180.018 192.123 180.014C192.077 180.01 192.037 179.999 192.01 179.987C191.983 179.976 191.995 179.975 192.028 180.008C192.066 180.044 192.123 180.116 192.158 180.223L188.364 181.488ZM193.123 183.902C195.061 183.43 196.222 181.847 196.755 181.015L193.386 178.859C193.19 179.164 192.972 179.45 192.737 179.669C192.503 179.888 192.315 179.982 192.178 180.015L193.123 183.902ZM196.76 181.006C197.897 179.21 198.48 177.118 198.936 175.353L195.064 174.351C194.601 176.139 194.143 177.662 193.38 178.868L196.76 181.006ZM198.911 175.44C198.988 175.191 199.053 174.94 199.104 174.741C199.16 174.527 199.203 174.364 199.248 174.215L195.425 173.039C195.348 173.288 195.284 173.539 195.232 173.738C195.177 173.953 195.134 174.115 195.088 174.264L198.911 175.44ZM199.259 174.18C199.835 172.177 200.617 170.248 202.048 169.147L199.609 165.977C197.059 167.939 196.002 171.034 195.415 173.074L199.259 174.18ZM202.057 169.141C203.204 168.248 204.816 168.167 205.672 168.753L207.931 165.452C205.296 163.649 201.762 164.302 199.601 165.983L202.057 169.141ZM208.784 167.367C208.837 166.974 208.918 166.535 209.008 166.086L205.086 165.301C204.992 165.771 204.889 166.312 204.819 166.838L208.784 167.367ZM208.997 166.138C209.935 162.025 212.497 158.363 215.023 154.777L211.752 152.473C209.316 155.932 206.241 160.234 205.097 165.249L208.997 166.138ZM215.027 154.771C217.021 151.918 219.02 149.132 221.374 146.721L218.511 143.927C215.902 146.6 213.736 149.635 211.748 152.479L215.027 154.771ZM221.018 143.637C216.385 140.684 213.109 137.785 212.776 134.028L208.792 134.381C209.316 140.304 214.372 144.144 218.867 147.01L221.018 143.637Z" fill="white" mask="url(#path-4-inside-1_639_321)"/>
</g>
<defs>
<filter id="filter0_d_639_321" x="0" y="0" width="361" height="357" filterUnits="userSpaceOnUse" color-interpolation-filters="sRGB">
<feFlood flood-opacity="0" result="BackgroundImageFix"/>
<feColorMatrix in="SourceAlpha" type="matrix" values="0 0 0 0 0 0 0 0 0 0 0 0 0 0 0 0 0 0 127 0" result="hardAlpha"/>
<feOffset dx="2" dy="2"/>
<feGaussianBlur stdDeviation="2"/>
<feComposite in2="hardAlpha" operator="out"/>
<feColorMatrix type="matrix" values="0 0 0 0 0 0 0 0 0 0 0 0 0 0 0 0 0 0 0.25 0"/>
<feBlend mode="normal" in2="BackgroundImageFix" result="effect1_dropShadow_639_321"/>
<feBlend mode="normal" in="SourceGraphic" in2="effect1_dropShadow_639_321" result="shape"/>
</filter>
<linearGradient id="paint0_linear_639_321" x1="144.488" y1="202.766" x2="213.512" y2="83.2345" gradientUnits="userSpaceOnUse">
<stop stop-color="#0460A9"/>
<stop offset="1" stop-color="#50E2D0"/>
</linearGradient>
</defs>
</svg>
