<svg width="361" height="357" viewBox="0 0 361 357" fill="none" xmlns="http://www.w3.org/2000/svg">
<g filter="url(#filter0_d_639_317)">
<rect x="2" y="2" width="353" height="349" rx="19.0804" fill="white"/>
<path d="M49.14 273V248.738H57.2162L60.1684 259.359C60.6096 260.886 61.5597 264.89 61.5597 264.89H61.6276C61.6276 264.89 62.5777 260.886 62.9849 259.359L65.9711 248.738H74.1151V273H68.6179V260.784C68.6179 259.8 68.7197 255.931 68.7197 255.931H68.6518C68.6518 255.931 67.8035 259.562 67.532 260.445L64.0368 273H59.0825L55.6213 260.479C55.3498 259.596 54.5015 255.931 54.5015 255.931H54.4336C54.4336 255.931 54.5354 259.834 54.5354 260.818V273H49.14ZM83.9892 269.912C86.0592 269.912 87.4844 268.657 87.4844 266.79V264.72C86.7718 265.093 85.7538 265.365 84.634 265.636C82.4962 266.111 81.6139 266.654 81.6139 267.978C81.6139 269.369 82.6319 269.912 83.9892 269.912ZM82.2247 273.441C78.7635 273.441 76.2863 271.575 76.2863 268.148C76.2863 264.313 79.3403 263.159 82.9373 262.684C86.1949 262.277 87.3487 261.938 87.3487 260.75C87.3487 259.63 86.6361 258.884 84.9733 258.884C83.2088 258.884 82.3265 259.664 82.1568 261.123H77.0668C77.2025 257.9 79.6797 255.151 84.9394 255.151C87.5523 255.151 89.3168 255.626 90.5723 256.576C92.0654 257.662 92.778 259.359 92.778 261.53V270.285C92.778 271.677 92.9138 272.457 93.3888 272.762V273H88.0273C87.7559 272.627 87.5862 271.948 87.4505 271.066H87.3826C86.3646 272.525 84.8376 273.441 82.2247 273.441ZM104.554 269.267C106.657 269.267 107.947 267.469 107.947 264.517C107.947 261.53 106.827 259.562 104.452 259.562C102.042 259.562 100.821 261.7 100.821 264.517C100.821 267.333 102.178 269.267 104.554 269.267ZM95.4593 278.735V255.626H100.753V257.73H100.855C102.042 256.169 103.739 255.117 106.114 255.117C110.729 255.117 113.546 259.087 113.546 264.313C113.546 269.946 110.526 273.543 105.979 273.543C103.739 273.543 102.144 272.661 101.058 271.202H100.99V278.735H95.4593ZM124.503 269.267C126.607 269.267 127.896 267.469 127.896 264.517C127.896 261.53 126.776 259.562 124.401 259.562C121.992 259.562 120.77 261.7 120.77 264.517C120.77 267.333 122.127 269.267 124.503 269.267ZM115.409 278.735V255.626H120.702V257.73H120.804C121.992 256.169 123.688 255.117 126.064 255.117C130.679 255.117 133.495 259.087 133.495 264.313C133.495 269.946 130.475 273.543 125.928 273.543C123.688 273.543 122.093 272.661 121.008 271.202H120.94V278.735H115.409ZM142.246 269.912C144.316 269.912 145.741 268.657 145.741 266.79V264.72C145.029 265.093 144.011 265.365 142.891 265.636C140.753 266.111 139.871 266.654 139.871 267.978C139.871 269.369 140.889 269.912 142.246 269.912ZM140.482 273.441C137.02 273.441 134.543 271.575 134.543 268.148C134.543 264.313 137.597 263.159 141.194 262.684C144.452 262.277 145.606 261.938 145.606 260.75C145.606 259.63 144.893 258.884 143.23 258.884C141.466 258.884 140.584 259.664 140.414 261.123H135.324C135.46 257.9 137.937 255.151 143.196 255.151C145.809 255.151 147.574 255.626 148.829 256.576C150.322 257.662 151.035 259.359 151.035 261.53V270.285C151.035 271.677 151.171 272.457 151.646 272.762V273H146.284C146.013 272.627 145.843 271.948 145.707 271.066H145.64C144.622 272.525 143.095 273.441 140.482 273.441ZM165.331 259.461H169.844C172.219 259.461 173.441 258.341 173.441 256.508C173.441 254.744 172.287 253.488 169.98 253.488H165.331V259.461ZM159.325 273V248.738H170.93C175.748 248.738 179.413 251.215 179.413 255.728C179.413 258.544 178.022 260.614 175.206 261.598V261.7C177.309 262.413 178.395 263.736 178.735 266.145C179.244 269.335 178.904 272.389 179.753 272.695V273H173.916C173.271 272.627 173.373 269.776 173 267.367C172.694 265.127 171.541 263.906 168.962 263.906H165.331V273H159.325ZM190.069 273.509C184.334 273.509 180.805 269.539 180.805 264.279C180.805 259.087 184.436 255.117 189.73 255.117C192.207 255.117 194.175 255.931 195.668 257.289C197.738 259.189 198.756 262.209 198.722 265.738H186.234C186.574 268.08 187.863 269.539 190.137 269.539C191.596 269.539 192.546 268.894 193.021 267.808H198.417C198.043 269.369 197.025 270.862 195.498 271.914C194.039 272.932 192.275 273.509 190.069 273.509ZM186.268 262.447H193.123C192.919 260.377 191.63 259.053 189.831 259.053C187.728 259.053 186.642 260.377 186.268 262.447ZM208.616 267.944C211.025 267.944 212.145 266.044 212.145 263.6C212.145 261.259 210.924 259.291 208.616 259.291C206.546 259.291 205.189 260.988 205.189 263.634C205.189 266.247 206.546 267.944 208.616 267.944ZM208.65 279.006C203.865 279.006 200.71 277.038 200.167 273.407H205.528C205.834 274.323 206.75 275.104 208.582 275.104C210.924 275.104 211.908 273.882 211.908 271.778V270.048H211.772C210.754 271.202 209.43 272.05 207.327 272.05C203.424 272.05 199.793 269.132 199.793 263.804C199.793 258.714 202.779 255.117 207.089 255.117C209.397 255.117 210.957 256.033 211.975 257.492H212.043V255.626H217.337V271.303C217.337 273.916 216.421 275.816 215.03 277.072C213.502 278.429 211.229 279.006 208.65 279.006ZM222.775 248.229C224.506 248.229 225.829 249.45 225.829 251.181C225.829 252.911 224.506 254.133 222.775 254.133C221.045 254.133 219.721 252.911 219.721 251.181C219.721 249.45 221.045 248.229 222.775 248.229ZM219.993 273V255.626H225.524V273H219.993ZM236.695 273.543C231.13 273.543 227.397 269.573 227.397 264.347C227.397 259.121 231.13 255.151 236.695 255.151C242.294 255.151 245.959 259.121 245.959 264.347C245.959 269.573 242.294 273.543 236.695 273.543ZM236.661 269.607C239.071 269.607 240.36 267.503 240.36 264.347C240.36 261.191 239.071 259.053 236.661 259.053C234.252 259.053 232.997 261.191 232.997 264.347C232.997 267.503 234.252 269.607 236.661 269.607ZM247.829 273V255.626H253.157V258.001H253.258C254.548 256.135 256.211 255.117 258.62 255.117C262.42 255.117 264.66 257.832 264.66 261.7V273H259.129V262.82C259.129 260.988 258.213 259.732 256.414 259.732C254.582 259.732 253.36 261.259 253.36 263.397V273H247.829ZM274.07 269.912C276.14 269.912 277.565 268.657 277.565 266.79V264.72C276.853 265.093 275.835 265.365 274.715 265.636C272.577 266.111 271.695 266.654 271.695 267.978C271.695 269.369 272.713 269.912 274.07 269.912ZM272.306 273.441C268.844 273.441 266.367 271.575 266.367 268.148C266.367 264.313 269.421 263.159 273.018 262.684C276.276 262.277 277.43 261.938 277.43 260.75C277.43 259.63 276.717 258.884 275.054 258.884C273.29 258.884 272.407 259.664 272.238 261.123H267.148C267.283 257.9 269.761 255.151 275.02 255.151C277.633 255.151 279.398 255.626 280.653 256.576C282.146 257.662 282.859 259.359 282.859 261.53V270.285C282.859 271.677 282.995 272.457 283.47 272.762V273H278.108C277.837 272.627 277.667 271.948 277.531 271.066H277.464C276.446 272.525 274.919 273.441 272.306 273.441ZM285.574 273V248.738H291.173V273H285.574ZM302.341 273.509C296.607 273.509 293.077 269.539 293.077 264.279C293.077 259.087 296.708 255.117 302.002 255.117C304.479 255.117 306.447 255.931 307.94 257.289C310.01 259.189 311.028 262.209 310.994 265.738H298.507C298.846 268.08 300.136 269.539 302.409 269.539C303.868 269.539 304.818 268.894 305.294 267.808H310.689C310.316 269.369 309.298 270.862 307.771 271.914C306.312 272.932 304.547 273.509 302.341 273.509ZM298.541 262.447H305.395C305.192 260.377 303.902 259.053 302.104 259.053C300 259.053 298.914 260.377 298.541 262.447ZM157.215 314.577C150.768 314.577 146.526 311.726 146.39 306.365H152.43C152.702 308.808 154.297 309.826 157.181 309.826C159.149 309.826 161.083 309.114 161.083 307.281C161.083 305.347 159.115 304.94 155.79 304.125C151.582 303.141 147.137 301.852 147.137 296.762C147.137 291.57 151.345 289.296 156.774 289.296C162.034 289.296 166.106 291.672 166.343 296.762H160.473C160.235 294.895 158.81 293.843 156.57 293.843C154.466 293.843 153.075 294.76 153.075 296.117C153.075 297.814 154.942 298.221 158.572 299.035C163.086 300.087 167.158 301.479 167.158 306.67C167.158 311.76 162.814 314.577 157.215 314.577ZM179.617 314.577C173.169 314.577 168.927 311.726 168.792 306.365H174.832C175.103 308.808 176.698 309.826 179.583 309.826C181.551 309.826 183.485 309.114 183.485 307.281C183.485 305.347 181.517 304.94 178.191 304.125C173.984 303.141 169.538 301.852 169.538 296.762C169.538 291.57 173.746 289.296 179.175 289.296C184.435 289.296 188.507 291.672 188.745 296.762H182.874C182.637 294.895 181.211 293.843 178.972 293.843C176.868 293.843 175.477 294.76 175.477 296.117C175.477 297.814 177.343 298.221 180.974 299.035C185.487 300.087 189.559 301.479 189.559 306.67C189.559 311.76 185.216 314.577 179.617 314.577ZM198.022 300.461H202.535C204.91 300.461 206.132 299.341 206.132 297.508C206.132 295.744 204.978 294.488 202.671 294.488H198.022V300.461ZM192.016 314V289.738H203.621C208.439 289.738 212.104 292.215 212.104 296.728C212.104 299.544 210.713 301.614 207.896 302.598V302.7C210 303.413 211.086 304.736 211.426 307.145C211.935 310.335 211.595 313.389 212.444 313.695V314H206.607C205.962 313.627 206.064 310.776 205.691 308.367C205.385 306.127 204.232 304.906 201.653 304.906H198.022V314H192.016Z" fill="#002068"/>
<path d="M179 212C217.108 212 248 181.108 248 143C248 104.892 217.108 74 179 74C140.892 74 110 104.892 110 143C110 181.108 140.892 212 179 212Z" fill="url(#paint0_linear_639_317)"/>
<mask id="path-4-inside-1_639_317" fill="white">
<path d="M214.733 174.817C215.416 174.527 216.017 173.822 216.204 173.077C216.39 172.289 216.328 171.482 216.266 170.632C216.224 170.073 216.183 169.493 216.224 168.913C216.286 167.732 216.866 166.552 217.757 165.992C217.446 164.936 217.757 163.838 218.109 162.802C218.337 162.098 218.565 161.352 218.586 160.627C218.586 160.213 218.524 159.799 218.461 159.364C218.399 158.991 218.337 158.618 218.337 158.245C218.316 157.582 218.503 156.774 219 156.236C218.627 155.987 218.316 155.469 218.089 154.682C217.778 153.688 217.467 152.859 216.784 152.735C216.121 152.611 215.603 153.191 215.023 153.791C214.422 154.433 213.718 155.138 212.806 155.076C211.708 154.972 211.211 153.874 210.756 152.901C210.258 151.803 209.886 151.119 209.181 151.181C208.581 151.223 208.187 151.823 207.731 152.445C207.234 153.17 206.675 153.998 205.701 153.853C204.583 153.688 204.272 152.383 204.148 151.409C204.065 150.746 203.733 149.648 202.946 149.669C202.594 149.69 202.304 149.98 201.993 150.291C201.662 150.601 201.31 150.974 200.792 151.078C200.419 151.161 200.025 151.078 199.694 150.808C199.218 150.456 198.865 149.835 198.782 149.193C198.741 148.758 198.762 148.343 198.782 147.929C198.803 147.453 198.845 147.018 198.762 146.583C198.368 144.553 195.862 143.765 193.48 143.248C192.237 142.978 188.177 141.901 188.322 138.877C188.425 136.909 190.434 135.625 192.382 135.355C193.252 135.231 194.142 135.272 195.012 135.293C195.779 135.293 196.566 135.335 197.332 135.252L191.926 127.484C191.429 126.759 190.787 125.847 190.683 124.811C190.58 123.755 191.222 122.512 192.32 122.346C192.465 122.346 192.61 122.326 192.755 122.326C193.045 122.326 193.293 122.326 193.417 122.181C193.48 122.098 193.521 122.036 193.5 121.932C193.438 121.642 193.065 121.269 192.672 121.104C191.532 120.606 191.056 120.006 191.263 119.322C191.45 118.721 192.133 118.514 192.361 118.452C192.9 118.286 193.438 118.183 193.956 118.079C194.681 117.934 195.365 117.789 196.027 117.52C197.084 117.064 198.057 116.028 197.892 114.931C197.85 114.682 197.767 114.433 197.685 114.143C197.581 113.791 197.477 113.418 197.436 113.046C197.27 112.051 196.09 111.368 195.054 111.161C194.163 110.974 193.024 111.036 192.506 111.803C192.361 112.01 192.257 112.238 192.154 112.466C191.988 112.797 191.822 113.149 191.574 113.439C191.097 113.978 190.434 114.247 189.834 114.496L184.179 116.712C183.723 116.898 183.184 117.106 182.832 117.458C182.584 117.706 182.418 118.017 182.231 118.328C182.024 118.701 181.817 119.074 181.506 119.364C180.906 119.923 180.119 120.089 179.331 120.254C179.124 120.296 178.917 120.337 178.71 120.379C177.881 120.586 177.011 121.145 177.032 121.911C177.032 122.036 177.074 122.139 177.094 122.264C177.136 122.471 177.177 122.678 177.156 122.926C177.053 123.755 176.245 124.004 175.541 124.231C175.126 124.356 174.712 124.48 174.422 124.708C174.07 124.998 173.904 125.454 173.738 125.951C173.593 126.407 173.428 126.883 173.117 127.256C172.723 127.732 172.143 127.981 171.481 127.981C170.424 127.981 169.181 127.339 168.373 126.386C168.083 126.034 167.793 125.64 167.545 125.267C166.82 124.252 166.157 123.299 165.1 122.906C164.976 122.864 164.852 122.823 164.728 122.781C164.458 122.699 164.168 122.616 163.92 122.45C163.257 122.056 162.967 121.29 162.718 120.689C162.242 119.509 161.745 118.39 160.875 117.582C160.108 116.878 158.824 116.36 157.747 116.898C157.622 116.961 157.498 117.044 157.374 117.106C157.084 117.292 156.773 117.479 156.4 117.541C155.613 117.644 154.847 117.106 154.184 115.946C152.837 113.626 151.802 111.119 151.077 108.53C150.932 108.012 150.787 107.494 150.434 107.225C149.647 106.603 148.384 107.411 147.721 107.95C147.182 108.385 146.644 108.861 146.602 109.462C146.561 110.042 146.996 110.539 147.452 111.057C147.949 111.637 148.487 112.238 148.446 113.046C148.404 113.916 147.762 114.454 147.141 114.972C146.83 115.241 146.499 115.511 146.292 115.821C145.877 116.381 145.753 117.106 145.629 117.851C145.587 118.121 145.546 118.369 145.484 118.618C145.256 119.716 144.572 120.917 143.371 121.021C143.039 121.041 142.729 120.979 142.439 120.917C142.19 120.855 141.962 120.814 141.734 120.834C141.175 120.855 140.823 121.352 140.678 121.766C140.533 122.181 140.533 122.781 140.968 123.134C141.092 123.237 141.216 123.299 141.361 123.382C141.569 123.506 141.776 123.61 141.962 123.796C142.335 124.149 142.48 124.666 142.376 125.226C142.252 125.93 141.734 126.614 141.092 126.904C140.429 127.214 139.684 127.214 139 127.132C139.373 127.463 139.704 127.815 140.036 128.209C141.299 129.762 142.149 131.627 142.998 133.429C144.282 136.225 145.504 138.856 148.011 140.161C148.674 140.513 149.399 140.741 150.165 140.969C150.662 141.135 151.18 141.28 151.657 141.487C155.385 142.958 158.161 146.5 158.7 150.477C158.741 150.726 158.762 150.953 158.783 151.202C158.865 151.968 158.928 152.673 159.238 153.273C159.963 154.703 161.662 155.117 163.485 155.573C164.728 155.883 166.012 156.194 167.089 156.857C169.181 158.141 170.155 160.461 171.087 162.699C172.04 164.977 172.931 167.132 174.899 168.084C175.893 168.561 177.011 168.664 178.213 168.789C179.373 168.892 180.595 169.017 181.714 169.493C183.495 170.259 184.8 171.834 186.064 173.367C187.679 175.314 189.067 176.992 191.139 176.826C193.728 174.796 196.214 174.817 199.611 175.521C202.635 176.163 205.37 177.592 208.021 179.042C208.436 177.427 209.388 175.707 210.631 175.086C211.356 174.713 212.123 174.734 212.848 175.127C212.951 175.19 213.034 175.252 213.138 175.314V175.065C213.138 175.065 213.2 174.858 213.303 174.817C213.386 174.775 213.511 174.775 213.593 174.817C214.049 175.086 214.484 175.003 214.795 174.879"/>
</mask>
<path d="M216.204 173.077L218.144 173.562L218.147 173.55L218.15 173.538L216.204 173.077ZM216.266 170.632L218.26 170.486L218.26 170.485L216.266 170.632ZM216.224 168.913L218.219 169.055L218.22 169.037L218.221 169.018L216.224 168.913ZM217.757 165.992L218.821 167.686L220.103 166.881L219.676 165.428L217.757 165.992ZM218.109 162.802L220.003 163.446L220.008 163.432L220.012 163.418L218.109 162.802ZM218.586 160.627L220.585 160.684L220.586 160.656V160.627H218.586ZM218.461 159.364L220.441 159.081L220.438 159.058L220.434 159.035L218.461 159.364ZM218.337 158.245H220.337V158.214L220.336 158.182L218.337 158.245ZM219 156.236L220.47 157.592L222.058 155.871L220.109 154.572L219 156.236ZM218.089 154.682L220.01 154.126L220.004 154.106L219.998 154.085L218.089 154.682ZM216.784 152.735L216.415 154.701L216.426 154.703L216.784 152.735ZM215.023 153.791L213.584 152.402L213.573 152.413L213.562 152.425L215.023 153.791ZM212.806 155.076L212.618 157.067L212.644 157.069L212.67 157.071L212.806 155.076ZM210.756 152.901L208.934 153.726L208.939 153.737L208.944 153.748L210.756 152.901ZM209.181 151.181L209.319 153.177L209.338 153.175L209.357 153.174L209.181 151.181ZM207.731 152.445L206.118 151.262L206.1 151.288L206.082 151.314L207.731 152.445ZM205.701 153.853L205.996 151.875L205.994 151.875L205.701 153.853ZM204.148 151.409L202.163 151.657L202.164 151.662L204.148 151.409ZM202.946 149.669L202.894 147.67L202.861 147.671L202.829 147.673L202.946 149.669ZM201.993 150.291L203.361 151.75L203.385 151.728L203.407 151.705L201.993 150.291ZM200.792 151.078L200.4 149.117L200.379 149.121L200.358 149.125L200.792 151.078ZM199.694 150.808L200.955 149.256L200.92 149.227L200.883 149.2L199.694 150.808ZM198.782 149.193L196.792 149.382L196.795 149.415L196.799 149.449L198.782 149.193ZM198.782 147.929L200.78 148.029L200.781 148.016L198.782 147.929ZM198.762 146.583L200.726 146.208L200.725 146.202L198.762 146.583ZM193.48 143.248L193.904 141.293L193.903 141.293L193.48 143.248ZM188.322 138.877L186.324 138.772L186.324 138.781L188.322 138.877ZM192.382 135.355L192.656 137.336L192.665 137.335L192.382 135.355ZM195.012 135.293L194.965 137.293L194.989 137.293H195.012V135.293ZM197.332 135.252L197.547 137.24L200.901 136.878L198.974 134.109L197.332 135.252ZM191.926 127.484L190.276 128.615L190.284 128.626L191.926 127.484ZM190.683 124.811L188.693 125.007L188.693 125.01L190.683 124.811ZM192.32 122.346V120.346H192.169L192.021 120.369L192.32 122.346ZM193.417 122.181L194.936 123.482L194.978 123.433L195.017 123.381L193.417 122.181ZM193.5 121.932L195.461 121.54L195.459 121.526L195.456 121.513L193.5 121.932ZM192.672 121.104L191.872 122.937L191.884 122.942L191.896 122.947L192.672 121.104ZM191.263 119.322L189.353 118.729L189.349 118.742L191.263 119.322ZM192.361 118.452L192.887 120.382L192.918 120.373L192.949 120.364L192.361 118.452ZM193.956 118.079L194.348 120.04L193.956 118.079ZM196.027 117.52L196.78 119.373L196.8 119.365L196.82 119.356L196.027 117.52ZM197.892 114.931L199.869 114.632L199.867 114.617L199.865 114.602L197.892 114.931ZM197.685 114.143L199.608 113.594L199.606 113.587L199.603 113.579L197.685 114.143ZM197.436 113.046L199.424 112.825L199.418 112.771L199.409 112.717L197.436 113.046ZM195.054 111.161L194.644 113.118L194.653 113.12L194.662 113.122L195.054 111.161ZM192.506 111.803L194.144 112.95L194.154 112.936L194.163 112.922L192.506 111.803ZM192.154 112.466L193.943 113.36L193.959 113.327L193.975 113.293L192.154 112.466ZM191.574 113.439L193.072 114.764L193.082 114.753L193.092 114.741L191.574 113.439ZM189.834 114.496L190.564 116.358L190.581 116.351L190.598 116.344L189.834 114.496ZM184.179 116.712L183.449 114.85L183.435 114.855L183.421 114.861L184.179 116.712ZM182.231 118.328L180.517 117.299L180.499 117.327L180.483 117.357L182.231 118.328ZM181.506 119.364L182.869 120.827L182.871 120.826L181.506 119.364ZM179.331 120.254L179.724 122.215L179.734 122.213L179.743 122.211L179.331 120.254ZM178.71 120.379L178.318 118.417L178.271 118.427L178.225 118.438L178.71 120.379ZM177.032 121.911H179.032V121.884L179.031 121.857L177.032 121.911ZM177.094 122.264L175.121 122.592L175.127 122.624L175.133 122.656L177.094 122.264ZM177.156 122.926L179.141 123.175L179.146 123.134L179.149 123.093L177.156 122.926ZM175.541 124.231L176.115 126.147L176.136 126.141L176.156 126.134L175.541 124.231ZM174.422 124.708L173.186 123.135L173.168 123.149L173.151 123.164L174.422 124.708ZM173.738 125.951L171.841 125.318L171.837 125.331L171.833 125.344L173.738 125.951ZM173.117 127.256L171.581 125.975L171.575 125.982L173.117 127.256ZM168.373 126.386L166.83 127.657L166.839 127.668L166.848 127.679L168.373 126.386ZM167.545 125.267L169.209 124.158L169.191 124.131L169.172 124.105L167.545 125.267ZM165.1 122.906L165.799 121.032L165.766 121.019L165.733 121.008L165.1 122.906ZM164.728 122.781L165.36 120.884L165.338 120.877L165.316 120.87L164.728 122.781ZM163.92 122.45L165.029 120.786L164.986 120.757L164.941 120.73L163.92 122.45ZM162.718 120.689L160.864 121.438L160.867 121.446L160.87 121.454L162.718 120.689ZM160.875 117.582L162.236 116.116L162.228 116.109L160.875 117.582ZM157.374 117.106L156.479 115.317L156.383 115.365L156.292 115.423L157.374 117.106ZM156.4 117.541L156.661 119.524L156.695 119.519L156.729 119.513L156.4 117.541ZM154.184 115.946L155.92 114.953L155.914 114.942L154.184 115.946ZM151.077 108.53L153.003 107.991L151.077 108.53ZM150.434 107.225L149.195 108.795L149.207 108.804L149.22 108.813L150.434 107.225ZM147.721 107.95L148.978 109.506L148.982 109.502L147.721 107.95ZM146.602 109.462L148.597 109.604L148.598 109.6L146.602 109.462ZM147.452 111.057L148.97 109.755L148.962 109.745L148.953 109.736L147.452 111.057ZM148.446 113.046L146.449 112.943L146.448 112.95L148.446 113.046ZM147.141 114.972L145.86 113.436L145.846 113.448L145.831 113.461L147.141 114.972ZM146.292 115.821L147.899 117.012L147.928 116.972L147.956 116.931L146.292 115.821ZM145.629 117.851L143.656 117.523L143.654 117.535L143.652 117.547L145.629 117.851ZM145.484 118.618L143.543 118.133L143.534 118.172L143.525 118.211L145.484 118.618ZM143.371 121.021L143.496 123.017L143.519 123.015L143.543 123.013L143.371 121.021ZM142.439 120.917L141.954 122.857L141.986 122.866L142.02 122.873L142.439 120.917ZM141.734 120.834L141.808 122.833L141.862 122.831L141.915 122.826L141.734 120.834ZM140.968 123.134L142.248 121.597L142.237 121.588L142.226 121.579L140.968 123.134ZM141.361 123.382L142.39 121.667L142.372 121.656L142.354 121.646L141.361 123.382ZM141.962 123.796L140.548 125.211L140.568 125.231L140.589 125.251L141.962 123.796ZM142.376 125.226L140.41 124.862L140.408 124.87L140.407 124.878L142.376 125.226ZM141.092 126.904L140.269 125.081L140.256 125.087L140.243 125.093L141.092 126.904ZM139 127.132L139.241 125.146L132.89 124.376L137.671 128.626L139 127.132ZM140.036 128.209L141.587 126.947L141.577 126.933L141.566 126.92L140.036 128.209ZM142.998 133.429L144.815 132.594L144.811 132.585L144.807 132.576L142.998 133.429ZM148.011 140.161L148.949 138.395L148.942 138.391L148.935 138.387L148.011 140.161ZM150.165 140.969L150.798 139.072L150.767 139.061L150.735 139.052L150.165 140.969ZM151.657 141.487L150.859 143.321L150.891 143.335L150.923 143.347L151.657 141.487ZM158.7 150.477L156.718 150.745L156.722 150.776L156.727 150.806L158.7 150.477ZM158.783 151.202L156.789 151.368L156.791 151.393L156.794 151.417L158.783 151.202ZM159.238 153.273L161.022 152.369L161.018 152.362L161.015 152.355L159.238 153.273ZM167.089 156.857L166.041 158.56L166.043 158.562L167.089 156.857ZM171.087 162.699L169.241 163.468L169.242 163.47L171.087 162.699ZM174.899 168.084L174.027 169.884L174.034 169.888L174.899 168.084ZM178.213 168.789L178.007 170.778L178.021 170.78L178.035 170.781L178.213 168.789ZM181.714 169.493L182.504 167.656L182.497 167.653L181.714 169.493ZM186.064 173.367L184.52 174.639L184.525 174.644L186.064 173.367ZM191.139 176.826L191.298 178.82L191.899 178.772L192.373 178.4L191.139 176.826ZM199.611 175.521L200.026 173.565L200.017 173.563L199.611 175.521ZM208.021 179.042L207.062 180.797L209.319 182.032L209.959 179.539L208.021 179.042ZM210.631 175.086L211.526 176.875L211.536 176.87L211.546 176.865L210.631 175.086ZM212.848 175.127L213.877 173.412L213.84 173.39L213.802 173.37L212.848 175.127ZM213.138 175.314L212.109 177.029L215.138 178.846V175.314H213.138ZM213.138 175.065L211.222 174.491L211.138 174.772V175.065H213.138ZM213.303 174.817L214.046 176.674L214.123 176.643L214.198 176.606L213.303 174.817ZM213.593 174.817L214.611 173.095L214.551 173.059L214.488 173.028L213.593 174.817ZM215.514 176.658C216.787 176.118 217.808 174.904 218.144 173.562L214.263 172.592C214.254 172.63 214.216 172.722 214.129 172.825C214.089 172.872 214.048 172.909 214.012 172.937C213.995 172.95 213.98 172.96 213.969 172.966C213.963 172.97 213.959 172.972 213.956 172.973C213.955 172.974 213.954 172.975 213.953 172.975C213.952 172.975 213.952 172.976 213.952 172.976L215.514 176.658ZM218.15 173.538C218.42 172.397 218.318 171.269 218.26 170.486L214.271 170.778C214.338 171.694 214.36 172.182 214.257 172.616L218.15 173.538ZM218.26 170.485C218.217 169.907 218.19 169.468 218.219 169.055L214.229 168.77C214.176 169.518 214.231 170.239 214.271 170.78L218.26 170.485ZM218.221 169.018C218.259 168.311 218.615 167.815 218.821 167.686L216.694 164.298C215.118 165.288 214.314 167.153 214.227 168.808L218.221 169.018ZM219.676 165.428C219.564 165.047 219.64 164.514 220.003 163.446L216.216 162.158C215.875 163.161 215.329 164.824 215.838 166.557L219.676 165.428ZM220.012 163.418C220.231 162.74 220.555 161.736 220.585 160.684L216.587 160.57C216.575 160.969 216.443 161.455 216.206 162.187L220.012 163.418ZM220.586 160.627C220.586 160.042 220.498 159.475 220.441 159.081L216.482 159.646C216.549 160.122 216.586 160.384 216.586 160.627H220.586ZM220.434 159.035C220.367 158.632 220.337 158.424 220.337 158.245H216.337C216.337 158.812 216.431 159.349 216.489 159.692L220.434 159.035ZM220.336 158.182C220.332 158.052 220.35 157.902 220.389 157.771C220.429 157.638 220.471 157.59 220.47 157.592L217.53 154.879C216.562 155.928 216.307 157.32 216.338 158.307L220.336 158.182ZM220.109 154.572C220.24 154.659 220.259 154.723 220.212 154.644C220.167 154.568 220.091 154.407 220.01 154.126L216.167 155.238C216.438 156.172 216.923 157.254 217.891 157.9L220.109 154.572ZM219.998 154.085C219.848 153.607 219.635 152.944 219.304 152.376C218.959 151.784 218.3 150.978 217.141 150.767L216.426 154.703C216.216 154.664 216.046 154.569 215.936 154.475C215.842 154.395 215.82 154.342 215.847 154.388C215.873 154.433 215.918 154.524 215.98 154.687C216.042 154.848 216.105 155.039 216.18 155.279L219.998 154.085ZM217.152 150.769C216.08 150.568 215.231 150.989 214.705 151.367C214.236 151.704 213.81 152.168 213.584 152.402L216.462 155.18C216.625 155.011 216.733 154.897 216.845 154.788C216.953 154.683 217.012 154.635 217.039 154.616C217.065 154.597 217.014 154.639 216.897 154.675C216.762 154.716 216.591 154.734 216.415 154.701L217.152 150.769ZM213.562 152.425C213.417 152.58 213.296 152.706 213.179 152.817C213.063 152.926 212.974 152.998 212.906 153.044C212.774 153.134 212.81 153.071 212.942 153.08L212.67 157.071C213.714 157.142 214.558 156.758 215.157 156.351C215.727 155.963 216.189 155.472 216.483 155.158L213.562 152.425ZM212.994 153.084C213.051 153.09 213.116 153.113 213.162 153.143C213.195 153.164 213.178 153.162 213.118 153.086C213.057 153.007 212.98 152.886 212.881 152.701C212.781 152.512 212.687 152.31 212.567 152.053L208.944 153.748C209.144 154.176 209.477 154.92 209.962 155.543C210.492 156.224 211.345 156.947 212.618 157.067L212.994 153.084ZM212.577 152.076C212.346 151.565 212.032 150.88 211.6 150.347C211.084 149.709 210.222 149.082 209.005 149.189L209.357 153.174C209.275 153.181 209.173 153.179 209.058 153.157C208.943 153.135 208.837 153.097 208.744 153.05C208.564 152.958 208.485 152.857 208.492 152.865C208.501 152.876 208.548 152.939 208.634 153.1C208.718 153.258 208.813 153.458 208.934 153.726L212.577 152.076ZM209.044 149.186C208.055 149.254 207.375 149.789 206.98 150.189C206.616 150.557 206.289 151.03 206.118 151.262L209.344 153.628C209.398 153.554 209.471 153.454 209.514 153.394C209.567 153.322 209.612 153.261 209.654 153.206C209.742 153.091 209.794 153.032 209.824 153.002C209.853 152.972 209.826 153.007 209.741 153.054C209.645 153.108 209.499 153.164 209.319 153.177L209.044 149.186ZM206.082 151.314C205.95 151.507 205.856 151.643 205.761 151.766C205.668 151.885 205.612 151.94 205.587 151.962C205.566 151.98 205.605 151.941 205.702 151.908C205.812 151.869 205.921 151.864 205.996 151.875L205.407 155.832C206.614 156.011 207.561 155.543 208.202 154.989C208.76 154.507 209.17 153.883 209.381 153.576L206.082 151.314ZM205.994 151.875C206.101 151.891 206.217 151.945 206.303 152.018C206.372 152.076 206.374 152.107 206.342 152.044C206.311 151.98 206.269 151.87 206.228 151.703C206.188 151.539 206.157 151.355 206.132 151.156L202.164 151.662C202.233 152.202 202.373 153.046 202.761 153.825C203.172 154.652 203.986 155.621 205.408 155.832L205.994 151.875ZM206.132 151.161C206.073 150.689 205.922 149.983 205.571 149.332C205.239 148.717 204.409 147.63 202.894 147.67L202.999 151.668C202.857 151.672 202.709 151.65 202.565 151.6C202.424 151.551 202.313 151.484 202.233 151.423C202.084 151.308 202.039 151.211 202.051 151.233C202.059 151.247 202.083 151.3 202.11 151.396C202.136 151.487 202.154 151.581 202.163 151.657L206.132 151.161ZM202.829 147.673C202.12 147.714 201.592 148.023 201.271 148.258C200.969 148.48 200.707 148.748 200.579 148.876L203.407 151.705C203.49 151.622 203.541 151.571 203.587 151.528C203.632 151.487 203.645 151.478 203.637 151.484C203.627 151.491 203.42 151.645 203.064 151.666L202.829 147.673ZM200.625 148.831C200.579 148.875 200.528 148.923 200.492 148.957C200.452 148.995 200.419 149.026 200.388 149.055C200.326 149.112 200.289 149.142 200.266 149.159C200.225 149.19 200.278 149.141 200.4 149.117L201.184 153.039C202.386 152.798 203.19 151.91 203.361 151.75L200.625 148.831ZM200.358 149.125C200.457 149.103 200.571 149.101 200.687 149.129C200.804 149.156 200.895 149.207 200.955 149.256L198.433 152.361C199.238 153.015 200.256 153.245 201.226 153.03L200.358 149.125ZM200.883 149.2C200.9 149.213 200.871 149.195 200.832 149.126C200.794 149.059 200.773 148.989 200.766 148.937L196.799 149.449C196.945 150.581 197.552 151.712 198.505 152.417L200.883 149.2ZM200.773 149.003C200.748 148.735 200.758 148.462 200.78 148.029L196.785 147.829C196.765 148.225 196.734 148.781 196.792 149.382L200.773 149.003ZM200.781 148.016C200.795 147.691 200.865 146.937 200.726 146.208L196.797 146.957C196.824 147.099 196.812 147.214 196.784 147.842L200.781 148.016ZM200.725 146.202C200.367 144.356 199.052 143.242 197.802 142.58C196.57 141.928 195.117 141.557 193.904 141.293L193.055 145.202C194.224 145.456 195.216 145.737 195.931 146.116C196.628 146.485 196.763 146.78 196.798 146.963L200.725 146.202ZM193.903 141.293C193.342 141.171 192.269 140.888 191.398 140.374C190.51 139.849 190.299 139.393 190.319 138.973L186.324 138.781C186.199 141.385 187.946 142.98 189.363 143.817C190.796 144.664 192.374 145.054 193.056 145.202L193.903 141.293ZM190.319 138.982C190.333 138.709 190.473 138.387 190.902 138.047C191.346 137.695 191.989 137.429 192.656 137.336L192.108 133.374C190.827 133.551 189.492 134.061 188.419 134.911C187.33 135.773 186.414 137.077 186.324 138.772L190.319 138.982ZM192.665 137.335C193.329 137.24 194.018 137.27 194.965 137.293L195.06 133.294C194.267 133.275 193.174 133.222 192.099 133.375L192.665 137.335ZM195.012 137.293C195.635 137.293 196.638 137.338 197.547 137.24L197.118 133.263C196.494 133.331 195.923 133.293 195.012 133.293V137.293ZM198.974 134.109L193.567 126.341L190.284 128.626L195.691 136.394L198.974 134.109ZM193.575 126.353C193.31 125.966 193.098 125.657 192.927 125.333C192.761 125.018 192.69 124.786 192.673 124.612L188.693 125.01C188.857 126.65 189.851 127.995 190.276 128.615L193.575 126.353ZM192.674 124.616C192.671 124.586 192.671 124.531 192.688 124.461C192.704 124.391 192.73 124.333 192.755 124.292C192.78 124.251 192.791 124.25 192.77 124.265C192.743 124.285 192.689 124.313 192.618 124.324L192.021 120.369C190.756 120.56 189.862 121.36 189.347 122.198C188.839 123.024 188.597 124.034 188.693 125.007L192.674 124.616ZM192.32 124.346C192.475 124.346 192.619 124.335 192.68 124.331C192.764 124.325 192.765 124.326 192.755 124.326V120.326C192.599 120.326 192.455 120.337 192.395 120.341C192.31 120.347 192.309 120.346 192.32 120.346V124.346ZM192.755 124.326C192.852 124.326 193.16 124.331 193.462 124.283C193.772 124.234 194.423 124.081 194.936 123.482L191.899 120.879C192.287 120.426 192.752 120.345 192.834 120.332C192.891 120.323 192.919 120.324 192.894 120.325C192.869 120.326 192.835 120.326 192.755 120.326V124.326ZM195.017 123.381C195.035 123.358 195.22 123.125 195.347 122.807C195.509 122.402 195.547 121.966 195.461 121.54L191.539 122.324C191.511 122.184 191.496 122.014 191.513 121.825C191.53 121.634 191.576 121.464 191.633 121.321C191.729 121.081 191.862 120.921 191.817 120.981L195.017 123.381ZM195.456 121.513C195.309 120.827 194.897 120.33 194.624 120.057C194.312 119.745 193.909 119.454 193.448 119.26L191.896 122.947C191.828 122.918 191.808 122.897 191.796 122.885C191.786 122.875 191.754 122.842 191.713 122.777C191.677 122.722 191.593 122.578 191.545 122.351L195.456 121.513ZM193.472 119.27C193.271 119.183 193.142 119.109 193.065 119.057C192.987 119.004 192.992 118.993 193.031 119.042C193.075 119.097 193.154 119.222 193.194 119.412C193.234 119.607 193.214 119.781 193.177 119.902L189.349 118.742C189.04 119.761 189.285 120.754 189.894 121.524C190.423 122.193 191.17 122.631 191.872 122.937L193.472 119.27ZM193.173 119.915C193.07 120.246 192.852 120.384 192.831 120.397C192.812 120.408 192.824 120.399 192.887 120.382L191.835 116.523C191.67 116.568 191.226 116.693 190.762 116.974C190.296 117.256 189.642 117.797 189.353 118.729L193.173 119.915ZM192.949 120.364C193.371 120.234 193.802 120.15 194.348 120.04L193.564 116.118C193.074 116.216 192.428 116.339 191.773 116.541L192.949 120.364ZM194.348 120.04C195.064 119.897 195.921 119.722 196.78 119.373L195.275 115.667C194.809 115.856 194.298 115.971 193.564 116.118L194.348 120.04ZM196.82 119.356C197.623 119.01 198.411 118.442 198.993 117.699C199.575 116.955 200.058 115.882 199.869 114.632L195.914 115.229C195.891 115.077 195.97 115.071 195.843 115.233C195.715 115.397 195.488 115.574 195.235 115.684L196.82 119.356ZM199.865 114.602C199.798 114.205 199.657 113.765 199.608 113.594L195.762 114.693C195.878 115.102 195.902 115.159 195.919 115.259L199.865 114.602ZM199.603 113.579C199.499 113.225 199.444 113.004 199.424 112.825L195.448 113.266C195.511 113.833 195.663 114.357 195.766 114.708L199.603 113.579ZM199.409 112.717C199.208 111.513 198.432 110.684 197.741 110.186C197.035 109.677 196.207 109.352 195.446 109.199L194.662 113.122C194.936 113.177 195.217 113.297 195.402 113.43C195.601 113.574 195.498 113.583 195.463 113.374L199.409 112.717ZM195.464 109.203C194.834 109.071 194.051 109.01 193.265 109.16C192.474 109.311 191.5 109.719 190.849 110.683L194.163 112.922C194.03 113.12 193.884 113.114 194.015 113.089C194.074 113.078 194.164 113.069 194.283 113.073C194.4 113.077 194.524 113.093 194.644 113.118L195.464 109.203ZM190.867 110.656C190.599 111.039 190.424 111.438 190.333 111.638L193.975 113.293C194.091 113.038 194.123 112.981 194.144 112.95L190.867 110.656ZM190.365 111.571C190.267 111.768 190.214 111.877 190.152 111.987C190.096 112.087 190.065 112.126 190.055 112.138L193.092 114.741C193.538 114.221 193.819 113.608 193.943 113.36L190.365 111.571ZM190.076 112.114C190.034 112.161 189.954 112.231 189.784 112.325C189.6 112.427 189.392 112.514 189.069 112.648L190.598 116.344C191.117 116.129 192.237 115.708 193.072 114.764L190.076 112.114ZM189.104 112.634L183.449 114.85L184.909 118.574L190.564 116.358L189.104 112.634ZM183.421 114.861C183.107 114.99 182.119 115.343 181.418 116.044L184.246 118.872C184.212 118.907 184.226 118.88 184.369 118.808C184.516 118.733 184.674 118.67 184.936 118.563L183.421 114.861ZM181.418 116.044C180.947 116.515 180.624 117.119 180.517 117.299L183.946 119.357C183.991 119.282 184.058 119.168 184.088 119.118C184.129 119.05 184.159 119 184.186 118.958C184.24 118.875 184.258 118.861 184.246 118.872L181.418 116.044ZM180.483 117.357C180.373 117.555 180.306 117.673 180.24 117.773C180.179 117.865 180.148 117.896 180.142 117.901L182.871 120.826C183.451 120.284 183.8 119.622 183.98 119.299L180.483 117.357ZM180.144 117.9C180.098 117.942 180.013 118.003 179.817 118.073C179.596 118.151 179.338 118.209 178.919 118.297L179.743 122.211C180.429 122.067 181.795 121.828 182.869 120.827L180.144 117.9ZM178.939 118.293C178.836 118.314 178.732 118.335 178.629 118.355C178.525 118.376 178.421 118.397 178.318 118.417L179.102 122.34C179.206 122.319 179.309 122.298 179.413 122.278C179.517 122.257 179.62 122.236 179.724 122.215L178.939 118.293ZM178.225 118.438C177.592 118.597 176.88 118.9 176.283 119.39C175.693 119.874 175 120.741 175.033 121.965L179.031 121.857C179.037 122.068 178.977 122.242 178.914 122.355C178.857 122.457 178.808 122.492 178.822 122.481C178.833 122.471 178.874 122.442 178.951 122.406C179.025 122.371 179.11 122.34 179.195 122.319L178.225 118.438ZM175.032 121.911C175.032 122.196 175.081 122.423 175.105 122.531C175.111 122.558 175.117 122.582 175.121 122.597C175.125 122.615 175.127 122.621 175.128 122.628C175.131 122.639 175.126 122.622 175.121 122.592L179.067 121.935C179.059 121.888 179.051 121.846 179.044 121.81C179.036 121.775 179.029 121.743 179.023 121.719C179.021 121.707 179.018 121.696 179.016 121.687C179.014 121.678 179.011 121.669 179.01 121.663C179.007 121.65 179.006 121.646 179.006 121.644C179.006 121.644 179.007 121.651 179.009 121.662C179.012 121.674 179.015 121.692 179.018 121.716C179.025 121.763 179.032 121.83 179.032 121.911H175.032ZM175.133 122.656C175.144 122.711 175.15 122.743 175.156 122.772C175.16 122.799 175.162 122.811 175.163 122.816C175.163 122.82 175.162 122.815 175.162 122.803C175.162 122.792 175.162 122.777 175.163 122.76L179.149 123.093C179.197 122.528 179.094 122.065 179.055 121.871L175.133 122.656ZM175.172 122.678C175.178 122.628 175.192 122.563 175.22 122.491C175.248 122.419 175.284 122.353 175.326 122.294C175.408 122.177 175.487 122.125 175.494 122.12C175.498 122.118 175.462 122.141 175.354 122.183C175.241 122.226 175.118 122.266 174.925 122.329L176.156 126.134C176.436 126.044 177.088 125.85 177.653 125.488C178.318 125.062 178.997 124.323 179.141 123.175L175.172 122.678ZM174.966 122.316C174.661 122.407 173.835 122.626 173.186 123.135L175.658 126.281C175.588 126.335 175.565 126.332 175.665 126.293C175.766 126.253 175.892 126.214 176.115 126.147L174.966 122.316ZM173.151 123.164C172.284 123.878 171.976 124.914 171.841 125.318L175.636 126.583C175.676 126.463 175.707 126.373 175.736 126.296C175.765 126.219 175.786 126.173 175.799 126.146C175.826 126.092 175.801 126.163 175.693 126.252L173.151 123.164ZM171.833 125.344C171.763 125.564 171.712 125.709 171.661 125.826C171.637 125.88 171.617 125.917 171.602 125.942C171.588 125.967 171.58 125.976 171.581 125.975L174.653 128.536C175.246 127.826 175.506 126.991 175.644 126.557L171.833 125.344ZM171.575 125.982C171.577 125.98 171.58 125.976 171.586 125.972C171.592 125.967 171.596 125.966 171.595 125.966C171.595 125.966 171.562 125.981 171.481 125.981V129.981C172.66 129.981 173.837 129.524 174.659 128.53L171.575 125.982ZM171.481 125.981C171.127 125.981 170.409 125.694 169.899 125.092L166.848 127.679C167.954 128.984 169.721 129.981 171.481 129.981V125.981ZM169.917 125.114C169.673 124.817 169.423 124.478 169.209 124.158L165.881 126.377C166.164 126.802 166.494 127.25 166.83 127.657L169.917 125.114ZM169.172 124.105C168.551 123.235 167.541 121.681 165.799 121.032L164.402 124.78C164.773 124.918 165.088 125.269 165.917 126.43L169.172 124.105ZM165.733 121.008C165.671 120.988 165.609 120.967 165.546 120.946C165.484 120.926 165.422 120.905 165.36 120.884L164.095 124.679C164.157 124.7 164.219 124.72 164.282 124.741C164.344 124.762 164.406 124.782 164.468 124.803L165.733 121.008ZM165.316 120.87C165.235 120.845 165.187 120.831 165.131 120.813C165.081 120.797 165.047 120.785 165.022 120.776C164.97 120.756 164.985 120.757 165.029 120.786L162.81 124.114C163.352 124.475 163.957 124.637 164.139 124.693L165.316 120.87ZM164.941 120.73C164.997 120.764 164.971 120.775 164.886 120.631C164.788 120.465 164.712 120.277 164.566 119.925L160.87 121.454C161.039 121.861 161.548 123.368 162.899 124.17L164.941 120.73ZM164.573 119.941C164.107 118.787 163.473 117.265 162.236 116.116L159.514 119.048C160.017 119.515 160.376 120.23 160.864 121.438L164.573 119.941ZM162.228 116.109C161.178 115.144 159.003 114.034 156.852 115.11L158.641 118.687C158.648 118.684 158.661 118.678 158.696 118.676C158.735 118.674 158.804 118.677 158.902 118.704C159.114 118.762 159.349 118.896 159.521 119.055L162.228 116.109ZM156.852 115.11C156.722 115.175 156.604 115.245 156.553 115.275C156.48 115.317 156.474 115.32 156.479 115.317L158.268 118.895C158.398 118.83 158.517 118.76 158.568 118.73C158.641 118.687 158.647 118.685 158.641 118.687L156.852 115.11ZM156.292 115.423C156.157 115.51 156.092 115.548 156.047 115.569C156.011 115.587 156.024 115.576 156.072 115.568L156.729 119.513C157.547 119.377 158.163 118.976 158.455 118.788L156.292 115.423ZM156.139 115.558C156.214 115.548 156.291 115.554 156.355 115.572C156.415 115.589 156.433 115.607 156.409 115.59C156.347 115.546 156.164 115.38 155.92 114.953L152.447 116.938C153.228 118.304 154.621 119.792 156.661 119.524L156.139 115.558ZM155.914 114.942C154.657 112.777 153.685 110.428 153.003 107.991L149.151 109.069C149.918 111.811 151.018 114.475 152.454 116.95L155.914 114.942ZM153.003 107.991C152.938 107.761 152.831 107.366 152.669 106.991C152.505 106.611 152.209 106.064 151.649 105.636L149.22 108.813C149.113 108.732 149.049 108.652 149.018 108.607C148.989 108.565 148.985 108.548 148.997 108.577C149.009 108.606 149.029 108.657 149.057 108.745C149.085 108.835 149.113 108.934 149.151 109.069L153.003 107.991ZM151.674 105.655C150.437 104.678 149.031 105.009 148.312 105.286C147.532 105.587 146.862 106.071 146.46 106.398L148.982 109.502C149.099 109.407 149.238 109.304 149.383 109.212C149.532 109.118 149.658 109.054 149.75 109.018C149.851 108.98 149.842 109.001 149.745 109C149.617 108.998 149.397 108.954 149.195 108.795L151.674 105.655ZM146.464 106.394C146.194 106.612 145.785 106.948 145.439 107.363C145.085 107.787 144.668 108.446 144.607 109.324L148.598 109.6C148.578 109.877 148.451 109.997 148.512 109.924C148.538 109.893 148.586 109.841 148.669 109.766C148.753 109.69 148.852 109.607 148.978 109.506L146.464 106.394ZM144.607 109.319C144.546 110.178 144.853 110.868 145.136 111.329C145.403 111.764 145.748 112.149 145.95 112.378L148.953 109.736C148.835 109.601 148.749 109.503 148.674 109.411C148.601 109.321 148.563 109.266 148.545 109.236C148.507 109.175 148.617 109.326 148.597 109.604L144.607 109.319ZM145.933 112.359C146.069 112.518 146.166 112.629 146.257 112.744C146.345 112.854 146.397 112.93 146.43 112.985C146.487 113.081 146.443 113.044 146.449 112.943L150.443 113.148C150.533 111.394 149.32 110.164 148.97 109.755L145.933 112.359ZM146.448 112.95C146.449 112.925 146.457 112.893 146.467 112.869C146.475 112.849 146.475 112.859 146.441 112.901C146.406 112.946 146.346 113.012 146.244 113.106C146.139 113.203 146.021 113.302 145.86 113.436L148.421 116.508C148.905 116.105 150.354 115.027 150.444 113.141L146.448 112.95ZM145.831 113.461C145.629 113.636 145.024 114.118 144.627 114.712L147.956 116.931C147.941 116.953 147.956 116.925 148.053 116.833C148.158 116.734 148.261 116.648 148.451 116.483L145.831 113.461ZM144.684 114.631C143.933 115.646 143.763 116.882 143.656 117.523L147.601 118.18C147.743 117.329 147.822 117.116 147.899 117.012L144.684 114.631ZM143.652 117.547C143.612 117.809 143.582 117.98 143.543 118.133L147.424 119.103C147.51 118.758 147.563 118.432 147.605 118.155L143.652 117.547ZM143.525 118.211C143.457 118.542 143.331 118.813 143.212 118.966C143.159 119.035 143.129 119.052 143.134 119.049C143.147 119.041 143.175 119.03 143.199 119.028L143.543 123.013C144.834 122.902 145.774 122.19 146.373 121.418C146.953 120.67 147.283 119.792 147.442 119.024L143.525 118.211ZM143.246 119.025C143.243 119.025 143.218 119.026 143.154 119.018C143.083 119.008 143 118.992 142.858 118.962L142.02 122.873C142.303 122.933 142.859 123.057 143.496 123.017L143.246 119.025ZM142.924 118.977C142.627 118.903 142.129 118.79 141.553 118.842L141.915 122.826C141.848 122.832 141.809 122.826 141.814 122.827C141.817 122.827 141.829 122.829 141.853 122.834C141.878 122.839 141.91 122.846 141.954 122.857L142.924 118.977ZM141.66 118.836C139.832 118.903 139.021 120.447 138.79 121.106L142.566 122.427C142.563 122.434 142.55 122.481 142.475 122.557C142.382 122.651 142.152 122.82 141.808 122.833L141.66 118.836ZM138.79 121.106C138.519 121.88 138.319 123.562 139.71 124.688L142.226 121.579C142.474 121.779 142.562 122.036 142.584 122.182C142.602 122.302 142.584 122.376 142.566 122.427L138.79 121.106ZM139.688 124.67C139.987 124.919 140.335 125.099 140.369 125.119L142.354 121.646C142.329 121.632 142.306 121.619 142.287 121.608C142.277 121.602 142.268 121.597 142.259 121.592C142.251 121.588 142.243 121.583 142.236 121.579C142.206 121.563 142.193 121.555 142.186 121.551C142.177 121.545 142.207 121.563 142.248 121.597L139.688 124.67ZM140.332 125.097C140.368 125.119 140.402 125.139 140.431 125.155C140.467 125.176 140.478 125.183 140.507 125.2C140.552 125.226 140.575 125.24 140.59 125.25C140.616 125.266 140.588 125.251 140.548 125.211L143.376 122.382C142.965 121.971 142.443 121.699 142.39 121.667L140.332 125.097ZM140.589 125.251C140.507 125.173 140.452 125.075 140.426 124.986C140.401 124.901 140.411 124.854 140.41 124.862L144.343 125.59C144.55 124.473 144.278 123.233 143.335 122.342L140.589 125.251ZM140.407 124.878C140.407 124.876 140.405 124.891 140.392 124.918C140.38 124.945 140.362 124.976 140.339 125.007C140.315 125.037 140.293 125.06 140.275 125.074C140.258 125.088 140.254 125.088 140.269 125.081L141.915 128.726C143.184 128.154 144.112 126.902 144.346 125.573L140.407 124.878ZM140.243 125.093C140.091 125.164 139.798 125.214 139.241 125.146L138.759 129.117C139.569 129.215 140.768 129.264 141.941 128.715L140.243 125.093ZM137.671 128.626C137.956 128.879 138.22 129.158 138.506 129.497L141.566 126.92C141.188 126.472 140.79 126.047 140.329 125.637L137.671 128.626ZM138.484 129.471C139.563 130.797 140.309 132.414 141.189 134.281L144.807 132.576C143.988 130.839 143.036 128.728 141.587 126.947L138.484 129.471ZM141.18 134.263C142.396 136.911 143.865 140.257 147.087 141.935L148.935 138.387C147.144 137.455 146.168 135.54 144.815 132.594L141.18 134.263ZM147.073 141.927C147.933 142.385 148.837 142.661 149.595 142.886L150.735 139.052C149.961 138.822 149.414 138.642 148.949 138.395L147.073 141.927ZM149.533 142.866C150.158 143.075 150.491 143.161 150.859 143.321L152.454 139.653C151.87 139.399 151.167 139.195 150.798 139.072L149.533 142.866ZM150.923 143.347C153.977 144.552 156.276 147.485 156.718 150.745L160.682 150.209C160.046 145.515 156.793 141.363 152.391 139.626L150.923 143.347ZM156.727 150.806C156.754 150.967 156.769 151.124 156.789 151.368L160.776 151.036C160.755 150.783 160.728 150.484 160.672 150.148L156.727 150.806ZM156.794 151.417C156.863 152.054 156.942 153.187 157.462 154.192L161.015 152.355C160.913 152.158 160.868 151.883 160.771 150.987L156.794 151.417ZM157.455 154.178C158.091 155.433 159.128 156.155 160.119 156.608C161.064 157.039 162.14 157.298 163 157.513L163.97 153.632C163.007 153.392 162.322 153.216 161.78 152.969C161.285 152.743 161.111 152.544 161.022 152.369L157.455 154.178ZM163 157.513C164.319 157.843 165.277 158.091 166.041 158.56L168.137 155.154C166.746 154.298 165.136 153.924 163.97 153.632L163 157.513ZM166.043 158.562C167.49 159.45 168.255 161.103 169.241 163.468L172.933 161.929C172.054 159.82 170.873 156.833 168.135 155.153L166.043 158.562ZM169.242 163.47C169.702 164.571 170.225 165.84 170.915 166.947C171.625 168.086 172.592 169.19 174.027 169.884L175.77 166.284C175.237 166.026 174.775 165.577 174.309 164.83C173.824 164.052 173.425 163.105 172.932 161.927L169.242 163.47ZM174.034 169.888C175.404 170.544 176.901 170.664 178.007 170.778L178.419 166.799C177.122 166.665 176.382 166.578 175.763 166.281L174.034 169.888ZM178.035 170.781C179.225 170.887 180.142 170.998 180.93 171.333L182.497 167.653C181.048 167.036 179.521 166.898 178.391 166.797L178.035 170.781ZM180.923 171.33C182.182 171.872 183.191 173.026 184.52 174.639L187.607 172.094C186.409 170.642 184.808 168.647 182.504 167.656L180.923 171.33ZM184.525 174.644C185.294 175.571 186.183 176.657 187.186 177.454C188.254 178.303 189.607 178.955 191.298 178.82L190.979 174.832C190.6 174.863 190.223 174.758 189.675 174.323C189.062 173.836 188.45 173.11 187.603 172.09L184.525 174.644ZM192.373 178.4C193.391 177.601 194.317 177.25 195.305 177.135C196.352 177.012 197.571 177.14 199.205 177.479L200.017 173.563C198.254 173.197 196.532 172.963 194.839 173.162C193.088 173.367 191.476 174.021 189.905 175.252L192.373 178.4ZM199.196 177.477C201.899 178.051 204.399 179.341 207.062 180.797L208.981 177.288C206.34 175.844 203.372 174.275 200.026 173.565L199.196 177.477ZM209.959 179.539C210.12 178.909 210.386 178.27 210.709 177.755C211.048 177.216 211.354 176.961 211.526 176.875L209.737 173.297C208.666 173.833 207.874 174.748 207.322 175.628C206.754 176.532 206.337 177.561 206.084 178.546L209.959 179.539ZM211.546 176.865C211.633 176.82 211.679 176.818 211.698 176.819C211.719 176.819 211.782 176.824 211.894 176.885L213.802 173.37C212.522 172.675 211.055 172.619 209.717 173.307L211.546 176.865ZM211.819 176.842C211.824 176.845 211.832 176.851 211.883 176.885C211.926 176.913 212.01 176.97 212.109 177.029L214.167 173.599C214.162 173.596 214.153 173.591 214.102 173.557C214.06 173.528 213.975 173.472 213.877 173.412L211.819 176.842ZM215.138 175.314V175.065H211.138V175.314H215.138ZM213.138 175.065C215.053 175.64 215.053 175.64 215.053 175.641C215.053 175.641 215.053 175.641 215.053 175.641C215.053 175.642 215.053 175.642 215.052 175.643C215.052 175.644 215.052 175.645 215.052 175.646C215.051 175.648 215.05 175.65 215.05 175.652C215.049 175.656 215.047 175.659 215.046 175.663C215.044 175.67 215.042 175.678 215.039 175.685C215.035 175.699 215.03 175.713 215.024 175.728C215.014 175.754 214.998 175.797 214.971 175.851C214.948 175.897 214.891 176.004 214.79 176.13C214.703 176.237 214.467 176.505 214.046 176.674L212.561 172.96C212.088 173.149 211.805 173.459 211.678 173.616C211.536 173.793 211.444 173.959 211.393 174.062C211.338 174.173 211.299 174.27 211.274 174.337C211.261 174.372 211.25 174.402 211.242 174.428C211.238 174.441 211.234 174.452 211.231 174.463C211.229 174.468 211.227 174.473 211.226 174.478C211.225 174.48 211.225 174.482 211.224 174.484C211.224 174.485 211.223 174.486 211.223 174.487C211.223 174.488 211.223 174.488 211.223 174.489C211.222 174.489 211.222 174.49 211.222 174.49C211.222 174.49 211.222 174.491 213.138 175.065ZM214.198 176.606C213.905 176.752 213.637 176.786 213.448 176.786C213.26 176.786 212.992 176.752 212.699 176.606L214.488 173.028C214.112 172.84 213.741 172.786 213.448 172.786C213.156 172.786 212.785 172.84 212.409 173.028L214.198 176.606ZM212.576 176.539C213.773 177.246 214.919 176.983 215.538 176.736L214.052 173.022C214.052 173.022 214.056 173.02 214.062 173.018C214.069 173.016 214.079 173.013 214.093 173.01C214.12 173.004 214.164 172.996 214.223 172.995C214.359 172.994 214.501 173.03 214.611 173.095L212.576 176.539Z" fill="white" mask="url(#path-4-inside-1_639_317)"/>
</g>
<defs>
<filter id="filter0_d_639_317" x="0" y="0" width="361" height="357" filterUnits="userSpaceOnUse" color-interpolation-filters="sRGB">
<feFlood flood-opacity="0" result="BackgroundImageFix"/>
<feColorMatrix in="SourceAlpha" type="matrix" values="0 0 0 0 0 0 0 0 0 0 0 0 0 0 0 0 0 0 127 0" result="hardAlpha"/>
<feOffset dx="2" dy="2"/>
<feGaussianBlur stdDeviation="2"/>
<feComposite in2="hardAlpha" operator="out"/>
<feColorMatrix type="matrix" values="0 0 0 0 0 0 0 0 0 0 0 0 0 0 0 0 0 0 0.25 0"/>
<feBlend mode="normal" in2="BackgroundImageFix" result="effect1_dropShadow_639_317"/>
<feBlend mode="normal" in="SourceGraphic" in2="effect1_dropShadow_639_317" result="shape"/>
</filter>
<linearGradient id="paint0_linear_639_317" x1="144.488" y1="202.766" x2="213.512" y2="83.2345" gradientUnits="userSpaceOnUse">
<stop stop-color="#0460A9"/>
<stop offset="1" stop-color="#50E2D0"/>
</linearGradient>
</defs>
</svg>
