<svg width="92" height="61" viewBox="0 0 92 61" fill="none" xmlns="http://www.w3.org/2000/svg">
<path d="M1.17009 56V43.13H4.35609V47.792L8.78409 43.13H12.5641L7.63209 48.296L12.8521 56H9.14409L5.43609 50.438L4.35609 51.572V56H1.17009ZM15.0169 42.86C15.9349 42.86 16.6369 43.508 16.6369 44.426C16.6369 45.344 15.9349 45.992 15.0169 45.992C14.0989 45.992 13.3969 45.344 13.3969 44.426C13.3969 43.508 14.0989 42.86 15.0169 42.86ZM13.5409 56V46.784H16.4749V56H13.5409ZM21.5367 56.108C19.8267 56.108 18.6027 55.55 18.6027 53.57V48.62H17.3787V46.784H18.6027V43.868H21.4647V46.784H23.1387V48.62H21.4647V52.94C21.4647 53.66 21.8607 53.84 22.4907 53.84C22.7427 53.84 23.0307 53.822 23.1387 53.822V55.964C22.8867 56.036 22.3287 56.108 21.5367 56.108ZM31.8121 54.02C32.9281 54.02 33.6121 53.066 33.6121 51.5C33.6121 49.916 33.0181 48.872 31.7581 48.872C30.4801 48.872 29.8321 50.006 29.8321 51.5C29.8321 52.994 30.5521 54.02 31.8121 54.02ZM26.9881 59.042V46.784H29.7961V47.9H29.8501C30.4801 47.072 31.3801 46.514 32.6401 46.514C35.0881 46.514 36.5821 48.62 36.5821 51.392C36.5821 54.38 34.9801 56.288 32.5681 56.288C31.3801 56.288 30.5341 55.82 29.9581 55.046H29.9221V59.042H26.9881ZM37.5702 56V46.784H40.3782V48.224H40.4322C41.0802 47.126 41.8362 46.64 42.9522 46.64C43.2222 46.64 43.4022 46.658 43.5282 46.712V49.232H43.4562C41.6562 48.98 40.5042 49.862 40.5042 51.86V56H37.5702ZM48.803 56.288C45.851 56.288 43.871 54.182 43.871 51.41C43.871 48.638 45.851 46.532 48.803 46.532C51.773 46.532 53.717 48.638 53.717 51.41C53.717 54.182 51.773 56.288 48.803 56.288ZM48.785 54.2C50.063 54.2 50.747 53.084 50.747 51.41C50.747 49.736 50.063 48.602 48.785 48.602C47.507 48.602 46.841 49.736 46.841 51.41C46.841 53.084 47.507 54.2 48.785 54.2ZM59.0828 53.966C60.3068 53.966 61.0268 52.904 61.0268 51.392C61.0268 49.844 60.3968 48.728 59.1188 48.728C57.9488 48.728 57.2648 49.808 57.2648 51.356C57.2648 52.958 57.9488 53.966 59.0828 53.966ZM58.3268 56.288C55.9688 56.288 54.2948 54.47 54.2948 51.392C54.2948 48.512 55.9508 46.514 58.3268 46.514C59.6228 46.514 60.3608 47.054 60.9008 47.828H60.9548V43.13H63.8888V56H61.0808V54.758H61.0448C60.4868 55.712 59.5328 56.288 58.3268 56.288ZM69.8089 56.288C66.8569 56.288 64.8769 54.182 64.8769 51.41C64.8769 48.638 66.8569 46.532 69.8089 46.532C72.7789 46.532 74.7229 48.638 74.7229 51.41C74.7229 54.182 72.7789 56.288 69.8089 56.288ZM69.7909 54.2C71.0689 54.2 71.7529 53.084 71.7529 51.41C71.7529 49.736 71.0689 48.602 69.7909 48.602C68.5129 48.602 67.8469 49.736 67.8469 51.41C67.8469 53.084 68.5129 54.2 69.7909 54.2ZM79.1929 56.108C77.4829 56.108 76.2589 55.55 76.2589 53.57V48.62H75.0349V46.784H76.2589V43.868H79.1209V46.784H80.7949V48.62H79.1209V52.94C79.1209 53.66 79.5169 53.84 80.1469 53.84C80.3989 53.84 80.6869 53.822 80.7949 53.822V55.964C80.5429 56.036 79.9849 56.108 79.1929 56.108ZM85.4156 56.108C83.7056 56.108 82.4816 55.55 82.4816 53.57V48.62H81.2576V46.784H82.4816V43.868H85.3436V46.784H87.0176V48.62H85.3436V52.94C85.3436 53.66 85.7396 53.84 86.3696 53.84C86.6216 53.84 86.9096 53.822 87.0176 53.822V55.964C86.7656 56.036 86.2076 56.108 85.4156 56.108ZM89.5481 42.86C90.4661 42.86 91.1681 43.508 91.1681 44.426C91.1681 45.344 90.4661 45.992 89.5481 45.992C88.6301 45.992 87.9281 45.344 87.9281 44.426C87.9281 43.508 88.6301 42.86 89.5481 42.86ZM88.0721 56V46.784H91.0061V56H88.0721Z" fill="#F8AF3C"/>
<path d="M58.2106 3.94121H52.2118V1.71566C52.2118 0.767846 51.4439 0 50.4961 0H41.4979C40.5501 0 39.7822 0.767846 39.7822 1.71566V3.94121H33.7834C32.2478 3.94121 31 5.18896 31 6.72465V22.7954C31 24.3311 32.2478 25.5789 33.7834 25.5789H58.2166C59.7522 25.5789 61 24.3311 61 22.7954V6.72465C60.994 5.18896 59.7463 3.94121 58.2106 3.94121ZM40.988 1.71566C40.988 1.43371 41.216 1.19976 41.5039 1.19976H50.4961C50.778 1.19976 51.012 1.42771 51.012 1.71566V3.94121H40.988V1.71566ZM59.7942 22.7954C59.7942 23.6653 59.0864 24.3791 58.2106 24.3791H33.7834C32.9076 24.3731 32.1998 23.6653 32.1998 22.7954V6.72465C32.1998 5.85483 32.9076 5.14097 33.7834 5.14097H40.3881H51.6119H58.2166C59.0864 5.14097 59.8002 5.84883 59.8002 6.72465V22.7954H59.7942Z" fill="#F8AF3C"/>
<path d="M49.1386 14.1566H46.5951V11.6131C46.5951 11.2831 46.3251 11.0132 45.9952 11.0132C45.6653 11.0132 45.3953 11.2831 45.3953 11.6131V14.1566H42.8518C42.5219 14.1566 42.252 14.4265 42.252 14.7564C42.252 15.0864 42.5219 15.3563 42.8518 15.3563H45.3953V17.8998C45.3953 18.2297 45.6653 18.4997 45.9952 18.4997C46.3251 18.4997 46.5951 18.2297 46.5951 17.8998V15.3563H49.1386C49.4685 15.3563 49.7385 15.0864 49.7385 14.7564C49.7385 14.4265 49.4685 14.1566 49.1386 14.1566Z" fill="#F8AF3C"/>
<path d="M45.9954 8.14648C42.3482 8.14648 39.3848 11.1159 39.3848 14.7572C39.3848 18.3984 42.3482 21.3738 45.9954 21.3738C49.6427 21.3738 52.6061 18.4044 52.6061 14.7632C52.6061 11.1219 49.6427 8.14648 45.9954 8.14648ZM45.9954 20.1741C43.008 20.1741 40.5845 17.7446 40.5845 14.7632C40.5845 11.7818 43.014 9.35224 45.9954 9.35224C48.9828 9.35224 51.4064 11.7818 51.4064 14.7632C51.4064 17.7446 48.9828 20.1741 45.9954 20.1741Z" fill="#F8AF3C"/>
</svg>
