<svg width="49" height="66" viewBox="0 0 49 66" fill="none" xmlns="http://www.w3.org/2000/svg">
<path d="M1.00114 61V48.13H4.18714V58.3H9.96514V61H1.00114ZM12.6507 47.86C13.5687 47.86 14.2707 48.508 14.2707 49.426C14.2707 50.344 13.5687 50.992 12.6507 50.992C11.7327 50.992 11.0307 50.344 11.0307 49.426C11.0307 48.508 11.7327 47.86 12.6507 47.86ZM11.1747 61V51.784H14.1087V61H11.1747ZM19.4405 61.288C16.7405 61.288 15.0485 60.046 14.9585 58.012H17.7305C17.8385 58.93 18.4505 59.38 19.4225 59.38C20.3045 59.38 20.8625 59.056 20.8625 58.462C20.8625 57.634 19.7465 57.544 18.5225 57.328C16.9205 57.058 15.2105 56.626 15.2105 54.466C15.2105 52.522 17.0105 51.514 19.1885 51.514C21.7985 51.514 23.2025 52.648 23.3465 54.466H20.6465C20.5385 53.638 19.9805 53.386 19.1705 53.386C18.4505 53.386 17.8925 53.656 17.8925 54.232C17.8925 54.88 18.9365 54.97 20.1065 55.186C21.7265 55.456 23.6345 55.87 23.6345 58.228C23.6345 60.244 21.8525 61.288 19.4405 61.288ZM27.9771 61.108C26.2671 61.108 25.0431 60.55 25.0431 58.57V53.62H23.8191V51.784H25.0431V48.868H27.9051V51.784H29.5791V53.62H27.9051V57.94C27.9051 58.66 28.3011 58.84 28.9311 58.84C29.1831 58.84 29.4711 58.822 29.5791 58.822V60.964C29.3271 61.036 28.7691 61.108 27.9771 61.108ZM32.1096 47.86C33.0276 47.86 33.7296 48.508 33.7296 49.426C33.7296 50.344 33.0276 50.992 32.1096 50.992C31.1916 50.992 30.4896 50.344 30.4896 49.426C30.4896 48.508 31.1916 47.86 32.1096 47.86ZM30.6336 61V51.784H33.5676V61H30.6336ZM34.9754 61V51.784H37.8014V53.044H37.8554C38.5394 52.054 39.4214 51.514 40.6994 51.514C42.7154 51.514 43.9034 52.954 43.9034 55.006V61H40.9694V55.6C40.9694 54.628 40.4834 53.962 39.5294 53.962C38.5574 53.962 37.9094 54.772 37.9094 55.906V61H34.9754ZM46.7171 47.86C47.6351 47.86 48.3371 48.508 48.3371 49.426C48.3371 50.344 47.6351 50.992 46.7171 50.992C45.7991 50.992 45.0971 50.344 45.0971 49.426C45.0971 48.508 45.7991 47.86 46.7171 47.86ZM45.2411 61V51.784H48.1751V61H45.2411Z" fill="white"/>
<path d="M16.3714 5.36011C14.5077 5.36011 13 6.86776 13 8.7315V29.3197C13 31.1835 14.5077 32.6911 16.3714 32.6911H31.3836C33.2473 32.6911 34.7549 31.1835 34.7549 29.3197V8.7315C34.7549 6.86776 33.2473 5.36011 31.3836 5.36011" stroke="white" stroke-width="0.919565" stroke-linecap="round" stroke-linejoin="round"/>
<path d="M17.5571 13.7203H30.2017" stroke="white" stroke-width="0.919565" stroke-linecap="round" stroke-linejoin="round"/>
<path d="M17.5571 18.2698H30.2017" stroke="white" stroke-width="0.919565" stroke-linecap="round" stroke-linejoin="round"/>
<path d="M17.5571 22.8156H30.2017" stroke="white" stroke-width="0.919565" stroke-linecap="round" stroke-linejoin="round"/>
<path d="M17.5571 27.3612H30.2017" stroke="white" stroke-width="0.919565" stroke-linecap="round" stroke-linejoin="round"/>
<path d="M26.3909 3.5115C26.3909 2.12506 25.2658 1 23.8794 1C22.493 1 21.3679 2.12506 21.3679 3.5115H19.7769C19.0951 3.5115 18.542 4.06456 18.542 4.74641V7.18972C18.542 7.87158 19.0951 8.42464 19.7769 8.42464H27.9819C28.6637 8.42464 29.2168 7.87158 29.2168 7.18972V4.74641C29.2168 4.06456 28.6637 3.5115 27.9819 3.5115H26.3909Z" stroke="white" stroke-width="0.919565" stroke-linecap="round" stroke-linejoin="round"/>
</svg>
