<svg width="787" height="914" viewBox="0 0 787 914" fill="none" xmlns="http://www.w3.org/2000/svg">
<g filter="url(#filter0_d_684_877)">
<path d="M363.91 289.328C360.934 289.251 359.08 286.16 358.345 283.262C358.268 282.914 358.152 282.566 358.075 282.18C357.534 279.9 356.993 277.581 355.254 276.306C354.79 275.997 354.365 275.804 353.979 275.765C352.781 275.688 352.008 276.692 351.042 277.89C350.308 278.818 349.535 279.784 348.492 280.325C347.216 280.982 345.593 280.904 343.545 280.132C343.275 280.016 343.004 279.9 342.695 279.784C341.536 279.32 340.415 278.856 339.295 278.856C338.019 278.856 336.59 279.706 336.551 280.943C336.551 281.677 337.015 282.334 337.478 283.068C338.019 283.841 338.56 284.653 338.599 285.657C338.638 286.933 337.865 288.053 337.169 289.019C336.28 290.256 335.778 291.067 336.203 291.917C336.744 292.961 338.329 292.884 339.758 292.845H339.99C342.463 292.768 344.434 293.463 345.748 294.777C346.598 295.666 347.062 296.902 347.023 298.139C347.023 299.182 346.598 300.11 345.902 300.728C345.323 301.269 344.627 301.539 343.97 301.849C343.468 302.08 342.966 302.274 342.579 302.583C341.845 303.162 341.42 304.167 341.536 305.288C341.613 306.099 341.961 306.795 342.463 307.259C343.854 306.099 345.98 304.901 347.796 306.254C349.11 307.22 349.226 308.882 349.342 310.466C349.419 311.896 349.535 313.209 350.462 313.866C351.66 314.717 353.013 313.905 354.983 312.63C355.524 312.282 356.104 311.896 356.645 311.625C358.461 310.659 360.818 310.62 362.944 311.548C365.069 312.475 366.615 314.214 367.156 316.224C367.194 316.417 367.272 316.649 367.31 316.842C367.465 317.499 367.581 318.078 367.929 318.504C368.663 319.354 369.861 319.16 371.291 318.929C372.566 318.735 373.841 318.542 375 319.045C375.116 319.083 375.193 319.16 375.271 319.276C376.237 321.093 375.928 323.102 375.657 325.073C375.387 326.85 375.155 328.551 375.812 330.019C376.275 331.062 377.126 331.874 378.014 332.763C378.749 333.458 379.521 334.231 380.062 335.12C381.299 337.129 381.338 339.564 381.338 341.882C381.338 344.278 381.338 346.558 382.69 348.336C383.115 348.877 383.656 349.418 384.197 349.881C385.279 350.886 386.438 351.929 386.632 353.514C386.786 354.75 386.284 355.832 385.82 356.914C385.395 357.842 385.009 358.73 385.086 359.619C385.202 361.242 386.902 362.401 388.409 362.788C389.414 363.058 390.457 363.097 391.578 363.174C392.351 363.213 393.124 363.252 393.896 363.367C397.374 363.87 400.504 366.072 402.514 369.396C404.446 372.603 404.948 376.197 403.982 379.404C405.141 378.863 406.571 378.709 408.194 379.056C410.01 379.443 411.904 380.447 412.87 381.993C413.024 381.8 413.218 381.645 413.45 381.529C414.029 381.22 414.647 381.259 415.188 381.298C415.498 381.298 415.807 381.298 416.077 381.298C417.352 381.066 417.971 379.404 418.087 378.052C418.087 377.781 418.125 377.511 418.164 377.24C418.28 375.772 418.396 374.303 419.362 373.144C420.83 371.444 423.149 371.637 425.39 371.83C427.399 371.985 429.293 372.178 430.491 371.019C431.032 370.516 431.341 369.821 431.689 369.087L431.766 368.893C433.312 365.493 435.167 363.213 437.408 361.938C438.915 361.088 440.886 360.662 442.741 360.972C440.345 354.827 438.103 348.606 435.939 342.501C431.186 328.976 426.279 315.026 419.053 302.506C418.241 303.472 416.966 304.129 415.729 304.167C413.759 304.244 412.02 303.278 410.397 302.274C401.895 296.941 393.819 290.797 386.4 284.034L385.743 283.455C382.497 280.518 379.174 277.465 375.116 276.345C374.343 276.151 373.57 275.997 372.72 275.881C372.025 278.856 371.02 281.754 369.668 284.498C368.083 287.744 366.112 289.444 363.871 289.367" fill="#50E2D0"/>
<path d="M401.546 370.014C399.692 366.961 396.832 364.952 393.702 364.488C392.968 364.372 392.234 364.334 391.499 364.295C390.379 364.218 389.258 364.179 388.137 363.87C386.205 363.367 384.157 361.899 384.003 359.735C383.925 358.576 384.389 357.494 384.853 356.489C385.278 355.523 385.703 354.596 385.587 353.668C385.433 352.509 384.505 351.62 383.5 350.731C382.921 350.19 382.341 349.649 381.877 349.031C380.37 346.983 380.332 344.433 380.332 341.959C380.332 339.68 380.332 337.516 379.211 335.777C378.709 335.004 378.052 334.308 377.318 333.613C376.39 332.724 375.424 331.797 374.883 330.521C374.11 328.782 374.381 326.85 374.651 324.995C374.922 323.179 375.154 321.479 374.458 320.049C373.608 319.779 372.565 319.933 371.521 320.049C369.937 320.281 368.314 320.552 367.193 319.238C366.652 318.619 366.498 317.808 366.343 317.112C366.304 316.919 366.266 316.726 366.227 316.533C365.802 314.832 364.45 313.364 362.633 312.553C360.817 311.78 358.808 311.78 357.262 312.591C356.76 312.862 356.219 313.209 355.678 313.557C353.862 314.755 351.814 316.108 349.92 314.794C348.568 313.828 348.452 312.166 348.336 310.582C348.258 309.191 348.142 307.838 347.254 307.181C346.094 306.331 344.51 307.181 343.428 308.031C343.505 308.186 343.544 308.34 343.428 308.495C343.351 308.688 343.119 308.804 342.926 308.804C342.848 308.804 342.771 308.804 342.694 308.766C342.694 308.766 342.617 308.727 342.578 308.688C342.462 308.804 342.346 308.92 342.269 308.997C338.907 312.437 335.622 316.069 332.57 319.74C331.526 320.977 331.178 321.904 331.488 322.561C331.758 323.179 332.531 323.488 333.304 323.798C333.458 323.875 333.652 323.952 333.806 323.991C337.632 325.691 339.68 330.637 338.211 334.54C336.936 337.941 333.806 339.873 330.792 341.766C328.28 343.312 325.691 344.935 324.223 347.369C323.682 348.258 323.45 349.031 323.527 349.727C323.643 350.577 324.223 351.35 324.841 352.122L325.189 352.548C329.285 357.996 329.13 366.304 324.918 371.676C325.034 371.753 325.189 371.83 325.305 371.907C326.271 372.642 326.58 373.84 326.889 374.922C328.203 379.675 330.096 384.234 332.57 388.524C333.574 390.263 334.618 391.113 335.622 390.958C336.086 390.881 336.55 390.61 337.013 390.301C337.284 390.147 337.554 389.992 337.825 389.838C340.298 388.601 343.235 389.722 344.897 391.306C346.674 392.968 347.679 395.17 348.606 397.489C349.031 398.493 349.495 399.691 350.422 400.232C350.809 400.464 351.234 400.58 351.698 400.735C351.968 400.812 352.2 400.889 352.47 400.967C354.75 401.817 356.18 403.826 357.571 405.758C358.074 406.454 358.576 407.149 359.078 407.768C360.354 409.313 362.402 410.357 364.025 410.357C364.952 410.357 365.686 410.048 366.227 409.391C366.691 408.85 366.923 408.077 367.193 407.304C367.541 406.261 367.889 405.179 368.816 404.444C369.512 403.903 370.401 403.633 371.251 403.362C372.565 402.976 373.415 402.667 373.492 401.855C373.492 401.585 373.492 401.314 373.415 401.005C373.337 400.735 373.299 400.464 373.299 400.194C373.183 398.146 375.192 396.716 377.24 396.214C377.627 396.136 378.052 396.02 378.438 395.943C379.791 395.673 381.066 395.402 381.955 394.591C382.418 394.127 382.766 393.547 383.114 392.89C383.462 392.233 383.848 391.576 384.389 391.035C385.201 390.224 386.321 389.76 387.287 389.412L397.837 385.278C398.841 384.891 399.962 384.428 400.658 383.616C401.044 383.152 401.315 382.611 401.585 382.032C401.817 381.568 402.049 381.066 402.358 380.641C402.551 380.37 402.783 380.177 403.053 379.945C402.899 379.791 402.822 379.597 402.899 379.404C403.942 376.39 403.479 372.912 401.662 369.898" fill="#8F2DDE"/>
<path d="M437.952 362.864C435.904 364.023 434.203 366.148 432.774 369.356L432.696 369.549C432.349 370.36 431.962 371.172 431.267 371.829C429.682 373.297 427.48 373.104 425.316 372.911C423.268 372.718 421.335 372.563 420.215 373.838C419.442 374.727 419.365 375.964 419.249 377.316C419.249 377.587 419.21 377.857 419.171 378.166C418.978 379.982 418.128 382.069 416.273 382.378C415.887 382.456 415.539 382.417 415.153 382.378C414.689 382.378 414.302 382.34 413.993 382.494C413.259 382.881 413.491 383.847 413.916 385.392C414.071 385.933 414.225 386.474 414.341 386.977C414.805 389.72 412.525 392.039 410.245 393.005C408.931 393.585 407.54 393.855 406.188 394.126C405.222 394.319 404.255 394.512 403.289 394.821C402.517 395.053 402.091 395.362 401.976 395.749C401.705 396.56 402.942 397.294 404.024 397.758C404.951 398.183 405.994 399.111 406.188 400.115C406.304 400.656 406.149 401.159 405.763 401.545C405.222 402.125 404.449 402.163 403.753 402.163C403.521 402.163 403.289 402.163 403.058 402.163C401.628 402.356 400.778 404.134 400.932 405.564C401.087 407.225 402.13 408.694 403.058 410.008L413.684 425.233C413.684 425.233 413.8 425.581 413.723 425.735C413.646 425.89 413.491 426.044 413.298 426.044C411.482 426.353 409.665 426.276 407.888 426.238C406.303 426.199 404.719 426.122 403.135 426.353C400.043 426.779 396.643 428.827 396.488 431.879C396.295 435.666 400.894 437.985 405.26 438.912C410.09 439.917 415.114 441.579 415.964 445.984C416.157 446.911 416.08 447.839 416.041 448.727C416.003 449.462 415.964 450.196 416.041 450.891C416.157 451.78 416.66 452.708 417.278 453.171C417.664 453.442 418.051 453.558 418.476 453.481C419.094 453.365 419.597 452.862 420.138 452.321C420.794 451.664 421.567 450.93 422.611 450.853C424.697 450.698 425.702 453.017 425.973 455.026C426.282 457.306 426.939 458.504 427.982 458.659C429.025 458.852 429.721 457.963 430.726 456.495C431.614 455.219 432.619 453.79 434.242 453.674C436.406 453.519 437.411 455.645 438.261 457.499C439.034 459.2 439.768 460.784 441.198 460.939C442.434 461.054 443.4 460.011 444.444 458.89C445.603 457.654 446.917 456.263 448.733 456.611C450.781 456.997 451.515 459.316 452.018 461.016C452.481 462.484 453.022 463.334 453.602 463.45C454.607 463.644 456.075 462.021 457.273 460.707C457.93 459.972 458.548 459.316 459.166 458.813C459.823 458.272 460.596 457.847 461.408 457.345C463.456 456.147 465.349 455.026 465.311 452.785C465.311 452.36 465.233 451.973 465.117 451.51C465.04 451.085 464.924 450.66 464.924 450.196C464.808 447.684 466.856 445.636 468.788 444.786C470.875 443.897 473.232 443.897 475.319 443.897C476.169 443.897 477.754 443.897 478.604 444.979C479.067 445.597 479.183 446.332 479.261 447.027C479.261 447.259 479.299 447.491 479.376 447.723C479.647 449.037 480.613 450.041 482.043 450.544C484.091 451.278 486.603 450.891 488.187 449.578C491.085 447.22 492.09 443.163 492.824 439.221C493.52 435.55 494.408 430.952 497.577 428.131C498.157 427.59 498.852 427.165 499.548 426.817C498.311 426.392 497.152 425.735 496.225 424.653C495.143 423.417 494.718 421.91 494.292 420.48C494.099 419.784 493.867 419.05 493.597 418.393C493.133 417.35 492.167 416.384 491.278 416.113C490.815 415.959 490.428 415.997 490.042 416.191C489.733 416.384 489.346 416.384 489.037 416.229C470.527 407.844 454.066 388.638 443.864 363.598C443.632 363.057 443.439 362.477 443.207 361.936C441.468 361.434 439.42 361.743 437.952 362.632" fill="#002F99"/>
<path d="M336.592 199.021L327.395 193.842C326.081 193.108 324.458 192.181 322.835 192.335C321.367 192.451 320.015 193.456 318.701 194.383C316.884 195.659 315.03 196.972 312.866 196.316C312.247 196.122 311.745 195.813 311.243 195.504C310.702 195.156 310.161 194.847 309.62 194.731C308.035 194.422 306.76 195.775 305.446 197.243C304.055 198.75 302.625 200.296 300.616 200.296H300.577C299.341 200.296 298.259 199.639 297.331 199.059L297.138 198.943C287.439 193.186 274.532 193.379 264.988 199.368L264.524 199.677C263.442 200.373 262.283 201.107 260.969 201.378C258.728 201.803 256.679 200.837 254.709 199.909C253.202 199.214 251.656 198.48 250.11 198.402C248.101 198.286 246.091 199.252 244.121 200.218C241.686 201.378 239.174 202.576 236.547 201.841C234.924 201.378 233.687 200.257 232.451 199.175C231.137 198.016 229.862 196.895 228.316 196.663C227.62 196.547 226.886 196.663 226.113 196.741C225.109 196.857 224.104 196.972 223.099 196.663C221.747 196.277 220.587 195.272 219.467 194.306C217.728 192.799 216.607 191.949 215.332 192.606C215.023 192.76 214.752 192.992 214.443 193.263C213.864 193.727 213.245 194.229 212.318 194.268C210.463 194.19 210.077 192.065 209.806 190.481L209.729 190.094C209.265 187.505 206.947 185.302 204.242 184.761C201.653 184.298 198.716 185.302 196.784 187.351C196.32 187.853 195.895 188.394 195.47 188.973C194.195 190.635 192.842 192.335 190.717 192.606C188.282 192.876 186.543 191.099 184.92 189.399C183.8 188.239 182.679 187.041 181.288 186.5C178.312 185.302 175.028 187.428 173.328 188.819C169.927 191.601 166.681 196.161 167.802 200.682C167.995 201.378 168.265 202.073 168.536 202.769C168.768 203.387 169.038 204.005 169.231 204.662C170.391 208.72 168.961 212.893 167.222 217.183L162.585 228.698C165.56 228.35 168.575 228.312 171.589 228.621C174.178 228.853 177.887 229.471 180.515 231.905C182.911 234.108 183.993 238.32 181.79 241.025C181.597 241.295 181.327 241.527 181.095 241.759C180.592 242.262 180.09 242.764 179.974 243.344C179.897 243.769 179.974 244.194 180.322 244.58C180.863 245.237 181.79 245.662 182.718 245.662C183.606 245.662 184.457 245.43 185.384 245.16C186.118 244.966 186.852 244.773 187.625 244.657C189.557 244.425 191.876 245.392 192.185 247.324C192.185 247.13 192.185 246.976 192.262 246.783C192.61 245.739 193.422 245.005 194.233 244.31C196.938 242.03 200.223 239.634 204.087 239.209C207.797 238.784 212.357 240.793 213.245 244.735C213.323 245.044 213.361 245.392 213.4 245.701C213.516 246.474 213.632 247.169 214.057 247.671C214.714 248.483 215.912 248.522 217.148 248.56C218.539 248.638 220.008 248.715 220.974 249.758C221.747 250.608 221.901 251.729 222.056 252.811C222.21 253.816 222.326 254.782 222.983 255.323C223.717 255.941 224.838 255.786 225.997 255.632C226.306 255.593 226.616 255.555 226.925 255.516C231.253 255.091 234.885 257.989 238.402 260.771C242.034 263.631 245.434 266.336 249.453 265.524C250.226 265.37 250.999 265.099 251.733 264.79C253.433 264.172 255.172 263.515 256.95 264.172C258.65 264.829 259.539 266.374 260.428 267.843C260.969 268.77 261.51 269.698 262.205 270.355L263.828 265.872C264.022 265.331 264.253 264.713 264.756 264.21C265.258 263.747 265.876 263.554 266.611 263.592C267.615 263.669 268.736 264.249 269.47 265.138C269.895 265.64 270.243 266.22 270.552 266.761C270.977 267.495 271.402 268.191 272.021 268.732C274.069 270.548 277.585 269.62 279.672 267.65C280.947 266.49 281.913 265.061 282.918 263.554C283.652 262.472 284.425 261.351 285.314 260.308C287.478 257.834 291.033 255.941 294.124 257.293C295.515 257.912 296.559 259.071 297.563 260.192C298.684 261.467 299.766 262.665 301.234 262.974C301.659 263.051 302.084 263.051 302.587 263.09C303.282 263.09 303.978 263.09 304.673 263.36C306.103 263.901 306.837 265.177 307.572 266.452C307.997 267.186 308.422 267.959 309.001 268.538C309.311 268.848 309.697 269.157 310.122 269.466C311.32 270.393 312.672 271.437 312.325 273.06C312.093 274.142 311.165 274.721 310.354 275.224C309.813 275.533 309.349 275.881 309.001 276.267C308.074 277.465 308.77 279.281 309.813 280.518C310.161 280.943 310.547 281.329 310.934 281.715C311.861 282.643 312.788 283.57 313.291 284.846C313.561 285.464 313.677 286.159 313.793 286.816C314.025 287.898 314.218 288.942 314.952 289.56C315.918 290.371 317.271 290.101 318.701 289.83C319.512 289.676 320.362 289.521 321.212 289.56C323.492 289.637 325.309 291.028 327.047 292.342C327.743 292.845 328.439 293.386 329.134 293.849C330.641 294.815 332.883 295.009 334.274 294.352C335.008 294.004 335.433 293.463 335.549 292.767C335.472 292.651 335.394 292.574 335.356 292.458C334.621 290.99 335.549 289.637 336.399 288.478C337.017 287.589 337.674 286.662 337.636 285.773C337.636 285.077 337.172 284.42 336.708 283.725C336.167 282.913 335.587 282.063 335.587 280.981C335.587 279.088 337.597 277.813 339.413 277.813C340.766 277.813 342.041 278.315 343.239 278.817C343.509 278.933 343.78 279.049 344.05 279.126C345.789 279.783 347.142 279.861 348.146 279.397C348.996 278.972 349.653 278.122 350.349 277.272C351.392 275.958 352.436 274.644 354.213 274.721C354.831 274.76 355.45 275.03 356.068 275.455C358.155 276.962 358.734 279.513 359.314 281.947C359.391 282.295 359.469 282.643 359.584 282.991C360.203 285.502 361.748 288.169 364.106 288.246C366.347 288.323 367.931 285.966 368.897 283.995C370.173 281.368 371.177 278.585 371.834 275.687C370.868 275.533 369.863 275.378 368.859 275.069C366.038 274.258 363.681 272.557 361.942 271.166C351.972 263.322 345.248 251.574 343.509 239.016C343.393 238.165 343.277 237.277 343.2 236.426C342.814 232.949 342.427 229.664 340.804 226.882C339.645 224.911 337.52 223.404 335.317 223.018C334.274 222.824 332.805 222.824 331.53 223.868C331.298 224.061 330.989 224.138 330.68 224.1C330.371 224.061 330.1 223.868 329.946 223.597C328.67 221.588 329.057 218.844 330.989 216.757C332.573 215.019 334.737 214.284 336.631 214.787C337.056 213.627 337.017 212.314 337.017 210.922C337.017 209.725 337.017 208.449 337.249 207.251C337.597 205.551 338.911 204.199 340.34 203.426C340.688 201.494 338.292 199.832 336.785 198.982" fill="#04609A"/>
<path d="M356.259 64.0807C353.4 66.3993 349.767 67.6358 346.483 68.7178C346.637 71.4614 346.56 74.4369 344.628 76.4463C343.816 77.2578 342.812 77.7988 341.846 78.3012C341.266 78.6103 340.686 78.8808 340.184 79.2286C338.252 80.5424 337.17 82.9383 337.247 85.6432C337.363 88.3482 338.638 90.6281 340.648 91.7874L341.227 92.1352C343.198 93.2172 345.942 94.7629 344.937 97.0814C344.628 97.8156 343.971 98.2793 343.391 98.7044C343.005 98.9749 342.618 99.2454 342.387 99.5932C341.614 100.637 341.961 102.298 343.468 104.462L354.752 120.962C355.486 122.044 356.375 123.165 357.496 123.281C358.616 123.397 359.582 122.585 360.587 121.774C363.64 119.339 366.229 118.103 368.857 117.948C371.793 117.755 375.464 119.301 376.469 122.547C376.856 123.861 376.778 125.175 376.701 126.488C376.662 127.107 376.624 127.764 376.624 128.382C376.701 131.164 378.015 133.869 380.14 135.608C380.179 135.647 380.218 135.724 380.218 135.801C382.381 135.801 383.695 135.569 384.043 134.371C384.159 133.985 384.12 133.521 384.043 133.019C384.043 132.594 383.966 132.207 384.004 131.782C384.236 126.913 390.226 125.368 395.288 125.484C396.988 125.522 398.92 125.716 400.196 127.145C400.659 127.686 400.93 128.305 401.162 128.846C401.316 129.232 401.51 129.618 401.703 129.889C402.166 130.507 403.017 130.546 403.596 130.43C404.176 130.314 404.949 129.889 405.142 129.155C405.219 128.846 405.412 128.575 405.722 128.42C407.77 127.377 408.774 125.947 410.243 123.706C410.397 123.474 410.591 123.32 410.861 123.242C414.3 122.276 418.049 123.822 420.367 127.184C422.145 129.734 422.686 132.633 421.951 135.144C422.724 134.603 423.227 133.869 423.536 133.212C424.927 130.314 424.54 125.909 422.608 123.088C421.217 121.04 419.324 119.262 417.508 117.523C414.957 115.089 412.291 112.538 410.745 109.215C407.46 102.105 410.281 93.9127 412.677 88.3482C412.948 87.6913 413.218 87.1117 413.18 86.6093C413.102 85.0636 410.706 84.368 409.199 84.4453C408.774 84.4453 408.388 84.4453 407.963 84.484C406.031 84.5999 403.789 84.7158 402.051 83.3633C400.853 82.4359 400.157 81.1221 400.118 79.5377C400.002 76.5622 402.051 73.3936 404.099 71.616L405.103 70.7659C407.731 68.5246 410.475 66.1674 410.165 63.2306C409.702 58.7094 402.707 57.8593 399.732 57.6661L369.939 55.9658C366.924 55.8112 363.833 55.5794 360.78 55.1543C360.858 58.323 359.157 61.7235 356.182 64.0807" fill="#CC9A00"/>
<path d="M545.181 800.221C545.568 799.371 545.954 798.521 546.186 797.71C546.572 796.473 546.688 795.159 546.843 793.768C546.881 793.266 546.959 792.763 546.997 792.261C548.273 781.943 554.301 773.094 560.136 764.554C566.319 755.512 572.115 746.972 572.927 736.848C569.333 735.031 563.884 737.311 561.372 740.712C561.102 741.098 560.831 741.446 560.561 741.832C559.556 743.262 558.551 744.692 557.044 745.735C555.731 746.586 554.03 746.933 552.562 746.663C551.403 746.431 550.475 745.813 549.896 744.885C549.355 743.997 549.2 743.03 549.045 742.18C548.968 741.794 548.929 741.369 548.814 740.982C548.659 740.48 548.273 740.016 547.925 739.862C547.732 739.784 547.693 739.823 547.654 739.862C547.577 739.9 547.384 740.055 547.191 740.557C546.688 741.871 546.688 743.378 546.688 744.963C546.688 745.697 546.688 746.431 546.65 747.165C546.456 749.793 545.297 752.923 542.515 753.773C540.312 754.43 538.148 753.425 536.409 752.614C531.077 750.141 523.657 747.977 518.556 751.802C517.281 752.768 516.238 754.005 515.156 755.357C514.267 756.439 513.34 757.599 512.219 758.565C507.775 762.545 501.554 763.24 495.062 763.666L471.413 765.211C468.051 765.443 464.225 765.675 461.095 767.259C460.245 767.684 459.433 768.225 458.583 768.766C456.922 769.848 455.221 770.969 453.135 771.355C449.85 771.974 446.334 770.737 442.392 767.491C441.812 767.027 441.233 766.525 440.653 766.023C438.451 764.129 436.403 762.352 433.891 761.502C431.804 760.806 429.756 760.188 427.476 760.188C426.896 760.188 426.433 759.724 426.394 759.144C426.278 756.903 425.583 753.812 424.076 752.498C423.535 751.996 422.916 751.802 422.221 751.841C421.409 751.88 420.559 752.382 419.786 752.807L412.29 757.058C410.589 758.024 408.696 759.106 407.575 760.729C407.073 761.424 406.725 762.274 406.377 763.125C405.798 764.438 405.218 765.791 404.136 766.912C400.813 770.196 394.978 768.689 391.268 765.289C390.263 764.361 389.336 763.356 388.447 762.39C386.824 760.613 385.278 758.912 383.385 757.83C382.728 761.038 381.26 764.129 379.212 766.641C378.246 767.839 377.125 768.882 376.082 769.926C374.922 771.046 373.84 772.09 372.913 773.287C369.28 777.925 368.121 784.803 369.976 791.179C372.024 798.289 376.97 803.545 380.796 806.713C381.492 807.293 382.303 807.911 383.115 807.95C383.887 807.95 384.699 807.486 385.588 806.984C385.897 806.791 386.206 806.636 386.476 806.443C390.998 804.008 396.33 805.322 400.001 806.829C401.547 807.448 403.054 808.22 404.484 808.916C406.957 810.152 409.275 811.312 411.787 811.969C412.831 812.239 413.874 812.432 414.956 812.626C417.236 813.051 419.593 813.476 421.718 814.712C423.96 816.026 425.621 817.997 427.206 819.929C428.751 821.823 430.22 823.6 432.19 824.682C434.2 825.803 436.557 826.112 439.03 826.421C441.001 826.653 443.01 826.923 444.943 827.619C448.304 828.817 450.971 831.213 453.521 833.493C455.685 835.425 457.733 837.28 460.206 838.477C464.186 840.41 468.63 840.371 473.345 840.371C477.016 840.371 480.764 840.371 484.397 841.298C492.009 843.308 497.535 849.181 502.906 854.901C508.394 860.697 513.533 866.184 520.682 867.923C524.082 868.735 527.831 868.619 531.463 868.503C532.738 868.464 534.013 868.425 535.289 868.425C539.501 868.425 543.635 868.85 547.307 871.13L547.5 871.246C548.157 871.671 548.852 872.096 549.316 871.98C549.857 871.865 550.166 871.014 550.243 870.203C550.359 868.464 549.702 866.764 549.007 864.948C548.311 863.131 547.616 861.277 547.616 859.228C547.616 854.05 551.944 850.534 555.769 847.442C556.542 846.824 557.276 846.206 557.972 845.626C558.861 844.853 559.711 844.003 560.02 842.999C560.6 841.028 558.977 839.25 557.16 837.202C555.267 835.116 553.142 832.758 553.528 829.783C553.605 828.971 553.876 828.199 554.146 827.426C554.687 825.764 554.88 824.914 554.339 824.45C553.953 824.141 553.296 824.102 552.485 824.102C552.098 824.102 551.712 824.102 551.325 824.064C547.306 823.639 544.679 819.62 543.945 812.742C543.597 809.65 543.249 806.134 544.292 802.849C544.602 801.922 544.988 801.033 545.374 800.183" fill="#50E2D0"/>
<path d="M190.173 552.946C187.236 546.608 186.656 541.623 188.357 537.682C187.197 537.179 185.69 537.295 184.145 537.45C183.642 537.489 183.14 537.527 182.638 537.566C180.899 537.605 178.542 537.064 177.189 535.595C176.416 534.745 176.068 533.74 176.184 532.658C176.416 530.726 178.001 529.567 179.314 528.64C179.585 528.446 179.817 528.292 180.049 528.099C180.783 527.519 181.362 526.553 181.362 525.896C181.362 525.587 181.247 525.432 181.131 525.355C180.744 525.046 180.049 525.2 178.928 525.509C177.73 525.857 176.262 526.282 174.948 525.509C174.677 525.355 174.484 525.084 174.445 524.775C174.407 524.466 174.445 524.157 174.677 523.886C176.378 521.8 177.691 519.327 178.503 516.776C178.658 516.274 178.773 515.733 178.657 515.385C178.58 515.153 178.387 514.999 178.117 514.883C177.614 514.728 176.957 514.806 176.532 515.076C175.605 515.694 175.064 516.892 174.523 518.283C174.33 518.747 173.904 519.018 173.402 518.979C172.9 518.94 172.513 518.554 172.436 518.09C171.895 514.96 169.113 512.371 165.944 512.062H165.442C164.63 511.946 163.664 511.907 162.853 511.328C161.964 510.709 161.539 509.821 161.191 509.009C160.921 508.429 160.689 507.888 160.302 507.618C160.07 507.463 159.761 507.386 159.414 507.463C158.718 507.579 157.984 508.12 157.52 508.816C157.134 509.396 156.863 510.091 156.554 510.825C156.206 511.675 155.82 512.603 155.24 513.414C153.579 515.772 150.951 516.66 148.362 517.549C146.314 518.245 144.42 518.902 143.029 520.215C142.024 521.182 141.329 522.534 140.556 523.925C139.435 526.05 138.276 528.292 135.88 529.335C134.876 529.799 133.871 529.915 132.905 530.069C132.209 530.185 131.514 530.262 130.895 530.456C129.388 530.958 128.152 532.117 126.877 533.354C125.795 534.359 124.713 535.402 123.399 536.136C120.848 537.566 117.911 537.682 115.322 537.759C112.038 537.875 107.98 538.03 104.503 536.368C101.063 534.706 98.1652 530.456 99.5949 526.514C100.02 525.355 100.716 524.427 101.372 523.5C102.107 522.495 102.802 521.529 102.995 520.486C103.227 519.249 102.88 518.283 102.068 517.781C101.179 517.24 99.9041 517.317 98.938 518.051C96.4262 519.868 95.267 524.466 94.3782 527.828L89.1228 547.768C88.6591 549.622 88.0795 551.67 88.6205 553.525C89.316 556.114 91.8278 557.66 94.4555 559.322C95.1897 559.785 95.9239 560.249 96.6581 560.751C105.391 566.818 108.599 578.141 110.569 588.381C111.651 593.945 112.154 599.626 108.792 603.761C108.019 604.688 107.092 605.461 106.241 606.195C105.314 606.968 104.425 607.741 103.73 608.629C103.034 609.557 102.725 610.948 102.995 611.991C103.15 612.571 103.459 612.996 103.923 613.228C104.58 613.537 105.469 613.46 106.435 613.383C107.748 613.267 109.294 613.112 110.569 614.078C111.381 614.696 111.845 615.585 112.192 616.281L114.55 621.072C115.863 623.739 117.061 626.598 116.25 629.419C115.709 631.235 113.97 632.742 112.038 633.129C111.033 633.322 110.144 633.168 109.371 632.742C108.676 634.288 108.83 636.259 109.024 638.346C109.256 640.819 109.487 643.408 108.289 645.688C107.555 647.04 106.473 648.045 105.391 649.011C104.464 649.861 103.575 650.634 103.034 651.6C101.759 653.841 102.377 656.585 103.034 659.522C103.691 662.304 104.348 665.164 103.421 667.946C102.493 670.767 100.252 672.66 98.0879 674.476C97.6242 674.863 97.1991 675.211 96.774 675.597C95.7307 676.524 92.4461 679.732 93.4894 682.823C93.9918 684.292 95.3829 685.412 96.89 686.494C101.372 689.74 106.048 692.754 110.801 695.537C115.554 698.28 120.655 700.869 125.988 700.985C130.625 701.101 135.301 699.092 138.856 695.498C142.449 691.866 144.382 687.151 144.188 682.553V681.896C144.072 680.505 143.995 678.959 144.729 677.568C145.58 675.906 147.318 675.056 148.555 674.438C151.299 673.085 154.39 671.501 157.791 671.076C161.655 670.573 165.326 671.849 167.374 674.399C168.069 675.288 168.649 676.331 169.19 677.336C170.504 679.77 171.431 681.239 172.977 681.084C174.098 681.007 175.141 679.964 176.107 677.993C179.817 670.342 180.165 661.879 180.512 652.952C180.706 648.277 180.899 643.446 181.594 638.771C182.135 635.331 182.947 631.854 183.758 628.492C185.729 620.338 187.584 612.61 185.652 604.958C185.304 603.606 184.802 602.176 184.338 600.824C183.295 597.81 182.213 594.68 182.406 591.356C182.715 586.449 185.729 582.469 188.627 578.604C191.371 575.011 193.921 571.571 194.385 567.514C194.887 563.186 192.839 558.897 190.869 554.762L190.057 553.062L190.173 552.946Z" fill="#168376"/>
<path d="M493.866 439.686C493.054 443.821 492.011 448.071 488.842 450.66C486.949 452.206 484.051 452.67 481.616 451.781C479.8 451.124 478.602 449.849 478.254 448.148C478.216 447.878 478.177 447.646 478.138 447.376C478.061 446.796 477.984 446.255 477.713 445.869C477.134 445.173 475.936 445.212 474.892 445.212C473.038 445.212 470.951 445.25 469.212 446.023C467.589 446.719 465.889 448.38 466.005 450.39C466.005 450.776 466.121 451.163 466.198 451.549C466.275 452.013 466.391 452.515 466.391 453.017C466.391 455.877 464.034 457.268 461.947 458.505C461.174 458.968 460.44 459.393 459.861 459.857C459.32 460.321 458.74 460.939 458.083 461.635C456.731 463.103 455.339 464.61 453.948 464.726C452.866 465.344 452.48 466.851 452.518 468.088C452.518 468.745 452.634 469.363 452.75 470.059C452.866 470.87 453.021 471.72 452.982 472.609C452.982 474.078 452.48 475.546 452.055 476.937C451.475 478.753 450.934 480.492 451.359 482.115C451.707 481.999 452.055 481.961 452.441 481.961H452.518C454.18 481.961 455.61 483.004 457.04 484.009C458.933 485.323 460.17 486.095 461.368 485.284C462.295 484.666 462.527 483.39 462.759 481.999C463.029 480.415 463.3 478.792 464.729 477.98C465.58 477.478 466.662 477.44 467.975 477.787C469.714 478.29 471.299 479.256 472.497 480.57C472.883 480.995 473.231 481.458 473.579 481.922C474.545 483.159 475.433 484.357 476.786 484.627C477.868 484.82 478.989 484.434 480.186 483.97C481.771 483.39 483.355 482.811 484.901 483.661C485.558 484.047 486.099 484.666 486.64 485.245C487.49 486.211 488.07 486.791 488.765 486.559C488.997 486.482 489.229 486.289 489.461 486.095C489.847 485.786 490.272 485.439 490.852 485.4C491.741 485.284 492.359 485.864 492.939 486.366C493.132 486.559 493.364 486.752 493.595 486.907C494.098 487.216 494.639 487.293 495.257 487.139C496.455 486.83 497.846 485.516 498.658 483.931L498.851 483.584C499.971 481.381 501.363 478.637 504.029 478.483C504.879 478.444 505.613 478.676 506.386 478.869C507.082 479.062 507.739 479.256 508.396 479.217C509.593 479.14 510.521 478.251 511.526 477.362C512.144 476.783 512.801 476.203 513.535 475.778C514.231 475.353 515.042 475.121 515.892 475.044C515.892 475.044 515.892 475.005 515.892 474.966C515.854 472.841 514.81 470.754 513.187 469.402C512.955 469.209 512.724 469.054 512.492 468.861C511.68 468.281 510.869 467.663 510.444 466.697C510.057 465.808 510.057 464.842 510.521 463.876C511.178 462.485 512.608 461.326 514.231 460.901C515.39 460.591 516.549 460.553 517.67 460.475C518.868 460.398 519.988 460.36 521.07 460.05C522.307 459.703 523.505 458.659 523.93 457.577C524.123 457.114 524.278 456.379 523.93 455.684C523.543 454.988 522.809 454.525 521.998 454.061C521.379 453.713 520.761 453.327 520.22 452.786C518.443 451.008 518.597 448.11 518.984 445.83C519.293 443.859 519.679 441.85 520.104 439.84C520.375 438.565 520.684 437.367 521.418 436.324C521.689 435.937 521.998 435.628 522.345 435.358C520.607 434.817 518.906 434.199 517.283 433.387C516.085 432.807 514.926 432.15 513.767 431.532C511.255 430.141 508.859 428.789 506.232 428.209C505.459 428.054 504.647 427.9 503.797 427.784C503.024 427.668 502.213 427.552 501.44 427.397C500.358 427.745 499.353 428.325 498.503 429.059C495.605 431.648 494.755 436.053 494.059 439.57" fill="#057FCC"/>
<path d="M336.317 53.6457C333.767 55.3073 329.864 55.771 327.391 53.4525C327.159 53.2593 326.966 53.0274 326.734 52.7956C326.386 52.4091 326.077 52.0613 325.69 51.8295C324.222 50.9407 322.213 51.9454 321.208 53.4138C320.435 54.5345 320.087 55.887 319.701 57.2781C319.546 57.8577 319.392 58.4374 319.198 58.9784C318.889 59.9444 318.31 61.3356 316.996 61.8379C315.759 62.3016 314.6 61.7993 313.518 61.2969C312.745 60.9491 311.972 60.6013 311.277 60.64C310.658 60.64 310.04 60.9491 309.576 61.5288C308.997 62.2243 308.726 63.1518 308.881 63.9632C309.19 65.7408 310.774 66.9774 312.127 67.5184C312.359 67.5956 312.475 67.8275 312.475 68.0593C312.475 68.2912 312.281 68.4844 312.05 68.5617C310.001 69.0641 308.34 70.8416 307.722 73.2374C307.065 75.5946 307.644 77.9905 309.151 79.4589C309.847 80.1158 310.658 80.6182 311.547 81.1592C312.436 81.7002 313.363 82.2798 314.136 83.014C316.841 85.6417 317.228 90.3174 314.986 93.6793C313.016 96.6935 309.151 98.5483 305.133 98.3937C303.857 98.3551 302.312 98.2778 301.887 99.2052C301.732 99.553 301.732 99.9781 301.771 100.403C301.809 101.06 301.887 101.717 301.964 102.335C302.157 103.92 302.35 105.543 302.002 107.127C301.693 108.595 300.766 109.986 299.568 110.759C298.679 111.339 297.713 111.532 296.747 111.339C295.085 110.991 294.158 109.639 293.231 108.325C292.535 107.359 291.878 106.431 290.989 105.89C289.83 105.233 288.516 105.62 287.666 106.2C286.816 106.779 285.966 107.861 286.12 109.175C286.12 109.407 286.198 109.639 286.275 109.871C286.391 110.296 286.507 110.759 286.468 111.223C286.43 113.117 284.613 114.392 282.913 114.971C282.488 115.126 282.063 115.242 281.638 115.358C280.517 115.667 279.435 115.937 278.624 116.594C276.769 118.101 276.923 120.613 277.039 123.318C277.117 125.018 277.194 126.757 276.808 128.342C276.073 131.356 273.407 133.79 270.316 134.215C269.968 134.254 269.62 134.293 269.311 134.293C266.876 134.293 264.481 133.095 262.974 131.163C262.123 132.631 260.848 134.177 259.032 134.099C256.829 134.022 255.516 131.665 255.361 129.385C255.322 128.844 255.322 128.303 255.322 127.762C255.322 126.371 255.322 125.018 254.665 123.936C254.163 123.048 253.042 122.623 252.192 122.739C251.806 122.739 251.304 122.932 251.11 123.511C251.11 123.55 251.072 123.55 251.033 123.589C251.265 124.284 251.419 125.096 251.535 126.023C251.806 128.303 251.999 130.738 250.956 132.824C249.99 134.756 248.212 135.993 246.473 137.191C245.121 138.118 243.73 139.084 242.802 140.36C239.865 144.378 242.145 150.291 245.275 154.503L245.816 155.237C247.71 157.749 249.835 160.57 249.642 163.893C249.642 164.395 249.526 164.975 249.449 165.516C249.217 166.946 249.024 168.259 249.796 169.11C250.337 169.689 251.226 169.844 252.154 170.037C252.617 170.114 253.042 170.192 253.506 170.346C255.786 171.042 257.216 172.896 258.607 174.674C259.496 175.833 260.423 177.031 261.544 177.843C262.317 178.422 263.167 178.847 264.056 179.273C264.442 179.466 264.828 179.659 265.215 179.852C270.895 182.905 274.644 188.469 277.928 193.377C278.005 193.493 278.044 193.648 278.005 193.802C284.768 193.107 291.801 194.498 297.636 197.975L297.868 198.091C298.756 198.632 299.645 199.173 300.573 199.173C302.118 199.173 303.316 197.86 304.592 196.468C306.06 194.845 307.567 193.184 309.77 193.648C310.504 193.802 311.161 194.189 311.74 194.575C312.204 194.884 312.629 195.155 313.132 195.271C314.793 195.773 316.377 194.691 318.039 193.493C319.469 192.488 320.976 191.406 322.715 191.252C324.647 191.058 326.463 192.063 327.893 192.875L337.09 198.053C339.756 199.56 341.186 201.26 341.225 202.96C341.495 202.883 341.804 202.844 342.075 202.806C343.041 202.729 343.93 202.999 344.548 203.617L348.992 200.333C352.354 197.898 353.59 193.029 352.006 188.547C350.731 184.876 347.987 181.784 345.359 178.77C344.818 178.152 344.277 177.534 343.736 176.915C341.92 174.79 340.22 172.433 340.065 169.612C339.988 167.95 340.49 166.405 340.915 165.013C342.268 160.647 344.084 154.696 348.76 151.411C351.001 149.866 353.552 149.093 356.063 148.358C358.343 147.702 360.469 147.083 362.323 145.885C364.024 144.803 365.531 143.219 367.038 141.712C369.704 138.968 372.448 136.109 376.467 135.8C377.201 135.761 378.012 135.761 378.824 135.8C376.892 133.868 375.732 131.163 375.655 128.419C375.655 127.762 375.655 127.105 375.732 126.448C375.81 125.173 375.887 124.014 375.539 122.893C374.689 120.149 371.598 118.874 369.047 119.029C366.651 119.183 364.217 120.304 361.435 122.584C360.275 123.511 359.077 124.516 357.493 124.361C355.87 124.207 354.827 122.816 353.938 121.579L342.654 105.079C340.877 102.451 340.529 100.364 341.611 98.9347C341.959 98.471 342.423 98.1619 342.848 97.8141C343.35 97.4663 343.814 97.1185 344.007 96.6548C344.587 95.341 342.964 94.2976 340.761 93.0997L340.143 92.7519C337.785 91.3994 336.317 88.7717 336.201 85.6803C336.085 82.5889 337.36 79.8453 339.602 78.3383C340.181 77.9518 340.8 77.6427 341.379 77.3336C342.307 76.8312 343.195 76.4061 343.891 75.7106C345.591 73.933 345.591 71.1508 345.398 68.4071C345.398 68.1753 345.514 67.9434 345.784 67.8661C349.224 66.7455 352.74 65.5862 355.6 63.2677C358.343 61.0651 359.928 57.8964 359.773 55.0368C352.895 53.9935 346.325 51.9841 341.534 47.4629C340.22 49.8587 338.674 52.2159 336.356 53.723" fill="#168376"/>
<path d="M128.344 114.817C127.456 116.324 126.296 117.715 125.214 119.029C123.475 121.116 121.814 123.125 121.08 125.598C119.727 130.158 121.737 135.452 127.031 141.287C127.572 141.867 128.113 142.485 128.692 143.065C132.363 147.006 136.15 151.102 137.078 156.396C137.85 160.84 136.537 165.825 133.136 171.158C132.363 172.356 131.049 173.476 129.774 172.781C129.697 172.742 129.62 172.665 129.542 172.549C128.267 170.037 125.987 167.448 123.862 168.453C122.432 169.11 121.891 171.042 122.278 174.211C122.819 178.538 123.36 183.021 125.137 187.04C126.335 189.783 127.919 191.561 129.813 192.373C131.011 192.875 132.479 192.836 133.638 192.295C134.295 192.025 135.145 191.445 135.532 190.363C135.571 190.209 135.686 190.093 135.841 190.054C135.996 190.015 136.15 190.015 136.305 190.054C142.913 193.725 147.82 200.333 149.405 207.714C149.598 208.564 149.752 209.337 150.255 209.723C150.757 210.148 151.53 210.148 152.341 210.109C152.573 210.109 152.844 210.109 153.076 210.109C156.515 210.225 159.104 212.892 160.379 215.326C161.422 217.336 161.77 221.934 162.041 225.644C162.041 225.837 162.041 226.03 162.041 226.223L165.982 216.524C167.644 212.428 169.035 208.409 167.992 204.699C167.798 204.081 167.567 203.502 167.335 202.922C167.026 202.226 166.755 201.453 166.562 200.681C165.287 195.657 168.803 190.711 172.474 187.735C174.368 186.19 178.077 183.833 181.555 185.262C183.139 185.881 184.376 187.194 185.535 188.431C187.081 190.015 188.511 191.561 190.443 191.329C192.143 191.136 193.264 189.668 194.462 188.122C194.925 187.542 195.351 186.963 195.853 186.422C198.017 184.103 201.34 182.944 204.316 183.485C207.484 184.064 210.112 186.615 210.692 189.668L210.769 190.054C211.039 191.677 211.349 192.913 212.237 192.952C212.74 192.991 213.126 192.604 213.628 192.218C213.976 191.947 214.324 191.638 214.71 191.445C216.758 190.44 218.42 191.909 220.043 193.3C221.086 194.189 222.13 195.116 223.25 195.425C224.062 195.657 224.951 195.541 225.878 195.425C226.69 195.348 227.54 195.232 228.39 195.387C230.283 195.657 231.713 196.932 233.104 198.13C234.302 199.174 235.423 200.178 236.775 200.565C239.017 201.222 241.258 200.14 243.576 199.019C245.663 198.014 247.788 196.971 250.068 197.126C251.846 197.203 253.507 198.014 255.092 198.749C256.985 199.637 258.802 200.526 260.695 200.14C261.816 199.908 262.82 199.29 263.902 198.594L264.366 198.285C268.192 195.889 272.52 194.382 276.963 193.802C273.756 189.011 270.124 183.601 264.714 180.702C264.327 180.509 263.98 180.316 263.593 180.123C262.666 179.659 261.738 179.195 260.888 178.577C259.652 177.65 258.686 176.413 257.758 175.177C256.406 173.438 255.13 171.776 253.198 171.196C252.812 171.08 252.387 171.003 251.962 170.926C250.88 170.733 249.798 170.539 248.986 169.689C247.827 168.453 248.098 166.714 248.329 165.168C248.407 164.666 248.484 164.163 248.523 163.661C248.677 160.763 246.784 158.213 244.929 155.739L244.388 155.005C242.765 152.803 237.78 145.267 241.915 139.587C242.958 138.157 244.426 137.152 245.856 136.148C247.518 134.988 249.141 133.906 249.952 132.206C250.841 130.39 250.687 128.149 250.455 125.985C250.262 124.207 249.566 121.193 247.479 120.884C245.663 120.613 244.233 122.43 242.958 124.439C241.103 127.299 238.862 128.535 236.93 127.724C235.693 127.221 234.998 125.985 234.457 124.864C233.066 122.12 231.829 119.261 230.708 116.401C229.472 113.194 228.428 109.793 229.163 106.509C229.665 104.229 231.018 102.297 232.254 100.403L232.331 100.287C234.341 97.3119 236.196 94.3751 237.084 91.0905C238.05 87.4581 237.471 83.8643 235.577 81.5071C235.384 81.2753 235.191 81.0434 234.998 80.8116C233.877 79.4977 232.602 78.0293 233.182 76.2904C233.413 75.5562 233.954 75.0152 234.65 74.6674C235.925 74.0878 237.741 74.3583 239.21 74.8606C239.094 72.1557 238.785 69.6053 237.2 67.8277C236.737 67.2867 236.157 66.8616 235.539 66.3979C234.998 65.9729 234.418 65.5091 233.877 64.9682C233.143 64.1953 232.563 63.036 232.525 61.9154C232.486 61.9154 232.447 61.9927 232.37 61.9927C230.322 62.8428 228.351 61.7608 226.651 60.8334C226.265 60.6015 225.878 60.4083 225.53 60.2151C223.096 59.0172 220.004 59.2877 217.299 60.9107C214.865 62.3791 213.281 64.659 212.933 67.0548L220.236 69.1029C220.545 69.1802 220.777 69.412 220.932 69.6825C222.014 71.9238 219.927 73.2763 218.381 74.281C217.299 74.9766 216.179 75.7108 215.986 76.5609C215.831 77.2951 216.449 77.9134 217.415 78.9181C218.111 79.6137 218.807 80.3092 219.27 81.2366C219.927 82.5505 219.85 84.1348 219.077 85.5646C218.188 87.2649 216.488 88.4242 214.71 88.656C211.89 89.0038 208.837 87.3808 206.943 84.4826C206.673 84.0575 206.402 83.5938 206.132 83.1688C205.243 81.7004 204.431 80.3092 203.118 79.9614C202.229 79.7296 201.147 80.0774 200.026 80.4638L199.022 80.8116C193.534 82.7437 187.893 84.7531 182.251 83.0915C178.696 82.0481 175.604 78.6476 174.754 74.822C174.252 72.5807 174.638 70.4554 175.797 68.8324C173.865 68.1368 171.547 68.33 169.846 69.412C172.165 76.0972 171.122 83.7098 167.103 89.5448C165.518 91.8247 163.509 93.95 161.538 95.9981C157.172 100.558 153.076 104.809 154.08 110.219C154.235 111.107 154.544 111.957 154.853 112.846C155.317 114.199 155.819 115.628 155.858 117.174C155.897 118.952 154.93 120.884 153.501 121.889C152.419 122.623 151.221 122.777 150.1 122.314C148.709 121.734 147.975 120.42 147.472 119.531L138.894 104.538C138.623 104.074 138.739 103.495 139.126 103.147C139.512 102.799 140.13 102.799 140.517 103.147C140.671 103.263 140.71 103.263 140.749 103.224C140.981 103.147 141.406 102.567 141.521 101.756C141.56 101.447 141.599 100.674 141.096 100.326C139.86 99.3986 138.082 99.5146 136.227 99.6305C135.493 99.6691 134.759 99.7078 134.025 99.7078C133.097 99.7078 132.17 99.5532 131.243 99.3213C131.281 104.268 131.088 109.987 128.344 114.662" fill="#FF242A"/>
<path d="M569.794 579.262C570.567 578.296 571.533 577.369 572.499 576.48C574.741 574.394 576.827 572.384 576.48 569.756C576.248 568.172 574.973 566.781 573.388 566.433C571.842 566.085 570.065 566.82 569.215 568.172C569.138 568.288 568.983 568.404 568.828 568.404C568.674 568.404 568.519 568.404 568.403 568.288C567.128 567.167 567.012 565.274 566.935 563.574C566.819 561.564 566.703 560.289 565.505 559.98C565.041 559.864 564.5 559.98 563.921 560.057C563.689 560.096 563.418 560.134 563.187 560.173C560.018 560.598 557.236 558.318 555.883 555.884C554.569 553.488 554.183 550.706 553.912 548.194C552.521 548.426 550.898 548.348 549.855 547.614C549.275 547.228 548.927 546.648 548.85 545.953C548.696 544.832 549.353 543.905 549.971 543.093C550.241 542.707 550.512 542.359 550.666 542.011C552.289 538.727 547.923 535.326 545.952 534.012C542.397 531.616 539.267 527.868 541.16 524.545C542.667 521.917 546.184 521.762 549.005 521.685H549.159C551.285 521.608 554.917 520.796 555.072 518.169C555.11 517.241 554.647 516.314 554.183 515.386C553.835 514.73 553.487 514.073 553.294 513.338C552.985 512.14 553.101 510.827 553.565 509.551C552.058 506.074 546.57 506.537 544.252 506.924C541.547 507.349 535.866 508.276 533.355 504.682C532.002 502.75 532.118 500.277 532.273 497.92C532.388 495.486 532.543 493.167 531.036 491.621C529.915 490.462 528.254 490.114 526.515 489.766C526.012 489.651 525.471 489.573 524.969 489.419C522.341 488.762 519.868 486.752 520.332 484.279C520.409 483.815 520.564 483.429 520.718 483.043C520.796 482.849 520.873 482.695 520.95 482.502C521.607 480.647 520.95 478.444 519.482 477.208C517.975 475.971 515.656 475.778 513.995 476.783C513.338 477.169 512.758 477.71 512.178 478.251C511.096 479.256 509.976 480.26 508.43 480.376C507.58 480.454 506.807 480.222 506.034 479.99C505.339 479.797 504.682 479.603 504.064 479.642C502.015 479.758 500.818 482.115 499.774 484.163L499.581 484.511C498.847 485.941 497.34 487.757 495.485 488.259C494.596 488.491 493.707 488.375 492.973 487.873C492.703 487.68 492.432 487.448 492.2 487.216C491.698 486.752 491.311 486.482 490.964 486.52C490.693 486.52 490.423 486.752 490.152 486.984C489.843 487.216 489.534 487.487 489.109 487.641C487.679 488.143 486.674 487.023 485.824 486.018C485.361 485.477 484.897 484.936 484.394 484.666C483.313 484.047 482.037 484.511 480.608 485.052C479.332 485.516 477.98 486.018 476.627 485.748C474.888 485.4 473.806 484.009 472.763 482.656C472.415 482.231 472.106 481.767 471.72 481.381C470.676 480.222 469.247 479.333 467.701 478.908C466.696 478.637 465.885 478.637 465.266 478.985C464.262 479.565 464.069 480.84 463.837 482.231C463.566 483.777 463.334 485.361 461.982 486.25C460.05 487.525 458.234 486.25 456.417 484.975C455.142 484.086 453.828 483.159 452.514 483.159H452.476C452.051 483.159 451.664 483.275 451.278 483.468C451.278 483.468 451.278 483.468 451.239 483.506H451.162C449.694 484.279 448.727 486.289 448.612 488.221C448.534 489.225 448.612 490.269 448.689 491.312C448.805 492.935 448.921 494.597 448.534 496.22C448.109 497.959 446.757 499.582 445.134 500.239C444.322 500.586 443.472 500.625 442.699 500.432V501.089C443.858 502.673 443.974 504.914 444.052 506.924C444.129 508.276 444.168 509.667 444.515 510.788C445.404 513.648 448.302 515.155 451.317 516.778C453.983 518.169 456.726 519.637 458.465 522.11C461.402 526.284 460.282 531.925 457.924 535.635C455.567 539.345 451.935 541.972 448.65 544.33C448.882 544.948 449.346 545.373 450.119 545.682C451.857 546.378 454.447 545.914 455.876 544.639C457.152 543.518 458.118 542.05 459.161 540.504C460.282 538.804 461.479 537.065 463.102 535.674C466.735 532.698 472.454 532.157 477.709 534.321C482.346 536.215 486.133 539.731 489.495 542.823C489.766 543.093 489.92 543.48 489.804 543.866C489.727 544.252 489.418 544.562 489.032 544.677C480.569 547.073 472.995 552.445 467.817 559.555C478.83 556.734 489.495 552.638 499.542 547.305C502.054 545.991 505.532 544.136 508.894 545.257C511.869 546.223 513.647 549.237 514.768 551.208L521.878 563.342C522.612 564.617 524.931 568.558 522.805 571.379C522.11 572.307 521.105 572.848 520.216 573.312C519.598 573.621 519.018 573.93 518.593 574.355C517.782 575.089 517.55 576.094 517.782 577.253C518.245 579.378 520.255 581.581 522.457 582.277C524.158 582.856 525.974 583.011 527.867 583.243C530.302 583.513 532.852 583.784 535.171 584.904C537.876 586.218 539.808 589.503 539.692 592.556C539.615 594.14 538.996 595.415 537.914 596.265C539.537 598.197 542.204 599.395 545.141 599.434H545.218C548.58 599.434 551.555 597.927 553.101 595.492C553.565 594.719 553.99 593.869 554.415 592.942C555.574 590.469 556.888 587.687 559.825 586.991C560.25 586.875 560.636 586.836 561.061 586.836C562.375 586.836 563.573 587.339 564.616 588.15C565.66 586.952 566.394 585.445 567.167 583.9C567.901 582.393 568.674 580.847 569.756 579.494" fill="#FF8A8D"/>
<path d="M617.831 582.624C615.589 584.363 614.469 587.339 613.773 589.734C613.619 590.237 613.503 590.778 613.348 591.28C612.73 593.56 612.073 595.917 610.759 597.965C609.716 599.588 608.44 600.632 607.049 600.979C605.388 601.405 603.262 600.632 602.721 598.854C602.644 598.622 602.605 598.39 602.567 598.159C602.451 597.618 602.374 597.27 602.142 597.154C601.871 596.961 601.369 597.154 600.673 597.618L595.186 601.52C595.186 601.52 594.877 601.636 594.722 601.598C594.568 601.559 594.413 601.443 594.375 601.289C592.558 596.922 588.192 593.753 583.439 593.444C582.511 593.406 581.816 593.444 581.275 593.676C580.193 594.14 579.497 595.222 578.84 596.342C577.758 598.159 576.754 600.052 575.826 601.984C575.942 602.255 575.942 602.525 575.826 602.796C572.348 611.181 577.063 620.455 580.193 625.247C581.777 627.681 583.593 630.077 585.371 632.396C588.578 636.646 591.94 641.013 594.143 646.037C595.843 649.901 596.809 654.036 597.775 658.054C598.703 661.996 599.669 666.092 601.33 669.802C602.026 671.347 602.876 672.893 603.687 674.4C604.924 676.68 606.199 678.999 607.049 681.51C608.827 686.689 608.209 691.673 605.426 694.842C603.108 697.508 599.746 698.513 596.461 699.479C595.611 699.75 594.722 699.982 593.911 700.291C590.24 701.566 586.723 704.348 587.11 707.71C587.264 708.908 587.883 710.067 588.578 711.265C588.771 711.652 589.003 711.999 589.196 712.386C593.563 720.771 590.858 732.055 583.207 737.581C582.859 737.813 582.511 738.083 582.125 738.315C580.966 739.088 579.845 739.861 579.149 740.904C578.106 742.488 578.183 744.614 578.338 746.971L579.42 762.003C579.497 763.123 579.652 764.36 580.347 764.94C580.966 765.442 582.009 765.403 583.13 765.287L598.007 763.974C601.407 763.664 604.731 763.085 606.122 760.689C606.972 759.259 606.933 757.482 606.895 755.549C606.895 754.97 606.895 754.39 606.895 753.811C607.088 746.353 611.416 739.126 620.072 731.668L621.386 730.548C625.366 727.186 629.501 723.669 630.776 718.878C631.665 715.516 631.008 712.077 630.351 708.406C629.964 706.28 629.578 704.116 629.462 701.914C628.96 690.398 638.195 679.346 649.595 677.762C651.372 677.53 653.188 677.453 654.927 677.453C657.671 677.376 660.26 677.337 662.695 676.526C665.013 675.791 667.177 673.859 668.066 671.734C668.452 670.768 668.761 669.338 668.066 667.87C667.563 666.865 666.636 666.053 665.709 665.203C665.129 664.662 664.511 664.16 664.008 663.542C662.269 661.61 661.574 658.595 663.158 656.741C663.622 652.219 662.733 647.157 661.806 642.791C660.762 637.922 658.019 633.941 654.464 632.125C653.652 631.739 652.802 631.391 651.913 631.082C650.445 630.541 648.938 629.961 647.624 628.995C646.387 628.068 645.421 626.87 644.533 625.672C643.489 624.32 642.484 623.044 641.132 622.349C639.432 621.421 637.384 621.499 635.181 621.615C633.945 621.653 632.669 621.692 631.433 621.615C627.839 621.228 624.516 619.141 622.274 615.857C620.033 612.572 619.299 608.708 620.265 605.23C620.613 603.916 621.192 602.68 621.733 601.52C622.081 600.748 622.468 599.936 622.738 599.125C623.975 595.801 624.052 592.246 624.168 588.498C624.207 586.527 624.284 584.556 624.516 582.547C622.777 580.924 619.685 581.233 617.792 582.702" fill="#FFCD33"/>
<path d="M233.685 52.6021C234.574 55.3844 235.656 58.9781 233.879 61.0262C233.26 61.9923 233.801 63.422 234.69 64.3108C235.154 64.7745 235.656 65.1996 236.197 65.6246C236.815 66.0884 237.434 66.5907 237.975 67.209C239.945 69.4503 240.177 72.5417 240.255 75.749C240.255 75.9422 240.177 76.0968 240.023 76.2127C239.868 76.3286 239.675 76.3286 239.52 76.2513C238.129 75.6331 236.197 75.2466 235.038 75.749C234.613 75.9422 234.304 76.2513 234.149 76.715C233.763 77.8743 234.767 79.0722 235.733 80.1929C235.965 80.4247 236.158 80.6952 236.352 80.9271C238.477 83.5548 239.134 87.4963 238.091 91.4765C237.202 94.9157 235.27 97.9684 233.183 101.021L233.106 101.137C231.908 102.953 230.633 104.808 230.169 106.895C229.473 109.909 230.478 113.116 231.676 116.169C232.797 118.99 234.033 121.811 235.386 124.516C235.888 125.482 236.429 126.487 237.318 126.873C238.979 127.569 240.834 125.83 241.994 124.013C242.921 122.584 244.853 119.531 247.635 119.995C248.911 120.188 249.877 121.038 250.572 122.429C250.959 122.004 251.461 121.734 252.118 121.695C253.47 121.54 255.016 122.313 255.634 123.472C256.407 124.825 256.407 126.332 256.407 127.839C256.407 128.341 256.407 128.882 256.446 129.385C256.6 131.162 257.566 133.056 259.073 133.094C260.619 133.133 261.74 131.317 262.435 129.926C262.513 129.733 262.706 129.617 262.899 129.617C263.131 129.617 263.286 129.733 263.401 129.887C264.715 132.206 267.498 133.558 270.164 133.21C272.83 132.824 275.11 130.776 275.767 128.148C276.115 126.718 276.038 125.018 275.96 123.434C275.806 120.574 275.69 117.637 277.931 115.821C278.936 115.01 280.172 114.662 281.332 114.353C281.757 114.237 282.182 114.121 282.568 114.005C283.843 113.58 285.312 112.614 285.35 111.261C285.35 110.914 285.273 110.566 285.196 110.179C285.119 109.909 285.08 109.638 285.041 109.368C284.848 107.861 285.582 106.315 287.051 105.349C288.48 104.383 290.219 104.229 291.533 105.001C292.654 105.658 293.388 106.702 294.122 107.745C294.972 108.943 295.745 110.064 296.982 110.334C297.793 110.527 298.528 110.218 298.953 109.909C299.88 109.291 300.653 108.131 300.923 106.972C301.232 105.542 301.039 104.074 300.846 102.528C300.769 101.871 300.691 101.176 300.653 100.519C300.653 99.9392 300.653 99.3209 300.885 98.7799C301.658 97.2342 303.628 97.3115 305.097 97.3501C308.806 97.5047 312.284 95.8431 314.062 93.1381C315.994 90.2013 315.685 86.1052 313.366 83.8639C312.671 83.207 311.821 82.666 310.97 82.1636C310.082 81.6226 309.154 81.0816 308.381 80.3088C306.604 78.5699 305.947 75.7876 306.681 73.044C307.299 70.7641 308.729 68.9479 310.545 68.0591C309.038 67.1703 308.034 65.7792 307.763 64.2722C307.57 63.1129 307.918 61.8763 308.69 60.9489C309.347 60.1374 310.236 59.6737 311.202 59.6737H311.28C312.207 59.6737 313.096 60.0601 313.907 60.4466C314.912 60.9103 315.762 61.2967 316.574 60.9489C317.23 60.6784 317.733 60.0215 318.119 58.7849C318.312 58.2439 318.467 57.7029 318.583 57.1233C318.969 55.6935 319.394 54.2251 320.245 52.9113C321.52 50.9791 324.225 49.7812 326.196 50.9791C326.698 51.2883 327.084 51.7133 327.471 52.1384C327.664 52.3316 327.857 52.5635 328.05 52.7181C330.098 54.6502 333.499 54.1865 335.663 52.7953C337.866 51.3656 339.373 49.047 340.648 46.6512C340.03 45.9943 339.411 45.3373 338.87 44.5645C337.711 42.9801 336.629 41.1253 335.624 39.3477C332.765 34.3629 330.06 29.6871 325.345 30.0349C324.727 30.1122 324.263 29.6485 324.186 29.1075C323.993 27.4845 324.611 25.7842 325.886 24.5477C326.93 23.543 328.244 22.9633 329.557 22.886C329.712 22.1518 329.828 21.1858 329.905 20.2583C329.983 19.2536 330.06 18.2103 330.292 17.2829C326.157 16.0077 321.481 19.3309 318.969 21.5335L318.003 22.3837C314.487 25.4751 310.584 29.0302 305.599 28.9143C303.319 28.9143 301.232 28.0641 299.223 27.2913C298.489 27.0208 297.793 26.7503 297.059 26.4798C288.674 23.6589 278.472 26.5571 272.792 33.3582C271.826 34.5174 270.898 35.7926 269.893 37.1451C266.222 42.1686 262.049 47.8877 255.789 46.6512C253.277 46.1488 251.306 44.6031 249.452 43.0961C248.176 42.0527 246.94 41.0867 245.587 40.4297C242.225 38.884 238.67 40.3138 236.429 42.2073C234.188 44.1008 232.178 47.3854 233.183 50.9405C233.338 51.4815 233.531 52.0611 233.685 52.6408" fill="#731DB9"/>
<path d="M629.731 539.73C629.576 538.107 629.808 536.445 630.04 534.822C630.349 532.426 630.658 530.185 629.808 528.137C629.692 527.828 629.576 527.673 629.46 527.635C629.228 527.557 628.803 527.905 628.649 527.982L624.862 530.919C624.862 530.919 624.552 531.074 624.359 530.996C624.166 530.958 624.05 530.803 624.011 530.649C623.316 528.214 622.35 526.978 621.152 526.939C621.152 526.939 621.075 526.939 621.036 526.939C619.684 526.939 618.64 528.407 617.79 529.76C616.36 532.04 614.699 533.044 613.114 532.581C611.569 532.117 611.028 530.687 610.487 529.258C610.139 528.33 609.791 527.364 609.173 526.784C608.013 525.702 606.159 525.896 604.342 526.127L603.647 526.205C600.362 526.553 598.198 525.78 597.696 524.157C597.232 524.041 596.807 523.732 596.537 523.307C595.764 522.147 595.88 520.254 596.266 519.017C596.614 517.858 596.73 516.351 596.266 515.578C596.073 515.308 595.841 515.114 595.532 515.076C594.72 514.921 593.986 515.694 593.252 516.544C593.059 516.776 592.827 517.008 592.634 517.201C591.165 518.67 588.847 519.172 586.528 518.554C584.248 517.935 582.509 516.274 582.007 514.264C581.582 512.525 581.891 510.786 582.162 509.086C582.471 507.347 582.78 505.686 582.278 504.101C581.775 502.478 580.539 501.59 579.573 501.126C577.872 500.276 575.747 500.121 573.969 500.739C570.453 501.976 568.134 505.376 566.859 508.004C566.782 508.197 566.589 508.275 566.395 508.313C566.202 508.313 566.009 508.236 565.893 508.081L563.188 504.256C563.188 504.256 562.879 503.831 562.686 503.792C562.57 503.792 562.338 503.869 562.183 503.947C560.097 504.835 557.971 505.763 556.31 507.347C554.571 509.009 553.798 511.289 554.3 513.105C554.455 513.723 554.764 514.303 555.112 514.921C555.653 515.964 556.194 517.008 556.117 518.244C555.962 521.22 552.484 522.65 549.161 522.804H549.045C546.34 522.92 543.287 522.997 542.089 525.123C540.119 528.601 545.451 532.426 546.533 533.16C548.736 534.629 553.605 538.493 551.595 542.551C551.364 543.014 551.093 543.401 550.784 543.787C550.243 544.521 549.779 545.178 549.895 545.874C549.934 546.26 550.127 546.569 550.436 546.801C551.286 547.419 552.948 547.381 554.223 547.11C554.378 547.11 554.532 547.11 554.648 547.188C554.764 547.265 554.841 547.42 554.88 547.574C555.151 550.163 555.46 553.061 556.773 555.457C557.894 557.505 560.329 559.553 562.995 559.205C563.227 559.205 563.459 559.128 563.652 559.09C564.309 558.974 565.004 558.819 565.739 559.012C567.748 559.553 567.864 561.717 567.98 563.611C568.057 564.886 568.134 566.2 568.714 567.089C569.912 565.736 571.844 565.041 573.622 565.427C575.631 565.852 577.254 567.63 577.563 569.639C578.027 572.846 575.592 575.126 573.274 577.329C572.346 578.179 571.419 579.068 570.685 579.995C569.719 581.232 568.946 582.739 568.25 584.207C567.477 585.792 566.666 587.337 565.545 588.651C566.782 589.849 567.748 591.395 568.405 592.902C569.719 595.955 572.578 599.896 575.013 601.287C575.94 599.432 576.906 597.616 577.95 595.839C578.684 594.602 579.495 593.327 580.886 592.747C581.814 592.361 582.78 592.361 583.553 592.399C588.46 592.709 593.02 595.877 595.146 600.282L600.092 596.766C600.478 596.457 601.715 595.607 602.797 596.264C603.454 596.689 603.57 597.423 603.685 598.003C603.685 598.196 603.763 598.389 603.801 598.582C604.188 599.741 605.695 600.244 606.816 599.973C608.245 599.626 609.25 598.389 609.868 597.423C611.066 595.529 611.723 593.25 612.303 591.008C612.457 590.506 612.573 589.965 612.728 589.463C613.462 586.912 614.621 583.743 617.133 581.811C619.22 580.188 622.466 579.725 624.668 581.232C624.746 580.652 624.862 580.034 624.978 579.454C626.291 573.696 629.846 568.673 632.977 564.229C635.488 560.635 638.116 556.964 641.246 553.757C635.488 550.086 630.233 545.835 629.692 539.73" fill="#1DAF9D"/>
<path d="M444.672 499.079C445.947 498.538 447.067 497.224 447.415 495.833C447.763 494.364 447.647 492.857 447.531 491.273C447.454 490.229 447.377 489.147 447.454 488.065C447.57 485.863 448.652 483.66 450.313 482.617C449.734 480.646 450.313 478.598 450.97 476.666C451.395 475.352 451.82 473.961 451.859 472.608C451.859 471.836 451.743 471.063 451.627 470.251C451.511 469.556 451.395 468.86 451.395 468.165C451.357 466.928 451.704 465.421 452.632 464.416C451.936 463.953 451.357 462.987 450.932 461.518C450.352 459.663 449.772 458.118 448.497 457.886C447.261 457.654 446.295 458.736 445.213 459.856C444.092 461.054 442.778 462.368 441.078 462.252C439.03 462.059 438.102 460.011 437.252 458.195C436.325 456.147 435.629 454.872 434.315 454.988C433.195 455.065 432.461 456.185 431.61 457.345C430.683 458.697 429.64 460.243 427.823 459.972C425.737 459.663 425.157 457.229 424.925 455.413C424.771 454.176 424.152 452.128 422.684 452.167C422.027 452.205 421.486 452.746 420.906 453.326C420.288 453.906 419.631 454.601 418.665 454.794C417.97 454.949 417.235 454.794 416.617 454.292C415.728 453.635 415.071 452.476 414.917 451.278C414.84 450.466 414.878 449.693 414.917 448.921C414.955 448.032 415.033 447.22 414.878 446.409C414.144 442.622 409.468 441.153 405.024 440.187C402.706 439.685 395.132 437.676 395.402 432.034C395.596 428.363 399.344 425.967 402.976 425.465C404.599 425.233 406.261 425.31 407.884 425.349C409.314 425.349 410.782 425.426 412.212 425.271L402.126 410.78C401.199 409.428 400.001 407.728 399.808 405.796C399.614 403.825 400.812 401.506 402.86 401.197C403.131 401.197 403.401 401.159 403.672 401.159C404.213 401.159 404.677 401.159 404.908 400.888C405.024 400.733 405.102 400.618 405.063 400.424C404.947 399.883 404.251 399.188 403.517 398.879C401.392 397.951 400.503 396.831 400.89 395.555C401.237 394.435 402.513 394.048 402.938 393.932C403.942 393.623 404.947 393.43 405.913 393.237C407.266 392.966 408.541 392.696 409.777 392.193C411.748 391.343 413.564 389.411 413.255 387.363C413.178 386.899 413.023 386.436 412.869 385.895C412.676 385.238 412.482 384.542 412.405 383.847C412.096 381.992 409.893 380.717 407.961 380.33C406.3 379.982 404.174 380.098 403.208 381.528C402.938 381.915 402.744 382.34 402.551 382.765C402.242 383.383 401.933 384.04 401.469 384.581C400.58 385.586 399.344 386.088 398.223 386.552L387.674 390.686C386.824 391.034 385.819 391.421 385.162 392.078C384.698 392.541 384.389 393.121 384.041 393.7C383.655 394.396 383.269 395.092 382.689 395.633C381.568 396.676 380.1 396.985 378.632 397.294C378.245 397.372 377.859 397.449 377.472 397.526C375.927 397.913 374.304 398.956 374.342 400.386C374.342 400.618 374.419 400.811 374.458 401.043C374.535 401.429 374.613 401.815 374.574 402.279C374.381 403.825 372.874 404.289 371.56 404.714C370.787 404.945 370.014 405.177 369.473 405.602C368.816 406.143 368.507 406.994 368.198 407.921C367.928 408.771 367.618 409.66 367.039 410.355C366.305 411.244 365.223 411.708 363.986 411.708C362.015 411.708 359.697 410.51 358.19 408.732C357.649 408.076 357.108 407.341 356.644 406.646C355.291 404.752 354.055 402.975 352.084 402.24C351.852 402.163 351.62 402.086 351.389 402.009C350.886 401.854 350.345 401.699 349.881 401.39C348.645 400.656 348.104 399.226 347.64 398.106C346.751 395.903 345.824 393.816 344.201 392.309C342.771 390.996 340.375 390.029 338.366 391.034C338.134 391.15 337.902 391.305 337.67 391.421C337.129 391.768 336.55 392.116 335.854 392.232C334.386 392.425 332.956 391.421 331.719 389.257C329.208 384.929 327.276 380.253 325.923 375.423C325.653 374.457 325.382 373.49 324.725 372.988C323.257 371.829 320.9 373.336 319.663 374.341C318.658 375.152 317.654 376.041 317.576 377.162C317.499 378.244 318.311 379.171 319.161 380.137C320.088 381.219 321.093 382.34 321.016 383.847C320.938 385.47 319.74 386.474 318.581 387.44C318.001 387.943 317.383 388.445 316.997 389.025C316.224 390.068 315.992 391.421 315.76 392.812C315.683 393.314 315.606 393.778 315.49 394.241C315.065 396.29 313.789 398.531 311.548 398.724C310.93 398.763 310.35 398.647 309.809 398.531C309.345 398.415 308.92 398.338 308.495 398.376C307.452 398.415 306.795 399.342 306.525 400.115C306.254 400.888 306.254 402.009 307.066 402.666C307.297 402.859 307.529 402.975 307.8 403.129C308.186 403.361 308.573 403.554 308.92 403.902C309.616 404.559 309.886 405.525 309.693 406.568C309.461 407.882 308.495 409.158 307.297 409.698C306.061 410.278 304.67 410.278 303.395 410.124C304.09 410.742 304.708 411.399 305.327 412.133C307.684 415.031 309.268 418.509 310.853 421.871C313.248 427.088 315.528 431.995 320.204 434.43C321.441 435.087 322.793 435.512 324.223 435.937C325.15 436.246 326.116 436.516 327.005 436.903C333.961 439.646 339.139 446.254 340.144 453.674C340.221 454.137 340.259 454.562 340.298 455.026C340.453 456.456 340.569 457.77 341.148 458.89C342.501 461.557 345.669 462.33 349.07 463.18C351.389 463.759 353.784 464.339 355.794 465.576C359.697 467.971 361.513 472.299 363.252 476.473C365.029 480.723 366.691 484.742 370.362 486.52C372.217 487.409 374.304 487.602 376.545 487.834C378.709 488.027 380.989 488.259 383.075 489.147C386.399 490.577 388.833 493.514 391.19 496.374C394.204 500.006 396.793 503.136 400.658 502.827C405.488 499.04 410.125 499.079 416.463 500.392C422.104 501.59 427.205 504.257 432.151 506.962C432.924 503.948 434.702 500.74 437.02 499.581C438.373 498.885 439.803 498.924 441.155 499.658C441.348 499.774 441.503 499.89 441.696 500.006V499.542C441.696 499.542 441.812 499.156 442.005 499.079C442.16 499.001 442.392 499.001 442.546 499.079C443.396 499.581 444.208 499.426 444.787 499.195" fill="#FFC100"/>
<path d="M735.922 556.424C724.484 546.03 712.659 535.248 698.516 528.37C694.961 526.631 691.213 525.163 687.58 523.694C683.948 522.226 680.161 520.719 676.567 518.98C671.467 516.507 666.598 513.493 661.883 510.594C660.492 509.744 659.062 508.856 657.671 508.005C636.997 495.524 613.232 484.82 584.985 475.237C579.575 473.42 573.894 470.793 572.812 465.383C571.769 460.089 575.633 456.263 579.381 452.553C582.396 449.539 585.526 446.448 585.951 442.7C586.492 437.753 581.855 433.425 577.217 432.227C572.039 430.875 566.436 432.189 561.529 433.309C550.67 435.821 536.411 439.067 523.62 435.783C523.041 435.976 522.5 436.362 522.075 436.98C521.456 437.869 521.186 438.951 520.915 440.11C520.49 442.081 520.104 444.091 519.795 446.023C519.447 448.187 519.292 450.583 520.722 452.012C521.147 452.437 521.688 452.747 522.268 453.094C523.157 453.635 524.084 454.176 524.625 455.142C525.089 455.993 525.127 456.997 524.702 457.963C524.123 459.354 522.693 460.591 521.147 461.055C519.949 461.403 518.713 461.48 517.515 461.518C516.394 461.596 515.312 461.634 514.269 461.905C512.994 462.253 511.796 463.219 511.293 464.301C510.984 464.958 510.946 465.615 511.216 466.194C511.525 466.89 512.221 467.392 512.916 467.933C513.187 468.126 513.419 468.32 513.689 468.513C515.583 470.058 516.742 472.454 516.819 474.889C516.819 474.889 516.819 474.927 516.819 474.966C518.056 475.043 519.254 475.468 520.181 476.241C522.036 477.748 522.77 480.492 521.997 482.733C521.92 482.926 521.843 483.12 521.765 483.313C521.611 483.661 521.495 483.97 521.418 484.317C521.109 486.134 523.157 487.718 525.282 488.22C525.784 488.336 526.248 488.452 526.75 488.53C528.605 488.916 530.499 489.302 531.851 490.694C533.667 492.587 533.513 495.253 533.358 497.804C533.242 500.084 533.126 502.248 534.247 503.871C536.102 506.537 540.082 506.305 544.062 505.687C546.999 505.223 552.023 504.991 554.109 508.237C554.496 507.542 554.998 506.923 555.578 506.344C557.355 504.643 559.712 503.639 561.76 502.75C562.031 502.634 562.456 502.441 562.92 502.557C563.499 502.673 563.886 503.175 564.079 503.484L566.282 506.614C568.252 503.02 570.764 500.586 573.624 499.62C575.672 498.886 578.068 499.079 580.077 500.045C581.7 500.856 582.859 502.132 583.323 503.677C583.903 505.494 583.593 507.348 583.246 509.165C582.937 510.826 582.666 512.372 583.052 513.879C583.478 515.502 584.907 516.854 586.801 517.395C588.694 517.936 590.626 517.511 591.824 516.313C592.018 516.12 592.211 515.927 592.404 515.695C593.293 514.729 594.259 513.647 595.689 513.918C596.307 514.034 596.809 514.381 597.157 514.922C597.853 516.082 597.698 517.898 597.312 519.25C597.002 520.371 596.925 521.878 597.427 522.651C597.621 522.921 597.853 523.076 598.2 523.115C598.471 523.115 598.664 523.346 598.703 523.578C598.935 525.472 602.76 525.163 603.533 525.085L604.229 525.008C606.199 524.776 608.402 524.506 609.948 525.974C610.759 526.747 611.146 527.829 611.532 528.872C611.996 530.147 612.382 531.229 613.425 531.539C614.894 531.964 616.208 530.225 616.903 529.181C617.676 527.984 619.029 525.781 621.27 525.858C623.395 525.974 624.439 528.215 624.902 529.607L628.071 527.133C628.38 526.902 629.114 526.322 629.926 526.592C630.506 526.786 630.776 527.327 630.931 527.713C631.858 530.032 631.549 532.543 631.201 534.978C631.008 536.524 630.776 538.147 630.892 539.654C631.433 545.643 636.959 549.662 642.176 552.985C642.91 552.29 643.605 551.555 644.417 550.899C649.595 546.648 655.662 544.6 661.11 545.257C661.265 545.257 661.381 545.334 661.497 545.373C662.154 545.759 662.579 546.377 662.733 547.189C662.888 548.232 662.501 549.43 661.729 550.28C661.265 550.783 660.763 551.13 660.299 551.478C659.797 551.826 659.333 552.174 659.024 552.599C658.405 553.41 658.676 554.531 659.101 555.227C659.526 555.922 660.338 556.695 661.381 556.54C669.921 555.188 678.268 557.313 686.383 559.323C690.981 560.482 695.773 561.68 700.487 562.221C702.033 562.414 703.81 562.607 705.395 563.535C709.066 565.699 709.529 570.22 709.916 574.239C709.993 574.973 710.032 575.668 710.148 576.364C711.5 587.223 721.47 596.458 732.406 596.999C733.41 597.038 734.531 596.999 735.381 596.535C737.12 595.531 737.12 593.405 736.888 590.005C736.811 588.768 736.734 587.454 736.811 586.218C737.082 582.933 738.859 580.151 740.598 577.485C742.221 574.973 743.767 572.616 744.037 569.911C744.54 564.887 740.482 560.443 736.038 556.386" fill="#A658E5"/>
<path d="M53.6476 150.254C54.3818 149.674 55.1161 149.056 55.8503 148.438C57.6278 146.892 59.444 145.308 61.7239 144.496C64.6221 143.453 67.7135 143.801 70.7276 144.149C71.8869 144.264 73.0462 144.419 74.2055 144.458C78.3016 144.612 82.8614 142.951 83.5569 139.357C83.982 137.116 82.8614 135.029 81.6248 132.826C80.6588 131.049 79.654 129.233 79.4222 127.223C79.229 125.6 79.5768 123.939 79.8859 122.316C80.2337 120.461 80.5815 118.645 80.1178 117.137C79.9632 117.137 79.8086 117.137 79.654 117.099C79.3449 116.983 79.0744 116.751 78.9585 116.403C78.1083 113.969 75.983 111.959 73.2007 110.993C70.4185 110.066 67.4817 110.375 65.3563 111.805C64.854 112.153 64.3516 112.539 63.8106 112.964C61.7626 114.548 59.444 116.365 56.739 115.321C56.1208 115.089 55.6184 114.703 55.1547 114.394C54.6523 114.046 54.2273 113.698 53.7636 113.621C52.9134 113.466 52.1019 114.162 50.9427 115.205C50.5949 115.514 50.2471 115.824 49.938 116.094C46.692 118.683 41.5912 118.413 38.5384 115.63C34.2877 117.678 29.8825 120.267 28.9551 124.557C28.4914 126.682 29.2642 129.001 30.9258 130.856C32.6261 132.672 34.906 133.599 37.0314 133.29C37.4178 133.251 37.7656 133.367 37.9974 133.676C38.2293 133.986 38.3066 134.333 38.2293 134.681C36.0653 141.869 39.6204 150.331 46.1896 153.964C48.8946 153.191 51.445 151.954 53.6863 150.254" fill="#001033"/>
<path d="M195.816 253.041C193.884 251.65 191.797 249.795 191.874 247.631C191.797 247.747 191.681 247.863 191.527 247.863C191.256 247.863 190.947 247.709 190.908 247.4C190.715 246.124 189.015 245.429 187.508 245.622C186.812 245.699 186.155 245.893 185.46 246.086C184.532 246.356 183.528 246.627 182.484 246.627C181.248 246.627 180.011 246.047 179.277 245.158C178.736 244.501 178.543 243.767 178.697 242.994C178.89 242.067 179.509 241.41 180.088 240.869C180.32 240.637 180.513 240.444 180.707 240.212C182.523 237.971 181.595 234.493 179.547 232.6C177.19 230.397 173.674 229.856 171.278 229.624C168.148 229.315 164.979 229.354 161.888 229.779L161.347 229.856C159.878 230.049 158.333 230.281 156.826 229.895C155.203 229.508 153.811 228.503 152.498 227.576C152.034 227.267 151.609 226.919 151.145 226.61C150.372 226.108 147.706 224.562 145.697 225.76C144.537 226.455 143.958 227.846 143.378 229.315C142.644 231.092 141.91 232.909 140.055 233.527C137.891 234.261 135.92 232.87 134.026 231.556C132.249 230.32 130.549 229.122 129.003 230.01C128.423 230.32 128.037 230.899 127.573 231.479C127.264 231.904 126.955 232.329 126.568 232.677C125.177 233.991 123.284 234.3 121.468 234.57C120.038 234.802 118.685 234.995 117.565 235.652C116.599 236.232 115.826 237.121 115.053 238.087C114.628 238.589 114.203 239.13 113.701 239.594C112.232 241.062 109.798 242.106 107.943 240.946C107.325 240.56 106.861 239.98 106.397 239.439C105.586 238.512 105.083 237.932 104.349 238.125C103.499 238.357 103.344 239.632 103.267 241.101V241.217C103.074 244.772 100.755 248.211 97.548 249.757C97.3548 249.834 97.1615 249.95 96.9683 250.027C96.3114 250.336 95.6931 250.607 95.2681 251.071C94.5338 251.921 94.5338 253.235 94.6111 254.626C94.843 258.76 94.6884 262.973 92.1767 265.987C89.974 268.576 86.7667 269.426 83.4048 269.426C80.7771 269.426 78.0721 268.885 75.6377 268.305C75.4058 271.319 72.9713 273.677 70.8073 275.763L70.1118 276.459C66.9431 279.589 64.5086 283.414 63.0402 287.626C62.7311 288.515 62.6151 289.481 63.0402 289.79C63.3107 289.984 63.9676 289.906 64.3927 289.868C76.7969 288.438 90.5923 286.119 97.3547 276.111C98.4367 274.527 99.3255 272.71 100.214 270.972C102.108 267.185 104.079 263.282 107.827 261.04C108.6 260.577 109.45 260.19 110.261 259.842C111.807 259.147 113.314 258.49 114.164 257.292C114.628 256.635 114.937 255.824 115.246 254.974C115.401 254.51 115.594 254.046 115.787 253.582C118.26 247.825 124.25 245.661 130.046 243.574C132.558 242.647 135.147 241.719 137.388 240.483C142.064 237.932 146.624 240.792 151.029 243.535C153.155 244.888 155.396 246.279 157.56 247.013C159.183 247.554 160.883 247.863 162.661 248.172C163.897 248.404 165.211 248.598 166.486 248.945C173.712 250.761 179.586 255.476 185.266 260.036C189.981 263.823 194.85 267.687 200.376 269.851C202.076 270.508 203.892 271.049 205.631 271.551C207.834 272.169 210.036 272.826 212.123 273.754C208.761 265.639 203.003 258.335 195.854 253.196" fill="#002068"/>
<path d="M75.6373 266.992C75.6373 266.992 75.6373 267.069 75.6373 267.147C80.8154 268.46 87.7324 269.504 91.3262 265.253C93.6061 262.548 93.722 258.568 93.5288 254.665C93.4515 253.042 93.4515 251.458 94.4562 250.298C95.0358 249.642 95.8087 249.294 96.5429 248.985C96.7361 248.907 96.8907 248.83 97.0839 248.753C99.9434 247.362 101.991 244.309 102.185 241.14C102.262 239.517 102.378 237.469 104.078 237.005C105.469 236.619 106.397 237.701 107.208 238.667C107.633 239.169 108.058 239.672 108.522 239.942C109.875 240.792 111.729 239.942 112.927 238.744C113.391 238.319 113.777 237.817 114.203 237.315C115.014 236.349 115.864 235.344 116.985 234.648C118.299 233.875 119.806 233.644 121.274 233.412C123.013 233.141 124.636 232.909 125.757 231.827C126.066 231.518 126.336 231.132 126.645 230.745C127.148 230.088 127.65 229.432 128.384 228.968C130.51 227.77 132.596 229.2 134.567 230.591C136.306 231.827 137.968 232.987 139.591 232.407C140.982 231.943 141.6 230.398 142.257 228.813C142.914 227.229 143.571 225.606 145.039 224.717C147.512 223.249 150.488 224.833 151.647 225.606C152.111 225.915 152.575 226.263 153.038 226.611C154.313 227.538 155.511 228.427 156.941 228.775C158.255 229.084 159.685 228.891 161.076 228.697C160.999 227.924 160.921 226.958 160.844 225.876C160.612 222.437 160.264 217.761 159.337 215.984C158.216 213.82 155.936 211.463 152.961 211.347C152.729 211.347 152.497 211.347 152.265 211.347C151.338 211.347 150.295 211.347 149.444 210.69C148.633 210.033 148.44 209.028 148.247 208.139C146.74 201.145 142.257 194.962 136.19 191.407C135.726 192.257 134.954 192.914 133.987 193.378C132.519 194.035 130.742 194.074 129.273 193.455C127.109 192.567 125.37 190.596 124.018 187.582C122.163 183.408 121.622 178.848 121.081 174.443C120.617 170.772 121.39 168.454 123.284 167.565C126.066 166.29 128.693 168.956 130.316 171.97C130.973 172.163 131.746 171.197 132.133 170.656C135.379 165.555 136.654 160.841 135.92 156.668C135.031 151.683 131.36 147.703 127.805 143.877C127.264 143.259 126.684 142.679 126.143 142.061C120.579 135.917 118.492 130.275 119.96 125.329C120.772 122.662 122.549 120.46 124.288 118.373C125.37 117.059 126.491 115.707 127.341 114.277C130.007 109.756 130.162 104.037 130.085 99.1676C127.959 98.3947 125.988 97.0036 124.366 95.1101C121.197 91.4391 119.612 86.261 120.192 81.5852C120.269 80.8897 120.385 80.1941 120.54 79.4985C120.888 77.6051 121.197 75.7889 120.772 74.1272C120.463 72.968 119.419 71.886 118.26 71.4995C117.564 71.2677 116.985 71.345 116.521 71.77C115.826 72.3497 115.632 73.3157 115.362 74.475C115.207 75.1706 115.053 75.8661 114.782 76.5617C113.623 79.4213 110.879 80.8124 108.252 82.1262C107.401 82.5513 106.59 82.9764 105.778 83.4401C104.001 84.5221 102.61 86.7633 102.61 88.5023C102.61 89.3524 102.919 89.9707 103.576 90.3957C104.31 90.8594 104.542 91.4777 104.581 91.9028C104.696 93.1393 103.614 94.2213 102.455 95.342C101.914 95.883 101.335 96.424 101.025 96.8877C95.7314 104.655 88.853 111.495 81.0472 116.711C81.7042 118.527 81.3177 120.614 80.9313 122.624C80.6222 124.169 80.313 125.754 80.5063 127.183C80.6995 129 81.6655 130.7 82.5543 132.362C83.7909 134.641 85.1047 136.999 84.5637 139.626C83.7522 143.8 78.6514 145.809 74.0916 145.577C72.8937 145.539 71.6958 145.384 70.5365 145.268C67.5224 144.92 64.7015 144.573 62.0351 145.577C59.9484 146.35 58.2868 147.78 56.5093 149.326C55.775 149.944 55.0408 150.601 54.268 151.18C52.1426 152.803 49.7468 154.04 47.1964 154.89C47.2351 155.006 47.3123 155.122 47.3123 155.238C47.351 155.586 47.1964 155.972 46.9259 156.204L42.2502 160.184L44.646 165.787C44.8006 166.174 44.7233 166.637 44.4528 166.947C44.1437 167.256 43.7186 167.372 43.2935 167.217C40.2408 166.174 36.5311 167.488 34.8308 170.231C34.5603 170.695 34.3285 171.159 34.0966 171.661C33.7102 172.511 33.2851 173.361 32.6282 174.134C30.4642 176.762 26.9091 177.11 23.779 177.38C23.2767 177.419 22.7357 177.457 22.2333 177.535C19.4511 177.844 15.6641 179.544 15.9346 182.326C16.0892 183.833 17.403 184.993 18.7555 186.229C20.2626 187.582 21.8469 188.973 22.272 191.098C22.5811 192.451 22.272 193.764 22.0401 195.04C21.8469 196.006 21.6537 196.933 21.731 197.783C22.1174 201.184 26.5227 202.498 30.4256 203.618L30.7733 203.734C33.6715 204.584 37.1494 206.98 38.1541 209.917C38.6951 211.463 38.5018 213.008 37.5744 214.322C36.3379 216.138 35.024 218.032 32.8987 218.728C32.86 219.81 33.0919 220.93 33.517 221.935C33.6329 222.205 33.6329 222.514 33.517 222.824C33.401 223.094 33.1692 223.326 32.8987 223.442C31.0438 224.137 29.1117 224.833 27.7592 226.147C26.6386 227.229 25.9044 229.161 26.7159 230.591C26.9477 230.977 27.2569 231.325 27.6047 231.75C28.3389 232.6 29.189 233.528 29.2276 234.919C29.2276 236.155 28.5321 237.083 27.9524 237.933C27.566 238.474 27.1796 238.976 27.0637 239.44C26.9477 240.02 27.1796 240.754 27.4501 241.411C29.189 245.623 32.3963 249.101 35.4877 252.424C37.3812 254.51 39.6611 256.559 41.9797 256.018C42.3661 255.94 42.7912 256.056 43.0617 256.365C46.7713 260.732 51.7562 262.857 57.0502 262.355C58.3641 262.239 59.6393 261.969 60.9918 261.659C62.9239 261.234 64.9333 260.848 67.02 260.848C70.7683 260.925 75.019 263.128 75.5214 267.108" fill="#034168"/>
<path d="M235.193 368.04C234.343 367.615 233.029 367.693 232.063 368.156C231.135 368.581 230.362 369.238 229.551 369.973C229.049 370.398 228.508 370.861 227.928 371.248C224.605 373.566 220.315 373.76 217.379 373.682H217.147C216.838 373.682 216.528 373.682 216.219 373.682C214.905 373.682 213.592 373.798 212.626 374.494C211.93 374.996 211.466 375.846 211.35 376.812C211.273 377.778 211.544 378.706 212.123 379.324C213.669 380.986 216.49 380.638 218.924 380.329H219.349C221.822 379.981 224.334 379.942 226.807 380.251H227.232C228.353 380.445 229.396 380.561 230.401 380.251C231.754 379.865 232.913 378.629 233.918 376.58V376.503C234.768 374.88 236.661 371.093 236.197 369.277C236.043 368.697 235.695 368.272 235.154 368.002" fill="#FF585D"/>
<path d="M306.798 408.54C307.686 408.154 308.382 407.188 308.575 406.222C308.652 405.758 308.652 405.062 308.111 404.56C307.88 404.328 307.57 404.135 307.223 403.98C306.914 403.826 306.604 403.633 306.334 403.439C305.291 402.628 304.943 401.16 305.407 399.691C305.87 398.223 307.029 397.257 308.343 397.218C308.884 397.218 309.425 397.295 309.928 397.411C310.43 397.527 310.894 397.604 311.357 397.566C312.98 397.411 313.985 395.518 314.333 393.933C314.449 393.47 314.526 393.006 314.603 392.542C314.835 391.074 315.106 389.528 316.033 388.292C316.536 387.635 317.192 387.055 317.811 386.553C318.815 385.703 319.782 384.852 319.859 383.732C319.897 382.65 319.125 381.761 318.274 380.795C317.308 379.713 316.342 378.554 316.42 377.047C316.497 375.501 317.733 374.38 318.893 373.453C320.825 371.907 322.525 371.25 323.878 371.443C327.974 366.459 328.206 358.537 324.303 353.359L323.994 352.934C323.337 352.045 322.602 351.156 322.486 349.997C322.371 349.069 322.641 348.026 323.337 346.944C324.96 344.316 327.626 342.616 330.254 340.993C333.268 339.138 336.089 337.361 337.248 334.308C338.523 330.907 336.707 326.618 333.422 325.111L332.959 324.918C332.07 324.531 331.026 324.106 330.563 323.102C329.906 321.633 330.949 320.126 331.761 319.121C334.852 315.412 338.137 311.779 341.537 308.302C341.576 308.224 341.653 308.186 341.73 308.108C341.074 307.451 340.648 306.563 340.533 305.519C340.378 304.012 340.919 302.621 342.001 301.848C342.503 301.462 343.083 301.23 343.624 300.998C344.242 300.728 344.783 300.496 345.247 300.109C345.865 299.53 345.981 298.796 346.02 298.255C346.02 297.327 345.672 296.322 345.015 295.665C343.585 294.158 341.305 294.004 340.107 294.043H339.876C338.755 294.081 337.441 294.12 336.436 293.617C336.127 294.39 335.548 295.009 334.698 295.434C334.002 295.743 333.152 295.936 332.302 295.936C330.988 295.936 329.635 295.588 328.515 294.893C327.781 294.429 327.046 293.888 326.351 293.347C324.65 292.033 323.066 290.835 321.134 290.797C320.4 290.797 319.627 290.912 318.854 291.067C317.231 291.376 315.531 291.685 314.178 290.565C313.135 289.715 312.903 288.439 312.633 287.203C312.517 286.546 312.401 285.966 312.169 285.425C311.744 284.382 310.932 283.532 310.044 282.643C309.619 282.218 309.232 281.831 308.846 281.368C307.532 279.822 306.72 277.426 307.996 275.765C308.421 275.185 309.039 274.837 309.619 274.451C310.353 273.987 310.971 273.601 311.126 272.982C311.319 272.094 310.585 271.437 309.309 270.471C308.884 270.161 308.459 269.814 308.073 269.466C307.377 268.809 306.914 267.959 306.45 267.147C305.793 266.027 305.175 264.945 304.131 264.558C303.59 264.365 303.011 264.365 302.392 264.326C301.89 264.326 301.388 264.326 300.847 264.211C298.992 263.824 297.755 262.433 296.557 261.08C295.591 259.998 294.703 258.955 293.505 258.453C290.916 257.332 287.824 258.994 285.931 261.158C285.081 262.124 284.346 263.206 283.612 264.288C282.607 265.756 281.564 267.302 280.212 268.577C277.7 270.896 273.604 271.939 271.092 269.659C270.396 269.002 269.894 268.229 269.43 267.418C269.121 266.877 268.812 266.374 268.426 265.911C267.885 265.254 267.034 264.79 266.339 264.751C265.914 264.751 265.566 264.829 265.296 265.099C264.986 265.408 264.793 265.872 264.639 266.336L262.745 271.514C262.745 271.514 262.552 271.784 262.397 271.862C262.243 271.9 262.05 271.862 261.934 271.784C260.736 270.973 260.002 269.698 259.267 268.461C258.456 267.07 257.683 265.756 256.369 265.254C254.978 264.752 253.51 265.254 251.925 265.872C251.114 266.181 250.302 266.452 249.452 266.645C244.931 267.534 241.144 264.558 237.473 261.66C234.15 259.032 230.672 256.289 226.769 256.637C226.498 256.637 226.189 256.714 225.88 256.753C224.605 256.946 223.137 257.139 222.016 256.212C221.05 255.4 220.857 254.202 220.702 253.004C220.586 252.038 220.47 251.149 219.891 250.57C219.195 249.835 218.036 249.758 216.799 249.72C215.369 249.642 213.862 249.565 212.896 248.406C212.278 247.672 212.162 246.744 212.008 245.894C211.969 245.585 211.93 245.314 211.853 245.005C211.08 241.605 207.1 239.904 203.893 240.291C200.338 240.716 197.207 242.996 194.618 245.16C193.884 245.778 193.227 246.358 192.957 247.131C192.3 249.063 194.425 250.917 196.319 252.309C203.661 257.641 209.612 265.177 213.051 273.601C213.128 273.832 213.051 274.026 212.858 274.18C214.326 274.914 215.717 275.765 216.954 276.924C222.325 281.831 222.943 289.328 223.6 296.593C223.678 297.714 223.794 298.834 223.909 299.955C224.953 309.847 228.199 319.624 233.3 328.164C233.957 329.246 234.613 330.328 235.309 331.371C237.202 334.385 239.173 337.477 240.448 340.916C242.496 346.403 242.11 351.968 239.444 355.755C239.173 356.18 238.825 356.566 238.516 356.953C237.743 357.919 237.009 358.846 236.855 359.851C236.468 362.131 239.096 364.256 241.801 364.874C242.767 365.106 243.733 365.222 244.776 365.377C246.94 365.686 249.22 365.995 251.191 367.193C253.123 368.352 254.398 370.787 254.321 373.066C254.321 373.723 254.167 374.342 253.896 374.883C258.649 375.424 266.919 377.085 268.967 383.77C269.121 384.195 269.198 384.659 269.314 385.123C269.508 386.05 269.701 386.9 270.203 387.519C270.744 388.214 271.633 388.639 272.56 389.064C273.024 389.296 273.526 389.528 273.952 389.76C276.502 391.228 278.086 394.088 278.241 397.373C278.357 400.116 277.468 402.667 275.729 404.405L278.434 406.569C285.622 402.86 294.973 403.865 301.465 408.656C303.397 409.081 305.136 409.352 306.682 408.656" fill="#FF585D"/>
</g>
<defs>
<filter id="filter0_d_684_877" x="0.702098" y="0.716948" width="786.267" height="913.108" filterUnits="userSpaceOnUse" color-interpolation-filters="sRGB">
<feFlood flood-opacity="0" result="BackgroundImageFix"/>
<feColorMatrix in="SourceAlpha" type="matrix" values="0 0 0 0 0 0 0 0 0 0 0 0 0 0 0 0 0 0 127 0" result="hardAlpha"/>
<feOffset dx="13.8353" dy="12.771"/>
<feGaussianBlur stdDeviation="14.527"/>
<feComposite in2="hardAlpha" operator="out"/>
<feColorMatrix type="matrix" values="0 0 0 0 0 0 0 0 0 0 0 0 0 0 0 0 0 0 0.4 0"/>
<feBlend mode="normal" in2="BackgroundImageFix" result="effect1_dropShadow_684_877"/>
<feBlend mode="normal" in="SourceGraphic" in2="effect1_dropShadow_684_877" result="shape"/>
</filter>
</defs>
</svg>
