<svg width="30" height="25" viewBox="0 0 30 25" fill="none" xmlns="http://www.w3.org/2000/svg">
<path d="M25.4911 14.3061C25.7111 14.3061 25.8903 14.1269 25.8903 13.9069V6.99701C25.8903 6.77701 25.711 6.59776 25.4911 6.59776H23.6903C23.4703 6.59776 23.291 6.77702 23.291 6.99701V13.9057C23.291 14.1257 23.4703 14.3049 23.6903 14.3049L25.4911 14.3061ZM24.0884 7.39745H25.0906V13.5075H24.0884V7.39745ZM22.3691 14.3061C22.5891 14.3061 22.7684 14.1269 22.7684 13.9069V11.9175C22.7684 11.6975 22.5891 11.5183 22.3691 11.5183H20.5683C20.3483 11.5183 20.1691 11.6975 20.1691 11.9175V13.9069C20.1691 14.1269 20.3484 14.3061 20.5683 14.3061H22.3691ZM20.9665 12.3168H21.9687V13.5064H20.9665V12.3168ZM19.2449 5.187H17.4441C17.2241 5.187 17.0448 5.36626 17.0448 5.58625V13.9068C17.0448 14.1268 17.2241 14.3061 17.4441 14.3061H19.2449C19.4649 14.3061 19.6441 14.1268 19.6441 13.9068V5.58625C19.6441 5.36508 19.466 5.187 19.2449 5.187ZM18.8456 13.5076H17.8434V5.98562H18.8456V13.5076ZM13.9219 9.7466V13.9069C13.9219 14.1269 14.1011 14.3061 14.3211 14.3061L16.1231 14.305C16.3431 14.305 16.5223 14.1257 16.5223 13.9057V9.74663C16.5223 9.52662 16.343 9.34737 16.1231 9.34737H14.3223C14.1011 9.34737 13.9219 9.52544 13.9219 9.7466ZM14.7216 10.1459H15.7238V13.5075H14.7216V10.1459ZM7.1856 8.20076C7.19841 8.20541 7.21121 8.21007 7.22285 8.2124C7.60699 8.35674 8.02255 8.43589 8.45672 8.43589C10.4007 8.43589 11.9826 6.85396 11.9826 4.90884C11.9826 2.96491 10.4007 1.38179 8.45672 1.38179C6.51279 1.38179 4.92967 2.96371 4.92967 4.90884C4.92967 6.38951 5.84809 7.65947 7.14484 8.18081C7.15764 8.18896 7.17163 8.1961 7.1856 8.20076ZM8.85484 2.21168C10.0398 2.38629 10.9792 3.32567 11.1538 4.51064H8.85484V2.21168ZM8.73029 5.30932H11.155C10.9606 6.6247 9.82565 7.6374 8.45673 7.6374C8.2507 7.6374 8.05048 7.61412 7.85726 7.56989L8.73029 5.30932ZM5.7283 4.91007C5.7283 3.54115 6.741 2.40624 8.05638 2.21183V4.83557L7.11117 7.28237C6.28704 6.81211 5.7283 5.92626 5.7283 4.91007ZM14.3585 3.6343C14.3585 3.4143 14.5378 3.23505 14.7577 3.23505H19.244C19.464 3.23505 19.6433 3.41431 19.6433 3.6343C19.6433 3.85429 19.464 4.03355 19.244 4.03355H14.7589C14.5378 4.03355 14.3585 3.85545 14.3585 3.6343ZM29.2826 15.5388H27.3212V1.06858C27.3212 0.479561 26.8428 0 26.2538 0H3.90667C3.31765 0 2.83809 0.479591 2.83809 1.06858V10.3368C2.83809 10.5568 3.01735 10.736 3.23734 10.736C3.45735 10.736 3.6366 10.5568 3.6366 10.3368V1.06858C3.6366 0.921906 3.75998 0.798519 3.90665 0.798519H26.255C26.4028 0.798519 26.5239 0.919579 26.5239 1.06858V15.5388H13.6681C13.4481 15.5388 13.2689 15.7181 13.2689 15.9381C13.2689 16.1581 13.4481 16.3374 13.6681 16.3374H28.8834V17.4479C28.8834 18.0601 28.3852 18.5584 27.7729 18.5584H10.778C11.3041 18.1568 11.7605 17.6469 12.112 17.0393C12.8034 15.8415 12.9874 14.447 12.63 13.1129C12.2727 11.7778 11.4159 10.6626 10.2181 9.97236C9.02149 9.28092 7.62697 9.097 6.29175 9.45436C4.95658 9.81171 3.84143 10.6684 3.14881 11.8663C2.48297 13.021 2.31419 14.3282 2.57493 15.5387H0.877768C0.657765 15.5387 0.478516 15.718 0.478516 15.938V17.4477C0.478516 18.5 1.33409 19.3567 2.38636 19.3567H2.77399C2.72277 19.4068 2.67621 19.4638 2.63896 19.529L1.02676 22.3227C0.534383 23.1748 0.826542 24.269 1.67862 24.7614C1.67862 24.7614 1.67978 24.7614 1.67978 24.7625C1.95915 24.9232 2.26528 25 2.56679 25C3.18489 25 3.78672 24.6799 4.11728 24.1083L5.7283 21.317C5.83539 21.1331 5.86332 20.9177 5.80861 20.7117C5.77136 20.572 5.69803 20.4486 5.59676 20.3509L6.14036 19.4103C6.62692 19.5558 7.12514 19.628 7.62103 19.628C8.18209 19.628 8.73967 19.536 9.26813 19.3603H27.7717C28.824 19.3603 29.6808 18.5035 29.6808 17.4513V15.9415C29.6819 15.718 29.5026 15.5388 29.2826 15.5388ZM2.3863 18.5596C1.77518 18.5596 1.27696 18.0614 1.27696 17.4491V16.3386H2.81467C3.08938 17.0417 3.51659 17.6877 4.08347 18.222L3.88791 18.5607L2.3863 18.5596ZM3.42579 23.708C3.15457 24.1783 2.54928 24.3401 2.07785 24.07C1.85086 23.9385 1.68906 23.7255 1.62037 23.4706C1.55169 23.2145 1.58661 22.9491 1.71815 22.7221L3.328 19.9307L3.49329 20.0262C3.49562 20.0274 3.49795 20.0297 3.50028 20.0308C3.50261 20.032 3.50493 20.0332 3.5061 20.0343L4.84474 20.8061C4.85056 20.8107 4.85638 20.8142 4.86337 20.8177C4.86919 20.8212 4.87385 20.8224 4.87967 20.8259L5.03565 20.9167L3.42579 23.708ZM4.91925 19.9271L4.24644 19.5383L4.71438 18.727C4.82031 18.7991 4.93089 18.869 5.04381 18.9342C5.15789 18.9993 5.27196 19.0599 5.38835 19.1158L4.91925 19.9271ZM7.6233 18.8271C6.88181 18.8271 6.12985 18.6385 5.44306 18.2428C3.35478 17.0356 2.6354 14.3548 3.84135 12.2653C4.42568 11.2526 5.36973 10.5286 6.49885 10.2259C6.87599 10.1246 7.25781 10.0746 7.63728 10.0746C8.39508 10.0746 9.14355 10.2736 9.81752 10.6636C10.8302 11.2479 11.5543 12.1908 11.8569 13.3199C12.1596 14.4491 12.0036 15.6282 11.4192 16.6411C10.6102 18.0426 9.13646 18.8271 7.6233 18.8271ZM12.6391 2.22557C12.6391 2.00556 12.8184 1.82631 13.0384 1.82631H13.263C13.483 1.82631 13.6623 2.00557 13.6623 2.22557C13.6623 2.44557 13.483 2.62482 13.263 2.62482H13.0384C12.8172 2.62482 12.6391 2.44672 12.6391 2.22557ZM14.3584 2.22557C14.3584 2.00556 14.5377 1.82631 14.7577 1.82631H19.244C19.464 1.82631 19.6432 2.00557 19.6432 2.22557C19.6432 2.44557 19.4639 2.62482 19.244 2.62482H14.7589C14.5377 2.62482 14.3584 2.44672 14.3584 2.22557ZM11.3448 13.4572C11.0782 12.4655 10.4427 11.6367 9.55335 11.1234C8.66402 10.61 7.62804 10.4727 6.63626 10.7392C5.64451 11.0046 4.8157 11.6413 4.30121 12.5307C3.24193 14.3664 3.87284 16.7222 5.70855 17.7828C6.31267 18.1309 6.97269 18.2962 7.62456 18.2962C8.95504 18.2962 10.2495 17.607 10.9606 16.3755C11.4739 15.4862 11.6102 14.4502 11.3448 13.4572ZM10.2692 15.9762C9.42995 17.4301 7.564 17.9306 6.10774 17.0914C4.65386 16.2509 4.15332 14.3838 4.99259 12.9299C5.4 12.2256 6.05651 11.7204 6.84339 11.5098C7.10647 11.4399 7.37186 11.405 7.63612 11.405C8.16342 11.405 8.68491 11.5435 9.15404 11.8147C9.85828 12.221 10.3623 12.8775 10.573 13.6632C10.7837 14.4501 10.6755 15.272 10.2692 15.9762ZM12.6392 3.63391C12.6392 3.41391 12.8185 3.23466 13.0384 3.23466H13.2631C13.4831 3.23466 13.6624 3.41392 13.6624 3.63391C13.6624 3.8539 13.4831 4.03317 13.2631 4.03317H13.0384C12.8173 4.03317 12.6392 3.85507 12.6392 3.63391Z" fill="#002068"/>
</svg>
