<svg width="361" height="357" viewBox="0 0 361 357" fill="none" xmlns="http://www.w3.org/2000/svg">
<g filter="url(#filter0_d_361_161)">
<rect x="2" y="2" width="353" height="349" rx="19.0804" fill="white"/>
<path d="M94.3356 273L86.3273 248.738H92.5711L96.3717 261.463C96.9146 263.295 97.4915 265.738 97.4915 265.738H97.5593C97.5593 265.738 98.1701 263.261 98.6791 261.463L102.446 248.738H108.52L100.545 273H94.3356ZM114.324 269.912C116.394 269.912 117.82 268.657 117.82 266.79V264.72C117.107 265.093 116.089 265.365 114.969 265.636C112.831 266.111 111.949 266.654 111.949 267.978C111.949 269.369 112.967 269.912 114.324 269.912ZM112.56 273.441C109.099 273.441 106.621 271.575 106.621 268.148C106.621 264.313 109.675 263.159 113.272 262.684C116.53 262.277 117.684 261.938 117.684 260.75C117.684 259.63 116.971 258.884 115.308 258.884C113.544 258.884 112.662 259.664 112.492 261.123H107.402C107.538 257.9 110.015 255.151 115.275 255.151C117.887 255.151 119.652 255.626 120.907 256.576C122.401 257.662 123.113 259.359 123.113 261.53V270.285C123.113 271.677 123.249 272.457 123.724 272.762V273H118.362C118.091 272.627 117.921 271.948 117.786 271.066H117.718C116.7 272.525 115.173 273.441 112.56 273.441ZM128.577 248.229C130.308 248.229 131.631 249.45 131.631 251.181C131.631 252.911 130.308 254.133 128.577 254.133C126.846 254.133 125.523 252.911 125.523 251.181C125.523 249.45 126.846 248.229 128.577 248.229ZM125.794 273V255.626H131.326V273H125.794ZM146.137 269.912C148.207 269.912 149.632 268.657 149.632 266.79V264.72C148.92 265.093 147.902 265.365 146.782 265.636C144.644 266.111 143.762 266.654 143.762 267.978C143.762 269.369 144.78 269.912 146.137 269.912ZM144.373 273.441C140.911 273.441 138.434 271.575 138.434 268.148C138.434 264.313 141.488 263.159 145.085 262.684C148.343 262.277 149.496 261.938 149.496 260.75C149.496 259.63 148.784 258.884 147.121 258.884C145.357 258.884 144.474 259.664 144.305 261.123H139.215C139.35 257.9 141.828 255.151 147.087 255.151C149.7 255.151 151.465 255.626 152.72 256.576C154.213 257.662 154.926 259.359 154.926 261.53V270.285C154.926 271.677 155.062 272.457 155.537 272.762V273H150.175C149.904 272.627 149.734 271.948 149.598 271.066H149.53C148.512 272.525 146.985 273.441 144.373 273.441ZM157.641 273V248.738H163.24V273H157.641ZM171.194 273V255.626H176.487V258.341H176.589C177.811 256.271 179.236 255.355 181.34 255.355C181.849 255.355 182.188 255.388 182.426 255.49V260.241H182.29C178.897 259.766 176.725 261.429 176.725 265.195V273H171.194ZM192.336 273.509C186.601 273.509 183.072 269.539 183.072 264.279C183.072 259.087 186.703 255.117 191.997 255.117C194.474 255.117 196.442 255.931 197.935 257.289C200.005 259.189 201.023 262.209 200.989 265.738H188.502C188.841 268.08 190.13 269.539 192.404 269.539C193.863 269.539 194.813 268.894 195.288 267.808H200.684C200.31 269.369 199.292 270.862 197.765 271.914C196.306 272.932 194.542 273.509 192.336 273.509ZM188.535 262.447H195.39C195.186 260.377 193.897 259.053 192.098 259.053C189.995 259.053 188.909 260.377 188.535 262.447ZM211.935 269.267C214.039 269.267 215.328 267.469 215.328 264.517C215.328 261.53 214.209 259.562 211.833 259.562C209.424 259.562 208.202 261.7 208.202 264.517C208.202 267.333 209.56 269.267 211.935 269.267ZM202.841 278.735V255.626H208.134V257.73H208.236C209.424 256.169 211.121 255.117 213.496 255.117C218.111 255.117 220.927 259.087 220.927 264.313C220.927 269.946 217.907 273.543 213.36 273.543C211.121 273.543 209.526 272.661 208.44 271.202H208.372V278.735H202.841ZM231.307 273.543C225.742 273.543 222.01 269.573 222.01 264.347C222.01 259.121 225.742 255.151 231.307 255.151C236.906 255.151 240.571 259.121 240.571 264.347C240.571 269.573 236.906 273.543 231.307 273.543ZM231.273 269.607C233.683 269.607 234.972 267.503 234.972 264.347C234.972 261.191 233.683 259.053 231.273 259.053C228.864 259.053 227.609 261.191 227.609 264.347C227.609 267.503 228.864 269.607 231.273 269.607ZM242.441 273V255.626H247.735V258.341H247.836C249.058 256.271 250.483 255.355 252.587 255.355C253.096 255.355 253.435 255.388 253.673 255.49V260.241H253.537C250.144 259.766 247.972 261.429 247.972 265.195V273H242.441ZM262.651 273.204C259.427 273.204 257.12 272.152 257.12 268.419V259.087H254.812V255.626H257.12V250.129H262.515V255.626H265.671V259.087H262.515V267.231C262.515 268.589 263.262 268.928 264.45 268.928C264.925 268.928 265.468 268.894 265.671 268.894V272.932C265.196 273.068 264.144 273.204 262.651 273.204ZM104.514 310.166C106.822 310.166 108.179 308.163 108.179 305.313C108.179 302.395 106.991 300.291 104.582 300.291C102.376 300.291 101.087 302.327 101.087 305.245C101.087 308.265 102.376 310.166 104.514 310.166ZM103.089 314.543C98.6436 314.543 95.4878 311.116 95.4878 305.313C95.4878 299.884 98.6097 296.117 103.089 296.117C105.532 296.117 106.923 297.135 107.941 298.594H108.043V289.738H113.574V314H108.281V311.659H108.213C107.161 313.457 105.362 314.543 103.089 314.543ZM124.701 314.509C118.966 314.509 115.437 310.539 115.437 305.279C115.437 300.087 119.068 296.117 124.362 296.117C126.839 296.117 128.807 296.931 130.3 298.289C132.37 300.189 133.388 303.209 133.354 306.738H120.866C121.206 309.08 122.495 310.539 124.769 310.539C126.228 310.539 127.178 309.894 127.653 308.808H133.049C132.675 310.369 131.657 311.862 130.13 312.914C128.671 313.932 126.907 314.509 124.701 314.509ZM120.9 303.447H127.755C127.551 301.377 126.262 300.053 124.463 300.053C122.359 300.053 121.274 301.377 120.9 303.447ZM143.248 308.944C145.657 308.944 146.777 307.044 146.777 304.6C146.777 302.259 145.555 300.291 143.248 300.291C141.178 300.291 139.821 301.988 139.821 304.634C139.821 307.247 141.178 308.944 143.248 308.944ZM143.282 320.006C138.497 320.006 135.341 318.038 134.798 314.407H140.16C140.465 315.323 141.382 316.104 143.214 316.104C145.555 316.104 146.54 314.882 146.54 312.778V311.048H146.404C145.386 312.202 144.062 313.05 141.958 313.05C138.056 313.05 134.425 310.132 134.425 304.804C134.425 299.714 137.411 296.117 141.721 296.117C144.028 296.117 145.589 297.033 146.607 298.492H146.675V296.626H151.969V312.303C151.969 314.916 151.053 316.816 149.661 318.072C148.134 319.429 145.861 320.006 143.282 320.006ZM154.659 314V289.738H160.258V314H154.659ZM165.725 289.229C167.456 289.229 168.779 290.45 168.779 292.181C168.779 293.911 167.456 295.133 165.725 295.133C163.994 295.133 162.671 293.911 162.671 292.181C162.671 290.45 163.994 289.229 165.725 289.229ZM162.942 314V296.626H168.474V314H162.942ZM184.914 314.543C179.349 314.543 175.616 310.573 175.616 305.347C175.616 300.121 179.349 296.151 184.914 296.151C190.513 296.151 194.178 300.121 194.178 305.347C194.178 310.573 190.513 314.543 184.914 314.543ZM184.88 310.607C187.289 310.607 188.579 308.503 188.579 305.347C188.579 302.191 187.289 300.053 184.88 300.053C182.471 300.053 181.215 302.191 181.215 305.347C181.215 308.503 182.471 310.607 184.88 310.607ZM196.048 314V296.626H201.341V299.341H201.443C202.665 297.271 204.09 296.355 206.194 296.355C206.703 296.355 207.042 296.388 207.28 296.49V301.241H207.144C203.75 300.766 201.579 302.429 201.579 306.195V314H196.048ZM216.952 310.166C219.26 310.166 220.617 308.163 220.617 305.313C220.617 302.395 219.429 300.291 217.02 300.291C214.814 300.291 213.525 302.327 213.525 305.245C213.525 308.265 214.814 310.166 216.952 310.166ZM215.527 314.543C211.082 314.543 207.926 311.116 207.926 305.313C207.926 299.884 211.048 296.117 215.527 296.117C217.97 296.117 219.361 297.135 220.379 298.594H220.481V289.738H226.012V314H220.719V311.659H220.651C219.599 313.457 217.801 314.543 215.527 314.543ZM231.438 289.229C233.169 289.229 234.492 290.45 234.492 292.181C234.492 293.911 233.169 295.133 231.438 295.133C229.707 295.133 228.384 293.911 228.384 292.181C228.384 290.45 229.707 289.229 231.438 289.229ZM228.656 314V296.626H234.187V314H228.656ZM236.841 314V296.626H242.168V299.001H242.27C243.56 297.135 245.222 296.117 247.632 296.117C251.432 296.117 253.672 298.832 253.672 302.7V314H248.141V303.82C248.141 301.988 247.224 300.732 245.426 300.732C243.593 300.732 242.372 302.259 242.372 304.397V314H236.841ZM258.976 289.229C260.707 289.229 262.03 290.45 262.03 292.181C262.03 293.911 260.707 295.133 258.976 295.133C257.245 295.133 255.922 293.911 255.922 292.181C255.922 290.45 257.245 289.229 258.976 289.229ZM256.193 314V296.626H261.725V314H256.193Z" fill="#002068"/>
</g>
<path d="M179 202C217.108 202 248 171.108 248 133C248 94.8924 217.108 64 179 64C140.892 64 110 94.8924 110 133C110 171.108 140.892 202 179 202Z" fill="url(#paint0_linear_361_161)"/>
<path d="M195.444 91.5078H162.554C154.596 91.5078 148.145 97.9592 148.145 105.917V160.071C148.145 168.029 154.596 174.48 162.554 174.48H195.444C203.402 174.48 209.854 168.029 209.854 160.071V105.917C209.854 97.9592 203.402 91.5078 195.444 91.5078Z" stroke="white" stroke-width="2.875" stroke-linecap="round" stroke-linejoin="round"/>
<path d="M161.933 105.4H196.065" stroke="white" stroke-width="2.875" stroke-linecap="round" stroke-linejoin="round"/>
<path d="M161.933 119.2H196.065" stroke="white" stroke-width="2.875" stroke-linecap="round" stroke-linejoin="round"/>
<path d="M161.933 133H196.065" stroke="white" stroke-width="2.875" stroke-linecap="round" stroke-linejoin="round"/>
<path d="M161.933 146.8H196.065" stroke="white" stroke-width="2.875" stroke-linecap="round" stroke-linejoin="round"/>
<path d="M161.933 160.6H196.065" stroke="white" stroke-width="2.875" stroke-linecap="round" stroke-linejoin="round"/>
<defs>
<filter id="filter0_d_361_161" x="0" y="0" width="361" height="357" filterUnits="userSpaceOnUse" color-interpolation-filters="sRGB">
<feFlood flood-opacity="0" result="BackgroundImageFix"/>
<feColorMatrix in="SourceAlpha" type="matrix" values="0 0 0 0 0 0 0 0 0 0 0 0 0 0 0 0 0 0 127 0" result="hardAlpha"/>
<feOffset dx="2" dy="2"/>
<feGaussianBlur stdDeviation="2"/>
<feComposite in2="hardAlpha" operator="out"/>
<feColorMatrix type="matrix" values="0 0 0 0 0 0 0 0 0 0 0 0 0 0 0 0 0 0 0.25 0"/>
<feBlend mode="normal" in2="BackgroundImageFix" result="effect1_dropShadow_361_161"/>
<feBlend mode="normal" in="SourceGraphic" in2="effect1_dropShadow_361_161" result="shape"/>
</filter>
<linearGradient id="paint0_linear_361_161" x1="144.488" y1="192.766" x2="213.512" y2="73.2345" gradientUnits="userSpaceOnUse">
<stop stop-color="#0460A9"/>
<stop offset="1" stop-color="#50E2D0"/>
</linearGradient>
</defs>
</svg>
