<svg width="361" height="357" viewBox="0 0 361 357" fill="none" xmlns="http://www.w3.org/2000/svg">
<g filter="url(#filter0_d_109_520)">
<rect x="2" y="2" width="353" height="349" rx="19.0804" fill="white"/>
<path d="M135.67 273.543C128.544 273.543 123.692 268.215 123.692 260.954C123.692 253.726 128.408 248.262 135.636 248.262C138.453 248.262 140.828 249.077 142.559 250.4C144.663 251.995 145.884 254.37 146.19 257.085H140.183C139.878 254.913 138.181 253.251 135.602 253.251C131.666 253.251 129.8 256.542 129.8 260.954C129.8 265.399 132.039 268.623 135.636 268.623C138.317 268.623 140.082 266.926 140.353 264.584H146.359C146.19 266.994 145.104 269.199 143.441 270.794C141.575 272.593 139.097 273.543 135.67 273.543ZM155.051 269.912C157.121 269.912 158.546 268.657 158.546 266.79V264.72C157.834 265.093 156.816 265.365 155.696 265.636C153.558 266.111 152.676 266.654 152.676 267.978C152.676 269.369 153.694 269.912 155.051 269.912ZM153.287 273.441C149.825 273.441 147.348 271.575 147.348 268.148C147.348 264.313 150.402 263.159 153.999 262.684C157.257 262.277 158.411 261.938 158.411 260.75C158.411 259.63 157.698 258.884 156.035 258.884C154.271 258.884 153.389 259.664 153.219 261.123H148.129C148.265 257.9 150.742 255.151 156.001 255.151C158.614 255.151 160.379 255.626 161.634 256.576C163.127 257.662 163.84 259.359 163.84 261.53V270.285C163.84 271.677 163.976 272.457 164.451 272.762V273H159.089C158.818 272.627 158.648 271.948 158.512 271.066H158.445C157.427 272.525 155.9 273.441 153.287 273.441ZM166.521 273V255.626H171.849V258.001H171.951C173.24 256.135 174.903 255.117 177.312 255.117C181.113 255.117 183.352 257.832 183.352 261.7V273H177.821V262.82C177.821 260.988 176.905 259.732 175.107 259.732C173.274 259.732 172.053 261.259 172.053 263.397V273H166.521ZM194.324 273.543C188.724 273.543 185.094 269.573 185.094 264.347C185.094 259.121 188.691 255.151 194.188 255.151C198.905 255.151 201.925 257.9 202.434 261.802H197.106C196.767 260.241 195.817 259.223 194.256 259.223C191.88 259.223 190.693 261.191 190.693 264.347C190.693 267.435 191.88 269.403 194.256 269.403C195.986 269.403 197.038 268.385 197.276 266.417H202.569C202.434 270.421 199.244 273.543 194.324 273.543ZM212.815 273.509C207.081 273.509 203.552 269.539 203.552 264.279C203.552 259.087 207.182 255.117 212.476 255.117C214.953 255.117 216.921 255.931 218.414 257.289C220.484 259.189 221.502 262.209 221.469 265.738H208.981C209.32 268.08 210.61 269.539 212.883 269.539C214.342 269.539 215.293 268.894 215.768 267.808H221.163C220.79 269.369 219.772 270.862 218.245 271.914C216.786 272.932 215.021 273.509 212.815 273.509ZM209.015 262.447H215.869C215.666 260.377 214.376 259.053 212.578 259.053C210.474 259.053 209.388 260.377 209.015 262.447ZM223.32 273V255.626H228.614V258.341H228.716C229.937 256.271 231.363 255.355 233.466 255.355C233.975 255.355 234.315 255.388 234.552 255.49V260.241H234.417C231.023 259.766 228.851 261.429 228.851 265.195V273H223.32Z" fill="#002068"/>
<path d="M212.492 119.075H196.421V113.113C196.421 110.574 194.364 108.517 191.825 108.517H167.719C165.179 108.517 163.122 110.574 163.122 113.113V119.075H147.052C142.937 119.075 139.595 122.418 139.595 126.532V169.585C139.595 173.7 142.937 177.042 147.052 177.042H212.508C216.622 177.042 219.964 173.7 219.964 169.585V126.532C219.948 122.418 216.606 119.075 212.492 119.075ZM166.353 113.113C166.353 112.358 166.963 111.731 167.735 111.731H191.825C192.58 111.731 193.207 112.341 193.207 113.113V119.075H166.353V113.113ZM216.734 169.585C216.734 171.916 214.838 173.828 212.492 173.828H147.052C144.705 173.812 142.809 171.916 142.809 169.585V126.532C142.809 124.202 144.705 122.289 147.052 122.289H164.745H194.814H212.508C214.838 122.289 216.75 124.186 216.75 126.532V169.585H216.734Z" fill="white"/>
<path d="M188.19 146.443H181.376V139.629C181.376 138.745 180.653 138.021 179.769 138.021C178.885 138.021 178.162 138.745 178.162 139.629V146.443H171.348C170.464 146.443 169.741 147.166 169.741 148.05C169.741 148.934 170.464 149.657 171.348 149.657H178.162V156.471C178.162 157.355 178.885 158.078 179.769 158.078C180.653 158.078 181.376 157.355 181.376 156.471V149.657H188.19C189.074 149.657 189.797 148.934 189.797 148.05C189.797 147.166 189.074 146.443 188.19 146.443Z" fill="white"/>
<path d="M179.766 130.341C169.995 130.341 162.056 138.296 162.056 148.051C162.056 157.806 169.995 165.777 179.766 165.777C189.537 165.777 197.476 157.822 197.476 148.067C197.476 138.312 189.537 130.341 179.766 130.341ZM179.766 162.563C171.763 162.563 165.271 156.054 165.271 148.067C165.271 140.08 171.779 133.571 179.766 133.571C187.77 133.571 194.262 140.08 194.262 148.067C194.262 156.054 187.77 162.563 179.766 162.563Z" fill="white"/>
</g>
<g clip-path="url(#clip0_109_520)">
<path d="M179 212C217.108 212 248 181.108 248 143C248 104.892 217.108 74 179 74C140.892 74 110 104.892 110 143C110 181.108 140.892 212 179 212Z" fill="url(#paint0_linear_109_520)"/>
<path d="M173.652 180.547V186.55C173.652 188.229 172.295 189.575 170.628 189.575C168.949 189.575 167.603 188.218 167.603 186.55V180.156" stroke="white" stroke-width="2.875" stroke-linecap="round" stroke-linejoin="round"/>
<path d="M190.408 180.145V190.714C190.408 192.393 189.039 193.761 187.36 193.761H185.233C183.554 193.761 182.185 192.393 182.185 190.714V180.973" stroke="white" stroke-width="2.875" stroke-linecap="round" stroke-linejoin="round"/>
<path d="M178.632 92.2388H179.357C182.807 92.2388 185.613 95.0448 185.613 98.4948V105.475H172.365V98.4948C172.365 95.0448 175.171 92.2388 178.621 92.2388H178.632Z" stroke="white" stroke-width="2.875" stroke-linecap="round" stroke-linejoin="round"/>
<path d="M159.622 105.475H198.389C202.69 105.475 206.186 108.971 206.186 113.272V156.397C206.186 169.496 195.548 180.133 182.45 180.133H175.561C162.463 180.133 151.825 169.496 151.825 156.397V113.272C151.825 108.971 155.321 105.475 159.622 105.475Z" stroke="white" stroke-width="2.875" stroke-linecap="round" stroke-linejoin="round"/>
<path d="M153.205 117.102H163.544" stroke="white" stroke-width="2.875" stroke-linecap="round" stroke-linejoin="round"/>
<path d="M153.205 127.233H158.369" stroke="white" stroke-width="2.875" stroke-linecap="round" stroke-linejoin="round"/>
<path d="M153.205 137.376H205.726" stroke="white" stroke-width="2.875" stroke-linecap="round" stroke-linejoin="round"/>
<path d="M153.205 147.519H158.369" stroke="white" stroke-width="2.875" stroke-linecap="round" stroke-linejoin="round"/>
<path d="M153.205 157.651H163.544" stroke="white" stroke-width="2.875" stroke-linecap="round" stroke-linejoin="round"/>
</g>
<defs>
<filter id="filter0_d_109_520" x="0" y="0" width="361" height="357" filterUnits="userSpaceOnUse" color-interpolation-filters="sRGB">
<feFlood flood-opacity="0" result="BackgroundImageFix"/>
<feColorMatrix in="SourceAlpha" type="matrix" values="0 0 0 0 0 0 0 0 0 0 0 0 0 0 0 0 0 0 127 0" result="hardAlpha"/>
<feOffset dx="2" dy="2"/>
<feGaussianBlur stdDeviation="2"/>
<feComposite in2="hardAlpha" operator="out"/>
<feColorMatrix type="matrix" values="0 0 0 0 0 0 0 0 0 0 0 0 0 0 0 0 0 0 0.25 0"/>
<feBlend mode="normal" in2="BackgroundImageFix" result="effect1_dropShadow_109_520"/>
<feBlend mode="normal" in="SourceGraphic" in2="effect1_dropShadow_109_520" result="shape"/>
</filter>
<linearGradient id="paint0_linear_109_520" x1="144.488" y1="202.766" x2="213.512" y2="83.2345" gradientUnits="userSpaceOnUse">
<stop stop-color="#0460A9"/>
<stop offset="1" stop-color="#50E2D0"/>
</linearGradient>
<clipPath id="clip0_109_520">
<rect width="138" height="138" fill="white" transform="translate(110 74)"/>
</clipPath>
</defs>
</svg>
