<svg width="361" height="357" viewBox="0 0 361 357" fill="none" xmlns="http://www.w3.org/2000/svg">
<g filter="url(#filter0_d_361_159)">
<rect x="2" y="2" width="353" height="349" rx="19.0804" fill="white"/>
<path d="M121.821 273.543C114.695 273.543 109.843 268.215 109.843 260.954C109.843 253.726 114.56 248.262 121.787 248.262C124.604 248.262 126.979 249.077 128.71 250.4C130.814 251.995 132.035 254.37 132.341 257.085H126.334C126.029 254.913 124.332 253.251 121.753 253.251C117.817 253.251 115.951 256.542 115.951 260.954C115.951 265.399 118.19 268.623 121.787 268.623C124.468 268.623 126.233 266.926 126.504 264.584H132.51C132.341 266.994 131.255 269.199 129.592 270.794C127.726 272.593 125.249 273.543 121.821 273.543ZM134.314 273V255.626H139.608V258.341H139.709C140.931 256.271 142.356 255.355 144.46 255.355C144.969 255.355 145.308 255.388 145.546 255.49V260.241H145.41C142.017 259.766 139.845 261.429 139.845 265.195V273H134.314ZM155.49 273.543C149.925 273.543 146.192 269.573 146.192 264.347C146.192 259.121 149.925 255.151 155.49 255.151C161.089 255.151 164.754 259.121 164.754 264.347C164.754 269.573 161.089 273.543 155.49 273.543ZM155.456 269.607C157.865 269.607 159.155 267.503 159.155 264.347C159.155 261.191 157.865 259.053 155.456 259.053C153.047 259.053 151.791 261.191 151.791 264.347C151.791 267.503 153.047 269.607 155.456 269.607ZM166.624 273V255.626H171.951V258.001H172.053C173.343 256.135 175.005 255.117 177.415 255.117C181.215 255.117 183.455 257.832 183.455 261.7V273H177.924V262.82C177.924 260.988 177.007 259.732 175.209 259.732C173.376 259.732 172.155 261.259 172.155 263.397V273H166.624ZM188.759 248.229C190.49 248.229 191.813 249.45 191.813 251.181C191.813 252.911 190.49 254.133 188.759 254.133C187.028 254.133 185.705 252.911 185.705 251.181C185.705 249.45 187.028 248.229 188.759 248.229ZM185.976 273V255.626H191.508V273H185.976ZM202.611 273.543C197.012 273.543 193.381 269.573 193.381 264.347C193.381 259.121 196.978 255.151 202.475 255.151C207.192 255.151 210.212 257.9 210.721 261.802H205.394C205.054 260.241 204.104 259.223 202.543 259.223C200.168 259.223 198.98 261.191 198.98 264.347C198.98 267.435 200.168 269.403 202.543 269.403C204.274 269.403 205.326 268.385 205.563 266.417H210.857C210.721 270.421 207.531 273.543 202.611 273.543ZM215.402 248.229C217.133 248.229 218.456 249.45 218.456 251.181C218.456 252.911 217.133 254.133 215.402 254.133C213.671 254.133 212.348 252.911 212.348 251.181C212.348 249.45 213.671 248.229 215.402 248.229ZM212.62 273V255.626H218.151V273H212.62ZM227.693 273.204C224.47 273.204 222.162 272.152 222.162 268.419V259.087H219.855V255.626H222.162V250.129H227.557V255.626H230.713V259.087H227.557V267.231C227.557 268.589 228.304 268.928 229.492 268.928C229.967 268.928 230.51 268.894 230.713 268.894V272.932C230.238 273.068 229.186 273.204 227.693 273.204ZM233.775 278.735V274.425H235.676C237.304 274.425 237.949 273.78 237.949 272.593C237.949 271.846 237.61 270.828 236.897 268.996L231.773 255.626H237.61L239.951 263.024C240.494 264.72 241.037 267.028 241.037 267.028H241.105C241.105 267.028 241.58 264.72 242.123 263.024L244.396 255.626H249.928L243.921 273.238C242.53 277.31 240.867 278.735 237.372 278.735H233.775Z" fill="#002068"/>
</g>
<g clip-path="url(#clip0_361_159)">
<path d="M179 212C217.108 212 248 181.108 248 143C248 104.892 217.108 74 179 74C140.892 74 110 104.892 110 143C110 181.108 140.892 212 179 212Z" fill="url(#paint0_linear_361_159)"/>
<path d="M195.767 164.574H162.221C160.507 164.574 159.116 165.964 159.116 167.679C159.116 169.394 160.507 170.784 162.221 170.784H195.767C197.482 170.784 198.872 169.394 198.872 167.679C198.872 165.964 197.482 164.574 195.767 164.574Z" stroke="white" stroke-width="2.875" stroke-linecap="round" stroke-linejoin="round"/>
<path d="M172.192 195.06H159.944C157.679 195.06 156.161 192.657 157.219 190.656C157.23 190.621 157.253 190.587 157.265 190.552C158.38 188.413 156.448 185.952 154.091 186.447L146.363 188.103C143.177 188.781 140.164 186.343 140.164 183.089C140.164 179.823 143.166 177.396 146.363 178.075L154.091 179.524C156.437 179.961 158.3 177.5 157.184 175.395C157.161 175.361 157.15 175.326 157.127 175.292C156.057 173.291 157.575 170.864 159.841 170.864H172.985H185.014H198.216C200.493 170.864 201.942 173.279 200.884 175.292L200.827 175.395C199.711 177.511 201.528 179.984 203.874 179.547L211.648 178.098C214.834 177.419 217.847 179.857 217.847 183.112C217.847 186.378 214.845 188.804 211.648 188.126L203.863 186.458C201.505 185.952 199.619 188.436 200.735 190.575L200.781 190.679C201.827 192.68 200.378 195.083 198.113 195.083H185.808H172.18L172.192 195.06Z" stroke="white" stroke-width="2.875" stroke-linecap="round" stroke-linejoin="round"/>
<path d="M172.698 164.482H161.37C159.277 164.482 157.874 162.262 158.852 160.411C158.863 160.376 158.886 160.353 158.898 160.319C159.921 158.341 158.139 156.064 155.954 156.524L148.801 158.053C145.857 158.686 143.074 156.432 143.074 153.419C143.074 150.406 145.857 148.152 148.801 148.784L155.942 150.118C158.104 150.521 159.829 148.255 158.806 146.3C158.783 146.266 158.771 146.231 158.748 146.197C157.759 144.345 159.162 142.103 161.255 142.103H173.411H184.531H196.733C198.837 142.103 200.183 144.334 199.194 146.197L199.148 146.289C198.113 148.244 199.792 150.532 201.965 150.118L209.153 148.773C212.097 148.14 214.88 150.394 214.88 153.407C214.88 156.42 212.097 158.674 209.153 158.042L201.954 156.501C199.769 156.029 198.032 158.329 199.067 160.307L199.113 160.399C200.079 162.251 198.745 164.47 196.652 164.47H185.279H172.686L172.698 164.482Z" stroke="white" stroke-width="2.875" stroke-linecap="round" stroke-linejoin="round"/>
<path d="M194.364 136.399H163.636C162.061 136.399 160.784 137.673 160.784 139.245C160.784 140.817 162.061 142.091 163.636 142.091H194.364C195.939 142.091 197.216 140.817 197.216 139.245C197.216 137.673 195.939 136.399 194.364 136.399Z" stroke="white" stroke-width="2.875" stroke-linecap="round" stroke-linejoin="round"/>
<path d="M173.227 136.319H162.854C160.934 136.319 159.646 134.283 160.543 132.581C160.554 132.558 160.577 132.524 160.589 132.501C161.532 130.684 159.899 128.602 157.898 129.028L151.343 130.431C148.64 131.006 146.099 128.947 146.099 126.176C146.099 123.416 148.64 121.346 151.343 121.921L157.886 123.14C159.876 123.508 161.451 121.426 160.508 119.644C160.497 119.609 160.474 119.586 160.462 119.552C159.554 117.85 160.842 115.803 162.762 115.803H173.906H184.095H195.273C197.193 115.803 198.435 117.85 197.527 119.552L197.481 119.632C196.538 121.426 198.079 123.519 200.068 123.151L206.646 121.921C209.349 121.346 211.89 123.404 211.89 126.176C211.89 128.936 209.349 131.006 206.646 130.431L200.045 129.016C198.044 128.591 196.446 130.684 197.4 132.501L197.446 132.581C198.332 134.283 197.101 136.319 195.192 136.319H184.762H173.216H173.227Z" stroke="white" stroke-width="2.875" stroke-linecap="round" stroke-linejoin="round"/>
<path d="M193.513 110.375H164.498C163.019 110.375 161.819 111.574 161.819 113.054V113.066C161.819 114.545 163.019 115.745 164.498 115.745H193.513C194.993 115.745 196.192 114.545 196.192 113.066V113.054C196.192 111.574 194.993 110.375 193.513 110.375Z" stroke="white" stroke-width="2.875" stroke-linecap="round" stroke-linejoin="round"/>
<path d="M173.56 110.283H163.774C161.968 110.283 160.749 108.362 161.6 106.764C161.612 106.741 161.623 106.706 161.646 106.683C162.532 104.97 160.991 103.003 159.105 103.406L152.93 104.728C150.377 105.269 147.984 103.325 147.984 100.715C147.984 98.104 150.388 96.1605 152.93 96.701L159.105 97.851C160.979 98.196 162.463 96.241 161.577 94.5505C161.566 94.516 161.543 94.493 161.531 94.4585C160.68 92.86 161.888 90.9165 163.705 90.9165H174.216H183.83H194.376C196.193 90.9165 197.354 92.8485 196.503 94.4585L196.457 94.539C195.56 96.2295 197.021 98.2075 198.895 97.851L205.105 96.6895C207.658 96.149 210.05 98.0925 210.05 100.703C210.05 103.314 207.646 105.257 205.105 104.717L198.883 103.383C196.997 102.98 195.491 104.958 196.388 106.672L196.434 106.752C197.274 108.351 196.112 110.271 194.306 110.271H184.474H173.583L173.56 110.283Z" stroke="white" stroke-width="2.875" stroke-linecap="round" stroke-linejoin="round"/>
</g>
<defs>
<filter id="filter0_d_361_159" x="0" y="0" width="361" height="357" filterUnits="userSpaceOnUse" color-interpolation-filters="sRGB">
<feFlood flood-opacity="0" result="BackgroundImageFix"/>
<feColorMatrix in="SourceAlpha" type="matrix" values="0 0 0 0 0 0 0 0 0 0 0 0 0 0 0 0 0 0 127 0" result="hardAlpha"/>
<feOffset dx="2" dy="2"/>
<feGaussianBlur stdDeviation="2"/>
<feComposite in2="hardAlpha" operator="out"/>
<feColorMatrix type="matrix" values="0 0 0 0 0 0 0 0 0 0 0 0 0 0 0 0 0 0 0.25 0"/>
<feBlend mode="normal" in2="BackgroundImageFix" result="effect1_dropShadow_361_159"/>
<feBlend mode="normal" in="SourceGraphic" in2="effect1_dropShadow_361_159" result="shape"/>
</filter>
<linearGradient id="paint0_linear_361_159" x1="144.488" y1="202.766" x2="213.512" y2="83.2345" gradientUnits="userSpaceOnUse">
<stop stop-color="#0460A9"/>
<stop offset="1" stop-color="#50E2D0"/>
</linearGradient>
<clipPath id="clip0_361_159">
<rect width="138" height="138" fill="white" transform="translate(110 74)"/>
</clipPath>
</defs>
</svg>
