<svg width="361" height="357" viewBox="0 0 361 357" fill="none" xmlns="http://www.w3.org/2000/svg">
<g filter="url(#filter0_d_361_160)">
<rect x="2" y="2" width="353" height="349" rx="19.0804" fill="white"/>
<path d="M37.1722 273L29.1639 248.738H35.4076L39.2082 261.463C39.7511 263.295 40.328 265.738 40.328 265.738H40.3959C40.3959 265.738 41.0067 263.261 41.5157 261.463L45.2823 248.738H51.3564L43.382 273H37.1722ZM57.1609 269.912C59.2309 269.912 60.6561 268.657 60.6561 266.79V264.72C59.9435 265.093 58.9255 265.365 57.8056 265.636C55.6678 266.111 54.7856 266.654 54.7856 267.978C54.7856 269.369 55.8036 269.912 57.1609 269.912ZM55.3964 273.441C51.9351 273.441 49.458 271.575 49.458 268.148C49.458 264.313 52.512 263.159 56.109 262.684C59.3666 262.277 60.5203 261.938 60.5203 260.75C60.5203 259.63 59.8077 258.884 58.145 258.884C56.3804 258.884 55.4982 259.664 55.3285 261.123H50.2385C50.3742 257.9 52.8513 255.151 58.111 255.151C60.7239 255.151 62.4885 255.626 63.744 256.576C65.2371 257.662 65.9497 259.359 65.9497 261.53V270.285C65.9497 271.677 66.0854 272.457 66.5605 272.762V273H61.199C60.9275 272.627 60.7579 271.948 60.6221 271.066H60.5543C59.5363 272.525 58.0092 273.441 55.3964 273.441ZM71.4135 248.229C73.1441 248.229 74.4676 249.45 74.4676 251.181C74.4676 252.911 73.1441 254.133 71.4135 254.133C69.6829 254.133 68.3595 252.911 68.3595 251.181C68.3595 249.45 69.6829 248.229 71.4135 248.229ZM68.631 273V255.626H74.1621V273H68.631ZM88.9736 269.912C91.0436 269.912 92.4688 268.657 92.4688 266.79V264.72C91.7562 265.093 90.7382 265.365 89.6184 265.636C87.4805 266.111 86.5983 266.654 86.5983 267.978C86.5983 269.369 87.6163 269.912 88.9736 269.912ZM87.2091 273.441C83.7478 273.441 81.2707 271.575 81.2707 268.148C81.2707 264.313 84.3247 263.159 87.9217 262.684C91.1793 262.277 92.333 261.938 92.333 260.75C92.333 259.63 91.6204 258.884 89.9577 258.884C88.1931 258.884 87.3109 259.664 87.1412 261.123H82.0512C82.1869 257.9 84.6641 255.151 89.9238 255.151C92.5366 255.151 94.3012 255.626 95.5567 256.576C97.0498 257.662 97.7624 259.359 97.7624 261.53V270.285C97.7624 271.677 97.8981 272.457 98.3732 272.762V273H93.0117C92.7402 272.627 92.5706 271.948 92.4348 271.066H92.367C91.349 272.525 89.822 273.441 87.2091 273.441ZM100.478 273V248.738H106.077V273H100.478ZM114.03 273V255.626H119.324V258.341H119.426C120.647 256.271 122.073 255.355 124.176 255.355C124.686 255.355 125.025 255.388 125.262 255.49V260.241H125.127C121.733 259.766 119.562 261.429 119.562 265.195V273H114.03ZM135.173 273.509C129.438 273.509 125.909 269.539 125.909 264.279C125.909 259.087 129.54 255.117 134.833 255.117C137.31 255.117 139.279 255.931 140.772 257.289C142.842 259.189 143.86 262.209 143.826 265.738H131.338C131.677 268.08 132.967 269.539 135.24 269.539C136.7 269.539 137.65 268.894 138.125 267.808H143.52C143.147 269.369 142.129 270.862 140.602 271.914C139.143 272.932 137.378 273.509 135.173 273.509ZM131.372 262.447H138.227C138.023 260.377 136.734 259.053 134.935 259.053C132.831 259.053 131.745 260.377 131.372 262.447ZM154.772 269.267C156.875 269.267 158.165 267.469 158.165 264.517C158.165 261.53 157.045 259.562 154.67 259.562C152.26 259.562 151.039 261.7 151.039 264.517C151.039 267.333 152.396 269.267 154.772 269.267ZM145.677 278.735V255.626H150.971V257.73H151.073C152.26 256.169 153.957 255.117 156.333 255.117C160.947 255.117 163.764 259.087 163.764 264.313C163.764 269.946 160.744 273.543 156.197 273.543C153.957 273.543 152.362 272.661 151.276 271.202H151.209V278.735H145.677ZM174.144 273.543C168.579 273.543 164.846 269.573 164.846 264.347C164.846 259.121 168.579 255.151 174.144 255.151C179.743 255.151 183.408 259.121 183.408 264.347C183.408 269.573 179.743 273.543 174.144 273.543ZM174.11 269.607C176.519 269.607 177.809 267.503 177.809 264.347C177.809 261.191 176.519 259.053 174.11 259.053C171.701 259.053 170.445 261.191 170.445 264.347C170.445 267.503 171.701 269.607 174.11 269.607ZM185.278 273V255.626H190.571V258.341H190.673C191.895 256.271 193.32 255.355 195.424 255.355C195.933 255.355 196.272 255.388 196.51 255.49V260.241H196.374C192.98 259.766 190.809 261.429 190.809 265.195V273H185.278ZM205.488 273.204C202.264 273.204 199.956 272.152 199.956 268.419V259.087H197.649V255.626H199.956V250.129H205.352V255.626H208.508V259.087H205.352V267.231C205.352 268.589 206.098 268.928 207.286 268.928C207.761 268.928 208.304 268.894 208.508 268.894V272.932C208.033 273.068 206.981 273.204 205.488 273.204ZM220.346 273L214.34 255.626H220.04L222.416 263.465C222.925 265.195 223.366 266.96 223.366 266.96H223.434C223.434 266.96 223.875 265.195 224.384 263.465L226.793 255.626H232.324L226.318 273H220.346ZM241.381 273.509C235.646 273.509 232.117 269.539 232.117 264.279C232.117 259.087 235.748 255.117 241.041 255.117C243.518 255.117 245.487 255.931 246.98 257.289C249.05 259.189 250.068 262.209 250.034 265.738H237.546C237.885 268.08 239.175 269.539 241.448 269.539C242.908 269.539 243.858 268.894 244.333 267.808H249.728C249.355 269.369 248.337 270.862 246.81 271.914C245.351 272.932 243.586 273.509 241.381 273.509ZM237.58 262.447H244.435C244.231 260.377 242.942 259.053 241.143 259.053C239.039 259.053 237.953 260.377 237.58 262.447ZM251.885 273V255.626H257.213V258.001H257.315C258.604 256.135 260.267 255.117 262.676 255.117C266.477 255.117 268.716 257.832 268.716 261.7V273H263.185V262.82C263.185 260.988 262.269 259.732 260.471 259.732C258.638 259.732 257.417 261.259 257.417 263.397V273H251.885ZM279.484 269.166C281.791 269.166 283.149 267.163 283.149 264.313C283.149 261.395 281.961 259.291 279.552 259.291C277.346 259.291 276.057 261.327 276.057 264.245C276.057 267.265 277.346 269.166 279.484 269.166ZM278.059 273.543C273.614 273.543 270.458 270.116 270.458 264.313C270.458 258.884 273.58 255.117 278.059 255.117C280.502 255.117 281.893 256.135 282.911 257.594H283.013V248.738H288.544V273H283.251V270.659H283.183C282.131 272.457 280.332 273.543 278.059 273.543ZM293.97 248.229C295.701 248.229 297.024 249.45 297.024 251.181C297.024 252.911 295.701 254.133 293.97 254.133C292.239 254.133 290.916 252.911 290.916 251.181C290.916 249.45 292.239 248.229 293.97 248.229ZM291.187 273V255.626H296.719V273H291.187ZM306.261 273.204C303.037 273.204 300.73 272.152 300.73 268.419V259.087H298.422V255.626H300.73V250.129H306.125V255.626H309.281V259.087H306.125V267.231C306.125 268.589 306.872 268.928 308.06 268.928C308.535 268.928 309.078 268.894 309.281 268.894V272.932C308.806 273.068 307.754 273.204 306.261 273.204ZM319.587 273.509C313.852 273.509 310.323 269.539 310.323 264.279C310.323 259.087 313.954 255.117 319.247 255.117C321.725 255.117 323.693 255.931 325.186 257.289C327.256 259.189 328.274 262.209 328.24 265.738H315.752C316.092 268.08 317.381 269.539 319.655 269.539C321.114 269.539 322.064 268.894 322.539 267.808H327.934C327.561 269.369 326.543 270.862 325.016 271.914C323.557 272.932 321.793 273.509 319.587 273.509ZM315.786 262.447H322.641C322.437 260.377 321.148 259.053 319.349 259.053C317.245 259.053 316.16 260.377 315.786 262.447ZM96.0672 310.267C98.1711 310.267 99.4605 308.469 99.4605 305.517C99.4605 302.53 98.3407 300.562 95.9654 300.562C93.5561 300.562 92.3345 302.7 92.3345 305.517C92.3345 308.333 93.6918 310.267 96.0672 310.267ZM86.973 319.735V296.626H92.2666V298.73H92.3684C93.5561 297.169 95.2528 296.117 97.6281 296.117C102.243 296.117 105.06 300.087 105.06 305.313C105.06 310.946 102.039 314.543 97.4924 314.543C95.2528 314.543 93.6579 313.661 92.572 312.202H92.5042V319.735H86.973ZM115.406 314.509C109.671 314.509 106.142 310.539 106.142 305.279C106.142 300.087 109.773 296.117 115.066 296.117C117.543 296.117 119.512 296.931 121.005 298.289C123.075 300.189 124.093 303.209 124.059 306.738H111.571C111.91 309.08 113.2 310.539 115.473 310.539C116.933 310.539 117.883 309.894 118.358 308.808H123.753C123.38 310.369 122.362 311.862 120.835 312.914C119.376 313.932 117.611 314.509 115.406 314.509ZM111.605 303.447H118.46C118.256 301.377 116.967 300.053 115.168 300.053C113.064 300.053 111.978 301.377 111.605 303.447ZM125.91 314V296.626H131.204V299.341H131.306C132.527 297.271 133.953 296.355 136.057 296.355C136.566 296.355 136.905 296.388 137.142 296.49V301.241H137.007C133.613 300.766 131.442 302.429 131.442 306.195V314H125.91ZM151.635 305.313H157.336L155.503 299.443C155.096 298.187 154.553 296.015 154.553 296.015H154.485C154.485 296.015 153.909 298.187 153.501 299.443L151.635 305.313ZM142.812 314L151.533 289.738H157.709L166.464 314H160.152L158.727 309.623H150.244L148.852 314H142.812ZM175.418 314.543C169.819 314.543 166.188 310.573 166.188 305.347C166.188 300.121 169.785 296.151 175.282 296.151C179.999 296.151 183.019 298.9 183.528 302.802H178.201C177.861 301.241 176.911 300.223 175.35 300.223C172.975 300.223 171.787 302.191 171.787 305.347C171.787 308.435 172.975 310.403 175.35 310.403C177.081 310.403 178.133 309.385 178.37 307.417H183.664C183.528 311.421 180.339 314.543 175.418 314.543ZM193.876 314.543C188.277 314.543 184.646 310.573 184.646 305.347C184.646 300.121 188.243 296.151 193.74 296.151C198.457 296.151 201.477 298.9 201.986 302.802H196.659C196.319 301.241 195.369 300.223 193.808 300.223C191.433 300.223 190.245 302.191 190.245 305.347C190.245 308.435 191.433 310.403 193.808 310.403C195.539 310.403 196.591 309.385 196.828 307.417H202.122C201.986 311.421 198.797 314.543 193.876 314.543ZM212.402 314.543C206.837 314.543 203.104 310.573 203.104 305.347C203.104 300.121 206.837 296.151 212.402 296.151C218.001 296.151 221.666 300.121 221.666 305.347C221.666 310.573 218.001 314.543 212.402 314.543ZM212.368 310.607C214.777 310.607 216.067 308.503 216.067 305.347C216.067 302.191 214.777 300.053 212.368 300.053C209.959 300.053 208.703 302.191 208.703 305.347C208.703 308.503 209.959 310.607 212.368 310.607ZM229.508 314.509C225.504 314.509 223.4 311.896 223.4 308.028V296.626H228.897V306.874C228.897 308.774 229.746 309.826 231.51 309.826C233.41 309.826 234.564 308.401 234.564 306.331V296.626H240.095V314H234.802V311.862H234.7C233.444 313.559 231.917 314.509 229.508 314.509ZM242.756 314V296.626H248.083V299.001H248.185C249.475 297.135 251.137 296.117 253.547 296.117C257.347 296.117 259.587 298.832 259.587 302.7V314H254.056V303.82C254.056 301.988 253.14 300.732 251.341 300.732C249.509 300.732 248.287 302.259 248.287 304.397V314H242.756ZM268.666 314.204C265.442 314.204 263.135 313.152 263.135 309.419V300.087H260.827V296.626H263.135V291.129H268.53V296.626H271.686V300.087H268.53V308.231C268.53 309.589 269.277 309.928 270.464 309.928C270.939 309.928 271.482 309.894 271.686 309.894V313.932C271.211 314.068 270.159 314.204 268.666 314.204Z" fill="#002068"/>
</g>
<path d="M178 202C216.108 202 247 171.108 247 133C247 94.8924 216.108 64 178 64C139.892 64 109 94.8924 109 133C109 171.108 139.892 202 178 202Z" fill="url(#paint0_linear_361_160)"/>
<path d="M167.213 133.172C167.213 139.129 172.043 143.959 178 143.959C183.957 143.959 188.787 139.129 188.787 133.172" stroke="white" stroke-width="2.875" stroke-linecap="round" stroke-linejoin="round"/>
<path d="M207.935 172.985H148.066C138.958 172.985 131.54 166.154 131.54 157.748V123.777C131.54 115.37 138.958 108.539 148.066 108.539H207.935C217.043 108.539 224.46 115.37 224.46 123.777V157.748C224.46 166.154 217.043 172.985 207.935 172.985Z" stroke="white" stroke-width="2.875" stroke-linecap="round" stroke-linejoin="round"/>
<path d="M169.284 93.0142H186.718C192.123 93.0142 196.504 97.3957 196.504 102.801V108.551H159.509V102.801C159.509 97.3957 163.89 93.0142 169.295 93.0142H169.284Z" stroke="white" stroke-width="2.875" stroke-linecap="round" stroke-linejoin="round"/>
<path d="M131.54 133.172H224.46" stroke="white" stroke-width="2.875" stroke-linecap="round" stroke-linejoin="round"/>
<defs>
<filter id="filter0_d_361_160" x="0" y="0" width="361" height="357" filterUnits="userSpaceOnUse" color-interpolation-filters="sRGB">
<feFlood flood-opacity="0" result="BackgroundImageFix"/>
<feColorMatrix in="SourceAlpha" type="matrix" values="0 0 0 0 0 0 0 0 0 0 0 0 0 0 0 0 0 0 127 0" result="hardAlpha"/>
<feOffset dx="2" dy="2"/>
<feGaussianBlur stdDeviation="2"/>
<feComposite in2="hardAlpha" operator="out"/>
<feColorMatrix type="matrix" values="0 0 0 0 0 0 0 0 0 0 0 0 0 0 0 0 0 0 0.25 0"/>
<feBlend mode="normal" in2="BackgroundImageFix" result="effect1_dropShadow_361_160"/>
<feBlend mode="normal" in="SourceGraphic" in2="effect1_dropShadow_361_160" result="shape"/>
</filter>
<linearGradient id="paint0_linear_361_160" x1="143.488" y1="192.766" x2="212.512" y2="73.2345" gradientUnits="userSpaceOnUse">
<stop stop-color="#0460A9"/>
<stop offset="1" stop-color="#50E2D0"/>
</linearGradient>
</defs>
</svg>
