<svg width="52" height="52" viewBox="0 0 52 52" fill="none" xmlns="http://www.w3.org/2000/svg">
<path d="M26 52C40.3594 52 52 40.3594 52 26C52 11.6406 40.3594 0 26 0C11.6406 0 0 11.6406 0 26C0 40.3594 11.6406 52 26 52Z" fill="url(#paint0_linear_672_1899)"/>
<path d="M26.1079 13H35.7577C37.0608 13 38.1174 14.0477 38.1174 15.342V26.0572L26.2576 37.8642C25.4651 38.6566 24.1797 38.6566 23.3873 37.8642L13.5965 28.1175C12.7953 27.3251 12.8041 26.0308 13.6053 25.2472L26.1079 13Z" stroke="white" stroke-width="0.880461" stroke-miterlimit="10"/>
<path d="M32.0331 21.0121C33.0835 21.0121 33.9349 20.1606 33.9349 19.1103C33.9349 18.06 33.0835 17.2085 32.0331 17.2085C30.9828 17.2085 30.1313 18.06 30.1313 19.1103C30.1313 20.1606 30.9828 21.0121 32.0331 21.0121Z" fill="white"/>
<defs>
<linearGradient id="paint0_linear_672_1899" x1="12.9957" y1="48.5203" x2="39.0043" y2="3.47967" gradientUnits="userSpaceOnUse">
<stop stop-color="#0460A9"/>
<stop offset="1" stop-color="#50E2D0"/>
</linearGradient>
</defs>
</svg>
