<svg width="52" height="52" viewBox="0 0 52 52" fill="none" xmlns="http://www.w3.org/2000/svg">
<path d="M26 52C40.3594 52 52 40.3594 52 26C52 11.6406 40.3594 0 26 0C11.6406 0 0 11.6406 0 26C0 40.3594 11.6406 52 26 52Z" fill="url(#paint0_linear_672_1855)"/>
<path d="M23.3282 38.7958H13V12.2236H27.5525L34.5245 19.2045V23.0619" stroke="white" stroke-width="0.894989" stroke-miterlimit="10"/>
<path d="M27.1768 12V19.3479H34.5336" stroke="white" stroke-width="0.894989" stroke-miterlimit="10"/>
<path d="M31.3926 25.7205L25.1459 32.2665C23.7024 33.7792 23.757 36.1742 25.2678 37.6159C26.7787 39.0577 29.1736 39.0002 30.6171 37.4876L36.8638 30.9416C38.3073 29.429 38.2527 27.034 36.7419 25.5922C35.231 24.1505 32.8361 24.2079 31.3926 25.7205Z" stroke="white" stroke-width="0.894989" stroke-miterlimit="10"/>
<path d="M28.5103 29.1748L33.6385 34.3031" stroke="white" stroke-width="0.894989" stroke-miterlimit="10"/>
<path d="M34.8738 28.8076C35.5559 28.8076 36.1088 28.2546 36.1088 27.5725C36.1088 26.8904 35.5559 26.3374 34.8738 26.3374C34.1916 26.3374 33.6387 26.8904 33.6387 27.5725C33.6387 28.2546 34.1916 28.8076 34.8738 28.8076Z" fill="white"/>
<path d="M32.5022 30.8754C33.1843 30.8754 33.7373 30.3225 33.7373 29.6404C33.7373 28.9582 33.1843 28.4053 32.5022 28.4053C31.8201 28.4053 31.2671 28.9582 31.2671 29.6404C31.2671 30.3225 31.8201 30.8754 32.5022 30.8754Z" fill="white"/>
<defs>
<linearGradient id="paint0_linear_672_1855" x1="12.9957" y1="48.5203" x2="39.0043" y2="3.47967" gradientUnits="userSpaceOnUse">
<stop stop-color="#0460A9"/>
<stop offset="1" stop-color="#50E2D0"/>
</linearGradient>
</defs>
</svg>
