<svg width="52" height="52" viewBox="0 0 52 52" fill="none" xmlns="http://www.w3.org/2000/svg">
<path d="M26 52C40.3594 52 52 40.3594 52 26C52 11.6406 40.3594 0 26 0C11.6406 0 0 11.6406 0 26C0 40.3594 11.6406 52 26 52Z" fill="url(#paint0_linear_672_363)"/>
<path d="M37.1043 16.5454H14.6984C13.2081 16.5454 12 17.7535 12 19.2438V34.7921C12 36.2824 13.2081 37.4905 14.6984 37.4905H37.1043C38.5946 37.4905 39.8027 36.2824 39.8027 34.7921V19.2438C39.8027 17.7535 38.5946 16.5454 37.1043 16.5454Z" stroke="white" stroke-width="0.930478" stroke-miterlimit="10"/>
<path d="M28.544 20.4995V24.3889H32.2194V29.581H28.544V33.5262H23.2589V29.581H19.5835V24.3889H23.2589V20.4995H28.544Z" stroke="white" stroke-width="0.930478"/>
<path d="M18.8667 16.694V14.4329C18.8667 13.642 19.5087 13 20.2996 13H31.5026C32.2935 13 32.9355 13.642 32.9355 14.4329V16.694" stroke="white" stroke-width="0.930478"/>
<defs>
<linearGradient id="paint0_linear_672_363" x1="12.9957" y1="48.5203" x2="39.0043" y2="3.47967" gradientUnits="userSpaceOnUse">
<stop stop-color="#0460A9"/>
<stop offset="1" stop-color="#50E2D0"/>
</linearGradient>
</defs>
</svg>
