<svg width="52" height="52" viewBox="0 0 52 52" fill="none" xmlns="http://www.w3.org/2000/svg">
<path d="M26 52C40.3594 52 52 40.3594 52 26C52 11.6406 40.3594 0 26 0C11.6406 0 0 11.6406 0 26C0 40.3594 11.6406 52 26 52Z" fill="url(#paint0_linear_672_1866)"/>
<path d="M23.125 13H28.059V19.9213C28.059 23.9302 24.8039 27.1853 20.7951 27.1853H20.264C16.2551 27.1853 13 23.9302 13 19.9213V13H17.9083" stroke="white" stroke-width="0.856599" stroke-miterlimit="10"/>
<path d="M35.5966 27.6735V32.4704C35.5966 35.7427 32.3415 38.4067 28.3326 38.4067H27.8016C23.7927 38.4067 20.5376 35.7512 20.5376 32.4704V26.8169" stroke="white" stroke-width="0.856599" stroke-miterlimit="10"/>
<path d="M35.5966 28.0848C37.5552 28.0848 39.1429 26.4971 39.1429 24.5385C39.1429 22.5799 37.5552 20.9922 35.5966 20.9922C33.638 20.9922 32.0503 22.5799 32.0503 24.5385C32.0503 26.4971 33.638 28.0848 35.5966 28.0848Z" stroke="white" stroke-width="0.856599" stroke-miterlimit="10"/>
<defs>
<linearGradient id="paint0_linear_672_1866" x1="12.9957" y1="48.5203" x2="39.0043" y2="3.47967" gradientUnits="userSpaceOnUse">
<stop stop-color="#0460A9"/>
<stop offset="1" stop-color="#50E2D0"/>
</linearGradient>
</defs>
</svg>
