<svg width="52" height="52" viewBox="0 0 52 52" fill="none" xmlns="http://www.w3.org/2000/svg">
<path d="M26 52C40.3594 52 52 40.3594 52 26C52 11.6406 40.3594 0 26 0C11.6406 0 0 11.6406 0 26C0 40.3594 11.6406 52 26 52Z" fill="url(#paint0_linear_672_1844)"/>
<path d="M35.7355 24.2314H31.4787C29.9078 24.2314 28.6343 25.5049 28.6343 27.0758V37.5119C28.6343 39.0828 29.9078 40.3563 31.4787 40.3563H35.7355C37.3064 40.3563 38.5799 39.0828 38.5799 37.5119V27.0758C38.5799 25.5049 37.3064 24.2314 35.7355 24.2314Z" stroke="white" stroke-width="0.980828" stroke-miterlimit="10"/>
<path d="M33.1462 40.3565H15.8444C14.2751 40.3565 13 39.0815 13 37.5121V26.0953L20.5426 20.2594C20.5426 20.2594 23.0044 20.024 23.0044 22.3976V40.7587" stroke="white" stroke-width="0.980828" stroke-miterlimit="10"/>
<path d="M20.5815 20.7691V17.1989C20.5815 15.6296 21.8566 14.3545 23.4259 14.3545H30.331C31.9003 14.3545 33.1754 15.6296 33.1754 17.1989V23.7116" stroke="white" stroke-width="0.980828" stroke-miterlimit="10"/>
<path d="M28.3305 10H25.4175V14.3549H28.3305V10Z" fill="white"/>
<defs>
<linearGradient id="paint0_linear_672_1844" x1="12.9957" y1="48.5203" x2="39.0043" y2="3.47967" gradientUnits="userSpaceOnUse">
<stop stop-color="#0460A9"/>
<stop offset="1" stop-color="#50E2D0"/>
</linearGradient>
</defs>
</svg>
