<svg width="52" height="52" viewBox="0 0 52 52" fill="none" xmlns="http://www.w3.org/2000/svg">
<path d="M26 52C40.3594 52 52 40.3594 52 26C52 11.6406 40.3594 0 26 0C11.6406 0 0 11.6406 0 26C0 40.3594 11.6406 52 26 52Z" fill="url(#paint0_linear_672_1888)"/>
<path d="M12 28.0898C12 24.4698 14.94 21.5298 18.56 21.5298C22.18 21.5298 25.12 24.4698 25.12 28.0898" stroke="white" stroke-miterlimit="10"/>
<path d="M18.5601 21.38C21.4265 21.38 23.7501 19.0564 23.7501 16.19C23.7501 13.3236 21.4265 11 18.5601 11C15.6938 11 13.3701 13.3236 13.3701 16.19C13.3701 19.0564 15.6938 21.38 18.5601 21.38Z" stroke="white" stroke-miterlimit="10"/>
<path d="M23.75 40.2602C23.75 36.6402 26.69 33.7002 30.31 33.7002C33.93 33.7002 36.87 36.6402 36.87 40.2602" stroke="white" stroke-miterlimit="10"/>
<path d="M30.3101 33.5602C33.1765 33.5602 35.5001 31.2365 35.5001 28.3702C35.5001 25.5038 33.1765 23.1802 30.3101 23.1802C27.4438 23.1802 25.1201 25.5038 25.1201 28.3702C25.1201 31.2365 27.4438 33.5602 30.3101 33.5602Z" stroke="white" stroke-miterlimit="10"/>
<path d="M26.3501 13.5H33.2901V20.96" stroke="white" stroke-miterlimit="10"/>
<defs>
<linearGradient id="paint0_linear_672_1888" x1="12.9957" y1="48.5203" x2="39.0043" y2="3.47967" gradientUnits="userSpaceOnUse">
<stop stop-color="#0460A9"/>
<stop offset="1" stop-color="#50E2D0"/>
</linearGradient>
</defs>
</svg>
