<svg width="52" height="52" viewBox="0 0 52 52" fill="none" xmlns="http://www.w3.org/2000/svg">
<path d="M26 52C40.3594 52 52 40.3594 52 26C52 11.6406 40.3594 0 26 0C11.6406 0 0 11.6406 0 26C0 40.3594 11.6406 52 26 52Z" fill="url(#paint0_linear_672_1877)"/>
<path d="M23.7594 25.7249C27.2733 25.7249 30.1219 22.8763 30.1219 19.3625C30.1219 15.8486 27.2733 13 23.7594 13C20.2455 13 17.397 15.8486 17.397 19.3625C17.397 22.8763 20.2455 25.7249 23.7594 25.7249Z" stroke="white" stroke-width="0.887372" stroke-miterlimit="10"/>
<path d="M14.0066 34.9627C14.0066 34.9627 13.4032 25.7163 23.7588 25.7163" stroke="white" stroke-width="0.887372" stroke-miterlimit="10"/>
<path d="M24.3711 30.3389L31.5854 33.7376L38.5336 30.3389L31.4523 26.9048L24.3711 30.3389Z" stroke="white" stroke-width="0.887372" stroke-miterlimit="10"/>
<path d="M26.3418 31.2529V36.1601L31.4531 38.9731L36.5732 36.2488V31.5014" stroke="white" stroke-width="0.887372" stroke-miterlimit="10"/>
<path d="M24.0605 30.2681V38.7336" stroke="white" stroke-width="0.887372" stroke-miterlimit="10"/>
<defs>
<linearGradient id="paint0_linear_672_1877" x1="12.9957" y1="48.5203" x2="39.0043" y2="3.47967" gradientUnits="userSpaceOnUse">
<stop stop-color="#0460A9"/>
<stop offset="1" stop-color="#50E2D0"/>
</linearGradient>
</defs>
</svg>
