<svg width="361" height="357" viewBox="0 0 361 357" fill="none" xmlns="http://www.w3.org/2000/svg">
<g filter="url(#filter0_d_661_995)">
<rect x="2" y="2" width="353" height="349" rx="19.0804" fill="white"/>
<path d="M179 212C217.108 212 248 181.108 248 143C248 104.892 217.108 74 179 74C140.892 74 110 104.892 110 143C110 181.108 140.892 212 179 212Z" fill="url(#paint0_linear_661_995)"/>
<path fill-rule="evenodd" clip-rule="evenodd" d="M153.441 139.111H153.473C155.542 139.111 157.425 138.271 158.795 136.901C160.164 135.532 161.005 133.649 161.005 131.563C161.005 129.478 160.164 127.595 158.795 126.225C157.425 124.856 155.542 124 153.457 124C151.372 124 149.489 124.84 148.119 126.21C146.75 127.579 145.909 129.462 145.909 131.548C145.909 133.633 146.75 135.516 148.119 136.886C149.489 138.255 151.356 139.096 153.441 139.096V139.111ZM165.907 151.514C162.934 154.487 160.958 158.471 160.553 162.906H197.467C197.063 158.471 195.086 154.502 192.114 151.514C188.752 148.153 184.13 146.083 179.01 146.083C173.89 146.083 169.253 148.153 165.907 151.514ZM165.673 147.141C164.895 147.733 164.164 148.386 163.464 149.071C160.678 151.857 158.624 155.405 157.659 159.358H135C135.405 154.922 137.381 150.954 140.353 147.966C143.699 144.62 148.337 142.535 153.441 142.535H153.473C156.118 142.535 158.639 143.095 160.911 144.091C162.654 144.854 164.257 145.881 165.689 147.126H165.673V147.141ZM179.01 142.628C181.096 142.628 182.979 141.788 184.348 140.418C185.718 139.049 186.558 137.166 186.558 135.08C186.558 132.995 185.718 131.112 184.348 129.743C182.979 128.373 181.096 127.533 179.01 127.533C176.925 127.533 175.042 128.373 173.673 129.743C172.303 131.112 171.463 132.995 171.463 135.08C171.463 137.166 172.303 139.049 173.673 140.418C175.042 141.788 176.925 142.628 179.01 142.628ZM204.579 142.535C209.699 142.535 214.321 144.605 217.667 147.966C220.64 150.938 222.616 154.922 223.021 159.358H200.362C199.397 155.405 197.343 151.857 194.557 149.071C193.872 148.386 193.125 147.733 192.347 147.141C193.764 145.896 195.366 144.869 197.125 144.107C199.397 143.111 201.903 142.55 204.564 142.55H204.595L204.579 142.535ZM204.548 139.096H204.579C206.665 139.096 208.548 138.255 209.902 136.886C211.271 135.516 212.112 133.633 212.112 131.548C212.112 129.462 211.271 127.579 209.902 126.21C208.532 124.84 206.649 124 204.564 124C202.478 124 200.595 124.84 199.226 126.21C197.856 127.579 197.016 129.462 197.016 131.548C197.016 133.633 197.856 135.516 199.226 136.886C200.595 138.255 202.463 139.096 204.548 139.096Z" fill="white"/>
<path d="M54.8895 273V248.738H65.8161C68.7683 248.738 70.9401 249.552 72.4331 250.977C73.9941 252.436 74.8764 254.506 74.8764 256.949C74.8764 261.598 71.6527 264.89 66.6644 264.89H60.9975V273H54.8895ZM60.9975 260.139H65.4428C67.6146 260.139 68.8362 258.85 68.8362 256.915C68.8362 254.981 67.5806 253.794 65.4428 253.794H60.9975V260.139ZM85.2325 257.391C86.6237 256.576 87.1667 255.592 87.1667 254.472C87.1667 253.42 86.4201 252.606 85.3682 252.606C84.2484 252.606 83.5358 253.386 83.5358 254.472C83.5358 255.558 84.2823 256.542 85.2325 257.391ZM83.7733 268.962C84.961 268.962 86.0808 268.589 87.0649 267.91L82.9589 262.582C81.2622 263.6 80.6514 264.754 80.6514 266.145C80.6514 267.842 81.9748 268.962 83.7733 268.962ZM83.5358 273.407C77.9028 273.407 74.9167 270.319 74.9167 266.281C74.9167 262.582 77.292 260.58 80.2782 259.189C79.1244 257.798 78.4118 256.373 78.4118 254.506C78.4118 251.147 81.0247 248.602 85.2325 248.602C89.2027 248.602 92.087 250.841 92.087 254.438C92.087 257.458 90.085 259.053 87.6078 260.241L90.5261 263.906C90.9333 262.956 91.2726 261.87 91.4423 260.852H96.2269C95.9894 263.193 95.0732 265.636 93.5801 267.774L97.7539 273H91.0012L89.8135 271.473C87.9811 272.661 85.8433 273.407 83.5358 273.407ZM105.5 259.461H110.013C112.388 259.461 113.61 258.341 113.61 256.508C113.61 254.744 112.456 253.488 110.149 253.488H105.5V259.461ZM99.4936 273V248.738H111.099C115.917 248.738 119.582 251.215 119.582 255.728C119.582 258.544 118.191 260.614 115.374 261.598V261.7C117.478 262.413 118.564 263.736 118.904 266.145C119.413 269.335 119.073 272.389 119.922 272.695V273H114.085C113.44 272.627 113.542 269.776 113.169 267.367C112.863 265.127 111.71 263.906 109.131 263.906H105.5V273H99.4936ZM138.523 273.543C131.397 273.543 126.544 268.215 126.544 260.954C126.544 253.726 131.261 248.262 138.489 248.262C141.306 248.262 143.681 249.077 145.411 250.4C147.515 251.995 148.737 254.37 149.042 257.085H143.036C142.731 254.913 141.034 253.251 138.455 253.251C134.519 253.251 132.652 256.542 132.652 260.954C132.652 265.399 134.892 268.623 138.489 268.623C141.17 268.623 142.934 266.926 143.206 264.584H149.212C149.042 266.994 147.957 269.199 146.294 270.794C144.427 272.593 141.95 273.543 138.523 273.543ZM159.864 273.543C154.299 273.543 150.566 269.573 150.566 264.347C150.566 259.121 154.299 255.151 159.864 255.151C165.463 255.151 169.128 259.121 169.128 264.347C169.128 269.573 165.463 273.543 159.864 273.543ZM159.83 269.607C162.24 269.607 163.529 267.503 163.529 264.347C163.529 261.191 162.24 259.053 159.83 259.053C157.421 259.053 156.166 261.191 156.166 264.347C156.166 267.503 157.421 269.607 159.83 269.607ZM170.998 273V255.626H176.292V258.103H176.393C177.479 256.305 179.142 255.117 181.653 255.117C183.927 255.117 185.657 256.305 186.539 258.171H186.607C187.965 256.067 189.831 255.117 192.071 255.117C196.007 255.117 197.975 257.798 197.975 261.7V273H192.444V262.684C192.444 260.818 191.663 259.732 190.001 259.732C188.236 259.732 187.252 261.191 187.252 263.261V273H181.721V262.684C181.721 260.818 180.94 259.732 179.278 259.732C177.547 259.732 176.529 261.191 176.529 263.261V273H170.998ZM200.491 273V255.626H205.785V258.103H205.886C206.972 256.305 208.635 255.117 211.146 255.117C213.42 255.117 215.15 256.305 216.033 258.171H216.1C217.458 256.067 219.324 255.117 221.564 255.117C225.5 255.117 227.468 257.798 227.468 261.7V273H221.937V262.684C221.937 260.818 221.156 259.732 219.494 259.732C217.729 259.732 216.745 261.191 216.745 263.261V273H211.214V262.684C211.214 260.818 210.433 259.732 208.771 259.732C207.04 259.732 206.022 261.191 206.022 263.261V273H200.491ZM235.956 273.509C231.952 273.509 229.848 270.896 229.848 267.028V255.626H235.345V265.874C235.345 267.774 236.194 268.826 237.958 268.826C239.859 268.826 241.012 267.401 241.012 265.331V255.626H246.544V273H241.25V270.862H241.148C239.893 272.559 238.366 273.509 235.956 273.509ZM249.204 273V255.626H254.532V258.001H254.634C255.923 256.135 257.586 255.117 259.995 255.117C263.796 255.117 266.035 257.832 266.035 261.7V273H260.504V262.82C260.504 260.988 259.588 259.732 257.789 259.732C255.957 259.732 254.735 261.259 254.735 263.397V273H249.204ZM271.339 248.229C273.07 248.229 274.393 249.45 274.393 251.181C274.393 252.911 273.07 254.133 271.339 254.133C269.609 254.133 268.285 252.911 268.285 251.181C268.285 249.45 269.609 248.229 271.339 248.229ZM268.557 273V255.626H274.088V273H268.557ZM283.631 273.204C280.407 273.204 278.099 272.152 278.099 268.419V259.087H275.792V255.626H278.099V250.129H283.495V255.626H286.651V259.087H283.495V267.231C283.495 268.589 284.241 268.928 285.429 268.928C285.904 268.928 286.447 268.894 286.651 268.894V272.932C286.176 273.068 285.124 273.204 283.631 273.204ZM289.713 278.735V274.425H291.613C293.242 274.425 293.886 273.78 293.886 272.593C293.886 271.846 293.547 270.828 292.834 268.996L287.711 255.626H293.547L295.889 263.024C296.431 264.72 296.974 267.028 296.974 267.028H297.042C297.042 267.028 297.517 264.72 298.06 263.024L300.334 255.626H305.865L299.859 273.238C298.467 277.31 296.805 278.735 293.31 278.735H289.713Z" fill="#002068"/>
</g>
<defs>
<filter id="filter0_d_661_995" x="0" y="0" width="361" height="357" filterUnits="userSpaceOnUse" color-interpolation-filters="sRGB">
<feFlood flood-opacity="0" result="BackgroundImageFix"/>
<feColorMatrix in="SourceAlpha" type="matrix" values="0 0 0 0 0 0 0 0 0 0 0 0 0 0 0 0 0 0 127 0" result="hardAlpha"/>
<feOffset dx="2" dy="2"/>
<feGaussianBlur stdDeviation="2"/>
<feComposite in2="hardAlpha" operator="out"/>
<feColorMatrix type="matrix" values="0 0 0 0 0 0 0 0 0 0 0 0 0 0 0 0 0 0 0.25 0"/>
<feBlend mode="normal" in2="BackgroundImageFix" result="effect1_dropShadow_661_995"/>
<feBlend mode="normal" in="SourceGraphic" in2="effect1_dropShadow_661_995" result="shape"/>
</filter>
<linearGradient id="paint0_linear_661_995" x1="144.488" y1="202.766" x2="213.512" y2="83.2345" gradientUnits="userSpaceOnUse">
<stop stop-color="#0460A9"/>
<stop offset="1" stop-color="#50E2D0"/>
</linearGradient>
</defs>
</svg>
