<svg width="23" height="23" viewBox="0 0 23 23" fill="none" xmlns="http://www.w3.org/2000/svg">
<path d="M1.36184 19.761C0.636302 19.761 0.0465587 20.3507 0.0465587 21.0762C0.0465587 21.8018 0.636302 22.3915 1.36184 22.3915C2.08738 22.3915 2.67713 21.8018 2.67713 21.0762C2.67713 20.3468 2.08738 19.761 1.36184 19.761ZM22.7711 1.34312L20.4587 0.027832V2.70496L22.7711 1.34312ZM9.97908 6.83316L10.2041 5.65368C10.2507 5.47132 10.4292 5.28897 10.6581 5.28897H12.3381C12.5631 5.28897 12.7454 5.47132 12.792 5.65368L13.017 6.83316C13.5602 7.01552 14.1073 7.33367 14.5574 7.6945L15.6903 7.32979C15.8726 7.24055 16.0977 7.32979 16.1908 7.51214L17.0521 8.96322C17.1414 9.18826 17.0987 9.41717 16.9629 9.55297L16.055 10.3251C16.1016 10.5967 16.1442 10.9148 16.1442 11.233C16.1442 11.5046 16.0977 11.8227 16.055 12.0943L16.9629 12.9091C17.0987 12.9983 17.1452 13.2272 17.0521 13.4523L16.1908 14.9033C16.1016 15.0857 15.8726 15.1749 15.6903 15.1284L14.5574 14.721C14.1034 15.0857 13.5602 15.4 13.017 15.6289L12.792 16.8084C12.7454 16.9907 12.567 17.1265 12.3381 17.1265H10.6581C10.433 17.1265 10.2507 16.9907 10.2041 16.8084L9.97908 15.6289C9.4359 15.4038 8.88883 15.0857 8.43877 14.721L7.30584 15.1284C7.12348 15.1749 6.89845 15.0818 6.80533 14.9033L5.94399 13.4523C5.85476 13.2272 5.89744 12.9983 6.03323 12.9091L6.94113 12.0943C6.89457 11.8227 6.85189 11.5046 6.85189 11.233C6.85189 10.9148 6.89845 10.5967 6.94113 10.3251L6.03323 9.55297C5.89744 9.41717 5.8082 9.18826 5.94399 8.96322L6.75877 7.51214C6.89457 7.32979 7.12348 7.24055 7.30196 7.32979L8.43489 7.6945C8.89271 7.33367 9.4359 7.01552 9.97908 6.83316ZM11.4767 8.78475C10.1614 8.78475 9.07119 9.875 9.07119 11.233C9.07119 12.5482 10.1614 13.6385 11.4767 13.6385C12.8386 13.6385 13.9249 12.5482 13.9249 11.233C13.9249 9.87112 12.8386 8.78475 11.4767 8.78475ZM16.6486 10.7325C16.6952 11.0506 16.6952 11.4114 16.6486 11.7296H17.6923C20.0978 11.7296 21.9563 13.7704 21.9563 16.1759C21.9563 18.5349 20.0978 20.5757 17.6923 20.5757H3.22419C3.31343 20.8939 3.31343 21.2547 3.17763 21.5729H17.6923C20.641 21.5729 23 19.0781 23 16.1759C23 13.2272 20.641 10.7325 17.6923 10.7325H16.6486ZM6.21559 10.6898H5.30769C2.90216 10.6898 1.04369 8.64895 1.04369 6.28998C1.04369 3.931 2.90216 1.84362 5.30769 1.84362H19.865V0.846489H5.30769C2.35897 0.846489 0 3.34126 0 6.28998C0 9.19214 2.35897 11.7335 5.30769 11.7335H6.21559C6.16903 11.5511 6.16903 11.3688 6.16903 11.233C6.16903 11.0506 6.16903 10.8682 6.21559 10.6898Z" fill="#002068"/>
</svg>
