<svg width="82" height="63" viewBox="0 0 82 63" fill="none" xmlns="http://www.w3.org/2000/svg">
<path d="M4.39222 50.818H6.78622C8.04622 50.818 8.69422 50.224 8.69422 49.252C8.69422 48.316 8.08222 47.65 6.85822 47.65H4.39222V50.818ZM1.20622 58V45.13H7.36222C9.91822 45.13 11.8622 46.444 11.8622 48.838C11.8622 50.332 11.1242 51.43 9.63022 51.952V52.006C10.7462 52.384 11.3222 53.086 11.5022 54.364C11.7722 56.056 11.5922 57.676 12.0422 57.838V58H8.94622C8.60422 57.802 8.65822 56.29 8.46022 55.012C8.29822 53.824 7.68622 53.176 6.31822 53.176H4.39222V58H1.20622ZM17.5145 58.27C14.4725 58.27 12.6005 56.164 12.6005 53.374C12.6005 50.62 14.5265 48.514 17.3345 48.514C18.6485 48.514 19.6925 48.946 20.4845 49.666C21.5825 50.674 22.1225 52.276 22.1045 54.148H15.4805C15.6605 55.39 16.3445 56.164 17.5505 56.164C18.3245 56.164 18.8285 55.822 19.0805 55.246H21.9425C21.7445 56.074 21.2045 56.866 20.3945 57.424C19.6205 57.964 18.6845 58.27 17.5145 58.27ZM15.4985 52.402H19.1345C19.0265 51.304 18.3425 50.602 17.3885 50.602C16.2725 50.602 15.6965 51.304 15.4985 52.402ZM27.9108 56.02C29.0268 56.02 29.7108 55.066 29.7108 53.5C29.7108 51.916 29.1168 50.872 27.8568 50.872C26.5788 50.872 25.9308 52.006 25.9308 53.5C25.9308 54.994 26.6508 56.02 27.9108 56.02ZM23.0868 61.042V48.784H25.8948V49.9H25.9488C26.5788 49.072 27.4788 48.514 28.7388 48.514C31.1868 48.514 32.6808 50.62 32.6808 53.392C32.6808 56.38 31.0788 58.288 28.6668 58.288C27.4788 58.288 26.6328 57.82 26.0568 57.046H26.0208V61.042H23.0868ZM38.1868 58.288C35.2348 58.288 33.2548 56.182 33.2548 53.41C33.2548 50.638 35.2348 48.532 38.1868 48.532C41.1568 48.532 43.1008 50.638 43.1008 53.41C43.1008 56.182 41.1568 58.288 38.1868 58.288ZM38.1688 56.2C39.4468 56.2 40.1308 55.084 40.1308 53.41C40.1308 51.736 39.4468 50.602 38.1688 50.602C36.8908 50.602 36.2248 51.736 36.2248 53.41C36.2248 55.084 36.8908 56.2 38.1688 56.2ZM44.0926 58V48.784H46.9006V50.224H46.9546C47.6026 49.126 48.3586 48.64 49.4746 48.64C49.7446 48.64 49.9246 48.658 50.0506 48.712V51.232H49.9786C48.1786 50.98 47.0266 51.862 47.0266 53.86V58H44.0926ZM54.813 58.108C53.103 58.108 51.879 57.55 51.879 55.57V50.62H50.655V48.784H51.879V45.868H54.741V48.784H56.415V50.62H54.741V54.94C54.741 55.66 55.137 55.84 55.767 55.84C56.019 55.84 56.307 55.822 56.415 55.822V57.964C56.163 58.036 55.605 58.108 54.813 58.108ZM58.9456 44.86C59.8636 44.86 60.5656 45.508 60.5656 46.426C60.5656 47.344 59.8636 47.992 58.9456 47.992C58.0276 47.992 57.3256 47.344 57.3256 46.426C57.3256 45.508 58.0276 44.86 58.9456 44.86ZM57.4696 58V48.784H60.4036V58H57.4696ZM61.8114 58V48.784H64.6374V50.044H64.6914C65.3754 49.054 66.2574 48.514 67.5354 48.514C69.5514 48.514 70.7394 49.954 70.7394 52.006V58H67.8054V52.6C67.8054 51.628 67.3194 50.962 66.3654 50.962C65.3934 50.962 64.7454 51.772 64.7454 52.906V58H61.8114ZM76.343 55.318C77.621 55.318 78.215 54.31 78.215 53.014C78.215 51.772 77.567 50.728 76.343 50.728C75.245 50.728 74.525 51.628 74.525 53.032C74.525 54.418 75.245 55.318 76.343 55.318ZM76.361 61.186C73.823 61.186 72.149 60.142 71.861 58.216H74.705C74.867 58.702 75.353 59.116 76.325 59.116C77.567 59.116 78.089 58.468 78.089 57.352V56.434H78.017C77.477 57.046 76.775 57.496 75.659 57.496C73.589 57.496 71.663 55.948 71.663 53.122C71.663 50.422 73.247 48.514 75.533 48.514C76.757 48.514 77.585 49 78.125 49.774H78.161V48.784H80.969V57.1C80.969 58.486 80.483 59.494 79.745 60.16C78.935 60.88 77.729 61.186 76.361 61.186Z" fill="white"/>
<path d="M30.2452 23.9901C30.2452 22.8168 29.2949 21.8656 28.1226 21.8656C26.9503 21.8656 26 22.8168 26 23.9901V28.3103C26 29.4837 26.9503 30.4348 28.1226 30.4348C29.2949 30.4348 30.2452 29.4837 30.2452 28.3103V23.9901Z" stroke="white" stroke-width="0.919565" stroke-linecap="round" stroke-linejoin="round"/>
<path d="M30.2452 15.2576C30.2452 14.0853 29.2949 13.135 28.1226 13.135C26.9503 13.135 26 14.0853 26 15.2576C26 16.4299 26.9503 17.3802 28.1226 17.3802C29.2949 17.3802 30.2452 16.4299 30.2452 15.2576Z" stroke="white" stroke-width="0.919565" stroke-linecap="round" stroke-linejoin="round"/>
<path d="M38.5177 9.92399C38.5177 8.75171 37.5673 7.80139 36.3951 7.80139C35.2228 7.80139 34.2725 8.75171 34.2725 9.92399C34.2725 11.0963 35.2228 12.0466 36.3951 12.0466C37.5673 12.0466 38.5177 11.0963 38.5177 9.92399Z" stroke="white" stroke-width="0.919565" stroke-linecap="round" stroke-linejoin="round"/>
<path d="M46.817 15.2576C46.817 14.0853 45.8667 13.135 44.6944 13.135C43.5221 13.135 42.5718 14.0853 42.5718 15.2576C42.5718 16.4299 43.5221 17.3802 44.6944 17.3802C45.8667 17.3802 46.817 16.4299 46.817 15.2576Z" stroke="white" stroke-width="0.919565" stroke-linecap="round" stroke-linejoin="round"/>
<path d="M55.1197 3.1226C55.1197 1.95032 54.1694 1 52.9971 1C51.8248 1 50.8745 1.95032 50.8745 3.1226C50.8745 4.29488 51.8248 5.24519 52.9971 5.24519C54.1694 5.24519 55.1197 4.29488 55.1197 3.1226Z" stroke="white" stroke-width="0.919565" stroke-linecap="round" stroke-linejoin="round"/>
<path d="M38.5177 19.5123C38.5177 18.339 37.5673 17.3878 36.3951 17.3878C35.2228 17.3878 34.2725 18.339 34.2725 19.5123V28.3067C34.2725 29.48 35.2228 30.4312 36.3951 30.4312C37.5673 30.4312 38.5177 29.48 38.5177 28.3067V19.5123Z" stroke="white" stroke-width="0.919565" stroke-linecap="round" stroke-linejoin="round"/>
<path d="M46.817 23.9901C46.817 22.8168 45.8667 21.8656 44.6944 21.8656C43.5221 21.8656 42.5718 22.8168 42.5718 23.9901V28.3103C42.5718 29.4837 43.5221 30.4348 44.6944 30.4348C45.8667 30.4348 46.817 29.4837 46.817 28.3103V23.9901Z" stroke="white" stroke-width="0.919565" stroke-linecap="round" stroke-linejoin="round"/>
<path d="M55.1197 13.2589C55.1197 12.0856 54.1694 11.1344 52.9971 11.1344C51.8248 11.1344 50.8745 12.0856 50.8745 13.2589V28.3104C50.8745 29.4837 51.8248 30.4348 52.9971 30.4348C54.1694 30.4348 55.1197 29.4837 55.1197 28.3104V13.2589Z" stroke="white" stroke-width="0.919565" stroke-linecap="round" stroke-linejoin="round"/>
<path d="M29.9033 13.9045L34.4188 10.9768" stroke="white" stroke-width="0.919565" stroke-linecap="round" stroke-linejoin="round"/>
<path d="M38.3379 11.1082L42.6844 13.9045" stroke="white" stroke-width="0.919565" stroke-linecap="round" stroke-linejoin="round"/>
<path d="M45.9946 13.3866L51.6774 5.03882" stroke="white" stroke-width="0.919565" stroke-linecap="round" stroke-linejoin="round"/>
</svg>
