<svg width="102" height="63" viewBox="0 0 102 63" fill="none" xmlns="http://www.w3.org/2000/svg">
<path d="M6.11454 58.306C2.69454 58.306 0.444539 56.794 0.372539 53.95H3.57654C3.72054 55.246 4.56654 55.786 6.09654 55.786C7.14054 55.786 8.16654 55.408 8.16654 54.436C8.16654 53.41 7.12254 53.194 5.35854 52.762C3.12654 52.24 0.768539 51.556 0.768539 48.856C0.768539 46.102 3.00054 44.896 5.88054 44.896C8.67054 44.896 10.8305 46.156 10.9565 48.856H7.84254C7.71654 47.866 6.96054 47.308 5.77254 47.308C4.65654 47.308 3.91854 47.794 3.91854 48.514C3.91854 49.414 4.90854 49.63 6.83454 50.062C9.22854 50.62 11.3885 51.358 11.3885 54.112C11.3885 56.812 9.08454 58.306 6.11454 58.306ZM17.1175 58.288C14.1655 58.288 12.1855 56.182 12.1855 53.41C12.1855 50.638 14.1655 48.532 17.1175 48.532C20.0875 48.532 22.0315 50.638 22.0315 53.41C22.0315 56.182 20.0875 58.288 17.1175 58.288ZM17.0995 56.2C18.3775 56.2 19.0615 55.084 19.0615 53.41C19.0615 51.736 18.3775 50.602 17.0995 50.602C15.8215 50.602 15.1555 51.736 15.1555 53.41C15.1555 55.084 15.8215 56.2 17.0995 56.2ZM26.9473 58.288C24.2473 58.288 22.5553 57.046 22.4653 55.012H25.2373C25.3453 55.93 25.9573 56.38 26.9293 56.38C27.8113 56.38 28.3693 56.056 28.3693 55.462C28.3693 54.634 27.2533 54.544 26.0293 54.328C24.4273 54.058 22.7173 53.626 22.7173 51.466C22.7173 49.522 24.5173 48.514 26.6953 48.514C29.3053 48.514 30.7093 49.648 30.8533 51.466H28.1533C28.0453 50.638 27.4873 50.386 26.6773 50.386C25.9573 50.386 25.3993 50.656 25.3993 51.232C25.3993 51.88 26.4433 51.97 27.6133 52.186C29.2333 52.456 31.1413 52.87 31.1413 55.228C31.1413 57.244 29.3593 58.288 26.9473 58.288ZM35.4839 58.108C33.7739 58.108 32.5499 57.55 32.5499 55.57V50.62H31.3259V48.784H32.5499V45.868H35.4119V48.784H37.0859V50.62H35.4119V54.94C35.4119 55.66 35.8079 55.84 36.4379 55.84C36.6899 55.84 36.9779 55.822 37.0859 55.822V57.964C36.8339 58.036 36.2759 58.108 35.4839 58.108ZM42.5526 58.27C39.5106 58.27 37.6386 56.164 37.6386 53.374C37.6386 50.62 39.5646 48.514 42.3726 48.514C43.6866 48.514 44.7306 48.946 45.5226 49.666C46.6206 50.674 47.1606 52.276 47.1426 54.148H40.5186C40.6986 55.39 41.3826 56.164 42.5886 56.164C43.3626 56.164 43.8666 55.822 44.1186 55.246H46.9806C46.7826 56.074 46.2426 56.866 45.4326 57.424C44.6586 57.964 43.7226 58.27 42.5526 58.27ZM40.5366 52.402H44.1726C44.0646 51.304 43.3806 50.602 42.4266 50.602C41.3106 50.602 40.7346 51.304 40.5366 52.402ZM48.1249 58V48.784H50.9509V50.044H51.0049C51.6889 49.054 52.5709 48.514 53.8489 48.514C55.8649 48.514 57.0529 49.954 57.0529 52.006V58H54.1189V52.6C54.1189 51.628 53.6329 50.962 52.6789 50.962C51.7069 50.962 51.0589 51.772 51.0589 52.906V58H48.1249ZM59.8665 44.86C60.7845 44.86 61.4865 45.508 61.4865 46.426C61.4865 47.344 60.7845 47.992 59.8665 47.992C58.9485 47.992 58.2465 47.344 58.2465 46.426C58.2465 45.508 58.9485 44.86 59.8665 44.86ZM58.3905 58V48.784H61.3245V58H58.3905ZM68.3663 58.288C67.1423 58.288 66.1523 57.784 65.5763 56.83H65.5403V58H62.7323V45.13H65.6663V49.828H65.7203C66.2963 49.036 67.0883 48.514 68.3483 48.514C70.7423 48.514 72.2903 50.62 72.2903 53.392C72.2903 56.452 70.7423 58.288 68.3663 58.288ZM67.5383 55.966C68.6903 55.966 69.3203 54.976 69.3203 53.374C69.3203 51.79 68.6903 50.746 67.5023 50.746C66.2063 50.746 65.5763 51.88 65.5763 53.392C65.5763 54.922 66.3323 55.966 67.5383 55.966ZM74.7551 44.86C75.6731 44.86 76.3751 45.508 76.3751 46.426C76.3751 47.344 75.6731 47.992 74.7551 47.992C73.8371 47.992 73.1351 47.344 73.1351 46.426C73.1351 45.508 73.8371 44.86 74.7551 44.86ZM73.2791 58V48.784H76.2131V58H73.2791ZM77.6389 58V45.13H80.6089V58H77.6389ZM83.5091 44.86C84.4271 44.86 85.1291 45.508 85.1291 46.426C85.1291 47.344 84.4271 47.992 83.5091 47.992C82.5911 47.992 81.8891 47.344 81.8891 46.426C81.8891 45.508 82.5911 44.86 83.5091 44.86ZM82.0331 58V48.784H84.9671V58H82.0331ZM90.0289 58.108C88.3189 58.108 87.0949 57.55 87.0949 55.57V50.62H85.8709V48.784H87.0949V45.868H89.9569V48.784H91.6309V50.62H89.9569V54.94C89.9569 55.66 90.3529 55.84 90.9829 55.84C91.2349 55.84 91.5229 55.822 91.6309 55.822V57.964C91.3789 58.036 90.8209 58.108 90.0289 58.108ZM96.5152 56.362C97.6132 56.362 98.3692 55.696 98.3692 54.706V53.608C97.9912 53.806 97.4512 53.95 96.8572 54.094C95.7232 54.346 95.2552 54.634 95.2552 55.336C95.2552 56.074 95.7952 56.362 96.5152 56.362ZM95.5792 58.234C93.7432 58.234 92.4292 57.244 92.4292 55.426C92.4292 53.392 94.0492 52.78 95.9572 52.528C97.6852 52.312 98.2972 52.132 98.2972 51.502C98.2972 50.908 97.9192 50.512 97.0372 50.512C96.1012 50.512 95.6332 50.926 95.5432 51.7H92.8432C92.9152 49.99 94.2292 48.532 97.0192 48.532C98.4052 48.532 99.3412 48.784 100.007 49.288C100.799 49.864 101.177 50.764 101.177 51.916V56.56C101.177 57.298 101.249 57.712 101.501 57.874V58H98.6572C98.5132 57.802 98.4232 57.442 98.3512 56.974H98.3152C97.7752 57.748 96.9652 58.234 95.5792 58.234ZM96.1912 47.704L94.0132 45.04H97.3972L98.4232 47.704H96.1912Z" fill="#F8AF3C"/>
<path d="M51.558 30.1193C59.5981 30.1193 66.1159 23.6015 66.1159 15.5614C66.1159 7.52123 59.5981 1.00342 51.558 1.00342C43.5178 1.00342 37 7.52123 37 15.5614C37 23.6015 43.5178 30.1193 51.558 30.1193Z" stroke="#F8AF3C" stroke-width="0.915364" stroke-linecap="round" stroke-linejoin="round"/>
<path d="M59.2106 18.315C58.5223 25.0375 55.3588 30.1196 51.5582 30.1196C47.256 30.1196 43.7666 23.6022 43.7666 15.5616C43.7666 14.8293 43.7959 14.1117 43.8508 13.4087" stroke="#F8AF3C" stroke-width="0.915364" stroke-linecap="round" stroke-linejoin="round"/>
<path d="M44.5391 9.22363C45.7986 4.35756 48.4678 1 51.5581 1C55.593 1 58.9103 6.73018 59.3094 14.0714" stroke="#F8AF3C" stroke-width="0.915364" stroke-linecap="round" stroke-linejoin="round"/>
<path d="M45.7588 10.0365C46.3263 9.63376 46.9195 9.24199 47.5383 8.87218C54.4328 4.73107 61.8143 4.36493 64.0331 8.05567" stroke="#F8AF3C" stroke-width="0.915364" stroke-linecap="round" stroke-linejoin="round"/>
<path d="M39.0684 23.0455C37.4684 20.3836 38.9989 16.3341 42.5688 12.7275" stroke="#F8AF3C" stroke-width="0.915364" stroke-linecap="round" stroke-linejoin="round"/>
<path d="M61.2715 17.0557C63.2084 18.0955 64.5338 19.5967 64.8817 21.4018" stroke="#F8AF3C" stroke-width="0.915364" stroke-linecap="round" stroke-linejoin="round"/>
<path d="M40.3726 24.8798C40.0174 20.7204 44.9347 16.6452 51.551 15.6895C53.5868 15.3966 55.5493 15.4332 57.3178 15.7408" stroke="#F8AF3C" stroke-width="0.915364" stroke-linecap="round" stroke-linejoin="round"/>
<path d="M44.1073 13.405C45.262 13.405 46.198 12.469 46.198 11.3143C46.198 10.1597 45.262 9.22363 44.1073 9.22363C42.9526 9.22363 42.0166 10.1597 42.0166 11.3143C42.0166 12.469 42.9526 13.405 44.1073 13.405Z" stroke="#F8AF3C" stroke-width="0.915364" stroke-linecap="round" stroke-linejoin="round"/>
<path d="M59.3495 18.3225C60.5041 18.3225 61.4402 17.3865 61.4402 16.2318C61.4402 15.0771 60.5041 14.1411 59.3495 14.1411C58.1948 14.1411 57.2588 15.0771 57.2588 16.2318C57.2588 17.3865 58.1948 18.3225 59.3495 18.3225Z" stroke="#F8AF3C" stroke-width="0.915364" stroke-linecap="round" stroke-linejoin="round"/>
</svg>
