<svg width="75" height="66" viewBox="0 0 75 66" fill="none" xmlns="http://www.w3.org/2000/svg">
<path d="M6.387 61.306C2.967 61.306 0.717 59.794 0.645 56.95H3.849C3.993 58.246 4.839 58.786 6.369 58.786C7.413 58.786 8.439 58.408 8.439 57.436C8.439 56.41 7.395 56.194 5.631 55.762C3.399 55.24 1.041 54.556 1.041 51.856C1.041 49.102 3.273 47.896 6.153 47.896C8.943 47.896 11.103 49.156 11.229 51.856H8.115C7.989 50.866 7.233 50.308 6.045 50.308C4.929 50.308 4.191 50.794 4.191 51.514C4.191 52.414 5.181 52.63 7.107 53.062C9.501 53.62 11.661 54.358 11.661 57.112C11.661 59.812 9.357 61.306 6.387 61.306ZM16.2623 61.108C14.5522 61.108 13.3283 60.55 13.3283 58.57V53.62H12.1043V51.784H13.3283V48.868H16.1903V51.784H17.8643V53.62H16.1903V57.94C16.1903 58.66 16.5863 58.84 17.2163 58.84C17.4683 58.84 17.7563 58.822 17.8643 58.822V60.964C17.6123 61.036 17.0543 61.108 16.2623 61.108ZM23.3489 61.288C20.3969 61.288 18.4169 59.182 18.4169 56.41C18.4169 53.638 20.3969 51.532 23.3489 51.532C26.3189 51.532 28.2629 53.638 28.2629 56.41C28.2629 59.182 26.3189 61.288 23.3489 61.288ZM23.3309 59.2C24.6089 59.2 25.2929 58.084 25.2929 56.41C25.2929 54.736 24.6089 53.602 23.3309 53.602C22.0529 53.602 21.3869 54.736 21.3869 56.41C21.3869 58.084 22.0529 59.2 23.3309 59.2ZM33.7367 61.288C30.7667 61.288 28.8407 59.182 28.8407 56.41C28.8407 53.638 30.7487 51.532 33.6647 51.532C36.1667 51.532 37.7687 52.99 38.0387 55.06H35.2127C35.0327 54.232 34.5287 53.692 33.7007 53.692C32.4407 53.692 31.8107 54.736 31.8107 56.41C31.8107 58.048 32.4407 59.092 33.7007 59.092C34.6187 59.092 35.1767 58.552 35.3027 57.508H38.1107C38.0387 59.632 36.3467 61.288 33.7367 61.288ZM39.0458 61V48.13H41.9438V54.898L44.6798 51.784H48.0638L44.8238 55.24L48.4418 61H45.0398L42.8258 57.238L41.9438 58.174V61H39.0458ZM52.9153 61.288C49.9633 61.288 47.9833 59.182 47.9833 56.41C47.9833 53.638 49.9633 51.532 52.9153 51.532C55.8853 51.532 57.8293 53.638 57.8293 56.41C57.8293 59.182 55.8853 61.288 52.9153 61.288ZM52.8973 59.2C54.1753 59.2 54.8593 58.084 54.8593 56.41C54.8593 54.736 54.1753 53.602 52.8973 53.602C51.6193 53.602 50.9533 54.736 50.9533 56.41C50.9533 58.084 51.6193 59.2 52.8973 59.2ZM61.9891 61.27C59.8651 61.27 58.7491 59.884 58.7491 57.832V51.784H61.6651V57.22C61.6651 58.228 62.1151 58.786 63.0511 58.786C64.0591 58.786 64.6711 58.03 64.6711 56.932V51.784H67.6051V61H64.7971V59.866H64.7431C64.0771 60.766 63.2671 61.27 61.9891 61.27ZM72.6705 61.108C70.9605 61.108 69.7365 60.55 69.7365 58.57V53.62H68.5125V51.784H69.7365V48.868H72.5985V51.784H74.2725V53.62H72.5985V57.94C72.5985 58.66 72.9945 58.84 73.6245 58.84C73.8765 58.84 74.1645 58.822 74.2725 58.822V60.964C74.0205 61.036 73.4625 61.108 72.6705 61.108Z" fill="#F8AF3C"/>
<g clip-path="url(#clip0_93_418)">
<path d="M33.8571 17.207L29.6001 12.95C28.5448 11.8947 28.5448 10.1954 29.6001 9.14012C30.6554 8.0848 32.3546 8.0848 33.4099 9.14012L38.2036 13.9338" stroke="#F8AF3C" stroke-width="1.0732" stroke-miterlimit="10"/>
<path d="M41.2263 16.9746L46.0199 21.7682C47.0752 22.8236 47.0752 24.5228 46.0199 25.5781C44.9646 26.6334 43.2654 26.6334 42.21 25.5781L37.6489 21.017" stroke="#F8AF3C" stroke-width="1.0732" stroke-miterlimit="10"/>
<path d="M37.8101 13.5581L42.2281 9.14012C43.2834 8.0848 44.9826 8.0848 46.0379 9.14012C47.0933 10.1954 47.0933 11.8947 46.0379 12.95L41.6199 17.368" stroke="#F8AF3C" stroke-width="1.0732" stroke-miterlimit="10"/>
<path d="M38.186 20.7842L33.3924 25.5779C32.3371 26.6332 30.6378 26.6332 29.5825 25.5779C28.5272 24.5226 28.5272 22.8233 29.5825 21.768L34.3046 16.9028" stroke="#F8AF3C" stroke-width="1.0732" stroke-miterlimit="10"/>
<path d="M23.5366 9.2116V26.3649L37.8102 33.5017L51.583 25.6137V9.2116L37.5598 0.625977L23.5366 9.2116Z" stroke="#F8AF3C" stroke-width="1.0732" stroke-miterlimit="10"/>
<path d="M28.9741 11.9663V17.3502H33.3564" stroke="#F8AF3C" stroke-width="1.0732" stroke-miterlimit="10"/>
<path d="M51.5825 9.21143L46.0376 12.9319" stroke="#F8AF3C" stroke-width="1.0732" stroke-miterlimit="10"/>
<path d="M42.9975 3.86377L33.8574 9.46231" stroke="#F8AF3C" stroke-width="1.0732" stroke-miterlimit="10"/>
<path d="M46.6999 6.40332L43.3193 8.47818" stroke="#F8AF3C" stroke-width="1.0732" stroke-miterlimit="10"/>
<path d="M37.8101 33.502L37.667 21.0171" stroke="#F8AF3C" stroke-width="1.0732" stroke-miterlimit="10"/>
<path d="M23.5366 9.21143L28.9742 11.966" stroke="#F8AF3C" stroke-width="1.0732" stroke-miterlimit="10"/>
</g>
<defs>
<clipPath id="clip0_93_418">
<rect width="29.1196" height="34.11" fill="white" transform="translate(23)"/>
</clipPath>
</defs>
</svg>
