<svg width="111" height="65" viewBox="0 0 111 65" fill="none" xmlns="http://www.w3.org/2000/svg">
<path d="M5.212 60L0.964 47.13H4.276L6.292 53.88C6.58 54.852 6.886 56.148 6.886 56.148H6.922C6.922 56.148 7.246 54.834 7.516 53.88L9.514 47.13H12.736L8.506 60H5.212ZM15.815 58.362C16.913 58.362 17.669 57.696 17.669 56.706V55.608C17.291 55.806 16.751 55.95 16.157 56.094C15.023 56.346 14.555 56.634 14.555 57.336C14.555 58.074 15.095 58.362 15.815 58.362ZM14.879 60.234C13.043 60.234 11.729 59.244 11.729 57.426C11.729 55.392 13.349 54.78 15.257 54.528C16.985 54.312 17.597 54.132 17.597 53.502C17.597 52.908 17.219 52.512 16.337 52.512C15.401 52.512 14.933 52.926 14.843 53.7H12.143C12.215 51.99 13.529 50.532 16.319 50.532C17.705 50.532 18.641 50.784 19.307 51.288C20.099 51.864 20.477 52.764 20.477 53.916V58.56C20.477 59.298 20.549 59.712 20.801 59.874V60H17.957C17.813 59.802 17.723 59.442 17.651 58.974H17.615C17.075 59.748 16.265 60.234 14.879 60.234ZM23.3753 46.86C24.2933 46.86 24.9953 47.508 24.9953 48.426C24.9953 49.344 24.2933 49.992 23.3753 49.992C22.4573 49.992 21.7553 49.344 21.7553 48.426C21.7553 47.508 22.4573 46.86 23.3753 46.86ZM21.8993 60V50.784H24.8333V60H21.8993ZM32.69 58.362C33.788 58.362 34.544 57.696 34.544 56.706V55.608C34.166 55.806 33.626 55.95 33.032 56.094C31.898 56.346 31.43 56.634 31.43 57.336C31.43 58.074 31.97 58.362 32.69 58.362ZM31.754 60.234C29.918 60.234 28.604 59.244 28.604 57.426C28.604 55.392 30.224 54.78 32.132 54.528C33.86 54.312 34.472 54.132 34.472 53.502C34.472 52.908 34.094 52.512 33.212 52.512C32.276 52.512 31.808 52.926 31.718 53.7H29.018C29.09 51.99 30.404 50.532 33.194 50.532C34.58 50.532 35.516 50.784 36.182 51.288C36.974 51.864 37.352 52.764 37.352 53.916V58.56C37.352 59.298 37.424 59.712 37.676 59.874V60H34.832C34.688 59.802 34.598 59.442 34.526 58.974H34.49C33.95 59.748 33.14 60.234 31.754 60.234ZM40.2503 46.86C41.1683 46.86 41.8703 47.508 41.8703 48.426C41.8703 49.344 41.1683 49.992 40.2503 49.992C39.3323 49.992 38.6303 49.344 38.6303 48.426C38.6303 47.508 39.3323 46.86 40.2503 46.86ZM38.7743 60V50.784H41.7083V60H38.7743ZM50.735 58.02C51.851 58.02 52.535 57.066 52.535 55.5C52.535 53.916 51.941 52.872 50.681 52.872C49.403 52.872 48.755 54.006 48.755 55.5C48.755 56.994 49.475 58.02 50.735 58.02ZM45.911 63.042V50.784H48.719V51.9H48.773C49.403 51.072 50.303 50.514 51.563 50.514C54.011 50.514 55.505 52.62 55.505 55.392C55.505 58.38 53.903 60.288 51.491 60.288C50.303 60.288 49.457 59.82 48.881 59.046H48.845V63.042H45.911ZM56.493 60V50.784H59.301V52.224H59.355C60.003 51.126 60.759 50.64 61.875 50.64C62.145 50.64 62.325 50.658 62.451 50.712V53.232H62.379C60.579 52.98 59.427 53.862 59.427 55.86V60H56.493ZM67.7259 60.288C64.7739 60.288 62.7939 58.182 62.7939 55.41C62.7939 52.638 64.7739 50.532 67.7259 50.532C70.6959 50.532 72.6399 52.638 72.6399 55.41C72.6399 58.182 70.6959 60.288 67.7259 60.288ZM67.7079 58.2C68.9859 58.2 69.6699 57.084 69.6699 55.41C69.6699 53.736 68.9859 52.602 67.7079 52.602C66.4299 52.602 65.7639 53.736 65.7639 55.41C65.7639 57.084 66.4299 58.2 67.7079 58.2ZM78.0057 57.966C79.2297 57.966 79.9497 56.904 79.9497 55.392C79.9497 53.844 79.3197 52.728 78.0417 52.728C76.8717 52.728 76.1877 53.808 76.1877 55.356C76.1877 56.958 76.8717 57.966 78.0057 57.966ZM77.2497 60.288C74.8917 60.288 73.2177 58.47 73.2177 55.392C73.2177 52.512 74.8737 50.514 77.2497 50.514C78.5457 50.514 79.2837 51.054 79.8237 51.828H79.8777V47.13H82.8117V60H80.0037V58.758H79.9677C79.4097 59.712 78.4557 60.288 77.2497 60.288ZM88.7317 60.288C85.7797 60.288 83.7997 58.182 83.7997 55.41C83.7997 52.638 85.7797 50.532 88.7317 50.532C91.7017 50.532 93.6457 52.638 93.6457 55.41C93.6457 58.182 91.7017 60.288 88.7317 60.288ZM88.7137 58.2C89.9917 58.2 90.6757 57.084 90.6757 55.41C90.6757 53.736 89.9917 52.602 88.7137 52.602C87.4357 52.602 86.7697 53.736 86.7697 55.41C86.7697 57.084 87.4357 58.2 88.7137 58.2ZM98.1158 60.108C96.4058 60.108 95.1818 59.55 95.1818 57.57V52.62H93.9578V50.784H95.1818V47.868H98.0438V50.784H99.7178V52.62H98.0438V56.94C98.0438 57.66 98.4398 57.84 99.0698 57.84C99.3218 57.84 99.6098 57.822 99.7178 57.822V59.964C99.4658 60.036 98.9078 60.108 98.1158 60.108ZM104.338 60.108C102.628 60.108 101.404 59.55 101.404 57.57V52.62H100.18V50.784H101.404V47.868H104.266V50.784H105.94V52.62H104.266V56.94C104.266 57.66 104.662 57.84 105.292 57.84C105.544 57.84 105.832 57.822 105.94 57.822V59.964C105.688 60.036 105.13 60.108 104.338 60.108ZM108.471 46.86C109.389 46.86 110.091 47.508 110.091 48.426C110.091 49.344 109.389 49.992 108.471 49.992C107.553 49.992 106.851 49.344 106.851 48.426C106.851 47.508 107.553 46.86 108.471 46.86ZM106.995 60V50.784H109.929V60H106.995Z" fill="#F8AF3C"/>
<path d="M56.3448 16.3145L50.3916 10.3613" stroke="#F8AF3C" stroke-width="1.26233" stroke-linecap="round" stroke-linejoin="round"/>
<path d="M54.9109 25.5802L52.9164 27.5747C50.1898 30.3013 45.7716 30.3013 43.045 27.5747C40.3183 24.848 40.3183 20.4298 43.045 17.7032L57.7032 3.04498C60.4298 0.31834 64.848 0.31834 67.5747 3.04498C70.3013 5.77162 70.3013 10.1898 67.5747 12.9164L65.7266 14.7645" stroke="#F8AF3C" stroke-width="1.26233" stroke-linecap="round" stroke-linejoin="round"/>
<path d="M62.2074 30.1147C66.5772 30.1147 70.1197 26.5722 70.1197 22.2024C70.1197 17.8325 66.5772 14.29 62.2074 14.29C57.8375 14.29 54.295 17.8325 54.295 22.2024C54.295 26.5722 57.8375 30.1147 62.2074 30.1147Z" stroke="#F8AF3C" stroke-width="1.26233" stroke-linecap="round" stroke-linejoin="round"/>
<path d="M58.6326 25.7773L65.7824 18.6274" stroke="#F8AF3C" stroke-width="1.26233" stroke-linecap="round" stroke-linejoin="round"/>
</svg>
